<svg xmlns="http://www.w3.org/2000/svg" viewBox="0 0 191.07 203.72"><defs><style>.cls-1{fill:#ffb1b5;}.cls-1,.cls-3,.cls-4,.cls-5,.cls-6,.cls-8{fill-rule:evenodd;}.cls-2,.cls-8{fill:#fff;}.cls-3{fill:#ff9498;}.cls-4{fill:#f34e42;}.cls-5{fill:#f68077;}.cls-6{fill:#333;}.cls-7{fill:#ffc8cb;}.cls-9{fill:#f2f6fa;}</style></defs><title>Asset 3</title><g id="Layer_2" data-name="Layer 2"><g id="graphic"><path class="cls-1" d="M122.32,90.21a20.28,20.28,0,0,0,26.5,9.8c6.45-2.93,8.87,4,4.81,10.7-6.82,11.17-32,20.29-47.44,6.2Z"/><path class="cls-2" d="M122.12,123.91c23-2.27,32.63-14.48,31.34-20.57-.84-4-7.72.43-15-.27a12,12,0,0,1-8.68-4.47,20,20,0,0,0,19,1.41c6.45-2.93,8.87,4,4.81,10.7C148.87,118.5,135.2,125.29,122.12,123.91Z"/><path class="cls-1" d="M145.88,176.8c-6.42,3.55-21.95-.18-31.78-17.11s-6.6-39,9.78-61.08c34.93-24.19,28.38-70.91,4.17-88.12C102.93-7.36,56.56-6.64,34.68,46.25,17.37,88.09,22.72,143.12,54,173.5c18.84,18.31,63.45,35.08,93.14,17.74C155.2,186.51,153.28,180.56,145.88,176.8Z"/><path class="cls-1" d="M167.3,145.54c-4.37,8.89,8.27,19.1-5.05,32.34,17.13-2,21,17.61,28.82,20.46-5.48,6.72-37.43,11.21-48.33-12.31C139.65,170.53,147.87,150.11,167.3,145.54Z"/><path class="cls-2" d="M144.09,188.17C74.56,203.47,26.82,140.39,52.66,78.83c3.63-8.64,7.78-9.15,10.1-4.57C72.47,95,94.81,101,113.22,96.22c4.29-1.13,5.81,1.91,2,7.31-25.59,35.91-6.38,79.08,26.93,78.54C148.06,181.43,149.67,186.75,144.09,188.17Z"/><path class="cls-3" d="M112.35,76.88c.9-3.31-1.33-8.65-7.2-10.8-8.29-3-12.57-.78-17.7,1.94C99.71,68.5,107,70.83,112.35,76.88Z"/><path class="cls-4" d="M116.14,85.66c-4.93-3-5.77-8.43-14.55-11.36-11.23-3.76-15.76.64-24.86-2.49,2.14,4.32,7.59,11.27,20.06,15.2C104.58,89.46,114,88.27,116.14,85.66Z"/><path class="cls-5" d="M107.36,88.35c-.56-6.16-2.75-10.93-8.16-14.76C91,71,81.29,73.89,76.72,71.75,80.63,80.94,94.82,89.45,107.36,88.35Z"/><path class="cls-6" d="M127.58,50.86c4.16-1.5,10,.94,9.39,4.83C139.84,50.93,133.32,45.31,127.58,50.86Z"/><path class="cls-7" d="M132.16,13.85a42.55,42.55,0,0,0-4.11-3.36C102.93-7.36,56.56-6.64,34.68,46.25,17.37,88.09,22.72,143.12,54,173.5c16.84,16.36,54.25,31.5,83.2,22.16-20.11,1.74-50.55-1.51-75.34-22.47-33.57-28.4-34.13-69.06-28.68-95.11S56.92,6,100.39,9.89c30.67,2.75,43,26.27,47.59,47.43C149.27,40.56,143,24,132.16,13.85Z"/><path class="cls-6" d="M75.47,53.05c7.09.19,10.35,2.19,11.43,5.38C90.93,52.53,81.25,47.39,75.47,53.05Z"/><path class="cls-6" d="M84.82,52.28a6.56,6.56,0,0,0,6.67.62c.33,1.41-3.13,3.9-5.37,2.85Z"/><path class="cls-6" d="M100.77,37.1c-.84-3.69-4.85-5.16-9.62-4.11C95.44,28.34,104,31.62,100.77,37.1Z"/><path class="cls-8" d="M118.76,67.8c2.22-4.35,6.57-8.41,11.18-5.83,5,2.79,3.31,7.73,1.09,12.08s-6.44,6.84-10,4.79C117.7,76.87,116.54,72.15,118.76,67.8Z"/><path class="cls-6" d="M122.14,69.26c.52-2.56,3.11-7.12,7.24-6.22,4.49,1,4.56,4.54,3.3,8.32S128,78,125.56,77.46C121.19,76.46,121.57,72.12,122.14,69.26Z"/><path class="cls-6" d="M117.86,69.64c2.22-4,6.19-7.92,10.19-6.41,5.3,2,3.26,10.21-.6,13.84,3.33-.53,9.55-9.18,4.61-14.64C129.13,59.2,119.71,59.67,117.86,69.64Z"/><path class="cls-6" d="M132.44,63.43c1.19,1.28,3.78,2.41,5,1.64,0,1.4-3.25,2.22-4.24,1.45Z"/><path class="cls-8" d="M130,66c2.74,1.09.11,6.83-2.71,5C125,69.52,127.69,65.06,130,66Z"/><path class="cls-2" d="M134.32,89.45c5.78-8.89,12-22.86,10-43.08-2-19.19-21.52-46.64-57.22-41.8-29.69,4-51.93,34.87-61.13,75.54a129.8,129.8,0,0,1,8.76-33.86C56.56-6.64,102.93-7.36,128.05,10.49,149.47,25.72,157.07,64.06,134.32,89.45Z"/><path class="cls-2" d="M144.47,177.42c-11.82,3.69-25.13-3.41-33-17-9.06-15.64-5.39-31.62-.15-38.32-4.47,13.72-3.55,26.69,2.79,37.59C123.27,175.49,137.4,179.79,144.47,177.42Z"/><path class="cls-2" d="M167.3,145.54c-4.37,8.89,8.27,19.1-5.05,32.34,17.13-2,21,17.61,28.82,20.46-1.76,2.16-6.26,4.09-11.91,4.94q6.65-1.92,8.58-4.69c-8.3-4.63-8-20.11-27.91-19.78,12.22-16.19,1-23.13,4.91-29.37-7.87.85-14.79,6.48-20.2,16.73C148.14,156.6,155.74,148.26,167.3,145.54Z"/><path class="cls-9" d="M62.66,74.08c-27.4,40.4.4,122.84,83.1,113.45a6.61,6.61,0,0,1-1.67.64C74.56,203.47,26.82,140.39,52.66,78.83,56.24,70.3,60.33,69.7,62.66,74.08Z"/><path class="cls-1" d="M45.09,64.13c-15,4-27.32-2.36-34.62-9C5.21,50.4.52,54.26,0,62.05-.79,75.11,16.71,97.82,37.32,99Z"/><path class="cls-2" d="M38.92,65.24c-3,1.8-10.88,1.5-17-.67-9.95-3.52-12.57-10-17-8.38C1.67,57.37,1.79,66,3.89,71c5,12,18,21.93,23.76,25.86C11.54,90.75-.66,73,0,62.05c.49-7.79,5.18-11.65,10.44-6.89C16.74,60.84,26.72,66.34,38.92,65.24Z"/></g></g></svg>