<svg xmlns="http://www.w3.org/2000/svg" xmlns:xlink="http://www.w3.org/1999/xlink" viewBox="0 0 648 648"><defs><style>.cls-1{fill:#7568ce;}.cls-2{fill:#632bd4;}.cls-3,.cls-69{fill:#631aba;}.cls-12,.cls-13,.cls-18,.cls-19,.cls-20,.cls-21,.cls-22,.cls-23,.cls-25,.cls-26,.cls-31,.cls-32,.cls-33,.cls-34,.cls-36,.cls-37,.cls-38,.cls-4,.cls-40,.cls-41,.cls-43,.cls-44,.cls-45,.cls-46,.cls-47,.cls-5,.cls-52,.cls-60,.cls-64,.cls-65,.cls-66,.cls-68,.cls-69,.cls-7,.cls-70,.cls-9{fill-rule:evenodd;}.cls-4{fill:url(#New_Gradient_1);}.cls-49,.cls-5{fill:#fff;}.cls-6{fill:#8fe94e;}.cls-7{fill:#567da4;}.cls-8{fill:url(#New_Gradient_2);}.cls-9{fill:url(#linear-gradient);}.cls-10{fill:#ffffa9;}.cls-11{fill:#dcff56;}.cls-12{fill:url(#New_Gradient_4);}.cls-13{fill:url(#New_Gradient_5);}.cls-14{fill:url(#New_Gradient_6);}.cls-15{fill:url(#linear-gradient-2);}.cls-16{fill:url(#New_Gradient_7);}.cls-17{fill:#adade9;}.cls-18{fill:url(#New_Gradient_8);}.cls-19{fill:#925fcf;}.cls-20{fill:url(#New_Gradient_9);}.cls-21{fill:url(#New_Gradient_10);}.cls-22,.cls-30{fill:#ffffcb;}.cls-23{fill:#ff9094;}.cls-24{fill:url(#New_Gradient_11);}.cls-25{fill:#333;}.cls-26{fill:#f34e42;}.cls-27{fill:#f68077;}.cls-28{fill:url(#New_Gradient_12);}.cls-29{fill:url(#New_Gradient_13);}.cls-31{fill:#707070;}.cls-32{fill:#b1bef6;}.cls-33{fill:#e1dcff;}.cls-34,.cls-35{fill:#709ccb;}.cls-36{fill:#b67db6;}.cls-37{fill:#8fa4ee;}.cls-38{fill:#9c68b6;}.cls-39{fill:#4975ba;}.cls-40{fill:#7968b6;}.cls-41,.cls-42{fill:#11528a;}.cls-43{fill:#c1cbf8;}.cls-44{fill:#8a8fdc;}.cls-45,.cls-48{fill:#ded6f7;}.cls-46{fill:#c1b0f1;}.cls-47{fill:#c8bbf1;}.cls-50{fill:url(#radial-gradient);}.cls-51{fill:#a9cff2;}.cls-52{fill:#ffffe5;}.cls-53{fill:#ffff94;}.cls-54{fill:#ffff68;}.cls-55{fill:#6cbaf2;}.cls-56{fill:#a180e5;}.cls-57{fill:#d0bff2;}.cls-58{fill:#ffffc7;}.cls-59{fill:url(#New_Gradient_15);}.cls-60{fill:#ffc200;}.cls-61{fill:#ffd400;}.cls-62{fill:#ffdc00;}.cls-63{fill:#ffd200;}.cls-64{fill:#ffe;}.cls-65{fill:#ffa900;}.cls-66{fill:#ff6349;}.cls-67{fill:#ff9484;}.cls-68{fill:#7c7c7c;}.cls-70{fill:#410097;}</style><linearGradient id="New_Gradient_1" x1="661.54" y1="298.65" x2="553.07" y2="263.41" gradientUnits="userSpaceOnUse"><stop offset="0" stop-color="#16a497"/><stop offset="1" stop-color="#ff0"/></linearGradient><linearGradient id="New_Gradient_2" x1="509.69" y1="340.87" x2="621.38" y2="291.14" gradientUnits="userSpaceOnUse"><stop offset="0" stop-color="#708abe"/><stop offset="1" stop-color="#709ccb"/></linearGradient><linearGradient id="linear-gradient" x1="19.13" y1="368.02" x2="77.13" y2="278.02" gradientUnits="userSpaceOnUse"><stop offset="0" stop-color="#0068a0"/><stop offset="0.51" stop-color="#16a497"/><stop offset="0.53" stop-color="#24a98e"/><stop offset="0.77" stop-color="#99d742"/><stop offset="0.93" stop-color="#e2f413"/><stop offset="1" stop-color="#ff0"/></linearGradient><linearGradient id="New_Gradient_4" x1="504.58" y1="749.15" x2="109.17" y2="243.05" gradientUnits="userSpaceOnUse"><stop offset="0" stop-color="#ffffcb"/><stop offset="1" stop-color="#fff"/></linearGradient><linearGradient id="New_Gradient_5" x1="344.31" y1="682.79" x2="296.15" y2="290.61" gradientUnits="userSpaceOnUse"><stop offset="0" stop-color="#6358c4"/><stop offset="0.41" stop-color="#6375d8"/><stop offset="1" stop-color="#ffffcb"/></linearGradient><linearGradient id="New_Gradient_6" x1="157.68" y1="376.42" x2="157.68" y2="660.95" gradientUnits="userSpaceOnUse"><stop offset="0" stop-color="#ffffcb"/><stop offset="1" stop-color="#6375d8"/></linearGradient><linearGradient id="linear-gradient-2" x1="446.64" y1="629.9" x2="347.64" y2="278.9" gradientUnits="userSpaceOnUse"><stop offset="0" stop-color="#6358c4"/><stop offset="0.2" stop-color="#6375d8"/><stop offset="1" stop-color="#ffffcb"/></linearGradient><linearGradient id="New_Gradient_7" x1="525.06" y1="524.68" x2="585.12" y2="300.55" gradientUnits="userSpaceOnUse"><stop offset="0" stop-color="#6375d8"/><stop offset="1" stop-color="#ffffcb"/></linearGradient><linearGradient id="New_Gradient_8" x1="47.65" y1="385.3" x2="64.4" y2="366.03" gradientUnits="userSpaceOnUse"><stop offset="0" stop-color="#fff"/><stop offset="1" stop-color="#ffffa9"/></linearGradient><linearGradient id="New_Gradient_9" x1="71.09" y1="366.17" x2="85.82" y2="351.44" xlink:href="#New_Gradient_8"/><linearGradient id="New_Gradient_10" x1="-3.18" y1="381.85" x2="14.11" y2="363.94" xlink:href="#New_Gradient_8"/><radialGradient id="New_Gradient_11" cx="281" cy="245" r="267.17" gradientUnits="userSpaceOnUse"><stop offset="0" stop-color="#ffb1b5"/><stop offset="0.5" stop-color="#ffb1b5"/><stop offset="1" stop-color="#9178e3"/></radialGradient><linearGradient id="New_Gradient_12" x1="394.75" y1="219.56" x2="394.75" y2="470" gradientUnits="userSpaceOnUse"><stop offset="0" stop-color="#ffa1a4"/><stop offset="1" stop-color="#9168d8"/></linearGradient><radialGradient id="New_Gradient_13" cx="327.43" cy="249.25" r="197.16" gradientUnits="userSpaceOnUse"><stop offset="0" stop-color="#fffb9c"/><stop offset="0.47" stop-color="#ffc7cb"/><stop offset="1" stop-color="#c8bbf1"/></radialGradient><radialGradient id="radial-gradient" cx="128.32" cy="137.32" r="128.32" gradientTransform="translate(134.69 -50.52) rotate(45)" gradientUnits="userSpaceOnUse"><stop offset="0" stop-color="#ffffc2"/><stop offset="0.42" stop-color="#ffffc2"/><stop offset="0.92" stop-color="#632bd4"/><stop offset="1" stop-color="#632bd4"/></radialGradient><radialGradient id="New_Gradient_15" cx="107.11" cy="86.87" r="113.1" gradientTransform="translate(263.44 1.3) rotate(89.35)" gradientUnits="userSpaceOnUse"><stop offset="0" stop-color="#ffdc00"/><stop offset="1" stop-color="#ffff68"/></radialGradient></defs><title>Artboard 2</title><g id="graphic"><rect class="cls-1" x="-14.17" y="-14.17" width="676.35" height="676.35"/><rect class="cls-2" x="-14.17" y="-14.58" width="676.35" height="676.35"/><path class="cls-3" d="M662.17,66.47V83.1c-36.26,10.49-99.89,35.21-100.83,79.36-1,47,63,75.87,100.83,85.86v49.55c-44.71-18.59-120.89-59.32-131.32-119.94C521.28,122.31,610.88,79.28,662.17,66.47Z"/><path class="cls-3" d="M643.92-14.58C630.67,26.66,561,66.35,518,87.09,433.68,127.8,381,161.9,407.73,239c22.92,66.12,146.49,111.63,175.92,245.33H547.59C534.8,370.59,365.45,305,339.4,235.21,310,156.55,356,84.49,420.34,36.82a352.3,352.3,0,0,0,55.87-51.4Z"/><path class="cls-4" d="M662.17,273.22c0-10.26-17.83-16.45-25.53-8.38.31-9.37-19.59-15.15-26.27-5.19-7.93-9.88-24.24-2.49-21.28,8.61-6.31-4.09-15,1.47-13.79,7.64-11.64-9.21-34.35,4.57-24.62,20.22l111.49,24.19Z"/><path class="cls-5" d="M613.91,267.29a2.18,2.18,0,1,1-2.18,2.18A2.18,2.18,0,0,1,613.91,267.29Z"/><path class="cls-6" d="M628.3,274.08a2.48,2.48,0,1,1-2.47,2.47A2.48,2.48,0,0,1,628.3,274.08Z"/><path class="cls-5" d="M586.4,275.29a1.57,1.57,0,1,1-1.57,1.57A1.56,1.56,0,0,1,586.4,275.29Z"/><path class="cls-5" d="M561.94,280.86a1.41,1.41,0,1,1-1.41,1.41A1.41,1.41,0,0,1,561.94,280.86Z"/><path class="cls-5" d="M634.83,288a1.56,1.56,0,1,1-1.56,1.56A1.56,1.56,0,0,1,634.83,288Z"/><path class="cls-7" d="M662.17,312.51c-32.49-27.09-160.06-30.64-170.53,17.09L662.17,408Z"/><path class="cls-8" d="M495.8,319.83c31.15,6.36,132.19,18.53,134.85-3,1.68-13.62-21.9-19.81-38.86-23.73C552.36,291,509.9,298.52,495.8,319.83Z"/><path class="cls-9" d="M-14.17,310.24c1.2-13.59,18.44-17.19,26.77-8.8,5.59-10.78,20.61-15,30-4,6.39-10.39,21.29-8.26,25.57,2.4,6.39-10,21.74-8.59,25.57,2,14.79-7.19,34.37,5.2,26,22.78L-14.17,375.77Z"/><path class="cls-5" d="M96,309.7a1.8,1.8,0,1,1-1.81,1.8A1.8,1.8,0,0,1,96,309.7Z"/><circle class="cls-10" cx="66.72" cy="310.21" r="1.25"/><path class="cls-11" d="M38.27,305A2.33,2.33,0,1,1,36,307.31,2.32,2.32,0,0,1,38.27,305Z"/><path class="cls-11" d="M15.85,311.68a2,2,0,1,1-2,2A2,2,0,0,1,15.85,311.68Z"/><path class="cls-10" d="M44.56,320.81a1.7,1.7,0,1,1-1.69,1.7A1.7,1.7,0,0,1,44.56,320.81Z"/><path class="cls-5" d="M81.89,304.69a1.25,1.25,0,1,1-1.26,1.25A1.25,1.25,0,0,1,81.89,304.69Z"/><path class="cls-12" d="M662.09,374.69c-172.81-83.09-481.92-97.47-676-20.37V661.58h676Z"/><path class="cls-13" d="M662.09,374.69c-165.83-75.29-497.64-90-676-11.29V661.58h676Z"/><path class="cls-14" d="M-13.91,376.42C16,411.6,82.55,411.6,81.28,436.87S34.92,456.37,40,494.15s165.79,38.45,173.79,69.79c7.23,28.32-48.08,19.73-50.54,43.9-2.92,28.66,110,48.26,166,53.11H-13.91Z"/><path class="cls-15" d="M662.09,535.91V661.58H336C306,502.29,169.21,499.8,153,446.46,137.86,396.93,213.45,392,212.17,359c-.62-16.18-49.8-25.94-92.81-33.78,30.08-5.24,61.61-9,93.89-11.36,55.27,10.28,98,24.92,98.75,41.24,1.43,32.28-92,31.27-62.56,83.2C269.76,474.19,490.74,487.16,662.09,535.91Z"/><path class="cls-16" d="M662.09,374.69V504c-33.5-2-69.9-9-81.83-33.7s32-38.62,6.67-66.21-71-15.39-117.34-40c-25.58-13.59-29.13-30.45-19.26-43.57C531.6,330.85,606.25,349.34,662.09,374.69Z"/><path class="cls-17" d="M59.41,408.8l.67-.48,4.12-2.78,1.61-11-7.74,1.24-.4-1.53L66,393a4.58,4.58,0,0,0-2.51-1.79c-2.21-.27-10.69.18-13.67,1.19a6.62,6.62,0,0,0-2.54,3.46l8.44-1.29.4,1.54-9.07,1.44c-.34,4.5,3.76,10.46,9.61,13.11l2.74-1.85Z"/><path class="cls-18" d="M59.56,368.63l4.51,16.55-19,.39c-1.53-6.84.86-17.12,5.84-22.76Z"/><polygon class="cls-19" points="54.04 364.89 54.3 390.04 56.26 390.37 55.03 365.74 54.04 364.89"/><path class="cls-19" d="M64.68,387.53l-19,.6a10.18,10.18,0,0,0,3.4,4.65c3.17.76,11.53-.82,13.61-1.82A6.24,6.24,0,0,0,64.68,387.53Z"/><path class="cls-17" d="M79.64,386.68l.6-.36,3.63-2.1,2-9.2-6.6.59L79,374.3l7.11-.58a3.86,3.86,0,0,0-2-1.66c-1.85-.36-9-.48-11.6.19A5.65,5.65,0,0,0,70.17,375l7.21-.59.24,1.32-7.73.69c-.56,3.78,2.55,9.05,7.33,11.62l2.42-1.4Z"/><path class="cls-20" d="M82.14,352.79,85,367l-16.08-.79c-.89-5.87,1.74-14.4,6.27-18.87Z"/><polygon class="cls-19" points="77.7 349.31 76.43 370.56 78.06 370.95 78.48 350.09 77.7 349.31"/><path class="cls-19" d="M85.34,369.05l-16-.62a8.63,8.63,0,0,0,2.59,4.13c2.63.83,9.77,0,11.59-.73A5.25,5.25,0,0,0,85.34,369.05Z"/><path class="cls-17" d="M7.33,405.94l.69-.45,4.26-2.55L14.46,392l-7.79.82-.32-1.54,8.39-.83a4.57,4.57,0,0,0-2.4-1.92c-2.2-.38-10.69-.38-13.72.47a6.62,6.62,0,0,0-2.72,3.32l8.5-.84.31,1.55-9.12,1c-.58,4.48,3.2,10.64,8.9,13.59l2.83-1.7Z"/><path class="cls-21" d="M9.58,365.83l3.64,16.76-19-.6c-1.18-6.91,1.75-17.05,7-22.42Z"/><polygon class="cls-19" points="4.27 361.81 3.2 386.94 5.14 387.37 5.2 362.71 4.27 361.81"/><path class="cls-19" d="M13.7,385l-19-.39a10.23,10.23,0,0,0,3.15,4.83c3.12.92,11.55-.22,13.68-1.11A6.21,6.21,0,0,0,13.7,385Z"/><path class="cls-22" d="M356.61,290.68c-5.19,15-15,25.4-30.62,24.86-6-.2-10.23,2.85-2.74,9.81,9.24,8.57,40.44,16.33,62,1.4Z"/><path class="cls-23" d="M357.7,294.69c-4.66,13.47-13.51,22.8-27.5,22.32-5.41-.18-10.91,2.05-4.19,8.29,8.3,7.7,38.05,15.18,57.38,1.77Z"/><path class="cls-24" d="M339.55,310.36c-22.16,3.42-43.62-7.21-32.63-19.45-9.57-5.2-17.91-12.45-16.32-17.78,2.42-8.17,12.73-3.18,20.24-13,9.6-31.75,43.71-47.82,83.71-37.37,70.47,18.42,99.66,87.68,79.7,148.07-14.21,43-57.74,85.27-114.92,73.08-7.28,19.81-30.4,30.14-50.23,24.64,9.16-6.81,8.26-22.56,28.6-33.87-22.49-3.13-18.5-25.39-25.82-31.71,8.41-3.77,39.59,0,47.59,24.75,29.22-5.93,43.22-46.51,26.8-81-18.94,10.11-46.47,8.18-54.94,2.94-10.25-6.33-5-11.24.88-12.42,11.36-2.28,20.75-7.44,25-18C351.21,316.31,345.16,313.82,339.55,310.36Z"/><path class="cls-25" d="M343.5,255.1c-2.82-4.74-6.11-7.57-10.47-6.7C336.23,243.23,343.36,245.76,343.5,255.1Z"/><path class="cls-26" d="M312.88,292.63a88.51,88.51,0,0,0,25.6,8.46C322.14,310.83,305.48,298.84,312.88,292.63Z"/><path class="cls-27" d="M325.42,297.86c-3.45,1-6.25,3-7.52,5.47,5.29,2.12,13,2.3,20.58-2.24A97.65,97.65,0,0,1,325.42,297.86Z"/><path class="cls-28" d="M309.1,468.53q37-8.1,48.08-33.19c74.25,11.79,134.59-103.65,68.56-170-38.92-39.13-81.13-41.81-106.12-22.57,15-19.82,43.09-28.31,74.93-20,70.47,18.42,99.66,87.68,79.7,148.07-14.21,43-57.74,85.27-114.92,73.08C352.05,463.7,328.93,474,309.1,468.53Z"/><path class="cls-29" d="M394.55,222.74l.43.11a127.41,127.41,0,0,1,31.22,13,110.84,110.84,0,0,1,16.32,11.82c15.69-5.54,42.16-.51,55.5,18.46,3.26,4.63-19.87,6.1-26.91,20.92,11.08,25.86,13.44,55.77,4.19,83.76-14.07,42.61-57.3,86-114.3,73.36,51.71-.36,89.78-35.11,101.72-77,10.46-36.73,4.7-112.27-67.23-135.57-46.06-14.92-79.42,15.56-78.7,35.58-8.11,6.72-17.55,6.32-25.31,4,3.45-5.38,12.56-2.12,19.36-11C320.44,228.36,354.55,212.29,394.55,222.74Z"/><path class="cls-30" d="M339.55,310.36c-22.16,3.42-43.62-7.21-32.63-19.45-9.57-5.2-17.91-12.45-16.32-17.78a7.36,7.36,0,0,1,.88-2c3.45-5.39,12.56-2.12,19.36-11,9.6-31.75,43.71-47.82,83.71-37.37l.43.11a122,122,0,0,1,31.22,13,110.84,110.84,0,0,1,16.32,11.82c14.46-5.1,38.07-1.23,52.13,14.25-13-11.19-41-17.45-51-9.05C429,237.29,389.64,217.75,354.82,224c-27.49,4.95-42,30.38-42,38.47-4.75,6.88-18.07,5.82-19.73,11.63-1.53,5.36,11.33,14.18,17.11,16-1.58,1.86-5.17,4.75-3.05,10.1C310,307.28,332.36,310.76,339.55,310.36Z"/><path class="cls-5" d="M364.78,304.23c3.69-3,13-3.88,22,2.13,9.73,6.54,14.09,17.9,13.53,30.84-5.88-13.59-10.17-20.15-17.89-26C374.91,305.6,370.45,305.28,364.78,304.23Z"/><path class="cls-30" d="M357.66,353.83c-11.45.52-21.72-1.36-26.33-4.21-10.25-6.33-5-11.24.88-12.42,10.66-2.14,19.58-6.82,24.14-16.12,1.06,6.29-3.59,10-11.63,14.39-9.34,5.09-15.77,4.91-13.89,9.5C332.61,349.35,344.15,352.84,357.66,353.83Z"/><path class="cls-30" d="M391.43,361.45c10.76,29.74-1.81,60.88-32.68,68.42q-10.41-25-40.21-23.87,2.2,22.37,19.16,28.66c-22.49-3.13-18.5-25.39-25.82-31.71,8.41-3.77,39.59,0,47.59,24.75C384.59,422.6,398.46,391.89,391.43,361.45Z"/><path class="cls-5" d="M326.13,273.29c-.28-5.29,1.62-11.46,7.35-11.54,6.23-.1,7.3,5.47,7.57,10.76s-2.34,9.92-6.76,9.9C330.06,282.39,326.41,278.58,326.13,273.29Z"/><path class="cls-25" d="M325.56,272.35c-.14-3.56,1.53-10.15,6.54-9.59,5.44.62,6.55,5.46,6.17,10.79s-4.58,8.33-6.76,8.05C327.54,281.08,325.72,276.32,325.56,272.35Z"/><path class="cls-25" d="M326.44,276.43c-.09-5.28,1.68-11.77,6.54-12.56,6.43-1.05,9.11,8.29,7.36,14.13,1.84-2.18,4-12.7-2.77-16.48C332,258.38,324.81,261.14,326.44,276.43Z"/><path class="cls-25" d="M329.19,262.94a11.44,11.44,0,0,1-6,1.81c-.09.94,3,2,4.3,1.44Z"/><path class="cls-31" d="M328.67,272.57c-.06-1.69.73-4.82,3.11-4.55,2.59.29,3.11,2.59,2.93,5.12s-2.17,4-3.21,3.83C329.61,276.72,328.75,274.46,328.67,272.57Z"/><path class="cls-5" d="M328.67,268.87c0-1.2.52-3.42,2.2-3.23s2.21,1.84,2.08,3.63-1.54,2.81-2.28,2.71C329.34,271.81,328.73,270.21,328.67,268.87Z"/><path class="cls-30" d="M337.7,434.66c-15.08,9.64-18.56,33.74-28.6,33.87C317.31,462.17,317.36,446,337.7,434.66Z"/><polygon class="cls-32" points="576.38 297.99 564.5 298.54 565.56 291.32 577.39 291.08 576.38 297.99"/><polygon class="cls-33" points="556.64 296.26 564.66 298.53 565.77 291.51 561.99 285.55 556.95 289.69 556.64 296.26"/><polygon class="cls-34" points="577.44 291.15 565.74 291.84 561.93 285.6 573.44 285.04 577.44 291.15"/><polygon class="cls-35" points="575.61 293.49 575.44 294.94 573.72 294.99 573.88 293.53 575.61 293.49"/><polygon class="cls-35" points="572.86 293.53 572.69 294.98 570.96 295.03 571.13 293.57 572.86 293.53"/><polygon class="cls-32" points="599.43 299.32 586.72 299.69 587.99 292 600.64 291.95 599.43 299.32"/><polygon class="cls-33" points="578.36 297.1 586.89 299.68 588.21 292.2 584.28 285.76 578.81 290.08 578.36 297.1"/><polygon class="cls-36" points="600.69 292.03 588.17 292.55 584.21 285.81 596.6 285.44 600.69 292.03"/><polygon class="cls-35" points="598.65 294.41 598.44 295.96 596.59 295.98 596.8 294.42 598.65 294.41"/><polygon class="cls-35" points="595.7 294.4 595.49 295.95 593.65 295.97 593.86 294.41 595.7 294.4"/><polygon class="cls-37" points="641.68 306.59 629.99 306.93 631.16 299.86 642.78 299.82 641.68 306.59"/><polygon class="cls-32" points="622.3 304.55 630.14 306.92 631.36 300.04 627.74 294.12 622.72 298.1 622.3 304.55"/><polygon class="cls-38" points="642.83 299.89 631.32 300.36 627.68 294.17 639.99 293.83 642.83 299.89"/><polygon class="cls-39" points="640.91 302.08 640.72 303.51 639.03 303.53 639.22 302.1 640.91 302.08"/><polygon class="cls-39" points="638.21 302.07 638.02 303.51 636.32 303.52 636.51 302.09 638.21 302.07"/><polygon class="cls-37" points="630.63 316.77 618.68 317.33 619.75 310.06 631.64 309.81 630.63 316.77"/><polygon class="cls-32" points="610.77 315.03 618.84 317.31 619.95 310.25 616.15 304.25 611.08 308.42 610.77 315.03"/><polygon class="cls-40" points="631.7 309.89 619.92 310.58 616.09 304.3 628.68 303.74 631.7 309.89"/><polygon class="cls-39" points="629.89 312.24 629.72 313.7 627.98 313.75 628.15 312.28 629.89 312.24"/><polygon class="cls-39" points="627.12 312.28 626.95 313.74 625.21 313.79 625.38 312.32 627.12 312.28"/><polygon class="cls-32" points="658.73 339.18 643.63 339.62 645.14 330.48 660.15 330.43 658.73 339.18"/><polygon class="cls-32" points="633.71 336.55 643.84 339.61 645.4 330.72 640.73 323.07 634.25 328.21 633.71 336.55"/><polygon class="cls-41" points="660.22 330.52 645.36 331.14 640.66 323.14 656.55 322.7 660.22 330.52"/><polygon class="cls-34" points="636.53 340.7 621.43 341.14 622.94 332 637.95 331.95 636.53 340.7"/><polygon class="cls-32" points="611.51 338.06 621.63 341.12 623.2 332.24 618.53 324.59 612.04 329.73 611.51 338.06"/><polygon class="cls-41" points="638.02 332.04 623.15 332.65 618.46 324.65 634.35 324.22 638.02 332.04"/><polygon class="cls-42" points="635.51 334.86 635.27 336.7 633.08 336.72 633.32 334.87 635.51 334.86"/><polygon class="cls-42" points="632.02 334.84 631.77 336.69 629.58 336.71 629.82 334.86 632.02 334.84"/><polygon class="cls-37" points="652.81 316.98 640.85 317.54 641.92 310.27 653.82 310.02 652.81 316.98"/><polygon class="cls-32" points="632.94 315.24 641.01 317.52 642.13 310.46 638.32 304.46 633.25 308.63 632.94 315.24"/><polygon class="cls-34" points="653.87 310.1 642.1 310.79 638.26 304.51 650.86 303.95 653.87 310.1"/><polygon class="cls-39" points="649.29 312.49 649.12 313.95 647.38 314 647.55 312.53 649.29 312.49"/><polygon class="cls-43" points="592.1 310.5 579.39 310.87 580.66 303.18 593.3 303.13 592.1 310.5"/><polygon class="cls-33" points="571.02 308.28 579.56 310.86 580.88 303.38 576.94 296.94 571.48 301.26 571.02 308.28"/><polygon class="cls-36" points="593.36 303.21 580.84 303.73 576.88 296.99 588.27 296.62 593.36 303.21"/><polygon class="cls-35" points="591.31 305.59 591.11 307.14 589.26 307.15 589.47 305.6 591.31 305.59"/><polygon class="cls-35" points="588.37 305.58 588.16 307.13 586.31 307.15 586.52 305.59 588.37 305.58"/><polygon class="cls-43" points="545.98 300.17 534.86 303.29 534.29 296.23 545.42 293.42 545.98 300.17"/><polygon class="cls-33" points="526.93 302.85 535.01 303.24 534.52 296.36 529.65 291.55 525.78 296.56 526.93 302.85"/><polygon class="cls-34" points="545.48 293.47 534.57 296.68 529.6 291.61 539.55 288.79 545.48 293.47"/><polygon class="cls-35" points="544.08 296.09 544.24 297.5 542.62 297.92 542.46 296.51 544.08 296.09"/><polygon class="cls-35" points="541.48 296.73 541.64 298.14 540.02 298.56 539.86 297.15 541.48 296.73"/><path class="cls-44" d="M320.09,527.87c.57,16.27,57.08,16.13,56.51-.11C376.14,514.77,319.62,514.26,320.09,527.87Z"/><path class="cls-45" d="M332.53,527.41c.68,9.65,31.1,8.63,30.42-1C362.4,518.7,332,519.33,332.53,527.41Z"/><path class="cls-45" d="M431.36,459.54c-2.14-8.34,10.38-26.8,26.73-28.74,18.37-2.19,23.41,14.58,14.33,20.55C461.82,458.31,449.28,437.47,431.36,459.54Z"/><path class="cls-30" d="M431.36,459.54c6.7-23.71,31.63-28.69,36.45-19.35,3,5.77.26,10-3.55,12.31,2.87.59,5.57.55,8.16-1.15,9.08-6,4-22.74-14.33-20.55C441.74,432.74,429.22,451.2,431.36,459.54Z"/><path class="cls-5" d="M468,442.27a2.91,2.91,0,1,0,2.9,2.9A2.9,2.9,0,0,0,468,442.27Z"/><path class="cls-5" d="M467.17,435.51a1.45,1.45,0,1,0,1.45,1.45A1.45,1.45,0,0,0,467.17,435.51Z"/><path class="cls-46" d="M358.13,503.85c-.54-14.4,5.84-41.51,18.16-49.78,9.55-6.41,17.6,4.48,9.65,9.68-9.28,6.07-21.2,17.22-22.75,40.64C362.48,506.82,359,506.45,358.13,503.85Z"/><path class="cls-5" d="M380.79,455a1.77,1.77,0,1,1-1.94,1.57A1.78,1.78,0,0,1,380.79,455Z"/><path class="cls-5" d="M377,457.63a1.06,1.06,0,1,1-1.16.94A1,1,0,0,1,377,457.63Z"/><path class="cls-45" d="M351.35,524.57c-.21-17.12-13-61.29-43.85-62.79-24.69-1.2-24.5,28-6.53,31.12,19.24,3.31,33.69,13.48,36.57,33.17C339.47,532,351.14,531.73,351.35,524.57Z"/><path class="cls-30" d="M351.17,525.9c-2.41-20.92-24.75-56.41-42.06-55.45-15.56.87-15.84,16-10.19,22-15.9-4.87-15.13-31.78,8.58-30.63,30.9,1.5,43.64,45.67,43.85,62.79A6.19,6.19,0,0,1,351.17,525.9Z"/><path class="cls-45" d="M286.18,427c5.56-8.12-.68-32.86-17.49-41.34-18.89-9.54-30.88,6.51-23.45,16.47C253.92,413.81,275.55,396.32,286.18,427Z"/><path class="cls-30" d="M286.18,427c2.07-28.1-22.78-43.21-31.61-35.05-5.47,5-4.19,10.63-1,14.62-3.32-.49-6.21-1.59-8.33-4.44-7.43-10,4.56-26,23.45-16.47C285.5,394.18,291.74,418.92,286.18,427Z"/><path class="cls-5" d="M253.58,394.15a3.33,3.33,0,1,1-4.27,2A3.33,3.33,0,0,1,253.58,394.15Z"/><path class="cls-5" d="M257.09,387.21a1.66,1.66,0,1,1-2.13,1A1.65,1.65,0,0,1,257.09,387.21Z"/><path class="cls-47" d="M350.73,529.51c0-22.87,21-64.47,57.34-64.42,33.51.05,29.82,35,4.38,33.42C381.58,496.61,367.46,503.25,350.73,529.51Z"/><path class="cls-48" d="M419.85,497.85c7.19-7.46,5.34-19.56-5.69-23.29-25.49-8.63-58.89,23.56-63.39,53.21,1-23.17,21.86-62.73,57.3-62.68C438,465.14,438.26,493,419.85,497.85Z"/><path class="cls-5" d="M420,477.57a4.79,4.79,0,1,1-4.79,4.79A4.78,4.78,0,0,1,420,477.57Z"/><path class="cls-5" d="M412.34,472.53a2.4,2.4,0,1,1-2.39,2.4A2.39,2.39,0,0,1,412.34,472.53Z"/><path class="cls-45" d="M293.81,448.82c1.75-6.86-8.55-22.05-22-23.65-15.12-1.8-19.27,12-11.8,16.91C268.74,447.81,279.06,430.66,293.81,448.82Z"/><path class="cls-30" d="M293.81,448.82c-5.52-19.51-26-23.61-30-15.92-2.46,4.75-.21,8.22,2.92,10.13a8.42,8.42,0,0,1-6.72-.95c-7.47-4.91-3.32-18.71,11.8-16.91C285.26,426.77,295.56,442,293.81,448.82Z"/><circle class="cls-49" cx="263.67" cy="437" r="2.39"/><path class="cls-44" d="M305.6,526.28c.32,6.06,19.2,5.75,18.88-.3C324.23,521.14,305.33,521.21,305.6,526.28Z"/><circle class="cls-50" cx="128.32" cy="137.32" r="128.32" transform="translate(-59.52 130.96) rotate(-45)"/><polygon class="cls-49" points="467.05 507.3 466.32 497.25 457.25 501.65 465.6 495.99 457.25 490.34 466.32 494.74 467.05 484.68 467.77 494.74 476.84 490.34 468.49 495.99 476.84 501.65 467.77 497.25 467.05 507.3"/><path class="cls-5" d="M360.92,491a1.54,1.54,0,1,1-1.56,1.51A1.53,1.53,0,0,1,360.92,491Z"/><path class="cls-5" d="M377.69,492.3a1.35,1.35,0,1,1,1.87-.4A1.35,1.35,0,0,1,377.69,492.3Z"/><path class="cls-5" d="M383.91,435.25a1.08,1.08,0,0,1,1.06,1.1,1.08,1.08,0,1,1-1.06-1.1Z"/><path class="cls-5" d="M334.87,552.78a2,2,0,1,1-2,2A2,2,0,0,1,334.87,552.78Z"/><path class="cls-51" d="M378.77,549a2.78,2.78,0,1,1-2.77,2.78A2.78,2.78,0,0,1,378.77,549Z"/><path class="cls-5" d="M440.75,516.49a1.39,1.39,0,0,1,1.37,1.41,1.39,1.39,0,1,1-1.37-1.41Z"/><path class="cls-5" d="M281.52,371.29a3.3,3.3,0,1,1-3.3,3.3A3.3,3.3,0,0,1,281.52,371.29Z"/><path class="cls-48" d="M466.25,523.23a1.73,1.73,0,1,1-1.74,1.73A1.73,1.73,0,0,1,466.25,523.23Z"/><path class="cls-5" d="M435.52,499.82a1.73,1.73,0,1,1,2.39-.55A1.73,1.73,0,0,1,435.52,499.82Z"/><path class="cls-51" d="M396.41,533.6a1.73,1.73,0,1,1,2.38-.55A1.74,1.74,0,0,1,396.41,533.6Z"/><path class="cls-51" d="M586.11,560.09a1.39,1.39,0,1,1-1.38,1.39A1.39,1.39,0,0,1,586.11,560.09Z"/><path class="cls-51" d="M507.5,577.92a4,4,0,1,1-4,4A4,4,0,0,1,507.5,577.92Z"/><path class="cls-5" d="M628.69,540a1.74,1.74,0,1,1-1.73,1.73A1.74,1.74,0,0,1,628.69,540Z"/><path class="cls-5" d="M298.13,506.27A1.73,1.73,0,1,1,296.4,508,1.73,1.73,0,0,1,298.13,506.27Z"/><path class="cls-5" d="M380.31,569.26a1.39,1.39,0,1,1,1.92-.44A1.4,1.4,0,0,1,380.31,569.26Z"/><path class="cls-5" d="M318.59,521.71a1.73,1.73,0,1,1-1.73,1.73A1.72,1.72,0,0,1,318.59,521.71Z"/><path class="cls-5" d="M351.28,594.34a1.39,1.39,0,1,1,1.91-.44A1.38,1.38,0,0,1,351.28,594.34Z"/><path class="cls-51" d="M391.2,515.89a3.3,3.3,0,1,1-3.3,3.3A3.3,3.3,0,0,1,391.2,515.89Z"/><path class="cls-5" d="M355.59,556.94a1.74,1.74,0,1,1-1.73,1.73A1.73,1.73,0,0,1,355.59,556.94Z"/><path class="cls-5" d="M376.42,522.38a1.39,1.39,0,1,1,1.91-.44A1.39,1.39,0,0,1,376.42,522.38Z"/><path class="cls-5" d="M203,325.76a1.39,1.39,0,1,1,1.91-.44A1.39,1.39,0,0,1,203,325.76Z"/><path class="cls-5" d="M296.86,402.18a1.39,1.39,0,1,1,1.91-.44A1.39,1.39,0,0,1,296.86,402.18Z"/><path class="cls-5" d="M335.14,415.38a1.39,1.39,0,1,1,1.91-.44A1.38,1.38,0,0,1,335.14,415.38Z"/><path class="cls-5" d="M170.93,433.46a1.39,1.39,0,1,1-1.39,1.39A1.39,1.39,0,0,1,170.93,433.46Z"/><path class="cls-5" d="M260.05,595.31a1.39,1.39,0,1,0-1.91-.44A1.38,1.38,0,0,0,260.05,595.31Z"/><path class="cls-5" d="M265,517.42a1.74,1.74,0,1,1-2.39.56A1.74,1.74,0,0,1,265,517.42Z"/><path class="cls-5" d="M319.69,496.39a1.39,1.39,0,1,0-1.91-.44A1.38,1.38,0,0,0,319.69,496.39Z"/><path class="cls-5" d="M275.73,500.13a1.73,1.73,0,1,1-1.73,1.73A1.72,1.72,0,0,1,275.73,500.13Z"/><polygon class="cls-49" points="308.32 372.12 307.68 363.22 299.65 367.12 307.04 362.11 299.65 357.1 307.68 361 308.32 352.09 308.96 361 316.99 357.1 309.6 362.11 316.99 367.12 308.96 363.22 308.32 372.12"/><polygon class="cls-49" points="285.5 532.72 284.89 524.25 277.26 527.96 284.28 523.19 277.26 518.43 284.89 522.14 285.5 513.67 286.11 522.14 293.75 518.43 286.72 523.19 293.75 527.96 286.11 524.25 285.5 532.72"/><polygon class="cls-49" points="222.04 467.09 222.55 459.99 228.95 463.1 223.06 459.1 228.95 455.11 222.55 458.22 222.04 451.12 221.53 458.22 215.12 455.11 221.02 459.1 215.12 463.1 221.53 459.99 222.04 467.09"/><path class="cls-5" d="M255.84,577.36a1.16,1.16,0,1,1-1.16,1.16A1.16,1.16,0,0,1,255.84,577.36Z"/><path class="cls-51" d="M517.19,526.37a1.73,1.73,0,1,0-2.39-.55A1.73,1.73,0,0,0,517.19,526.37Z"/><circle class="cls-49" cx="346" cy="492.84" r="2.36"/><path class="cls-5" d="M198.54,436.43a1.89,1.89,0,1,1-1.89,1.88A1.88,1.88,0,0,1,198.54,436.43Z"/><path class="cls-5" d="M402.34,539.18a1.15,1.15,0,1,0,1.17,1.13A1.14,1.14,0,0,0,402.34,539.18Z"/><path class="cls-51" d="M385.2,532.26a1.74,1.74,0,1,1-1.74,1.74A1.73,1.73,0,0,1,385.2,532.26Z"/><path class="cls-5" d="M589.26,515.1a1.73,1.73,0,1,1-1.74,1.73A1.72,1.72,0,0,1,589.26,515.1Z"/><path class="cls-5" d="M100.13,396.6A1.39,1.39,0,0,1,98.66,399a1.39,1.39,0,1,1,1.47-2.36Z"/><path class="cls-5" d="M175.71,464.3a3.3,3.3,0,1,1-3.3,3.3A3.29,3.29,0,0,1,175.71,464.3Z"/><path class="cls-5" d="M192.72,383.34a1.74,1.74,0,1,1-1.74,1.73A1.73,1.73,0,0,1,192.72,383.34Z"/><path class="cls-5" d="M380.35,544.14a1.39,1.39,0,0,1,1.47-2.36,1.39,1.39,0,0,1-1.47,2.36Z"/><path class="cls-5" d="M176.74,324.91a1.39,1.39,0,1,1,1.91-.44A1.38,1.38,0,0,1,176.74,324.91Z"/><polygon class="cls-49" points="217.78 391.61 218.45 382.31 226.84 386.38 219.12 381.15 226.84 375.92 218.45 379.99 217.78 370.69 217.12 379.99 208.73 375.92 216.45 381.15 208.73 386.38 217.12 382.31 217.78 391.61"/><polygon class="cls-49" points="265 354.63 264.46 347.12 257.69 350.4 263.92 346.18 257.69 341.96 264.46 345.24 265 337.73 265.54 345.24 272.32 341.96 266.08 346.18 272.32 350.4 265.54 347.12 265 354.63"/><path class="cls-5" d="M172.58,445.24a3,3,0,1,1-3,3A3,3,0,0,1,172.58,445.24Z"/><path class="cls-5" d="M285.38,353.39a1.5,1.5,0,0,1-.05,3,1.5,1.5,0,1,1,.05-3Z"/><path class="cls-5" d="M197.91,456.87a1.73,1.73,0,1,0-2.39-.55A1.73,1.73,0,0,0,197.91,456.87Z"/><polygon class="cls-49" points="501 506.77 500.41 498.49 492.94 502.11 499.81 497.46 492.94 492.8 500.41 496.43 501 488.15 501.6 496.43 509.06 492.8 502.19 497.46 509.06 502.11 501.6 498.49 501 506.77"/><path class="cls-5" d="M186.38,395.38a2,2,0,1,1-2,2A2,2,0,0,1,186.38,395.38Z"/><path class="cls-5" d="M182,410.41a1.39,1.39,0,1,0-1.91-.44A1.39,1.39,0,0,0,182,410.41Z"/><path class="cls-5" d="M277.12,368.41a1.33,1.33,0,1,1-1.33,1.33A1.33,1.33,0,0,1,277.12,368.41Z"/><path class="cls-5" d="M249,377.31a1.17,1.17,0,1,1-1.16,1.17A1.17,1.17,0,0,1,249,377.31Z"/><path class="cls-5" d="M262.53,370.36a1.16,1.16,0,1,1-1.6.37A1.16,1.16,0,0,1,262.53,370.36Z"/><path class="cls-5" d="M257.22,365.88a.93.93,0,1,1-.93.93A.93.93,0,0,1,257.22,365.88Z"/><path class="cls-5" d="M262.56,356a1.74,1.74,0,1,1-1.73,1.74A1.73,1.73,0,0,1,262.56,356Z"/><path class="cls-5" d="M257.56,384.75a1.73,1.73,0,1,1,2.4-.51A1.74,1.74,0,0,1,257.56,384.75Z"/><path class="cls-5" d="M199.16,411.7a1.39,1.39,0,0,1,1.47-2.36,1.39,1.39,0,0,1-1.47,2.36Z"/><path class="cls-5" d="M296,377.93a3.3,3.3,0,1,1-3.3,3.3A3.3,3.3,0,0,1,296,377.93Z"/><path class="cls-5" d="M239.17,424.21a1.39,1.39,0,1,1,1.91-.44A1.38,1.38,0,0,1,239.17,424.21Z"/><path class="cls-5" d="M185.06,384.61a1.39,1.39,0,1,1,1.91-.44A1.38,1.38,0,0,1,185.06,384.61Z"/><path class="cls-5" d="M250.32,418.18a2.66,2.66,0,1,1-2.66,2.65A2.65,2.65,0,0,1,250.32,418.18Z"/><path class="cls-5" d="M240.79,348.6a3,3,0,1,1-4.12.95A3,3,0,0,1,240.79,348.6Z"/><polygon class="cls-49" points="411.32 562.88 411.99 553.52 420.43 557.62 412.67 552.36 420.43 547.1 411.99 551.19 411.32 541.84 410.65 551.19 402.21 547.1 409.98 552.36 402.21 557.62 410.65 553.52 411.32 562.88"/><path class="cls-5" d="M212.58,427.13a1.54,1.54,0,1,0,0,3.08,1.54,1.54,0,0,0,0-3.08Z"/><path class="cls-5" d="M208.52,411.17a1.35,1.35,0,1,0,1.37,1.33A1.34,1.34,0,0,0,208.52,411.17Z"/><path class="cls-5" d="M219,431.75a2.16,2.16,0,1,1-2.15,2.16A2.16,2.16,0,0,1,219,431.75Z"/><circle class="cls-49" cx="231.45" cy="410.57" r="2.36"/><path class="cls-5" d="M190.11,319.15a2.12,2.12,0,1,0,2.92.67A2.11,2.11,0,0,0,190.11,319.15Z"/><path class="cls-5" d="M218.43,406.48a1.15,1.15,0,1,0,1.17,1.13A1.15,1.15,0,0,0,218.43,406.48Z"/><path class="cls-5" d="M186.26,433.84a1.5,1.5,0,1,0,1.52,1.47A1.49,1.49,0,0,0,186.26,433.84Z"/><path class="cls-5" d="M205.23,395.18a2.2,2.2,0,1,1-2.2,2.2A2.19,2.19,0,0,1,205.23,395.18Z"/><path class="cls-5" d="M236.59,402.67a2.77,2.77,0,1,1-2.78,2.77A2.77,2.77,0,0,1,236.59,402.67Z"/><path class="cls-5" d="M136.66,418.81a1.39,1.39,0,1,1,1.91-.44A1.39,1.39,0,0,1,136.66,418.81Z"/><path class="cls-5" d="M164.74,437a1.73,1.73,0,1,1,2.39-.55A1.74,1.74,0,0,1,164.74,437Z"/><path class="cls-5" d="M208.22,438.36a1.33,1.33,0,1,1-1.33,1.33A1.33,1.33,0,0,1,208.22,438.36Z"/><path class="cls-5" d="M233.39,439.79a.93.93,0,1,1-.93.93A.93.93,0,0,1,233.39,439.79Z"/><path class="cls-5" d="M238.61,429.94a1.73,1.73,0,1,1-1.73,1.73A1.73,1.73,0,0,1,238.61,429.94Z"/><path class="cls-5" d="M146.93,432.76a2.73,2.73,0,1,1-2.73,2.73A2.73,2.73,0,0,1,146.93,432.76Z"/><path class="cls-51" d="M508,600a1.74,1.74,0,1,0,1.77,1.71A1.73,1.73,0,0,0,508,600Z"/><path class="cls-5" d="M210.41,393.25a1.39,1.39,0,1,0,.05,2.78,1.39,1.39,0,0,0-.05-2.78Z"/><polygon class="cls-49" points="141.26 414.93 141.78 407.7 148.31 410.87 142.3 406.8 148.31 402.73 141.78 405.89 141.26 398.66 140.74 405.89 134.21 402.73 140.22 406.8 134.21 410.87 140.74 407.7 141.26 414.93"/><path class="cls-5" d="M192.1,389.86a.67.67,0,1,1,.71-1.14.67.67,0,0,1-.71,1.14Z"/><path class="cls-5" d="M233.54,475.6a2.36,2.36,0,1,1-2.36,2.36A2.35,2.35,0,0,1,233.54,475.6Z"/><path class="cls-5" d="M226,487.76a2.36,2.36,0,1,1-3.24.75A2.35,2.35,0,0,1,226,487.76Z"/><polygon class="cls-49" points="196.65 436.43 195.72 423.46 184.03 429.14 194.78 421.85 184.03 414.56 195.72 420.23 196.65 407.27 197.58 420.23 209.27 414.56 198.52 421.85 209.27 429.14 197.58 423.46 196.65 436.43"/><path class="cls-5" d="M246.05,493.51a1.54,1.54,0,1,1-1.54,1.54A1.53,1.53,0,0,1,246.05,493.51Z"/><path class="cls-5" d="M210.87,435.53a1.39,1.39,0,1,0-1.91-.44A1.38,1.38,0,0,0,210.87,435.53Z"/><path class="cls-5" d="M232.43,461.68A1.42,1.42,0,1,1,231,463.1,1.41,1.41,0,0,1,232.43,461.68Z"/><path class="cls-5" d="M259.19,503.1a3.3,3.3,0,1,1-3.3,3.3A3.3,3.3,0,0,1,259.19,503.1Z"/><path class="cls-5" d="M267.53,456a1.39,1.39,0,1,1,1.91-.44A1.38,1.38,0,0,1,267.53,456Z"/><path class="cls-5" d="M238.7,450.55a1.73,1.73,0,1,1,2.39-.55A1.73,1.73,0,0,1,238.7,450.55Z"/><path class="cls-5" d="M310.6,448.66a1.39,1.39,0,0,1,1.47-2.36,1.39,1.39,0,0,1-1.47,2.36Z"/><polygon class="cls-49" points="342.65 474.41 343.2 466.8 350.06 470.13 343.75 465.85 350.06 461.58 343.2 464.9 342.65 457.3 342.11 464.9 335.25 461.58 341.56 465.85 335.25 470.13 342.11 466.8 342.65 474.41"/><polygon class="cls-49" points="150.98 376.41 151.55 368.45 158.72 371.94 152.12 367.46 158.72 362.99 151.55 366.47 150.98 358.52 150.41 366.47 143.23 362.99 149.83 367.46 143.23 371.94 150.41 368.45 150.98 376.41"/><path class="cls-5" d="M308.54,455.71a1.35,1.35,0,1,1-1.35,1.35A1.34,1.34,0,0,1,308.54,455.71Z"/><path class="cls-5" d="M277.72,468.43a.8.8,0,1,0,1.11.25A.81.81,0,0,0,277.72,468.43Z"/><circle class="cls-49" cx="257.34" cy="461.78" r="2.01"/><path class="cls-5" d="M295.08,469.81a1.58,1.58,0,1,1-1.58,1.58A1.58,1.58,0,0,1,295.08,469.81Z"/><path class="cls-5" d="M247.11,471.16a1.39,1.39,0,1,1,1.91-.44A1.38,1.38,0,0,1,247.11,471.16Z"/><path class="cls-5" d="M413.38,526.37a1.39,1.39,0,1,1,1.91-.44A1.38,1.38,0,0,1,413.38,526.37Z"/><path class="cls-5" d="M267.74,485a1.73,1.73,0,1,1,2.39-.55A1.73,1.73,0,0,1,267.74,485Z"/><path class="cls-5" d="M301.86,451.08a1.46,1.46,0,1,1-1.45,1.46A1.46,1.46,0,0,1,301.86,451.08Z"/><polygon class="cls-51" points="606.67 554.8 606.16 547.68 599.73 550.79 605.65 546.79 599.73 542.78 606.16 545.9 606.67 538.77 607.18 545.9 613.61 542.78 607.7 546.79 613.61 550.79 607.18 547.68 606.67 554.8"/><path class="cls-51" d="M583.52,530.74a3.3,3.3,0,1,1-3.3,3.3A3.3,3.3,0,0,1,583.52,530.74Z"/><polygon class="cls-51" points="460.17 582.16 459.45 572.15 450.42 576.53 458.73 570.91 450.42 565.28 459.45 569.66 460.17 559.65 460.89 569.66 469.91 565.28 461.61 570.91 469.91 576.53 460.89 572.15 460.17 582.16"/><polygon class="cls-51" points="528.8 554.63 528.25 547.04 521.41 550.36 527.71 546.09 521.41 541.82 528.25 545.15 528.8 537.56 529.34 545.15 536.19 541.82 529.89 546.09 536.19 550.36 529.34 547.04 528.8 554.63"/><path class="cls-51" d="M554.24,536.18a2.47,2.47,0,1,1-2.47,2.46A2.46,2.46,0,0,1,554.24,536.18Z"/><path class="cls-51" d="M559.24,522.2a1.05,1.05,0,1,1-1.06,1A1.05,1.05,0,0,1,559.24,522.2Z"/><path class="cls-51" d="M518.55,581.24a3.26,3.26,0,1,1-3.26,3.26A3.26,3.26,0,0,1,518.55,581.24Z"/><path class="cls-51" d="M437.74,541a2.54,2.54,0,1,1-2.54,2.54A2.54,2.54,0,0,1,437.74,541Z"/><path class="cls-51" d="M549.67,550.41a1.27,1.27,0,1,0-1.34-2.15,1.27,1.27,0,0,0,1.34,2.15Z"/><path class="cls-51" d="M516.59,571a1.41,1.41,0,1,1-1.41,1.4A1.41,1.41,0,0,1,516.59,571Z"/><path class="cls-51" d="M436.64,555a1.24,1.24,0,1,1-1.23,1.23A1.24,1.24,0,0,1,436.64,555Z"/><path class="cls-51" d="M495.83,546.25a1.23,1.23,0,1,1-1.69.39A1.22,1.22,0,0,1,495.83,546.25Z"/><path class="cls-51" d="M492.7,569.84a1,1,0,1,1-1,1A1,1,0,0,1,492.7,569.84Z"/><circle class="cls-51" cx="493.45" cy="575" r="1.84" transform="translate(-153.46 969.49) rotate(-80.74)"/><path class="cls-51" d="M475.73,549a3.26,3.26,0,1,1-3.26,3.26A3.26,3.26,0,0,1,475.73,549Z"/><path class="cls-51" d="M478.09,529a1.27,1.27,0,1,0-1.75-.4A1.27,1.27,0,0,0,478.09,529Z"/><path class="cls-51" d="M473.45,514.58a1.27,1.27,0,1,0-1.75-.4A1.27,1.27,0,0,0,473.45,514.58Z"/><path class="cls-51" d="M459.21,545.05a1.59,1.59,0,1,0-2.18-.51A1.59,1.59,0,0,0,459.21,545.05Z"/><circle class="cls-51" cx="425.59" cy="543.11" r="2.5"/><path class="cls-51" d="M561.19,513.6a1.59,1.59,0,1,1-1.61,1.56A1.58,1.58,0,0,1,561.19,513.6Z"/><path class="cls-51" d="M570.21,515.44a1.29,1.29,0,0,1,1.25,1.3,1.27,1.27,0,0,1-2.54,0A1.27,1.27,0,0,1,570.21,515.44Z"/><path class="cls-51" d="M582.37,512a2.66,2.66,0,1,1-2.65,2.66A2.66,2.66,0,0,1,582.37,512Z"/><path class="cls-5" d="M530,581.1a1.73,1.73,0,1,1-1.73,1.73A1.73,1.73,0,0,1,530,581.1Z"/><path class="cls-5" d="M315.19,548.4a1.35,1.35,0,1,0-1.86-.4A1.34,1.34,0,0,0,315.19,548.4Z"/><path class="cls-5" d="M310.16,540.76a1.08,1.08,0,1,0,1.1,1A1.08,1.08,0,0,0,310.16,540.76Z"/><path class="cls-5" d="M312.21,550.49A1.56,1.56,0,1,0,313.8,552,1.56,1.56,0,0,0,312.21,550.49Z"/><path class="cls-51" d="M428.45,575.9a1.35,1.35,0,1,1-1.37,1.32A1.34,1.34,0,0,1,428.45,575.9Z"/><path class="cls-51" d="M444.46,576.7a2.49,2.49,0,1,1-2.48,2.48A2.49,2.49,0,0,1,444.46,576.7Z"/><path class="cls-51" d="M562.72,541.45a3.15,3.15,0,1,1-3.14,3.15A3.15,3.15,0,0,1,562.72,541.45Z"/><path class="cls-51" d="M481.35,571a1.35,1.35,0,1,1-1.86.43A1.34,1.34,0,0,1,481.35,571Z"/><path class="cls-51" d="M488.34,585.65a1.08,1.08,0,1,1-1.07,1.08A1.08,1.08,0,0,1,488.34,585.65Z"/><path class="cls-51" d="M518,598.84a1.73,1.73,0,1,0-2.39-.55A1.74,1.74,0,0,0,518,598.84Z"/><path class="cls-51" d="M470.48,593a1.73,1.73,0,0,1,1.71,1.76,1.74,1.74,0,1,1-1.71-1.76Z"/><path class="cls-51" d="M454.92,580a1.74,1.74,0,1,1-1.73,1.74A1.74,1.74,0,0,1,454.92,580Z"/><path class="cls-51" d="M443.72,596.51a1.73,1.73,0,1,1,1.84-2.94,1.73,1.73,0,0,1-1.84,2.94Z"/><path class="cls-51" d="M432.55,591.24a1.73,1.73,0,1,1-1.73,1.73A1.73,1.73,0,0,1,432.55,591.24Z"/><path class="cls-51" d="M458.81,600.53a1.16,1.16,0,1,0,1.6.37A1.16,1.16,0,0,0,458.81,600.53Z"/><path class="cls-5" d="M246.88,344.2a1.5,1.5,0,1,1-2.06.48A1.49,1.49,0,0,1,246.88,344.2Z"/><path class="cls-52" d="M178.62,332.13c-7.23.36-22.4,1.84-27.3,5.42s7.08,2.39,8,5.87c.81,2.94-16.29,3.6-16.73,7.47s25.13.79,26.4,3.73-6.13,2.77-5.52,4.79c1,3.22,28.08,1.08,31.36-1.64s-6.27-3.29-11.63-5.07c-3.44-1.14,2.14-2.67,10.4-3.12,6.19-.34,14.46-.53,14.1-4.21-.4-4-23.57-1.65-21.31-4.05S199.17,340,199,336.51C198.86,333.25,188,331.65,178.62,332.13Z"/><path class="cls-52" d="M231.8,318.4c-4.88.22-16,1.63-15.76,4.06s10.11,1,10.18,4.19c.09,5-17.58,4.92-17.92,8.42s20,1.81,25.59,1.5c8.89-.51,19.34-.88,19.14-4.22-.22-3.64-16.8-.31-16.51-5.29.24-3.9,9.4-3.12,9.33-6.26C245.79,317.85,238.11,318.12,231.8,318.4Z"/><path class="cls-52" d="M217.3,352.31c-6.5-.28-15,1.73-14.82,3.43s7.13.26,7.17,2.52c.07,3.48-7.8,2.67-8,5.15s11,2.25,14.94,2c8.78-.53,15.91-2.62,15.91-6.17C232.46,353.41,221.73,352.5,217.3,352.31Z"/><path class="cls-5" d="M182.81,466.86a1.39,1.39,0,1,0-1.91-.44A1.38,1.38,0,0,0,182.81,466.86Z"/><path class="cls-5" d="M192.92,460a1.39,1.39,0,1,0-1.91-.44A1.38,1.38,0,0,0,192.92,460Z"/><path class="cls-5" d="M192.36,451.11a1.7,1.7,0,1,1-1.7,1.69A1.69,1.69,0,0,1,192.36,451.11Z"/><path class="cls-5" d="M220.63,499.19a1.89,1.89,0,1,1-1.88,1.88A1.88,1.88,0,0,1,220.63,499.19Z"/><path class="cls-5" d="M203,449.45a2.17,2.17,0,1,1-2.17,2.17A2.17,2.17,0,0,1,203,449.45Z"/><path class="cls-5" d="M202.34,476.92a1.54,1.54,0,1,1-1.55,1.54A1.54,1.54,0,0,1,202.34,476.92Z"/><path class="cls-5" d="M230,469.83a1.08,1.08,0,0,1,0,2.16,1.08,1.08,0,0,1,0-2.16Z"/><path class="cls-5" d="M187.53,478.57a1.39,1.39,0,1,0-1.91-.44A1.38,1.38,0,0,0,187.53,478.57Z"/><path class="cls-5" d="M208.58,470.43a2.35,2.35,0,1,0,3.25.75A2.35,2.35,0,0,0,208.58,470.43Z"/><path class="cls-5" d="M215.44,477.63a.67.67,0,0,1-.22-.92.67.67,0,1,1,1.14.71A.67.67,0,0,1,215.44,477.63Z"/><circle class="cls-53" cx="222.2" cy="87.82" r="1.05"/><path class="cls-53" d="M635.44,183.05a2.48,2.48,0,1,1-2.47,2.48A2.47,2.47,0,0,1,635.44,183.05Z"/><path class="cls-53" d="M40.34,50.69a2.1,2.1,0,1,1-2.09,2.1A2.1,2.1,0,0,1,40.34,50.69Z"/><path class="cls-53" d="M612.21,57.78A2.23,2.23,0,1,1,610,60,2.23,2.23,0,0,1,612.21,57.78Z"/><path class="cls-53" d="M563.52,73.09a2.23,2.23,0,1,1-2.23,2.23A2.23,2.23,0,0,1,563.52,73.09Z"/><circle class="cls-53" cx="164.16" cy="48.16" r="2.22"/><polygon class="cls-54" points="523.83 37.47 526.48 28.82 535.41 30.23 528 25.05 532.11 16.99 524.88 22.43 518.49 16.04 521.43 24.59 513.38 28.69 522.42 28.54 523.83 37.47"/><polygon class="cls-54" points="89.33 44 91.17 37.99 97.38 38.98 92.23 35.37 95.08 29.78 90.06 33.56 85.62 29.11 87.67 35.05 82.07 37.91 88.35 37.8 89.33 44"/><polygon class="cls-54" points="38.24 240.52 39.93 234.99 45.64 235.9 40.9 232.58 43.53 227.43 38.91 230.91 34.82 226.82 36.7 232.29 31.55 234.91 37.33 234.81 38.24 240.52"/><polygon class="cls-55" points="617.72 110.69 622.05 105.54 627.76 109.1 624.19 103.39 629.35 99.07 622.82 100.7 620.29 94.45 619.83 101.17 613.11 101.64 619.35 104.16 617.72 110.69"/><polygon class="cls-55" points="371.6 40.69 373.73 33.73 380.92 34.87 374.96 30.69 378.26 24.2 372.45 28.59 367.3 23.44 369.67 30.32 363.18 33.63 370.46 33.5 371.6 40.69"/><circle class="cls-48" cx="510.12" cy="507.49" r="1.73"/><path class="cls-51" d="M485.6,520.26a2.54,2.54,0,1,1-2.53,2.54A2.54,2.54,0,0,1,485.6,520.26Z"/><path class="cls-51" d="M480.51,537.49a1.24,1.24,0,1,1-1.23,1.24A1.24,1.24,0,0,1,480.51,537.49Z"/><path class="cls-51" d="M524,526.34a3.26,3.26,0,1,1-3.26,3.26A3.26,3.26,0,0,1,524,526.34Z"/><path class="cls-51" d="M546.52,522.68a1.27,1.27,0,1,0-1.75-.41A1.28,1.28,0,0,0,546.52,522.68Z"/><path class="cls-51" d="M503.08,527.58a1.59,1.59,0,1,0-2.18-.5A1.59,1.59,0,0,0,503.08,527.58Z"/><polygon class="cls-49" points="232.85 219.83 233.45 211.48 240.98 215.13 234.05 210.44 240.98 205.75 233.45 209.4 232.85 201.06 232.25 209.4 224.73 205.75 231.65 210.44 224.73 215.13 232.25 211.48 232.85 219.83"/><path class="cls-56" d="M250.81,260.73a3.3,3.3,0,1,1-3.3,3.3A3.3,3.3,0,0,1,250.81,260.73Z"/><path class="cls-5" d="M206.84,190.69a1.39,1.39,0,1,1,1.91-.44A1.38,1.38,0,0,1,206.84,190.69Z"/><path class="cls-5" d="M170.27,182.27a1.39,1.39,0,1,1,1.91-.44A1.38,1.38,0,0,1,170.27,182.27Z"/><polygon class="cls-56" points="207.91 270.42 208.58 261.12 216.97 265.19 209.25 259.96 216.97 254.73 208.58 258.8 207.91 249.51 207.25 258.8 198.86 254.73 206.58 259.96 198.86 265.19 207.25 261.12 207.91 270.42"/><polygon class="cls-49" points="289.35 234.42 288.81 226.91 282.03 230.2 288.27 225.97 282.03 221.75 288.81 225.04 289.35 217.53 289.89 225.04 296.67 221.75 290.43 225.97 296.67 230.2 289.89 226.91 289.35 234.42"/><path class="cls-5" d="M197.91,316.87a1.73,1.73,0,1,0-2.39-.55A1.73,1.73,0,0,0,197.91,316.87Z"/><path class="cls-5" d="M196.16,210.56a1.33,1.33,0,1,1-1.33,1.32A1.33,1.33,0,0,1,196.16,210.56Z"/><path class="cls-5" d="M168.06,219.46a1.16,1.16,0,1,1-1.16,1.16A1.16,1.16,0,0,1,168.06,219.46Z"/><path class="cls-5" d="M181.57,212.5a1.16,1.16,0,1,1-1.61.37A1.17,1.17,0,0,1,181.57,212.5Z"/><path class="cls-5" d="M176.26,208a.94.94,0,1,1-.93.94A.94.94,0,0,1,176.26,208Z"/><path class="cls-5" d="M181.6,198.17a1.73,1.73,0,1,1-1.73,1.73A1.73,1.73,0,0,1,181.6,198.17Z"/><path class="cls-57" d="M260.27,256.78a1.73,1.73,0,1,1,2.4-.51A1.72,1.72,0,0,1,260.27,256.78Z"/><path class="cls-5" d="M239.17,284.21a1.39,1.39,0,1,1,1.91-.44A1.38,1.38,0,0,1,239.17,284.21Z"/><path class="cls-57" d="M277.35,277.93a2.66,2.66,0,1,1-2.66,2.66A2.66,2.66,0,0,1,277.35,277.93Z"/><path class="cls-5" d="M213.25,221.06a3,3,0,1,1-4.12.95A3,3,0,0,1,213.25,221.06Z"/><path class="cls-5" d="M290.15,288.45A2.16,2.16,0,1,1,288,290.6,2.15,2.15,0,0,1,290.15,288.45Z"/><path class="cls-5" d="M260.75,264.75a2.36,2.36,0,1,1-2.36,2.36A2.36,2.36,0,0,1,260.75,264.75Z"/><path class="cls-5" d="M205.65,167.88a2.12,2.12,0,1,0,2.92.68A2.12,2.12,0,0,0,205.65,167.88Z"/><path class="cls-57" d="M236.59,257.12a2.77,2.77,0,1,1-2.78,2.77A2.77,2.77,0,0,1,236.59,257.12Z"/><path class="cls-5" d="M233.39,299.79a.93.93,0,1,1-.93.93A.93.93,0,0,1,233.39,299.79Z"/><path class="cls-5" d="M266.05,288.54a1.73,1.73,0,1,1-1.73,1.73A1.72,1.72,0,0,1,266.05,288.54Z"/><path class="cls-56" d="M264.44,234.08a1.39,1.39,0,1,0,1.41,1.36A1.39,1.39,0,0,0,264.44,234.08Z"/><polygon class="cls-49" points="199.07 204.74 198.61 198.3 192.8 201.12 198.15 197.5 192.8 193.88 198.61 196.7 199.07 190.26 199.54 196.7 205.34 193.88 200 197.5 205.34 201.12 199.54 198.3 199.07 204.74"/><path class="cls-5" d="M267.53,316a1.39,1.39,0,1,1,1.91-.44A1.38,1.38,0,0,1,267.53,316Z"/><path class="cls-5" d="M238.7,310.55a1.73,1.73,0,1,1,2.39-.55A1.73,1.73,0,0,1,238.7,310.55Z"/><circle class="cls-49" cx="257.34" cy="321.78" r="2.01"/><path class="cls-57" d="M218.8,188.3a1.5,1.5,0,1,1-2.06.48A1.49,1.49,0,0,1,218.8,188.3Z"/><path class="cls-5" d="M192.92,320a1.39,1.39,0,1,0-1.91-.44A1.38,1.38,0,0,0,192.92,320Z"/><path class="cls-5" d="M192.36,311.11a1.7,1.7,0,1,1-1.7,1.69A1.69,1.69,0,0,1,192.36,311.11Z"/><path class="cls-5" d="M203,309.45a2.17,2.17,0,1,1-2.17,2.17A2.17,2.17,0,0,1,203,309.45Z"/><path class="cls-5" d="M281.51,257.6a1.33,1.33,0,1,1-2.65-.14,1.33,1.33,0,1,1,2.65.14Z"/><path class="cls-5" d="M274.09,229.07a1.16,1.16,0,1,1-1.1-1.22A1.16,1.16,0,0,1,274.09,229.07Z"/><path class="cls-56" d="M280.28,243a1.17,1.17,0,1,1-.29-1.62A1.17,1.17,0,0,1,280.28,243Z"/><path class="cls-5" d="M285.08,237.86a.93.93,0,1,1-.88-1A.94.94,0,0,1,285.08,237.86Z"/><path class="cls-5" d="M294.64,243.71a1.73,1.73,0,1,1-1.64-1.82A1.73,1.73,0,0,1,294.64,243.71Z"/><polygon class="cls-49" points="316.17 232.41 315.72 226.2 310.12 228.92 315.27 225.43 310.12 221.94 315.72 224.66 316.17 218.45 316.61 224.66 322.21 221.94 317.06 225.43 322.21 228.92 316.61 226.2 316.17 232.41"/><path class="cls-5" d="M242.65,215.86a1.74,1.74,0,1,1-1.74,1.74A1.74,1.74,0,0,1,242.65,215.86Z"/><path class="cls-5" d="M245.38,237.23a.76.76,0,1,1-.78.75A.76.76,0,0,1,245.38,237.23Z"/><path class="cls-5" d="M249.77,248.31a1.33,1.33,0,1,1-1.32,1.33A1.32,1.32,0,0,1,249.77,248.31Z"/><path class="cls-5" d="M240.87,245.53a1.39,1.39,0,1,0-1.91-.44A1.38,1.38,0,0,0,240.87,245.53Z"/><path class="cls-5" d="M223.41,206.27a1.33,1.33,0,1,1-1.26-1.4A1.34,1.34,0,0,1,223.41,206.27Z"/><path class="cls-5" d="M216,177.74a1.16,1.16,0,1,1-1.1-1.22A1.16,1.16,0,0,1,216,177.74Z"/><path class="cls-56" d="M222.18,191.64a1.17,1.17,0,1,1-.29-1.62A1.17,1.17,0,0,1,222.18,191.64Z"/><path class="cls-5" d="M227,186.53a.93.93,0,1,1-.88-1A.94.94,0,0,1,227,186.53Z"/><path class="cls-5" d="M223.37,221.79a1.73,1.73,0,1,1-1.64-1.82A1.73,1.73,0,0,1,223.37,221.79Z"/><path class="cls-57" d="M315,176.77a1.33,1.33,0,1,1-1.33,1.33A1.34,1.34,0,0,1,315,176.77Z"/><path class="cls-57" d="M286.91,185.68a1.16,1.16,0,1,1-1.16,1.16A1.16,1.16,0,0,1,286.91,185.68Z"/><path class="cls-57" d="M300.42,178.72a1.16,1.16,0,1,1-1.6.37A1.17,1.17,0,0,1,300.42,178.72Z"/><path class="cls-57" d="M295.11,174.24a.93.93,0,1,1-.93.93A.93.93,0,0,1,295.11,174.24Z"/><path class="cls-57" d="M305.68,192.69a1.74,1.74,0,1,1-1.73,1.73A1.73,1.73,0,0,1,305.68,192.69Z"/><polygon class="cls-56" points="319.74 202.38 319.23 195.28 312.82 198.39 318.71 194.39 312.82 190.4 319.23 193.51 319.74 186.41 320.25 193.51 326.65 190.4 320.76 194.39 326.65 198.39 320.25 195.28 319.74 202.38"/><path class="cls-5" d="M205.42,207.71a2.12,2.12,0,1,0,2.93.67A2.11,2.11,0,0,0,205.42,207.71Z"/><polygon class="cls-49" points="254.32 303.2 253.86 296.76 248.05 299.58 253.4 295.96 248.05 292.34 253.86 295.16 254.32 288.72 254.79 295.16 260.6 292.34 255.25 295.96 260.6 299.58 254.79 296.76 254.32 303.2"/><path class="cls-5" d="M351,197.06a1.73,1.73,0,1,1-1.74,1.73A1.72,1.72,0,0,1,351,197.06Z"/><path class="cls-5" d="M299.16,234.7a1.39,1.39,0,0,1,1.47-2.36,1.39,1.39,0,0,1-1.47,2.36Z"/><path class="cls-5" d="M308.52,234.17a1.35,1.35,0,1,0,1.37,1.33A1.34,1.34,0,0,0,308.52,234.17Z"/><path class="cls-5" d="M322,233.43a1.16,1.16,0,0,0-1.13,1.17,1.15,1.15,0,1,0,1.13-1.17Z"/><path class="cls-5" d="M335.19,214a2.2,2.2,0,1,1-2.2,2.2A2.2,2.2,0,0,1,335.19,214Z"/><path class="cls-5" d="M350.33,203.57a.66.66,0,0,1-.21-.92.67.67,0,1,1,.21.92Z"/><path class="cls-57" d="M274.46,192.7a2.66,2.66,0,1,1-2.66,2.66A2.66,2.66,0,0,1,274.46,192.7Z"/><path class="cls-5" d="M239,197.5a1.73,1.73,0,1,1-1.73,1.73A1.72,1.72,0,0,1,239,197.5Z"/><path class="cls-5" d="M250.93,223.46a1.39,1.39,0,1,1-1.39,1.39A1.39,1.39,0,0,1,250.93,223.46Z"/><path class="cls-5" d="M278.11,200.41a1.89,1.89,0,1,1-1.88,1.89A1.89,1.89,0,0,1,278.11,200.41Z"/><path class="cls-5" d="M251.24,233.79a3,3,0,1,1-3,3A3,3,0,0,1,251.24,233.79Z"/><path class="cls-5" d="M313.29,217.75a1.73,1.73,0,0,0-1.84-2.94,1.73,1.73,0,0,0,1.84,2.94Z"/><path class="cls-5" d="M266.26,207.84a1.5,1.5,0,1,0,1.52,1.47A1.5,1.5,0,0,0,266.26,207.84Z"/><path class="cls-5" d="M288.22,212.36a1.33,1.33,0,1,1-1.33,1.33A1.33,1.33,0,0,1,288.22,212.36Z"/><path class="cls-5" d="M290.87,209.53a1.39,1.39,0,1,0-1.91-.44A1.38,1.38,0,0,0,290.87,209.53Z"/><path class="cls-5" d="M309.53,224.43a1.39,1.39,0,1,0-1.91-.44A1.38,1.38,0,0,0,309.53,224.43Z"/><path class="cls-5" d="M274.25,256.25a1.39,1.39,0,1,0-1.91-.44A1.38,1.38,0,0,0,274.25,256.25Z"/><path class="cls-5" d="M269,241.75a.85.85,0,1,1-.84.84A.85.85,0,0,1,269,241.75Z"/><path class="cls-5" d="M278.13,248.42a2.16,2.16,0,1,1-2.16,2.16A2.15,2.15,0,0,1,278.13,248.42Z"/><path class="cls-5" d="M282.34,266.92a1.54,1.54,0,1,1-1.55,1.54A1.53,1.53,0,0,1,282.34,266.92Z"/><path class="cls-5" d="M267.53,268.57a1.39,1.39,0,1,0-1.91-.44A1.38,1.38,0,0,0,267.53,268.57Z"/><path class="cls-5" d="M303.93,252.35a2.36,2.36,0,1,0,3.25.75A2.36,2.36,0,0,0,303.93,252.35Z"/><path class="cls-5" d="M296.29,266.06a.66.66,0,0,1-.21-.92.66.66,0,0,1,.92-.21.67.67,0,0,1,.22.92A.68.68,0,0,1,296.29,266.06Z"/><path class="cls-57" d="M358.35,211.1a2.66,2.66,0,1,1-2.66,2.66A2.66,2.66,0,0,1,358.35,211.1Z"/><path class="cls-5" d="M341.64,203.75a1.33,1.33,0,1,1-2.65-.14,1.33,1.33,0,0,1,2.65.14Z"/><path class="cls-5" d="M257.86,187.26a1.17,1.17,0,0,1-1.23,1.1,1.15,1.15,0,0,1-1.09-1.22,1.16,1.16,0,1,1,2.32.12Z"/><path class="cls-56" d="M282.17,198.4a1.16,1.16,0,1,1-.29-1.62A1.16,1.16,0,0,1,282.17,198.4Z"/><path class="cls-5" d="M270.65,202.58a.93.93,0,1,1-.88-1A.94.94,0,0,1,270.65,202.58Z"/><path class="cls-5" d="M320.54,213.89a1.73,1.73,0,1,1-1.64-1.82A1.74,1.74,0,0,1,320.54,213.89Z"/><polygon class="cls-58" points="115.17 282.65 116.78 277.36 122.25 278.23 117.72 275.06 120.23 270.13 115.81 273.46 111.9 269.55 113.7 274.78 108.77 277.29 114.3 277.19 115.17 282.65"/><path class="cls-5" d="M242.06,187.64a.67.67,0,1,1,.92-.21A.67.67,0,0,1,242.06,187.64Z"/><polygon class="cls-49" points="347.94 196.05 347.48 189.61 341.67 192.42 347.02 188.8 341.67 185.18 347.48 188 347.94 181.56 348.41 188 354.22 185.18 348.87 188.8 354.22 192.42 348.41 189.61 347.94 196.05"/><path class="cls-57" d="M328,190.29a1.74,1.74,0,0,1-.51-2.4,1.73,1.73,0,1,1,.51,2.4Z"/><path class="cls-5" d="M328.43,198.26a2.36,2.36,0,1,1-2.36,2.35A2.36,2.36,0,0,1,328.43,198.26Z"/><path class="cls-5" d="M371.52,212.73a1.39,1.39,0,1,0-1.91-.44A1.38,1.38,0,0,0,371.52,212.73Z"/><circle class="cls-54" cx="128.32" cy="137.32" r="73" transform="translate(-9.48 265.13) rotate(-89.78)"/><circle class="cls-59" cx="131.06" cy="133.87" r="66.1" transform="translate(-4.28 263.41) rotate(-89.35)"/><path class="cls-60" d="M102.18,94.48A6.55,6.55,0,1,1,95.62,101,6.55,6.55,0,0,1,102.18,94.48Z"/><path class="cls-61" d="M168.57,159.15a6.44,6.44,0,1,1-6.44,6.44A6.44,6.44,0,0,1,168.57,159.15Z"/><path class="cls-61" d="M171.54,112.14a2.46,2.46,0,1,1-2.46,2.46A2.46,2.46,0,0,1,171.54,112.14Z"/><path class="cls-60" d="M133.41,85A11.11,11.11,0,1,1,122.3,96.15,11.1,11.1,0,0,1,133.41,85Z"/><path class="cls-62" d="M142.18,183.07a4.93,4.93,0,1,1-4.93,4.92A4.93,4.93,0,0,1,142.18,183.07Z"/><path class="cls-61" d="M98.85,167.73a8,8,0,1,1-8,8A8,8,0,0,1,98.85,167.73Z"/><path class="cls-61" d="M77.64,148.12a4.93,4.93,0,1,1-4.93,4.93A4.93,4.93,0,0,1,77.64,148.12Z"/><path class="cls-63" d="M82.62,122.47a3.78,3.78,0,1,1-3.78,3.78A3.78,3.78,0,0,1,82.62,122.47Z"/><path class="cls-64" d="M190.2,149.9C186.86,95,155.9,73,102.22,78.7c12.32-6.6,43.12-12.55,69.29,8.59C196.16,107.2,193.54,143.4,190.2,149.9Z"/><path class="cls-65" d="M140.3,140.8c5.26-1.35,9.16,1.73,9.14,4.88,0,2.92-3.08,5.9-7.54,5.26,2.79-1.34,4.29-3.13,4.21-5.3C146,143,144,141.42,140.3,140.8Z"/><path class="cls-66" d="M154.26,156.65c-7.55,1.32-25.51-1.42-34.8-7.39C115.64,168,150.89,173,154.26,156.65Z"/><path class="cls-67" d="M133.32,154.76c3.92,3,5.56,8.26,3.83,11.7-9.85-.6-19.82-6.76-17.69-17.2A48.28,48.28,0,0,0,133.32,154.76Z"/><path class="cls-60" d="M154.48,138c1-12.53,13.37-14.34,13.46-2.47C165,131.55,156.84,131.1,154.48,138Z"/><path class="cls-25" d="M164.59,132.37c2-.25,3.56-1.6,2.93-3.5a3.38,3.38,0,0,1-.08,5.79Z"/><path class="cls-25" d="M154.48,138c1.31-7.52,12.25-9.86,13.46-2.47C165.41,133.79,158.29,133.84,154.48,138Z"/><path class="cls-60" d="M142,169c-7,7.26-24.4,1.25-20.8-6.13C124.53,168.4,133.05,170.68,142,169Z"/><path class="cls-60" d="M117.06,122.91c-3-3.32-8-4.47-11.94-.92s-4.26,13.57,4,14.67C118.6,138,120.19,126.32,117.06,122.91Z"/><path class="cls-25" d="M119.32,122.29a2.69,2.69,0,0,0,4-2.09,2.9,2.9,0,0,1-2.6,4.46Z"/><path class="cls-25" d="M120.38,122.46c-3-3.32-8-4.47-11.95-.92s-4.26,13.56,4,14.67C121.91,137.49,123.51,125.87,120.38,122.46Z"/><path class="cls-5" d="M114.6,122.06c-8.38-.93-11.76,15-2.55,16.07C120.46,139.1,123.94,123.11,114.6,122.06Z"/><path class="cls-25" d="M117,122.72c-6.88-1.16-11.37,13.77-3.81,15.07C120.07,139,124.65,124,117,122.72Z"/><path class="cls-68" d="M116.19,126c-3.36-.59-5.69,7.6-2,8.26C117.56,134.86,119.94,126.64,116.19,126Z"/><path class="cls-5" d="M116.74,128.52c-2.21-.81-3.72,4-1.08,4.45C117.88,133.33,118.64,129.22,116.74,128.52Z"/><path class="cls-69" d="M-14,639.61V575c62.05-32.86,136.61-35.9,214.16-31.29,175.14,10.41,286,110.65,446.51,62.26l.17,33.36Z"/><path class="cls-70" d="M-14,662V594.15c63.27-42.44,148.27-45.63,232.52-37.87,106.62,9.8,300.3,85.72,326.89,46.47,5.81-8.57-.07-14.71-7.67-19.72,3.54-6.46,27.82-2.29,26.88,19.83,9.11-13.53-.93-44.73-23.83-44.24,9.11-20.14,61.87-18.66,72.38,18.18,2.31-10,.47-20.15-6.75-24.34,9.09-7.58,35,2,35.94,26.31,6.54-1.9,16.62-9.53,19.64-20.58V662Z"/><path class="cls-5" d="M279.64,131.88a19.69,19.69,0,0,1,.8,5.67,13.68,13.68,0,0,1-1.09,5.26,11.81,11.81,0,0,1-3.69,4.7,17.48,17.48,0,0,1-5.79,2.83l-7.34,2.1,2.62,9.14a6.17,6.17,0,0,1-.17,4.23,4.48,4.48,0,0,1-3.12,2.61,4.55,4.55,0,0,1-4-.54,6,6,0,0,1-2.42-3.52l-9.07-31.6a6.32,6.32,0,0,1,.27-4.81,5.91,5.91,0,0,1,3.86-2.82l9.9-2.84a23.24,23.24,0,0,1,6.31-1,11.22,11.22,0,0,1,5.48,1.42,15.33,15.33,0,0,1,4.62,3.89A14.79,14.79,0,0,1,279.64,131.88Zm-9.75,3.35-.15-.51a5.23,5.23,0,0,0-2.83-3.45,6.36,6.36,0,0,0-4.66-.31l-5.43,1.56,3.31,11.54,4.92-1.41a9.61,9.61,0,0,0,2.61-1.12,4.76,4.76,0,0,0,1.68-2A5.44,5.44,0,0,0,269.89,135.23Z"/><path class="cls-5" d="M322.87,149.56a6.08,6.08,0,0,1-.65,4.11,4.77,4.77,0,0,1-7.05,1.08,5.88,5.88,0,0,1-1.95-3.66l-2.21-14a7.7,7.7,0,0,0-1.88-4.32,5,5,0,0,0-4.62-1.34,4.94,4.94,0,0,0-3.58,2.34,6.25,6.25,0,0,0-.84,4.38l2.31,14.6a6.07,6.07,0,0,1-.65,4.11,4.76,4.76,0,0,1-7,1.09,6,6,0,0,1-2-3.67l-5.94-37.55a5.77,5.77,0,0,1,.7-4,4.8,4.8,0,0,1,7-1.14,5.68,5.68,0,0,1,1.95,3.6l1.83,11.61a22,22,0,0,1,3.95-2.7,13.62,13.62,0,0,1,4.22-1.4,14.71,14.71,0,0,1,4.82,0,10.69,10.69,0,0,1,4.36,1.82,9.51,9.51,0,0,1,3.09,3.48,16.31,16.31,0,0,1,1.52,4.94Z"/><path class="cls-5" d="M337.14,109.91a5.55,5.55,0,0,1-1.19,4.14,5.22,5.22,0,0,1-3.73,2.08,5.47,5.47,0,0,1-4.18-1.22,5.65,5.65,0,0,1-.83-7.94,5.39,5.39,0,0,1,3.82-2.13,5.27,5.27,0,0,1,4.09,1.26A5.63,5.63,0,0,1,337.14,109.91Zm3.16,37.62a6.08,6.08,0,0,1-.87,4.08,4.77,4.77,0,0,1-7.09.71,6,6,0,0,1-1.76-3.76l-2.45-23.37a5.81,5.81,0,0,1,.91-4,4.81,4.81,0,0,1,7-.77,5.64,5.64,0,0,1,1.75,3.7Z"/><path class="cls-5" d="M379.6,145.69a6.06,6.06,0,0,1-1.15,4,4.75,4.75,0,0,1-7.12.21,5.88,5.88,0,0,1-1.49-3.87l-.51-14.65a6.61,6.61,0,0,0-1.57-4.3,5,5,0,0,0-4.19-1.57,4.82,4.82,0,0,0-3.69,1.84,5.73,5.73,0,0,0-1.38,4l.52,15a6.07,6.07,0,0,1-1.15,4,4.77,4.77,0,0,1-7.12.21,5.94,5.94,0,0,1-1.49-3.9l-.82-23.3a6.53,6.53,0,0,1,1.12-4,4.08,4.08,0,0,1,3.43-1.81h.27a4,4,0,0,1,2.7.86,6.51,6.51,0,0,1,1.91,2.54,12.45,12.45,0,0,1,8.71-3.87,14.77,14.77,0,0,1,4.61.53,11.5,11.5,0,0,1,4.07,2.17,9.07,9.07,0,0,1,2.78,3.8,16,16,0,0,1,1,5.22Z"/><path class="cls-5" d="M418.62,148a6.06,6.06,0,0,1-1.56,3.86,4.77,4.77,0,0,1-7.11-.53,5.91,5.91,0,0,1-1.08-4l1-14.61a6.61,6.61,0,0,0-1.12-4.45,5,5,0,0,0-4-2,4.84,4.84,0,0,0-3.87,1.45,5.77,5.77,0,0,0-1.79,3.85l-1.05,15a6.14,6.14,0,0,1-1.56,3.86,4.76,4.76,0,0,1-7.11-.54,5.91,5.91,0,0,1-1.08-4L390,122.64a6.56,6.56,0,0,1,1.53-3.91,4.09,4.09,0,0,1,3.61-1.44l.26,0a4.05,4.05,0,0,1,2.6,1.14,6.41,6.41,0,0,1,1.63,2.72,12.44,12.44,0,0,1,9.07-2.93,14.76,14.76,0,0,1,4.53,1,11.33,11.33,0,0,1,3.82,2.58,9.07,9.07,0,0,1,2.36,4.07,16.17,16.17,0,0,1,.43,5.29Z"/><path class="cls-5" d="M443.46,113.18a5.54,5.54,0,0,1-2.16,3.73,5.25,5.25,0,0,1-4.12,1.12,5.64,5.64,0,0,1-4.83-6.41,5.55,5.55,0,0,1,2.19-3.69,5.35,5.35,0,0,1,4.22-1.14,5.25,5.25,0,0,1,3.66,2.21A5.54,5.54,0,0,1,443.46,113.18Zm-6,37.27a6.13,6.13,0,0,1-1.82,3.75,4.78,4.78,0,0,1-7.06-1,6,6,0,0,1-.79-4.08L431,125.83a5.79,5.79,0,0,1,1.84-3.61,4.4,4.4,0,0,1,3.75-1.07,4.47,4.47,0,0,1,3.28,2,5.65,5.65,0,0,1,.8,4Z"/><path class="cls-5" d="M479.41,145.16a4.8,4.8,0,0,1-1.63,3.07,4.35,4.35,0,0,1-3.41.32l-17.69-3.76a14.65,14.65,0,0,0,.41,1.9,6.55,6.55,0,0,0,1.56,2.83,7.11,7.11,0,0,0,4.19,2.51,11.87,11.87,0,0,0,3.46.2,10.22,10.22,0,0,0,2.1-.36l3-.85a4,4,0,0,1,1.89,0A4.2,4.2,0,0,1,476,152.8a3.71,3.71,0,0,1,.65,3,4.21,4.21,0,0,1-1.9,2.57,10.45,10.45,0,0,1-3,1.39,18.78,18.78,0,0,1-5.41,1,23.57,23.57,0,0,1-5.76-.51,18.65,18.65,0,0,1-7.13-3.11,16.46,16.46,0,0,1-5-5.82,15.36,15.36,0,0,1-1.72-5.69,21,21,0,0,1,.47-6.18,17.07,17.07,0,0,1,7.28-10.9A15.78,15.78,0,0,1,467.16,126a15.22,15.22,0,0,1,10.16,7A15.88,15.88,0,0,1,479.41,145.16ZM470.58,141a10,10,0,0,0-1.18-4.63,5.85,5.85,0,0,0-4-2.68,5.55,5.55,0,0,0-4.53.92,11.69,11.69,0,0,0-3.09,3.66Z"/><path class="cls-5" d="M290.72,69.08a2.69,2.69,0,0,1-.51,2.3,3.55,3.55,0,0,1-2.2,1.25l-3.8.74L288,93a4.2,4.2,0,0,1-.35,2.8,3,3,0,0,1-2.19,1.55,3.1,3.1,0,0,1-2.68-.58,4.06,4.06,0,0,1-1.39-2.49L277.6,74.65l-3.89.76a3.68,3.68,0,0,1-2.52-.29,2.68,2.68,0,0,1-1.33-2,2.81,2.81,0,0,1,.52-2.37,3.51,3.51,0,0,1,2.17-1.27l14.31-2.78a3.63,3.63,0,0,1,2.52.31A2.81,2.81,0,0,1,290.72,69.08Z"/><path class="cls-5" d="M318.7,87.69a4.05,4.05,0,0,1-.43,2.74,3.19,3.19,0,0,1-4.7.72,4,4,0,0,1-1.3-2.45l-1.47-9.3a5.07,5.07,0,0,0-1.26-2.87,3.3,3.3,0,0,0-3.08-.89,3.26,3.26,0,0,0-2.38,1.55,4.11,4.11,0,0,0-.56,2.92l1.54,9.74a4.05,4.05,0,0,1-.44,2.74,3.17,3.17,0,0,1-4.69.72,3.93,3.93,0,0,1-1.3-2.45l-4-25a3.84,3.84,0,0,1,.47-2.66,3,3,0,0,1,2.18-1.41,3,3,0,0,1,2.49.65,3.79,3.79,0,0,1,1.29,2.4l1.23,7.74a14.66,14.66,0,0,1,2.63-1.8,8.83,8.83,0,0,1,2.82-.93,9.55,9.55,0,0,1,3.2,0A7.14,7.14,0,0,1,313.88,71a6.34,6.34,0,0,1,2.06,2.32,11,11,0,0,1,1,3.3Z"/><path class="cls-5" d="M343.86,76.25a3.13,3.13,0,0,1-.4,2.27,2.87,2.87,0,0,1-2.09.91l-12,1.26a9.23,9.23,0,0,0,.65,1.13,4.5,4.5,0,0,0,1.57,1.47,4.77,4.77,0,0,0,3.17.73,8.36,8.36,0,0,0,2.24-.59,7.24,7.24,0,0,0,1.26-.67L340,81.61a2.93,2.93,0,0,1,3.25.19,2.5,2.5,0,0,1,1,1.75,2.82,2.82,0,0,1-.68,2A6.83,6.83,0,0,1,342,87.06a12.45,12.45,0,0,1-3.22,1.74,15.69,15.69,0,0,1-3.76.85,12.34,12.34,0,0,1-5.16-.49,11,11,0,0,1-4.38-2.66,10.26,10.26,0,0,1-2.26-3.26,14,14,0,0,1-1-4,11.36,11.36,0,0,1,2.37-8.41,10.48,10.48,0,0,1,7.54-4.22A10.15,10.15,0,0,1,340,68.93,10.55,10.55,0,0,1,343.86,76.25Zm-6.45-.83a6.71,6.71,0,0,0-1.71-2.69,3.93,3.93,0,0,0-3.12-.87,3.72,3.72,0,0,0-2.68,1.52,7.79,7.79,0,0,0-1.2,3Z"/><path class="cls-5" d="M379.47,83.58a2.7,2.7,0,0,1-.87,2.19,3.54,3.54,0,0,1-2.37.89l-9.5.34a3.9,3.9,0,0,1-4.37-4.08l-.76-21.81a4.06,4.06,0,0,1,.83-2.71,3.06,3.06,0,0,1,2.45-1.19,3,3,0,0,1,2.46,1,4.1,4.1,0,0,1,1,2.67l.7,20,7-.24a3.64,3.64,0,0,1,2.45.7A2.82,2.82,0,0,1,379.47,83.58Z"/><path class="cls-5" d="M402.22,75a3.2,3.2,0,0,1-.68,2.21,2.86,2.86,0,0,1-2.19.65l-12.05-.21a8.9,8.9,0,0,0,.5,1.2,4.46,4.46,0,0,0,1.38,1.65,4.79,4.79,0,0,0,3.06,1.11,8.2,8.2,0,0,0,2.3-.31,7.36,7.36,0,0,0,1.33-.51l1.86-.94a2.72,2.72,0,0,1,1.24-.24,2.78,2.78,0,0,1,2,.83,2.48,2.48,0,0,1,.81,1.86,2.76,2.76,0,0,1-.92,1.92A6.8,6.8,0,0,1,399,85.48a12.42,12.42,0,0,1-3.41,1.33,15.75,15.75,0,0,1-3.84.39,12.44,12.44,0,0,1-5.06-1.12,11,11,0,0,1-4-3.17,10.45,10.45,0,0,1-1.85-3.51,14.47,14.47,0,0,1-.48-4.1,11.39,11.39,0,0,1,3.38-8.06,10.49,10.49,0,0,1,8-3.27,10.14,10.14,0,0,1,7.53,3.27A10.64,10.64,0,0,1,402.22,75Zm-6.31-1.6a6.66,6.66,0,0,0-1.37-2.89,3.93,3.93,0,0,0-3-1.24,3.71,3.71,0,0,0-2.85,1.19,7.91,7.91,0,0,0-1.56,2.78Z"/><path class="cls-5" d="M426.6,86.93q-.47,5.25-3.7,8c-2.16,1.81-5,2.56-8.5,2.26a20,20,0,0,1-4.15-.79,13.35,13.35,0,0,1-3.58-1.75,3.73,3.73,0,0,1-1.32-1.33,2.87,2.87,0,0,1-.36-1.73,2.81,2.81,0,0,1,1-1.9,2.44,2.44,0,0,1,1.9-.67l.36-.06a1.58,1.58,0,0,1,.49.16l.44.19,1.78.79a11,11,0,0,0,3.77,1.06,7,7,0,0,0,2.7-.25,3.51,3.51,0,0,0,1.93-1.48A5.56,5.56,0,0,0,420,87.8a12.21,12.21,0,0,0,.32-2,9.11,9.11,0,0,1-2.53,2.05,5.46,5.46,0,0,1-3,.46A9.23,9.23,0,0,1,408,84.59a10,10,0,0,1-1.79-4.11,17.44,17.44,0,0,1-.24-4.81,12.37,12.37,0,0,1,1.31-4.61,10.75,10.75,0,0,1,3-3.67,9.67,9.67,0,0,1,3-1.7,7.65,7.65,0,0,1,3.35-.48,6.81,6.81,0,0,1,2.95.85A9.45,9.45,0,0,1,422,68.23a6.29,6.29,0,0,1,1.37-1.51,2.92,2.92,0,0,1,2-.58,2.75,2.75,0,0,1,2.16,1.21,3.88,3.88,0,0,1,.6,2.57Zm-5.52-9.67a6.17,6.17,0,0,0-.8-3.9,4.18,4.18,0,0,0-3.35-2.08,3.38,3.38,0,0,0-3.11,1.38,6.59,6.59,0,0,0-1.39,3.57,11,11,0,0,0,0,2.52,4.78,4.78,0,0,0,.8,2,4,4,0,0,0,2.94,1.68,3.81,3.81,0,0,0,3.45-1.52A6.57,6.57,0,0,0,421.08,77.26Z"/><path class="cls-5" d="M453.85,80.23a3.22,3.22,0,0,1-1,2.12,2.9,2.9,0,0,1-2.25.37L438.71,81a9.24,9.24,0,0,0,.36,1.25,4.47,4.47,0,0,0,1.17,1.81,4.75,4.75,0,0,0,2.9,1.47,7.88,7.88,0,0,0,2.32,0,6.8,6.8,0,0,0,1.38-.34l2-.7a2.89,2.89,0,0,1,1.26-.09,2.81,2.81,0,0,1,1.85,1.06,2.46,2.46,0,0,1,.57,2,2.73,2.73,0,0,1-1.14,1.79,7,7,0,0,1-1.93,1.07,12.78,12.78,0,0,1-3.54.9A15.63,15.63,0,0,1,442,91.1a12.48,12.48,0,0,1-4.89-1.73,10.9,10.9,0,0,1-3.6-3.64A10.34,10.34,0,0,1,432.11,82a14,14,0,0,1,0-4.13,11.36,11.36,0,0,1,4.33-7.58A10.51,10.51,0,0,1,444.81,68a10.18,10.18,0,0,1,7.08,4.18A10.61,10.61,0,0,1,453.85,80.23Zm-6.07-2.36a6.73,6.73,0,0,0-1-3A3.91,3.91,0,0,0,444,73.25a3.71,3.71,0,0,0-3,.82,8,8,0,0,0-1.88,2.58Z"/><path class="cls-5" d="M476.72,93.6A4.06,4.06,0,0,1,475.33,96a3.18,3.18,0,0,1-4.64-1,3.91,3.91,0,0,1-.34-2.75l2-9.56a4.4,4.4,0,0,0-.32-3A3.37,3.37,0,0,0,469.61,78a3.24,3.24,0,0,0-2.7.59,3.88,3.88,0,0,0-1.53,2.37l-2.09,9.82a4,4,0,0,1-1.39,2.4,2.92,2.92,0,0,1-2.56.54,3,3,0,0,1-2.08-1.55,4,4,0,0,1-.34-2.76l3.24-15.21a4.34,4.34,0,0,1,1.37-2.44,2.72,2.72,0,0,1,2.51-.61l.18,0a2.7,2.7,0,0,1,1.61,1,4.32,4.32,0,0,1,.82,1.95,8.29,8.29,0,0,1,6.26-1.1,9.89,9.89,0,0,1,2.89,1.09,7.55,7.55,0,0,1,2.29,2.06,6,6,0,0,1,1.18,2.9,10.84,10.84,0,0,1-.21,3.53Z"/><path class="cls-5" d="M502.11,100.34a4.32,4.32,0,0,1-1.55,2.33,2.79,2.79,0,0,1-2.59.43,2.83,2.83,0,0,1-1.73-1.23,4.73,4.73,0,0,1-.6-2.28,6.69,6.69,0,0,1-2.91,1.34,7.47,7.47,0,0,1-3.31-.28,7.92,7.92,0,0,1-3.55-2.14,9.88,9.88,0,0,1-2.23-3.73,14.37,14.37,0,0,1-.1-8.54,10.89,10.89,0,0,1,2.35-4.2,12.06,12.06,0,0,1,3.83-3,10.72,10.72,0,0,1,3.3-.86,8.65,8.65,0,0,1,3.36.3,6.5,6.5,0,0,1,2.38,1.23,11,11,0,0,1,1.95,2.2l2.21-7.69A3.83,3.83,0,0,1,504.46,72a2.91,2.91,0,0,1,2.58-.36A2.8,2.8,0,0,1,509,73.28a3.94,3.94,0,0,1,.12,2.72Zm-3.92-9.63a6.52,6.52,0,0,0,0-3.84,3.77,3.77,0,0,0-2.62-2.68,3.85,3.85,0,0,0-3.64.72,6.76,6.76,0,0,0-2.23,3.46,6.31,6.31,0,0,0,0,3.9,3.94,3.94,0,0,0,2.76,2.67,3.75,3.75,0,0,0,3.64-.88A6.7,6.7,0,0,0,498.19,90.71Z"/><path class="cls-5" d="M542.17,106.76a13.69,13.69,0,0,1-2.28,3.83,10.69,10.69,0,0,1-7.68,3.68,10.77,10.77,0,0,1-10.45-7,10,10,0,0,1-.63-4.25,14,14,0,0,1,3.25-8.17,10,10,0,0,1,3.46-2.57,11.62,11.62,0,0,1,4.32-1.05,10,10,0,0,1,4.33.73,10.47,10.47,0,0,1,3.64,2.49,11,11,0,0,1,2.38,3.69,10.28,10.28,0,0,1,.64,4.29A13.76,13.76,0,0,1,542.17,106.76Zm-5.87-2.37a6.31,6.31,0,0,0,.31-3.94,4,4,0,0,0-2.46-3,3.78,3.78,0,0,0-3.72.51,6.55,6.55,0,0,0-2.37,3.06,6.91,6.91,0,0,0-.42,4,3.59,3.59,0,0,0,2.32,2.77,4,4,0,0,0,3.81-.37A6.26,6.26,0,0,0,536.3,104.39Z"/><path class="cls-5" d="M562.73,107.6a2.63,2.63,0,0,1-1.77,1.52,3.52,3.52,0,0,1-2.43-.33L557,108l-5.67,11.62a4.09,4.09,0,0,1-1.93,2,3.17,3.17,0,0,1-4.26-2.1,3.92,3.92,0,0,1,.33-2.75l5.68-11.63-.8-.38a3.6,3.6,0,0,1-1.76-1.7,2.94,2.94,0,0,1,1.88-3.85,3.41,3.41,0,0,1,2.43.33l.79.38L555.07,97a6.37,6.37,0,0,1,4.18-3.55,6,6,0,0,1,2.45-.27,7,7,0,0,1,2.43.7,5.79,5.79,0,0,1,2.22,1.67,2.52,2.52,0,0,1,.14,2.71A3.12,3.12,0,0,1,565,99.83a2.27,2.27,0,0,1-2-.06,1.48,1.48,0,0,0-2.36.81l-1.08,2.22,1.59.77a3.54,3.54,0,0,1,1.76,1.69A2.59,2.59,0,0,1,562.73,107.6Z"/><path class="cls-5" d="M384.52,187.41a1.91,1.91,0,0,1-.36,1.24,1.32,1.32,0,0,1-1,.64,3,3,0,0,1-1-.11,1.69,1.69,0,0,1-.83-.58L376.1,183l.33,4.69a2.22,2.22,0,0,1-.39,1.49,1.61,1.61,0,0,1-1.27.69,1.68,1.68,0,0,1-1.41-.49,2.2,2.2,0,0,1-.59-1.44L371.93,176a2,2,0,0,1,2.1-2.36l3.69-.26a8,8,0,0,1,2.15.14,5,5,0,0,1,1.86.83,4.38,4.38,0,0,1,1.92,3.43,5.78,5.78,0,0,1-.15,1.9,3.81,3.81,0,0,1-.86,1.54,4,4,0,0,1-1.12.85,7.06,7.06,0,0,1-1.33.52l3.35,3.19a5.42,5.42,0,0,1,.59.59,2.61,2.61,0,0,1,.36.64Zm-4.44-9.07a1.77,1.77,0,0,0-.72-1.32,2.1,2.1,0,0,0-1.48-.45l-2.22.15.26,3.74,2.27-.16a2.21,2.21,0,0,0,1.41-.59A1.67,1.67,0,0,0,380.08,178.34Z"/><path class="cls-5" d="M398.33,182.7a7.76,7.76,0,0,1-.33,2.41,5.88,5.88,0,0,1-3.08,3.49,5.57,5.57,0,0,1-2.34.54,5.71,5.71,0,0,1-4.4-1.84,5.29,5.29,0,0,1-1.22-2,7.67,7.67,0,0,1-.11-4.8,5.29,5.29,0,0,1,1.19-2A6.41,6.41,0,0,1,390,177a5.58,5.58,0,0,1,2.33-.56,5.76,5.76,0,0,1,2.36.48,5.92,5.92,0,0,1,2,1.34,5.57,5.57,0,0,1,1.24,2A7.59,7.59,0,0,1,398.33,182.7Zm-3.46.07a3.41,3.41,0,0,0-.68-2.05,2.22,2.22,0,0,0-1.87-1,2,2,0,0,0-1.76,1.05,3.67,3.67,0,0,0-.54,2,3.84,3.84,0,0,0,.65,2.11,2,2,0,0,0,1.76.9,2.24,2.24,0,0,0,1.83-1A3.44,3.44,0,0,0,394.87,182.77Z"/><path class="cls-5" d="M409.67,185.4a3.88,3.88,0,0,1-1.45,2.93,4.37,4.37,0,0,1-1.5.73,5.9,5.9,0,0,1-1.75.21,7.24,7.24,0,0,1-2.81-.67c-1.17-.54-1.74-1.23-1.71-2.08a1.61,1.61,0,0,1,.48-1,1.34,1.34,0,0,1,1-.46,2.21,2.21,0,0,1,.62.1c.14.05.53.25,1.18.59a5.35,5.35,0,0,0,.72.32,2.06,2.06,0,0,0,.65.11,1.3,1.3,0,0,0,.72-.19.62.62,0,0,0,.37-.54.85.85,0,0,0-.46-.73,5.37,5.37,0,0,0-.85-.42l-.95-.37a6.22,6.22,0,0,1-2.09-1.27,2.93,2.93,0,0,1-.86-2.24,3.46,3.46,0,0,1,1.15-2.5,4.39,4.39,0,0,1,3.4-1.28,6.63,6.63,0,0,1,1.66.26,4.67,4.67,0,0,1,1.43.71,3.49,3.49,0,0,1,.7.74,1.4,1.4,0,0,1,.26.83,1.84,1.84,0,0,1-.46,1.08,1.22,1.22,0,0,1-1,.51l0-.05a3.05,3.05,0,0,1-.83-.26l-.56-.27a8.45,8.45,0,0,0-.89-.35,2.83,2.83,0,0,0-.56-.09,2.37,2.37,0,0,0-.61.15.47.47,0,0,0-.28.4v0c0,.28.23.57.74.84a7.75,7.75,0,0,0,1.13.47c.63.28,1.1.5,1.4.67a5.43,5.43,0,0,1,1.24,1A3.08,3.08,0,0,1,409.67,185.4Z"/><path class="cls-5" d="M423.44,188.23a2.32,2.32,0,0,1-.6,1.45,1.6,1.6,0,0,1-1.37.53,1.44,1.44,0,0,1-1-.49,2.42,2.42,0,0,1-.55-1.11,3.82,3.82,0,0,1-3.07,1.28,4.89,4.89,0,0,1-1.79-.49,6.05,6.05,0,0,1-1.57-1.09,5.91,5.91,0,0,1-1.39-2.34,7.48,7.48,0,0,1-.32-2.79,7.58,7.58,0,0,1,.6-2.54,5.86,5.86,0,0,1,1.55-2,5.94,5.94,0,0,1,1.77-1.07,4.68,4.68,0,0,1,2-.31,4.23,4.23,0,0,1,2.92,1.6,2.88,2.88,0,0,1,.71-.86,1.6,1.6,0,0,1,1.11-.31,1.68,1.68,0,0,1,1.23.62,1.79,1.79,0,0,1,.41,1.33Zm-3.31-4.35a3.71,3.71,0,0,0-.42-2.21,2.25,2.25,0,0,0-1.9-1.1,2.09,2.09,0,0,0-1.84.84,3.51,3.51,0,0,0-.71,2,3.8,3.8,0,0,0,.38,2.11,2.05,2.05,0,0,0,1.75,1.13,2.25,2.25,0,0,0,1.92-.73A3.25,3.25,0,0,0,420.13,183.88Z"/><path class="cls-5" d="M429.9,189.05a2.21,2.21,0,0,1-.62,1.38,1.58,1.58,0,0,1-1.36.44,1.61,1.61,0,0,1-1.21-.72,2.13,2.13,0,0,1-.34-1.47l1.44-13.75a2.14,2.14,0,0,1,.63-1.34,1.75,1.75,0,0,1,2.56.26,2,2,0,0,1,.34,1.45Z"/><path class="cls-5" d="M438.45,176.29a2,2,0,0,1-.76,1.37,1.93,1.93,0,0,1-1.49.43,2,2,0,0,1-1.38-.77,2.06,2.06,0,0,1,.35-2.89,2,2,0,0,1,1.53-.44,1.93,1.93,0,0,1,1.34.78A2,2,0,0,1,438.45,176.29Zm-2,13.59a2.18,2.18,0,0,1-.64,1.37,1.73,1.73,0,0,1-2.57-.33,2.17,2.17,0,0,1-.32-1.47l1-8.49a2.13,2.13,0,0,1,.65-1.32,1.75,1.75,0,0,1,2.56.3,2.07,2.07,0,0,1,.32,1.46Z"/><path class="cls-5" d="M450.56,192.08a2.2,2.2,0,0,1-.69,1.35,1.58,1.58,0,0,1-1.38.36,1.6,1.6,0,0,1-1.18-.78,2.14,2.14,0,0,1-.26-1.48l.84-5.27a2.36,2.36,0,0,0-.27-1.64,1.79,1.79,0,0,0-1.38-.85,1.75,1.75,0,0,0-1.45.4,2.12,2.12,0,0,0-.77,1.33l-.85,5.41a2.2,2.2,0,0,1-.69,1.35,1.74,1.74,0,0,1-2.56-.42,2.16,2.16,0,0,1-.26-1.49L441,182a2.45,2.45,0,0,1,.68-1.37,1.55,1.55,0,0,1,1.36-.41l.09,0a1.48,1.48,0,0,1,.91.5,2.37,2.37,0,0,1,.5,1,4.48,4.48,0,0,1,3.38-.77,5.32,5.32,0,0,1,1.61.51,4.3,4.3,0,0,1,1.3,1.05,3.42,3.42,0,0,1,.73,1.55,6,6,0,0,1,0,1.93Z"/><path class="cls-5" d="M465.63,190.76a1.73,1.73,0,0,1-.61,1.11,1.56,1.56,0,0,1-1.24.09l-6.41-1.48a4.79,4.79,0,0,0,.14.7,2.41,2.41,0,0,0,.54,1,2.7,2.7,0,0,0,1.51.94,4.31,4.31,0,0,0,1.26.09,3.3,3.3,0,0,0,.77-.12l1.1-.29a1.61,1.61,0,0,1,.69,0,1.55,1.55,0,0,1,.95.67,1.37,1.37,0,0,1,.22,1.08,1.49,1.49,0,0,1-.71.92,3.76,3.76,0,0,1-1.09.49,6.72,6.72,0,0,1-2,.32,8.82,8.82,0,0,1-2.1-.22,7,7,0,0,1-2.57-1.18,6,6,0,0,1-1.78-2.15,5.32,5.32,0,0,1-.59-2.08,7.46,7.46,0,0,1,.21-2.24,6.22,6.22,0,0,1,2.71-3.92,5.78,5.78,0,0,1,4.64-.84,5.57,5.57,0,0,1,3.65,2.61A5.8,5.8,0,0,1,465.63,190.76Zm-3.18-1.57a3.71,3.71,0,0,0-.4-1.69,2.13,2.13,0,0,0-1.46-1,2,2,0,0,0-1.65.31,4.36,4.36,0,0,0-1.15,1.31Z"/><path class="cls-5" d="M482.76,200.62a1.44,1.44,0,0,1-.84,1,1.91,1.91,0,0,1-1.38,0l-5-1.51a2.14,2.14,0,0,1-1.53-2.88l3.49-11.39a2.2,2.2,0,0,1,.9-1.25,1.73,1.73,0,0,1,1.48-.18,1.64,1.64,0,0,1,1.09,1,2.22,2.22,0,0,1,0,1.55l-3.2,10.44,3.65,1.11a2,2,0,0,1,1.14.8A1.54,1.54,0,0,1,482.76,200.62Z"/><path class="cls-5" d="M496,199.89a1.76,1.76,0,0,1-.72,1,1.6,1.6,0,0,1-1.25,0l-6.21-2.14a4.6,4.6,0,0,0,.06.71,2.44,2.44,0,0,0,.44,1.09,2.56,2.56,0,0,0,1.4,1.09,4.4,4.4,0,0,0,1.24.22,3.54,3.54,0,0,0,.77,0l1.13-.17a1.37,1.37,0,0,1,.68.08,1.5,1.5,0,0,1,.88.76,1.34,1.34,0,0,1,.11,1.1,1.52,1.52,0,0,1-.8.84,3.53,3.53,0,0,1-1.15.37,6.56,6.56,0,0,1-2,.11,8.43,8.43,0,0,1-2.06-.44,6.8,6.8,0,0,1-2.43-1.43,5.93,5.93,0,0,1-1.55-2.33,5.63,5.63,0,0,1-.37-2.13,7.59,7.59,0,0,1,.44-2.21,6.24,6.24,0,0,1,3.11-3.61,5.73,5.73,0,0,1,4.7-.35,5.57,5.57,0,0,1,3.36,3A5.78,5.78,0,0,1,496,199.89Zm-3-1.9a3.66,3.66,0,0,0-.22-1.73,2.12,2.12,0,0,0-1.34-1.14,2,2,0,0,0-1.68.13,4.27,4.27,0,0,0-1.27,1.18Z"/><path class="cls-5" d="M508.85,205.07a1.81,1.81,0,0,1-.77,1,1.59,1.59,0,0,1-1.24-.1l-6.1-2.47a5.19,5.19,0,0,0,0,.71,2.49,2.49,0,0,0,.38,1.11,2.61,2.61,0,0,0,1.34,1.17,4.26,4.26,0,0,0,1.23.28,3.89,3.89,0,0,0,.78,0l1.13-.11a1.54,1.54,0,0,1,.68.11,1.58,1.58,0,0,1,.84.81,1.33,1.33,0,0,1,0,1.1,1.5,1.5,0,0,1-.84.8,3.66,3.66,0,0,1-1.16.31,6.63,6.63,0,0,1-2,0,8.61,8.61,0,0,1-2-.55,6.76,6.76,0,0,1-2.36-1.56,6,6,0,0,1-1.43-2.4,5.64,5.64,0,0,1-.26-2.15,7.71,7.71,0,0,1,.56-2.18,6.21,6.21,0,0,1,3.3-3.45,5.73,5.73,0,0,1,4.71-.1,5.59,5.59,0,0,1,3.2,3.14A5.79,5.79,0,0,1,508.85,205.07Zm-2.9-2a3.46,3.46,0,0,0-.13-1.73,2.1,2.1,0,0,0-1.28-1.22,2,2,0,0,0-1.68.05,4.14,4.14,0,0,0-1.33,1.11Z"/><path class="cls-5" d="M529.83,206.11a1.45,1.45,0,0,1-1,.83,2,2,0,0,1-1.37-.18L524,205.07l-1.4,2.87,2.95,1.44a2,2,0,0,1,1,1,1.67,1.67,0,0,1-1.07,2.16,1.94,1.94,0,0,1-1.38-.17l-3-1.44-1.95,4a2.22,2.22,0,0,1-1.08,1.1,1.62,1.62,0,0,1-1.45-.05,1.65,1.65,0,0,1-1-1.13,2.29,2.29,0,0,1,.2-1.54l5.24-10.74a2.3,2.3,0,0,1,1.25-1.23,2.19,2.19,0,0,1,1.77.19l4.75,2.32a2,2,0,0,1,1,1A1.56,1.56,0,0,1,529.83,206.11Z"/><path class="cls-5" d="M536.57,220.75a5.79,5.79,0,0,1-.93,1.29,3.83,3.83,0,0,1-1.22.81,5.2,5.2,0,0,1-2.5.41,6.17,6.17,0,0,1-2.55-.8,6.09,6.09,0,0,1-2-1.72,5.2,5.2,0,0,1-1-2.36,4,4,0,0,1,.06-1.47,6,6,0,0,1,.58-1.47l2.72-4.91a2.13,2.13,0,0,1,1.1-1,1.61,1.61,0,0,1,1.41.12,1.63,1.63,0,0,1,.85,1.12,2,2,0,0,1-.25,1.46l-2.51,4.54a2.67,2.67,0,0,0-.32.8,1.4,1.4,0,0,0,.06.75,2,2,0,0,0,2.43,1.35,1.5,1.5,0,0,0,.7-.35,2.31,2.31,0,0,0,.53-.67l2.51-4.53a2.08,2.08,0,0,1,1.1-1,1.58,1.58,0,0,1,1.41.13,1.54,1.54,0,0,1,.83,1.1,2.1,2.1,0,0,1-.28,1.46Z"/><path class="cls-5" d="M547.16,230.35a2.19,2.19,0,0,1-1.15,1A1.74,1.74,0,0,1,543.8,230a2.14,2.14,0,0,1,.31-1.48l2.75-4.57a2.39,2.39,0,0,0,.37-1.62,1.84,1.84,0,0,0-1-1.31,1.77,1.77,0,0,0-1.49-.17,2.13,2.13,0,0,0-1.21,1l-2.82,4.69a2.21,2.21,0,0,1-1.15,1,1.73,1.73,0,0,1-2.21-1.35,2.14,2.14,0,0,1,.32-1.48l4.36-7.27a2.41,2.41,0,0,1,1.15-1,1.49,1.49,0,0,1,1.4.13l.09.05a1.51,1.51,0,0,1,.65.8,2.31,2.31,0,0,1,.08,1.15,4.5,4.5,0,0,1,3.42.55,5.27,5.27,0,0,1,1.3,1.07,4.12,4.12,0,0,1,.81,1.47,3.32,3.32,0,0,1,.1,1.71,5.77,5.77,0,0,1-.74,1.78Z"/><path class="cls-5" d="M558.5,239a5.66,5.66,0,0,1-8.56,1.5,10.49,10.49,0,0,1-1.75-1.5,7.37,7.37,0,0,1-1.21-1.8,2.09,2.09,0,0,1-.26-1,1.57,1.57,0,0,1,.3-.91,1.53,1.53,0,0,1,1-.64,1.33,1.33,0,0,1,1.09.2l.18.07a1,1,0,0,1,.19.21l.16.21.62.86a5.88,5.88,0,0,0,1.49,1.53,3.77,3.77,0,0,0,1.35.61,1.82,1.82,0,0,0,1.31-.17,3,3,0,0,0,.77-.57,7.37,7.37,0,0,0,.68-.83,5.26,5.26,0,0,1-1.75.28,3,3,0,0,1-1.57-.62,5,5,0,0,1-2.18-3.63,5.49,5.49,0,0,1,.28-2.43,9.61,9.61,0,0,1,1.2-2.34,6.78,6.78,0,0,1,1.88-1.82,5.77,5.77,0,0,1,2.43-.9,5.23,5.23,0,0,1,1.89,0,4.33,4.33,0,0,1,1.72.69,3.84,3.84,0,0,1,1.16,1.2,5.15,5.15,0,0,1,.51,1.67,3.36,3.36,0,0,1,1.06-.34,1.59,1.59,0,0,1,1.1.27,1.47,1.47,0,0,1,.7,1.16,2.15,2.15,0,0,1-.42,1.38Zm0-6.08a3.39,3.39,0,0,0,.68-2.06,2.26,2.26,0,0,0-1-1.89,1.83,1.83,0,0,0-1.84-.2,3.64,3.64,0,0,0-1.63,1.31,5.65,5.65,0,0,0-.67,1.2,2.76,2.76,0,0,0-.17,1.17,2.21,2.21,0,0,0,.93,1.59,2.05,2.05,0,0,0,2.05.22A3.55,3.55,0,0,0,558.53,232.9Z"/><path class="cls-5" d="M50.83,610.78a1.65,1.65,0,0,1-.37,1.1,1.2,1.2,0,0,1-1,.45,1.26,1.26,0,0,1-1-.44,1.68,1.68,0,0,1-.36-1.11V601.5a1.65,1.65,0,0,1,.37-1.1,1.26,1.26,0,0,1,1-.45,1.22,1.22,0,0,1,1,.44,1.64,1.64,0,0,1,.37,1.11Z"/><path class="cls-5" d="M55.87,610.78a1.65,1.65,0,0,1-.35,1.08,1.2,1.2,0,0,1-1,.44,1.22,1.22,0,0,1-1-.44,1.68,1.68,0,0,1-.37-1.08V600.42a1.59,1.59,0,0,1,.36-1,1.21,1.21,0,0,1,1-.43,1.23,1.23,0,0,1,1,.42,1.59,1.59,0,0,1,.37,1.06Z"/><path class="cls-5" d="M60.64,610.78a1.6,1.6,0,0,1-.35,1.08,1.19,1.19,0,0,1-1,.44,1.2,1.2,0,0,1-1-.44,1.63,1.63,0,0,1-.37-1.08V600.42a1.59,1.59,0,0,1,.36-1,1.19,1.19,0,0,1,1-.43,1.2,1.2,0,0,1,1,.42,1.54,1.54,0,0,1,.37,1.06Z"/><path class="cls-5" d="M71,608.59a4.37,4.37,0,0,1-.14,1.19,2.81,2.81,0,0,1-.5,1,4,4,0,0,1-1.5,1.18,4.71,4.71,0,0,1-2,.4,4.77,4.77,0,0,1-1.93-.4,4,4,0,0,1-1.53-1.18,3.06,3.06,0,0,1-.49-1,4.36,4.36,0,0,1-.15-1.17v-4.21a1.59,1.59,0,0,1,.36-1,1.19,1.19,0,0,1,1-.43,1.23,1.23,0,0,1,1,.42,1.56,1.56,0,0,1,.37,1.06v3.88a2.27,2.27,0,0,0,.08.64,1,1,0,0,0,.32.48,1.47,1.47,0,0,0,2.08,0,1.24,1.24,0,0,0,.34-.49,2,2,0,0,0,.1-.63v-3.88a1.59,1.59,0,0,1,.36-1,1.19,1.19,0,0,1,1-.43,1.16,1.16,0,0,1,.94.42,1.59,1.59,0,0,1,.35,1.06Z"/><path class="cls-5" d="M79.66,609.31a2.84,2.84,0,0,1-1,2.23,3.21,3.21,0,0,1-1.1.59,4.63,4.63,0,0,1-1.31.2,5.36,5.36,0,0,1-2.12-.43c-.89-.37-1.33-.88-1.33-1.51a1.13,1.13,0,0,1,.33-.78,1,1,0,0,1,.75-.37,1.49,1.49,0,0,1,.47,0c.1,0,.4.17.89.41a4.18,4.18,0,0,0,.55.22,1.73,1.73,0,0,0,.5.07,1,1,0,0,0,.53-.16.49.49,0,0,0,.26-.41.62.62,0,0,0-.36-.54,4.13,4.13,0,0,0-.65-.29l-.72-.25a4.93,4.93,0,0,1-1.6-.9,2.2,2.2,0,0,1-.7-1.66,2.61,2.61,0,0,1,.79-1.91,3.34,3.34,0,0,1,2.52-1,5,5,0,0,1,1.25.15,3.47,3.47,0,0,1,1.09.5,2.1,2.1,0,0,1,.54.53,1,1,0,0,1,.22.62,1.35,1.35,0,0,1-.32.82.9.9,0,0,1-.73.4l0,0a2.49,2.49,0,0,1-.63-.18l-.43-.18c-.31-.12-.53-.2-.68-.24a2,2,0,0,0-.42-.05,1.34,1.34,0,0,0-.45.12.36.36,0,0,0-.2.31v0c0,.21.19.42.57.61a5.87,5.87,0,0,0,.87.32c.48.19.83.35,1.06.47a3.92,3.92,0,0,1,1,.68A2.26,2.26,0,0,1,79.66,609.31Z"/><path class="cls-5" d="M87.1,604.23a1.11,1.11,0,0,1-.38.88,1.48,1.48,0,0,1-1,.31H85v5.36a1.65,1.65,0,0,1-.35,1.08,1.19,1.19,0,0,1-1,.44,1.22,1.22,0,0,1-1-.44,1.68,1.68,0,0,1-.36-1.08v-5.36a3.71,3.71,0,0,1-.71,0,1.12,1.12,0,0,1-.91-1.15,1.38,1.38,0,0,1,.15-.62.88.88,0,0,1,.35-.4,1.53,1.53,0,0,1,.43-.13,3.62,3.62,0,0,1,.43,0h.26v-1.65a1.59,1.59,0,0,1,.36-1,1.22,1.22,0,0,1,1-.43,1.2,1.2,0,0,1,1,.42,1.65,1.65,0,0,1,.35,1.06V603h.76a1.48,1.48,0,0,1,1,.31A1.07,1.07,0,0,1,87.1,604.23Z"/><path class="cls-5" d="M94.38,604.12A1,1,0,0,1,94,605a3.55,3.55,0,0,1-1,.41l-.71.29a3,3,0,0,0-.69.39.85.85,0,0,0-.32.44,1.92,1.92,0,0,0-.08.64v3.6a1.65,1.65,0,0,1-.35,1.08,1.22,1.22,0,0,1-1,.44,1.19,1.19,0,0,1-1-.45,1.64,1.64,0,0,1-.37-1.07v-6.4a2.08,2.08,0,0,1,.07-.59,1,1,0,0,1,.26-.46,1.26,1.26,0,0,1,1-.47,1.39,1.39,0,0,1,.81.25,1.78,1.78,0,0,1,.56.69,6.08,6.08,0,0,1,.77-.67,2,2,0,0,1,1-.27,1.47,1.47,0,0,1,1,.36A1.13,1.13,0,0,1,94.38,604.12Z"/><path class="cls-5" d="M103.79,610.74a1.78,1.78,0,0,1-.37,1.12,1.19,1.19,0,0,1-1,.47,1.08,1.08,0,0,1-.79-.31,1.89,1.89,0,0,1-.47-.8,2.87,2.87,0,0,1-2.23,1.11,3.62,3.62,0,0,1-1.36-.27,4.29,4.29,0,0,1-1.23-.74,4.22,4.22,0,0,1-1.17-1.67,5.8,5.8,0,0,1-.38-2.07,5.6,5.6,0,0,1,.31-1.94,4.39,4.39,0,0,1,1.06-1.59,4.44,4.44,0,0,1,1.26-.89,3.49,3.49,0,0,1,1.47-.33,3.19,3.19,0,0,1,2.27,1,2,2,0,0,1,.49-.68,1.2,1.2,0,0,1,.81-.29,1.24,1.24,0,0,1,1,.4,1.36,1.36,0,0,1,.38,1Zm-2.7-3.08a2.8,2.8,0,0,0-.43-1.62,1.68,1.68,0,0,0-1.48-.73,1.53,1.53,0,0,0-1.33.73,2.58,2.58,0,0,0-.43,1.51,2.86,2.86,0,0,0,.39,1.56,1.56,1.56,0,0,0,1.37.76,1.66,1.66,0,0,0,1.39-.66A2.38,2.38,0,0,0,101.09,607.66Z"/><path class="cls-5" d="M111.57,604.23a1.08,1.08,0,0,1-.38.88,1.48,1.48,0,0,1-1,.31h-.76v5.36a1.6,1.6,0,0,1-.35,1.08,1.19,1.19,0,0,1-1,.44,1.2,1.2,0,0,1-1-.44,1.63,1.63,0,0,1-.37-1.08v-5.36a3.59,3.59,0,0,1-.7,0,1.1,1.1,0,0,1-.63-.36,1.18,1.18,0,0,1-.29-.79,1.38,1.38,0,0,1,.15-.62.94.94,0,0,1,.35-.4,1.6,1.6,0,0,1,.44-.13,3.44,3.44,0,0,1,.43,0h.25v-1.65a1.59,1.59,0,0,1,.36-1,1.22,1.22,0,0,1,1-.43,1.2,1.2,0,0,1,1,.42,1.59,1.59,0,0,1,.35,1.06V603h.76a1.48,1.48,0,0,1,1,.31A1,1,0,0,1,111.57,604.23Z"/><path class="cls-5" d="M121.41,607.58a5.48,5.48,0,0,1-.28,1.8,4.39,4.39,0,0,1-2.34,2.57,4.21,4.21,0,0,1-1.77.38,4.27,4.27,0,0,1-3.27-1.44,3.88,3.88,0,0,1-.89-1.51,5.57,5.57,0,0,1-.3-1.8,5.48,5.48,0,0,1,.28-1.8,4,4,0,0,1,.91-1.5,4.87,4.87,0,0,1,1.48-1.07,4.25,4.25,0,0,1,1.76-.38,4.39,4.39,0,0,1,1.76.38,4.6,4.6,0,0,1,1.47,1,4.19,4.19,0,0,1,.9,1.53A5.84,5.84,0,0,1,121.41,607.58Zm-2.59,0a2.58,2.58,0,0,0-.48-1.54,1.65,1.65,0,0,0-1.39-.75,1.53,1.53,0,0,0-1.33.77,2.66,2.66,0,0,0-.43,1.52,2.89,2.89,0,0,0,.45,1.59,1.5,1.5,0,0,0,1.31.7,1.68,1.68,0,0,0,1.39-.73A2.56,2.56,0,0,0,118.82,607.58Z"/><path class="cls-5" d="M129,604.12a1,1,0,0,1-.42.89,3.55,3.55,0,0,1-.95.41l-.71.29a3.25,3.25,0,0,0-.69.39.85.85,0,0,0-.32.44,1.92,1.92,0,0,0-.08.64v3.6a1.65,1.65,0,0,1-.35,1.08,1.29,1.29,0,0,1-2,0,1.64,1.64,0,0,1-.37-1.07v-6.4a2.08,2.08,0,0,1,.07-.59,1,1,0,0,1,.26-.46,1.26,1.26,0,0,1,1-.47,1.39,1.39,0,0,1,.81.25,1.78,1.78,0,0,1,.56.69,6.08,6.08,0,0,1,.77-.67,2,2,0,0,1,1-.27,1.47,1.47,0,0,1,1,.36A1.14,1.14,0,0,1,129,604.12Z"/><path class="cls-5" d="M133.51,605.74a1.49,1.49,0,0,1-.41,1,1.37,1.37,0,0,1-1,.43,1.42,1.42,0,0,1-1-.42,1.46,1.46,0,0,1-.43-1.06,1.39,1.39,0,0,1,.43-1,1.43,1.43,0,0,1,1-.43,1.41,1.41,0,0,1,1,.43A1.38,1.38,0,0,1,133.51,605.74Zm0,5.22a1.53,1.53,0,0,1-.42,1.08,1.39,1.39,0,0,1-1,.44,1.4,1.4,0,0,1-1-.44,1.54,1.54,0,0,1-.43-1.08,1.39,1.39,0,0,1,.43-1,1.43,1.43,0,0,1,1-.43,1.41,1.41,0,0,1,1,.43A1.38,1.38,0,0,1,133.51,611Z"/><path class="cls-5" d="M153.79,610.94a1.09,1.09,0,0,1-.39.88,1.45,1.45,0,0,1-1,.33h-3.89a1.71,1.71,0,0,1-1.27-.46,1.73,1.73,0,0,1-.46-1.27V601.5a1.65,1.65,0,0,1,.38-1.1,1.26,1.26,0,0,1,1-.45,1.22,1.22,0,0,1,1,.44,1.64,1.64,0,0,1,.37,1.11v8.19h2.85a1.47,1.47,0,0,1,1,.32A1.15,1.15,0,0,1,153.79,610.94Z"/><path class="cls-5" d="M162.71,608.59a4.37,4.37,0,0,1-.14,1.19,2.81,2.81,0,0,1-.5,1,4,4,0,0,1-1.5,1.18,4.71,4.71,0,0,1-2,.4,4.77,4.77,0,0,1-1.93-.4,4,4,0,0,1-1.53-1.18,3.06,3.06,0,0,1-.49-1,4.36,4.36,0,0,1-.15-1.17v-4.21a1.59,1.59,0,0,1,.36-1,1.19,1.19,0,0,1,1-.43,1.23,1.23,0,0,1,1,.42,1.56,1.56,0,0,1,.37,1.06v3.88a2.27,2.27,0,0,0,.08.64,1,1,0,0,0,.32.48,1.47,1.47,0,0,0,2.08,0,1.24,1.24,0,0,0,.34-.49,2,2,0,0,0,.1-.63v-3.88a1.59,1.59,0,0,1,.36-1,1.19,1.19,0,0,1,1-.43,1.16,1.16,0,0,1,.94.42,1.59,1.59,0,0,1,.35,1.06Z"/><path class="cls-5" d="M171.92,610.46q0,.9-1.14,1.44a4.35,4.35,0,0,1-1.89.43,5.07,5.07,0,0,1-1.84-.31,4,4,0,0,1-1.49-1,4.21,4.21,0,0,1-.93-1.56,6.29,6.29,0,0,1-.27-1.91,5.39,5.39,0,0,1,.32-1.91,4,4,0,0,1,1-1.55,4.32,4.32,0,0,1,3.06-1.22,5.38,5.38,0,0,1,1.93.32c.78.31,1.17.77,1.17,1.37a1.46,1.46,0,0,1-.3.88.88.88,0,0,1-.74.42h0a3.06,3.06,0,0,1-.43-.09,3.47,3.47,0,0,1-.47-.24,4.19,4.19,0,0,0-.49-.14,2.37,2.37,0,0,0-.52-.06,1.66,1.66,0,0,0-1.29.59,2.08,2.08,0,0,0-.46.77,2.88,2.88,0,0,0-.16.93,2.46,2.46,0,0,0,.54,1.66,1.93,1.93,0,0,0,1.55.63,1.85,1.85,0,0,0,.49-.08,2.67,2.67,0,0,0,.48-.18l.39-.16a.82.82,0,0,1,.33-.07,1.1,1.1,0,0,1,.82.32A1,1,0,0,1,171.92,610.46Z"/><path class="cls-5" d="M182.12,604.05a2.74,2.74,0,0,1,0,.47,1.13,1.13,0,0,1-.11.36l-4.25,10.19a2.28,2.28,0,0,1-.47.67.87.87,0,0,1-.65.26,1.66,1.66,0,0,1-1-.32,1,1,0,0,1-.46-.83l0-.14a1.35,1.35,0,0,1,.09-.39,1.65,1.65,0,0,0,.09-.3l1.15-2.7-2.7-6.44a2.44,2.44,0,0,1-.18-.83,1,1,0,0,1,.47-.84,1.82,1.82,0,0,1,1-.31,1,1,0,0,1,.78.4,3.52,3.52,0,0,1,.45.82l1.55,3.93,1.54-3.89a2.58,2.58,0,0,1,.56-1,1,1,0,0,1,.67-.25,1.82,1.82,0,0,1,1,.32A1,1,0,0,1,182.12,604.05Z"/><path class="cls-5" d="M198.45,601.42a1.21,1.21,0,0,1-.16.58,3.76,3.76,0,0,1-.38.54l-3,3.92v4.32a1.69,1.69,0,0,1-.36,1.1,1.23,1.23,0,0,1-1,.45,1.25,1.25,0,0,1-1-.44,1.67,1.67,0,0,1-.37-1.11v-4.33l-2.92-4c-.11-.16-.22-.33-.33-.52a1,1,0,0,1-.17-.53,1.58,1.58,0,0,1,.35-1A1.05,1.05,0,0,1,190,600a1.58,1.58,0,0,1,1.37.72l2.2,3.17,2.31-3.21a1.64,1.64,0,0,1,1.37-.68,1.1,1.1,0,0,1,.88.44A1.62,1.62,0,0,1,198.45,601.42Z"/><path class="cls-5" d="M202.89,600.49a1.54,1.54,0,0,1-.44,1.09,1.44,1.44,0,0,1-1.07.46,1.54,1.54,0,0,1-1.1-2.63,1.48,1.48,0,0,1,1.1-.47,1.41,1.41,0,0,1,1.07.46A1.54,1.54,0,0,1,202.89,600.49Zm-.22,10.29a1.6,1.6,0,0,1-.35,1.08,1.19,1.19,0,0,1-1,.44,1.21,1.21,0,0,1-1-.44,1.63,1.63,0,0,1-.37-1.08v-6.4a1.59,1.59,0,0,1,.36-1,1.19,1.19,0,0,1,1-.43,1.2,1.2,0,0,1,1,.42,1.56,1.56,0,0,1,.37,1.06Z"/><path class="cls-5" d="M213.24,608.59a4.35,4.35,0,0,1-.15,1.19,2.64,2.64,0,0,1-.5,1,4,4,0,0,1-1.5,1.18,4.9,4.9,0,0,1-3.88,0,3.9,3.9,0,0,1-1.53-1.18,2.89,2.89,0,0,1-.5-1,4.36,4.36,0,0,1-.15-1.17v-4.21a1.59,1.59,0,0,1,.36-1,1.19,1.19,0,0,1,1-.43,1.2,1.2,0,0,1,1,.42,1.56,1.56,0,0,1,.37,1.06v3.88a2.27,2.27,0,0,0,.08.64,1.07,1.07,0,0,0,.32.48,1.4,1.4,0,0,0,1,.43,1.43,1.43,0,0,0,1.05-.43,1.33,1.33,0,0,0,.33-.49,2,2,0,0,0,.1-.63v-3.88a1.59,1.59,0,0,1,.36-1,1.19,1.19,0,0,1,1-.43,1.15,1.15,0,0,1,.94.42,1.6,1.6,0,0,1,.36,1.06Z"/><path class="cls-5" d="M55.06,583.49a1.11,1.11,0,0,1-.39.89,1.43,1.43,0,0,1-1,.33H49.77A1.53,1.53,0,0,1,48.08,583v-8.64a1.73,1.73,0,0,1,.43-1.25,1.67,1.67,0,0,1,1.26-.45h3.92a1.49,1.49,0,0,1,1,.32,1.14,1.14,0,0,1,.38.93,1.11,1.11,0,0,1-.39.89,1.45,1.45,0,0,1-1,.33H50.83v2.29H53.4a1.44,1.44,0,0,1,1,.32,1.12,1.12,0,0,1,.38.93,1.1,1.1,0,0,1-.39.88,1.43,1.43,0,0,1-1,.33H50.83v2.34h2.86a1.49,1.49,0,0,1,1,.32A1.18,1.18,0,0,1,55.06,583.49Z"/><path class="cls-5" d="M65.41,583.33a1.78,1.78,0,0,1-.35,1.1,1.15,1.15,0,0,1-1,.46,1.2,1.2,0,0,1-.83-.29,2,2,0,0,1-.49-.83,2.82,2.82,0,0,1-1,.86,3.15,3.15,0,0,1-1.33.26,3.22,3.22,0,0,1-1.64-.44,4.08,4.08,0,0,1-1.3-1.22,5.84,5.84,0,0,1-1-3.35A4.48,4.48,0,0,1,57,578a4.85,4.85,0,0,1,1.17-1.61,4.31,4.31,0,0,1,1.2-.72,3.68,3.68,0,0,1,1.35-.26,2.66,2.66,0,0,1,1.07.22,4.22,4.22,0,0,1,1,.65V573a1.55,1.55,0,0,1,.36-1,1.2,1.2,0,0,1,1-.43,1.17,1.17,0,0,1,1,.42,1.6,1.6,0,0,1,.35,1.05ZM62.78,580a2.65,2.65,0,0,0-.43-1.51,1.6,1.6,0,0,0-2.68-.06,2.69,2.69,0,0,0-.49,1.61,2.56,2.56,0,0,0,.45,1.53,1.62,1.62,0,0,0,1.39.73,1.54,1.54,0,0,0,1.33-.75A2.71,2.71,0,0,0,62.78,580Z"/><path class="cls-5" d="M70.75,573a1.53,1.53,0,0,1-.44,1.09,1.44,1.44,0,0,1-1.08.46,1.48,1.48,0,0,1-1.09-.45,1.5,1.5,0,0,1-.45-1.1,1.52,1.52,0,0,1,.45-1.08,1.45,1.45,0,0,1,1.09-.46,1.47,1.47,0,0,1,1.08.45A1.54,1.54,0,0,1,70.75,573Zm-.22,10.3a1.69,1.69,0,0,1-.35,1.08,1.3,1.3,0,0,1-1.94,0,1.58,1.58,0,0,1-.37-1.07v-6.41a1.57,1.57,0,0,1,.36-1,1.19,1.19,0,0,1,1-.43,1.23,1.23,0,0,1,1,.42,1.51,1.51,0,0,1,.37,1Z"/><path class="cls-5" d="M78.5,576.79a1.08,1.08,0,0,1-.38.87,1.43,1.43,0,0,1-1,.31h-.76v5.37a1.69,1.69,0,0,1-.35,1.08,1.3,1.3,0,0,1-1.94,0,1.58,1.58,0,0,1-.37-1.07V578a5.16,5.16,0,0,1-.7,0,1.1,1.1,0,0,1-.63-.36,1.15,1.15,0,0,1-.29-.79,1.32,1.32,0,0,1,.15-.62.88.88,0,0,1,.35-.4,1.55,1.55,0,0,1,.43-.14l.44,0h.25v-1.66a1.59,1.59,0,0,1,.36-1,1.19,1.19,0,0,1,1-.43,1.2,1.2,0,0,1,1,.42,1.6,1.6,0,0,1,.35,1.05v1.66h.76a1.43,1.43,0,0,1,1,.31A1.06,1.06,0,0,1,78.5,576.79Z"/><path class="cls-5" d="M88.34,580.13a5.58,5.58,0,0,1-.28,1.81,4.24,4.24,0,0,1-.89,1.51,4.39,4.39,0,0,1-6.5,0,4.23,4.23,0,0,1-.89-1.51,6,6,0,0,1,0-3.61,4.2,4.2,0,0,1,.92-1.5,4.84,4.84,0,0,1,1.48-1.06,4.1,4.1,0,0,1,1.75-.39,4.29,4.29,0,0,1,1.77.39,4.53,4.53,0,0,1,1.46,1,4.08,4.08,0,0,1,.9,1.53A5.57,5.57,0,0,1,88.34,580.13Zm-2.59,0a2.53,2.53,0,0,0-.49-1.54,1.65,1.65,0,0,0-1.38-.74,1.52,1.52,0,0,0-1.33.76,2.69,2.69,0,0,0-.44,1.52,2.85,2.85,0,0,0,.46,1.59,1.47,1.47,0,0,0,1.31.7,1.66,1.66,0,0,0,1.38-.72A2.53,2.53,0,0,0,85.75,580.13Z"/><path class="cls-5" d="M95.91,576.68a1,1,0,0,1-.41.88,3.5,3.5,0,0,1-1,.41l-.7.29a3,3,0,0,0-.69.39.9.9,0,0,0-.32.44,2,2,0,0,0-.08.65v3.6a1.64,1.64,0,0,1-.36,1.08,1.18,1.18,0,0,1-1,.43,1.21,1.21,0,0,1-1-.44,1.63,1.63,0,0,1-.37-1.08v-6.39a2.49,2.49,0,0,1,.06-.59,1.1,1.1,0,0,1,.27-.46,1.25,1.25,0,0,1,1-.47,1.38,1.38,0,0,1,.81.24,1.83,1.83,0,0,1,.56.7,4.39,4.39,0,0,1,.77-.67,2,2,0,0,1,1-.27,1.47,1.47,0,0,1,1,.36A1.13,1.13,0,0,1,95.91,576.68Z"/><path class="cls-5" d="M100.44,578.3a1.43,1.43,0,0,1-.42,1,1.34,1.34,0,0,1-1,.44,1.43,1.43,0,0,1-1-.43,1.4,1.4,0,0,1-.43-1.05,1.36,1.36,0,0,1,.43-1,1.49,1.49,0,0,1,2.07,0A1.39,1.39,0,0,1,100.44,578.3Zm0,5.22a1.49,1.49,0,0,1-.42,1.07,1.44,1.44,0,0,1-2.07,0,1.46,1.46,0,0,1-.43-1.07,1.36,1.36,0,0,1,.43-1,1.49,1.49,0,0,1,2.07,0A1.39,1.39,0,0,1,100.44,583.52Z"/><path class="cls-5" d="M117.52,583.05a1.23,1.23,0,0,1-.23.72,1.69,1.69,0,0,1-.59.54,4.25,4.25,0,0,1-1.36.56,7.29,7.29,0,0,1-1.6.16,5.54,5.54,0,0,1-4-1.58,5.35,5.35,0,0,1-1.44-2.34,8.84,8.84,0,0,1-.4-2.78,5.75,5.75,0,0,1,5.94-5.94,6.35,6.35,0,0,1,2.22.38q1.35.51,1.35,1.5a1.5,1.5,0,0,1-.27.92.93.93,0,0,1-.81.37,1.33,1.33,0,0,1-.45-.07l-.56-.21a3.82,3.82,0,0,0-1.41-.29,2.75,2.75,0,0,0-2.35,1.08,4.11,4.11,0,0,0-.74,2.59,5.94,5.94,0,0,0,.22,1.7,3.06,3.06,0,0,0,.82,1.32,2.82,2.82,0,0,0,2,.76,3.6,3.6,0,0,0,.58,0,1.8,1.8,0,0,0,.53-.14l.8-.4a1.49,1.49,0,0,1,.54-.11h.1a.94.94,0,0,1,.79.39A1.5,1.5,0,0,1,117.52,583.05Z"/><path class="cls-5" d="M127.17,583.3a1.76,1.76,0,0,1-.37,1.12,1.21,1.21,0,0,1-1,.47,1.1,1.1,0,0,1-.79-.32,1.83,1.83,0,0,1-.47-.8,2.84,2.84,0,0,1-2.23,1.12,3.66,3.66,0,0,1-1.36-.27,4.53,4.53,0,0,1-1.23-.74,4.27,4.27,0,0,1-1.16-1.67,5.65,5.65,0,0,1-.39-2.08,5.58,5.58,0,0,1,.32-1.93,4.4,4.4,0,0,1,1.05-1.59,4.35,4.35,0,0,1,1.27-.89,3.3,3.3,0,0,1,1.47-.34,3.14,3.14,0,0,1,2.26,1,2.27,2.27,0,0,1,.49-.69,1.23,1.23,0,0,1,.81-.28,1.27,1.27,0,0,1,1,.39,1.38,1.38,0,0,1,.38,1Zm-2.7-3.08a2.76,2.76,0,0,0-.43-1.63,1.7,1.7,0,0,0-1.48-.72,1.56,1.56,0,0,0-1.33.72,2.61,2.61,0,0,0-.43,1.52,2.77,2.77,0,0,0,.4,1.55,1.52,1.52,0,0,0,1.36.76,1.7,1.7,0,0,0,1.4-.65A2.43,2.43,0,0,0,124.47,580.22Z"/><path class="cls-5" d="M137.62,583.34a1.69,1.69,0,0,1-.35,1.08,1.18,1.18,0,0,1-1,.43,1.22,1.22,0,0,1-1-.44,1.63,1.63,0,0,1-.36-1.07v-4a1.77,1.77,0,0,0-.39-1.18,1.36,1.36,0,0,0-1.13-.47,1.28,1.28,0,0,0-1,.47,1.56,1.56,0,0,0-.42,1.08v4.1a1.63,1.63,0,0,1-.35,1.08,1.18,1.18,0,0,1-1,.43,1.21,1.21,0,0,1-1-.44,1.63,1.63,0,0,1-.37-1.08V577a1.77,1.77,0,0,1,.34-1.09,1.12,1.12,0,0,1,1-.46h.07a1.14,1.14,0,0,1,.73.26,1.77,1.77,0,0,1,.49.71,3.39,3.39,0,0,1,2.41-1,3.86,3.86,0,0,1,1.25.19,2.88,2.88,0,0,1,1.09.63,2.39,2.39,0,0,1,.72,1.06,4.17,4.17,0,0,1,.22,1.43Z"/><path class="cls-5" d="M148.27,583.33a1.78,1.78,0,0,1-.34,1.1,1.17,1.17,0,0,1-1,.46,1.16,1.16,0,0,1-.82-.29,1.91,1.91,0,0,1-.49-.83,2.76,2.76,0,0,1-1,.86,3.12,3.12,0,0,1-1.33.26,3.25,3.25,0,0,1-1.64-.44,4.08,4.08,0,0,1-1.3-1.22,5.84,5.84,0,0,1-1-3.35,4.48,4.48,0,0,1,.45-1.91,4.85,4.85,0,0,1,1.17-1.61,4.31,4.31,0,0,1,1.2-.72,3.73,3.73,0,0,1,1.36-.26,2.73,2.73,0,0,1,1.07.22,4.22,4.22,0,0,1,1,.65V573a1.55,1.55,0,0,1,.36-1,1.19,1.19,0,0,1,1-.43,1.16,1.16,0,0,1,.94.42,1.55,1.55,0,0,1,.35,1.05ZM145.65,580a2.65,2.65,0,0,0-.44-1.51,1.52,1.52,0,0,0-1.33-.76,1.55,1.55,0,0,0-1.35.7A2.76,2.76,0,0,0,142,580a2.57,2.57,0,0,0,.46,1.53,1.59,1.59,0,0,0,1.38.73,1.53,1.53,0,0,0,1.33-.75A2.72,2.72,0,0,0,145.65,580Z"/><path class="cls-5" d="M153.61,573a1.53,1.53,0,0,1-.44,1.09,1.41,1.41,0,0,1-1.07.46,1.54,1.54,0,0,1-1.55-1.55A1.52,1.52,0,0,1,151,572a1.47,1.47,0,0,1,1.1-.46,1.44,1.44,0,0,1,1.07.45A1.54,1.54,0,0,1,153.61,573Zm-.22,10.3a1.63,1.63,0,0,1-.35,1.08,1.18,1.18,0,0,1-1,.43,1.2,1.2,0,0,1-1-.44,1.58,1.58,0,0,1-.37-1.07v-6.41a1.57,1.57,0,0,1,.36-1,1.19,1.19,0,0,1,1-.43,1.2,1.2,0,0,1,1,.42,1.51,1.51,0,0,1,.37,1Z"/><path class="cls-5" d="M162.84,583a1.64,1.64,0,0,1-1.13,1.44,4.57,4.57,0,0,1-1.9.43,5.11,5.11,0,0,1-1.84-.32,3.86,3.86,0,0,1-1.48-1,4.07,4.07,0,0,1-.94-1.57,6.25,6.25,0,0,1-.27-1.91,5.57,5.57,0,0,1,.32-1.9,4,4,0,0,1,1.05-1.55,4.25,4.25,0,0,1,3.06-1.23,5.15,5.15,0,0,1,1.92.33c.78.31,1.17.76,1.17,1.37a1.54,1.54,0,0,1-.29.88.91.91,0,0,1-.75.41h0l-.43-.09a3.66,3.66,0,0,1-.47-.23,4,4,0,0,0-.48-.14,2.46,2.46,0,0,0-.53-.06,1.66,1.66,0,0,0-1.29.58,2.21,2.21,0,0,0-.46.78,2.82,2.82,0,0,0-.15.92,2.44,2.44,0,0,0,.54,1.66,1.92,1.92,0,0,0,1.55.63,1.79,1.79,0,0,0,.48-.07,3.12,3.12,0,0,0,.49-.18l.38-.17a1.06,1.06,0,0,1,.34-.06,1.16,1.16,0,0,1,.82.31A1,1,0,0,1,162.84,583Z"/><path class="cls-5" d="M173.19,579.81a1.34,1.34,0,0,1-.26.91,1.17,1.17,0,0,1-.89.28H167.1c.08.19.15.35.22.49a1.85,1.85,0,0,0,.58.66,1.94,1.94,0,0,0,1.26.43,3.09,3.09,0,0,0,.93-.14,2.66,2.66,0,0,0,.54-.22l.76-.39a1,1,0,0,1,.5-.11,1.17,1.17,0,0,1,.81.32,1,1,0,0,1,.34.76,1.13,1.13,0,0,1-.36.79,3,3,0,0,1-.72.54,5.28,5.28,0,0,1-1.38.57,6.82,6.82,0,0,1-1.57.19,5,5,0,0,1-2.08-.43,4.5,4.5,0,0,1-1.66-1.26,4.23,4.23,0,0,1-.79-1.43,6.09,6.09,0,0,1-.22-1.67,4.65,4.65,0,0,1,1.32-3.32,4.31,4.31,0,0,1,3.25-1.4,4.16,4.16,0,0,1,3.11,1.29A4.36,4.36,0,0,1,173.19,579.81Zm-2.59-.61A2.77,2.77,0,0,0,170,578a1.61,1.61,0,0,0-1.23-.49,1.51,1.51,0,0,0-1.16.51,3.24,3.24,0,0,0-.62,1.15Z"/><path class="cls-5" d="M190.94,583.34a1.67,1.67,0,0,1-.38,1.1,1.26,1.26,0,0,1-1,.45,1.22,1.22,0,0,1-1-.44,1.65,1.65,0,0,1-.37-1.11v-3.55h-5.11v3.55a1.69,1.69,0,0,1-.36,1.1,1.37,1.37,0,0,1-2,0,1.67,1.67,0,0,1-.37-1.11v-9.29a1.71,1.71,0,0,1,.36-1.1,1.22,1.22,0,0,1,1-.45,1.26,1.26,0,0,1,1,.44,1.71,1.71,0,0,1,.35,1.11v3.28h5.11v-3.28a1.66,1.66,0,0,1,.37-1.1,1.2,1.2,0,0,1,1-.45,1.29,1.29,0,0,1,1,.44,1.73,1.73,0,0,1,.37,1.11Z"/><path class="cls-5" d="M201.63,580.13a5.87,5.87,0,0,1-.28,1.81,4.56,4.56,0,0,1-.89,1.51,4.37,4.37,0,0,1-3.23,1.44,4.27,4.27,0,0,1-3.27-1.44,4,4,0,0,1-.89-1.51,5.76,5.76,0,0,1,0-3.61,3.94,3.94,0,0,1,.92-1.5,4.68,4.68,0,0,1,1.47-1.06,4.14,4.14,0,0,1,1.76-.39,4.24,4.24,0,0,1,1.76.39,4.47,4.47,0,0,1,1.47,1,4.36,4.36,0,0,1,.9,1.53A5.57,5.57,0,0,1,201.63,580.13Zm-2.6,0a2.58,2.58,0,0,0-.48-1.54,1.67,1.67,0,0,0-1.39-.74,1.52,1.52,0,0,0-1.33.76,2.68,2.68,0,0,0-.43,1.52,2.77,2.77,0,0,0,.46,1.59,1.45,1.45,0,0,0,1.3.7,1.67,1.67,0,0,0,1.39-.72A2.59,2.59,0,0,0,199,580.13Z"/><path class="cls-5" d="M212.18,580a5.54,5.54,0,0,1-1,3.38,3.66,3.66,0,0,1-3.08,1.55,3.18,3.18,0,0,1-2.05-.79V587a1.59,1.59,0,0,1-.36,1,1.2,1.2,0,0,1-1,.43,1.24,1.24,0,0,1-1-.42,1.61,1.61,0,0,1-.37-1.06V577a1.94,1.94,0,0,1,.32-1.12,1.06,1.06,0,0,1,.94-.47,1.24,1.24,0,0,1,.83.27,1.85,1.85,0,0,1,.47.74,3,3,0,0,1,1-.75,2.86,2.86,0,0,1,1.21-.26,4.24,4.24,0,0,1,1.45.24,3.18,3.18,0,0,1,1.17.77,4.46,4.46,0,0,1,1.07,1.59A5.19,5.19,0,0,1,212.18,580Zm-2.62.18a2.62,2.62,0,0,0-.44-1.5,1.5,1.5,0,0,0-1.29-.76,1.67,1.67,0,0,0-1.41.68,2.78,2.78,0,0,0,0,3.14,1.7,1.7,0,0,0,1.44.74,1.51,1.51,0,0,0,1.28-.75A2.76,2.76,0,0,0,209.56,580.14Z"/><path class="cls-5" d="M221.94,583.45a1.61,1.61,0,0,1-.32,1,1,1,0,0,1-.83.41,1.41,1.41,0,0,1-1.26-.65l-3-3.85v3a1.64,1.64,0,0,1-.36,1.06,1.19,1.19,0,0,1-1,.45,1.22,1.22,0,0,1-1-.44,1.64,1.64,0,0,1-.37-1.07V573a1.55,1.55,0,0,1,.36-1,1.21,1.21,0,0,1,1-.43,1.23,1.23,0,0,1,1,.42,1.56,1.56,0,0,1,.37,1.05v5.62l2.63-2.7a1.21,1.21,0,0,1,.5-.34,2.29,2.29,0,0,1,.68-.09.94.94,0,0,1,.64.28,1.37,1.37,0,0,1,.41.62l0,.32a1.35,1.35,0,0,1-.11.52,1.93,1.93,0,0,1-.35.49l-1.88,1.8,2.31,2.88.34.48A1.28,1.28,0,0,1,221.94,583.45Z"/><path class="cls-5" d="M226.68,573a1.53,1.53,0,0,1-.44,1.09,1.42,1.42,0,0,1-1.07.46,1.49,1.49,0,0,1-1.1-.45,1.5,1.5,0,0,1-.45-1.1,1.52,1.52,0,0,1,.45-1.08,1.52,1.52,0,0,1,2.17,0A1.54,1.54,0,0,1,226.68,573Zm-.22,10.3a1.63,1.63,0,0,1-.35,1.08,1.3,1.3,0,0,1-1.94,0,1.58,1.58,0,0,1-.37-1.07v-6.41a1.57,1.57,0,0,1,.36-1,1.19,1.19,0,0,1,1-.43,1.2,1.2,0,0,1,1,.42,1.51,1.51,0,0,1,.37,1Z"/><path class="cls-5" d="M237.1,583.34a1.69,1.69,0,0,1-.35,1.08,1.31,1.31,0,0,1-1.95,0,1.58,1.58,0,0,1-.37-1.07v-4a1.77,1.77,0,0,0-.39-1.18,1.34,1.34,0,0,0-1.12-.47,1.3,1.3,0,0,0-1,.47,1.6,1.6,0,0,0-.41,1.08v4.1a1.69,1.69,0,0,1-.35,1.08,1.3,1.3,0,0,1-1.94,0,1.63,1.63,0,0,1-.37-1.08V577a1.77,1.77,0,0,1,.34-1.09,1.11,1.11,0,0,1,1-.46h.07a1.12,1.12,0,0,1,.73.26,1.79,1.79,0,0,1,.5.71,3.38,3.38,0,0,1,2.41-1,3.94,3.94,0,0,1,1.25.19,3,3,0,0,1,1.09.63,2.39,2.39,0,0,1,.72,1.06,4.43,4.43,0,0,1,.22,1.43Z"/><path class="cls-5" d="M245.91,581.86a2.88,2.88,0,0,1-1,2.24,3.25,3.25,0,0,1-1.11.58,4.27,4.27,0,0,1-1.31.21,5.54,5.54,0,0,1-2.12-.43c-.89-.38-1.33-.88-1.33-1.52a1.17,1.17,0,0,1,.33-.78,1,1,0,0,1,.75-.37,1.45,1.45,0,0,1,.47.06c.1,0,.4.17.9.41a2.55,2.55,0,0,0,.55.21,1.62,1.62,0,0,0,.49.08,1,1,0,0,0,.53-.17.47.47,0,0,0,.26-.41.63.63,0,0,0-.36-.54,5.43,5.43,0,0,0-.65-.29l-.72-.25a4.75,4.75,0,0,1-1.6-.9,2.17,2.17,0,0,1-.7-1.66,2.58,2.58,0,0,1,.79-1.9,3.31,3.31,0,0,1,2.52-1,4.55,4.55,0,0,1,1.25.16,3.35,3.35,0,0,1,1.09.49,2.27,2.27,0,0,1,.54.53,1,1,0,0,1,.22.62,1.33,1.33,0,0,1-.32.82.91.91,0,0,1-.73.41l0,0a2.11,2.11,0,0,1-.63-.17l-.43-.19a4.86,4.86,0,0,0-.67-.23,1.64,1.64,0,0,0-.42-.06,1.59,1.59,0,0,0-.46.13.35.35,0,0,0-.2.31v0c0,.22.19.42.58.61a5.21,5.21,0,0,0,.86.33,9.39,9.39,0,0,1,1.06.47,4,4,0,0,1,1,.68A2.28,2.28,0,0,1,245.91,581.86Z"/></g><g id="edge"><path class="cls-49" d="M0,0V648H648V0ZM-85-85H733V733H-85Z"/></g></svg>