<svg id="graphic" xmlns="http://www.w3.org/2000/svg" xmlns:xlink="http://www.w3.org/1999/xlink" viewBox="0 0 648 648"><defs><style>.cls-1{fill:#632bd4;}.cls-2{fill:#8255dd;}.cls-3{fill:url(#New_Gradient_33);}.cls-10,.cls-11,.cls-16,.cls-17,.cls-18,.cls-19,.cls-20,.cls-21,.cls-23,.cls-24,.cls-28,.cls-30,.cls-32,.cls-33,.cls-34,.cls-36,.cls-37,.cls-38,.cls-4,.cls-42,.cls-43,.cls-45,.cls-5,.cls-6,.cls-7,.cls-8,.cls-9{fill-rule:evenodd;}.cls-4{fill:url(#New_Gradient_34);}.cls-5{fill:#631aba;}.cls-6{fill:url(#New_Gradient_35);}.cls-7{fill:#00638f;}.cls-8{fill:#73b9d0;}.cls-9{fill:#0d9c56;}.cls-10{fill:#45b15b;}.cls-11{fill:#b1dc4e;}.cls-12{fill:#7c86eb;}.cls-13,.cls-32{fill:#5b68e6;}.cls-14{fill:#6370e7;}.cls-15{fill:#5b4ee1;}.cls-16{fill:url(#New_Gradient_36);}.cls-17{fill:url(#New_Gradient_36-2);}.cls-18{fill:#9da4f0;}.cls-19{fill:#fffb2b;}.cls-20{fill:#ffff70;}.cls-21{fill:url(#New_Gradient_36-3);}.cls-22{fill:#ffff68;}.cls-23{fill:url(#New_Gradient_37);}.cls-24{fill:#ffc200;}.cls-25{fill:#ffd400;}.cls-26{fill:#ffdc00;}.cls-27{fill:#ffd200;}.cls-28{fill:#ffe;}.cls-29,.cls-37{fill:#fff;}.cls-30{fill:#b68241;}.cls-31{fill:#dcdeed;}.cls-33{fill:#ffb1b5;}.cls-34{fill:#f34e42;}.cls-35{fill:#f68077;}.cls-36{fill:#ff9094;}.cls-38{fill:#333;}.cls-39{fill:url(#New_Gradient_28);}.cls-40{fill:url(#New_Gradient_38);}.cls-41{fill:none;}.cls-42{fill:#6d6f71;}.cls-44,.cls-45{fill:#ff7575;}</style><radialGradient id="New_Gradient_33" cx="502.76" cy="99.26" r="94.76" gradientTransform="translate(217.44 -326.44) rotate(45)" gradientUnits="userSpaceOnUse"><stop offset="0" stop-color="#ffffc2"/><stop offset="0.35" stop-color="#ffffc2"/><stop offset="0.81" stop-color="#632bd4"/><stop offset="1" stop-color="#632bd4"/></radialGradient><radialGradient id="New_Gradient_34" cx="440.36" cy="320.15" r="221.82" gradientUnits="userSpaceOnUse"><stop offset="0" stop-color="#ffffc3"/><stop offset="0.56" stop-color="#926be1"/><stop offset="1" stop-color="#632bd4"/></radialGradient><radialGradient id="New_Gradient_35" cx="232.85" cy="293.38" r="247.04" gradientUnits="userSpaceOnUse"><stop offset="0" stop-color="#ff0"/><stop offset="0.39" stop-color="#168ab1"/><stop offset="1" stop-color="#168ab1"/></radialGradient><linearGradient id="New_Gradient_36" x1="53.87" y1="303.31" x2="71.28" y2="285.9" gradientUnits="userSpaceOnUse"><stop offset="0" stop-color="#bdaeee"/><stop offset="1" stop-color="#ffffa9"/></linearGradient><linearGradient id="New_Gradient_36-2" x1="79.89" y1="273.61" x2="95.19" y2="258.32" xlink:href="#New_Gradient_36"/><linearGradient id="New_Gradient_36-3" x1="-0.49" y1="281.72" x2="15.73" y2="265.5" xlink:href="#New_Gradient_36"/><radialGradient id="New_Gradient_37" cx="516.49" cy="65.34" r="77.91" gradientUnits="userSpaceOnUse"><stop offset="0" stop-color="#ffdc00"/><stop offset="1" stop-color="#ffff68"/></radialGradient><linearGradient id="New_Gradient_28" x1="431.57" y1="433.22" x2="431.57" y2="589.03" gradientUnits="userSpaceOnUse"><stop offset="0" stop-color="#ffb1b4"/><stop offset="1" stop-color="#ff9b9f"/></linearGradient><linearGradient id="New_Gradient_38" x1="418.67" y1="433.22" x2="418.67" y2="581.04" gradientUnits="userSpaceOnUse"><stop offset="0" stop-color="#fff2b6"/><stop offset="1" stop-color="#ffc8cb"/></linearGradient></defs><title>page15</title><rect class="cls-1" x="-14.17" y="-14.17" width="676.35" height="676.35"/><path class="cls-2" d="M-14.17-4c47.44,91.78,270.44,101.52,249,181.83-13,48.71-136.31,142-249,180.76V333.48c107.63-32.21,228-111.34,243.32-157.2C247,122.6,57.27,117.58-14.17,54.85Z"/><path class="cls-2" d="M4.08-14.17C17.33,20.3,87,53.48,130,70.82c84.36,34,137,62.54,110.31,127C217.35,253.13,93.78,291.17,64.35,403h36.06C113.2,307.82,282.55,253,308.6,194.65,338,128.89,292,68.64,227.66,28.79a337.36,337.36,0,0,1-55.87-43Z"/><circle class="cls-3" cx="502.76" cy="99.26" r="94.76" transform="translate(77.07 384.58) rotate(-45)"/><path class="cls-4" d="M321.43,195.84c-10.23-16.12-48.62-8.9-45.43,19.42-12.23-10-29.89,6.75-18.44,17.48-11.45-4.37-44.13,14.42-28.42,44.9l433,42.51V202.71c-8.77-8.15-23.32-11.33-33.79-3.87.39-5.5-7-9.66-11.64-4.74-8.63-23.33-48.46-20.84-55.81-2.24-14.43-17.12-58.57-11.86-61.26,17-1.15-4.61-8.12-6.65-11.29-2.76,6.56-26.85-30.82-42.8-42.16-27.08-1.66-11-18.35-12.91-22.65-3-5.75-26.73-46.56-19.29-49.41.18-4.75-5.7-17.86.37-16.73,8.14C347.51,176.22,325.32,180.66,321.43,195.84Z"/><path class="cls-5" d="M-14.19,171.92c1.34-15.22,20.66-19.25,30-9.85,6.27-12.09,23.09-16.81,33.58-4.48C56.54,146,73.23,148.34,78,160.28c7.17-11.19,24.36-9.63,28.65,2.24,16.57-8.06,47.18,12.78,33.83,42.13L-14.19,245.33Z"/><path class="cls-6" d="M-14.19,213.79C.89,199.38,16.73,188.17,32.4,189.38c28.89,2.21,40.53,21.11,61.49,14.78,23-7,25.33-45.81,65.11-49.45s47.44,39,70.35,42.65,19-13.38,46.61-10.11c20.51,2.44,46.3,35,43.87,59.12l-334,47Z"/><path class="cls-7" d="M132.94,193c-4.54,0-3.19,10.34,0,10.4S137.47,193,132.94,193Z"/><path class="cls-7" d="M121.05,214.58c-3.23,0-2.27,7.37,0,7.41S124.28,214.56,121.05,214.58Z"/><path class="cls-8" d="M49.76,208.2c-4.54,0-3.19,10.34,0,10.4S54.3,208.17,49.76,208.2Z"/><path class="cls-7" d="M22.74,219.64c-4.54,0-3.19,10.34,0,10.4S27.28,219.61,22.74,219.64Z"/><path class="cls-8" d="M109.87,209.63c-3.64,0-2.55,8.27,0,8.32S113.5,209.6,109.87,209.63Z"/><path class="cls-9" d="M184,184c-4.54,0-3.19,10.34,0,10.4S188.54,184,184,184Z"/><path class="cls-9" d="M193.33,192c-3.24,0-2.27,7.36,0,7.41S196.56,192,193.33,192Z"/><path class="cls-10" d="M224.6,203.13c-3.23,0-2.27,7.37,0,7.41S227.83,203.11,224.6,203.13Z"/><path class="cls-9" d="M276.2,200.43c-3.23,0-2.27,7.36,0,7.41S279.43,200.41,276.2,200.43Z"/><path class="cls-7" d="M40.38,226c-4.53,0-3.18,10.34,0,10.4S44.92,226,40.38,226Z"/><path class="cls-7" d="M92.27,213c-4.54,0-3.19,10.34,0,10.4S96.81,213,92.27,213Z"/><path class="cls-8" d="M139.73,207.71c-2.17,0-1.52,5,0,5S141.91,207.7,139.73,207.71Z"/><path class="cls-8" d="M12.29,226.41c-3.24,0-2.28,7.38,0,7.42S15.52,226.39,12.29,226.41Z"/><path class="cls-7" d="M59.69,207.69c-3,0-2.11,6.82,0,6.86S62.68,207.67,59.69,207.69Z"/><path class="cls-11" d="M233.4,205.59c-2.35,0-1.65,5.36,0,5.39S235.76,205.57,233.4,205.59Z"/><path class="cls-11" d="M265.71,204.44c-2.83,0-2,6.43,0,6.47S268.53,204.42,265.71,204.44Z"/><path class="cls-11" d="M215.53,206.28c-2.83,0-2,6.43,0,6.46S218.35,206.26,215.53,206.28Z"/><path class="cls-12" d="M-14.17,259.66V662.17H662.17V283.66C510.23,220.8,155.69,199.35-14.17,259.66Z"/><path class="cls-13" d="M662.17,618.57C616,626.16,517.79,579.94,516,547.44c-2.13-39,61.48-23.34,56-64s-150.53-48.66-150.53-96.39c0-53.26,157-46.33,165.89-93.92,1.94-10.47-.6-22.53-7.89-35.29,31.39,7.54,59.41,16.19,82.68,25.82Z"/><path class="cls-14" d="M304.32,224.53c38.07,18.72,56,47.6,45,86.93-13.35,48-97.33,69.31-116,114.65-14.28,34.73,73.23,34.87,98.66,76,28,45.35-50.53,69.09-55.12,94.64-4.64,25.79,17.68,47,43.23,65.4H264.82c-23.61-16-49.23-38.1-47.46-57.4,3-32.65,53.69-41.84,50.66-69.31-4.47-40.47-121.38-42.71-122.66-81.33-1.27-38.44,101.77-82.72,88-138.69C219.88,260.62,114.17,249,68.91,238.68,138.24,226.5,221.06,222.23,304.32,224.53Z"/><path class="cls-15" d="M662.17,587.27c-29.55,6.37-90-25.44-91.18-52.76-1.37-32.74,42.34-23.35,38.83-57.51s-101.66-44.19-101.66-84.3c0-44.77,100.49-38.94,106.15-78.93,2.08-14.72-3.87-33.19-18.62-51.86,24.87,6.53,47.29,13.81,66.48,21.75Z"/><path class="cls-15" d="M-14.17,424.42c38,12.2,83.05,13.15,87.93,34.06,7.67,32.93-62.39,33.39-58.35,69.78S125.59,557,132,587.18c5.75,27.28-38.24,19-40.2,42.29-1.16,13.88,11.43,24.47,28.94,32.7H-14.17Z"/><path class="cls-15" d="M64,327.55l.7-.43,4.3-2.48,2.38-10.87-7.81.69-.29-1.55,8.4-.69a4.66,4.66,0,0,0-2.37-2c-2.19-.42-10.68-.56-13.72.23a6.63,6.63,0,0,0-2.78,3.28l8.51-.7.29,1.56-9.14.82c-.66,4.46,3,10.69,8.66,13.73L64,327.53Z"/><path class="cls-16" d="M66.93,287.49l3.34,16.82-19-.93c-1.05-6.93,2.06-17,7.41-22.3Z"/><polygon class="cls-5" points="61.69 283.38 60.18 308.49 62.12 308.95 62.61 284.29 61.69 283.38"/><path class="cls-5" d="M70.72,306.71l-19-.73a10.27,10.27,0,0,0,3.07,4.88c3.11,1,11.55,0,13.7-.87A6.28,6.28,0,0,0,70.72,306.71Z"/><path class="cls-15" d="M88.77,294.91l.62-.38,3.77-2.18,2.09-9.55-6.85.61-.26-1.36,7.38-.61a4.05,4.05,0,0,0-2.08-1.72c-1.93-.37-9.38-.5-12,.2a5.89,5.89,0,0,0-2.45,2.88l7.48-.61.25,1.37-8,.71c-.57,3.92,2.66,9.39,7.61,12.07l2.52-1.46Z"/><path class="cls-17" d="M91.37,259.72,94.3,274.5l-16.69-.82c-.92-6.09,1.81-14.95,6.51-19.59Z"/><polygon class="cls-5" points="86.76 256.11 85.44 278.16 87.14 278.57 87.57 256.91 86.76 256.11"/><path class="cls-5" d="M94.69,276.59,78,276a9,9,0,0,0,2.7,4.28c2.73.86,10.14,0,12-.76A5.43,5.43,0,0,0,94.69,276.59Z"/><path class="cls-18" d="M442,248.77c-15.48-1.79-48.11-4.06-59.25,1.71s14.67,7.54,16,15.18c1.17,6.47-35.43,1.78-37.1,9.76s53.47,10.57,55.62,17.19-13.6,3.64-12.66,8.1c1.49,7.11,59.68,12.21,67.19,7.65s-12.76-9.12-23.87-14.75c-7.12-3.61,5.06-4.86,22.78-2.88,13.25,1.48,30.94,4,30.85-3.83-.09-8.57-50-11.83-44.69-16.06s27.46,1.69,27.76-5.64C484.93,258.31,462,251.07,442,248.77Z"/><path class="cls-19" d="M433.22,255.94c-7.69-.8-25.32-1.22-25.19,2.6s15.77,3.87,15.51,8.86c-.39,7.68-28.13,3.51-29.05,8.84s31.21,7.48,40,8.3c14,1.29,30.45,3.15,30.5-2.06.06-5.69-26.34-4.41-25.32-12.05.79-6,15.09-2.63,15.33-7.5C455.23,258.35,443.15,257,433.22,255.94Z"/><path class="cls-20" d="M433,299.55c-.27,3.89,24.51,5.92,25.28,3S433.28,295.66,433,299.55Z"/><path class="cls-20" d="M458.38,261.13c-.67,3.14,11.33,4.5,12.11,2.11S459.06,258,458.38,261.13Z"/><path class="cls-18" d="M380.23,303.93c-.63,8.82,39.41,11,40.79,4.29S380.86,295.11,380.23,303.93Z"/><path class="cls-20" d="M395.29,305.57c-.23,3.21,13.85,3.93,14.34,1.48S395.52,302.36,395.29,305.57Z"/><path class="cls-20" d="M422.1,291.07c-.22,3.2,9.25,3.24,9.64.78S422.33,287.86,422.1,291.07Z"/><path class="cls-18" d="M411,319c-.76,8.8,34.69,11,36.07,4.29S411.81,310.16,411,319Z"/><path class="cls-20" d="M416.59,319.15c-.36,5.11,19.28,5.85,20,1.94S417,314,416.59,319.15Z"/><path class="cls-18" d="M399.61,316.82c-6-.95-24.12-2.32-25.34,2s3.7,5,9.33,8c-8.68,1.82-16.53,1.2-17.64,7.58s17.7,10.62,29.68,12.85c10.86,2,34,3.8,34.37-2.43.45-6.8-7-9-15.82-11.68,3.76-2.1,9.27-2.55,8.71-8.46C422.64,322,407.33,318.06,399.61,316.82Z"/><path class="cls-20" d="M401.43,321.39c-5.22-.81-17.25-1.72-17.3.87s10.63,3.18,10.28,6.55c-.55,5.18-19.34,1.37-20.16,4.95s21,6.18,27,7c9.51,1.38,20.68,3.22,20.9-.31.24-3.84-17.83-3.92-16.86-9.05.76-4,10.4-1.25,10.74-4.54C416.37,323.81,408.17,322.44,401.43,321.39Z"/><path class="cls-18" d="M452.87,316.42c-.27,3.84,14.47,4.39,15,1.46S453.14,312.59,452.87,316.42Z"/><path class="cls-15" d="M8.93,304.32l.65-.41,4-2.31,2.21-10.13-7.27.65-.27-1.45,7.83-.64a4.24,4.24,0,0,0-2.21-1.82c-2-.4-10-.53-12.79.21a6.22,6.22,0,0,0-2.59,3.05l7.93-.65.27,1.46-8.52.75c-.61,4.16,2.82,10,8.08,12.81l2.67-1.55Z"/><path class="cls-21" d="M11.68,267l3.11,15.67-17.7-.87C-3.89,275.33-1,265.93,4,261Z"/><polygon class="cls-5" points="6.79 263.15 5.39 286.55 7.19 286.98 7.65 264.01 6.79 263.15"/><path class="cls-5" d="M15.21,284.89l-17.67-.68a9.57,9.57,0,0,0,2.87,4.55c2.89.91,10.76,0,12.76-.81A5.81,5.81,0,0,0,15.21,284.89Z"/><path class="cls-22" d="M501.69,50A50.29,50.29,0,1,0,552,100.26,50.27,50.27,0,0,0,501.69,50Z"/><path class="cls-23" d="M545.53,97.72A45.54,45.54,0,1,0,500,143.25,45.54,45.54,0,0,0,545.53,97.72Z"/><path class="cls-24" d="M519.71,70.74a4.52,4.52,0,1,0,4.51,4.52A4.52,4.52,0,0,0,519.71,70.74Z"/><path class="cls-25" d="M474,115.3a4.44,4.44,0,1,0,4.43,4.44A4.44,4.44,0,0,0,474,115.3Z"/><path class="cls-25" d="M471.93,82.92a1.69,1.69,0,1,0,1.69,1.69A1.7,1.7,0,0,0,471.93,82.92Z"/><path class="cls-24" d="M498.19,64.24a7.66,7.66,0,1,0,7.65,7.65A7.65,7.65,0,0,0,498.19,64.24Z"/><path class="cls-26" d="M492.15,131.77a3.4,3.4,0,1,0,3.4,3.4A3.4,3.4,0,0,0,492.15,131.77Z"/><path class="cls-25" d="M522,121.21a5.54,5.54,0,1,0,5.54,5.54A5.54,5.54,0,0,0,522,121.21Z"/><path class="cls-25" d="M536.61,107.7a3.4,3.4,0,1,0,3.4,3.39A3.39,3.39,0,0,0,536.61,107.7Z"/><path class="cls-27" d="M533.18,90a2.61,2.61,0,1,0,2.6,2.6A2.61,2.61,0,0,0,533.18,90Z"/><path class="cls-28" d="M459.25,108.77c2.3-37.8,23.63-53,60.6-49.06-8.48-4.54-29.7-8.64-47.73,5.92C455.14,79.35,457,104.29,459.25,108.77Z"/><path class="cls-29" d="M472.91,131.22a1,1,0,0,0-1-1.62,1,1,0,1,0,1,1.62Z"/><path class="cls-24" d="M494.72,106.86c-3.62-.93-6.31,1.19-6.3,3.36,0,2,2.13,4.07,5.2,3.63-1.92-.93-3-2.16-2.9-3.65C490.79,108.34,492.16,107.29,494.72,106.86Z"/><path class="cls-24" d="M490.76,118.3c3.16,2.76,13.58.42,15.56-3.5C507.23,121.47,492.41,124.08,490.76,118.3Z"/><path class="cls-24" d="M518.54,101.29c-2-10.69-12.79-11.12-11.79-.91C508.93,96.65,515.89,95.53,518.54,101.29Z"/><path class="cls-30" d="M509.34,97.32c-1.71,0-3.21-1-2.84-2.74a2.92,2.92,0,0,0,.6,5Z"/><path class="cls-30" d="M518.54,101.29c-1.81-6.35-11.42-7.37-11.79-.91C508.76,98.62,514.89,98,518.54,101.29Z"/><path class="cls-24" d="M484.4,105.41c-3.81-9.93-13.47-7.64-10.63,2.07C475,103.3,480.94,100.46,484.4,105.41Z"/><path class="cls-30" d="M475.48,103.85c-1.53.39-3.05-.23-3-2a3,3,0,0,0,1.48,4.69Z"/><path class="cls-30" d="M484.4,105.41c-2.82-5.74-11.54-4.32-10.63,2.07C475.21,105.25,480.53,103.14,484.4,105.41Z"/><polygon class="cls-31" points="240.53 122.79 241.03 115.83 247.31 118.88 241.53 114.96 247.31 111.05 241.03 114.1 240.53 107.13 240.03 114.1 233.75 111.05 239.53 114.96 233.75 118.88 240.03 115.83 240.53 122.79"/><polygon class="cls-31" points="257.41 80.73 256.71 71.02 247.96 75.27 256.01 69.81 247.96 64.35 256.71 68.6 257.41 58.9 258.11 68.6 266.86 64.35 258.81 69.81 266.86 75.27 258.11 71.02 257.41 80.73"/><path class="cls-31" d="M257.22,177.16a2.27,2.27,0,1,1-2.26,2.27A2.27,2.27,0,0,1,257.22,177.16Z"/><path class="cls-31" d="M222.12,108a1.12,1.12,0,1,1-1.13,1.1A1.12,1.12,0,0,1,222.12,108Z"/><path class="cls-31" d="M273.94,154.06a1,1,0,0,0,.33-1.43,1,1,0,0,0-1.43-.33,1,1,0,1,0,1.1,1.76Z"/><path class="cls-31" d="M276.27,176.83a1,1,0,0,0,.33-1.43,1,1,0,1,0-1.76,1.1A1,1,0,0,0,276.27,176.83Z"/><path class="cls-31" d="M269.36,165.19a1.3,1.3,0,1,0-1.79-.42A1.3,1.3,0,0,0,269.36,165.19Z"/><polygon class="cls-31" points="154.92 59.93 154.22 50.24 145.49 54.48 153.53 49.03 145.49 43.59 154.22 47.83 154.92 38.14 155.62 47.83 164.35 43.59 156.31 49.03 164.35 54.48 155.62 50.24 154.92 59.93"/><path class="cls-31" d="M204.55,55.62a1.51,1.51,0,1,1-1.5,1.51A1.5,1.5,0,0,1,204.55,55.62Z"/><path class="cls-31" d="M227.41,138.18a1.27,1.27,0,1,1-1.27,1.27A1.27,1.27,0,0,1,227.41,138.18Z"/><path class="cls-31" d="M201.29,66.92a1,1,0,0,0,.33-1.43,1,1,0,0,0-1.76,1.1A1,1,0,0,0,201.29,66.92Z"/><path class="cls-31" d="M270,105.43a1,1,0,1,1-1,1A1,1,0,0,1,270,105.43Z"/><path class="cls-31" d="M249,112.09a.87.87,0,1,1-.87.87A.87.87,0,0,1,249,112.09Z"/><path class="cls-31" d="M259,106.93a.87.87,0,1,1-1.2.28A.86.86,0,0,1,259,106.93Z"/><path class="cls-31" d="M255.09,103.53a.7.7,0,1,1-.7.7A.7.7,0,0,1,255.09,103.53Z"/><path class="cls-31" d="M259.09,96.15a1.3,1.3,0,1,1-1.3,1.3A1.3,1.3,0,0,1,259.09,96.15Z"/><path class="cls-31" d="M255.31,117.69a1.3,1.3,0,1,1,1.8-.38A1.3,1.3,0,0,1,255.31,117.69Z"/><path class="cls-31" d="M214.12,67.89a1,1,0,1,1,1.43-.33A1,1,0,0,1,214.12,67.89Z"/><circle class="cls-31" cx="227.96" cy="114.74" r="2.47"/><circle class="cls-31" cx="150.21" cy="185.58" r="1.07"/><path class="cls-31" d="M256.55,147.26a1,1,0,1,1,1.1-1.76,1,1,0,0,1-1.1,1.76Z"/><path class="cls-31" d="M175.68,83.7a1.3,1.3,0,1,1-1.3,1.3A1.3,1.3,0,0,1,175.68,83.7Z"/><path class="cls-31" d="M216,117.61a1,1,0,1,1,1.1-1.76,1,1,0,1,1-1.1,1.76Z"/><path class="cls-31" d="M264.89,142.69a2,2,0,1,1-2,2A2,2,0,0,1,264.89,142.69Z"/><path class="cls-31" d="M246.9,94a3.09,3.09,0,1,1-4.25,1A3.1,3.1,0,0,1,246.9,94Z"/><polygon class="cls-31" points="258.86 176.07 259.49 167.32 267.38 171.15 260.12 166.23 267.38 161.31 259.49 165.14 258.86 156.38 258.23 165.14 250.33 161.31 257.6 166.23 250.33 171.15 258.23 167.32 258.86 176.07"/><polygon class="cls-31" points="96.72 58.87 97.42 49.16 106.17 53.41 98.12 47.95 106.17 42.49 97.42 46.74 96.72 37.03 96.02 46.74 87.27 42.49 95.32 47.95 87.27 53.41 96.02 49.16 96.72 58.87"/><path class="cls-31" d="M236.61,149.43a1.15,1.15,0,1,0,1.17,1.13A1.15,1.15,0,0,0,236.61,149.43Z"/><path class="cls-31" d="M221.1,67.47a1,1,0,1,0,1,1A1,1,0,0,0,221.1,67.47Z"/><path class="cls-31" d="M226.18,153.93a1,1,0,0,0,.3-1.39,1,1,0,1,0-.3,1.39Z"/><path class="cls-31" d="M222.41,148.24a.8.8,0,0,0-.79.82.81.81,0,0,0,.82.79.82.82,0,0,0,.8-.82A.81.81,0,0,0,222.41,148.24Z"/><path class="cls-31" d="M224,155.51a1.18,1.18,0,0,0-1.15,1.19,1.17,1.17,0,1,0,1.15-1.19Z"/><path class="cls-31" d="M241.43,152.86a1.61,1.61,0,1,1-1.61,1.61A1.61,1.61,0,0,1,241.43,152.86Z"/><path class="cls-31" d="M250.77,135.23A1.77,1.77,0,1,1,249,137,1.77,1.77,0,0,1,250.77,135.23Z"/><path class="cls-31" d="M276.32,97.93a1.59,1.59,0,1,0,2.19.5A1.59,1.59,0,0,0,276.32,97.93Z"/><circle class="cls-31" cx="271.89" cy="138.62" r="1.41"/><path class="cls-31" d="M259.71,126.62a1.62,1.62,0,1,1-1.62,1.62A1.63,1.63,0,0,1,259.71,126.62Z"/><path class="cls-31" d="M241,134a.86.86,0,1,0,.87.85A.87.87,0,0,0,241,134Z"/><path class="cls-31" d="M216.89,154.45a1.12,1.12,0,1,0,1.14,1.1A1.12,1.12,0,0,0,216.89,154.45Z"/><path class="cls-31" d="M218.67,55.47A1.65,1.65,0,1,1,217,57.12,1.65,1.65,0,0,1,218.67,55.47Z"/><path class="cls-31" d="M218.64,82.21a2.08,2.08,0,1,1-2.07,2.08A2.08,2.08,0,0,1,218.64,82.21Z"/><path class="cls-31" d="M184,85.72a1,1,0,0,1-.33-1.43,1,1,0,0,1,1.77,1.1A1,1,0,0,1,184,85.72Z"/><path class="cls-31" d="M189.79,73.22a1,1,0,1,1,1.43-.34A1,1,0,0,1,189.79,73.22Z"/><path class="cls-31" d="M210.81,86.83a1.3,1.3,0,1,1,1.79-.42A1.3,1.3,0,0,1,210.81,86.83Z"/><polygon class="cls-31" points="180.96 56.99 181.47 49.87 187.9 52.99 181.99 48.98 187.9 44.98 181.47 48.09 180.96 40.98 180.45 48.09 174.03 44.98 179.94 48.98 174.03 52.99 180.45 49.87 180.96 56.99"/><polygon class="cls-31" points="194.7 104.15 195.08 98.89 199.83 101.19 195.46 98.23 199.83 95.27 195.08 97.57 194.7 92.31 194.32 97.57 189.58 95.27 193.94 98.23 189.58 101.19 194.32 98.89 194.7 104.15"/><path class="cls-31" d="M160.48,78.64a1.16,1.16,0,1,1-1.16,1.15A1.16,1.16,0,0,1,160.48,78.64Z"/><path class="cls-31" d="M183.46,90.57a1,1,0,1,1-1,1A1,1,0,0,1,183.46,90.57Z"/><path class="cls-31" d="M167.23,88.48a.61.61,0,1,0,.83.2A.6.6,0,0,0,167.23,88.48Z"/><path class="cls-31" d="M181.21,73.34a.81.81,0,1,1-.81.8A.8.8,0,0,1,181.21,73.34Z"/><path class="cls-31" d="M179.5,68.47a1.51,1.51,0,0,1,0,3,1.51,1.51,0,1,1,0-3Z"/><path class="cls-31" d="M160.32,168.45a1.19,1.19,0,1,1-1.19,1.18A1.18,1.18,0,0,1,160.32,168.45Z"/><path class="cls-31" d="M233.37,157.81a1,1,0,0,1,0,2,1,1,0,1,1,0-2Z"/><path class="cls-31" d="M252.22,158.88a.7.7,0,1,1-.69.69A.69.69,0,0,1,252.22,158.88Z"/><path class="cls-31" d="M256.13,151.5a1.3,1.3,0,1,1-1.3,1.29A1.3,1.3,0,0,1,256.13,151.5Z"/><path class="cls-31" d="M197.47,83.61a2,2,0,1,1-2,2A2,2,0,0,1,197.47,83.61Z"/><path class="cls-31" d="M220.83,131.78a1.3,1.3,0,1,0,0,2.59,1.3,1.3,0,1,0,0-2.59Z"/><path class="cls-31" d="M233.9,124.87a1,1,0,1,0,1,1A1,1,0,0,0,233.9,124.87Z"/><polygon class="cls-31" points="43.59 57.42 44.2 48.95 51.84 52.66 44.81 47.9 51.84 43.14 44.2 46.84 43.59 38.38 42.98 46.84 35.35 43.14 42.37 47.9 35.35 52.66 42.98 48.95 43.59 57.42"/><path class="cls-31" d="M218.64,181.79a1.3,1.3,0,1,0-1.79-.42A1.3,1.3,0,0,0,218.64,181.79Z"/><path class="cls-31" d="M213.65,118a1.77,1.77,0,1,0,2.43.56A1.77,1.77,0,0,0,213.65,118Z"/><path class="cls-31" d="M170.24,79.19a.51.51,0,0,1,.53-.86.51.51,0,0,1-.53.86Z"/><path class="cls-31" d="M221.25,121.49a.5.5,0,1,1,.7-.16A.51.51,0,0,1,221.25,121.49Z"/><path class="cls-31" d="M180.11,86.46A1.09,1.09,0,1,1,179,87.55,1.09,1.09,0,0,1,180.11,86.46Z"/><path class="cls-31" d="M144.23,52.78a1.77,1.77,0,1,1-1.76,1.77A1.77,1.77,0,0,1,144.23,52.78Z"/><path class="cls-31" d="M138.6,61.94a1.77,1.77,0,1,1-2.43.56A1.78,1.78,0,0,1,138.6,61.94Z"/><path class="cls-31" d="M121.14,62a2.36,2.36,0,1,1-2.35,2.36A2.36,2.36,0,0,1,121.14,62Z"/><path class="cls-31" d="M153.61,66.2a1.15,1.15,0,1,1-1.16,1.15A1.15,1.15,0,0,1,153.61,66.2Z"/><path class="cls-31" d="M125.57,48.39a1,1,0,1,1-1.39.32A1,1,0,0,1,125.57,48.39Z"/><path class="cls-31" d="M130.84,59.34a.81.81,0,1,1-.81.81A.8.8,0,0,1,130.84,59.34Z"/><path class="cls-31" d="M127.25,22.83a1,1,0,0,0-1.1-1.76,1,1,0,0,0,1.1,1.76Z"/><path class="cls-31" d="M130.58,46.8a1.3,1.3,0,1,0-1.79-.41A1.3,1.3,0,0,0,130.58,46.8Z"/><path class="cls-31" d="M149.8,10.2a1.3,1.3,0,1,1,1.79-.41A1.3,1.3,0,0,1,149.8,10.2Z"/><circle class="cls-31" cx="157.41" cy="57.75" r="2.47"/><path class="cls-31" d="M210,40.61a1,1,0,0,1-.33-1.43,1,1,0,1,1,.33,1.43Z"/><path class="cls-31" d="M143.48,36.09a1.3,1.3,0,1,1,1.79-.41A1.3,1.3,0,0,1,143.48,36.09Z"/><path class="cls-31" d="M150,48.54a1,1,0,1,1,1.43-.33A1,1,0,0,1,150,48.54Z"/><path class="cls-31" d="M158.19,37.68a1,1,0,0,1,1.1-1.76,1,1,0,1,1-1.1,1.76Z"/><path class="cls-31" d="M169.84,59.9a1.3,1.3,0,1,1,1.38-2.2,1.3,1.3,0,0,1-1.38,2.2Z"/><path class="cls-31" d="M169.38,29.93a1,1,0,0,0,.33-1.43,1,1,0,0,0-1.77,1.1A1,1,0,0,0,169.38,29.93Z"/><polygon class="cls-31" points="80.02 33.98 80.52 27.02 86.8 30.07 81.02 26.15 86.8 22.23 80.52 25.28 80.02 18.32 79.52 25.28 73.24 22.23 79.02 26.15 73.24 30.07 79.52 27.02 80.02 33.98"/><path class="cls-31" d="M118.2,44.44a1.27,1.27,0,1,1-1.26,1.27A1.27,1.27,0,0,1,118.2,44.44Z"/><path class="cls-31" d="M109.47,16.61a1,1,0,1,1,0,2,1,1,0,0,1,0-2Z"/><path class="cls-31" d="M88.43,23.28a.87.87,0,1,1-.87.87A.87.87,0,0,1,88.43,23.28Z"/><path class="cls-31" d="M98.52,18.12a.87.87,0,1,1-.92,1.47.87.87,0,1,1,.92-1.47Z"/><path class="cls-31" d="M94.57,14.72a.7.7,0,1,1-.69.69A.69.69,0,0,1,94.57,14.72Z"/><path class="cls-31" d="M98.57,7.34a1.3,1.3,0,1,1-1.3,1.29A1.3,1.3,0,0,1,98.57,7.34Z"/><path class="cls-31" d="M94.8,28.88a1.31,1.31,0,0,1-.39-1.8,1.3,1.3,0,0,1,2.19,1.41A1.31,1.31,0,0,1,94.8,28.88Z"/><path class="cls-31" d="M67.45,23.46A2.47,2.47,0,1,1,65,25.93,2.47,2.47,0,0,1,67.45,23.46Z"/><path class="cls-31" d="M86.39,5.15a3.09,3.09,0,1,1-4.26,1A3.1,3.1,0,0,1,86.39,5.15Z"/><path class="cls-31" d="M90.25,46.41a1.77,1.77,0,1,1-1.76,1.77A1.77,1.77,0,0,1,90.25,46.41Z"/><path class="cls-31" d="M115.8,9.11a1.59,1.59,0,1,0,2.19.51A1.6,1.6,0,0,0,115.8,9.11Z"/><circle class="cls-31" cx="111.38" cy="49.8" r="1.41"/><path class="cls-31" d="M99.19,37.81a1.62,1.62,0,1,1-1.62,1.62A1.62,1.62,0,0,1,99.19,37.81Z"/><path class="cls-31" d="M80.46,45.15a.86.86,0,1,0,.87.84A.85.85,0,0,0,80.46,45.15Z"/><path class="cls-31" d="M73.38,36.05a1,1,0,1,0,1.06,1A1,1,0,0,0,73.38,36.05Z"/><path class="cls-31" d="M154.55,75.62a1.51,1.51,0,1,1-1.5,1.51A1.5,1.5,0,0,1,154.55,75.62Z"/><path class="cls-31" d="M151.29,86.92a1,1,0,0,0,.33-1.43,1,1,0,0,0-1.76,1.1A1,1,0,0,0,151.29,86.92Z"/><path class="cls-31" d="M164.12,87.89a1,1,0,1,1,1.43-.33A1,1,0,0,1,164.12,87.89Z"/><path class="cls-31" d="M125.68,103.7a1.3,1.3,0,1,1-1.3,1.3A1.3,1.3,0,0,1,125.68,103.7Z"/><path class="cls-31" d="M171.1,87.47a1,1,0,1,0,1,1A1,1,0,0,0,171.1,87.47Z"/><path class="cls-31" d="M168.67,75.47A1.65,1.65,0,1,1,167,77.12,1.65,1.65,0,0,1,168.67,75.47Z"/><path class="cls-31" d="M307.07,122a2.08,2.08,0,1,1-2.08,2.08A2.08,2.08,0,0,1,307.07,122Z"/><path class="cls-31" d="M134,105.72a1,1,0,0,1-.33-1.43,1,1,0,0,1,1.77,1.1A1,1,0,0,1,134,105.72Z"/><path class="cls-31" d="M139.79,93.22a1,1,0,1,1,1.43-.34A1,1,0,0,1,139.79,93.22Z"/><path class="cls-31" d="M160.81,106.83a1.3,1.3,0,1,1,1.79-.42A1.3,1.3,0,0,1,160.81,106.83Z"/><polygon class="cls-31" points="130.96 76.99 131.47 69.87 137.9 72.99 131.99 68.98 137.9 64.98 131.47 68.09 130.96 60.98 130.45 68.09 124.03 64.98 129.94 68.98 124.03 72.99 130.45 69.87 130.96 76.99"/><path class="cls-31" d="M103.46,80.57a1,1,0,1,1-1,1A1,1,0,0,1,103.46,80.57Z"/><path class="cls-31" d="M87.23,78.48a.61.61,0,1,0,.83.2A.6.6,0,0,0,87.23,78.48Z"/><path class="cls-31" d="M131.21,93.34a.81.81,0,1,1-.81.8A.8.8,0,0,1,131.21,93.34Z"/><path class="cls-31" d="M129.5,88.47a1.51,1.51,0,0,1,0,3,1.51,1.51,0,1,1,0-3Z"/><path class="cls-31" d="M242.39,177.34a2,2,0,1,1-2,2A2,2,0,0,1,242.39,177.34Z"/><polygon class="cls-31" points="213.97 110.69 214.58 102.22 222.21 105.93 215.19 101.17 222.21 96.4 214.58 100.11 213.97 91.64 213.36 100.11 205.72 96.4 212.75 101.17 205.72 105.93 213.36 102.22 213.97 110.69"/><path class="cls-31" d="M115.1,93.83a1.77,1.77,0,1,0,2.44.56A1.77,1.77,0,0,0,115.1,93.83Z"/><path class="cls-31" d="M120.24,99.19a.51.51,0,0,1,.53-.86.51.51,0,0,1-.53.86Z"/><path class="cls-31" d="M100.11,76.46A1.09,1.09,0,1,1,99,77.55,1.09,1.09,0,0,1,100.11,76.46Z"/><path class="cls-31" d="M160,60.61a1,1,0,0,1-.33-1.43,1,1,0,1,1,.33,1.43Z"/><path class="cls-31" d="M119.84,79.9a1.3,1.3,0,1,1,1.38-2.2,1.3,1.3,0,0,1-1.38,2.2Z"/><path class="cls-31" d="M119.38,49.93a1,1,0,0,0,.33-1.43,1,1,0,0,0-1.77,1.1A1,1,0,0,0,119.38,49.93Z"/><path class="cls-31" d="M43.94,34.06a1,1,0,0,0,.33-1.43,1,1,0,0,0-1.43-.33,1,1,0,0,0,1.1,1.76Z"/><path class="cls-31" d="M51.51,28.9a1,1,0,0,0,.33-1.43,1,1,0,0,0-1.76,1.1A1,1,0,0,0,51.51,28.9Z"/><path class="cls-31" d="M48.72,13.26a1.27,1.27,0,1,1-1.27,1.27A1.27,1.27,0,0,1,48.72,13.26Z"/><path class="cls-31" d="M19.41,25.45a2,2,0,1,1-2,2A2,2,0,0,1,19.41,25.45Z"/><circle class="cls-31" cx="41.89" cy="18.62" r="1.41"/><path class="cls-31" d="M63.5,45.81a3.1,3.1,0,1,1-4.26,1A3.1,3.1,0,0,1,63.5,45.81Z"/><polygon class="cls-31" points="27.93 21.1 28.43 14.14 34.72 17.19 28.93 13.27 34.72 9.36 28.43 12.4 27.93 5.44 27.43 12.4 21.15 9.36 26.93 13.27 21.15 17.19 27.43 14.14 27.93 21.1"/><path class="cls-31" d="M102.79,55.24a3.09,3.09,0,1,1-4.26,1A3.1,3.1,0,0,1,102.79,55.24Z"/><polygon class="cls-31" points="302.03 170.67 301.33 160.96 292.58 165.21 300.63 159.75 292.58 154.29 301.33 158.54 302.03 148.84 302.73 158.54 311.48 154.29 303.43 159.75 311.48 165.21 302.73 160.96 302.03 170.67"/><path class="cls-32" d="M382.4,575.81c-.67,22.26,115.28,30,120.32,1.57S383.07,553.54,382.4,575.81Z"/><path class="cls-33" d="M323.25,492.79c-18.18,11.53,4.3,34.5,37.63,29.06l-12.35-11.46Z"/><path class="cls-34" d="M323.5,496.79c-7.1,9.11,10.75,24.77,28.76,13.43C344.37,505.6,329.18,499.6,323.5,496.79Z"/><path class="cls-35" d="M329.76,511.91c3.34-3.53,8.57-5.44,14-6,3.17,1.49,6.14,3,8.47,4.34C343.9,515.48,335.57,514.93,329.76,511.91Z"/><path class="cls-36" d="M374.82,510.23c-7.33,14.42-19.74,17.19-33.36,14.87-5.66-1-11.95,1.61-5,10.72C343.7,545.35,370.19,562.5,397,548Z"/><path class="cls-33" d="M392.49,570.7c-2.36-30.11-31.69-34.93-43.86-59.15-13.33-1.36-42.78-21.65-40-30.17,3.43-10.4,13.42.3,28.91-13.34,19.65-47.14,112-48.36,143.41,8.34,18.11,32.74,20.1,58.59,14.07,92.53C487.67,595.51,398.31,595.36,392.49,570.7Z"/><path class="cls-33" d="M371.54,527c-3.9,15.7-15.36,21.2-29.16,22-5.72.33-11.28,4.26-2.47,11.58,9.21,7.66,42.71,16.23,65.54-4Z"/><path class="cls-37" d="M380.77,516.05c23.68-6.43,37.51,25.63,26.58,43.56C410.24,534,393.81,519.6,380.77,516.05Z"/><path class="cls-37" d="M349.82,489.28c.18-6.64,1.78-11.14,8.25-10.88,7,.27,9.74,4,8.95,11.46-.63,6-4.2,10.28-9.18,10C353.06,499.55,349.66,495.3,349.82,489.28Z"/><path class="cls-38" d="M356.89,476.79c5.83.29,6.81,5.16,7.13,9.29.46,6.06-3.51,11.63-9.22,10.32C347.6,494.75,348.45,476.37,356.89,476.79Z"/><path class="cls-38" d="M350,486.2c1.73-4.14,2.46-7.38,8-7.17,9.63.35,8.37,12.38,7.71,16.48,2.16-2.37,4.94-14.53-2.76-18.88C357.37,473.51,349.1,476.79,350,486.2Z"/><path class="cls-37" d="M356.18,482.56c3.56.48,2.85,7.5-.43,7.14C352.32,489.32,352.91,482.12,356.18,482.56Z"/><path class="cls-38" d="M352.88,478.16c-2,1.1-5.26,1.4-6.34.09-.64,2,2.65,4,4.18,3.46Z"/><path class="cls-38" d="M355.81,463c3.25-.5,8.09.42,10.67,3.57.24-2.72-2-4.61-4.38-5.13C359.07,460.81,357.45,461.48,355.81,463Z"/><path class="cls-39" d="M443.49,589C456.92,502.49,427,452,365,440.92c35.83-16.79,92.68-6.6,116,35.46,18.11,32.74,20.1,58.59,14.07,92.53C491.38,582.15,467.38,588.77,443.49,589Z"/><path class="cls-40" d="M483.41,581C496.6,524.75,471.2,456.66,422,445c-47.27-11.19-76.83,15.93-78.9,30.43-9.92,6.66-24.71,8-34.09,4.89,3.76-8.64,13.58.84,28.52-12.31,19.65-47.14,112-48.36,143.41,8.34l.4.72c16.53-.13,39.13,11.54,46.79,32.45,1.93,5.26-20.21.88-31.09,12.77,2,14.76,1,29.67-2,46.59C493.67,573.88,489.43,577.92,483.41,581Z"/><rect class="cls-41" x="591.31" y="591.31" width="70.87" height="70.87"/><circle class="cls-29" cx="635.5" cy="638.33" r="19.84" transform="translate(-199.98 974.93) rotate(-67.07)"/><path class="cls-29" d="M648.25,607.15a9.92,9.92,0,1,1-9.92,9.92A9.93,9.93,0,0,1,648.25,607.15Z"/><path class="cls-42" d="M633.65,635.16h-.88v-5.6a4.25,4.25,0,0,1-.83.6,5,5,0,0,1-.93.46v-.85a5,5,0,0,0,1.29-.84,3.45,3.45,0,0,0,.79-1h.56Z"/><path class="cls-42" d="M635.92,633.28l.92-.07a1.63,1.63,0,0,0,.48,1,1.25,1.25,0,0,0,.9.34,1.4,1.4,0,0,0,1.08-.48,1.81,1.81,0,0,0,.43-1.27,1.66,1.66,0,0,0-.41-1.18,1.48,1.48,0,0,0-1.11-.44,1.52,1.52,0,0,0-.77.2,1.5,1.5,0,0,0-.53.5l-.83-.12.69-3.68h3.55v.84h-2.85l-.38,1.93a2.32,2.32,0,0,1,1.35-.45,2.16,2.16,0,0,1,1.58.65,2.26,2.26,0,0,1,.64,1.67,2.64,2.64,0,0,1-.56,1.68,2.51,2.51,0,0,1-3.47.32A2.15,2.15,0,0,1,635.92,633.28Z"/><path class="cls-43" d="M71.4,384.62h1.12v3.81H71.4Zm-2.11,0h1.13v3.81H69.29Z"/><rect x="75.68" y="383.74" width="1.4" height="10.7"/><path class="cls-43" d="M85.15,394.44l-2.74-7.34h1.35l1.63,4.65.06.22c0,.08,0,.16.08.26l.06.28c0,.1,0,.2.08.3l0-.14s0-.09,0-.14a1,1,0,0,0,0-.12l0-.13.06-.24.08-.21,1.57-4.73H88.8l1.58,4.66q0,.15.09.27a1.73,1.73,0,0,1,.08.27.19.19,0,0,1,0,.08l0,.08a.43.43,0,0,0,0,.05s0,0,0,0l0,.13,0,.13c0-.06,0-.13,0-.21a2.25,2.25,0,0,1,0-.22c0-.08,0-.16.07-.25l.1-.3,1.62-4.73h1.3l-2.73,7.34h-1l-1.82-5.31a.14.14,0,0,1,0-.07l0-.08,0-.09,0-.08,0-.18c0-.06,0-.12,0-.18a1.16,1.16,0,0,1,0,.18,1,1,0,0,1,0,.18l0,.16s0,.1,0,.15l-1.83,5.32Z"/><path class="cls-43" d="M95.07,394.44V387.1h1.32v7.34Zm-.21-9.8a.71.71,0,0,1,.07-.32.89.89,0,0,1,.19-.3,1,1,0,0,1,.3-.19.86.86,0,0,1,.68,0,.91.91,0,0,1,.29.19,1,1,0,0,1,.19.28,1,1,0,0,1,.06.35,1,1,0,0,1-.06.35.87.87,0,0,1-.19.28.85.85,0,0,1-.29.19,1,1,0,0,1-.34.06.93.93,0,0,1-.34-.06.72.72,0,0,1-.29-.2.86.86,0,0,1-.2-.28.8.8,0,0,1-.07-.34Z"/><rect x="98.61" y="383.83" width="1.27" height="10.61"/><rect x="102.1" y="383.83" width="1.27" height="10.61"/><path class="cls-43" d="M109.56,392.93v-4.74h-1V387.1h1v-1.79h1.32v1.79h1.24v1.09h-1.24v4.57a1.26,1.26,0,0,0,0,.3,1.29,1.29,0,0,0,.09.2.5.5,0,0,0,.19.11.9.9,0,0,0,.25,0h.68v1.23h-.74a3.49,3.49,0,0,1-.84-.09,1.39,1.39,0,0,1-.56-.27,1.2,1.2,0,0,1-.31-.53,2.6,2.6,0,0,1-.11-.79Z"/><path class="cls-43" d="M113.88,394.44V387.1h1.22v1a2.48,2.48,0,0,1,.37-.47,2.33,2.33,0,0,1,.44-.35,1.58,1.58,0,0,1,.52-.21,2.25,2.25,0,0,1,.6-.07h.43v1.32l-.18,0-.15,0h-.3a1.83,1.83,0,0,0-.73.13,1.21,1.21,0,0,0-.53.39,1.76,1.76,0,0,0-.31.66,3.57,3.57,0,0,0-.11.92v4.09Z"/><path class="cls-43" d="M122.14,393.42a2.61,2.61,0,0,0,1-.17,2.15,2.15,0,0,0,.81-.56,2.4,2.4,0,0,0,.55-.85,3.24,3.24,0,0,0,0-2.13,2.36,2.36,0,0,0-.55-.84,2.07,2.07,0,0,0-.81-.57,2.61,2.61,0,0,0-1-.19,2.53,2.53,0,0,0-1,.19,2.22,2.22,0,0,0-.81.57,2.36,2.36,0,0,0-.55.84,3.24,3.24,0,0,0,0,2.13,2.4,2.4,0,0,0,.55.85,2.32,2.32,0,0,0,.81.56,2.71,2.71,0,0,0,1,.18Zm3.78,1h-1.29v-1.19a3.46,3.46,0,0,1-.51.57,2.47,2.47,0,0,1-.62.41,2.53,2.53,0,0,1-.72.23,5.13,5.13,0,0,1-.81.06,6.33,6.33,0,0,1-.76,0,3.58,3.58,0,0,1-.71-.2,3.72,3.72,0,0,1-.65-.36,5.2,5.2,0,0,1-.58-.49,3.35,3.35,0,0,1-.44-.57,3.51,3.51,0,0,1-.33-.64,3.29,3.29,0,0,1-.19-.7,4.56,4.56,0,0,1-.06-.75,4.36,4.36,0,0,1,.25-1.54,3.29,3.29,0,0,1,.77-1.21,3.15,3.15,0,0,1,1.18-.79A4.29,4.29,0,0,1,122,387a3.59,3.59,0,0,1,.81.09,3.91,3.91,0,0,1,.75.26,3.27,3.27,0,0,1,.65.42,3,3,0,0,1,.53.59V387.1h1.21Z"/><path class="cls-43" d="M130.4,394.44l-3.24-7.34h1.42l2,5.07a.14.14,0,0,0,0,.06s0,0,0,.08l.14.41q.06.19.12.36l.1-.29.07-.23.06-.15c0-.05,0-.09,0-.13l2.11-5.18h1.37l-3.22,7.34Z"/><path class="cls-43" d="M136.71,390.15h4.88a2.52,2.52,0,0,0-.25-.82,2.28,2.28,0,0,0-.53-.67,2.31,2.31,0,0,0-.75-.45,2.75,2.75,0,0,0-.88-.14,2.62,2.62,0,0,0-.9.15,2.35,2.35,0,0,0-.76.45,2.17,2.17,0,0,0-.55.67,2.52,2.52,0,0,0-.26.83Zm0,1.05a2.28,2.28,0,0,0,.24.93,2.75,2.75,0,0,0,.55.73,2.6,2.6,0,0,0,.83.46,3,3,0,0,0,1,.17,3.1,3.1,0,0,0,.69-.08,3.07,3.07,0,0,0,.64-.23,3.56,3.56,0,0,0,.58-.37,5.2,5.2,0,0,0,.55-.51l.92.72a4.58,4.58,0,0,1-.73.73,3.56,3.56,0,0,1-1.69.78,5.34,5.34,0,0,1-1,.09,4.49,4.49,0,0,1-.83-.08,4.69,4.69,0,0,1-.78-.21,4.28,4.28,0,0,1-.7-.38,4.14,4.14,0,0,1-.6-.52,3.69,3.69,0,0,1-.4-.55,3.08,3.08,0,0,1-.31-.63,3.46,3.46,0,0,1-.19-.7,4.17,4.17,0,0,1-.06-.71,4.42,4.42,0,0,1,.26-1.59,3.55,3.55,0,0,1,.77-1.24,3.76,3.76,0,0,1,1.21-.82,4.18,4.18,0,0,1,1.54-.27,4.09,4.09,0,0,1,1.56.29,3.69,3.69,0,0,1,2,2.2,5.12,5.12,0,0,1,.26,1.71v.08Z"/><rect x="144.73" y="383.83" width="1.27" height="10.61"/><path class="cls-43" d="M155,385h-.07a3.42,3.42,0,0,0-.53.07.85.85,0,0,0-.33.17.75.75,0,0,0-.16.38,3.13,3.13,0,0,0-.06.67v.84H155v1.09H153.8v6.25h-1.34v-6.25h-1.11V387.1h1.11v-.81a3.84,3.84,0,0,1,.14-1.13,1.85,1.85,0,0,1,.43-.77,2,2,0,0,1,.77-.46,3.78,3.78,0,0,1,1.13-.17Z"/><path class="cls-43" d="M159.74,393.42a2.61,2.61,0,0,0,1-.17,2.15,2.15,0,0,0,.81-.56,2.27,2.27,0,0,0,.55-.85,3.24,3.24,0,0,0,0-2.13,2.23,2.23,0,0,0-.55-.84,2.07,2.07,0,0,0-.81-.57,2.61,2.61,0,0,0-1-.19,2.53,2.53,0,0,0-1,.19,2.22,2.22,0,0,0-.81.57,2.36,2.36,0,0,0-.55.84,3.24,3.24,0,0,0,0,2.13,2.4,2.4,0,0,0,.55.85,2.32,2.32,0,0,0,.81.56,2.71,2.71,0,0,0,1,.18Zm3.78,1h-1.29v-1.19a3.46,3.46,0,0,1-.51.57,2.47,2.47,0,0,1-.62.41,2.63,2.63,0,0,1-.72.23,5.13,5.13,0,0,1-.81.06,6.33,6.33,0,0,1-.76,0,3.58,3.58,0,0,1-.71-.2,3.72,3.72,0,0,1-.65-.36,5.2,5.2,0,0,1-.58-.49,3.35,3.35,0,0,1-.44-.57,3.51,3.51,0,0,1-.33-.64,4,4,0,0,1-.19-.7,4.56,4.56,0,0,1-.06-.75,4.36,4.36,0,0,1,.25-1.54,3.29,3.29,0,0,1,.77-1.21,3.23,3.23,0,0,1,1.18-.79,4.29,4.29,0,0,1,1.52-.26,3.59,3.59,0,0,1,.81.09,3.91,3.91,0,0,1,.75.26,3,3,0,0,1,1.18,1V387.1h1.21Z"/><path class="cls-43" d="M165.72,394.44V387.1h1.22v1a2.52,2.52,0,0,1,.38-.47,2.28,2.28,0,0,1,.43-.35,1.58,1.58,0,0,1,.52-.21,2.35,2.35,0,0,1,.6-.07h.44v1.32l-.19,0-.15,0h-.29a1.88,1.88,0,0,0-.74.13,1.18,1.18,0,0,0-.52.39,1.77,1.77,0,0,0-.32.66,3.6,3.6,0,0,0-.1.92v4.09Z"/><path class="cls-43" d="M177.86,393.42a2.61,2.61,0,0,0,1-.17,2.15,2.15,0,0,0,.81-.56,2.27,2.27,0,0,0,.55-.85,3.24,3.24,0,0,0,0-2.13,2.23,2.23,0,0,0-.55-.84,2.07,2.07,0,0,0-.81-.57,2.61,2.61,0,0,0-1-.19,2.49,2.49,0,0,0-1,.19,2.22,2.22,0,0,0-.81.57,2.36,2.36,0,0,0-.55.84,3.24,3.24,0,0,0,0,2.13,2.4,2.4,0,0,0,.55.85,2.32,2.32,0,0,0,.81.56,2.67,2.67,0,0,0,1,.18Zm3.78,1h-1.29v-1.19a3.46,3.46,0,0,1-.51.57,2.47,2.47,0,0,1-.62.41,2.63,2.63,0,0,1-.72.23,5.13,5.13,0,0,1-.81.06,6.33,6.33,0,0,1-.76,0,3.58,3.58,0,0,1-.71-.2,3.72,3.72,0,0,1-.65-.36,5.2,5.2,0,0,1-.58-.49,3.35,3.35,0,0,1-.44-.57,3.51,3.51,0,0,1-.33-.64,3.29,3.29,0,0,1-.19-.7,4.56,4.56,0,0,1-.06-.75,4.36,4.36,0,0,1,.25-1.54A3.29,3.29,0,0,1,175,388a3.15,3.15,0,0,1,1.18-.79,4.29,4.29,0,0,1,1.52-.26,3.53,3.53,0,0,1,1.55.35,2.84,2.84,0,0,1,.66.42,3,3,0,0,1,.53.59V387.1h1.21Z"/><path class="cls-43" d="M183.84,394.44V387.1h1.28v.84a3.21,3.21,0,0,1,.49-.42,2.92,2.92,0,0,1,.53-.31,2.81,2.81,0,0,1,.56-.18,2.4,2.4,0,0,1,.6-.07,2.75,2.75,0,0,1,1.13.22,2.34,2.34,0,0,1,.86.65,2.93,2.93,0,0,1,.54,1,4.58,4.58,0,0,1,.19,1.35v4.24h-1.29v-4.12a4.22,4.22,0,0,0-.11-1,2,2,0,0,0-.3-.69,1.21,1.21,0,0,0-.51-.41,1.83,1.83,0,0,0-.73-.13,2.25,2.25,0,0,0-.86.14,1.57,1.57,0,0,0-.61.43,2,2,0,0,0-.37.71,3.7,3.7,0,0,0-.12,1v4.06Z"/><path class="cls-43" d="M199.34,383.83v10.61h-1.19v-1.11a3,3,0,0,1-.58.55,4,4,0,0,1-.67.38,3.5,3.5,0,0,1-.74.2,5.36,5.36,0,0,1-.82.06,4.71,4.71,0,0,1-1.55-.24,3.37,3.37,0,0,1-1.21-.77,3.57,3.57,0,0,1-.79-1.21,4.4,4.4,0,0,1-.26-1.54,4.59,4.59,0,0,1,.06-.76,4,4,0,0,1,.19-.7,3.78,3.78,0,0,1,.33-.63,3.28,3.28,0,0,1,.44-.56,3.77,3.77,0,0,1,1.27-.84,4.05,4.05,0,0,1,.75-.23,3.87,3.87,0,0,1,.77-.08,4.12,4.12,0,0,1,.81.08,3.54,3.54,0,0,1,.74.23,2.57,2.57,0,0,1,.62.36,3.14,3.14,0,0,1,.51.52v-4.32Zm-3.85,4.25a2.87,2.87,0,0,0-1,.21,2.41,2.41,0,0,0-.83.55,2.44,2.44,0,0,0-.55.85,3,3,0,0,0-.18,1.05,3,3,0,0,0,.18,1.07,2.27,2.27,0,0,0,.55.85,2.3,2.3,0,0,0,.83.56,2.86,2.86,0,0,0,1,.18,3,3,0,0,0,1-.18,2.22,2.22,0,0,0,.83-.56,2.37,2.37,0,0,0,.54-.85,3,3,0,0,0,.18-1.07,3,3,0,0,0-.18-1.05,2.56,2.56,0,0,0-.54-.85,2.32,2.32,0,0,0-.83-.55,2.76,2.76,0,0,0-1-.19Z"/><path class="cls-43" d="M207.24,394.44l-2.75-7.34h1.36l1.62,4.65a1.87,1.87,0,0,0,.07.22c0,.08.05.16.08.26a1.4,1.4,0,0,0,.06.28c0,.1,0,.2.07.3l0-.14,0-.14,0-.12,0-.13a2.1,2.1,0,0,1,.06-.24,1.8,1.8,0,0,1,.08-.21l1.56-4.73h1.32l1.58,4.66q0,.15.09.27c0,.08.05.17.08.27a.19.19,0,0,1,0,.08s0,.06,0,.08l0,.05s0,0,0,0l0,.13,0,.13c0-.06,0-.13,0-.21a2.25,2.25,0,0,1,.05-.22c0-.08,0-.16.06-.25s.07-.19.1-.3l1.63-4.73H216l-2.73,7.34h-1l-1.82-5.31,0-.07,0-.08a.29.29,0,0,0,0-.09l0-.08a1.49,1.49,0,0,0,0-.18c0-.06,0-.12,0-.18s0,.12,0,.18a1,1,0,0,1,0,.18l0,.16a.88.88,0,0,0-.05.15l-1.84,5.32Z"/><path class="cls-43" d="M217.16,394.44V387.1h1.32v7.34Zm-.21-9.8a.87.87,0,0,1,.06-.32,1.37,1.37,0,0,1,.19-.3,1.25,1.25,0,0,1,.3-.19.84.84,0,0,1,.35-.07.8.8,0,0,1,.34.07.91.91,0,0,1,.29.19,1.26,1.26,0,0,1,.19.28,1,1,0,0,1,.06.35,1,1,0,0,1-.06.35,1.07,1.07,0,0,1-.19.28.89.89,0,0,1-.3.19.88.88,0,0,1-.33.06,1,1,0,0,1-.35-.06.76.76,0,0,1-.28-.2A.89.89,0,0,1,217,385a1,1,0,0,1-.06-.34Z"/><path class="cls-43" d="M227.93,383.83v10.61h-1.19v-1.11a3,3,0,0,1-.58.55,4.34,4.34,0,0,1-.66.38,3.59,3.59,0,0,1-.75.2,5.36,5.36,0,0,1-.82.06,4.65,4.65,0,0,1-1.54-.24,3.41,3.41,0,0,1-1.22-.77,3.54,3.54,0,0,1-.78-1.21,4.18,4.18,0,0,1-.27-1.54,4.59,4.59,0,0,1,.06-.76,4,4,0,0,1,.19-.7,6.25,6.25,0,0,1,.33-.63,3.39,3.39,0,0,1,1-1.05,3.65,3.65,0,0,1,.68-.35,3.92,3.92,0,0,1,1.51-.31,4.3,4.3,0,0,1,.82.08,3.65,3.65,0,0,1,.73.23,2.63,2.63,0,0,1,.63.36,3.14,3.14,0,0,1,.51.52v-4.32Zm-3.85,4.25a2.91,2.91,0,0,0-1,.21,2.41,2.41,0,0,0-.83.55,2.59,2.59,0,0,0-.55.85,3,3,0,0,0-.18,1.05,3,3,0,0,0,.18,1.07,2.4,2.4,0,0,0,.55.85,2.3,2.3,0,0,0,.83.56,2.9,2.9,0,0,0,1,.18,3,3,0,0,0,1-.18,2.22,2.22,0,0,0,.83-.56,2.37,2.37,0,0,0,.54-.85,2.83,2.83,0,0,0,.19-1.07,2.76,2.76,0,0,0-.19-1.05,2.56,2.56,0,0,0-.54-.85,2.32,2.32,0,0,0-.83-.55,2.76,2.76,0,0,0-1-.19Z"/><path class="cls-43" d="M230.86,390.15h4.89a2.52,2.52,0,0,0-.25-.82,2.16,2.16,0,0,0-.54-.67,2.26,2.26,0,0,0-.74-.45,2.75,2.75,0,0,0-.88-.14,2.57,2.57,0,0,0-.9.15,2.51,2.51,0,0,0-.77.45,2.28,2.28,0,0,0-.54.67,2.79,2.79,0,0,0-.27.83Zm0,1.05a2.45,2.45,0,0,0,.25.93,2.55,2.55,0,0,0,.55.73,2.5,2.5,0,0,0,.83.46,2.91,2.91,0,0,0,1,.17,3.13,3.13,0,0,0,.7-.08,2.8,2.8,0,0,0,.63-.23,3.25,3.25,0,0,0,.59-.37,5.2,5.2,0,0,0,.55-.51l.92.72a5,5,0,0,1-.73.73,3.56,3.56,0,0,1-1.69.78,5.42,5.42,0,0,1-1,.09,4.6,4.6,0,0,1-.84-.08,4.85,4.85,0,0,1-.77-.21,4.28,4.28,0,0,1-.7-.38,4.14,4.14,0,0,1-.6-.52,4.62,4.62,0,0,1-.41-.55,3.05,3.05,0,0,1-.3-.63,3.46,3.46,0,0,1-.19-.7,4.17,4.17,0,0,1-.07-.71,4.65,4.65,0,0,1,.26-1.59,3.72,3.72,0,0,1,.78-1.24,3.65,3.65,0,0,1,1.21-.82,4.43,4.43,0,0,1,3.1,0,3.69,3.69,0,0,1,2,2.2,5.38,5.38,0,0,1,.26,1.71v.08Z"/><path class="cls-43" d="M242.86,392.93v-4.74h-1V387.1h1v-1.79h1.31v1.79h1.25v1.09h-1.25v4.57a.87.87,0,0,0,0,.3.53.53,0,0,0,.09.2.54.54,0,0,0,.18.11,1,1,0,0,0,.25,0h.69v1.23h-.74a3.37,3.37,0,0,1-.84-.09,1.33,1.33,0,0,1-.56-.27,1.22,1.22,0,0,1-.32-.53,2.62,2.62,0,0,1-.1-.79Z"/><path class="cls-43" d="M250.38,393.49a2.17,2.17,0,0,0,1-.18,2.06,2.06,0,0,0,.76-.57,2.56,2.56,0,0,0,.5-.86,3.18,3.18,0,0,0,.17-1.1,3,3,0,0,0-.17-1.07,2.51,2.51,0,0,0-.5-.87,2.39,2.39,0,0,0-2.69-.58,2.37,2.37,0,0,0-.77.58,2.7,2.7,0,0,0-.5.87,3.52,3.52,0,0,0,0,2.16,2.56,2.56,0,0,0,.5.86,2.27,2.27,0,0,0,.79.58,2.24,2.24,0,0,0,.95.19Zm0-6.58a4.66,4.66,0,0,1,.77.08,4.44,4.44,0,0,1,.71.21,2.9,2.9,0,0,1,.65.35,3.7,3.7,0,0,1,.57.49,3.48,3.48,0,0,1,.46.57,4.09,4.09,0,0,1,.34.66,4.68,4.68,0,0,1,.21.73,4.92,4.92,0,0,1,.07.78,5,5,0,0,1-.07.79,4.79,4.79,0,0,1-.21.74,4.44,4.44,0,0,1-.34.65,3.62,3.62,0,0,1-.47.58,3.23,3.23,0,0,1-.58.47,3.28,3.28,0,0,1-.64.34,4.52,4.52,0,0,1-.72.2,3.67,3.67,0,0,1-.75.07,3.77,3.77,0,0,1-.76-.07,3.9,3.9,0,0,1-.71-.2,3.17,3.17,0,0,1-.66-.34,2.85,2.85,0,0,1-.57-.47,3.62,3.62,0,0,1-.47-.58,3.68,3.68,0,0,1-.35-.65,3.58,3.58,0,0,1-.2-.73,5.1,5.1,0,0,1-.06-.8,4.93,4.93,0,0,1,.06-.78,3.76,3.76,0,0,1,.2-.73,3.45,3.45,0,0,1,.35-.66,3.56,3.56,0,0,1,.47-.57,2.6,2.6,0,0,1,.57-.48,3.78,3.78,0,0,1,.66-.35,3.26,3.26,0,0,1,.71-.22,3.77,3.77,0,0,1,.76-.07Z"/><path class="cls-43" d="M262.55,385h-.07a3.42,3.42,0,0,0-.53.07.85.85,0,0,0-.33.17.75.75,0,0,0-.16.38,3.13,3.13,0,0,0-.06.67v.84h1.15v1.09H261.4v6.25h-1.35v-6.25H259V387.1h1.1v-.81a3.82,3.82,0,0,1,.15-1.13,1.85,1.85,0,0,1,.43-.77,2,2,0,0,1,.77-.46,3.73,3.73,0,0,1,1.13-.17Z"/><path class="cls-43" d="M264,394.44V387.1h1.31v7.34Zm-.21-9.8a.87.87,0,0,1,.06-.32,1.08,1.08,0,0,1,.19-.3,1,1,0,0,1,.3-.19.8.8,0,0,1,.34-.07.81.81,0,0,1,.35.07.87.87,0,0,1,.28.19.82.82,0,0,1,.19.28.78.78,0,0,1,.07.35.84.84,0,0,1-.07.35.73.73,0,0,1-.19.28.85.85,0,0,1-.29.19.9.9,0,0,1-.34.06,1,1,0,0,1-.34-.06.8.8,0,0,1-.29-.2.86.86,0,0,1-.2-.28,1,1,0,0,1-.06-.34Z"/><path class="cls-43" d="M267.53,394.44V387.1h1.27v.84a3.28,3.28,0,0,1,.5-.42,2.55,2.55,0,0,1,.52-.31,3.13,3.13,0,0,1,.57-.18A2.32,2.32,0,0,1,271,387a2.71,2.71,0,0,1,1.13.22,2.26,2.26,0,0,1,.86.65,3,3,0,0,1,.55,1,4.6,4.6,0,0,1,.18,1.35v4.24h-1.29v-4.12a4.25,4.25,0,0,0-.1-1,2,2,0,0,0-.3-.69,1.24,1.24,0,0,0-.52-.41,1.83,1.83,0,0,0-.73-.13,2.2,2.2,0,0,0-.85.14,1.61,1.61,0,0,0-.62.43,1.83,1.83,0,0,0-.36.71,3.32,3.32,0,0,0-.13,1v4.06Z"/><path class="cls-43" d="M283,383.83v10.61h-1.19v-1.11a2.73,2.73,0,0,1-.58.55,4.34,4.34,0,0,1-.66.38,3.67,3.67,0,0,1-.74.2,5.59,5.59,0,0,1-.83.06,4.65,4.65,0,0,1-1.54-.24,3.41,3.41,0,0,1-1.22-.77,3.54,3.54,0,0,1-.78-1.21,4.18,4.18,0,0,1-.27-1.54,4.59,4.59,0,0,1,.06-.76,5.13,5.13,0,0,1,.19-.7,6.25,6.25,0,0,1,.33-.63,4.71,4.71,0,0,1,.44-.56,3.54,3.54,0,0,1,.61-.49,3.28,3.28,0,0,1,.67-.35A3.92,3.92,0,0,1,279,387a4.3,4.3,0,0,1,.82.08,3.45,3.45,0,0,1,.73.23,2.45,2.45,0,0,1,.63.36,3.14,3.14,0,0,1,.51.52v-4.32Zm-3.85,4.25a2.91,2.91,0,0,0-1,.21,2.41,2.41,0,0,0-.83.55,2.56,2.56,0,0,0-.54.85,2.76,2.76,0,0,0-.19,1.05,2.83,2.83,0,0,0,.19,1.07,2.37,2.37,0,0,0,.54.85,2.3,2.3,0,0,0,.83.56,3.09,3.09,0,0,0,2.08,0,2.14,2.14,0,0,0,.83-.56,2.54,2.54,0,0,0,.55-.85,3,3,0,0,0,.18-1.07,3,3,0,0,0-.18-1.05,2.76,2.76,0,0,0-.55-.85,2.23,2.23,0,0,0-.83-.55,2.69,2.69,0,0,0-1.05-.19Z"/><path class="cls-43" d="M292.4,393.42a2.62,2.62,0,0,0,1-.17,2.23,2.23,0,0,0,.81-.56,2.54,2.54,0,0,0,.55-.85,3.24,3.24,0,0,0,0-2.13,2.5,2.5,0,0,0-.55-.84,2.14,2.14,0,0,0-.81-.57,2.63,2.63,0,0,0-1-.19,2.48,2.48,0,0,0-1,.19,2.65,2.65,0,0,0-1.36,1.41,3.24,3.24,0,0,0,0,2.13,2.27,2.27,0,0,0,.55.85,2.32,2.32,0,0,0,.81.56,2.66,2.66,0,0,0,1,.18Zm3.79,1H294.9v-1.19a3.46,3.46,0,0,1-.51.57,2.35,2.35,0,0,1-.63.41,2.46,2.46,0,0,1-.71.23,5.13,5.13,0,0,1-.81.06,6.19,6.19,0,0,1-.76,0,3.58,3.58,0,0,1-.71-.2,3.39,3.39,0,0,1-.65-.36,4.43,4.43,0,0,1-.58-.49,4,4,0,0,1-.45-.57,4.25,4.25,0,0,1-.32-.64,3.29,3.29,0,0,1-.19-.7,3.67,3.67,0,0,1-.07-.75,4.36,4.36,0,0,1,.26-1.54,3.47,3.47,0,0,1,2-2,4.29,4.29,0,0,1,1.52-.26,3.53,3.53,0,0,1,1.55.35,3,3,0,0,1,.65.42,3.38,3.38,0,0,1,.54.59V387.1h1.21Z"/><path class="cls-43" d="M302.35,392.93v-4.74h-1V387.1h1v-1.79h1.31v1.79h1.25v1.09h-1.25v4.57a.87.87,0,0,0,0,.3.53.53,0,0,0,.09.2.54.54,0,0,0,.18.11,1,1,0,0,0,.25,0h.69v1.23h-.74a3.37,3.37,0,0,1-.84-.09,1.33,1.33,0,0,1-.56-.27,1.22,1.22,0,0,1-.32-.53,2.62,2.62,0,0,1-.1-.79Z"/><path class="cls-43" d="M306.66,394.44V387.1h1.22v1a2.52,2.52,0,0,1,.38-.47,2.28,2.28,0,0,1,.43-.35,1.58,1.58,0,0,1,.52-.21,2.35,2.35,0,0,1,.6-.07h.44v1.32l-.19,0-.15,0h-.29a1.88,1.88,0,0,0-.74.13,1.18,1.18,0,0,0-.52.39,1.77,1.77,0,0,0-.32.66,3.6,3.6,0,0,0-.1.92v4.09Z"/><path class="cls-43" d="M312.77,387.1v4.08a3.6,3.6,0,0,0,.12,1,1.85,1.85,0,0,0,.34.72,1.57,1.57,0,0,0,.56.47,2,2,0,0,0,1.5,0,1.64,1.64,0,0,0,.56-.45,2,2,0,0,0,.35-.74,3.58,3.58,0,0,0,.12-1V387.1h1.29v4.15a4.68,4.68,0,0,1-.2,1.42,3.05,3.05,0,0,1-.61,1.07,2.47,2.47,0,0,1-1,.66,3.89,3.89,0,0,1-2.58,0,2.48,2.48,0,0,1-1-.65,3.1,3.1,0,0,1-.6-1.07,4.41,4.41,0,0,1-.22-1.42V387.1Z"/><path class="cls-43" d="M320.45,390.15h4.88a2.52,2.52,0,0,0-.25-.82,2.43,2.43,0,0,0-1.27-1.12,2.81,2.81,0,0,0-.89-.14,2.66,2.66,0,0,0-.9.15,2.46,2.46,0,0,0-.76.45,2.32,2.32,0,0,0-.55.67,2.52,2.52,0,0,0-.26.83Zm0,1.05a2.45,2.45,0,0,0,.24.93,2.59,2.59,0,0,0,.56.73,2.45,2.45,0,0,0,.82.46,3,3,0,0,0,1,.17,3.1,3.1,0,0,0,.69-.08,3.07,3.07,0,0,0,.64-.23,4.13,4.13,0,0,0,.59-.37,5.12,5.12,0,0,0,.54-.51l.93.72a5.08,5.08,0,0,1-.74.73,3.85,3.85,0,0,1-.8.51,4,4,0,0,1-.89.27,5.31,5.31,0,0,1-1,.09,4.8,4.8,0,0,1-1.61-.29,3.59,3.59,0,0,1-.7-.38,3.3,3.3,0,0,1-.6-.52,3.74,3.74,0,0,1-.41-.55,3.69,3.69,0,0,1-.31-.63,4.26,4.26,0,0,1-.19-.7,4.17,4.17,0,0,1-.06-.71,4.65,4.65,0,0,1,.26-1.59,3.43,3.43,0,0,1,.78-1.24,3.56,3.56,0,0,1,1.21-.82,4.4,4.4,0,0,1,3.09,0,3.6,3.6,0,0,1,1.22.87,3.76,3.76,0,0,1,.8,1.33,5.38,5.38,0,0,1,.26,1.71v.08Z"/><path class="cls-43" d="M335.2,385h-.07a3.42,3.42,0,0,0-.53.07.74.74,0,0,0-.32.17.67.67,0,0,0-.17.38,3.13,3.13,0,0,0-.06.67v.84h1.15v1.09h-1.15v6.25h-1.34v-6.25H331.6V387.1h1.11v-.81a4.2,4.2,0,0,1,.14-1.13,1.85,1.85,0,0,1,.43-.77,2,2,0,0,1,.77-.46,3.8,3.8,0,0,1,1.14-.17Z"/><path class="cls-43" d="M336.69,394.44V387.1h1.21v1a3,3,0,0,1,.38-.47,2.33,2.33,0,0,1,.44-.35,1.62,1.62,0,0,1,.51-.21,2.37,2.37,0,0,1,.61-.07h.43v1.32l-.18,0-.16,0h-.29a1.83,1.83,0,0,0-.73.13,1.21,1.21,0,0,0-.53.39,1.77,1.77,0,0,0-.32.66,4.11,4.11,0,0,0-.1.92v4.09Z"/><path class="cls-43" d="M341.59,394.44V387.1h1.31v7.34Zm-.21-9.8a.87.87,0,0,1,.06-.32,1.08,1.08,0,0,1,.19-.3,1,1,0,0,1,.3-.19.8.8,0,0,1,.34-.07.84.84,0,0,1,.35.07.87.87,0,0,1,.28.19.82.82,0,0,1,.19.28,1,1,0,0,1,.07.35,1,1,0,0,1-.07.35.73.73,0,0,1-.19.28.85.85,0,0,1-.29.19.93.93,0,0,1-.34.06,1,1,0,0,1-.34-.06.8.8,0,0,1-.29-.2.86.86,0,0,1-.2-.28,1,1,0,0,1-.06-.34Z"/><path class="cls-43" d="M345.86,390.15h4.89a2.52,2.52,0,0,0-.25-.82,2.16,2.16,0,0,0-.54-.67,2.26,2.26,0,0,0-.74-.45,2.75,2.75,0,0,0-.88-.14,2.57,2.57,0,0,0-.9.15,2.51,2.51,0,0,0-.77.45,2.28,2.28,0,0,0-.54.67,2.79,2.79,0,0,0-.27.83Zm0,1.05a2.45,2.45,0,0,0,.25.93,2.55,2.55,0,0,0,.55.73,2.5,2.5,0,0,0,.83.46,2.93,2.93,0,0,0,1,.17,3.1,3.1,0,0,0,.69-.08,3.07,3.07,0,0,0,.64-.23,3.56,3.56,0,0,0,.58-.37,5.2,5.2,0,0,0,.55-.51l.92.72a5,5,0,0,1-.73.73,3.56,3.56,0,0,1-1.69.78,5.42,5.42,0,0,1-1,.09,4.6,4.6,0,0,1-.84-.08,4.85,4.85,0,0,1-.77-.21,4.28,4.28,0,0,1-.7-.38,4.14,4.14,0,0,1-.6-.52,4.62,4.62,0,0,1-.41-.55,3.05,3.05,0,0,1-.3-.63,3.46,3.46,0,0,1-.19-.7,4.17,4.17,0,0,1-.06-.71,4.65,4.65,0,0,1,.25-1.59,3.56,3.56,0,0,1,2-2.06,4.43,4.43,0,0,1,3.1,0,3.69,3.69,0,0,1,2,2.2,5.38,5.38,0,0,1,.26,1.71v.08Z"/><path class="cls-43" d="M353.9,394.44V387.1h1.27v.84a3.84,3.84,0,0,1,.5-.42,2.85,2.85,0,0,1,.52-.31,3.13,3.13,0,0,1,.57-.18,2.35,2.35,0,0,1,.6-.07,2.67,2.67,0,0,1,1.12.22,2.26,2.26,0,0,1,.86.65,2.79,2.79,0,0,1,.55,1,4.6,4.6,0,0,1,.18,1.35v4.24h-1.29v-4.12a4.25,4.25,0,0,0-.1-1,2,2,0,0,0-.3-.69,1.21,1.21,0,0,0-.51-.41,1.88,1.88,0,0,0-.74-.13,2.2,2.2,0,0,0-.85.14,1.69,1.69,0,0,0-.62.43,1.83,1.83,0,0,0-.36.71,3.32,3.32,0,0,0-.13,1v4.06Z"/><path class="cls-43" d="M369.4,383.83v10.61h-1.19v-1.11a3,3,0,0,1-.58.55,4.44,4.44,0,0,1-.67.38,3.5,3.5,0,0,1-.74.2,5.49,5.49,0,0,1-.83.06,4.65,4.65,0,0,1-1.54-.24,3.41,3.41,0,0,1-1.22-.77,3.7,3.7,0,0,1-.78-1.21,4.18,4.18,0,0,1-.27-1.54,4.56,4.56,0,0,1,.07-.76,3.29,3.29,0,0,1,.19-.7,3.78,3.78,0,0,1,.33-.63,3.28,3.28,0,0,1,.44-.56,3.14,3.14,0,0,1,.6-.49,3.56,3.56,0,0,1,.67-.35,3.92,3.92,0,0,1,1.51-.31,4.22,4.22,0,0,1,.82.08,3.74,3.74,0,0,1,.74.23,2.57,2.57,0,0,1,.62.36,3.14,3.14,0,0,1,.51.52v-4.32Zm-3.85,4.25a2.82,2.82,0,0,0-1,.21,2.38,2.38,0,0,0-1.38,1.4,3,3,0,0,0-.18,1.05,3,3,0,0,0,.18,1.07,2.37,2.37,0,0,0,.54.85,2.43,2.43,0,0,0,.84.56,2.82,2.82,0,0,0,1,.18,3,3,0,0,0,1.05-.18,2.18,2.18,0,0,0,.82-.56,2.27,2.27,0,0,0,.55-.85,3,3,0,0,0,.18-1.07,3,3,0,0,0-.18-1.05,2.44,2.44,0,0,0-.55-.85,2.28,2.28,0,0,0-.82-.55,2.76,2.76,0,0,0-1.05-.19Z"/><path class="cls-43" d="M371.53,393.74a.93.93,0,0,1,.06-.34,1,1,0,0,1,.19-.28,1,1,0,0,1,.3-.19,1,1,0,0,1,.34-.06,1,1,0,0,1,.35.06.77.77,0,0,1,.28.19,1,1,0,0,1,.2.28.78.78,0,0,1,.07.35.77.77,0,0,1-.07.34,1.08,1.08,0,0,1-.2.29,1.69,1.69,0,0,1-.29.17.74.74,0,0,1-.34.07.8.8,0,0,1-.34-.07,1.41,1.41,0,0,1-.29-.18.86.86,0,0,1-.2-.28.93.93,0,0,1-.06-.34Z"/><path class="cls-43" d="M375.4,393.74a.77.77,0,0,1,.07-.34.82.82,0,0,1,.19-.28,1,1,0,0,1,.3-.19.93.93,0,0,1,.34-.06,1,1,0,0,1,.35.06.87.87,0,0,1,.28.19,1.31,1.31,0,0,1,.2.28,1,1,0,0,1,.07.35.94.94,0,0,1-.07.34,1.37,1.37,0,0,1-.2.29,1.69,1.69,0,0,1-.29.17.8.8,0,0,1-.34.07.77.77,0,0,1-.34-.07,1.19,1.19,0,0,1-.29-.18.86.86,0,0,1-.2-.28.77.77,0,0,1-.07-.34Z"/><path class="cls-43" d="M379.28,393.74a.93.93,0,0,1,.06-.34,1,1,0,0,1,.19-.28,1,1,0,0,1,.3-.19,1,1,0,0,1,.34-.06,1,1,0,0,1,.36.06.83.83,0,0,1,.27.19,1,1,0,0,1,.2.28.78.78,0,0,1,.07.35.77.77,0,0,1-.07.34,1.08,1.08,0,0,1-.2.29,1.69,1.69,0,0,1-.29.17.74.74,0,0,1-.34.07.8.8,0,0,1-.34-.07,1.41,1.41,0,0,1-.29-.18.86.86,0,0,1-.2-.28.93.93,0,0,1-.06-.34Z"/><path class="cls-43" d="M384.79,384.62h1.12v3.81h-1.12Zm-2.11,0h1.13v3.81h-1.13Z"/><path class="cls-43" d="M102.4,359.42h1.12v3.81H102.4Zm-2.11,0h1.13v3.81h-1.13Z"/><path class="cls-43" d="M111.58,368.19a3.92,3.92,0,0,0,.85-.06,3,3,0,0,0,.76-.21,3,3,0,0,0,.68-.36,4,4,0,0,0,.61-.48,4.2,4.2,0,0,0,.52-.66,5.34,5.34,0,0,0,.39-.75,4.74,4.74,0,0,0,.23-.84,6,6,0,0,0,0-1.82,4.74,4.74,0,0,0-.23-.84,4.94,4.94,0,0,0-.39-.76,4.11,4.11,0,0,0-.54-.66,4,4,0,0,0-.6-.49,3,3,0,0,0-.69-.36,3.23,3.23,0,0,0-.75-.22,5.77,5.77,0,0,0-1.66,0,3.81,3.81,0,0,0-1.44.58,4.59,4.59,0,0,0-.6.49,4.12,4.12,0,0,0-.52.65,3.34,3.34,0,0,0-.39.75,6.18,6.18,0,0,0-.24.84,5.46,5.46,0,0,0-.08.93,5.31,5.31,0,0,0,.08.91,5.8,5.8,0,0,0,.24.84,3.83,3.83,0,0,0,.39.75,4.2,4.2,0,0,0,.52.66,4.51,4.51,0,0,0,.6.48,3.17,3.17,0,0,0,.68.36,3.21,3.21,0,0,0,.75.21,4.43,4.43,0,0,0,.83.07Zm0,1.26a6.77,6.77,0,0,1-1.12-.09,6.93,6.93,0,0,1-1-.26,5.18,5.18,0,0,1-.91-.46,5.63,5.63,0,0,1-.81-.65,6.44,6.44,0,0,1-.72-.86,5.07,5.07,0,0,1-.53-1,5.79,5.79,0,0,1-.31-1.08,6.25,6.25,0,0,1-.11-1.16,6.47,6.47,0,0,1,.11-1.18,6.74,6.74,0,0,1,.33-1.08,4.83,4.83,0,0,1,.52-1,5.31,5.31,0,0,1,.72-.85,4.5,4.5,0,0,1,.8-.64,5.32,5.32,0,0,1,.92-.47,5,5,0,0,1,1-.28,7.8,7.8,0,0,1,1.1-.08,8.23,8.23,0,0,1,1.13.08,4.54,4.54,0,0,1,1,.28,5.07,5.07,0,0,1,.93.47,4.88,4.88,0,0,1,.8.64,5.31,5.31,0,0,1,.72.85,4.83,4.83,0,0,1,.52,1,5.82,5.82,0,0,1,.32,1.08,6.48,6.48,0,0,1,.1,1.18,6.26,6.26,0,0,1-.1,1.16,5.82,5.82,0,0,1-.32,1.08,5,5,0,0,1-.52,1,5.69,5.69,0,0,1-.71.86,5.63,5.63,0,0,1-.81.65,4.85,4.85,0,0,1-.91.46,6.34,6.34,0,0,1-1,.26A6.93,6.93,0,0,1,111.59,369.45Z"/><path class="cls-43" d="M123.89,369.24v-4.12a5,5,0,0,0-.09-1,1.82,1.82,0,0,0-.29-.69,1.22,1.22,0,0,0-.5-.4,1.83,1.83,0,0,0-.73-.13,2.38,2.38,0,0,0-.84.14,1.47,1.47,0,0,0-.6.43,2,2,0,0,0-.35.71,3.28,3.28,0,0,0-.13,1v4.06H119V358.63h1.32v4.11a3.08,3.08,0,0,1,.47-.42,3.3,3.3,0,0,1,.51-.31,2.62,2.62,0,0,1,.56-.18,2.46,2.46,0,0,1,.6-.07,2.71,2.71,0,0,1,1.13.22,2.26,2.26,0,0,1,.86.65,3.13,3.13,0,0,1,.55,1,4.6,4.6,0,0,1,.18,1.35v4.24Z"/><polygon class="cls-43" points="127.85 367.45 129.11 368.05 127.36 371.58 126.51 371.17 127.85 367.45"/><rect x="135.17" y="358.54" width="1.4" height="10.7"/><path class="cls-43" d="M147.66,369.24v-4.12a5,5,0,0,0-.09-1,1.82,1.82,0,0,0-.29-.69,1.16,1.16,0,0,0-.5-.4,1.8,1.8,0,0,0-.73-.13,2.42,2.42,0,0,0-.84.14,1.54,1.54,0,0,0-.6.43,2,2,0,0,0-.35.71,3.62,3.62,0,0,0-.13,1v4.06h-1.31V358.63h1.31v4.11a3.63,3.63,0,0,1,.47-.42,4.63,4.63,0,0,1,.51-.31,2.81,2.81,0,0,1,.56-.18,2.48,2.48,0,0,1,.61-.07,2.67,2.67,0,0,1,1.12.22,2.26,2.26,0,0,1,.86.65,2.79,2.79,0,0,1,.55,1A4.6,4.6,0,0,1,149,365v4.24Z"/><path class="cls-43" d="M154.4,368.22a2.61,2.61,0,0,0,1-.17,2.15,2.15,0,0,0,.81-.56,2.4,2.4,0,0,0,.55-.85,3.24,3.24,0,0,0,0-2.13,2.36,2.36,0,0,0-.55-.84,2.07,2.07,0,0,0-.81-.57,2.61,2.61,0,0,0-1-.19,2.49,2.49,0,0,0-1,.19,2.65,2.65,0,0,0-1.36,1.41,3.24,3.24,0,0,0,0,2.13,2.27,2.27,0,0,0,.55.85,2.32,2.32,0,0,0,.81.56,2.67,2.67,0,0,0,1,.18Zm3.78,1h-1.29v-1.19a3.46,3.46,0,0,1-.51.57,2.35,2.35,0,0,1-.63.41,2.46,2.46,0,0,1-.71.23,5.13,5.13,0,0,1-.81.06,6.19,6.19,0,0,1-.76-.05,3.58,3.58,0,0,1-.71-.2,3.72,3.72,0,0,1-.65-.36,4.43,4.43,0,0,1-.58-.49,3.35,3.35,0,0,1-.44-.57,3.51,3.51,0,0,1-.33-.64,3.29,3.29,0,0,1-.19-.7,4.54,4.54,0,0,1-.07-.75,4.36,4.36,0,0,1,.26-1.54,3.47,3.47,0,0,1,2-2,4.29,4.29,0,0,1,1.52-.26,3.53,3.53,0,0,1,1.55.35,2.78,2.78,0,0,1,.65.42,3.38,3.38,0,0,1,.54.59V361.9h1.21Z"/><path class="cls-43" d="M162.66,369.24l-3.25-7.34h1.43l2,5.07a.07.07,0,0,0,0,.06l0,.08c.06.15.11.29.15.41s.08.25.12.36l.1-.29c0-.09.05-.16.07-.23s0-.11.05-.15a1.12,1.12,0,0,0,0-.13l2.11-5.18h1.37l-3.22,7.34Z"/><path class="cls-43" d="M169,365h4.89a2.52,2.52,0,0,0-.25-.82,2.16,2.16,0,0,0-.54-.67,2.08,2.08,0,0,0-.74-.44,2.5,2.5,0,0,0-.88-.15,2.57,2.57,0,0,0-.9.15,2.73,2.73,0,0,0-.77.45,2.28,2.28,0,0,0-.54.67,2.79,2.79,0,0,0-.27.83Zm0,1.05a2.45,2.45,0,0,0,.25.93,2.55,2.55,0,0,0,.55.73,2.71,2.71,0,0,0,.83.47,3.18,3.18,0,0,0,1,.16,3.13,3.13,0,0,0,.7-.08,2.8,2.8,0,0,0,.63-.23,3.25,3.25,0,0,0,.59-.37,5.2,5.2,0,0,0,.55-.51l.92.72a5,5,0,0,1-.73.73,3.56,3.56,0,0,1-1.69.78,5.42,5.42,0,0,1-1,.09,4.6,4.6,0,0,1-.84-.08,4.85,4.85,0,0,1-.77-.21,4.28,4.28,0,0,1-.7-.38,4.14,4.14,0,0,1-.6-.52,4.62,4.62,0,0,1-.41-.55,3.05,3.05,0,0,1-.3-.63,3.46,3.46,0,0,1-.19-.7,4.17,4.17,0,0,1-.07-.71,4.65,4.65,0,0,1,.26-1.59,3.56,3.56,0,0,1,2-2.06,4.43,4.43,0,0,1,3.1,0,3.69,3.69,0,0,1,2,2.2,5.38,5.38,0,0,1,.26,1.71V366Z"/><path class="cls-43" d="M184.18,368.22a2.61,2.61,0,0,0,1-.17,2.15,2.15,0,0,0,.81-.56,2.4,2.4,0,0,0,.55-.85,3.24,3.24,0,0,0,0-2.13,2.36,2.36,0,0,0-.55-.84,2.07,2.07,0,0,0-.81-.57,2.61,2.61,0,0,0-1-.19,2.49,2.49,0,0,0-1,.19,2.65,2.65,0,0,0-1.36,1.41,3.24,3.24,0,0,0,0,2.13,2.27,2.27,0,0,0,.55.85,2.32,2.32,0,0,0,.81.56,2.67,2.67,0,0,0,1,.18Zm3.78,1h-1.29v-1.19a3.46,3.46,0,0,1-.51.57,2.47,2.47,0,0,1-.62.41,2.63,2.63,0,0,1-.72.23,5.13,5.13,0,0,1-.81.06,6.33,6.33,0,0,1-.76-.05,3.58,3.58,0,0,1-.71-.2,3.39,3.39,0,0,1-.65-.36,4.43,4.43,0,0,1-.58-.49,3.35,3.35,0,0,1-.44-.57,3.51,3.51,0,0,1-.33-.64,3.29,3.29,0,0,1-.19-.7,4.56,4.56,0,0,1-.06-.75,4.36,4.36,0,0,1,.25-1.54,3.29,3.29,0,0,1,.77-1.21,3.15,3.15,0,0,1,1.18-.79,4.29,4.29,0,0,1,1.52-.26,3.53,3.53,0,0,1,1.55.35,2.78,2.78,0,0,1,.65.42,3.38,3.38,0,0,1,.54.59V361.9H188Z"/><path class="cls-43" d="M197.49,368.22a2.57,2.57,0,0,0,1-.17,2.19,2.19,0,0,0,.8-.56,2.37,2.37,0,0,0,.54-.85,3.24,3.24,0,0,0,0-2.13,2.33,2.33,0,0,0-.54-.84,2.11,2.11,0,0,0-.8-.57,2.58,2.58,0,0,0-1-.19,2.53,2.53,0,0,0-1,.19,2.17,2.17,0,0,0-.82.57,2.45,2.45,0,0,0-.53.84,3.08,3.08,0,0,0,0,2.13,2.49,2.49,0,0,0,.53.85,2.27,2.27,0,0,0,.82.56,2.71,2.71,0,0,0,1,.18Zm2.42-.17a3.29,3.29,0,0,1-.48.57,3,3,0,0,1-.59.41,2.53,2.53,0,0,1-.72.23,5.17,5.17,0,0,1-.82.06,4.65,4.65,0,0,1-.75-.06,3.58,3.58,0,0,1-.71-.2,5.32,5.32,0,0,1-.66-.37,5.08,5.08,0,0,1-.57-.47,3.48,3.48,0,0,1-.46-.57,5.49,5.49,0,0,1-.33-.64,5.13,5.13,0,0,1-.19-.7,3.67,3.67,0,0,1-.07-.75,4.15,4.15,0,0,1,.26-1.54,3.42,3.42,0,0,1,.77-1.21,3.39,3.39,0,0,1,1.2-.79,4.19,4.19,0,0,1,1.51-.26,3.53,3.53,0,0,1,1.56.35,3.07,3.07,0,0,1,.66.42,3.88,3.88,0,0,1,.55.59V361.9h1.19v6.29A6,6,0,0,1,201,370a3.18,3.18,0,0,1-.76,1.29,3.13,3.13,0,0,1-1.25.8,5,5,0,0,1-1.72.27,5.47,5.47,0,0,1-1.1-.11,4.23,4.23,0,0,1-1-.31,4.52,4.52,0,0,1-.83-.51,4.46,4.46,0,0,1-.71-.73l1-.77a3.2,3.2,0,0,0,.54.56,3.88,3.88,0,0,0,.62.4,3.38,3.38,0,0,0,.7.23,3.08,3.08,0,0,0,.75.09,3.23,3.23,0,0,0,1.13-.18,2.06,2.06,0,0,0,.82-.52,2.13,2.13,0,0,0,.48-.86,3.72,3.72,0,0,0,.16-1.17Z"/><path class="cls-43" d="M203.32,369.24V361.9h1.22v1a2.89,2.89,0,0,1,.38-.47,2.28,2.28,0,0,1,.43-.35,1.58,1.58,0,0,1,.52-.21,2.35,2.35,0,0,1,.6-.07h.44v1.32l-.19,0-.15,0h-.29a1.88,1.88,0,0,0-.74.13,1.18,1.18,0,0,0-.52.39,1.77,1.77,0,0,0-.32.66,3.55,3.55,0,0,0-.1.92v4.09Z"/><path class="cls-43" d="M209,365h4.88a2.3,2.3,0,0,0-.25-.82,2.28,2.28,0,0,0-.53-.67,2.17,2.17,0,0,0-.74-.44,2.56,2.56,0,0,0-.89-.15,2.44,2.44,0,0,0-1.66.6,2.32,2.32,0,0,0-.55.67,2.52,2.52,0,0,0-.26.83Zm0,1.05a2.65,2.65,0,0,0,.24.93,2.75,2.75,0,0,0,.55.73,2.83,2.83,0,0,0,.83.47,3.24,3.24,0,0,0,1,.16,3.1,3.1,0,0,0,.69-.08A3.07,3.07,0,0,0,213,368a4.13,4.13,0,0,0,.59-.37,5.12,5.12,0,0,0,.54-.51l.93.72a5.08,5.08,0,0,1-.74.73,3.6,3.6,0,0,1-.8.51,4,4,0,0,1-.89.27,5.31,5.31,0,0,1-1,.09,4.8,4.8,0,0,1-1.61-.29,3.59,3.59,0,0,1-.7-.38,3.73,3.73,0,0,1-.61-.52,4.56,4.56,0,0,1-.4-.55,3.08,3.08,0,0,1-.31-.63,4.26,4.26,0,0,1-.19-.7,4.17,4.17,0,0,1-.06-.71,4.42,4.42,0,0,1,.26-1.59,3.55,3.55,0,0,1,.77-1.24A3.7,3.7,0,0,1,210,362a4.4,4.4,0,0,1,3.09,0,3.73,3.73,0,0,1,1.23.87,3.88,3.88,0,0,1,.79,1.33,5.39,5.39,0,0,1,.25,1.71V366Z"/><path class="cls-43" d="M220.35,368.22a2.61,2.61,0,0,0,1-.17,2.15,2.15,0,0,0,.81-.56,2.54,2.54,0,0,0,.55-.85,3.24,3.24,0,0,0,0-2.13,2.5,2.5,0,0,0-.55-.84,2.07,2.07,0,0,0-.81-.57,2.61,2.61,0,0,0-1-.19,2.49,2.49,0,0,0-1,.19,2.65,2.65,0,0,0-1.36,1.41,3.24,3.24,0,0,0,0,2.13,2.27,2.27,0,0,0,.55.85,2.32,2.32,0,0,0,.81.56,2.67,2.67,0,0,0,1,.18Zm3.78,1h-1.29v-1.19a3.46,3.46,0,0,1-.51.57,2.52,2.52,0,0,1-.63.41,2.46,2.46,0,0,1-.71.23,5.13,5.13,0,0,1-.81.06,6.19,6.19,0,0,1-.76-.05,3.58,3.58,0,0,1-.71-.2,3.39,3.39,0,0,1-.65-.36,4.43,4.43,0,0,1-.58-.49,3.35,3.35,0,0,1-.44-.57,3.51,3.51,0,0,1-.33-.64,3.29,3.29,0,0,1-.19-.7,3.67,3.67,0,0,1-.07-.75,4.36,4.36,0,0,1,.26-1.54,3.47,3.47,0,0,1,1.95-2,4.29,4.29,0,0,1,1.52-.26,3.53,3.53,0,0,1,1.55.35,3,3,0,0,1,.65.42,3.38,3.38,0,0,1,.54.59V361.9h1.21Z"/><path class="cls-43" d="M226.41,367.73V363h-.95V361.9h.95v-1.79h1.32v1.79H229V363h-1.24v4.57a1.26,1.26,0,0,0,0,.3,1.29,1.29,0,0,0,.09.2.5.5,0,0,0,.19.11,1,1,0,0,0,.25,0H229v1.23h-.74a3.49,3.49,0,0,1-.84-.09,1.39,1.39,0,0,1-.56-.27,1.2,1.2,0,0,1-.31-.53,2.6,2.6,0,0,1-.11-.79Z"/><path class="cls-43" d="M234.55,369.24V361.9h1.31v7.34Zm-.21-9.8a.87.87,0,0,1,.06-.32.89.89,0,0,1,.19-.3,1,1,0,0,1,.3-.19.8.8,0,0,1,.34-.07.84.84,0,0,1,.35.07.87.87,0,0,1,.28.19.82.82,0,0,1,.19.28,1,1,0,0,1,.06.35.93.93,0,0,1-.06.34.7.7,0,0,1-.19.29.85.85,0,0,1-.29.19.93.93,0,0,1-.34.06,1,1,0,0,1-.34-.06.8.8,0,0,1-.29-.2.86.86,0,0,1-.2-.28.93.93,0,0,1-.06-.34Z"/><path class="cls-43" d="M245.32,358.63v10.61h-1.19v-1.11a3,3,0,0,1-.58.55,4,4,0,0,1-.67.38,3.5,3.5,0,0,1-.74.2,5.49,5.49,0,0,1-.83.06,4.65,4.65,0,0,1-1.54-.24,3.37,3.37,0,0,1-1.21-.77,3.57,3.57,0,0,1-.79-1.21,4.18,4.18,0,0,1-.26-1.54,4.59,4.59,0,0,1,.06-.76,3.29,3.29,0,0,1,.19-.7,3.78,3.78,0,0,1,.33-.63,3.28,3.28,0,0,1,.44-.56,3.14,3.14,0,0,1,.6-.49,3.56,3.56,0,0,1,.67-.35,3.92,3.92,0,0,1,1.51-.31,4.22,4.22,0,0,1,.82.08,3.74,3.74,0,0,1,.74.23,3,3,0,0,1,.62.36,3.14,3.14,0,0,1,.51.52v-4.32Zm-3.85,4.25a3,3,0,0,0-1,.2,2.59,2.59,0,0,0-.83.56,2.35,2.35,0,0,0-.55.85,3,3,0,0,0-.18,1.05,3,3,0,0,0,.18,1.07,2.19,2.19,0,0,0,.55.85,2.3,2.3,0,0,0,.83.56,2.82,2.82,0,0,0,1,.18,3,3,0,0,0,1.05-.18,2.11,2.11,0,0,0,.82-.56,2.19,2.19,0,0,0,.55-.85,3,3,0,0,0,.18-1.07,3,3,0,0,0-.18-1.05,2.54,2.54,0,0,0-1.37-1.41,3,3,0,0,0-1.05-.18Z"/><path class="cls-43" d="M248.25,365h4.88a2.3,2.3,0,0,0-.25-.82,2.28,2.28,0,0,0-.53-.67,2.08,2.08,0,0,0-.74-.44,2.54,2.54,0,0,0-.88-.15,2.45,2.45,0,0,0-1.67.6,2.32,2.32,0,0,0-.55.67,2.52,2.52,0,0,0-.26.83Zm0,1.05a2.65,2.65,0,0,0,.24.93,2.59,2.59,0,0,0,.56.73,2.66,2.66,0,0,0,.82.47,3.29,3.29,0,0,0,1,.16,3.1,3.1,0,0,0,.69-.08,3.07,3.07,0,0,0,.64-.23,4.13,4.13,0,0,0,.59-.37,5.12,5.12,0,0,0,.54-.51l.93.72a4.63,4.63,0,0,1-.74.73,3.6,3.6,0,0,1-.8.51,4.1,4.1,0,0,1-.88.27,5.5,5.5,0,0,1-1,.09,4.8,4.8,0,0,1-1.61-.29,3.91,3.91,0,0,1-.7-.38,3.3,3.3,0,0,1-.6-.52,3.74,3.74,0,0,1-.41-.55,3.69,3.69,0,0,1-.31-.63,4.26,4.26,0,0,1-.19-.7,4.17,4.17,0,0,1-.06-.71,4.65,4.65,0,0,1,.26-1.59,3.43,3.43,0,0,1,.78-1.24,3.56,3.56,0,0,1,1.21-.82,4.4,4.4,0,0,1,3.09,0,3.73,3.73,0,0,1,1.23.87,3.88,3.88,0,0,1,.79,1.33,5.38,5.38,0,0,1,.26,1.71V366Z"/><path class="cls-43" d="M259.59,368.22a2.61,2.61,0,0,0,1-.17,2.15,2.15,0,0,0,.81-.56,2.4,2.4,0,0,0,.55-.85,3.24,3.24,0,0,0,0-2.13,2.36,2.36,0,0,0-.55-.84,2.07,2.07,0,0,0-.81-.57,2.61,2.61,0,0,0-1-.19,2.49,2.49,0,0,0-1,.19,2.65,2.65,0,0,0-1.36,1.41,3.24,3.24,0,0,0,0,2.13,2.27,2.27,0,0,0,.55.85,2.32,2.32,0,0,0,.81.56,2.67,2.67,0,0,0,1,.18Zm3.78,1h-1.29v-1.19a3.46,3.46,0,0,1-.51.57,2.47,2.47,0,0,1-.62.41,2.63,2.63,0,0,1-.72.23,5.13,5.13,0,0,1-.81.06,6.33,6.33,0,0,1-.76-.05,3.58,3.58,0,0,1-.71-.2,3.72,3.72,0,0,1-.65-.36,4.43,4.43,0,0,1-.58-.49,3.35,3.35,0,0,1-.44-.57A3.51,3.51,0,0,1,256,367a3.29,3.29,0,0,1-.19-.7,4.56,4.56,0,0,1-.06-.75A4.36,4.36,0,0,1,256,364a3.29,3.29,0,0,1,.77-1.21,3.15,3.15,0,0,1,1.18-.79,4.29,4.29,0,0,1,1.52-.26,3.53,3.53,0,0,1,1.55.35,2.78,2.78,0,0,1,.65.42,3.38,3.38,0,0,1,.54.59V361.9h1.21Z"/><path class="cls-43" d="M265.7,366.79v-8.16h1.37v8.16Zm-.2,1.75a.93.93,0,0,1,.06-.34,1,1,0,0,1,.19-.28,1.37,1.37,0,0,1,.3-.19,1.05,1.05,0,0,1,.7,0,.9.9,0,0,1,.47.47.78.78,0,0,1,.07.35.77.77,0,0,1-.07.34,1.32,1.32,0,0,1-.19.29,2.28,2.28,0,0,1-.3.17.72.72,0,0,1-.33.07.81.81,0,0,1-.35-.07,1.34,1.34,0,0,1-.28-.18.76.76,0,0,1-.21-.28.93.93,0,0,1-.06-.34Z"/><path class="cls-43" d="M272.4,359.42h1.12v3.81H272.4Zm-2.12,0h1.14v3.81h-1.14Z"/><path class="cls-43" d="M279.82,367.11a1.71,1.71,0,0,0,.13.55,1,1,0,0,0,.27.39,1.19,1.19,0,0,0,.42.22,1.66,1.66,0,0,0,.57.09,1.76,1.76,0,0,0,.58-.09,1.11,1.11,0,0,0,.44-.24.91.91,0,0,0,.29-.36,1.21,1.21,0,0,0,.09-.48.78.78,0,0,0-.36-.62,3.59,3.59,0,0,0-1.1-.48l-.19,0-.14,0a5.86,5.86,0,0,1-1-.38,3.11,3.11,0,0,1-.68-.47,1.91,1.91,0,0,1-.38-.6,1.81,1.81,0,0,1-.14-.72,1.77,1.77,0,0,1,.19-.82,2.13,2.13,0,0,1,.53-.69,3,3,0,0,1,.8-.45,3.12,3.12,0,0,1,1-.15,3.41,3.41,0,0,1,1.05.15,2.6,2.6,0,0,1,.8.45,2.08,2.08,0,0,1,.5.72,2.45,2.45,0,0,1,.17.93v0h-1.23a1.53,1.53,0,0,0-.1-.49,1.23,1.23,0,0,0-.24-.38,1.1,1.1,0,0,0-.38-.23,1.74,1.74,0,0,0-.53-.07,2.06,2.06,0,0,0-.52.06,1,1,0,0,0-.42.22.84.84,0,0,0-.36.71,1,1,0,0,0,.06.36.66.66,0,0,0,.19.27,1.59,1.59,0,0,0,.44.23,7.24,7.24,0,0,0,.75.25l.07,0,.1,0c.42.12.77.24,1.05.35a2.27,2.27,0,0,1,.6.32,2.2,2.2,0,0,1,.3.31,1.65,1.65,0,0,1,.22.36,2,2,0,0,1,.14.41,2.32,2.32,0,0,1,0,.46,2.37,2.37,0,0,1-.17.9,2.14,2.14,0,0,1-.54.74,2.2,2.2,0,0,1-.84.45,3.55,3.55,0,0,1-1.07.15,4.1,4.1,0,0,1-1.11-.14,2,2,0,0,1-.83-.45,1.74,1.74,0,0,1-.53-.72,3.16,3.16,0,0,1-.2-1Z"/><path class="cls-43" d="M288.9,368.22a2.61,2.61,0,0,0,1-.17,2.15,2.15,0,0,0,.81-.56,2.27,2.27,0,0,0,.55-.85,3.24,3.24,0,0,0,0-2.13,2.23,2.23,0,0,0-.55-.84,2.07,2.07,0,0,0-.81-.57,2.61,2.61,0,0,0-1-.19,2.53,2.53,0,0,0-1,.19,2.22,2.22,0,0,0-.81.57,2.5,2.5,0,0,0-.55.84,3.24,3.24,0,0,0,0,2.13,2.54,2.54,0,0,0,.55.85,2.32,2.32,0,0,0,.81.56,2.71,2.71,0,0,0,1,.18Zm3.78,1h-1.29v-1.19a3.46,3.46,0,0,1-.51.57,2.47,2.47,0,0,1-.62.41,2.53,2.53,0,0,1-.72.23,5.13,5.13,0,0,1-.81.06,6,6,0,0,1-.75-.05,3.67,3.67,0,0,1-.72-.2,3.72,3.72,0,0,1-.65-.36,5.2,5.2,0,0,1-.58-.49,3.35,3.35,0,0,1-.44-.57,3.51,3.51,0,0,1-.33-.64,4,4,0,0,1-.19-.7,4.56,4.56,0,0,1-.06-.75,4.36,4.36,0,0,1,.25-1.54,3.42,3.42,0,0,1,.77-1.21,3.23,3.23,0,0,1,1.18-.79,4.33,4.33,0,0,1,1.52-.26,3.59,3.59,0,0,1,.81.09,3.69,3.69,0,0,1,.75.26,3,3,0,0,1,.65.42,3.38,3.38,0,0,1,.54.59V361.9h1.2Z"/><path class="cls-43" d="M294.83,369.24V361.9h1.31v7.34Zm-.21-9.8a.87.87,0,0,1,.06-.32,1.08,1.08,0,0,1,.19-.3,1,1,0,0,1,.3-.19.8.8,0,0,1,.34-.07.84.84,0,0,1,.35.07.87.87,0,0,1,.28.19.82.82,0,0,1,.19.28,1,1,0,0,1,.06.35.93.93,0,0,1-.06.34.7.7,0,0,1-.19.29.85.85,0,0,1-.29.19.93.93,0,0,1-.34.06,1,1,0,0,1-.34-.06.8.8,0,0,1-.29-.2.86.86,0,0,1-.2-.28.93.93,0,0,1-.06-.34Z"/><path class="cls-43" d="M305.6,358.63v10.61h-1.19v-1.11a3,3,0,0,1-.58.55,4,4,0,0,1-.67.38,3.5,3.5,0,0,1-.74.2,5.49,5.49,0,0,1-.83.06,4.69,4.69,0,0,1-1.54-.24,3.37,3.37,0,0,1-1.21-.77,3.57,3.57,0,0,1-.79-1.21,4.4,4.4,0,0,1-.26-1.54,4.59,4.59,0,0,1,.06-.76,3.29,3.29,0,0,1,.19-.7,3.78,3.78,0,0,1,.33-.63,3.28,3.28,0,0,1,.44-.56,3.48,3.48,0,0,1,.6-.49,3.9,3.9,0,0,1,.67-.35,4,4,0,0,1,.74-.23,4,4,0,0,1,.77-.08,4.22,4.22,0,0,1,.82.08,3.74,3.74,0,0,1,.74.23,3,3,0,0,1,.62.36,3.14,3.14,0,0,1,.51.52v-4.32Zm-3.85,4.25a3.09,3.09,0,0,0-1,.2,2.59,2.59,0,0,0-.83.56,2.35,2.35,0,0,0-.55.85,3,3,0,0,0-.18,1.05,3,3,0,0,0,.18,1.07,2.19,2.19,0,0,0,.55.85,2.3,2.3,0,0,0,.83.56,2.86,2.86,0,0,0,1,.18,3,3,0,0,0,1.05-.18,2.11,2.11,0,0,0,.82-.56,2.19,2.19,0,0,0,.55-.85,3,3,0,0,0,.18-1.07,3,3,0,0,0-.18-1.05,2.54,2.54,0,0,0-1.37-1.41,3,3,0,0,0-1.05-.18Z"/><path class="cls-43" d="M313.17,364.28h1.11a2.85,2.85,0,0,0,1-.13,2.16,2.16,0,0,0,.75-.44,2.11,2.11,0,0,0,.48-.73,2.83,2.83,0,0,0,.15-1,2.55,2.55,0,0,0-.17-.95,1.8,1.8,0,0,0-.5-.69,2.2,2.2,0,0,0-.82-.42,4.1,4.1,0,0,0-1.11-.14h-.89Zm-1.4,5v-10.7h2.29a5.6,5.6,0,0,1,1.65.25,3.64,3.64,0,0,1,1.29.73,3.07,3.07,0,0,1,.81,1.12,3.52,3.52,0,0,1,.28,1.44,3.68,3.68,0,0,1-.26,1.4,3.1,3.1,0,0,1-.79,1.12,3.68,3.68,0,0,1-1.2.73,4.45,4.45,0,0,1-1.5.24h-1.17v3.68Z"/><path class="cls-43" d="M324.38,369.24v-4.12a4.9,4.9,0,0,0-.1-1,1.82,1.82,0,0,0-.28-.69,1.19,1.19,0,0,0-.51-.4,1.8,1.8,0,0,0-.73-.13,2.47,2.47,0,0,0-.84.14,1.54,1.54,0,0,0-.6.43,2.14,2.14,0,0,0-.35.71,3.65,3.65,0,0,0-.12,1v4.06h-1.32V358.63h1.32v4.11a3.08,3.08,0,0,1,.47-.42,3.3,3.3,0,0,1,.51-.31,2.45,2.45,0,0,1,.56-.18,2.35,2.35,0,0,1,.6-.07,2.71,2.71,0,0,1,1.13.22,2.34,2.34,0,0,1,.86.65,2.93,2.93,0,0,1,.54,1,4.58,4.58,0,0,1,.19,1.35v4.24Z"/><path class="cls-43" d="M327.75,369.24V361.9h1.31v7.34Zm-.21-9.8a.87.87,0,0,1,.06-.32,1.08,1.08,0,0,1,.19-.3,1,1,0,0,1,.3-.19.81.81,0,0,1,.35-.07.8.8,0,0,1,.34.07.87.87,0,0,1,.28.19.88.88,0,0,1,.26.63.77.77,0,0,1-.07.34.7.7,0,0,1-.19.29.85.85,0,0,1-.29.19.88.88,0,0,1-.33.06,1,1,0,0,1-.35-.06.8.8,0,0,1-.29-.2.86.86,0,0,1-.2-.28.93.93,0,0,1-.06-.34Z"/><path class="cls-43" d="M331.3,369.24V361.9h1.27v.84a4.06,4.06,0,0,1,.5-.43,3.47,3.47,0,0,1,.52-.3,3.13,3.13,0,0,1,.57-.18,2.32,2.32,0,0,1,.59-.07,2.71,2.71,0,0,1,1.13.22,2.26,2.26,0,0,1,.86.65,3,3,0,0,1,.55,1,4.6,4.6,0,0,1,.18,1.35v4.24h-1.29v-4.12a4.25,4.25,0,0,0-.1-1,2,2,0,0,0-.3-.69,1.21,1.21,0,0,0-.51-.41,1.92,1.92,0,0,0-.74-.13,2.4,2.4,0,0,0-.85.14,1.61,1.61,0,0,0-.62.43,1.83,1.83,0,0,0-.36.71,3.28,3.28,0,0,0-.13,1v4.06Z"/><path class="cls-43" d="M339.57,369.24V361.9h1.27v.84a5,5,0,0,1,.5-.43,3.12,3.12,0,0,1,.53-.3,2.81,2.81,0,0,1,.56-.18,2.4,2.4,0,0,1,.6-.07,2.75,2.75,0,0,1,1.13.22,2.34,2.34,0,0,1,.86.65,2.93,2.93,0,0,1,.54,1,4.6,4.6,0,0,1,.18,1.35v4.24h-1.28v-4.12a4.22,4.22,0,0,0-.11-1,2,2,0,0,0-.3-.69,1.21,1.21,0,0,0-.51-.41,1.88,1.88,0,0,0-.74-.13,2.44,2.44,0,0,0-.85.14,1.69,1.69,0,0,0-.62.43,2,2,0,0,0-.36.71,3.62,3.62,0,0,0-.13,1v4.06Z"/><path class="cls-43" d="M347.79,369.24V361.9h1.32v7.34Zm-.21-9.8a.87.87,0,0,1,.06-.32,1.08,1.08,0,0,1,.19-.3,1,1,0,0,1,.3-.19.8.8,0,0,1,.34-.07.81.81,0,0,1,.35.07.91.91,0,0,1,.29.19,1,1,0,0,1,.18.28.81.81,0,0,1,.07.35.77.77,0,0,1-.07.34.79.79,0,0,1-.18.29,1,1,0,0,1-.3.19.9.9,0,0,1-.34.06,1,1,0,0,1-.34-.06.8.8,0,0,1-.29-.2.86.86,0,0,1-.2-.28.93.93,0,0,1-.06-.34Z"/><path class="cls-43" d="M352.06,365H357a2.52,2.52,0,0,0-.25-.82,2.28,2.28,0,0,0-.53-.67,2.12,2.12,0,0,0-.75-.44,2.5,2.5,0,0,0-.88-.15,2.57,2.57,0,0,0-.9.15,2.55,2.55,0,0,0-.76.45,2.17,2.17,0,0,0-.55.67,2.79,2.79,0,0,0-.27.83Zm0,1.05a2.45,2.45,0,0,0,.25.93,2.55,2.55,0,0,0,.55.73,2.83,2.83,0,0,0,.83.47,3.24,3.24,0,0,0,1,.16,3.1,3.1,0,0,0,.69-.08A3.07,3.07,0,0,0,356,368a3.56,3.56,0,0,0,.58-.37,5.2,5.2,0,0,0,.55-.51l.92.72a4.58,4.58,0,0,1-.73.73,3.56,3.56,0,0,1-1.69.78,5.42,5.42,0,0,1-1,.09,4.69,4.69,0,0,1-.84-.08,4.85,4.85,0,0,1-.77-.21,4.28,4.28,0,0,1-.7-.38,4.14,4.14,0,0,1-.6-.52,3.69,3.69,0,0,1-.4-.55,2.64,2.64,0,0,1-.31-.63,3.46,3.46,0,0,1-.19-.7,4.17,4.17,0,0,1-.06-.71,4.42,4.42,0,0,1,.26-1.59,3.55,3.55,0,0,1,.77-1.24A3.76,3.76,0,0,1,353,362a4.18,4.18,0,0,1,1.54-.27,4.09,4.09,0,0,1,1.56.29,3.69,3.69,0,0,1,2,2.2,5.12,5.12,0,0,1,.26,1.71V366Z"/><path class="cls-43" d="M360,368.54a.93.93,0,0,1,.06-.34,1,1,0,0,1,.19-.28,1.37,1.37,0,0,1,.3-.19,1.05,1.05,0,0,1,.7,0,1,1,0,0,1,.27.19.86.86,0,0,1,.2.28.78.78,0,0,1,.07.35.77.77,0,0,1-.07.34.89.89,0,0,1-.2.29,1.69,1.69,0,0,1-.29.17.72.72,0,0,1-.33.07.81.81,0,0,1-.35-.07,1.41,1.41,0,0,1-.29-.18.86.86,0,0,1-.2-.28.93.93,0,0,1-.06-.34Z"/><path class="cls-29" d="M83.05,352.36A11.34,11.34,0,1,1,71.71,363.7,11.34,11.34,0,0,1,83.05,352.36Z"/><path class="cls-44" d="M83.05,353.64A10.06,10.06,0,1,1,73,363.7,10.05,10.05,0,0,1,83.05,353.64Z"/><path class="cls-29" d="M86.07,363.1a3.36,3.36,0,0,1-1.75.37,8.47,8.47,0,0,1,.65-1.71,2.42,2.42,0,0,0,1.14.55l.28.08c.09,0,.2.09.21.18S86.41,362.92,86.07,363.1Z"/><path class="cls-29" d="M83.88,366.51a3.72,3.72,0,0,0,1.47,2.36c-.62.25-2.55-.92-3.15-2.52a7.67,7.67,0,0,1-.46-5,.41.41,0,0,1,.49-.22,4.29,4.29,0,0,0,2.55.45A7.45,7.45,0,0,0,83.88,366.51Z"/><path class="cls-29" d="M88,368.1a2.13,2.13,0,0,1,1,.19,2.94,2.94,0,0,0-.52.57c-.45.57-1,1.21-1.93,1l-.46-.11.35.32a2.07,2.07,0,0,1,.67,1.83,2.81,2.81,0,0,0,0,.72,3.49,3.49,0,0,1-2.08-2.31c-4.72.35-7.32-4.56-7.87-7.77a1.85,1.85,0,0,0-1.73-.44c-.16,0-.31.06-.36,0s0-.13,0-.31a3.81,3.81,0,0,1,2.1-2.28,8.93,8.93,0,0,1,1.94-3.63,4.5,4.5,0,0,1,4.85-.64,3.37,3.37,0,0,1,1.82,3.13.94.94,0,0,0,.68.65c.28.11.35.16.32.32s-.09.23-.65.49l-.06.16a.69.69,0,0,1-.25.8,3.54,3.54,0,0,1-3.54,0,.7.7,0,0,0-.82.35,7.68,7.68,0,0,0,.38,5.45,5.26,5.26,0,0,0,3.2,2.84l.13,0A3.74,3.74,0,0,1,88,368.1Z"/><path class="cls-44" d="M85.85,359.86c.24,1.05-2.42,1.43-3,.69A6.83,6.83,0,0,0,85.85,359.86Z"/><path class="cls-44" d="M81.86,357.39a.62.62,0,0,1,.87-.23A.45.45,0,0,0,81.86,357.39Z"/><path class="cls-44" d="M82.06,359.27c-.06-.25,0-.74.35-.77s.53.31.57.7-.1.57-.34.63S82.12,359.55,82.06,359.27Z"/><path class="cls-44" d="M82.17,359.55c.15.36,0-.86.31-1s.76.48.71.92c.1-.18.13-1-.4-1.21S81.75,358.53,82.17,359.55Z"/><path class="cls-29" d="M82.24,359c0-.12,0-.22.15-.23s.19.07.21.18,0,.22-.15.23S82.26,359.09,82.24,359Z"/><path class="cls-44" d="M82.92,358.5a.42.42,0,0,0,.45-.17.35.35,0,0,1-.28.39Z"/><path class="cls-44" d="M84.66,358.53a1,1,0,0,0-.64,1,1.59,1.59,0,0,1,1.66-.88C85.61,358.44,85.14,358.3,84.66,358.53Z"/><path class="cls-29" d="M88.67,366,90,368.39a6.88,6.88,0,0,1-.8,1l-2.6-.83Z"/><path class="cls-29" d="M75.13,359.32l2.14-2.64L88.78,366c.44.63-1.38,2.9-2.14,2.64Z"/><path class="cls-44" d="M77.41,357.15l11.08,9c.14.2,0,.69-.41,1.27s-1,1.06-1.34,1l-11.07-9Zm9.19,11.61c.49.17,1.24-.46,1.76-1.16.21-.27.85-1.2.52-1.67v0h0l-11.51-9.32-.1-.08-.08.1L75,359.24l-.07.1.09.08,11.51,9.32h0Z"/><path class="cls-29" d="M75.14,359.3c-.35-.29-.17-1.11.42-1.84s1.36-1.09,1.72-.8.17,1.12-.42,1.84S75.5,359.59,75.14,359.3Z"/><path class="cls-44" d="M75.33,359.07a.4.4,0,0,1-.12-.25,2,2,0,0,1,.5-1.21,1.89,1.89,0,0,1,1.08-.73.28.28,0,0,1,.26.06.31.31,0,0,1,.12.24,1.91,1.91,0,0,1-.5,1.21,1.94,1.94,0,0,1-1.08.74A.35.35,0,0,1,75.33,359.07Zm1.63-.49a2.35,2.35,0,0,0,.62-1.57.67.67,0,0,0-.22-.45.63.63,0,0,0-.48-.12,2.86,2.86,0,0,0-2,2.51.58.58,0,0,0,.19.44.74.74,0,0,0,.52.13A2.36,2.36,0,0,0,77,358.58Z"/><path class="cls-29" d="M90.37,368.6l.7,1.38-1.44-.46A5.62,5.62,0,0,0,90.37,368.6Z"/><path class="cls-29" d="M79.06,363.33a2.85,2.85,0,0,0,3-.89c.39-.68,1.08,2.07-.89,3Z"/><path class="cls-44" d="M79.45,363.57a3.08,3.08,0,0,0,2.66-1.07s0,0,0,0h0s.16.19.19.6a2.54,2.54,0,0,1-1.1,2.18l.14.21a2.83,2.83,0,0,0,1.17-2.69c0-.19-.14-.51-.36-.55-.06,0-.18,0-.27.17a2.93,2.93,0,0,1-2.41.95Z"/><polygon class="cls-45" points="86.65 368.75 90.71 370.18 91.02 369.98 87.08 368.46 86.65 368.75"/><path class="cls-44" d="M79.43,363.63a3.07,3.07,0,0,0,2.67-1c.37.08.13,1.83-1,2.54a.18.18,0,0,0,.24.26,2.83,2.83,0,0,0,1.17-2.69c0-.19-.14-.51-.36-.55-.06,0-.18,0-.27.17a3,3,0,0,1-2.48.91C79.26,363.27,79.21,363.56,79.43,363.63Z"/><polygon class="cls-45" points="88.67 366.39 91.04 370.01 91.26 369.61 89 366.14 88.67 366.39"/><path class="cls-29" d="M0,0V648H648V0ZM-85-85H733V733H-85Z"/></svg>