<svg id="graphic" xmlns="http://www.w3.org/2000/svg" xmlns:xlink="http://www.w3.org/1999/xlink" viewBox="0 0 648 648"><defs><style>.cls-1,.cls-34{fill:#7340d8;}.cls-2{fill:#a888e7;}.cls-13,.cls-17,.cls-18,.cls-19,.cls-2,.cls-21,.cls-22,.cls-24,.cls-25,.cls-28,.cls-29,.cls-3,.cls-30,.cls-31,.cls-34,.cls-35,.cls-4,.cls-41,.cls-5,.cls-6,.cls-7{fill-rule:evenodd;}.cls-3{fill:#926be1;}.cls-4{fill:#c8bbf1;}.cls-5{fill:#fffb2b;}.cls-6{fill:#ffffd2;}.cls-7{fill:#ffff70;}.cls-8{fill:url(#New_Gradient_1);}.cls-9{fill:#ffffb3;}.cls-10,.cls-21{fill:#fff;}.cls-11{fill:#ffff68;}.cls-12{fill:url(#radial-gradient);}.cls-13{fill:#ffc200;}.cls-14{fill:#ffd400;}.cls-15{fill:#ffdc00;}.cls-16{fill:#ffd200;}.cls-17{fill:#ffe;}.cls-18,.cls-20{fill:#ffa900;}.cls-19{fill:#333;}.cls-22{fill:#7c7c7c;}.cls-23{fill:#6cbaf2;}.cls-24{fill:#c8bcf1;}.cls-25{fill:#bdaeee;}.cls-26{fill:#d8d0f5;}.cls-27{fill:#ffffba;}.cls-28{fill:#ffb1b5;}.cls-29{fill:#ff9498;}.cls-30{fill:#f34e42;}.cls-31{fill:#f68077;}.cls-32{fill:#ffc8cb;}.cls-33{fill:#f2f6fa;}.cls-35,.cls-36{fill:#ded7f7;}.cls-37{fill:#c1aaee;}.cls-38{fill:#b195e9;}.cls-39{fill:#d0bff2;}.cls-40{fill:none;}.cls-41{fill:#6d6f71;}</style><radialGradient id="New_Gradient_1" cx="372.58" cy="283.22" r="120.04" gradientTransform="translate(309.4 -180.5) rotate(45)" gradientUnits="userSpaceOnUse"><stop offset="0" stop-color="#ffffc2"/><stop offset="0.5" stop-color="#ffffc2"/><stop offset="0.83" stop-color="#7340d8"/><stop offset="1" stop-color="#7340d8"/></radialGradient><radialGradient id="radial-gradient" cx="389.95" cy="226.52" r="117.92" gradientUnits="userSpaceOnUse"><stop offset="0" stop-color="#ffdc00"/><stop offset="0.8" stop-color="#ff0"/><stop offset="1" stop-color="#ffff68"/></radialGradient></defs><title>Artboard 1</title><rect class="cls-1" x="-14.17" y="-14.17" width="676.35" height="676.35"/><path class="cls-2" d="M34.19,540c0-59.65,129.75-108,289.81-108s289.81,48.35,289.81,108c0,28.28-29.16,54-76.89,73.27H111.08C63.35,594,34.19,568.28,34.19,540Z"/><path class="cls-3" d="M60.67,547c0-59.65,117.89-108,263.33-108s263.33,48.35,263.33,108c0,28.28-26.49,54-69.86,73.27H130.53C87.16,601,60.67,575.28,60.67,547Z"/><path class="cls-4" d="M376.69,464.87c-13.77-.6-42.76-.82-52.56,3.74s13.11,4.69,14.44,10c1.13,4.52-31.42,2.77-32.79,8.48s47.6,5.17,49.6,9.75-12,3.16-11.13,6.26c1.42,5,53.13,6.07,59.74,2.53s-11.45-5.89-21.38-9.39c-6.38-2.25,4.42-3.65,20.17-3,11.79.48,27.52,1.52,27.34-4-.2-6-44.51-6.21-39.89-9.42s24.39,0,24.56-5.17C415,469.77,394.46,465.64,376.69,464.87Z"/><path class="cls-5" d="M369,470.3c-6.84-.24-22.49.22-22.32,2.91s14,2.06,13.88,5.59c-.24,5.44-24.91,3.68-25.66,7.49s27.8,3.94,35.62,4.14c12.45.32,27.08.92,27-2.76,0-4-23.44-2-22.64-7.42.62-4.25,13.36-2.5,13.5-5.94C388.59,471.06,377.84,470.6,369,470.3Z"/><path class="cls-6" d="M369.42,501.09c-.2,2.76,21.83,3.13,22.47,1S369.61,498.33,369.42,501.09Z"/><path class="cls-7" d="M391.43,472.89c-.56,2.24,10.11,2.69,10.77,1S392,470.64,391.43,472.89Z"/><path class="cls-4" d="M322.63,506.44c-.43,6.25,35.14,6.09,36.27,1.28S323.07,500.19,322.63,506.44Z"/><path class="cls-7" d="M336,507c-.16,2.27,12.34,2.18,12.74.43S336.18,504.68,336,507Z"/><path class="cls-6" d="M359.63,495.57c-.16,2.27,8.25,1.9,8.56.14S359.79,493.3,359.63,495.57Z"/><circle class="cls-8" cx="372.58" cy="283.22" r="120.04" transform="translate(-91.14 346.41) rotate(-45)"/><ellipse class="cls-9" cx="372.58" cy="283.35" rx="76.7" ry="76.7" transform="translate(-24.63 35.71) rotate(-5.31)"/><path class="cls-10" d="M327.44,322.78a1.41,1.41,0,1,0-1.9-.62A1.42,1.42,0,0,0,327.44,322.78Z"/><path class="cls-11" d="M380.54,206.69a74.41,74.41,0,1,0,67.65,80.61A74.38,74.38,0,0,0,380.54,206.69Z"/><path class="cls-12" d="M377.46,209.93a67.38,67.38,0,1,0,61.26,73A67.38,67.38,0,0,0,377.46,209.93Z"/><path class="cls-13" d="M404.42,239.63a6.68,6.68,0,1,0,6.07,7.23A6.67,6.67,0,0,0,404.42,239.63Z"/><path class="cls-14" d="M332.42,251.4a2.51,2.51,0,1,0,2.28,2.72A2.51,2.51,0,0,0,332.42,251.4Z"/><path class="cls-13" d="M373.54,227.26a11.33,11.33,0,1,0,10.29,12.27A11.34,11.34,0,0,0,373.54,227.26Z"/><path class="cls-15" d="M355.93,326a5,5,0,1,0,4.57,5.44A5,5,0,0,0,355.93,326Z"/><path class="cls-14" d="M401.29,314.31a8.19,8.19,0,1,0,7.45,8.88A8.19,8.19,0,0,0,401.29,314.31Z"/><path class="cls-14" d="M424.58,296.28a5,5,0,1,0,4.56,5.44A5,5,0,0,0,424.58,296.28Z"/><path class="cls-16" d="M421.79,269.79a3.85,3.85,0,1,0,3.5,4.18A3.85,3.85,0,0,0,421.79,269.79Z"/><path class="cls-17" d="M310.2,288.07c8.26-55.42,41.65-75.09,95.65-64.49-11.92-7.79-42.67-16.58-71.12,2.56C307.93,244.18,307.39,281.17,310.2,288.07Z"/><path class="cls-18" d="M361.62,280.89c-5.23-1.84-9.46.94-9.72,4.14-.24,3,2.61,6.27,7.19,6-2.71-1.61-4.08-3.56-3.8-5.75C355.63,282.57,357.79,281.18,361.62,280.89Z"/><path class="cls-13" d="M346,280c.11-12.82-12.3-15.76-13.45-3.71C335.93,272.45,344.24,272.71,346,280Z"/><path class="cls-19" d="M336.26,273.32c-2-.43-3.48-1.95-2.67-3.81a3.44,3.44,0,0,0-.43,5.88Z"/><path class="cls-19" d="M346,280c-.66-7.76-11.56-11.1-13.45-3.71C335.29,274.68,342.53,275.37,346,280Z"/><path class="cls-20" d="M359.52,296.19c-2.63-.34-5.41,2-5.08,4.69.26,2.19,2.09,4,5.27,4.51-2.1,2.31-2.24,6.22-.63,7.63s4.8,1.71,6.5-.15a5.46,5.46,0,0,1-9.12,2.42c-2.23-2.31-1.73-6.75,1.07-9-3.66.14-6.43-1.79-6.91-4.73C350.1,298.41,353.84,294,359.52,296.19Z"/><path class="cls-13" d="M387,271.37c4.44-2.5,10.2-2,13.15,3.18,3.05,5.33-.15,16.06-9.38,14.38C380.07,287,382.41,273.94,387,271.37Z"/><path class="cls-19" d="M384.75,269.92c-2.38.35-4.12-1.89-3.52-3.63a3.28,3.28,0,0,0,1.24,5.7Z"/><path class="cls-19" d="M383.56,269.73c4.43-2.51,10.19-2,13.15,3.18,3,5.33-.16,16.06-9.38,14.38C376.66,285.34,379,272.3,383.56,269.73Z"/><path class="cls-21" d="M389.9,271.32c9.33,1.92,7.4,20.23-2.87,18.15C377.66,287.58,379.5,269.18,389.9,271.32Z"/><path class="cls-19" d="M387.11,271.19c7.79,1.16,7.41,18.76-1.17,17.52C378.12,287.58,378.42,269.9,387.11,271.19Z"/><path class="cls-22" d="M386.82,275c3.81.55,3.46,10.16-.74,9.57C382.25,284,382.56,274.38,386.82,275Z"/><path class="cls-21" d="M385.35,277.51c2.66-.1,2.6,5.6-.39,5.15C382.45,282.29,383.07,277.6,385.35,277.51Z"/><path class="cls-18" d="M402,292.92c-4-1.29-7.86,2.45-6.47,5.71A19,19,0,0,1,402,292.92Z"/><path class="cls-18" d="M398.22,290.68c-4-1.29-7.86,2.45-6.47,5.71A19,19,0,0,1,398.22,290.68Z"/><polygon class="cls-11" points="102.31 121.54 104 116 109.72 116.91 104.98 113.59 107.6 108.43 102.98 111.91 98.89 107.82 100.77 113.29 95.61 115.92 101.4 115.82 102.31 121.54"/><polygon class="cls-11" points="465.9 230.73 468.08 223.6 475.45 224.76 469.34 220.49 472.73 213.84 466.77 218.33 461.49 213.05 463.92 220.11 457.28 223.49 464.74 223.36 465.9 230.73"/><polygon class="cls-11" points="316.19 180 317.88 174.46 323.6 175.37 318.86 172.05 321.49 166.89 316.86 170.38 312.77 166.28 314.65 171.75 309.49 174.38 315.28 174.28 316.19 180"/><polygon class="cls-11" points="569.43 305.67 571.62 298.54 578.98 299.71 572.87 295.43 576.26 288.78 570.3 293.27 565.03 288 567.46 295.05 560.81 298.44 568.27 298.3 569.43 305.67"/><polygon class="cls-11" points="507.48 356.86 509.17 351.34 514.87 352.24 510.14 348.94 512.76 343.8 508.16 347.27 504.08 343.19 505.95 348.64 500.82 351.26 506.58 351.16 507.48 356.86"/><polygon class="cls-23" points="170.09 362.63 171.98 356.45 178.36 357.46 173.07 353.76 176 348 170.84 351.89 166.27 347.32 168.38 353.43 162.62 356.36 169.08 356.25 170.09 362.63"/><polygon class="cls-23" points="375.38 183.64 377.27 177.46 383.65 178.47 378.36 174.76 381.29 169.01 376.13 172.9 371.56 168.33 373.67 174.44 367.91 177.37 374.37 177.26 375.38 183.64"/><polygon class="cls-10" points="430.64 430.15 431.17 422.72 437.87 425.97 431.71 421.79 437.87 417.61 431.17 420.87 430.64 413.44 430.1 420.87 423.4 417.61 429.57 421.79 423.4 425.97 430.1 422.72 430.64 430.15"/><path class="cls-10" d="M127.79,288.59a4.5,4.5,0,1,1,4.5,4.51A4.51,4.51,0,0,1,127.79,288.59Z"/><circle class="cls-10" cx="84.88" cy="421.74" r="1.16"/><path class="cls-10" d="M144.54,435.42a3.31,3.31,0,1,1,3.31,3.31A3.31,3.31,0,0,1,144.54,435.42Z"/><path class="cls-10" d="M152.35,258.16a1.45,1.45,0,1,1,1.45,1.45A1.45,1.45,0,0,1,152.35,258.16Z"/><path class="cls-10" d="M413.64,407.22a2.76,2.76,0,1,1,2.75,2.76A2.75,2.75,0,0,1,413.64,407.22Z"/><path class="cls-10" d="M548.46,442.46a1.16,1.16,0,1,1,1.15,1.16A1.15,1.15,0,0,1,548.46,442.46Z"/><path class="cls-10" d="M450.32,387.89a1.33,1.33,0,1,0-2.65.05,1.33,1.33,0,0,0,2.65-.05Z"/><path class="cls-10" d="M444.34,389.65a1.06,1.06,0,1,0-1,1.07A1.05,1.05,0,0,0,444.34,389.65Z"/><path class="cls-10" d="M430.92,388a2.22,2.22,0,1,1,2.22,2.21A2.22,2.22,0,0,1,430.92,388Z"/><polygon class="cls-10" points="408.25 395.46 408.79 388.03 415.49 391.29 409.32 387.11 415.49 382.93 408.79 386.18 408.25 378.75 407.72 386.18 401.02 382.93 407.18 387.11 401.02 391.29 407.72 388.03 408.25 395.46"/><path class="cls-10" d="M428.21,341.11a1.45,1.45,0,1,1,1.45,1.44A1.45,1.45,0,0,1,428.21,341.11Z"/><path class="cls-10" d="M520.73,313.55a1.45,1.45,0,1,1,1.45,1.45A1.45,1.45,0,0,1,520.73,313.55Z"/><path class="cls-10" d="M529.92,347.68a1.15,1.15,0,1,0-2,1.22,1.15,1.15,0,0,0,2-1.22Z"/><path class="cls-10" d="M503.13,324.16a2.75,2.75,0,1,1,2.75,2.76A2.75,2.75,0,0,1,503.13,324.16Z"/><path class="cls-10" d="M411.61,249.55a1.45,1.45,0,1,1,1.44,1.45A1.44,1.44,0,0,1,411.61,249.55Z"/><path class="cls-10" d="M500.32,296.79a1.16,1.16,0,1,0,.37-1.59A1.17,1.17,0,0,0,500.32,296.79Z"/><polygon class="cls-11" points="144.95 318.88 146.64 313.36 152.33 314.26 147.61 310.96 150.23 305.82 145.62 309.29 141.54 305.21 143.42 310.66 138.28 313.28 144.05 313.18 144.95 318.88"/><polygon class="cls-23" points="139.89 374.18 141.36 369.36 146.34 370.15 142.21 367.26 144.5 362.77 140.47 365.8 136.91 362.24 138.55 367 134.06 369.29 139.1 369.2 139.89 374.18"/><path class="cls-10" d="M189.63,371.9a1.16,1.16,0,1,0,.37-1.6A1.16,1.16,0,0,0,189.63,371.9Z"/><path class="cls-10" d="M291.14,426.68a1.16,1.16,0,1,1-.37-1.6A1.16,1.16,0,0,1,291.14,426.68Z"/><circle class="cls-10" cx="293.08" cy="413.02" r="0.97"/><path class="cls-24" d="M256.92,518.48c.4,4.49,14.39,3.77,14-.71C270.61,514.19,256.6,514.73,256.92,518.48Z"/><path class="cls-25" d="M224.52,437.6c4.59-7.54-2.15-29.4-17.61-36.21-17.37-7.66-27.35,7.28-20.22,15.85C195,427.26,213.56,410.58,224.52,437.6Z"/><path class="cls-26" d="M224.52,437.6c.53-25.27-22.43-37.64-30-29.92-4.66,4.78-3.25,9.72-.21,13.15-3-.29-5.63-1.14-7.66-3.59-7.13-8.57,2.85-23.51,20.22-15.85C222.37,408.2,229.11,430.06,224.52,437.6Z"/><path class="cls-27" d="M190.05,411.65a3,3,0,1,1,2,3.73A3,3,0,0,1,190.05,411.65Z"/><path class="cls-27" d="M194.73,404.27a1.49,1.49,0,1,1,1,1.87A1.49,1.49,0,0,1,194.73,404.27Z"/><path class="cls-25" d="M204.07,477.05c1.52-7-9.39-21.92-23-23.07-15.3-1.28-19,12.79-11.29,17.47C178.76,476.92,188.56,459.27,204.07,477.05Z"/><path class="cls-26" d="M204.07,477.05c-6.25-19.47-27.08-22.88-30.81-15-2.3,4.88.08,8.29,3.3,10.11a8.53,8.53,0,0,1-6.8-.72c-7.71-4.68-4-18.75,11.29-17.47C194.68,455.13,205.59,470.08,204.07,477.05Z"/><path class="cls-27" d="M170.86,466.28a2.41,2.41,0,1,1,2.49,2.33A2.4,2.4,0,0,1,170.86,466.28Z"/><path class="cls-27" d="M172.49,459.4a1.21,1.21,0,1,1,1.25,1.17A1.22,1.22,0,0,1,172.49,459.4Z"/><path class="cls-25" d="M219.57,447.6c.84-3.85-5.17-12.08-12.67-12.71-8.43-.7-10.47,7-6.22,9.62C205.63,447.52,211,437.8,219.57,447.6Z"/><path class="cls-26" d="M219.57,447.6c-3.44-10.73-14.91-12.61-17-8.26a4,4,0,0,0,1.82,5.57,4.73,4.73,0,0,1-3.75-.4c-4.25-2.58-2.21-10.32,6.22-9.62C214.4,435.52,220.41,443.75,219.57,447.6Z"/><path class="cls-27" d="M201.28,441.66a1.33,1.33,0,0,1,2.66-.09,1.33,1.33,0,1,1-2.66.09Z"/><path class="cls-28" d="M300.15,330.69a20.27,20.27,0,0,0,26.49,9.8c6.46-2.93,8.88,4,4.82,10.7-6.82,11.17-32,20.29-47.44,6.2Z"/><path class="cls-10" d="M300,364.39c23-2.27,32.63-14.48,31.34-20.58-.84-4-7.72.43-15-.26a12,12,0,0,1-8.68-4.47,20,20,0,0,0,19,1.41c6.46-2.93,8.88,4,4.82,10.7C326.7,359,313,365.77,300,364.39Z"/><path class="cls-28" d="M323.71,417.28c-6.42,3.55-21.95-.18-31.79-17.11s-6.59-39,9.78-61.08c34.94-24.19,28.39-70.91,4.17-88.12-25.11-17.85-71.48-17.13-93.36,35.76-17.31,41.84-12,96.86,19.29,127.25,18.84,18.31,63.45,35.08,93.14,17.74C333,427,331.11,421,323.71,417.28Z"/><path class="cls-28" d="M345.13,386c-4.37,8.89,8.27,19.1-5.05,32.34,17.13-2,21,17.61,28.82,20.46-5.48,6.72-37.43,11.21-48.34-12.31C317.48,411,325.7,390.59,345.13,386Z"/><path class="cls-10" d="M321.91,428.65c-69.52,15.3-117.26-47.78-91.42-109.34,3.63-8.65,7.78-9.15,10.09-4.57,9.71,20.75,32.06,26.77,50.47,21.95,4.29-1.12,5.81,1.92,2,7.32-25.59,35.91-6.39,79.08,26.93,78.54C325.88,421.91,327.5,427.23,321.91,428.65Z"/><path class="cls-29" d="M290.18,317.36c.89-3.31-1.33-8.65-7.2-10.8-8.29-3-12.57-.78-17.7,1.94C277.54,309,284.85,311.31,290.18,317.36Z"/><path class="cls-30" d="M294,326.14c-4.94-3-5.77-8.43-14.55-11.37-11.23-3.75-15.76.64-24.86-2.48,2.14,4.32,7.59,11.27,20.05,15.19C282.41,329.94,291.77,328.75,294,326.14Z"/><path class="cls-31" d="M285.18,328.83c-.56-6.17-2.74-10.93-8.15-14.76-8.19-2.55-17.91.3-22.49-1.84C258.45,321.42,272.65,329.92,285.18,328.83Z"/><path class="cls-19" d="M305.41,291.34c4.16-1.5,10,.94,9.39,4.83C317.67,291.41,311.15,285.79,305.41,291.34Z"/><path class="cls-32" d="M310,254.33a40.25,40.25,0,0,0-4.11-3.36c-25.11-17.85-71.48-17.13-93.36,35.76-17.31,41.84-12,96.86,19.29,127.25,16.84,16.36,54.24,31.49,83.2,22.15-20.12,1.75-50.55-1.5-75.34-22.46-33.57-28.4-34.13-69.06-28.69-95.11s23.78-72.1,67.25-68.2c30.67,2.76,43,26.28,47.59,47.44C327.1,281,320.87,264.46,310,254.33Z"/><path class="cls-19" d="M253.3,293.53c7.09.19,10.35,2.19,11.43,5.38C268.76,293,259.08,287.87,253.3,293.53Z"/><path class="cls-19" d="M262.65,292.75a6.54,6.54,0,0,0,6.67.63c.33,1.4-3.14,3.9-5.37,2.85Z"/><path class="cls-19" d="M278.6,277.58c-.84-3.69-4.85-5.17-9.62-4.11C273.27,268.82,281.83,272.1,278.6,277.58Z"/><path class="cls-21" d="M296.59,308.28c2.21-4.36,6.57-8.41,11.18-5.83,5,2.79,3.31,7.73,1.09,12.08s-6.44,6.84-10,4.78C295.53,317.35,294.37,312.63,296.59,308.28Z"/><path class="cls-19" d="M300,309.74c.52-2.56,3.11-7.12,7.24-6.23,4.49,1,4.56,4.54,3.3,8.32s-4.64,6.67-7.12,6.11C299,316.94,299.4,312.6,300,309.74Z"/><path class="cls-19" d="M295.69,310.12c2.22-4,6.19-7.93,10.19-6.41,5.3,2,3.25,10.21-.6,13.84,3.33-.53,9.55-9.18,4.61-14.64C307,299.68,297.54,300.14,295.69,310.12Z"/><path class="cls-19" d="M310.27,303.9c1.18,1.29,3.78,2.42,5,1.65,0,1.39-3.25,2.22-4.25,1.45Z"/><path class="cls-21" d="M307.87,306.48c2.74,1.09.11,6.83-2.71,5C302.79,310,305.52,305.54,307.87,306.48Z"/><path class="cls-10" d="M312.15,329.93c5.77-8.89,12-22.87,10-43.08-2-19.19-21.52-46.64-57.23-41.81-29.69,4-51.92,34.88-61.12,75.55a129.41,129.41,0,0,1,8.76-33.86c21.88-52.89,68.25-53.61,93.36-35.76C327.3,266.2,334.9,304.54,312.15,329.93Z"/><path class="cls-10" d="M322.3,417.89c-11.82,3.7-25.13-3.4-33-17-9.06-15.64-5.39-31.62-.15-38.33-4.48,13.72-3.55,26.7,2.78,37.6C301.1,416,315.23,420.27,322.3,417.89Z"/><path class="cls-10" d="M345.13,386c-4.37,8.89,8.27,19.1-5.05,32.34,17.13-2,21,17.61,28.82,20.46-1.76,2.16-6.26,4.09-11.91,4.93q6.64-1.9,8.58-4.69c-8.3-4.62-8-20.11-27.91-19.77,12.22-16.19,1-23.13,4.91-29.37-7.87.85-14.79,6.47-20.2,16.73C326,397.07,333.56,388.74,345.13,386Z"/><path class="cls-33" d="M240.49,314.56c-27.4,40.4.39,122.84,83.1,113.45a7.38,7.38,0,0,1-1.68.64c-69.52,15.3-117.26-47.78-91.42-109.34C234.07,310.78,238.16,310.17,240.49,314.56Z"/><path class="cls-28" d="M222.92,304.61c-15,4-27.32-2.36-34.62-9-5.26-4.76-10-.9-10.44,6.89-.83,13.06,16.67,35.77,37.29,37Z"/><path class="cls-10" d="M216.75,305.71c-2.95,1.81-10.88,1.5-17-.66-10-3.52-12.57-10-17-8.39-3.26,1.19-3.14,9.78-1,14.85,5,12,18,21.92,23.76,25.86-16.11-6.14-28.31-23.88-27.62-34.84.49-7.79,5.18-11.65,10.44-6.89C194.57,301.32,204.55,306.82,216.75,305.71Z"/><path class="cls-34" d="M248.31,502.25c.51,9.71,36.35,8.92,35.84-.77C283.75,493.74,247.88,494.13,248.31,502.25Z"/><path class="cls-35" d="M257.51,487.6c.18-12,6.65-34.18,17.23-40.5,8.2-4.91,14.41,4.48,7.59,8.44-8,4.63-18.34,13.37-20.64,32.72C261,490.25,258.12,489.8,257.51,487.6Z"/><path class="cls-27" d="M276.76,449.29A1.47,1.47,0,1,1,278,451,1.46,1.46,0,0,1,276.76,449.29Z"/><path class="cls-27" d="M274.17,450.81a.88.88,0,1,1,.73,1A.88.88,0,0,1,274.17,450.81Z"/><path class="cls-24" d="M271.1,499.46c-.62-13.14-11.59-46.71-35.36-47-19-.25-18.07,22.18-4.18,24.08,14.86,2,26.24,9.44,29,24.49C262.17,505.45,271.13,505,271.1,499.46Z"/><path class="cls-36" d="M271,500.5c-2.4-16-20.51-42.67-33.78-41.46-11.93,1.09-11.73,12.73-7.24,17.14-12.34-3.32-12.47-24,5.77-23.76,23.77.33,34.74,33.9,35.36,47A5,5,0,0,1,271,500.5Z"/><path class="cls-34" d="M242.46,505.63c.26,3,9.58,2.51,9.32-.48C251.57,502.77,242.24,503.13,242.46,505.63Z"/><path class="cls-24" d="M286.43,475.81c-.56-16.59,13.6-47.29,40-48.17,24.31-.81,22.52,24.62,4,24.13C308,451.16,297.9,456.34,286.43,475.81Z"/><path class="cls-36" d="M335.76,451.1c5-5.6,3.38-14.33-4.71-16.75-18.71-5.61-42.12,18.58-44.63,40.19.17-16.82,14.26-46,40-46.9C348.1,426.91,349,447.12,335.76,451.1Z"/><path class="cls-27" d="M332,440a3.47,3.47,0,1,1,3.59,3.35A3.48,3.48,0,0,1,332,440Z"/><path class="cls-27" d="M328,434.72a1.74,1.74,0,1,1,3.47-.12,1.74,1.74,0,1,1-3.47.12Z"/><path class="cls-10" d="M205.25,156.85A2.75,2.75,0,1,1,208,159.6,2.75,2.75,0,0,1,205.25,156.85Z"/><path class="cls-10" d="M283.81,169.26a1.45,1.45,0,1,1,1.45,1.45A1.45,1.45,0,0,1,283.81,169.26Z"/><path class="cls-10" d="M266,163.14a1.15,1.15,0,1,1-.37-1.59A1.14,1.14,0,0,1,266,163.14Z"/><polygon class="cls-10" points="223.9 291.23 223.3 282.84 215.74 286.52 222.7 281.8 215.74 277.08 223.3 280.75 223.9 272.36 224.51 280.75 232.07 277.08 225.11 281.8 232.07 286.52 224.51 282.84 223.9 291.23"/><path class="cls-10" d="M187.3,257.44a1.17,1.17,0,1,1,1.14,1.19A1.16,1.16,0,0,1,187.3,257.44Z"/><path class="cls-10" d="M212.21,250.22a1,1,0,1,1,1,1A1,1,0,0,1,212.21,250.22Z"/><path class="cls-10" d="M202.59,257a1,1,0,0,1-1.41.3,1,1,0,0,1-.3-1.41,1,1,0,1,1,1.71,1.11Z"/><path class="cls-10" d="M205.05,260.32a.82.82,0,1,1,.8.83A.82.82,0,0,1,205.05,260.32Z"/><path class="cls-10" d="M188.54,272.16a1.52,1.52,0,1,1,1.49,1.55A1.52,1.52,0,0,1,188.54,272.16Z"/><circle class="cls-10" cx="272.13" cy="241.72" r="1.78" transform="translate(29.71 513.23) rotate(-89.85)"/><path class="cls-10" d="M264,259.74a1.78,1.78,0,1,1,.57,2.46A1.78,1.78,0,0,1,264,259.74Z"/><path class="cls-10" d="M223.52,251.67a1.88,1.88,0,1,1,1.88,1.88A1.88,1.88,0,0,1,223.52,251.67Z"/><polygon class="cls-10" points="237.59 238.54 236.88 228.74 228.04 233.03 236.18 227.51 228.04 222 236.88 226.29 237.59 216.48 238.3 226.29 247.14 222 239 227.51 247.14 233.03 238.3 228.74 237.59 238.54"/><path class="cls-10" d="M246.42,261.61A2.38,2.38,0,1,1,248.8,264,2.39,2.39,0,0,1,246.42,261.61Z"/><path class="cls-10" d="M232.52,201.34a2.32,2.32,0,1,1,2.31,2.31A2.3,2.3,0,0,1,232.52,201.34Z"/><path class="cls-10" d="M280.44,264.65a1.17,1.17,0,0,1,2.33,0,1.17,1.17,0,1,1-2.33,0Z"/><path class="cls-10" d="M251.86,235.87a1,1,0,1,1,.32,1.4A1,1,0,0,1,251.86,235.87Z"/><path class="cls-10" d="M257.78,257.38a.82.82,0,0,1,.82-.82.82.82,0,0,1,.81.82.81.81,0,0,1-.81.81A.82.82,0,0,1,257.78,257.38Z"/><path class="cls-10" d="M253.49,219.35a1,1,0,1,0,1.78-1.11,1.05,1.05,0,0,0-1.45-.33A1,1,0,0,0,253.49,219.35Z"/><path class="cls-10" d="M256.49,233.49a1.31,1.31,0,1,0,.42-1.81A1.32,1.32,0,0,0,256.49,233.49Z"/><path class="cls-10" d="M221,240.75a1.32,1.32,0,1,1,1.29,1.33A1.3,1.3,0,0,1,221,240.75Z"/><path class="cls-10" d="M232,253.63a1.31,1.31,0,1,1,1.31,1.31A1.31,1.31,0,0,1,232,253.63Z"/><path class="cls-10" d="M291.52,274.81a1.45,1.45,0,1,1,1.44,1.45A1.44,1.44,0,0,1,291.52,274.81Z"/><path class="cls-10" d="M279.51,206.51a1.31,1.31,0,0,1-2.22-1.39,1.31,1.31,0,1,1,2.22,1.39Z"/><path class="cls-10" d="M270.22,230.48a1.08,1.08,0,1,1,1.07,1.08A1.07,1.07,0,0,1,270.22,230.48Z"/><path class="cls-10" d="M255.89,304.14a1.45,1.45,0,1,1-.46-2A1.47,1.47,0,0,1,255.89,304.14Z"/><path class="cls-10" d="M207.05,327a1.15,1.15,0,1,1-2-1.22,1.16,1.16,0,0,1,1.6-.37A1.15,1.15,0,0,1,207.05,327Z"/><path class="cls-10" d="M226.59,264.42a1.3,1.3,0,0,1-1.81.42,1.31,1.31,0,1,1,1.39-2.22A1.3,1.3,0,0,1,226.59,264.42Z"/><path class="cls-10" d="M223.75,294.62a2.5,2.5,0,1,1,2.49,2.5A2.49,2.49,0,0,1,223.75,294.62Z"/><path class="cls-10" d="M215.07,262.1a1.32,1.32,0,1,1,1.32,1.31A1.32,1.32,0,0,1,215.07,262.1Z"/><path class="cls-10" d="M299.24,219a1,1,0,1,1-1.78-1.11,1,1,0,0,1,1.44-.33A1.05,1.05,0,0,1,299.24,219Z"/><path class="cls-10" d="M238.1,305a2.76,2.76,0,1,1,2.75,2.75A2.75,2.75,0,0,1,238.1,305Z"/><path class="cls-10" d="M203.81,287.93a1.16,1.16,0,1,1-.37-1.59A1.16,1.16,0,0,1,203.81,287.93Z"/><path class="cls-10" d="M273.12,222.67a1.31,1.31,0,1,1-.41-1.81A1.31,1.31,0,0,1,273.12,222.67Z"/><path class="cls-10" d="M271.58,189a1.16,1.16,0,1,1-.37-1.6A1.16,1.16,0,0,1,271.58,189Z"/><path class="cls-10" d="M299.58,212.81a1.16,1.16,0,1,1-.37-1.6A1.15,1.15,0,0,1,299.58,212.81Z"/><polygon class="cls-10" points="199.77 254.73 199.12 245.76 191.03 249.69 198.47 244.64 191.03 239.59 199.12 243.52 199.77 234.55 200.41 243.52 208.5 239.59 201.06 244.64 208.5 249.69 200.41 245.76 199.77 254.73"/><path class="cls-10" d="M219.4,224.74a1.87,1.87,0,1,1,1.87,1.86A1.87,1.87,0,0,1,219.4,224.74Z"/><path class="cls-10" d="M224.22,235.83a.79.79,0,1,1,1.58,0,.79.79,0,0,1-.8.78A.79.79,0,0,1,224.22,235.83Z"/><path class="cls-10" d="M181.51,226.21a2.47,2.47,0,1,1,2.47,2.46A2.46,2.46,0,0,1,181.51,226.21Z"/><path class="cls-10" d="M216.43,233.42a1,1,0,0,0,1.32.31,1,1,0,1,0-1.32-.31Z"/><path class="cls-10" d="M187.42,230.13a1.07,1.07,0,1,1,2.13,0,1.07,1.07,0,0,1-2.13,0Z"/><path class="cls-10" d="M175.24,234a1,1,0,0,1,1.42-.32,1,1,0,0,1-1.09,1.74A1,1,0,0,1,175.24,234Z"/><path class="cls-10" d="M169,239.92a.82.82,0,1,1,.82.82A.82.82,0,0,1,169,239.92Z"/><path class="cls-10" d="M180.79,238.08a1.39,1.39,0,1,1,1.39,1.39A1.39,1.39,0,0,1,180.79,238.08Z"/><path class="cls-10" d="M160.46,249.3a2.72,2.72,0,1,1,2.72,2.72A2.72,2.72,0,0,1,160.46,249.3Z"/><path class="cls-10" d="M160.42,219a1.06,1.06,0,1,0,.33-1.46A1.07,1.07,0,0,0,160.42,219Z"/><path class="cls-10" d="M156.55,206.92a1.06,1.06,0,1,0,.34-1.45A1.06,1.06,0,0,0,156.55,206.92Z"/><path class="cls-10" d="M144.31,232.26a1.32,1.32,0,0,0,2.24-1.4,1.32,1.32,0,1,0-2.24,1.4Z"/><path class="cls-10" d="M153.27,266.25a1.16,1.16,0,1,0,.37-1.59A1.15,1.15,0,0,0,153.27,266.25Z"/><polygon class="cls-10" points="171.95 292.37 171.25 282.58 162.42 286.87 170.54 281.36 162.42 275.86 171.25 280.14 171.95 270.36 172.66 280.14 181.49 275.86 173.36 281.36 181.49 286.87 172.66 282.58 171.95 292.37"/><polygon class="cls-10" points="248.15 283.3 248.71 275.55 255.7 278.94 249.27 274.58 255.7 270.23 248.71 273.62 248.15 265.87 247.59 273.62 240.61 270.23 247.04 274.58 240.61 278.94 247.59 275.55 248.15 283.3"/><polygon class="cls-10" points="294.74 268.83 295.12 263.52 299.92 265.84 295.5 262.85 299.92 259.86 295.12 262.19 294.74 256.88 294.36 262.19 289.56 259.86 293.97 262.85 289.56 265.84 294.36 263.52 294.74 268.83"/><path class="cls-10" d="M307.59,210.94a1.16,1.16,0,1,1,1.16,1.16A1.17,1.17,0,0,1,307.59,210.94Z"/><path class="cls-10" d="M316.39,219.93a.6.6,0,0,0-.84-.19.61.61,0,1,0,.84.19Z"/><path class="cls-10" d="M288.58,253.1a1.06,1.06,0,0,1-1.45.34,1.05,1.05,0,0,1-.33-1.45,1,1,0,0,1,1.78,1.11Z"/><path class="cls-10" d="M287.62,234.35a1,1,0,1,1-.33-1.44A1,1,0,0,1,287.62,234.35Z"/><path class="cls-10" d="M237.41,268.16a.88.88,0,1,0-.28,1.21A.88.88,0,0,0,237.41,268.16Z"/><path class="cls-10" d="M296.05,210.76a1.05,1.05,0,0,0,1.45.33,1,1,0,0,0,.33-1.44,1.05,1.05,0,0,0-1.44-.34A1.06,1.06,0,0,0,296.05,210.76Z"/><path class="cls-10" d="M229.81,211.59a2,2,0,1,1,2,2A2,2,0,0,1,229.81,211.59Z"/><path class="cls-10" d="M258.5,199.73a1.79,1.79,0,1,0-.57,2.45A1.78,1.78,0,0,0,258.5,199.73Z"/><path class="cls-10" d="M175.57,211.31a1.57,1.57,0,1,1,1.57,1.58A1.57,1.57,0,0,1,175.57,211.31Z"/><path class="cls-10" d="M143.66,207.08a1,1,0,1,0-.94,1A1,1,0,0,0,143.66,207.08Z"/><path class="cls-10" d="M319.32,210.26a.51.51,0,1,1-.86-.54.51.51,0,0,1,.7-.16A.5.5,0,0,1,319.32,210.26Z"/><path class="cls-10" d="M238.57,318.56A1.45,1.45,0,1,1,240,320,1.45,1.45,0,0,1,238.57,318.56Z"/><path class="cls-37" d="M98.46,365.36c0,124.57,101,225.55,225.54,225.55s225.54-101,225.54-225.55S448.57,139.82,324,139.82,98.46,240.8,98.46,365.36ZM-14.17-14.17H662.17V662.17H-14.17Z"/><path class="cls-38" d="M167.39,203.05C210.12,111.48,303,48,410.73,48c115.14,0,213.34,72.51,251.44,174.35V410.41c-38.1,101.85-136.3,174.35-251.44,174.35a271.11,271.11,0,0,1-28.36-1.48c96.27-25.72,167.17-113.54,167.17-217.92,0-124.56-101-225.54-225.54-225.54A224.81,224.81,0,0,0,167.39,203.05Z"/><path class="cls-39" d="M-14.17,504.3a146.16,146.16,0,0,0,255.93,71.15,224.86,224.86,0,0,0,32.05,9.85,174.45,174.45,0,0,1-121.26,76.87H103.49A174.39,174.39,0,0,1-14.17,590.55Zm0-116.07a174.42,174.42,0,0,1,117.92-71.65q-2.34,10.57-3.66,21.5A146.29,146.29,0,0,0-14.17,458Z"/><path class="cls-21" d="M105.19,187.08a2.94,2.94,0,0,1,1.23,2.26,3.89,3.89,0,0,1-.92,2.61l-2.6,3.33,17.2,13.44a4.57,4.57,0,0,1,1.73,2.56,3.19,3.19,0,0,1-.7,2.84,3.34,3.34,0,0,1-2.61,1.44,4.51,4.51,0,0,1-2.94-1.05l-17.2-13.45-2.66,3.41A4,4,0,0,1,93.44,206a3,3,0,0,1-2.52-.69A3.07,3.07,0,0,1,89.65,203a3.83,3.83,0,0,1,.88-2.59l9.79-12.54a3.92,3.92,0,0,1,2.3-1.54A3,3,0,0,1,105.19,187.08Z"/><path class="cls-21" d="M144.78,183a4.44,4.44,0,0,1,1.33,2.72,3.47,3.47,0,0,1-3.75,3.58,4.31,4.31,0,0,1-2.69-1.37l-7.13-7.39a5.65,5.65,0,0,0-2.93-1.78,3.63,3.63,0,0,0-3.31,1.13,3.57,3.57,0,0,0-1.15,2.88,4.5,4.5,0,0,0,1.32,3l7.47,7.74a4.44,4.44,0,0,1,1.33,2.72,3.47,3.47,0,0,1-3.75,3.58,4.28,4.28,0,0,1-2.69-1.37l-19.21-19.89a4.2,4.2,0,0,1-1.24-2.67,3.21,3.21,0,0,1,1.07-2.63,3.25,3.25,0,0,1,2.63-1,4.1,4.1,0,0,1,2.65,1.34l5.94,6.14a15.44,15.44,0,0,1,1.23-3.25,9.67,9.67,0,0,1,1.93-2.6,10.68,10.68,0,0,1,2.87-2,7.71,7.71,0,0,1,3.35-.74,6.93,6.93,0,0,1,3.3.79,11.6,11.6,0,0,1,3,2.31Z"/><path class="cls-21" d="M162.15,156.81a3.48,3.48,0,0,1,.95,2.33,3.17,3.17,0,0,1-1.42,2.05l-10.36,8.1a9.27,9.27,0,0,0,1.25.67,4.93,4.93,0,0,0,2.3.45,5.19,5.19,0,0,0,3.36-1.16,8.5,8.5,0,0,0,1.73-1.84,7.81,7.81,0,0,0,.78-1.34l.94-2.07a3,3,0,0,1,.88-1.06,3,3,0,0,1,2.23-.65,2.7,2.7,0,0,1,2,1,3,3,0,0,1,.55,2.26,7.55,7.55,0,0,1-.63,2.31,13.56,13.56,0,0,1-2,3.47,17.1,17.1,0,0,1-3,3,13.6,13.6,0,0,1-5.06,2.52,12,12,0,0,1-5.58.07,11.31,11.31,0,0,1-4-1.7,15.39,15.39,0,0,1-3.23-3.15,12.49,12.49,0,0,1-2.67-9.15,11.5,11.5,0,0,1,4.54-8.27,11.1,11.1,0,0,1,8.64-2.39A11.54,11.54,0,0,1,162.15,156.81Zm-6.45,3a7.14,7.14,0,0,0-3.14-1.51,4.22,4.22,0,0,0-3.38,1,4,4,0,0,0-1.6,3,8.49,8.49,0,0,0,.59,3.43Z"/><path class="cls-21" d="M210.42,141.92a3,3,0,0,1,.12,2.66,3.82,3.82,0,0,1-1.94,2,3.24,3.24,0,0,1-1.68.34,6.48,6.48,0,0,1-1.93-.5l-16.58-6.55,4.72,9.67a4.48,4.48,0,0,1,.4,3.06,3.23,3.23,0,0,1-1.85,2.24,3.38,3.38,0,0,1-3,.14,4.43,4.43,0,0,1-2.17-2.22l-10.86-22.26a4.47,4.47,0,0,1-.39-3.08,3.38,3.38,0,0,1,1.92-2.27,3.3,3.3,0,0,1,2.9-.1,4.45,4.45,0,0,1,2.17,2.23l3.95,8.11,4.12-14.62a6.11,6.11,0,0,1,.76-1.81,3.22,3.22,0,0,1,1.3-1.22,3.68,3.68,0,0,1,2.73-.21,3.19,3.19,0,0,1,2.07,1.71,3.93,3.93,0,0,1,.42,1.73,7.85,7.85,0,0,1-.33,2l-3.76,11.34,13.22,5a14.32,14.32,0,0,1,2.14,1A4.08,4.08,0,0,1,210.42,141.92Z"/><path class="cls-21" d="M212.8,110.66a4,4,0,0,1-.05,3.14,3.8,3.8,0,0,1-2.23,2.16,4.1,4.1,0,0,1-5.33-2.37,4,4,0,0,1,.09-3.12,3.88,3.88,0,0,1,2.28-2.21,3.79,3.79,0,0,1,3.11.12A4,4,0,0,1,212.8,110.66Zm9.31,25.84a4.43,4.43,0,0,1,.15,3,3.45,3.45,0,0,1-4.84,1.83,4.28,4.28,0,0,1-1.95-2.31l-6.12-16a4.24,4.24,0,0,1-.1-2.95,3.2,3.2,0,0,1,2-2,3.26,3.26,0,0,1,2.8.13,4.15,4.15,0,0,1,1.92,2.27Z"/><path class="cls-21" d="M244.07,124.73a7.66,7.66,0,0,1-.71,6.49,8.53,8.53,0,0,1-2.33,2.4,11.65,11.65,0,0,1-3.14,1.6,14.45,14.45,0,0,1-5.74.65q-3.84-.31-4.63-2.74a3.12,3.12,0,0,1,.2-2.26,2.66,2.66,0,0,1,1.59-1.55,4.21,4.21,0,0,1,1.23-.25c.31,0,1.18.11,2.63.31a10.23,10.23,0,0,0,1.57.1,4.45,4.45,0,0,0,1.31-.23,2.69,2.69,0,0,0,1.22-.85,1.27,1.27,0,0,0,.32-1.26,1.66,1.66,0,0,0-1.36-1.07,12.24,12.24,0,0,0-1.88-.2l-2-.05a12.42,12.42,0,0,1-4.81-1,5.83,5.83,0,0,1-3.14-3.62,6.92,6.92,0,0,1,.43-5.49,8.88,8.88,0,0,1,5.53-4.73,13.35,13.35,0,0,1,3.3-.64,9.43,9.43,0,0,1,3.17.36,6.52,6.52,0,0,1,1.81.9,2.76,2.76,0,0,1,1.06,1.4,3.51,3.51,0,0,1-.13,2.33A2.43,2.43,0,0,1,238,117l-.12-.06a6.24,6.24,0,0,1-1.74.09l-1.24-.13a16.62,16.62,0,0,0-1.9,0,4.75,4.75,0,0,0-1.11.21,3.49,3.49,0,0,0-1,.7.92.92,0,0,0-.26.94l0,.09c.18.55.83.91,2,1.08a15.88,15.88,0,0,0,2.46.11c1.38.09,2.4.19,3.08.31a10.23,10.23,0,0,1,3,1A6,6,0,0,1,244.07,124.73Z"/><path class="cls-21" d="M267.37,119.23a7.64,7.64,0,0,1-1.28,6.4,8.41,8.41,0,0,1-2.53,2.19,11.52,11.52,0,0,1-3.26,1.32,14.41,14.41,0,0,1-5.78.15c-2.53-.43-4-1.48-4.37-3.13a3.09,3.09,0,0,1,.4-2.23,2.63,2.63,0,0,1,1.72-1.41,4.17,4.17,0,0,1,1.25-.14c.3,0,1.16.21,2.58.53a10.67,10.67,0,0,0,1.56.24A5,5,0,0,0,259,123a2.71,2.71,0,0,0,1.28-.74,1.27,1.27,0,0,0,.43-1.23,1.66,1.66,0,0,0-1.26-1.19,12.37,12.37,0,0,0-1.86-.36l-2-.22a12.65,12.65,0,0,1-4.7-1.38A5.86,5.86,0,0,1,248,114a7,7,0,0,1,.92-5.44,8.84,8.84,0,0,1,5.92-4.22,13,13,0,0,1,3.34-.35,9.38,9.38,0,0,1,3.13.63,6.63,6.63,0,0,1,1.72,1.06,2.75,2.75,0,0,1,.93,1.48,3.49,3.49,0,0,1-.33,2.32A2.44,2.44,0,0,1,262,111l-.11-.08a6,6,0,0,1-1.74-.06l-1.23-.24a16.41,16.41,0,0,0-1.89-.2,4.48,4.48,0,0,0-1.12.11,3.84,3.84,0,0,0-1.11.6,1,1,0,0,0-.34.92l0,.09c.13.56.75,1,1.87,1.25a15.51,15.51,0,0,0,2.44.32c1.36.21,2.37.4,3,.58a10.78,10.78,0,0,1,2.89,1.2A6.07,6.07,0,0,1,267.37,119.23Z"/><path class="cls-21" d="M311,109.66a15,15,0,0,1-.4,4.84,11.7,11.7,0,0,1-2.09,4.19,11.7,11.7,0,0,1-17.29,1.21,10.85,10.85,0,0,1-2.65-3.86,15.49,15.49,0,0,1-.72-9.57,11,11,0,0,1,2.16-4.17,12.77,12.77,0,0,1,3.73-3.1,11.14,11.14,0,0,1,4.6-1.36,11.39,11.39,0,0,1,4.76.71,11.89,11.89,0,0,1,4.1,2.48,11.09,11.09,0,0,1,2.68,3.9A15,15,0,0,1,311,109.66Zm-6.89.48a6.88,6.88,0,0,0-1.58-4,4.41,4.41,0,0,0-3.83-1.72,4.09,4.09,0,0,0-3.4,2.28,7.21,7.21,0,0,0-.86,4.13A7.52,7.52,0,0,0,296,115a3.91,3.91,0,0,0,3.6,1.61,4.42,4.42,0,0,0,3.56-2.18A6.82,6.82,0,0,0,304.15,110.14Z"/><path class="cls-21" d="M331.74,100.48a2.88,2.88,0,0,1-1,2.35,3.84,3.84,0,0,1-2.53.88l-1.92,0,.25,14.11a4.41,4.41,0,0,1-.89,2.89,3.46,3.46,0,0,1-5.18.07,4.3,4.3,0,0,1-1-2.84l-.25-14.11-1,0a4,4,0,0,1-2.56-.77,3.22,3.22,0,0,1-.08-4.68,3.82,3.82,0,0,1,2.53-.89h1L319.05,94a7,7,0,0,1,2.3-5.51A6.76,6.76,0,0,1,323.61,87a7.77,7.77,0,0,1,2.7-.53,6.38,6.38,0,0,1,3,.53,2.74,2.74,0,0,1,1.48,2.56,3.35,3.35,0,0,1-.73,2.27,2.49,2.49,0,0,1-2,1,2.09,2.09,0,0,0-1.48.46,2,2,0,0,0-.4,1.49l0,2.69,1.92,0a3.91,3.91,0,0,1,2.56.77A2.86,2.86,0,0,1,331.74,100.48Z"/><path class="cls-21" d="M369,103.75a2.83,2.83,0,0,1-1.28,2.18,3.84,3.84,0,0,1-2.63.53l-2-.25-1.74,14.2a4.41,4.41,0,0,1-1.28,2.74,3.21,3.21,0,0,1-2.74.83,3.16,3.16,0,0,1-2.4-1.48,4.28,4.28,0,0,1-.63-3L356,105.35a12.7,12.7,0,0,1-1.85-.33,3,3,0,0,1-1.55-1.16,3.17,3.17,0,0,1-.5-2.19,3.5,3.5,0,0,1,.61-1.59,2.24,2.24,0,0,1,1.05-.93,3.59,3.59,0,0,1,1.19-.22,8.36,8.36,0,0,1,1.15,0l.67.09.54-4.39A4.16,4.16,0,0,1,358.64,92a3.54,3.54,0,0,1,5.17.61,4.22,4.22,0,0,1,.59,2.9l-.54,4.38,2,.25a3.9,3.9,0,0,1,2.43,1.12A2.84,2.84,0,0,1,369,103.75Z"/><path class="cls-21" d="M393.43,125.87a4.38,4.38,0,0,1-1.47,2.64,3.46,3.46,0,0,1-5.09-1,4.34,4.34,0,0,1-.42-3l2-10.08a5.6,5.6,0,0,0-.21-3.42,3.62,3.62,0,0,0-2.83-2.06,3.57,3.57,0,0,0-3,.7,4.51,4.51,0,0,0-1.67,2.79L378.63,123a4.44,4.44,0,0,1-1.47,2.65,3.47,3.47,0,0,1-5.08-1,4.27,4.27,0,0,1-.42-3l5.27-27.14a4.25,4.25,0,0,1,1.48-2.55,3.18,3.18,0,0,1,2.76-.63,3.23,3.23,0,0,1,2.31,1.6,4.13,4.13,0,0,1,.43,2.94l-1.63,8.39a15.19,15.19,0,0,1,3.37-.86,9.73,9.73,0,0,1,3.23.09,10.7,10.7,0,0,1,3.29,1.2A7.77,7.77,0,0,1,394.7,107a7,7,0,0,1,1.24,3.16,11.91,11.91,0,0,1-.19,3.75Z"/><path class="cls-21" d="M425,126a3.54,3.54,0,0,1-1.41,2.09,3.14,3.14,0,0,1-2.49,0L408.57,124a8.71,8.71,0,0,0,.15,1.41,4.76,4.76,0,0,0,.91,2.16,5.21,5.21,0,0,0,2.84,2.14,8.89,8.89,0,0,0,2.49.4,7,7,0,0,0,1.55-.1l2.24-.38a3,3,0,0,1,1.37.14,3,3,0,0,1,1.79,1.49,2.69,2.69,0,0,1,.24,2.2,3,3,0,0,1-1.57,1.71,7.5,7.5,0,0,1-2.27.78,13.44,13.44,0,0,1-4,.29,16.69,16.69,0,0,1-4.13-.81,13.71,13.71,0,0,1-4.92-2.78,12,12,0,0,1-3.18-4.59,11.23,11.23,0,0,1-.81-4.26,15,15,0,0,1,.81-4.43,12.45,12.45,0,0,1,6.09-7.33,11.47,11.47,0,0,1,9.39-.86,11.1,11.1,0,0,1,6.81,5.82A11.56,11.56,0,0,1,425,126Zm-6.07-3.69a7.14,7.14,0,0,0-.51-3.44,4.25,4.25,0,0,0-2.72-2.25,4,4,0,0,0-3.35.33,8.6,8.6,0,0,0-2.51,2.41Z"/><path class="cls-21" d="M474,160.69a4.46,4.46,0,0,1-2,2,2.57,2.57,0,0,1-2.46-.12,6.74,6.74,0,0,1-1.62-1.23,2.78,2.78,0,0,1-.73-1.51,4.08,4.08,0,0,1,.07-1.6,10,10,0,0,1,.51-1.58l5.13-14.4-11.21,10.92a11,11,0,0,1-2.64,2.1,3.62,3.62,0,0,1-3.28-.34,3.84,3.84,0,0,1-1.91-2,5.85,5.85,0,0,1,0-3.06l3.23-16.33-9.86,12.65a3.86,3.86,0,0,1-5.41,1.06A2.69,2.69,0,0,1,440.4,145a4.71,4.71,0,0,1,.59-2.8l.46-.63,15.12-19.16a7.42,7.42,0,0,1,1.25-1.26,3.94,3.94,0,0,1,1.46-.65,5.11,5.11,0,0,1,3.41.58,5.81,5.81,0,0,1,2.27,2.14,3.93,3.93,0,0,1,.44,2.87l-3.31,17,12.05-11.43a5.66,5.66,0,0,1,2.86-1.49,4.36,4.36,0,0,1,3.07.49,5.57,5.57,0,0,1,2.33,2.47,4.06,4.06,0,0,1,.22,3.23l-8.13,23.37Z"/><path class="cls-21" d="M501.85,169.91a14.75,14.75,0,0,1-3.42,3.45,11.49,11.49,0,0,1-4.29,1.86,11.69,11.69,0,0,1-14-10.18,10.68,10.68,0,0,1,.45-4.66,15.43,15.43,0,0,1,5.6-7.8,10.76,10.76,0,0,1,4.34-1.8,12.91,12.91,0,0,1,4.84,0,11.07,11.07,0,0,1,4.4,1.92,11.47,11.47,0,0,1,3.2,3.6,12.07,12.07,0,0,1,1.54,4.53,11,11,0,0,1-.46,4.71A14.81,14.81,0,0,1,501.85,169.91Zm-5.59-4.06a6.82,6.82,0,0,0,1.37-4.09A4.4,4.4,0,0,0,495.8,158a4.08,4.08,0,0,0-4.06-.44,7.19,7.19,0,0,0-3.32,2.61,7.53,7.53,0,0,0-1.5,4.14,3.93,3.93,0,0,0,1.72,3.56,4.43,4.43,0,0,0,4.13.6A6.79,6.79,0,0,0,496.26,165.85Z"/><path class="cls-21" d="M523.76,190.54a14.7,14.7,0,0,1-3.87,2.94,11.61,11.61,0,0,1-4.51,1.25,11.37,11.37,0,0,1-4.76-.66,11.74,11.74,0,0,1-7.7-11.38,10.7,10.7,0,0,1,1.09-4.55,15.39,15.39,0,0,1,6.63-6.94,10.84,10.84,0,0,1,4.55-1.18,12.81,12.81,0,0,1,4.8.7,11,11,0,0,1,4.08,2.51,11.37,11.37,0,0,1,2.67,4,12,12,0,0,1,.89,4.7,11.25,11.25,0,0,1-1.1,4.6A14.9,14.9,0,0,1,523.76,190.54Zm-5-4.8a6.8,6.8,0,0,0,1.92-3.86,4.38,4.38,0,0,0-1.28-4,4.09,4.09,0,0,0-4-1,7.26,7.26,0,0,0-3.66,2.13,7.58,7.58,0,0,0-2.06,3.89,3.94,3.94,0,0,0,1.21,3.76,4.42,4.42,0,0,0,4,1.18A6.83,6.83,0,0,0,518.79,185.74Z"/><path class="cls-21" d="M535.7,219a4.43,4.43,0,0,1-2.85,1,3.46,3.46,0,0,1-3.17-4.1,4.28,4.28,0,0,1,1.64-2.53l8.4-6.56a4.79,4.79,0,0,0,1.86-2.77,3.66,3.66,0,0,0-.86-3.13,3.51,3.51,0,0,0-2.67-1.39,4.21,4.21,0,0,0-2.95.91l-8.62,6.73a4.43,4.43,0,0,1-2.85,1,3.46,3.46,0,0,1-3.17-4.1,4.34,4.34,0,0,1,1.66-2.54l13.36-10.45a4.74,4.74,0,0,1,2.86-1.07,3,3,0,0,1,2.54,1.25l.11.15a2.92,2.92,0,0,1,.65,2,4.68,4.68,0,0,1-.68,2.21,9,9,0,0,1,6,3.47,10.8,10.8,0,0,1,1.66,2.94,8.24,8.24,0,0,1,.46,3.32,6.49,6.49,0,0,1-1.05,3.26,11.51,11.51,0,0,1-2.65,2.8Z"/><path class="cls-21" d="M251.56,71.43a2.06,2.06,0,0,1-.13,1.26,2.71,2.71,0,0,1-.78,1.08,7,7,0,0,1-2,1.38,11.83,11.83,0,0,1-2.54.82,9.2,9.2,0,0,1-7.06-1.2,8.93,8.93,0,0,1-3.16-3.31,14.88,14.88,0,0,1-1.61-4.38,9.7,9.7,0,0,1,1.24-7.52,9.6,9.6,0,0,1,6.39-4.23,10.35,10.35,0,0,1,3.74-.15c1.58.24,2.49.89,2.71,2a2.58,2.58,0,0,1-.11,1.6,1.58,1.58,0,0,1-1.2.89,2.7,2.7,0,0,1-.75,0c-.26,0-.58-.09-1-.16a6.58,6.58,0,0,0-2.39,0,4.62,4.62,0,0,0-3.47,2.58,6.91,6.91,0,0,0-.3,4.48,10.06,10.06,0,0,0,1,2.7,5.11,5.11,0,0,0,1.8,1.87,4.74,4.74,0,0,0,3.55.53,6.82,6.82,0,0,0,.94-.26,3.12,3.12,0,0,0,.81-.42l1.16-.92a2.3,2.3,0,0,1,.84-.36l.18,0a1.59,1.59,0,0,1,1.41.36A2.47,2.47,0,0,1,251.56,71.43Z"/><path class="cls-21" d="M268.19,68.78a2.81,2.81,0,0,1-.26,1.88,2.18,2.18,0,0,1-3.2.55,2.69,2.69,0,0,1-.91-1.65l-1.12-6.33a3.48,3.48,0,0,0-.89-1.94,2.23,2.23,0,0,0-2.11-.57,2.25,2.25,0,0,0-1.61,1.09,2.78,2.78,0,0,0-.34,2l1.16,6.62a2.72,2.72,0,0,1-.26,1.87,2.15,2.15,0,0,1-3.19.55,2.67,2.67,0,0,1-.92-1.65l-3-17a2.6,2.6,0,0,1,.29-1.81,2,2,0,0,1,1.47-1,2,2,0,0,1,1.7.41,2.54,2.54,0,0,1,.91,1.62l.93,5.26a10,10,0,0,1,1.77-1.26,6.48,6.48,0,0,1,1.91-.67,6.72,6.72,0,0,1,2.19,0,4.82,4.82,0,0,1,2,.79,4.37,4.37,0,0,1,1.44,1.56,7.69,7.69,0,0,1,.73,2.23Z"/><path class="cls-21" d="M286.34,66.34a2.92,2.92,0,0,1-.39,1.92,2,2,0,0,1-1.55,1,1.78,1.78,0,0,1-1.38-.36,2.92,2.92,0,0,1-.93-1.23,4.79,4.79,0,0,1-3.47,2.3,5.83,5.83,0,0,1-2.3-.17,7.41,7.41,0,0,1-2.19-1,7.07,7.07,0,0,1-2.26-2.53,9.92,9.92,0,0,1-.94-6.61,7.73,7.73,0,0,1,3.34-4.58,5.61,5.61,0,0,1,2.36-.85,5.24,5.24,0,0,1,4,1.26,3.56,3.56,0,0,1,.67-1.23,2.07,2.07,0,0,1,1.28-.64,2.13,2.13,0,0,1,1.66.47,2.26,2.26,0,0,1,.82,1.53Zm-5.1-4.55a4.58,4.58,0,0,0-1-2.61,2.84,2.84,0,0,0-2.59-.89,2.6,2.6,0,0,0-2.06,1.46,4.4,4.4,0,0,0-.4,2.6,4.61,4.61,0,0,0,1,2.49,2.54,2.54,0,0,0,2.42,1,2.8,2.8,0,0,0,2.17-1.36A4,4,0,0,0,281.24,61.79Z"/><path class="cls-21" d="M304.64,59.29A9.19,9.19,0,0,1,303.33,65,6.09,6.09,0,0,1,298.39,68a5.2,5.2,0,0,1-3.5-1.08l.33,4.79a2.65,2.65,0,0,1-.47,1.78,2.19,2.19,0,0,1-3.22.24,2.62,2.62,0,0,1-.74-1.72l-1.16-16.56a3.4,3.4,0,0,1,.4-1.9,1.78,1.78,0,0,1,1.51-.89A2.1,2.1,0,0,1,293,53a3.18,3.18,0,0,1,.87,1.18,5,5,0,0,1,1.56-1.36,4.65,4.65,0,0,1,2-.57,6.7,6.7,0,0,1,2.44.23,5.41,5.41,0,0,1,2,1.14,7.23,7.23,0,0,1,2,2.52A8.55,8.55,0,0,1,304.64,59.29Zm-4.35.62a4.34,4.34,0,0,0-.89-2.45,2.5,2.5,0,0,0-2.24-1.1,2.78,2.78,0,0,0-2.26,1.28,4.66,4.66,0,0,0,.31,5.24,2.83,2.83,0,0,0,2.48,1,2.5,2.5,0,0,0,2-1.4A4.58,4.58,0,0,0,300.29,59.91Z"/><path class="cls-21" d="M317.12,53.59a1.77,1.77,0,0,1-.58,1.47,2.36,2.36,0,0,1-1.57.58l-1.26,0,.31,8.93a2.8,2.8,0,0,1-.52,1.82,2.16,2.16,0,0,1-3.24.1,2.71,2.71,0,0,1-.68-1.76l-.31-8.94a6.47,6.47,0,0,1-1.17,0,1.88,1.88,0,0,1-1.07-.56,2,2,0,0,1-.53-1.3,2.28,2.28,0,0,1,.22-1.05,1.52,1.52,0,0,1,.56-.68A2.79,2.79,0,0,1,308,52a4.68,4.68,0,0,1,.71-.08l.42,0L309,49.13a2.56,2.56,0,0,1,.54-1.76,2,2,0,0,1,1.59-.78,2,2,0,0,1,1.66.65,2.64,2.64,0,0,1,.64,1.73l.1,2.76,1.26,0a2.46,2.46,0,0,1,1.61.46A1.81,1.81,0,0,1,317.12,53.59Z"/><path class="cls-21" d="M334,58.86a2.19,2.19,0,0,1-.46,1.51,2,2,0,0,1-1.5.44l-8.21-.14a6.61,6.61,0,0,0,.34.81,3.07,3.07,0,0,0,.94,1.13,3.31,3.31,0,0,0,2.09.76,5.81,5.81,0,0,0,1.56-.22,4.42,4.42,0,0,0,.91-.34l1.27-.64a1.73,1.73,0,0,1,.84-.16,1.84,1.84,0,0,1,1.34.56,1.66,1.66,0,0,1,.55,1.27,1.89,1.89,0,0,1-.62,1.31,4.78,4.78,0,0,1-1.22.88,8.42,8.42,0,0,1-2.32.9,10.37,10.37,0,0,1-2.62.27,8.61,8.61,0,0,1-3.45-.76,7.53,7.53,0,0,1-2.74-2.17,7,7,0,0,1-1.26-2.39,9.36,9.36,0,0,1-.33-2.8,7.78,7.78,0,0,1,2.3-5.49,7.16,7.16,0,0,1,5.46-2.23A6.93,6.93,0,0,1,332,53.59,7.28,7.28,0,0,1,334,58.86Zm-4.3-1.09a4.64,4.64,0,0,0-.93-2,2.65,2.65,0,0,0-2-.84,2.5,2.5,0,0,0-1.94.8,5.36,5.36,0,0,0-1.06,1.9Z"/><path class="cls-21" d="M347.27,54.17a1.71,1.71,0,0,1-.76,1.43,5.88,5.88,0,0,1-1.63.61c-.51.17-.91.31-1.19.42a5.74,5.74,0,0,0-1.19.58,1.57,1.57,0,0,0-.58.71,3.61,3.61,0,0,0-.19,1.07l-.31,6a2.81,2.81,0,0,1-.68,1.77,2,2,0,0,1-1.67.63,2,2,0,0,1-1.57-.82,2.76,2.76,0,0,1-.52-1.82l.56-10.65a3.7,3.7,0,0,1,.16-1,1.76,1.76,0,0,1,.47-.74,2.11,2.11,0,0,1,1.66-.7,2.31,2.31,0,0,1,1.33.48,2.92,2.92,0,0,1,.87,1.2,8.36,8.36,0,0,1,1.34-1A3.3,3.3,0,0,1,345,52a2.45,2.45,0,0,1,1.62.69A1.89,1.89,0,0,1,347.27,54.17Z"/><path class="cls-21" d="M378.45,60.54a12.72,12.72,0,0,1-1.29,4.35,9.4,9.4,0,0,1-3,3.41,8.72,8.72,0,0,1-3.2,1.47,10.56,10.56,0,0,1-3.65.17,10.21,10.21,0,0,1-3.78-1.24,9.36,9.36,0,0,1-3-2.64,9.45,9.45,0,0,1-1.63-3.68,12.78,12.78,0,0,1-.14-4.25,11.63,11.63,0,0,1,1.34-4.26,9.24,9.24,0,0,1,2.9-3.2A9.56,9.56,0,0,1,369.89,49a9.33,9.33,0,0,1,6.76,3.8A10.55,10.55,0,0,1,378.45,60.54Zm-4.88-.6a7.4,7.4,0,0,0-.64-4.42,4.41,4.41,0,0,0-3.6-2.41,4.31,4.31,0,0,0-1.9.19,4.47,4.47,0,0,0-1.69,1,5.29,5.29,0,0,0-1.39,2,9.16,9.16,0,0,0-.67,2.53,8.11,8.11,0,0,0,.59,4.57,4.6,4.6,0,0,0,7.65,1A8.39,8.39,0,0,0,373.57,59.94Z"/><path class="cls-21" d="M394.43,71.29a2.76,2.76,0,0,1-.89,1.67,2.18,2.18,0,0,1-3.19-.58,2.77,2.77,0,0,1-.29-1.87L391.21,64a3,3,0,0,0-.29-2.07,2.29,2.29,0,0,0-1.71-1.09,2.2,2.2,0,0,0-1.82.47,2.64,2.64,0,0,0-1,1.65l-1.19,6.74a2.75,2.75,0,0,1-.88,1.67,2.16,2.16,0,0,1-3.19-.58,2.71,2.71,0,0,1-.3-1.87l1.84-10.44a3.07,3.07,0,0,1,.88-1.7,1.91,1.91,0,0,1,1.7-.48l.12,0a1.83,1.83,0,0,1,1.12.64,2.91,2.91,0,0,1,.61,1.3,5.66,5.66,0,0,1,4.24-.89,6.67,6.67,0,0,1,2,.67A5.14,5.14,0,0,1,395,59.36a4,4,0,0,1,.87,2,7.05,7.05,0,0,1-.06,2.41Z"/><path class="cls-21" d="M413.74,69.88a2.17,2.17,0,0,1-.78,1.36,2,2,0,0,1-1.56.09l-8-2a7.59,7.59,0,0,0,.15.88,3.07,3.07,0,0,0,.66,1.31,3.26,3.26,0,0,0,1.87,1.2,5.66,5.66,0,0,0,1.57.15,5.11,5.11,0,0,0,1-.13l1.38-.34a1.81,1.81,0,0,1,.86,0,1.89,1.89,0,0,1,1.18.85,1.71,1.71,0,0,1,.25,1.36,1.91,1.91,0,0,1-.9,1.13,4.74,4.74,0,0,1-1.39.59,8.68,8.68,0,0,1-2.47.36,10.73,10.73,0,0,1-2.61-.33,8.65,8.65,0,0,1-3.19-1.52,7.61,7.61,0,0,1-2.18-2.73,6.81,6.81,0,0,1-.69-2.61,9.42,9.42,0,0,1,.31-2.8,7.78,7.78,0,0,1,3.48-4.84,7.16,7.16,0,0,1,5.82-.94,7,7,0,0,1,4.5,3.33A7.24,7.24,0,0,1,413.74,69.88Zm-3.94-2a4.68,4.68,0,0,0-.46-2.13,2.7,2.7,0,0,0-1.8-1.28,2.53,2.53,0,0,0-2.07.35A5.23,5.23,0,0,0,404,66.4Z"/><rect class="cls-40" x="591.31" y="591.31" width="70.87" height="70.87"/><circle class="cls-10" cx="635.5" cy="638.33" r="19.84" transform="translate(-199.98 974.93) rotate(-67.07)"/><path class="cls-10" d="M648.25,607.15a9.92,9.92,0,1,1-9.92,9.92A9.93,9.93,0,0,1,648.25,607.15Z"/><path class="cls-41" d="M633.16,633.26l.88-.12a2,2,0,0,0,.51,1.08,1.27,1.27,0,0,0,.89.33,1.4,1.4,0,0,0,1-.43,1.47,1.47,0,0,0,.43-1.06,1.37,1.37,0,0,0-1.41-1.4,2.9,2.9,0,0,0-.62.1l.1-.77h.14a1.84,1.84,0,0,0,1-.29,1,1,0,0,0,.46-.9,1.06,1.06,0,0,0-.33-.8,1.18,1.18,0,0,0-.85-.32,1.16,1.16,0,0,0-.85.33,1.57,1.57,0,0,0-.44,1l-.88-.16a2.21,2.21,0,0,1,.73-1.37,2.08,2.08,0,0,1,1.42-.49,2.32,2.32,0,0,1,1.08.25,1.8,1.8,0,0,1,.75.69,1.7,1.7,0,0,1,.27.92,1.53,1.53,0,0,1-.25.84,1.71,1.71,0,0,1-.74.6,1.64,1.64,0,0,1,1,.61,1.84,1.84,0,0,1,.36,1.16,2.12,2.12,0,0,1-.69,1.59,2.41,2.41,0,0,1-1.73.65,2.24,2.24,0,0,1-1.56-.56A2.13,2.13,0,0,1,633.16,633.26Z"/><path class="cls-10" d="M0,0V648H648V0ZM-85-85H733V733H-85Z"/></svg>