<svg id="graphic" xmlns="http://www.w3.org/2000/svg" viewBox="0 0 648 648"><defs><style>.cls-1{fill:#5f80ce;}.cls-2{fill:#7f99d8;}.cls-3{fill:#4e6bc1;}.cls-4{fill:#00c26c;}.cls-10,.cls-12,.cls-13,.cls-14,.cls-15,.cls-17,.cls-18,.cls-19,.cls-21,.cls-22,.cls-23,.cls-24,.cls-26,.cls-27,.cls-28,.cls-29,.cls-30,.cls-31,.cls-33,.cls-34,.cls-35,.cls-36,.cls-37,.cls-38,.cls-4,.cls-40,.cls-41,.cls-44,.cls-45,.cls-48,.cls-49,.cls-5,.cls-50,.cls-51,.cls-52,.cls-53,.cls-54,.cls-55,.cls-56,.cls-57,.cls-6,.cls-60,.cls-62,.cls-63,.cls-64,.cls-65,.cls-7,.cls-71,.cls-8,.cls-9{fill-rule:evenodd;}.cls-5{fill:#bca4da;}.cls-6{fill:#8f67c1;}.cls-7{fill:#e4f67a;}.cls-8{fill:#d8f241;}.cls-9{fill:#c2dc23;}.cls-10{fill:#d0e0da;}.cls-11{fill:#b9d0c7;}.cls-12{fill:#fffbba;}.cls-13{fill:#ffb15b;}.cls-14{fill:#ffd4a4;}.cls-15{fill:#ff8f5b;}.cls-16,.cls-24{fill:#333;}.cls-17,.cls-20{fill:#fff;}.cls-18{fill:#ff5a52;}.cls-19{fill:#ffb1b5;}.cls-21{fill:#ff9498;}.cls-22{fill:#f34e42;}.cls-23{fill:#f68077;}.cls-25{fill:#ffc8cb;}.cls-26,.cls-46{fill:#ff2b52;}.cls-27{fill:#ff6b86;}.cls-28{fill:#98d873;}.cls-29{fill:#199846;}.cls-30{fill:#5eb77d;}.cls-31{fill:#e2e2c9;}.cls-32{fill:#d8d5c1;}.cls-33{fill:#cecab1;}.cls-34{fill:#8a278f;}.cls-35{fill:#560082;}.cls-36{fill:#ad68b1;}.cls-37{fill:#ffa400;}.cls-38{fill:#ff7900;}.cls-39{fill:#ff4604;}.cls-40{fill:#ffffa9;}.cls-41{fill:#ffdc79;}.cls-42{fill:#8dc3ed;}.cls-43{fill:#5ca9e6;}.cls-44{fill:#ff6382;}.cls-45{fill:#ff92a7;}.cls-47,.cls-48{fill:#ffdccb;}.cls-49{fill:#ff3d00;}.cls-50{fill:#ff0;}.cls-51{fill:#ff5f30;}.cls-52{fill:#00ba49;}.cls-53{fill:#c27dc7;}.cls-54{fill:#ddb0dd;}.cls-55{fill:#f1dff1;}.cls-56{fill:#e9bee1;}.cls-57,.cls-58{fill:#d49cd4;}.cls-59{fill:#ff6f52;}.cls-60{fill:#004eca;}.cls-61{fill:#1998f3;}.cls-62,.cls-66{fill:#ff5b00;}.cls-63{fill:#ffa000;}.cls-64{fill:#ffee3d;}.cls-65{fill:#0c63b9;}.cls-67{fill:#ffcf23;}.cls-68{fill:#ffb616;}.cls-69{fill:#fff249;}.cls-70{fill:none;}.cls-71{fill:#6d6f71;}</style></defs><title>page29</title><rect class="cls-1" x="-14.17" y="-14.17" width="676.35" height="676.35"/><path class="cls-2" d="M139.9-14.18H45.83V154c12.92,37,71.87,75.11,127.64,99.07C271.06,295,332,330.12,301.08,409.55c-26.52,68.08-169.47,115-203.51,252.62h41.71C154.08,545,350,477.48,380.13,405.6c34-81-19.25-155.2-93.64-204.28C191.55,138.67,145.66,54.66,139.9-14.18Z"/><path class="cls-3" d="M45.83,262.78v16.08c42,10.14,115.56,34.05,116.64,76.75,1.16,45.48-72.85,73.37-116.64,83v47.93c51.72-18,139.85-57.37,151.92-116C208.83,316.78,105.17,275.16,45.83,262.78Z"/><path class="cls-4" d="M662.17,307.84c-3-33.87-46-42.83-66.74-21.91-13.94-26.9-51.38-37.4-74.71-10-15.93-25.9-53.09-20.59-63.75,6-15.94-24.9-54.2-21.41-63.75,5C356.36,269,288,319.26,330.55,375.26l331.62,95.95Z"/><path class="cls-5" d="M271.58,408.33c-44.43,7.71-95.87-6.2-101.93-24.87-3.08-9.52,8.36-18.4,15.51-18.2-11.46-16.05.37-26.49,15-24.94-4.06-16.86,13-24.1,24.11-18-1.63-14.79,22.07-21,26.43-8.89,4.72-14.4,26.72-13.67,30.14-2,7.51-14.3,27.64-7.86,29.37,5.34,11.27-11.75,26.19,5.14,19.13,15.88,14.63-9.31,24.3,9.82,15,15.31,9.34,3.78,12.06,11.28,5.45,20.14C339,382.65,294,400.72,271.58,408.33Z"/><path class="cls-6" d="M270.7,406.75c-27.29,1.56-82.48-5.72-87.73-22.26-2.68-8.42,7.13-16.24,13.29-16.05-9.9-14.22.25-23.42,12.8-22-3.53-14.92,11.12-21.28,20.7-15.84-1.44-13.08,18.92-18.49,22.7-7.79,4-12.72,23-12,25.92-1.65,6.43-12.63,23.75-6.88,25.27,4.8,9.67-10.37,22.54,4.61,16.5,14.09,12.56-8.19,20.92,8.75,13,13.58,8,3.36,10.41,10,4.75,17.82C328.58,384.21,290,400.08,270.7,406.75Z"/><path class="cls-7" d="M34.19,509.19C34.19,436.57,163.94,377.7,324,377.7s289.81,58.87,289.81,131.49c0,34.43-29.16,65.77-76.89,89.21H111.08C63.35,575,34.19,543.62,34.19,509.19Z"/><path class="cls-8" d="M60.67,517.71c0-72.62,117.89-131.49,263.33-131.49s263.33,58.87,263.33,131.49c0,34.43-26.49,65.77-69.86,89.21H130.53C87.16,583.48,60.67,552.14,60.67,517.71Z"/><path class="cls-9" d="M513.13,451.44c1,24.06,94,25.45,94,0C607.15,425.71,512.12,427.39,513.13,451.44Z"/><path class="cls-9" d="M393.6,539.9c2.15,35,201.43,37,201.43,0C595,502.45,391.44,504.9,393.6,539.9Z"/><path class="cls-9" d="M355.48,489.42c.88,25.72,82.88,27.21,82.88,0C438.36,461.91,354.59,463.71,355.48,489.42Z"/><path class="cls-9" d="M237.83,509.44c.89,25.72,82.88,27.21,82.88,0C320.71,481.92,236.94,483.72,237.83,509.44Z"/><path class="cls-9" d="M129.13,515.33c.88,25.71,82.88,27.2,82.88,0C212,487.81,128.24,489.61,129.13,515.33Z"/><path class="cls-9" d="M71.74,435.77c1.18,34.45,111,36.45,111,0C182.76,398.91,70.55,401.32,71.74,435.77Z"/><path class="cls-9" d="M194.59,434.1c3,65.78,278.28,69.59,278.28,0C472.87,363.72,191.61,368.32,194.59,434.1Z"/><path class="cls-10" d="M201.11,407.89C200.45,369.9,262,329,335,327.76S474.62,365.05,475.28,403s-27.11,68.79-136.76,70.7C223.35,475.75,201.77,445.88,201.11,407.89Z"/><path class="cls-11" d="M473.5,392.66c-6.59,8.37-19.23,9.55-34.56,2.33-25-11.77-22.9,13-40.41,14.87-17.85,1.93-20-17-36.57-15.73-14.32,1.09-11.78,23-34.34,24.78-14.58,1.16-16.68-19.82-30.72-18.18-10.32,1.2-16.77,17.51-36.47,14.21-13.78-2.3-10.29-14.65-24.72-18.67-8.62-2.39-19.85,12.1-33.43,1.83,8.79-34.91,66-69.18,132.69-70.34C401.25,326.61,462.39,358.35,473.5,392.66Z"/><path class="cls-12" d="M427,482.42c10.77-.21,14.2,9.8,6.51,13.05-22.67,9.58-53.65,6.89-67.18-2.68C352,482.71,346.2,467.14,349.47,449c3.4-18.85,28.34-17.44,28,2.16C376.87,491,422.1,485,427,482.42Z"/><path class="cls-13" d="M382.39,480.84c7.55,14.56,41.23,21,52.46-2.68,11.31-23.88-11.35-44.21-30.57-41C381.24,441.06,372.2,461.2,382.39,480.84Z"/><path class="cls-14" d="M407.87,465.55c3.66-1.15,3.94-6.63.74-8.08-8.32-3.78-11.69,7.16-7.71,11.29,7.86,8.15,16.58,1.46,18.26-4,2.73-8.81-4.17-21.43-18.55-17.52-19.08,5.17-13.76,40.48,12.38,36.23-25.78,9.86-38.12-33-11.64-38.83,15-3.3,24.57,10.31,20.47,21.29-3.13,8.36-15,13.3-22.44,4.1-7-8.66,2.24-19.15,10.38-14.95C417.08,458.9,412.34,467.21,407.87,465.55Z"/><path class="cls-15" d="M382.39,480.84c7.55,14.56,41.23,21,52.46-2.68,10.17-21.47-7.12-40.07-24.68-41.26,14.94,3.2,28,19.38,19.28,37.84-10.35,21.84-41.21,16.13-48.58,2.83C381.32,478.66,381.82,479.75,382.39,480.84Z"/><path class="cls-12" d="M358.38,440.91c.35-2-2.3-5.46-3.62-6.14,1-3.12-3.3-5.72-6.22-2.68a3.09,3.09,0,0,0,3.77,4.78c1.57.41,3.51,3.95,3.31,5.34Z"/><path class="cls-16" d="M347.76,434.26A2.3,2.3,0,0,0,351,435c2-.92,1.56-4-.75-4.05a4.52,4.52,0,0,0-1.73,1.14A2.84,2.84,0,0,0,347.76,434.26Z"/><path class="cls-17" d="M349.81,431.54c1.27-.21,1.12,1.47.18,1.51A.76.76,0,0,1,349.81,431.54Z"/><path class="cls-12" d="M365,439.43c1.54-1.5,1.41-6,.72-7.41,2.77-2,.72-6.84-3.61-6.06a3.22,3.22,0,0,0,.25,6.34c1.08,1.31.54,5.48-.48,6.53Z"/><path class="cls-16" d="M361.57,426.09a3.32,3.32,0,0,0-1.9,4.09,2.1,2.1,0,0,0,.48.39,2.89,2.89,0,0,0,3.87-1.09A2.37,2.37,0,0,0,361.57,426.09Z"/><path class="cls-17" d="M361.54,426.76c-1.17-.34-1.51,1.56-.39,1.67S362.72,427.11,361.54,426.76Z"/><path class="cls-18" d="M365.4,441a21.15,21.15,0,0,1-10,2.17C354.58,448.48,365.94,449.72,365.4,441Z"/><path class="cls-19" d="M312.43,275.62a21.61,21.61,0,0,1-29.2,7.44c-6.52-3.83-9.87,3.29-6.3,10.82,6,12.61,31.66,25.1,49.65,11.87Z"/><path class="cls-19" d="M276.9,360.7c6.41,4.49,23.31,2.27,35.63-14.6s11.35-40.66-3.58-65.9c-34.37-29.57-22.21-78.4,5.39-94C343,170.1,392.1,176.05,409.42,234.6c13.71,46.33,1.91,104.11-34.64,132.86-22,17.33-71.22,30.14-100.79,8.42C265.93,370,268.63,363.87,276.9,360.7Z"/><path class="cls-19" d="M257.65,325.15c3.65,9.91-10.9,19.33,1.76,34.87-18-4-24.2,16.35-32.86,18.49,5.06,7.75,38.47,16.07,52.66-7.66C284.21,354.74,277.76,332.16,257.65,325.15Z"/><path class="cls-20" d="M277.54,373c72.06,24,129.74-37.61,109.18-105.81-2.89-9.57-7.24-10.57-10.21-6-12.61,20.93-37,24.82-56,17.66-4.43-1.67-6.23,1.9-2.75,8.06,23.15,41-6.49,81.55-37.81,78C273.74,363.61,271.77,370.84,277.54,373Z"/><path class="cls-21" d="M327,258.14c-.58-3.62,2.38-9,8.85-10.65,9.12-2.29,13.41.57,18.56,4C341.3,250.65,333.28,252.31,327,258.14Z"/><path class="cls-22" d="M324,268.47c5.42-2.92,6.61-8.66,16.13-11.29,12.17-3.37,16.75,1.56,26.62-1.26C364.23,260.4,358,267.5,344.54,271,336.09,273.17,326.18,271.38,324,268.47Z"/><path class="cls-23" d="M333.2,271.83c.94-6.54,3.54-11.49,9.51-15.27,8.87-2.26,19.06,1.32,24.06-.7C362.09,265.43,346.49,273.7,333.2,271.83Z"/><path class="cls-17" d="M358.68,241.82c-2.57-3.88-3.75-9.53.91-12.48,5.06-3.22,8.41.47,11,4.36s2.47,8.72-1.16,10.93S361.25,245.7,358.68,241.82Z"/><path class="cls-24" d="M358.79,229.94c7.51-2.75,14.89,13.09,7.22,15.61C359.34,247.75,350.78,232.88,358.79,229.94Z"/><path class="cls-24" d="M358.49,241.46c-1.38-3.12-2.23-7.71,1.53-10.62,4.75-3.67,11.25,2.07,12.39,7.39.29-5.68-4.41-13.91-13.14-10.17C353.61,230.48,354.75,238.74,358.49,241.46Z"/><path class="cls-24" d="M356.66,231.71a5.86,5.86,0,0,1-5.79,1.48c-.1,1.28,3.31,3,5.13,1.76Z"/><path class="cls-17" d="M360.47,231.61c2.93-.77,4.18,4.78,1.2,5.47C359.09,237.67,357.34,232.44,360.47,231.61Z"/><path class="cls-24" d="M311.1,234.93c-4.17-2.21-10.7-.5-10.64,3.7C298.14,233.18,305.86,228.21,311.1,234.93Z"/><path class="cls-24" d="M360.83,215.68c-4.29-2.47-11.94-1-12.63,3.31C346.57,213.27,356.15,208.53,360.83,215.68Z"/><path class="cls-25" d="M309.61,189.34a44.63,44.63,0,0,1,4.73-3.1C343,170.1,392.1,176.05,409.42,234.6c13.71,46.33,1.91,104.11-34.64,132.86-19.68,15.48-61.06,27.36-90.74,14.22,21.15,4.1,53.81,4.05,82.44-15.43,38.78-26.37,44-74.48,41.13-102.73s-17.3-74.13-63.86-74.84c-32.85-.5-48.58,23.08-55.78,45C288.47,215.77,296.93,198.88,309.61,189.34Z"/><path class="cls-24" d="M320.25,255.36c-4-.77-9.45,1.22-10.64,3.71C306.59,253.46,315.65,249.8,320.25,255.36Z"/><path class="cls-24" d="M312,253.8a5.85,5.85,0,0,1-6-.06c-.42,1.21,2.42,3.75,4.5,3Z"/><path class="cls-19" d="M392.19,243.55c12.46,9.87,32.76,6.52,41,.24,6.38-4.87,10.6-2.48,9.62,6.3-1.65,14.72-22.65,38.48-45.26,31.43Z"/><path class="cls-26" d="M240.39,480.47c3.09-2.77,10.88,6.15,7.54,9S237.31,483.24,240.39,480.47Z"/><path class="cls-26" d="M261.79,493.17c-2.67-3-8.33-6-12.63-6.13-1.38,0-3.37,2.48-2,3.77,3.54,3.27,9.71,4.32,13.58,5Z"/><path class="cls-27" d="M239.63,483.78c8,2.23,16.21-16.75,15-21.31a16.65,16.65,0,0,0-7.25,2.12,18.11,18.11,0,0,0,.63-7C233.47,464.08,232.15,481.69,239.63,483.78Z"/><path class="cls-26" d="M318.37,490.35c-2.13-3.56-12.2,2.69-9.82,6.36S320.51,493.9,318.37,490.35Z"/><path class="cls-26" d="M294.2,496.23c3.42-2.05,9.73-3.34,13.87-2.17,1.33.38,2.5,3.36.77,4.19-4.34,2.09-10.55,1.29-14.44.79Z"/><path class="cls-27" d="M318.13,493.73C309.86,493.54,307.54,473,310,469a16.57,16.57,0,0,1,6.31,4.15,18.08,18.08,0,0,1,1.45-6.92C329.79,476.69,325.9,493.92,318.13,493.73Z"/><path class="cls-26" d="M260.42,504.31s-9.25,3.37-12.65,5.75-7.77,7.88-6.38,9.37c.62.66,4.89-4.35,8.82-6.51,4.82-2.64,11.91-3.57,11.91-3.57Z"/><path class="cls-26" d="M259.65,501.15s-10.44.92-14.6,2.43-10.17,6-9.14,7.88c.45.85,6.22-3.13,10.86-4.26,5.69-1.39,13.25-.4,13.25-.4Z"/><path class="cls-26" d="M259.92,496.74s-10.48-.55-14.8.37-10.91,4.49-10.16,6.53c.34.91,6.6-2.23,11.36-2.71,5.83-.58,13.17,1.46,13.17,1.46Z"/><path class="cls-26" d="M293.14,509.31s8.84,4.32,12,7,6.91,8.65,5.36,10c-.68.6-4.4-4.83-8.08-7.39-4.52-3.13-11.48-4.8-11.48-4.8Z"/><path class="cls-26" d="M294.23,506.25s10.29,2,14.26,3.93,9.5,7,8.27,8.8c-.54.8-5.86-3.76-10.36-5.37-5.51-2-13.13-1.78-13.13-1.78Z"/><path class="cls-26" d="M295.37,502.41s10.47.55,14.67,1.92,10.38,5.61,9.42,7.56c-.42.87-6.33-2.91-11-3.88-5.73-1.19-13.25.07-13.25.07Z"/><path class="cls-26" d="M263.19,486.09l2.39-1.09,1,4-2.85,1.61A13.39,13.39,0,0,1,263.19,486.09Z"/><path class="cls-26" d="M264.41,479.34a4,4,0,1,0,3.74,4.16A4,4,0,0,0,264.41,479.34Z"/><path class="cls-26" d="M283,489.05a6.69,6.69,0,0,0,2.06-5c-2-.1-4.77,1.71-6.76,3.93-1.72-2.53-3.87-4.68-6.15-4.85a7.3,7.3,0,0,0,1.7,5.61Z"/><path class="cls-26" d="M293.7,487.72l-2.27-1.33-1.38,3.87,2.67,1.9A13.88,13.88,0,0,0,293.7,487.72Z"/><path class="cls-27" d="M254.16,493.61c6.1-4.62,32.16-15,47.75,5.51l-4.09,2.24,3.31,3.17-3.27,2.1,2.89,3.09-3.32,2.63,1.7,2.81c-12.09,10-37,6.34-45.81-2.69l2.25-3.53-3.12-2.43,3.9-3.14-3.55-3.54,4-2.34Z"/><path class="cls-26" d="M293.63,480.91a4,4,0,1,0,3.74,4.15A3.95,3.95,0,0,0,293.63,480.91Z"/><path class="cls-28" d="M184.54,399.38c11.5,1.24,17.69,9.22,29.07,21.08,5-1.08,7.23.69,8.46,5.51,1.36,5.31-20.93,27.71-28.76,13.41-2.85-5.12-5.17-6.39-8.45-7.76-5-2.1-9.21-.68-15.49-5.06C160.68,420.51,160.84,396.82,184.54,399.38Z"/><path class="cls-28" d="M184.72,356.71c3.19,7.75,10.85,10.83,23.11,10.38,18.32-.67,10.86,29.82-9.28,26.07-27.27-5.08-33.68-22.6-32.74-29.73C167.59,350,182.31,350.84,184.72,356.71Z"/><path class="cls-29" d="M121.09,330.75c-30.49,4.1-44.71,36.77-41.34,65.13s30.26,57.4,55.89,52.35c30.24-6,40.49-29.56,40.2-53.89S154.67,326.25,121.09,330.75Z"/><path class="cls-30" d="M129.81,325.28C96.87,328.87,86.57,360.84,89.92,391c3.58,32.35,31.51,60.5,59.05,55.79,32.5-5.57,44.7-29.31,42.1-55S166.09,321.32,129.81,325.28Z"/><path class="cls-31" d="M147.55,327.46c-34.38-3-52.56,28.26-50.9,57.56s25.49,63.89,54.41,62.56c29.16-1.35,44.65-28.84,44.7-53.68C195.8,373.14,179.2,330.22,147.55,327.46Z"/><path class="cls-32" d="M129.29,329.35c-22.47,7.24-34.06,32.09-32.64,55.67l.06.88c2.08,29,25.72,63,54.35,61.68l1.47-.09C117.21,438.17,85.15,376.73,129.29,329.35Z"/><path class="cls-33" d="M121.75,369.92q43,5.91,59.42-16.77C182.25,369.68,138,381.59,121.75,369.92Z"/><path class="cls-33" d="M121.67,391.67c28.66,3.94,56.93-2.36,67.88-17.48C190.63,390.71,137.93,403.33,121.67,391.67Z"/><path class="cls-33" d="M123.86,413.05c28.66,3.95,51.88.05,65.6-15.52C190.54,414.06,140.12,424.72,123.86,413.05Z"/><path class="cls-33" d="M146.38,436.3c8.66-26.2,5-58.89-11.69-80.11C156.7,366.38,162.63,427.79,146.38,436.3Z"/><path class="cls-33" d="M168.91,430.33c7.56-21.72,8.19-52-6.86-77.11C182.12,364.48,183.78,419.35,168.91,430.33Z"/><path class="cls-28" d="M119.75,355.22c5.22,7.35,14,8.72,26.73,5.29,19.06-5.13,18.61,28.63-3.42,29.58-29.82,1.28-40.78-15.55-41.51-23.24C100.16,352.37,115.79,349.65,119.75,355.22Z"/><path class="cls-28" d="M156.71,338.78c5.39-12.91,25.12-9.24,26.63-26.39,1.21-13.61-14.7-29.12-34-19.75-10.52,5.1-21.37,21.55-20.88,38.37C129.63,342.58,152.19,347.63,156.71,338.78Z"/><path class="cls-24" d="M161.4,296.13a3.84,3.84,0,0,0-5,2.37A2.78,2.78,0,0,1,161.4,296.13Z"/><path class="cls-34" d="M151.41,288.07c-.19-6.74,1.88-13.34,5.32-13.45,6.47-.22,12,11.62,10.14,15.24-1.76,3.41-9.51,3.24-13.74,1.71-.64,3.44-2.32,10.69-7.83,12.62s-12.82-14-10.18-17.27C138.36,282.92,144.94,285.66,151.41,288.07Z"/><path class="cls-35" d="M150.76,289.56c-3.21-1.08-8.52,1.78-7.72,4.18s5.17,1.84,8.42-3.12Z"/><path class="cls-35" d="M152.4,288.06c.71-3.35,5-6.06,6.21-3.93s-1.06,5.45-5.82,5.16Z"/><path class="cls-36" d="M150.35,286.41c2.91-1.48,6.37,4,3.36,6.07S147.44,287.88,150.35,286.41Z"/><path class="cls-28" d="M149,417c11.64,1.25,17.91,9.33,29.42,21.33,5.09-1.08,7.32.7,8.57,5.59,1.37,5.37-21.18,28-29.12,13.57-2.88-5.18-5.23-6.47-8.55-7.86-5.09-2.12-9.32-.68-15.68-5.12C124.88,438.4,125,414.42,149,417Z"/><path class="cls-17" d="M160.29,302.84c-5.25-1.26-9.23,9.07-3.81,11.81C163.91,318.39,167.61,304.59,160.29,302.84Z"/><path class="cls-24" d="M160.79,303.61c-4,.35-5.91,9.39-1.25,10.32C165.59,315.13,165.89,303.16,160.79,303.61Z"/><path class="cls-17" d="M161.91,305.61c-2-.42-2.84,3.51-.61,3.45C163.18,309,163.56,306,161.91,305.61Z"/><path class="cls-18" d="M177.64,313.81a17.94,17.94,0,0,1-8.43,2C168.64,320.23,178.22,321.11,177.64,313.81Z"/><path class="cls-37" d="M177.16,455.5c-5.08-8.79-2.14-23,4-26.74-4.11,7.39-6.4,15.61-1.91,25.8Z"/><path class="cls-37" d="M175.38,456.55c-7-7.3-7.63-21.76-2.6-26.91-2.2,8.17-2.44,16.7,4.39,25.5Z"/><path class="cls-37" d="M181.64,453.31c12.05-1.95,22.13,3.47,23,17.91,1.46,23.44-34.45,34.62-40.58,11.29C160.52,468.89,168.85,455.39,181.64,453.31Z"/><path class="cls-38" d="M185.74,496.55c-5.47-11.31,15.73-26.47,28.26-24,0,1.73-1.63,6.71-2.9,9A18.17,18.17,0,0,1,220,481C214.52,503.73,190.76,506.94,185.74,496.55Z"/><path class="cls-38" d="M186.89,509.25c-2.93-1.86-2.89-7.79.27-8.73,13.47.36,17.94,13.94,14.32,17.43C198.31,521,198.4,507.43,186.89,509.25Z"/><path class="cls-38" d="M177.29,514.67c-2.68-2.19-1.92-8.07,1.33-8.62,13.33,2,16.11,16,12.09,19C187.19,527.72,188.94,514.27,177.29,514.67Z"/><polygon class="cls-37" points="186.01 449.19 188.97 456.21 192.68 454.5 189.84 447.66 186.01 449.19"/><path class="cls-37" d="M186.65,438.43c7.33-1.16,9.37,11.62,1.83,12.83C180.7,452.5,178.42,439.73,186.65,438.43Z"/><path class="cls-20" d="M191.43,449.85c-6.12.47-8.51-7.92-4.48-11.46C192.86,437.75,195.15,446.3,191.43,449.85Z"/><path class="cls-24" d="M192.42,443.3c-.38-1.55-1.85-3.12-3.59-2s-1.8,3.76-.71,5.68Q188.81,442.19,192.42,443.3Z"/><path class="cls-39" d="M204.43,468.87c-2.48,1.25-6.08-.74-7.15-4,2.18-.66,3.84-1.29,5.16-2.67A21.93,21.93,0,0,1,204.43,468.87Z"/><path class="cls-40" d="M139.26,462.2c14.58-15.77,45.5-12.1,54.11,5.13s6.92,39.3-4.81,51.74c-11.14,11.82-34.74,16-49.11.87C127.64,507.53,118.61,484.54,139.26,462.2Z"/><path class="cls-41" d="M128.74,464.57c12.16-13.15,37.95-10.09,45.13,4.28s5.77,32.77-4,43.15c-9.29,9.85-29,13.31-41,.72C119.06,502.37,111.52,483.2,128.74,464.57Z"/><path class="cls-40" d="M122.29,471.8c8.24-8.92,25.72-6.84,30.58,2.9s3.91,22.2-2.72,29.24c-6.29,6.67-19.63,9-27.75.48C115.73,497.41,110.62,484.42,122.29,471.8Z"/><path class="cls-41" d="M115.79,476.52c4.43-4.79,13.81-3.68,16.42,1.55s2.1,11.93-1.46,15.7c-3.38,3.59-10.54,4.85-14.9.27C112.27,490.27,109.53,483.29,115.79,476.52Z"/><path class="cls-20" d="M280.18,470.41a2.58,2.58,0,1,0,2.58,2.58A2.59,2.59,0,0,0,280.18,470.41Z"/><circle class="cls-20" cx="274.53" cy="465.55" r="3.55"/><path class="cls-20" d="M282.08,455.84a2.78,2.78,0,1,0,2.77,2.77A2.77,2.77,0,0,0,282.08,455.84Z"/><path class="cls-20" d="M276.66,450.46a1.84,1.84,0,1,0,1.84,1.84A1.83,1.83,0,0,0,276.66,450.46Z"/><path class="cls-20" d="M217.8,459.26a2.32,2.32,0,1,1-2.32,2.32A2.32,2.32,0,0,1,217.8,459.26Z"/><path class="cls-20" d="M209.39,455a2.6,2.6,0,1,1-2.6,2.59A2.6,2.6,0,0,1,209.39,455Z"/><path class="cls-20" d="M214.51,445.63a3.14,3.14,0,1,1-3.14,3.14A3.15,3.15,0,0,1,214.51,445.63Z"/><path class="cls-20" d="M269.41,248.37a3.46,3.46,0,1,1-3.46,3.45A3.45,3.45,0,0,1,269.41,248.37Z"/><path class="cls-20" d="M278.83,255.44a2.68,2.68,0,1,1-2.67,2.67A2.68,2.68,0,0,1,278.83,255.44Z"/><path class="cls-20" d="M278.83,234.21a5.35,5.35,0,1,1-5.34,5.35A5.35,5.35,0,0,1,278.83,234.21Z"/><path class="cls-20" d="M273.49,225.56a2.68,2.68,0,1,1-2.68,2.68A2.68,2.68,0,0,1,273.49,225.56Z"/><path class="cls-20" d="M189.6,310.85a3.41,3.41,0,1,1-3.41,3.4A3.41,3.41,0,0,1,189.6,310.85Z"/><path class="cls-20" d="M192.25,295.08a2.53,2.53,0,1,1-2.52,2.53A2.52,2.52,0,0,1,192.25,295.08Z"/><circle class="cls-20" cx="200.84" cy="309.96" r="2.52"/><path class="cls-20" d="M343,437.3a2.85,2.85,0,1,0,2.85,2.85A2.85,2.85,0,0,0,343,437.3Z"/><path class="cls-20" d="M335.21,429.13a3.69,3.69,0,1,0,3.68,3.68A3.69,3.69,0,0,0,335.21,429.13Z"/><path class="cls-20" d="M342.57,422.45a2.85,2.85,0,1,0,2.85,2.85A2.84,2.84,0,0,0,342.57,422.45Z"/><path class="cls-42" d="M514.67,338.65A20.35,20.35,0,1,1,494.32,359,20.36,20.36,0,0,1,514.67,338.65Z"/><path class="cls-43" d="M517.2,343.38A14.23,14.23,0,1,1,503,357.61,14.23,14.23,0,0,1,517.2,343.38Z"/><path class="cls-17" d="M512.7,343.78c1.34,3.75-5.35,1.85-8.43,9.25-2.86,6.85.41,10.05-2.67,10.88-2.32.62-4.94-4.22-1-12.94C504.06,343.16,511.67,340.9,512.7,343.78Z"/><path class="cls-17" d="M501.9,366.74c3-2.18,5.49,2.47,2.81,4.05S499.47,368.5,501.9,366.74Z"/><path class="cls-44" d="M520.79,316.79c4.93.41,14.68,3.32,18.25-1.3,2.72-3.54,1.46-8.64-8.86-10.3,2.89-5.55-1.53-13.46-7.29-11.07-4.69,1.93-5.14,12.89-7,16.84Z"/><path class="cls-26" d="M518,312.52c2.71-2.82,1.84-12.55,7.9-16.92C519.37,295.94,519,309.29,518,312.52Z"/><path class="cls-26" d="M519.57,314.61c4.6-2.56,12.21,2.15,18.65-1.42C535.56,318.66,523.74,313.7,519.57,314.61Z"/><path class="cls-26" d="M519.41,311.37c4.16-3.43,7.05-10,7-13.62,2.59,3.82-1.17,10.17-6.31,14.5Z"/><path class="cls-26" d="M520.71,313.49c4-2,12.78-4.9,15.74-2.93-2.44-3.58-10.16-1.59-16.24,2.1Z"/><path class="cls-44" d="M480.85,331.81c-2.9,2.45-3.26,7.38,0,8.38,4.94,1.54,19.41-1.3,16.39-9.53Z"/><path class="cls-26" d="M483.84,331.76q-2.79,5.55.33,7.94c-1.24-2.1-.94-5,.72-8.16Z"/><path class="cls-26" d="M488.23,330.82c-1.86,3.71-1.75,6.35.33,7.95a8.75,8.75,0,0,1,.53-8Z"/><path class="cls-26" d="M492.79,329.49q-2.79,5.56.34,7.94a8.15,8.15,0,0,1,.41-7.89Z"/><path class="cls-44" d="M486.76,303.14c-2.3-3-1.67-7.49,1.65-7.55,5-.09,18.39,6.25,13.86,12.87Z"/><path class="cls-26" d="M489.63,304c-1.06-3.81-.42-6.16,1.89-7-1.6,1.56-1.9,4.27-.92,7.53Z"/><path class="cls-26" d="M493.66,306q-1.57-5.73,1.9-7.06c-1.31,1.5-2.06,4.07-1.08,7.32Z"/><path class="cls-26" d="M497.79,308.35c-1.06-3.82-.42-6.17,1.89-7.06-1.49,1.8-2.15,3.95-1.17,7.21Z"/><path class="cls-45" d="M520.73,317.64c-7.32,6.57-16.85,14.52-36.22,16.22-12.95,1.14-32-3.32-37.63-18.22-2.17-1.13-3.42-3.14-1.87-5.09-1.42-1.63,0-4.27,3.24-4.07a24.76,24.76,0,0,1,18.25-10.54c7.34-.76,15.17,2.87,22.84,6.15,9.28,4,19.64,9.81,27.29,7.15C519.12,308.72,523.12,315.37,520.73,317.64Z"/><path class="cls-46" d="M472.34,296.16c8.94,11.68,1.31,33.26-12.63,33.13a24.85,24.85,0,0,1-12.13-13.88c-2.17-1.13-2.43-2.93-.88-4.89-1.43-1.62-.62-3.18,2.59-3C452.55,302.78,470.37,295.84,472.34,296.16Z"/><path class="cls-47" d="M472.34,296.16c6.94,12.47-2.1,31.31-12.63,33.13-5.7-2.93-10.47-7.36-12.83-13.65-2.17-1.13-3.42-3.14-1.87-5.09-1.42-1.63,0-4.27,3.24-4.07a24.76,24.76,0,0,1,18.25-10.54A22.51,22.51,0,0,1,472.34,296.16Z"/><path class="cls-44" d="M472.43,326.62c-3.24,4.91-10.48,7.47-13.61,5.82-5.26-2.79-.41-11.79,2.81-9.76,1.29.81,4.32,2.49,7.36.66C471.14,322.05,473.84,324.5,472.43,326.62Z"/><path class="cls-26" d="M470.59,325.89c-2.66,2.84-8.73,5.18-12.11,3.58C459.93,332.81,469.62,330.2,470.59,325.89Z"/><path class="cls-26" d="M469.06,325.42a6.74,6.74,0,0,1-7.69-1C461.73,327.09,467.29,328.65,469.06,325.42Z"/><path class="cls-17" d="M458.92,304c3.48,1,2.29,8.71-1.76,8.17C452.65,311.57,454.05,302.56,458.92,304Z"/><path class="cls-24" d="M458.45,304.43c2.05,1.15.63,7-2.05,6.12C453.4,309.6,455.32,302.68,458.45,304.43Z"/><path class="cls-17" d="M456.67,306.63c1.22.23,1,2.41-.4,2.15C455.13,308.57,455.64,306.43,456.67,306.63Z"/><path class="cls-44" d="M494.21,310c0,2.68-5.65,2.8-5.78-.29S494.25,306.92,494.21,310Z"/><path class="cls-44" d="M485.91,316.59c.07,3.24-6.7,3.62-7-.1S485.83,312.86,485.91,316.59Z"/><path class="cls-44" d="M503,314c0,2.38-5,2.48-5.12-.25S503,311.25,503,314Z"/><path class="cls-44" d="M504.78,320.75c0,1.75-3.69,1.83-3.77-.18S504.81,318.73,504.78,320.75Z"/><path class="cls-48" d="M511.72,317.44c0,1.75-3.69,1.82-3.77-.19S511.75,315.41,511.72,317.44Z"/><path class="cls-48" d="M494.51,322.29c.29,3.17-6.34,4-6.87.37S494.17,318.62,494.51,322.29Z"/><path class="cls-49" d="M469.36,296.25c-2.75-5.41,5.14-6.86,5.4-1.87,3.11-3.9,7.25,1.26,2.94,3.8,3.91,2.88-.63,7.16-3,3.85.48,4.35-7.44,4.62-4.94-.95C465.39,304.4,463.2,296.11,469.36,296.25Z"/><path class="cls-50" d="M472.32,295.71c-2.5,1.38-1.41,5.73,1.72,4.44S474.81,294.32,472.32,295.71Z"/><path class="cls-51" d="M446.07,311a15.15,15.15,0,0,0,5.29.22C450.28,314.86,445.5,314.54,446.07,311Z"/><path class="cls-20" d="M443.54,289.53a3.06,3.06,0,1,1-3.06,3.06A3.06,3.06,0,0,1,443.54,289.53Z"/><path class="cls-20" d="M436.73,305.79a2.27,2.27,0,1,1-2.26,2.27A2.27,2.27,0,0,1,436.73,305.79Z"/><path class="cls-20" d="M428.62,300.13a2.26,2.26,0,1,1-2.26,2.26A2.26,2.26,0,0,1,428.62,300.13Z"/><path class="cls-52" d="M424.45,600.46c23.21-3,15.91-31.08,1.71-31.08,7.72-16.2-18.35-35.45-39.39-16.6-2.39-19.16-39.51-25-50.17-4.15-7.27-16-44.55-10.77-41.87,15.66-14.68-6.13-34.29,20.29-13.68,36.17Z"/><path class="cls-4" d="M62.68,520.82c1.84-27.73,50.65-34.56,60.27-6.67,8.41-29.67,55.88-21.26,55.88,9.56,14.86-22.81,50.85-10.55,46.77,10.94,21-19.18,58.4,6.39,47.46,31.69,22.41-8.88,46.14,23.09,27.88,42H62.68Z"/><path class="cls-42" d="M415.1,353.46A18.52,18.52,0,1,1,396.58,372,18.52,18.52,0,0,1,415.1,353.46Z"/><path class="cls-43" d="M417.4,357.76a12.95,12.95,0,1,1-12.95,12.95A13,13,0,0,1,417.4,357.76Z"/><path class="cls-17" d="M413.3,358.12c1.22,3.42-4.86,1.69-7.67,8.42-2.6,6.24.38,9.15-2.42,9.9-2.12.56-4.5-3.83-.95-11.77C405.45,357.56,412.37,355.51,413.3,358.12Z"/><path class="cls-17" d="M403.48,379c2.74-2,5,2.25,2.55,3.69S401.27,380.62,403.48,379Z"/><path class="cls-42" d="M348,512.25a21.05,21.05,0,1,1-21.05,21A21.05,21.05,0,0,1,348,512.25Z"/><path class="cls-43" d="M350.66,517.13a14.73,14.73,0,1,1-14.73,14.73A14.73,14.73,0,0,1,350.66,517.13Z"/><path class="cls-17" d="M346,517.55c1.39,3.89-5.53,1.91-8.72,9.57-3,7.09.43,10.41-2.76,11.26-2.41.64-5.11-4.36-1.07-13.39C337.06,516.91,344.94,514.57,346,517.55Z"/><path class="cls-17" d="M334.83,541.31c3.11-2.26,5.68,2.55,2.9,4.19S332.31,543.13,334.83,541.31Z"/><path class="cls-42" d="M305.65,393.31a15.59,15.59,0,1,1-15.59,15.58A15.58,15.58,0,0,1,305.65,393.31Z"/><path class="cls-43" d="M307.58,396.93a10.9,10.9,0,1,1-10.9,10.9A10.9,10.9,0,0,1,307.58,396.93Z"/><path class="cls-17" d="M304.14,397.23c1,2.88-4.1,1.42-6.46,7.09-2.19,5.25.32,7.7-2,8.33-1.79.48-3.79-3.23-.8-9.91C297.52,396.76,303.35,395,304.14,397.23Z"/><path class="cls-17" d="M295.87,414.82c2.3-1.67,4.2,1.89,2.15,3.1S294,416.17,295.87,414.82Z"/><path class="cls-42" d="M274.54,141a20.13,20.13,0,1,1-20.14,20.13A20.13,20.13,0,0,1,274.54,141Z"/><path class="cls-43" d="M277,145.65A14.08,14.08,0,1,1,263,159.73,14.08,14.08,0,0,1,277,145.65Z"/><path class="cls-17" d="M272.58,146.05c1.33,3.71-5.29,1.83-8.34,9.15-2.82,6.78.42,10-2.63,10.76-2.31.62-4.89-4.17-1-12.8C264,145.44,271.57,143.2,272.58,146.05Z"/><path class="cls-17" d="M261.9,168.76c3-2.16,5.44,2.44,2.78,4S259.5,170.51,261.9,168.76Z"/><path class="cls-53" d="M533.65,478.88c15.19,12,38.91,17.51,49.26,8.16s7.26-21.37,3.24-17.75C567.4,486.2,554.83,457,538.92,456.8,527.11,456.64,522.42,470,533.65,478.88Z"/><path class="cls-54" d="M533.65,478.88c14,14.18,55.2,24.07,68.45-2.54,9.13-18.33-8.82-34.33-19.94-38.18-17.56-6.09-14.85,8.18-7.79,10.87,9.68,3.68,17.14,23.09,8.18,32.62C572.65,492.18,545.43,486.4,533.65,478.88Z"/><path class="cls-55" d="M592.75,444.94c2.46-1,4.62,3,2.56,4.1C593,450.25,590.29,446,592.75,444.94Z"/><path class="cls-55" d="M601.52,454.35c2.64-.35,3.68,4.13,1.42,4.62C600.36,459.53,598.88,454.7,601.52,454.35Z"/><path class="cls-55" d="M604,466.26c2.51.89,1.41,5.35-.84,4.76C600.59,470.35,601.46,465.37,604,466.26Z"/><path class="cls-55" d="M601.08,478.09c1.62,2.11-1.74,5.25-3.3,3.54C596,479.68,599.45,476,601.08,478.09Z"/><path class="cls-55" d="M593.06,486c1.4,2.27-2.28,5-3.65,3.18C587.86,487.09,591.67,483.78,593.06,486Z"/><path class="cls-55" d="M594.86,475.86c1.77,2-1.37,5.37-3,3.76C589.91,477.8,593.1,473.87,594.86,475.86Z"/><path class="cls-55" d="M596.18,465c2.34,1.27.55,5.51-1.57,4.57C592.2,468.48,593.84,463.7,596.18,465Z"/><path class="cls-55" d="M594.4,455.05c2.59.62,2,5.18-.33,4.82C591.46,459.47,591.82,454.43,594.4,455.05Z"/><path class="cls-56" d="M539.47,496.57c12.11,15.1,34,25.82,46.16,19s11.07-13.06,5.68-12.77-31.53-3.39-41.44-23.52C544.66,468.72,530.52,485.41,539.47,496.57Z"/><path class="cls-57" d="M532.65,495.93c29.23,32.58,61,25.27,66.56,10.31,4.26-11.57-16.39-23.48-10.71-33.77s-6.54-11-11.21-2.38-1.28,17.38,3.52,25.76c7.84,13.69-16.77,20.85-44.4-1.43C533.83,492.6,531.61,493,532.65,495.93Z"/><path class="cls-55" d="M588.69,471.71c1.87,1.77-.86,5.27-2.61,3.87C584.1,474,586.83,470,588.69,471.71Z"/><path class="cls-55" d="M586.25,481.75c2.6.58,2,5.16-.26,4.85C583.37,486.24,583.64,481.17,586.25,481.75Z"/><path class="cls-55" d="M589.64,493.11c2.62-.54,4,3.88,1.74,4.53C588.85,498.38,587,493.64,589.64,493.11Z"/><path class="cls-55" d="M593.15,503.39c2.67.17,2.84,4.78.51,4.83C591,508.28,590.48,503.23,593.15,503.39Z"/><path class="cls-55" d="M591.23,513.7c1,2.46-3.05,4.64-4.11,2.57C585.91,513.92,590.21,511.23,591.23,513.7Z"/><path class="cls-57" d="M478.63,476c7.65,23.91,2.83,29.44,10,42.93,8.15,15.33,22.56,19.72,21.6,38.49-.44,8.77,10.64,4.83,14.35-4.15,7-16.87-9.72-28-13.36-42.11-3.24-12.53-5-11.51-10.58-36.23C497.47,460.88,476.88,470.56,478.63,476Z"/><path class="cls-57" d="M526.22,471.28c11.88,22.11,19.21,22.49,23.92,37,5.36,16.52-1.48,29.93,12.68,42.28,6.62,5.77-3.91,11-13,7.44-17-6.7-10.89-28.14-18.49-40.54-6.76-11-7.34-9.9-21.24-31.1C502.25,474.32,523.52,466.25,526.22,471.28Z"/><path class="cls-54" d="M462,464.33c-6.54,21.08-14,13.77-18.31,34.52-3.17,15.1,5.47,31.67-5.44,44.25-5.1,5.88,6.11,9.21,14.15,5.26,19.87-9.77,8.37-31.7,11.78-44,3.33-12,11.92-13.81,16.69-28.27C484.81,464.1,463.46,459.53,462,464.33Z"/><path class="cls-53" d="M500.87,479.72c26.53,2.86,22.68,29.63,33,36.59,11.62,7.84,23.13,3.68,26.48-7.89,1.14-3.95,12.87,8.8,1.72,20.77-11.51,12.34-29.12,10.7-40.05,3.14-16.29-11.25-11.45-31.79-31.32-36.23C483.55,494.49,490.2,478.58,500.87,479.72Z"/><path class="cls-54" d="M457,450.59c-13.06,22.76-21.07,11.84-32.34,32.11-10.53,19-3.16,34.56-24.08,37.39-11.76,1.59.84,16.55,16.6,11.78,16-4.85,20.23-18.41,27.27-38,4.5-12.51,19-6.34,31.23-28.82C482.65,452.31,459.89,445.56,457,450.59Z"/><path class="cls-58" d="M414.38,532.52A36.15,36.15,0,0,0,427.72,522c8.58-11,6.19-22.53,11.53-31.3,9.6-15.79,21-7.63,35-23.11-11.92,19.52-25.46,14.3-29.79,26.32-7,19.56-11.24,33.12-27.27,38A21.41,21.41,0,0,1,414.38,532.52Z"/><path class="cls-57" d="M469.68,487.76c-8.2,20-6.82,47.2,6.41,55.44s18.77,3.74,15.57-1.38-13.78-32.65.53-53.24C499.72,477.75,475.74,473,469.68,487.76Z"/><path class="cls-56" d="M467,488.92c-16,46.22,8,65.18,25.62,62.47,13.63-2.1,14.07-28.73,27.22-28.76s7.22-12.35-3.75-12.25-17.69,8.17-23.28,17.41c-9.14,15.08-29.11,3.06-22.3-36C470.87,488.28,469.29,486.31,467,488.92Z"/><path class="cls-55" d="M520.66,522.41c-.71,2.78-5.62,2-5.2-.45C515.94,519.16,521.38,519.63,520.66,522.41Z"/><path class="cls-55" d="M509.52,525.46c.85,2.86-3.93,4.8-4.88,2.38C503.57,525.08,508.67,522.6,509.52,525.46Z"/><path class="cls-55" d="M500.26,534.93c1.94,2.27-1.64,6-3.49,4.16C494.67,537,498.32,532.66,500.26,534.93Z"/><path class="cls-55" d="M492.1,543.93c1.29,2.7-3.13,5.36-4.44,3.11C486.17,544.49,490.81,541.24,492.1,543.93Z"/><path class="cls-55" d="M481,547.64c-1.86,2.33-6.19-.47-4.74-2.64C477.89,542.55,482.85,545.3,481,547.64Z"/><path class="cls-56" d="M452.47,471.45c15.48,32.65,61.94,38.81,89.7,18.24,28.52-21.12,25.1-54.93,10.94-71.47-13.55-15.82-43.4-23.9-65.31-16.62C460.84,410.55,437.85,440.6,452.47,471.45Z"/><path class="cls-17" d="M468.53,432.88C460.9,432,458,447.22,466.21,449,476.48,451.21,477.56,433.92,468.53,432.88Z"/><path class="cls-24" d="M467.27,432.83c-5.37-.23-7.94,11.75-1.15,12.69C473.54,446.55,473.68,433.11,467.27,432.83Z"/><path class="cls-17" d="M466.84,434.48c-2.27-.48-3,4.24-.45,4.18C468.69,438.6,468.75,434.89,466.84,434.48Z"/><path class="cls-59" d="M461.13,453.36c-2.3,4.26-7.69,7.26-12.25,7.59a43.61,43.61,0,0,1-.88-11.69C451.38,452.05,457.67,453.94,461.13,453.36Z"/><path class="cls-57" d="M490.8,400.71c21.56-5.65,49.37,2.4,62.31,17.51,14.16,16.54,17.58,50.35-10.94,71.47-14.81,11-34.94,14.34-52.85,10.14a60.54,60.54,0,0,0,22.29-10.14c28.52-21.12,25.1-54.93,10.94-71.47C515.35,409.82,503.56,403.6,490.8,400.71Z"/><path class="cls-60" d="M522.85,396c-20.21-15.23-42.64-5.26-45.77,5.17-5.71,19.05,27.87,36.2,52.74,27.87Z"/><path class="cls-17" d="M498.37,394.34c-22.94,16.05,11.19,60.05,45.55,49.46,19.82-6.12,16.82-34.2-.59-47.63C530.88,386.57,511.72,385,498.37,394.34Z"/><path class="cls-61" d="M494,420.52c8.72-13.52,23.13-21.79,42.94-22.08a18,18,0,0,0-3.22-7.64c-11.43-4.37-25.08-3.63-35.32,3.54C489.56,400.5,489.16,410.78,494,420.52Z"/><path class="cls-61" d="M552.23,406.09a39.84,39.84,0,0,0-15.32-7.65c4.5,13.28.74,33.85-7.56,46.79a36.75,36.75,0,0,0,14.57-1.43C559.63,439,561,420.3,552.23,406.09Z"/><path class="cls-60" d="M538.29,395.36c5.43,4.12,1.82,11-5.06,6.56C527.85,398.42,532.92,391.28,538.29,395.36Z"/><path class="cls-20" d="M439,448.32a3.16,3.16,0,1,0,3.15,3.15A3.15,3.15,0,0,0,439,448.32Z"/><path class="cls-20" d="M432.11,438a4.34,4.34,0,1,0,4.33,4.34A4.34,4.34,0,0,0,432.11,438Z"/><path class="cls-20" d="M441.34,430.49a3.4,3.4,0,1,0,3.39,3.39A3.39,3.39,0,0,0,441.34,430.49Z"/><path class="cls-20" d="M434.72,423.92a2.25,2.25,0,1,0,2.25,2.24A2.24,2.24,0,0,0,434.72,423.92Z"/><path class="cls-42" d="M442.69,197.71A15.59,15.59,0,1,1,427.1,213.3,15.59,15.59,0,0,1,442.69,197.71Z"/><path class="cls-43" d="M444.62,201.33a10.9,10.9,0,1,1-10.9,10.9A10.91,10.91,0,0,1,444.62,201.33Z"/><path class="cls-17" d="M441.18,201.64c1,2.88-4.1,1.42-6.46,7.08-2.19,5.26.32,7.71-2,8.34-1.79.48-3.79-3.23-.8-9.91C434.56,201.17,440.39,199.44,441.18,201.64Z"/><path class="cls-17" d="M432.91,219.23c2.3-1.67,4.2,1.89,2.14,3.1S431,220.58,432.91,219.23Z"/><path class="cls-62" d="M218.49,249.72c-2.35,10.35-12.54,18-17.08,17.36-1.72-.25,5.1-4,3.05-9.22Z"/><path class="cls-63" d="M207.05,258.58c-4.36,4.5-23.37,12.33-35,8.53-10.51-3.42-7.67-18-4.34-27.42Z"/><path class="cls-62" d="M166.63,242.7c-2.18,4.94-4.62,18.77,2.53,23.14,9.5,5.81,27,1.23,33.11-3.93-7.63,2-20.82,4.79-30.09-.19C164.27,257.48,166.42,246.68,166.63,242.7Z"/><path class="cls-63" d="M222.32,211.31c-2.32-5.27-5.09-9.42-8.62-11.48.35,1.06.65,1.89.89,2.47-2.61-2.47-7.45-6.53-9.43-6.76a6.56,6.56,0,0,1,1.66,2.34c-4.52-2.32-11.29-4.33-15.26-4.35,1.17.74,4,2.53,4.37,3.26-10-1.86-30.37-3.56-37.48,11.38-6.54,13.76,4.61,23,8.47,27.31Z"/><path class="cls-63" d="M167.15,233.65c-4.94.87-9.18-3.13-14.37-8-3-.12-3.49,7.35-2.26,14.86s5.65,12.9,8.94,13c1.07-6.07,4.79-11.7,8.62-12.53Z"/><path class="cls-64" d="M232,227c2.25,5,6.69,5.92,7.48,6.76s.13,2.31-.66,2.72c1.65,4.87-5,8.16-8.19,9.34a42.43,42.43,0,0,1-31.36,15.34c-17.82.74-28.66-13.55-34.19-23.83,1.14-13,9.07-33.07,29.59-35.72C223.48,197.93,230.6,224,232,227Z"/><path class="cls-65" d="M225.52,228.28c-2.21-.46-4.15-2.93-7.74-1.77s-4.87,6.15-3.77,9.73c1.84,6,9.39,10.48,12,8.73,2-1.4.28-3.2.52-6.58.19-2.58,3-5.43,2.11-7.61S227.74,228.74,225.52,228.28Z"/><path class="cls-17" d="M226.47,227.68c-5.08,0-4.47,9.73.44,9C231.2,236.13,230.43,227.65,226.47,227.68Z"/><path class="cls-24" d="M227,228.21c-3.69-.11-3.5,6.95.08,6.58C230.23,234.47,229.88,228.29,227,228.21Z"/><path class="cls-17" d="M227.55,229.85c-1.26,0-1.41,2.13,0,2.12C228.73,232,228.62,229.83,227.55,229.85Z"/><path class="cls-66" d="M160.22,250.5a22.24,22.24,0,0,0-.76,3c-4.78,1.43-9-5.31-10.25-12.82s.33-15.44,3.32-15.32c.89.83,2,1.92,2.83,2.68-2.85-.15-4,2.83-2.33,4.15-3.11.55-2.53,3.82-.45,5.16-2.38,1.55-1.1,4.77,1.53,5.2-2.24,1.38-1.08,5.32,2,5C154.79,249.69,158.77,252,160.22,250.5Z"/><path class="cls-62" d="M195.58,196.64c-12.39-2.19-32.7-2.79-38.53,13.66-3.61,10.18,2.81,19.54,6.63,21.82-2.59-3.5-6-12-1.18-22.84C166.28,200.86,179.58,196.19,195.58,196.64Z"/><path class="cls-62" d="M211.88,250.61c.27,7.07,3.88,14.07,8.1,13.46s6.18-9.18,3.89-11.43c-1.31-1.29-6.17-1.82-7.93-3.25C214.77,248.44,211.82,248.86,211.88,250.61Z"/><path class="cls-63" d="M213.88,250.62c-.46,3.87,3.36,9.24,7.39,10.2C217.19,262.42,212,256.06,213.88,250.62Z"/><path class="cls-63" d="M215.62,251.11c1.9,2.77,5,4.64,7.21,4.58C220.2,257.47,215.29,254.45,215.62,251.11Z"/><path class="cls-63" d="M188.83,233.45c2.74-.22.84,4.72,2.55,6.53,2.89,3.05-3.37,5.63-5.77,2.16C184,239.77,186.08,233.68,188.83,233.45Z"/><path class="cls-63" d="M187.25,245.48c.24,1.79-4.52,6.32-6.11,5.35s-3.5-5.24-2.53-6.51S187,243.7,187.25,245.48Z"/><path class="cls-63" d="M190.76,245.79c2.8.74,3.78,4.87,2.07,7.08-2.33,3-8.5,2.1-8.37-.73.1-2.29,3.29-.75,3.76-3.72C188.37,247.44,189.17,245.37,190.76,245.79Z"/><path class="cls-63" d="M195.24,251.42c-.26-1.44,6.16,1.2,5.9,3-.42,3-5.76,2.81-6.89,1.78S195.72,254,195.24,251.42Z"/><path class="cls-63" d="M197,237.18c-4,.51-3.78,6.44-3,8.14,1.69,3.8,3.66,5.22,5.31,4.72,3.45-1-1.46-5.31,1.16-6.43S204.15,236.28,197,237.18Z"/><path class="cls-63" d="M188,215.93c2.69,5.33-7.52,4.77-5.24,9.59,2.12,4.49-8.11,5.22-9.05-1.51C172.42,215,185.5,211.08,188,215.93Z"/><path class="cls-63" d="M191.53,219.05c-1.8-1-.85-4.92-4.14-6.49-2.48-1.2,1.57-4.87,5.83-3.61,5.32,1.59,5.19,5.65,2.39,6C193.16,215.3,193.33,220.05,191.53,219.05Z"/><path class="cls-63" d="M194.88,225c-2.71-3.22.58-8.34,1.62-8.64s1.93,3.51,5.12,5.23C203.85,222.76,195.85,226.11,194.88,225Z"/><path class="cls-63" d="M199.27,216c-.22-2.21.41-7.87,3.59-8.55,3.38-.72,9.88,4.53,10.11,6.69s-4.92.54-6.79,3.68C204.74,220.27,199.49,218.26,199.27,216Z"/><path class="cls-18" d="M237.5,237a14,14,0,0,1-6.79.86C229.89,241.31,237.36,242.8,237.5,237Z"/><path class="cls-20" d="M245.13,234.6a2.59,2.59,0,1,1-2.59,2.58A2.58,2.58,0,0,1,245.13,234.6Z"/><path class="cls-20" d="M252.19,227.18a3.35,3.35,0,1,1-3.35,3.35A3.34,3.34,0,0,1,252.19,227.18Z"/><path class="cls-20" d="M245.51,221.12a2.59,2.59,0,1,1-2.59,2.59A2.59,2.59,0,0,1,245.51,221.12Z"/><path class="cls-42" d="M359.46,125.63A18.35,18.35,0,1,1,341.11,144,18.35,18.35,0,0,1,359.46,125.63Z"/><path class="cls-43" d="M361.74,129.89a12.83,12.83,0,1,1-12.83,12.83A12.83,12.83,0,0,1,361.74,129.89Z"/><path class="cls-17" d="M357.69,130.25c1.21,3.39-4.83,1.67-7.61,8.34-2.57,6.18.38,9.07-2.4,9.81-2.1.56-4.46-3.8-.94-11.66C349.9,129.69,356.76,127.66,357.69,130.25Z"/><path class="cls-17" d="M348,151c2.71-2,4.95,2.22,2.53,3.65S345.76,152.55,348,151Z"/><path class="cls-67" d="M98.46,365.36c0,124.57,101,225.55,225.54,225.55s225.54-101,225.54-225.55S448.57,139.82,324,139.82,98.46,240.8,98.46,365.36ZM-14.17-14.17H662.17V662.17H-14.17Z"/><path class="cls-68" d="M167.39,203.05C210.12,111.48,303,48,410.73,48c115.14,0,213.34,72.51,251.44,174.35V410.41c-38.1,101.85-136.3,174.35-251.44,174.35a271.11,271.11,0,0,1-28.36-1.48c96.27-25.72,167.17-113.54,167.17-217.92,0-124.56-101-225.54-225.54-225.54A224.81,224.81,0,0,0,167.39,203.05Z"/><path class="cls-69" d="M-14.17,504.3a146.16,146.16,0,0,0,255.93,71.15,224.86,224.86,0,0,0,32.05,9.85,174.45,174.45,0,0,1-121.26,76.87H103.49A174.39,174.39,0,0,1-14.17,590.55Zm0-116.07a174.42,174.42,0,0,1,117.92-71.65q-2.34,10.57-3.66,21.5A146.29,146.29,0,0,0-14.17,458Z"/><path class="cls-17" d="M198.33,119a3,3,0,0,1,.1,2.58,3.88,3.88,0,0,1-2,1.93l-3.8,1.86L202.24,145a4.54,4.54,0,0,1,.43,3.05,3.2,3.2,0,0,1-1.87,2.25,3.35,3.35,0,0,1-3,.15,4.47,4.47,0,0,1-2.18-2.23l-9.57-19.62-3.88,1.89a4,4,0,0,1-2.74.41,3,3,0,0,1-2-1.72,3,3,0,0,1-.12-2.65,3.86,3.86,0,0,1,1.93-2l14.29-7a3.91,3.91,0,0,1,2.75-.38A3.09,3.09,0,0,1,198.33,119Z"/><path class="cls-17" d="M234.87,131.78a4.41,4.41,0,0,1,.1,3,3.17,3.17,0,0,1-2.06,2,3.21,3.21,0,0,1-2.82-.22,4.39,4.39,0,0,1-1.9-2.35l-3.51-9.65a5.55,5.55,0,0,0-1.94-2.82,3.65,3.65,0,0,0-3.49-.32,3.61,3.61,0,0,0-2.23,2.17,4.47,4.47,0,0,0,0,3.24l3.68,10.1a4.47,4.47,0,0,1,.1,3,3.46,3.46,0,0,1-4.88,1.75,4.28,4.28,0,0,1-1.9-2.35l-9.46-26a4.25,4.25,0,0,1,0-2.94,3.2,3.2,0,0,1,2-2,3.24,3.24,0,0,1,2.79.18,4.09,4.09,0,0,1,1.89,2.3l2.92,8a16.37,16.37,0,0,1,2.45-2.47,9.58,9.58,0,0,1,2.82-1.59,10.38,10.38,0,0,1,3.43-.66,7.69,7.69,0,0,1,3.37.69,6.83,6.83,0,0,1,2.69,2.06,11.74,11.74,0,0,1,1.77,3.31Z"/><path class="cls-17" d="M261.37,114.9a3.49,3.49,0,0,1-.09,2.52,3.16,3.16,0,0,1-2.13,1.29l-12.76,3.19a9.81,9.81,0,0,0,.87,1.11,4.88,4.88,0,0,0,1.92,1.36,5.24,5.24,0,0,0,3.54.3,8.47,8.47,0,0,0,2.33-1,6.93,6.93,0,0,0,1.26-.9l1.7-1.52a3.08,3.08,0,0,1,1.23-.6,3,3,0,0,1,2.31.32,2.67,2.67,0,0,1,1.37,1.73,3,3,0,0,1-.42,2.28,7.35,7.35,0,0,1-1.51,1.86,13.76,13.76,0,0,1-3.22,2.37,17.55,17.55,0,0,1-3.93,1.5,13.59,13.59,0,0,1-5.66.24,11.85,11.85,0,0,1-5.12-2.21,11.27,11.27,0,0,1-2.95-3.17,15.4,15.4,0,0,1-1.66-4.19,12.41,12.41,0,0,1,1.28-9.44,11.48,11.48,0,0,1,7.51-5.71,11.07,11.07,0,0,1,8.86,1.33A11.54,11.54,0,0,1,261.37,114.9Zm-7.1.09a7.28,7.28,0,0,0-2.26-2.66,4.24,4.24,0,0,0-3.49-.46,4,4,0,0,0-2.67,2,8.42,8.42,0,0,0-.85,3.38Z"/><path class="cls-17" d="M306.41,100.58a14.24,14.24,0,0,1-.21,4.16,10,10,0,0,1-1.51,3.61,8.65,8.65,0,0,1-3.28,2.84,12.72,12.72,0,0,1-4.53,1.21l-5.53.49.6,6.88a4.47,4.47,0,0,1-.71,3,3.24,3.24,0,0,1-2.59,1.43,3.32,3.32,0,0,1-2.77-.93,4.41,4.41,0,0,1-1.24-2.86L282.55,96.6a4.62,4.62,0,0,1,.86-3.4,4.3,4.3,0,0,1,3.15-1.48l7.46-.65a16.28,16.28,0,0,1,4.64.17A8.13,8.13,0,0,1,302.38,93a11.12,11.12,0,0,1,2.76,3.42A10.66,10.66,0,0,1,306.41,100.58Zm-7.42,1,0-.39a3.83,3.83,0,0,0-1.55-2.85,4.62,4.62,0,0,0-3.28-.87l-4.09.36.76,8.7,3.71-.32a7.29,7.29,0,0,0,2-.44,3.44,3.44,0,0,0,1.47-1.22A4,4,0,0,0,299,101.62Z"/><path class="cls-17" d="M327.68,100a2.75,2.75,0,0,1-1.07,2.37,9.17,9.17,0,0,1-2.52,1.15l-1.86.8a9,9,0,0,0-1.83,1.07,2.41,2.41,0,0,0-.84,1.19,5.66,5.66,0,0,0-.19,1.73l.17,9.6a4.41,4.41,0,0,1-.89,2.89,3.46,3.46,0,0,1-5.18.07,4.35,4.35,0,0,1-1-2.85l-.3-17.06a6.63,6.63,0,0,1,.14-1.57,2.92,2.92,0,0,1,.67-1.24,3.38,3.38,0,0,1,2.57-1.3,3.69,3.69,0,0,1,2.18.61,4.7,4.7,0,0,1,1.51,1.83,14.23,14.23,0,0,1,2-1.82,5.35,5.35,0,0,1,2.63-.76,3.91,3.91,0,0,1,2.65.91A3.06,3.06,0,0,1,327.68,100Z"/><path class="cls-17" d="M354,110.59a14.77,14.77,0,0,1-1,4.76,11.54,11.54,0,0,1-2.58,3.9,11.59,11.59,0,0,1-8.78,3.38,11.46,11.46,0,0,1-8.53-4.29,11,11,0,0,1-2.16-4.15,15.24,15.24,0,0,1-.54-4.83,15,15,0,0,1,1-4.76,10.76,10.76,0,0,1,2.65-3.87,12.81,12.81,0,0,1,4.08-2.63,11.09,11.09,0,0,1,4.73-.78,11.43,11.43,0,0,1,4.64,1.27,11.91,11.91,0,0,1,3.76,3,11.1,11.1,0,0,1,2.19,4.2A15.2,15.2,0,0,1,354,110.59Zm-6.9-.36a6.86,6.86,0,0,0-1.08-4.18,4.4,4.4,0,0,0-3.59-2.17,4.11,4.11,0,0,0-3.66,1.84,7.27,7.27,0,0,0-1.36,4,7.54,7.54,0,0,0,1,4.29,3.93,3.93,0,0,0,3.38,2,4.45,4.45,0,0,0,3.79-1.74A6.8,6.8,0,0,0,347.13,110.23Z"/><path class="cls-17" d="M395.12,125.89a4.47,4.47,0,0,1-1.42,2.67,3.17,3.17,0,0,1-2.78.68,3,3,0,0,1-2.28-1.59,4.41,4.41,0,0,1-.42-3l2-11.25a3.46,3.46,0,0,0-.58-2.78,3.72,3.72,0,0,0-2.47-1.46,3.61,3.61,0,0,0-4.23,3l-2,11.25a4.53,4.53,0,0,1-1.4,2.68,3.07,3.07,0,0,1-2.71.69,3.17,3.17,0,0,1-2.37-1.61,4.42,4.42,0,0,1-.42-3l1.86-10.59a4.92,4.92,0,0,0-.28-3.12,3.27,3.27,0,0,0-2.56-1.76,3.6,3.6,0,0,0-2.73.54,3.48,3.48,0,0,0-1.5,2.41l-2,11.25a4.41,4.41,0,0,1-1.42,2.68,3.2,3.2,0,0,1-2.78.68,3.17,3.17,0,0,1-2.32-1.61,4.3,4.3,0,0,1-.47-3l3-16.8a4.75,4.75,0,0,1,1.34-2.63,2.79,2.79,0,0,1,2.58-.79l.18,0a3.33,3.33,0,0,1,1.87,1.06,6.69,6.69,0,0,1,1.14,1.81,9.44,9.44,0,0,1,6.64-1.17,11.4,11.4,0,0,1,2.39.69,7.71,7.71,0,0,1,2,1.26,5.23,5.23,0,0,1,.91.94,6.93,6.93,0,0,1,.65,1.29,15.72,15.72,0,0,1,4-1.64,9.7,9.7,0,0,1,4-.07A8.2,8.2,0,0,1,396,107a7.59,7.59,0,0,1,1.39,6.07Z"/><path class="cls-17" d="M417.49,104.42a4,4,0,0,1-1.93,2.47,3.79,3.79,0,0,1-3.08.39,4.11,4.11,0,0,1-2.83-5.11,4.05,4.05,0,0,1,2-2.44,3.94,3.94,0,0,1,3.16-.39,3.83,3.83,0,0,1,2.4,2A4,4,0,0,1,417.49,104.42Zm-8.12,26.24a4.41,4.41,0,0,1-1.69,2.5,3.47,3.47,0,0,1-5-1.45,4.3,4.3,0,0,1-.16-3l4.71-16.43a4.25,4.25,0,0,1,1.69-2.41,3.5,3.5,0,0,1,5,1.4,4.13,4.13,0,0,1,.17,3Z"/><path class="cls-17" d="M434.07,135.22a7.67,7.67,0,0,1-4.56,4.67,8.55,8.55,0,0,1-3.31.46,11.55,11.55,0,0,1-3.46-.67,14.62,14.62,0,0,1-4.93-3c-1.88-1.74-2.54-3.41-2-5A3.09,3.09,0,0,1,417.4,130a2.63,2.63,0,0,1,2.21-.25,4.7,4.7,0,0,1,1.13.56c.23.19.86.81,1.87,1.86a10.1,10.1,0,0,0,1.18,1,4.64,4.64,0,0,0,1.18.64,2.72,2.72,0,0,0,1.48.08,1.31,1.31,0,0,0,1-.8,1.7,1.7,0,0,0-.41-1.69,15.28,15.28,0,0,0-1.36-1.31l-1.58-1.29a12.53,12.53,0,0,1-3.19-3.71,5.84,5.84,0,0,1-.25-4.79,6.93,6.93,0,0,1,3.72-4.06,8.88,8.88,0,0,1,7.27-.32,13.22,13.22,0,0,1,3,1.53,9.25,9.25,0,0,1,2.27,2.23,6.32,6.32,0,0,1,.87,1.82,2.82,2.82,0,0,1,0,1.75,3.56,3.56,0,0,1-1.54,1.77,2.46,2.46,0,0,1-2.2.35l-.05-.12a6.07,6.07,0,0,1-1.42-1,12.06,12.06,0,0,1-.9-.86,16.26,16.26,0,0,0-1.48-1.2,4.79,4.79,0,0,0-1-.52,3.81,3.81,0,0,0-1.26-.1.94.94,0,0,0-.78.58l0,.09c-.19.55.1,1.23.89,2.06a14,14,0,0,0,1.87,1.6,31,31,0,0,1,2.23,2.15,10.45,10.45,0,0,1,1.77,2.58A6,6,0,0,1,434.07,135.22Z"/><path class="cls-17" d="M462.87,142.83a3.47,3.47,0,0,1-1.69,1.87,3.16,3.16,0,0,1-2.46-.37l-11.82-5.77a10.35,10.35,0,0,0,0,1.42,5.07,5.07,0,0,0,.6,2.27,5.25,5.25,0,0,0,2.52,2.51,8.83,8.83,0,0,0,2.41.75,7.35,7.35,0,0,0,1.55.11l2.27-.07a3,3,0,0,1,1.34.34,3,3,0,0,1,1.56,1.72,2.73,2.73,0,0,1-.06,2.21,3.1,3.1,0,0,1-1.79,1.48,7.79,7.79,0,0,1-2.36.45,13.55,13.55,0,0,1-4-.26,17.34,17.34,0,0,1-4-1.38,13.76,13.76,0,0,1-4.49-3.44,12.08,12.08,0,0,1-2.51-5,11.21,11.21,0,0,1-.21-4.32,15.45,15.45,0,0,1,1.42-4.28,12.42,12.42,0,0,1,7.05-6.41,11.48,11.48,0,0,1,9.42.45,11.13,11.13,0,0,1,5.94,6.72A11.57,11.57,0,0,1,462.87,142.83Zm-5.49-4.5a7.31,7.31,0,0,0,0-3.48,4.27,4.27,0,0,0-2.38-2.6,4,4,0,0,0-3.37-.15,8.59,8.59,0,0,0-2.82,2Z"/><path class="cls-17" d="M240.47,73.63a2.1,2.1,0,0,1-.06,1.26,2.9,2.9,0,0,1-.73,1.12,7.23,7.23,0,0,1-1.94,1.49,12.63,12.63,0,0,1-2.5,1,9.24,9.24,0,0,1-7.11-.83,8.92,8.92,0,0,1-3.33-3.15A15,15,0,0,1,223,70.18a9.68,9.68,0,0,1,.85-7.57A9.55,9.55,0,0,1,230,58.06a10.3,10.3,0,0,1,3.73-.35c1.6.15,2.53.76,2.82,1.82a2.51,2.51,0,0,1,0,1.61,1.55,1.55,0,0,1-1.14,1,2.42,2.42,0,0,1-.76.07c-.25,0-.58,0-1-.1a6.33,6.33,0,0,0-2.38.14A4.6,4.6,0,0,0,227.87,65a7,7,0,0,0-.07,4.5,10,10,0,0,0,1.09,2.64,5.2,5.2,0,0,0,1.89,1.77,4.73,4.73,0,0,0,3.58.35,8.27,8.27,0,0,0,.92-.31,3.27,3.27,0,0,0,.79-.46l1.11-1a2.53,2.53,0,0,1,.82-.41l.17,0a1.56,1.56,0,0,1,1.43.28A2.43,2.43,0,0,1,240.47,73.63Z"/><path class="cls-17" d="M257.38,70.75a2.76,2.76,0,0,1-.23,1.88,2.16,2.16,0,0,1-3.18.6A2.71,2.71,0,0,1,253,71.6l-1.22-6.31a3.54,3.54,0,0,0-.93-1.93,2.27,2.27,0,0,0-2.12-.53A2.22,2.22,0,0,0,247.17,64a2.81,2.81,0,0,0-.32,2l1.28,6.6a2.67,2.67,0,0,1-.23,1.87,2,2,0,0,1-1.46,1,2,2,0,0,1-1.72-.41,2.65,2.65,0,0,1-.94-1.64l-3.3-17a2.63,2.63,0,0,1,.26-1.82,2,2,0,0,1,1.45-1,2,2,0,0,1,1.71.39,2.61,2.61,0,0,1,.94,1.6l1,5.25a9.71,9.71,0,0,1,1.75-1.29,6.18,6.18,0,0,1,1.89-.71,6.75,6.75,0,0,1,2.19-.07,5,5,0,0,1,2,.75,4.29,4.29,0,0,1,1.46,1.54,7.51,7.51,0,0,1,.77,2.22Z"/><path class="cls-17" d="M275.28,67.65a2.91,2.91,0,0,1-.32,1.94,2,2,0,0,1-1.52,1,1.85,1.85,0,0,1-1.39-.31,3,3,0,0,1-1-1.2,4.78,4.78,0,0,1-3.39,2.42,6,6,0,0,1-2.3-.09,7.83,7.83,0,0,1-2.23-.89,7.23,7.23,0,0,1-2.34-2.45,9.87,9.87,0,0,1-1.17-6.58,7.69,7.69,0,0,1,3.18-4.69,5.66,5.66,0,0,1,2.33-.93,5.25,5.25,0,0,1,4,1.12,3.56,3.56,0,0,1,.62-1.25,2.07,2.07,0,0,1,1.26-.68,2.12,2.12,0,0,1,1.68.4,2.27,2.27,0,0,1,.87,1.51ZM270,63.28a4.61,4.61,0,0,0-1.13-2.57,2.83,2.83,0,0,0-2.62-.8,2.59,2.59,0,0,0-2,1.54,4.36,4.36,0,0,0-.31,2.61A4.57,4.57,0,0,0,265,66.51a2.56,2.56,0,0,0,2.44.9A2.81,2.81,0,0,0,269.59,66,4,4,0,0,0,270,63.28Z"/><path class="cls-17" d="M293.34,60.05a9.25,9.25,0,0,1-1.11,5.79,6.1,6.1,0,0,1-4.84,3.1,5.23,5.23,0,0,1-3.53-1l.5,4.77a2.61,2.61,0,0,1-.42,1.79,2.16,2.16,0,0,1-3.2.35,2.53,2.53,0,0,1-.8-1.68L278.21,56.7a3.28,3.28,0,0,1,.32-1.91,1.78,1.78,0,0,1,1.49-.94,2.09,2.09,0,0,1,1.42.3,3.27,3.27,0,0,1,.9,1.15,5.22,5.22,0,0,1,1.51-1.42,4.83,4.83,0,0,1,1.95-.64,7,7,0,0,1,2.45.15,5.55,5.55,0,0,1,2.09,1.07,7.33,7.33,0,0,1,2,2.45A8.87,8.87,0,0,1,293.34,60.05Zm-4.33.77a4.44,4.44,0,0,0-1-2.42,2.54,2.54,0,0,0-2.28-1,2.75,2.75,0,0,0-2.21,1.36,4.26,4.26,0,0,0-.56,2.72A4.22,4.22,0,0,0,284,64a2.84,2.84,0,0,0,2.51,1,2.49,2.49,0,0,0,2-1.47A4.49,4.49,0,0,0,289,60.82Z"/><path class="cls-17" d="M305.61,54a1.8,1.8,0,0,1-.53,1.5,2.4,2.4,0,0,1-1.55.63l-1.25.09.62,8.92a2.72,2.72,0,0,1-.46,1.83,1.94,1.94,0,0,1-1.58.83,2,2,0,0,1-1.65-.62,2.66,2.66,0,0,1-.74-1.73l-.62-8.92a6.89,6.89,0,0,1-1.18,0,1.85,1.85,0,0,1-1.08-.53A2,2,0,0,1,295,54.7a2.25,2.25,0,0,1,.19-1.05,1.43,1.43,0,0,1,.53-.7,2.75,2.75,0,0,1,.71-.27,3.84,3.84,0,0,1,.71-.11l.42,0-.19-2.76a2.62,2.62,0,0,1,.47-1.77,2.23,2.23,0,0,1,3.25-.25,2.71,2.71,0,0,1,.71,1.71l.19,2.76,1.26-.09a2.49,2.49,0,0,1,1.62.4A1.8,1.8,0,0,1,305.61,54Z"/><path class="cls-17" d="M322.43,58.45a2.15,2.15,0,0,1-.38,1.53,2,2,0,0,1-1.47.51l-8.21.29a6.67,6.67,0,0,0,.39.8,3,3,0,0,0,1,1.07,3.27,3.27,0,0,0,2.13.65,5.58,5.58,0,0,0,1.55-.3,4.38,4.38,0,0,0,.89-.39l1.23-.7a1.85,1.85,0,0,1,.83-.21,1.92,1.92,0,0,1,1.37.49,1.68,1.68,0,0,1,.62,1.24,1.91,1.91,0,0,1-.56,1.34,4.42,4.42,0,0,1-1.16.94,8.42,8.42,0,0,1-2.28,1,10.61,10.61,0,0,1-2.6.4,8.39,8.39,0,0,1-3.48-.58,7.35,7.35,0,0,1-2.85-2,6.86,6.86,0,0,1-1.39-2.32,9.65,9.65,0,0,1-.47-2.77,7.72,7.72,0,0,1,2-5.61,7.19,7.19,0,0,1,5.33-2.52,7,7,0,0,1,5.25,2A7.21,7.21,0,0,1,322.43,58.45Zm-4.35-.87a4.65,4.65,0,0,0-1-1.92,2.68,2.68,0,0,0-2.08-.74,2.55,2.55,0,0,0-1.9.91,5.68,5.68,0,0,0-1,2Z"/><path class="cls-17" d="M335.77,53.63a1.7,1.7,0,0,1-.72,1.45,5.53,5.53,0,0,1-1.6.66l-1.18.46a5.24,5.24,0,0,0-1.16.63,1.53,1.53,0,0,0-.56.72,3.89,3.89,0,0,0-.15,1.08l-.11,6a2.73,2.73,0,0,1-.61,1.79,2.17,2.17,0,0,1-3.24-.07,2.68,2.68,0,0,1-.58-1.81L326,53.88a4.35,4.35,0,0,1,.12-1,1.87,1.87,0,0,1,.45-.76,2.1,2.1,0,0,1,1.64-.76,2.26,2.26,0,0,1,1.34.43A3,3,0,0,1,330.5,53a8.06,8.06,0,0,1,1.31-1.08,3.37,3.37,0,0,1,1.66-.43,2.53,2.53,0,0,1,1.64.63A1.92,1.92,0,0,1,335.77,53.63Z"/><path class="cls-17" d="M362.05,50.75a1.83,1.83,0,0,1-.77,1.41,2.4,2.4,0,0,1-1.67.41L357,52.34l-1.19,13.59a2.93,2.93,0,0,1-.76,1.78,2,2,0,0,1-1.73.6,2.14,2.14,0,0,1-1.64-.88,2.86,2.86,0,0,1-.45-1.9l1.19-13.59-2.69-.24a2.5,2.5,0,0,1-1.59-.66,1.82,1.82,0,0,1-.5-1.55,1.89,1.89,0,0,1,.79-1.46,2.35,2.35,0,0,1,1.66-.42l9.9.86a2.46,2.46,0,0,1,1.59.68A1.91,1.91,0,0,1,362.05,50.75Z"/><path class="cls-17" d="M377.1,68.3a2.8,2.8,0,0,1-.8,1.71,2.17,2.17,0,0,1-3.22-.41,2.74,2.74,0,0,1-.39-1.84l.78-6.38a3.44,3.44,0,0,0-.28-2.12,2.27,2.27,0,0,0-1.85-1.16,2.24,2.24,0,0,0-1.86.57,2.82,2.82,0,0,0-.91,1.81l-.82,6.67a2.83,2.83,0,0,1-.8,1.72,2.19,2.19,0,0,1-3.22-.41,2.78,2.78,0,0,1-.39-1.85l2.11-17.15a2.64,2.64,0,0,1,.8-1.66,2.2,2.2,0,0,1,3.21.38,2.55,2.55,0,0,1,.39,1.82l-.65,5.3a9.44,9.44,0,0,1,2.07-.68,6.23,6.23,0,0,1,2-.09,6.71,6.71,0,0,1,2.1.61,4.71,4.71,0,0,1,1.68,1.34,4.23,4.23,0,0,1,.91,1.91,7.51,7.51,0,0,1,0,2.34Z"/><path class="cls-17" d="M392.64,59.7a1.73,1.73,0,0,1-.93,1.33,6,6,0,0,1-1.69.4l-1.23.27a5.41,5.41,0,0,0-1.25.43,1.44,1.44,0,0,0-.66.63,3.46,3.46,0,0,0-.32,1l-1.05,5.91a2.75,2.75,0,0,1-.88,1.67,2,2,0,0,1-1.74.43,2,2,0,0,1-1.45-1,2.69,2.69,0,0,1-.3-1.87L383,58.43a3.89,3.89,0,0,1,.28-.94,1.71,1.71,0,0,1,.56-.68,2.07,2.07,0,0,1,1.73-.49,2.29,2.29,0,0,1,1.26.63,2.94,2.94,0,0,1,.72,1.3,8.94,8.94,0,0,1,1.46-.87,3.45,3.45,0,0,1,1.7-.16,2.48,2.48,0,0,1,1.52.88A1.88,1.88,0,0,1,392.64,59.7Z"/><path class="cls-17" d="M407.46,68.07a2.24,2.24,0,0,1-.74,1.39,2,2,0,0,1-1.55.15l-8-1.71a6.39,6.39,0,0,0,.18.86,3.13,3.13,0,0,0,.71,1.29,3.31,3.31,0,0,0,1.9,1.14,5.45,5.45,0,0,0,1.58.09,4.67,4.67,0,0,0,.95-.16l1.37-.39a1.78,1.78,0,0,1,.86,0,1.92,1.92,0,0,1,1.21.81,1.67,1.67,0,0,1,.3,1.35,1.94,1.94,0,0,1-.87,1.17,4.89,4.89,0,0,1-1.36.63,8.57,8.57,0,0,1-2.45.44,11.11,11.11,0,0,1-2.62-.23,8.6,8.6,0,0,1-3.24-1.41,7.61,7.61,0,0,1-2.28-2.65,6.82,6.82,0,0,1-.78-2.59,9.51,9.51,0,0,1,.21-2.8,7.78,7.78,0,0,1,3.31-5,7.2,7.2,0,0,1,5.78-1.15,7,7,0,0,1,4.62,3.17A7.29,7.29,0,0,1,407.46,68.07Zm-4-1.9a4.4,4.4,0,0,0-.54-2.1,2.62,2.62,0,0,0-1.83-1.22,2.52,2.52,0,0,0-2.06.42,5.23,5.23,0,0,0-1.41,1.66Z"/><path class="cls-17" d="M424.47,72.68a2.15,2.15,0,0,1-.81,1.35,2,2,0,0,1-1.56.07L414.16,72a7.77,7.77,0,0,0,.14.88,3.13,3.13,0,0,0,.64,1.32,3.29,3.29,0,0,0,1.84,1.24,6.1,6.1,0,0,0,1.57.17,5,5,0,0,0,1-.12l1.39-.31a2,2,0,0,1,.86,0,1.9,1.9,0,0,1,1.16.88,1.67,1.67,0,0,1,.23,1.36,1.93,1.93,0,0,1-.92,1.12,5,5,0,0,1-1.39.56,8.44,8.44,0,0,1-2.48.31,10.14,10.14,0,0,1-2.6-.37,8.37,8.37,0,0,1-3.17-1.58,7.48,7.48,0,0,1-2.13-2.76,7,7,0,0,1-.65-2.62,9.57,9.57,0,0,1,.36-2.8,7.76,7.76,0,0,1,3.57-4.77,7.17,7.17,0,0,1,5.83-.85,6.92,6.92,0,0,1,4.44,3.42A7.24,7.24,0,0,1,424.47,72.68Zm-3.91-2.1a4.46,4.46,0,0,0-.43-2.13,2.64,2.64,0,0,0-1.77-1.32,2.55,2.55,0,0,0-2.08.31A5.37,5.37,0,0,0,414.79,69Z"/><rect class="cls-70" x="591.31" y="591.31" width="70.87" height="70.87"/><circle class="cls-20" cx="635.5" cy="638.33" r="19.84" transform="translate(-199.98 974.93) rotate(-67.07)"/><path class="cls-20" d="M648.25,607.15a9.92,9.92,0,1,1-9.92,9.92A9.93,9.93,0,0,1,648.25,607.15Z"/><path class="cls-71" d="M635,634.32v.84h-4.74a1.81,1.81,0,0,1,.1-.61,3.37,3.37,0,0,1,.59-.95,9.7,9.7,0,0,1,1.15-1.08,10.2,10.2,0,0,0,1.58-1.52,1.82,1.82,0,0,0,.41-1.06,1.16,1.16,0,0,0-.37-.88,1.36,1.36,0,0,0-1-.36,1.33,1.33,0,0,0-1.41,1.43l-.9-.09a2.23,2.23,0,0,1,.7-1.54,2.4,2.4,0,0,1,1.63-.53,2.26,2.26,0,0,1,1.63.57A1.89,1.89,0,0,1,635,630a2.3,2.3,0,0,1-.17.85,3.43,3.43,0,0,1-.59.87,13,13,0,0,1-1.35,1.26q-.79.67-1,.9a2.58,2.58,0,0,0-.37.48Z"/><path class="cls-71" d="M636.12,633.5l.84-.07a1.42,1.42,0,0,0,.41.86,1.11,1.11,0,0,0,.77.27,1.4,1.4,0,0,0,.72-.18,1.59,1.59,0,0,0,.5-.5,3.08,3.08,0,0,0,.32-.84,4.32,4.32,0,0,0,.13-1.08v-.17a2,2,0,0,1-.72.68,2.05,2.05,0,0,1-2.49-.38,2.36,2.36,0,0,1-.61-1.7,2.43,2.43,0,0,1,.64-1.76,2.15,2.15,0,0,1,1.61-.66,2.28,2.28,0,0,1,1.27.38,2.34,2.34,0,0,1,.88,1.07,5.24,5.24,0,0,1,.3,2,6.48,6.48,0,0,1-.3,2.19,2.62,2.62,0,0,1-.88,1.24,2.32,2.32,0,0,1-1.38.42,1.9,1.9,0,0,1-2-1.78Zm3.59-3.16a1.72,1.72,0,0,0-.4-1.2,1.28,1.28,0,0,0-1-.44,1.34,1.34,0,0,0-1,.48,1.77,1.77,0,0,0-.43,1.24,1.57,1.57,0,0,0,.41,1.11,1.36,1.36,0,0,0,1,.42,1.31,1.31,0,0,0,1-.42A1.71,1.71,0,0,0,639.71,630.34Z"/><path class="cls-20" d="M0,0V648H648V0ZM-85-85H733V733H-85Z"/></svg>