<svg id="graphic" xmlns="http://www.w3.org/2000/svg" xmlns:xlink="http://www.w3.org/1999/xlink" viewBox="0 0 648 648"><defs><style>.cls-1{fill:#aecfff;}.cls-16,.cls-2{fill:#fff;}.cls-3{fill:#71c8e7;}.cls-4{fill:#4ebae1;}.cls-5{fill:#38a4e1;}.cls-6{fill:#ffff68;}.cls-7{fill:#fbcf9c;}.cls-11,.cls-12,.cls-13,.cls-14,.cls-15,.cls-16,.cls-17,.cls-19,.cls-21,.cls-22,.cls-25,.cls-28,.cls-30,.cls-32,.cls-33,.cls-34,.cls-36,.cls-37,.cls-45,.cls-7,.cls-8,.cls-9{fill-rule:evenodd;}.cls-24,.cls-8{fill:#f9b385;}.cls-9{fill:#708286;}.cls-10{fill:#416c79;}.cls-11{fill:#93be27;}.cls-12{fill:#56a027;}.cls-13{fill:#ff9094;}.cls-14{fill:#ffb3b6;}.cls-15{fill:#333;}.cls-17,.cls-18{fill:#ffe0e1;}.cls-19{fill:#f34e42;}.cls-20{fill:#f68077;}.cls-21{fill:#f7a067;}.cls-22{fill:#c6cdcf;}.cls-23{fill:#7dad16;}.cls-25{fill:#474747;}.cls-26{fill:url(#New_Gradient_3);}.cls-27{fill:url(#New_Gradient_3-2);}.cls-28{fill:#ffe94e;}.cls-29{fill:#ffbe3d;}.cls-30{fill:#ff5f52;}.cls-31{fill:#ff9484;}.cls-32{fill:#e0f4fd;}.cls-33{fill:#30ade5;}.cls-34{fill:#a9daf3;}.cls-35{fill:#9ed8f0;}.cls-36{fill:#d4e9fc;}.cls-37{fill:#422500;}.cls-38{fill:#8ae3e5;}.cls-39{fill:#5cd8db;}.cls-40{fill:#ffffe9;}.cls-41{fill:#c2f26c;}.cls-42{fill:#a0e94e;}.cls-43{fill:#daf7a7;}.cls-44{fill:none;}.cls-45{fill:#6d6f71;}</style><radialGradient id="New_Gradient_3" cx="331.28" cy="249.79" r="8.95" gradientUnits="userSpaceOnUse"><stop offset="0" stop-color="#fba063"/><stop offset="0.64" stop-color="#fbcf9c"/><stop offset="1" stop-color="#fbcf9c"/></radialGradient><radialGradient id="New_Gradient_3-2" cx="295.03" cy="256.69" r="7.78" xlink:href="#New_Gradient_3"/></defs><title>page16</title><rect class="cls-1" x="-14.17" y="-14.17" width="676.35" height="676.35"/><path class="cls-2" d="M662.17,306.57V470.05H-14.17V266.64c9.4-4.68,21-5.22,30,1.18-.43-6.2,7.93-10.88,13.12-5.35C38.68,236.19,83.57,239,91.85,260c16.27-19.3,66-13.37,69,19.12,1.29-5.19,9.15-7.49,12.73-3.11-7.4-30.25,34.72-48.22,47.5-30.51,1.88-12.39,20.68-14.55,25.52-3.41,6.48-30.13,52.46-21.75,55.68.2,5.35-6.42,20.12.41,18.85,9.16,11.18-9.08,36.19-4.08,40.56,13,10.07-15.85,65,.68,60.87,37.76,15.12-8.24,33-1.38,38.39,14.18,9-32.58,61.95-37.53,80-16.17,9.73-24.63,62.47-27.93,73.89,2.95,6.1-6.5,15.92-1,15.41,6.29C639.74,302.66,651.79,302.51,662.17,306.57Z"/><path class="cls-3" d="M662.17,390.56V662.17H-14.17V400.67C146.29,304.85,472,304.85,662.17,390.56Z"/><path class="cls-4" d="M662.17,397.72V662.17H-14.17V417.57C146.29,324.28,472,314.28,662.17,397.72Z"/><path class="cls-5" d="M662.17,468V662.17H-14.17v-55C296,638.66,452,440,662.17,468Z"/><polygon class="cls-6" points="102.31 121.54 104 116 109.72 116.91 104.98 113.59 107.6 108.43 102.98 111.91 98.89 107.82 100.77 113.29 95.61 115.92 101.4 115.82 102.31 121.54"/><path class="cls-7" d="M310.46,267.05c11.23,5.35-.27,56.34-13.27,57.84-9.16,1.06-11.73-14.24-8.34-33C292.63,270.93,302.57,263.29,310.46,267.05Z"/><path class="cls-8" d="M314.46,273c11.3,1.57,5.46,45-6.83,49.32-8.67,3-12.69-8.55-11.35-24.34C297.77,280.41,306.52,271.93,314.46,273Z"/><path class="cls-9" d="M377.13,327.4c5.4,11.21,1.83,47.34-36.61,44.2C297,368,298.84,337.29,299.24,328.88,308.32,326.93,360.9,326.14,377.13,327.4Z"/><path class="cls-10" d="M346.48,371.77c3.63-4.5,7.5-8.2,10.58-11.45,8.67-9.12,4.09-24.11-.2-33.52,8.43.05,15.76.24,20.27.6C382.24,338,379.32,370.89,346.48,371.77Z"/><path class="cls-11" d="M342.71,250.93c27,8.37,37.51,41.49,37.25,83.75-14.55,16.18-70.71,17.53-79.42,5.56,3.61-19.49.67-41.68-3-70.35C296.09,258.69,327,246,342.71,250.93Z"/><path class="cls-7" d="M303.06,267.08,313.61,277c7.9,4.77,17.92,1.46,22.3-5.33l.22-11Z"/><path class="cls-12" d="M311,278.62c-5.51-2.48-7.34-7.88-5.68-10,7.24-.41,10.77,1.39,15.92,9.39,1.45-8.57,7.81-12.94,17.55-15.87,2.22,2.57.6,7.88-2.54,11.08C330.17,279.37,319.81,282.61,311,278.62Z"/><path class="cls-13" d="M197.74,404.06c-1.9,12.76-24,23-22.85,30.52,1.27,8.62,46.79,6.4,71-22.85Z"/><path class="cls-14" d="M168,393.18c-13.89,22.66,21.91,38.24,42.14,25.75l-12.21-10.3Z"/><path class="cls-14" d="M407.74,333.83c-22.9-13.32-29.79-27.38-25.28-54.93,6.06,13.58,34.29,7.06,36.08,39.28C433.05,284.46,448,296,460,280.4c8.58,26.21-10,47.44-32.15,53.59Z"/><path class="cls-14" d="M408,320.86c6.47,31.4-31.88,66.46-87,29.72-66.42-44.25-132.55-22.95-142.93,16.49-14,15.24-25.14,5.6-27.46,16.35-1.91,8.79,23.94,27.09,48.1,28.15,14.7,22.9,70.66,41.92,116.41,38.22,59.28-4.79,125.1-48.27,109.17-125.14Z"/><path class="cls-15" d="M206.37,357.14c2.64-.85,6.8-.71,9.37,1.57-.17-2.3-2.26-3.58-4.33-3.7C208.8,354.86,207.54,355.64,206.37,357.14Z"/><path class="cls-16" d="M236.35,416c2.69-2.84,9.58-7,20.38-5.29,9.75,1.59,18.26,7.17,26.42,20.4-11.24-10-18-14.18-27.61-16.23C246.26,412.9,242,414.52,236.35,416Z"/><path class="cls-17" d="M264.31,329.37c7.7-7.5,37.58-24.48,60.11-13.55,5.77,2.8-19.74,18.33-12.1,37.86Z"/><path class="cls-14" d="M231.71,421.8c-4.6,17.67-26.29,25.91-25.42,33.67,1,8.87,47.73,8.23,73.59-20.89Z"/><path class="cls-18" d="M407.74,333.83h.5c-4.6,26.71-39.66,48.44-87.22,16.75-66.42-44.25-132.55-22.95-142.93,16.49-12.56,13.64-22.77,7.35-26.45,13.58,12.9,3.72,31.41,1.18,34.15-4.6-2.83-10.06,6.37-36.36,52.06-39.26,54.7-3.48,72,39.51,119.61,42.08,50.4,2.72,58.12-29.72,57.81-53.65q-20.64-4.32-32.81-46.32C378,306.45,384.84,320.51,407.74,333.83Z"/><path class="cls-16" d="M206.5,372.78c13.5-2,15.2,22.6,4.13,23.64C198,397.61,197.19,374.16,206.5,372.78Z"/><path class="cls-15" d="M203.51,372.77c-2.32.94-5.22.81-5.64-.38-1.06,1.45,1.51,4,3.64,3.62Z"/><path class="cls-15" d="M200.46,379c-.43-2.92,2.15-7.41,5.09-7.82,5.72-.78,12.17,3.61,12.68,12.82-2.63-5.83-6.12-9.32-11.42-9.7C203.89,374.14,201.43,376,200.46,379Z"/><path class="cls-15" d="M208.27,374c11.46-1.52,13.75,19.25,4.26,20.14C201.64,395.14,200.26,375,208.27,374Z"/><path class="cls-16" d="M209.13,377.92c3.51-.66,4.68,6.12,1,6.8C205.82,385.5,206,378.52,209.13,377.92Z"/><path class="cls-19" d="M173.26,401.45a98,98,0,0,0,28,10.89C182.49,422.22,164.66,407.92,173.26,401.45Z"/><path class="cls-20" d="M186.89,408c-3.89.91-7.12,2.95-8.68,5.65,5.76,2.66,14.29,3.31,23-1.3A105.48,105.48,0,0,1,186.89,408Z"/><path class="cls-7" d="M285.83,316.87c2.61,2.4,3.53,4.48,2.92,5.46-1.28,2.05-3.59-1.85-5.9-2.17.37,2.33,5.77,9.38,4.23,11.08-1.7,1.88-5.27-4.09-6.79-6.13.54,3.64,4.47,8.65,2.9,9.63-1.77,1.11-4.69-5-6.05-7.91.85,4.05,3.4,8.31,1.35,8.34-1.81,0-4.11-3.89-4.57-7.36-1.07,2.46,1.26,5.76-.82,6.09s-5.29-7.34-2.12-11.6C276.73,314.58,283.22,314.46,285.83,316.87Z"/><path class="cls-2" d="M321.91,282.7a2.18,2.18,0,1,1-1.59,2.65A2.18,2.18,0,0,1,321.91,282.7Z"/><path class="cls-2" d="M324.08,299.53a2.18,2.18,0,1,1-1.59,2.64A2.18,2.18,0,0,1,324.08,299.53Z"/><path class="cls-2" d="M326,316.33a2.19,2.19,0,1,1-1.59,2.65A2.19,2.19,0,0,1,326,316.33Z"/><path class="cls-7" d="M322.36,396.07c-1.58,5.62-3.83,17-3.19,25.55l17.48,2.09c-.13-8,2-17.43,4.35-25.72Z"/><path class="cls-7" d="M321.94,418.26c-2.81.17-14.82,6.94-14.82,6.94-2.39-.6-5.6,1-4.83,3.3a3.06,3.06,0,0,0,4.07,2c-1.53,1.08-.23,3.86,1.71,3.27-.54,1.67,1,3.43,3.63,2.08-.87,1.55,1.62,2.83,3.68,1.35-.59,2.1,3.45,3,5.09-.34l11.46-4.53c6.26-.05,8.95-8.07,4.58-11.69C336.51,420.68,324.74,418.09,321.94,418.26Z"/><path class="cls-21" d="M318.37,434.54a5.77,5.77,0,0,0-3,2.64C314.58,435.91,316.79,433.83,318.37,434.54Z"/><path class="cls-21" d="M314.47,433.26a5.25,5.25,0,0,0-2.82,2.44C311,434.53,313,432.6,314.47,433.26Z"/><path class="cls-21" d="M311.16,431.5a5.3,5.3,0,0,0-3,2.19C307.55,432.46,309.76,430.72,311.16,431.5Z"/><path class="cls-21" d="M309.1,428.36a5.29,5.29,0,0,0-2.94,2.29C305.53,429.44,307.68,427.63,309.1,428.36Z"/><path class="cls-8" d="M329.29,423.88c2.66-1.53,3.88-3.51,3.7-6.93C335.82,420,334.8,424,329.29,423.88Z"/><path class="cls-9" d="M340.22,351.64c-10.38,4.07-26.59,13.34-22.63,45.25,1.29,7.68,21.08,5.55,28.35-.13-.57-17.22,15.9-24.23,23.74-33.33C383,347.93,359.13,344.22,340.22,351.64Z"/><path class="cls-10" d="M362,348.06c10.09.79,15.92,5.86,7.73,15.37-7.84,9.1-24.31,16.11-23.74,33.33-2.51,2-6.51,3.5-10.73,4.36.46-20.84,13.83-32.35,21.85-40.8A18.54,18.54,0,0,0,362,348.06Z"/><path class="cls-22" d="M317.25,395.24c3.75,4.2,21.7,4.63,28.69,1.52,1.94,2.19,1.5,14.06-2.89,15.23a64.47,64.47,0,0,1-24.42-1.62C316,409.89,313.81,397.66,317.25,395.24Z"/><path class="cls-23" d="M364.43,343.5q3.81-56.88-26.1-93.46a24.43,24.43,0,0,1,4.38.89c27,8.37,37.51,41.49,37.25,83.75C376.62,338.39,371.08,341.33,364.43,343.5Z"/><path class="cls-7" d="M351.59,261.56c13.45,1.6,16.13,53.13,3.6,59.21-8.83,4.29-13.36-4.81-14.91-28.11S342.14,260.43,351.59,261.56Z"/><path class="cls-7" d="M359.94,304.17c9.34,23.52-42.81,42-47.53,31.59-3.22-7.13,12.39-13.34,24-23.49C348.65,301.58,358.17,299.71,359.94,304.17Z"/><path class="cls-7" d="M317.84,326.66c-2.59-2.53-6.87-2.4-10.61-2s-5.83,1.64-5.91,2.86c-.19,2.57,4.23.65,6.41,1.82-1.77,1.77-10.8,4.47-10.54,6.88.29,2.68,7.08-.22,9.66-1-2.73,2.79-9.24,4.64-8.5,6.46.82,2.06,7.13-1.36,10.13-3-3.26,2.95-8.11,5-6.36,6.32,1.54,1.15,5.95-.78,8.51-3.46-.61,2.77-4.67,4.15-3.09,5.73s8.6-2.45,11.48-7.3C322.38,334.29,320.65,329.4,317.84,326.66Z"/><path class="cls-24" d="M322.88,338.57c12.5-5.72,27.62-16,31.6-25.94,6.53-16.34,2-36.83-6-51a10.8,10.8,0,0,1,3.12,0c10.91,1.3,14.74,35.49,9.09,51.57C357.6,326.7,336.24,337.1,322.88,338.57Z"/><path class="cls-25" d="M358.8,218.91c-3.86-27.76-23.58-39.4-47.28-36.67-24.65,2.84-47.36,24.13-36.49,47.52-7.31,15.73,22.94,35.79,46.4,32C365.44,254.65,360.22,229.14,358.8,218.91Z"/><path class="cls-25" d="M351.05,211.6c-12,3.62-17.61,23.17,3.7,32.16C371.75,233.92,361.9,214.09,351.05,211.6Z"/><path class="cls-25" d="M289.46,209.36c-25.12,3.78-24.88,38.58-2.28,43.41C306.18,249.15,298.31,216.5,289.46,209.36Z"/><path class="cls-7" d="M349.93,235.89C347.41,215,330,199.32,309.5,201.14s-40.06,22.69-25.83,51.66c-3.84,12.15,21.78,22.56,34.26,20C348,266.54,351.17,246.22,349.93,235.89Z"/><path class="cls-26" d="M329.71,241.05a8.87,8.87,0,1,0,10.38,7.19A8.89,8.89,0,0,0,329.71,241.05Z"/><path class="cls-27" d="M293.67,249.1a7.71,7.71,0,1,0,9,6.25A7.72,7.72,0,0,0,293.67,249.1Z"/><path class="cls-21" d="M311.25,253.15c.15,1.44-1.28,2.46-3.16,2.65s-3.49-.51-3.64-1.94a3.42,3.42,0,0,1,3.07-3.42A3.46,3.46,0,0,1,311.25,253.15Z"/><path class="cls-7" d="M311.09,252.2c.12,1.14-1,1.94-2.51,2.1s-2.77-.4-2.89-1.54a2.73,2.73,0,0,1,5.4-.56Z"/><path class="cls-25" d="M317.62,227.39c3.1-1.58,9.58-1.77,12.55.71C328.44,222.1,316.76,222.41,317.62,227.39Z"/><path class="cls-25" d="M296.05,232c-2.5-1.07-7.4-.2-9.39,2.78C287.37,228.51,294.74,227.81,296.05,232Z"/><path class="cls-7" d="M348.66,229l.52,15.45C362.18,243.16,360.87,224.68,348.66,229Z"/><path class="cls-8" d="M348.85,231.93l.38,8.79C359,242.09,356.67,229.18,348.85,231.93Z"/><path class="cls-25" d="M293.53,204.09c-10.46-2.41-28.75,13.65-21.67,32.79C290.23,235.78,298.69,211.83,293.53,204.09Z"/><path class="cls-25" d="M293.17,196c10.64.28,21.38,1.55,17.65,13.94,1,5.27,3.72,11.42,6.39,13.7-3.86,1.49-9.86.49-12.53-1.72a16.11,16.11,0,0,0,4.28,9C285.92,229.41,281.85,207.39,293.17,196Z"/><path class="cls-25" d="M276.81,208.89c-3.43,6.56-10.56,15-18.61,14.3C265.44,237.58,287.48,222.36,276.81,208.89Z"/><path class="cls-25" d="M306.13,197.41c-2.82,14,15.87,33.08,39.42,25.33C345,200.4,315.75,191.48,306.13,197.41Z"/><path class="cls-25" d="M333.29,215.56c-.44,9.07,6.43,16.65,11.59,21.31C353.18,227.24,348.19,214.17,333.29,215.56Z"/><path class="cls-25" d="M359.48,196.48c-2.91,4.59-7.24,5.25-10.85,3.1C351.66,207.39,361.68,203.5,359.48,196.48Z"/><path class="cls-25" d="M355.21,189.74c-1.93,5.79-11.31,10.53-18,7.6C344.09,210.1,360.46,201.32,355.21,189.74Z"/><path class="cls-28" d="M282.29,194.78c-7.94,3.3-21.09,22.77-14.68,25.56,12.19-8.3,44.21-15.1,91.19-3.5,2.54-1.13-1.58-11.22-5.8-14.08C343.78,196.29,309.05,184,282.29,194.78Z"/><path class="cls-29" d="M280.28,214.7A39.39,39.39,0,0,1,291.59,192a67.46,67.46,0,0,1,10.87-1.37,36.49,36.49,0,0,0-7.39,21.06A92.87,92.87,0,0,0,280.28,214.7Z"/><path class="cls-29" d="M308.55,210.7c.68-7.77,2.16-15.09,4.62-19.91a97.65,97.65,0,0,1,11.39,1.57,118.54,118.54,0,0,0-1.38,18.71C318,210.71,313.12,210.6,308.55,210.7Z"/><path class="cls-29" d="M337,212.55a75.42,75.42,0,0,0-2.48-17.74,96,96,0,0,1,10.85,3.9,55.33,55.33,0,0,1,3.45,15.89Q342.72,213.37,337,212.55Z"/><path class="cls-15" d="M293.81,239.24c-4.84.62-3.85,10.39,2.2,9.69S300.82,238.34,293.81,239.24Z"/><path class="cls-15" d="M298.9,247.27c1.51-1.34,2.18-6.76-1.83-8.17a5.86,5.86,0,0,0-7.49,3.5C294.3,239.46,298.14,241.81,298.9,247.27Z"/><path class="cls-16" d="M294.73,240c-4.89.76-4.08,11.92,1.86,11.55S300.61,239.12,294.73,240Z"/><path class="cls-15" d="M293.87,241.94c-4.35,1-1.63,11.13,3.15,10C301.39,251,298.71,240.79,293.87,241.94Z"/><path class="cls-25" d="M294.28,244.41c-2.65.63-1,6.8,1.93,6.12C298.87,249.91,297.24,243.71,294.28,244.41Z"/><path class="cls-16" d="M293.9,243.54c-1.49.32-.56,3.87,1,3.32S295.47,243.21,293.9,243.54Z"/><path class="cls-30" d="M317.42,265.28c-8,1.73-10.12-4-10.09-6,4.41.68,11.58-1.16,17-4.6C326.5,258.61,323.75,263.91,317.42,265.28Z"/><path class="cls-31" d="M314,265.59q-.64-3.94,4-7.84a31.33,31.33,0,0,0,6.3-3.05c2.2,3.91-.55,9.21-6.88,10.58A13.17,13.17,0,0,1,314,265.59Z"/><path class="cls-15" d="M323.32,233.09c-4.83.63-3.85,10.39,2.2,9.69C331.72,242.06,330.33,232.19,323.32,233.09Z"/><path class="cls-15" d="M329.67,243.7c1.61-1.43,1.19-8.72-3.1-10.22a6.25,6.25,0,0,0-8,3.74C323.61,233.86,328.86,237.86,329.67,243.7Z"/><path class="cls-16" d="M324.07,234.46c-5.22.81-4.36,12.73,2,12.34S330.34,233.5,324.07,234.46Z"/><path class="cls-15" d="M323.29,236.64c-4.67,1-2.33,11.22,2.81,10.18C330.79,245.88,328.5,235.57,323.29,236.64Z"/><path class="cls-25" d="M323.59,239.14c-2.85.59-1.42,6.85,1.72,6.22C328.17,244.79,326.77,238.49,323.59,239.14Z"/><path class="cls-16" d="M323.23,238.27c-1.59.29-.79,3.89.93,3.36S324.92,238,323.23,238.27Z"/><path class="cls-32" d="M52.56,505.71c123.44,53.73,266.69-15.14,245.53-56,15.54-14.05,2.14-42.15,1-33-9.85,76.91-208.55,58.51-246.5,31.38Z"/><path class="cls-33" d="M403.26,384.26c14.71,24.05,11.65,45.61-24.95,66.85-39.13,22.7-126.47,11.69-169.48,63.19l20,94.06,17.54-13.28C270,536.91,417,499.61,437.15,457.62,448.22,434.52,446.28,391.1,403.26,384.26Z"/><path class="cls-34" d="M220.05,567.07c13-28.28,54.45-53.11,94.42-64.76C360.12,489,415.27,475.54,428.79,432c-1.27,34.45-50.73,57.75-115.1,79.22-41.61,13.87-74.69,40.05-90.39,71.16Z"/><path class="cls-35" d="M214.6,541.44l-5.77-27.14c43-51.5,130.35-40.49,169.48-63.19,36.6-21.24,39.66-42.8,24.95-66.85,5,.8,7,1.8,10.9,3.49,14.53,31.19-6.28,73.43-59.63,83.73C283.06,485.27,239.32,497.83,214.6,541.44Z"/><path class="cls-32" d="M233.76,594.2c48-90.13,180.11-81.11,205.73-148.87,3.22-8.53,2-20.48-4.36-25.21-6.71-5-8.2-11-4.18-13.81-8.65-.07-22.75-8.79-13.3-12.29-2.91-1.65-10.11-3.67-13.44-1.28-4.86,3.51-14.07.58-12.25-5,2.05-6.31,11.19-9.23,20.47-6.46,26.21,7.82,40.25,38.71,33.16,62.71-21.41,72.52-105.78,50-163.38,134.61Z"/><path class="cls-2" d="M383.54,407.1a3.76,3.76,0,1,1-2.9,4.46A3.75,3.75,0,0,1,383.54,407.1Z"/><path class="cls-2" d="M390.18,425.07a2.57,2.57,0,1,1-2,3.05A2.56,2.56,0,0,1,390.18,425.07Z"/><path class="cls-36" d="M512.35,356.25c11.12-7.1-9.67-47.56-17.89-47.22-5.34.22-6,3-3.08,10.12-8.27-9.07-17.43-11.32-18.19-4-.52,4.9,7.27,14.67,18.45,20.43C507.12,343.55,512.41,349.71,512.35,356.25Z"/><path class="cls-2" d="M492.28,415.71a4.53,4.53,0,1,1-4.54,4.53A4.53,4.53,0,0,1,492.28,415.71Z"/><path class="cls-2" d="M477.85,471a4.54,4.54,0,1,1-4.53,4.53A4.53,4.53,0,0,1,477.85,471Z"/><path class="cls-2" d="M448.2,400.86a2.48,2.48,0,1,1-2.48,2.48A2.48,2.48,0,0,1,448.2,400.86Z"/><path class="cls-2" d="M430.69,409.1a3.92,3.92,0,1,1-3.92,3.92A3.92,3.92,0,0,1,430.69,409.1Z"/><path class="cls-2" d="M431.9,482.85a4.53,4.53,0,1,1-4.53,4.53A4.53,4.53,0,0,1,431.9,482.85Z"/><circle class="cls-2" cx="466.92" cy="445.11" r="2.48" transform="translate(-122.99 706.15) rotate(-67.5)"/><path class="cls-16" d="M608.86,207c1-6.36-13.43-14.78-14.28-10.3-1,5.2,9.84,3.1,11.76,9.13C607,208,608.62,208.63,608.86,207Z"/><path class="cls-37" d="M594.37,196.4c-.49,2-.26,2.86,2.35,3.67-.22-1.67,1-2.79,2.71-3.87C597.14,194.83,594.94,195.13,594.37,196.4Z"/><path class="cls-16" d="M607.33,207.14c-1.26-6.33,12.78-15.12,13.83-10.66,1.21,5.17-9.7,3.35-11.37,9.42C609.21,208,607.64,208.72,607.33,207.14Z"/><path class="cls-37" d="M621.34,196.14c.58,2,.39,2.85-2.18,3.72.15-1.67-1.14-2.76-2.88-3.8C618.51,194.64,620.72,194.88,621.34,196.14Z"/><path class="cls-38" d="M517.77,390.53c19.91,12.17,11,65.15-17.88,97.12-36.36,40.29-71.44,70.12-165.44,83.44-114.34,16.2-197.7,45.66-239,91.08H-14.17V520.81c32.8-11.75,89.08-26.11,148.25-15C256.87,528.92,328.17,531.61,379.3,520s111.74-46.58,122-61.83C516.73,435.05,524.67,410.47,517.77,390.53Z"/><path class="cls-39" d="M-14.17,652.19c44.66-44.7,114.12-77.69,164.38-89,83.45-18.79,132.85-4.67,185.58-8.53,73.38-5.37,133-37.08,166.77-70.1q-1.31,1.57-2.67,3.09c-36.36,40.29-71.44,70.12-165.44,83.44-114.34,16.2-197.7,45.66-239,91.08H-14.17Z"/><path class="cls-2" d="M-14.17,499.6c29.25-8.69,66.68-13.17,108-7.48,76.52,10.56,141.13,31.15,223.34,32.16,84.52,1.05,147.76-40.58,173-65.37,30.12-29.54,33.65-73,19.27-77.9-6.36,3.78-14.31-5.5-8.31-8.31-7.23-.21-15.84-8.71-10.1-10.56,19.48-6.3,45.09,12.06,37.16,50.37C512.71,487.23,395.53,539,316.75,537.41c-140-2.82-178.29-27.4-231.87-28.4-39.62-.73-72.21,5.83-99,21.85Z"/><path class="cls-2" d="M477,384.08a3.87,3.87,0,1,1-3.86,3.87A3.87,3.87,0,0,1,477,384.08Z"/><path class="cls-2" d="M483.45,423.6A1.45,1.45,0,1,1,482,425,1.44,1.44,0,0,1,483.45,423.6Z"/><path class="cls-2" d="M455.5,371.34a1.59,1.59,0,1,1-1.59,1.58A1.58,1.58,0,0,1,455.5,371.34Z"/><path class="cls-2" d="M481.5,367.26a2.21,2.21,0,1,1-2.21,2.21A2.21,2.21,0,0,1,481.5,367.26Z"/><path class="cls-2" d="M485.65,392.85a1.45,1.45,0,1,1-1.45,1.45A1.44,1.44,0,0,1,485.65,392.85Z"/><path class="cls-2" d="M491.47,381.36a1.45,1.45,0,1,1-1.45,1.45A1.45,1.45,0,0,1,491.47,381.36Z"/><path class="cls-2" d="M431.5,360.35a2.91,2.91,0,1,1-2.9,2.91A2.91,2.91,0,0,1,431.5,360.35Z"/><path class="cls-2" d="M471.51,351a1.45,1.45,0,1,1-1.45,1.45A1.45,1.45,0,0,1,471.51,351Z"/><path class="cls-2" d="M475.21,419.48a2.42,2.42,0,1,1-2.42,2.42A2.42,2.42,0,0,1,475.21,419.48Z"/><polygon class="cls-40" points="430.03 384.3 429.71 379.91 425.75 381.83 429.39 379.36 425.75 376.89 429.71 378.81 430.03 374.42 430.34 378.81 434.31 376.89 430.66 379.36 434.31 381.83 430.34 379.91 430.03 384.3"/><polygon class="cls-40" points="504.5 426.31 503.87 417.58 496 421.4 503.24 416.49 496 411.59 503.87 415.4 504.5 406.68 505.13 415.4 512.99 411.59 505.75 416.49 512.99 421.4 505.13 417.58 504.5 426.31"/><polygon class="cls-40" points="481 442.2 480.7 438.07 476.98 439.88 480.41 437.55 476.98 435.23 480.7 437.04 481 432.9 481.3 437.04 485.03 435.23 481.6 437.55 485.03 439.88 481.3 438.07 481 442.2"/><polygon class="cls-40" points="448.2 375.98 447.3 363.47 436.02 368.94 446.4 361.91 436.02 354.87 447.3 360.35 448.2 347.83 449.1 360.35 460.38 354.87 450 361.91 460.38 368.94 449.1 363.47 448.2 375.98"/><polygon class="cls-40" points="396.66 411.86 396.21 405.6 390.56 408.34 395.76 404.82 390.56 401.3 396.21 404.04 396.66 397.78 397.11 404.04 402.75 401.3 397.56 404.82 402.75 408.34 397.11 405.6 396.66 411.86"/><path class="cls-16" d="M455.48,245.2c1-6.36-13.43-14.79-14.28-10.3-1,5.2,9.84,3.1,11.76,9.12C453.64,246.14,455.24,246.78,455.48,245.2Z"/><path class="cls-37" d="M441,234.56c-.5,2-.27,2.86,2.34,3.67-.22-1.67,1-2.79,2.71-3.88C443.77,233,441.56,233.29,441,234.56Z"/><path class="cls-16" d="M454,245.3c-1.25-6.34,12.78-15.12,13.83-10.66,1.21,5.17-9.7,3.35-11.36,9.42C455.83,246.19,454.26,246.87,454,245.3Z"/><path class="cls-37" d="M468,234.3c.58,2,.39,2.85-2.18,3.72.15-1.67-1.14-2.76-2.87-3.8C465.13,232.8,467.34,233,468,234.3Z"/><path class="cls-16" d="M419.69,224.74c-1-6.35-17.35-9.91-16.78-5.39.67,5.26,10.32-.09,14,5.05C418.22,226.2,419.94,226.32,419.69,224.74Z"/><path class="cls-37" d="M402.62,219.1c.16,2.09.63,2.8,3.36,2.76-.73-1.52.11-3,1.38-4.52C404.77,216.75,402.77,217.71,402.62,219.1Z"/><path class="cls-16" d="M418.26,225.3c-3.15-5.63,7.48-18.32,9.85-14.41,2.76,4.55-8.18,6.19-7.89,12.47C420.32,225.57,419,226.71,418.26,225.3Z"/><path class="cls-37" d="M428.19,210.51c1.17,1.75,1.24,2.6-.93,4.22-.38-1.64-1.94-2.27-3.91-2.73C425,210,427.2,209.51,428.19,210.51Z"/><path class="cls-41" d="M98.46,365.36c0,124.57,101,225.55,225.54,225.55s225.54-101,225.54-225.55S448.57,139.82,324,139.82,98.46,240.8,98.46,365.36ZM-14.17-14.17H662.17V662.17H-14.17Z"/><path class="cls-42" d="M167.39,203.05C210.12,111.48,303,48,410.73,48c115.14,0,213.34,72.51,251.44,174.35V410.41c-38.1,101.85-136.3,174.35-251.44,174.35a271.11,271.11,0,0,1-28.36-1.48c96.27-25.72,167.17-113.54,167.17-217.92,0-124.56-101-225.54-225.54-225.54A224.81,224.81,0,0,0,167.39,203.05Z"/><path class="cls-43" d="M-14.17,504.3a146.16,146.16,0,0,0,255.93,71.15,224.86,224.86,0,0,0,32.05,9.85,174.45,174.45,0,0,1-121.26,76.87H103.49A174.39,174.39,0,0,1-14.17,590.55Zm0-116.07a174.42,174.42,0,0,1,117.92-71.65q-2.34,10.57-3.66,21.5A146.29,146.29,0,0,0-14.17,458Z"/><path class="cls-16" d="M171.06,133.17a2.91,2.91,0,0,1,.37,2.54,3.85,3.85,0,0,1-1.75,2.14l-3.58,2.24,11.57,18.51a4.55,4.55,0,0,1,.74,3,3.21,3.21,0,0,1-1.62,2.44,3.38,3.38,0,0,1-2.95.45,4.46,4.46,0,0,1-2.4-2L159.87,144l-3.66,2.29a4.07,4.07,0,0,1-2.68.69,2.94,2.94,0,0,1-2.13-1.51,3.06,3.06,0,0,1-.4-2.62,3.86,3.86,0,0,1,1.72-2.14l13.48-8.42a3.9,3.9,0,0,1,2.69-.67A3.07,3.07,0,0,1,171.06,133.17Z"/><path class="cls-16" d="M208.66,141.91a4.41,4.41,0,0,1,.43,3,3.47,3.47,0,0,1-4.67,2.25,4.29,4.29,0,0,1-2.14-2.14l-4.5-9.23a5.64,5.64,0,0,0-2.23-2.6,3.66,3.66,0,0,0-3.5.05,3.58,3.58,0,0,0-2,2.39,4.48,4.48,0,0,0,.35,3.22l4.71,9.67a4.47,4.47,0,0,1,.42,3,3.17,3.17,0,0,1-1.85,2.18,3.21,3.21,0,0,1-2.82.07,4.33,4.33,0,0,1-2.14-2.14l-12.12-24.85a4.23,4.23,0,0,1-.35-2.92,3.15,3.15,0,0,1,1.82-2.17,3.25,3.25,0,0,1,2.8-.12,4.13,4.13,0,0,1,2.12,2.1l3.74,7.68a15.94,15.94,0,0,1,2.18-2.72,9.86,9.86,0,0,1,2.63-1.87,10.44,10.44,0,0,1,3.35-1,7.7,7.7,0,0,1,3.42.33,6.9,6.9,0,0,1,2.89,1.77,12,12,0,0,1,2.11,3.11Z"/><path class="cls-16" d="M233.25,122.36a3.52,3.52,0,0,1,.18,2.51,3.15,3.15,0,0,1-2,1.51l-12.36,4.5a9.81,9.81,0,0,0,1,1,5,5,0,0,0,2.06,1.15,5.22,5.22,0,0,0,3.55-.07,8.77,8.77,0,0,0,2.21-1.21,8.11,8.11,0,0,0,1.16-1l1.53-1.68a3,3,0,0,1,1.16-.73,3.08,3.08,0,0,1,2.33.07,2.74,2.74,0,0,1,1.55,1.58,3.08,3.08,0,0,1-.18,2.32,8.12,8.12,0,0,1-1.31,2,13.6,13.6,0,0,1-3,2.68,16.94,16.94,0,0,1-3.75,1.9,13.66,13.66,0,0,1-5.6.84,12,12,0,0,1-5.33-1.66,11.1,11.1,0,0,1-3.26-2.85,15.6,15.6,0,0,1-2.09-4,12.45,12.45,0,0,1,.29-9.53,11.48,11.48,0,0,1,6.87-6.46,11.1,11.1,0,0,1,8.95.4A11.51,11.51,0,0,1,233.25,122.36Zm-7.05.83a7.37,7.37,0,0,0-2.52-2.41,4.27,4.27,0,0,0-3.53-.09,4.08,4.08,0,0,0-2.44,2.32,8.73,8.73,0,0,0-.49,3.44Z"/><path class="cls-16" d="M270.42,97.45a2.92,2.92,0,0,1-.57,2.51,3.88,3.88,0,0,1-2.41,1.37l-7.57,1.47,1.22,6.27,6.44-1.25a4,4,0,0,1,2.76.32,3.36,3.36,0,0,1,.9,4.75,3.82,3.82,0,0,1-2.41,1.38l-6.43,1.25,1.69,8.73a4.43,4.43,0,0,1-.4,3,3.24,3.24,0,0,1-2.37,1.68,3.35,3.35,0,0,1-2.92-.63,4.46,4.46,0,0,1-1.52-2.71l-4.56-23.47a4.59,4.59,0,0,1,.5-3.47,4.47,4.47,0,0,1,3.07-1.82l10.36-2a4,4,0,0,1,2.76.34A3.07,3.07,0,0,1,270.42,97.45Z"/><path class="cls-16" d="M292.31,101.58a2.73,2.73,0,0,1-.76,2.48,9.74,9.74,0,0,1-2.37,1.45c-.75.42-1.33.77-1.74,1a8.45,8.45,0,0,0-1.69,1.28,2.42,2.42,0,0,0-.69,1.28,6,6,0,0,0,0,1.74l1.34,9.51a4.42,4.42,0,0,1-.53,3,3.44,3.44,0,0,1-5.13.69,4.31,4.31,0,0,1-1.38-2.7L277,104.42a6.09,6.09,0,0,1-.05-1.57,2.93,2.93,0,0,1,.51-1.32,3.37,3.37,0,0,1,2.4-1.6,3.71,3.71,0,0,1,2.23.34,4.77,4.77,0,0,1,1.73,1.63,13.14,13.14,0,0,1,1.8-2.05,5.23,5.23,0,0,1,2.51-1.08,3.92,3.92,0,0,1,2.75.58A3.07,3.07,0,0,1,292.31,101.58Z"/><path class="cls-16" d="M305.76,91a4.06,4.06,0,0,1-1,3A3.79,3.79,0,0,1,302,95.43a4.1,4.1,0,0,1-3.41-6.78,3.88,3.88,0,0,1,2.83-1.45,3.79,3.79,0,0,1,2.93,1A4.06,4.06,0,0,1,305.76,91Zm1.34,27.43a4.42,4.42,0,0,1-.73,2.94,3.48,3.48,0,0,1-5.18.34A4.36,4.36,0,0,1,300,119l-1.19-17a4.21,4.21,0,0,1,.77-2.84,3.16,3.16,0,0,1,2.5-1.33,3.24,3.24,0,0,1,2.64.94,4.14,4.14,0,0,1,1.18,2.74Z"/><path class="cls-16" d="M337.24,108.88a3.5,3.5,0,0,1-.73,2.41,3.16,3.16,0,0,1-2.39.7L321,111.76a10.81,10.81,0,0,0,.55,1.31,4.83,4.83,0,0,0,1.51,1.8,5.2,5.2,0,0,0,3.34,1.21,9,9,0,0,0,2.5-.34,7.42,7.42,0,0,0,1.45-.55l2-1a2.91,2.91,0,0,1,1.35-.27,3.06,3.06,0,0,1,2.14.9,2.72,2.72,0,0,1,.88,2,3,3,0,0,1-1,2.09,7.64,7.64,0,0,1-1.94,1.41,13.45,13.45,0,0,1-3.72,1.44,17.09,17.09,0,0,1-4.19.44,13.76,13.76,0,0,1-5.52-1.23,11.89,11.89,0,0,1-4.38-3.46,11.18,11.18,0,0,1-2-3.83,15.17,15.17,0,0,1-.52-4.47,12.37,12.37,0,0,1,3.68-8.79,11.46,11.46,0,0,1,8.73-3.57,11.06,11.06,0,0,1,8.21,3.57A11.54,11.54,0,0,1,337.24,108.88Zm-6.88-1.76a7.24,7.24,0,0,0-1.49-3.14,4.27,4.27,0,0,0-3.25-1.36,4.09,4.09,0,0,0-3.12,1.29,8.83,8.83,0,0,0-1.69,3Z"/><path class="cls-16" d="M364.46,120.3a4.47,4.47,0,0,1-1.19,2.79,3.47,3.47,0,0,1-5.16-.47,4.27,4.27,0,0,1-.73-2.93l.93-10.62a4.78,4.78,0,0,0-.76-3.25,3.67,3.67,0,0,0-2.88-1.5,3.5,3.5,0,0,0-2.83,1,4.24,4.24,0,0,0-1.35,2.78l-.95,10.9a4.41,4.41,0,0,1-1.19,2.79,3.46,3.46,0,0,1-5.16-.48,4.34,4.34,0,0,1-.73-2.94l1.48-16.9a4.78,4.78,0,0,1,1.16-2.83,3,3,0,0,1,2.64-1l.19,0a2.94,2.94,0,0,1,1.88.86,4.67,4.67,0,0,1,1.15,2,9,9,0,0,1,6.63-2,10.81,10.81,0,0,1,3.28.8,8.17,8.17,0,0,1,2.75,1.92,6.69,6.69,0,0,1,1.67,3,11.91,11.91,0,0,1,.24,3.85Z"/><path class="cls-16" d="M393.75,125.92a4.7,4.7,0,0,1-1.46,2.68,3,3,0,0,1-2.76.71,3.05,3.05,0,0,1-2-1.17,5.32,5.32,0,0,1-.87-2.42,7.26,7.26,0,0,1-3,1.74,8.15,8.15,0,0,1-3.62,0,8.56,8.56,0,0,1-4.07-2,10.77,10.77,0,0,1-2.78-3.84,15.74,15.74,0,0,1-.92-9.27,12.11,12.11,0,0,1,2.16-4.79,13,13,0,0,1,3.88-3.62,11.71,11.71,0,0,1,3.5-1.25,9.74,9.74,0,0,1,3.69,0,7.23,7.23,0,0,1,2.69,1.11,11.69,11.69,0,0,1,2.33,2.22l1.67-8.58a4.23,4.23,0,0,1,1.47-2.55,3.21,3.21,0,0,1,2.77-.63,3.08,3.08,0,0,1,2.25,1.59A4.28,4.28,0,0,1,399,98.8Zm-5.17-10.09a7.08,7.08,0,0,0-.37-4.18,4.1,4.1,0,0,0-3.1-2.66,4.17,4.17,0,0,0-3.88,1.13,7.34,7.34,0,0,0-2.1,4,6.91,6.91,0,0,0,.4,4.24,4.32,4.32,0,0,0,3.26,2.63,4.1,4.1,0,0,0,3.87-1.3A7.31,7.31,0,0,0,388.58,115.83Z"/><path class="cls-16" d="M419.07,129.86a7.69,7.69,0,0,1-4.4,4.83,8.54,8.54,0,0,1-3.29.57,11.42,11.42,0,0,1-3.48-.55,14.31,14.31,0,0,1-5-2.85c-1.95-1.67-2.66-3.32-2.13-4.93a3.07,3.07,0,0,1,1.49-1.71,2.63,2.63,0,0,1,2.2-.32,4.41,4.41,0,0,1,1.14.52c.24.18.89.78,1.94,1.79a9.46,9.46,0,0,0,1.21,1,4.32,4.32,0,0,0,1.2.59,2.65,2.65,0,0,0,1.48,0,1.26,1.26,0,0,0,1-.83,1.67,1.67,0,0,0-.46-1.67,14.55,14.55,0,0,0-1.41-1.26l-1.62-1.24a12.62,12.62,0,0,1-3.32-3.6,5.86,5.86,0,0,1-.42-4.78,7,7,0,0,1,3.59-4.18,8.82,8.82,0,0,1,7.25-.58,13.29,13.29,0,0,1,3,1.42,9.33,9.33,0,0,1,2.36,2.16,6.25,6.25,0,0,1,.93,1.79,2.84,2.84,0,0,1,0,1.75,3.54,3.54,0,0,1-1.48,1.82,2.42,2.42,0,0,1-2.18.42l-.06-.12a6.18,6.18,0,0,1-1.46-1c-.46-.4-.77-.68-.93-.83a14.62,14.62,0,0,0-1.52-1.15,4.69,4.69,0,0,0-1-.48,4,4,0,0,0-1.26-.06,1,1,0,0,0-.76.61l0,.09c-.17.55.15,1.23,1,2a15.24,15.24,0,0,0,1.92,1.53,30.18,30.18,0,0,1,2.31,2.07,10.33,10.33,0,0,1,1.86,2.52A6.09,6.09,0,0,1,419.07,129.86Z"/><path class="cls-16" d="M443.94,143.61a4.43,4.43,0,0,1-1.94,2.32,3.47,3.47,0,0,1-4.8-2,4.28,4.28,0,0,1,.16-3l3.85-9.52a5.6,5.6,0,0,0,.43-3.4,3.63,3.63,0,0,0-2.38-2.57,3.58,3.58,0,0,0-3.1.12A4.48,4.48,0,0,0,434,128l-4,10a4.36,4.36,0,0,1-2,2.32,3.16,3.16,0,0,1-2.85.09,3.2,3.2,0,0,1-1.95-2.05,4.34,4.34,0,0,1,.16-3l10.36-25.63a4.2,4.2,0,0,1,1.93-2.22,3.18,3.18,0,0,1,2.84-.1,3.25,3.25,0,0,1,2,2,4.15,4.15,0,0,1-.14,3l-3.2,7.92a15.94,15.94,0,0,1,3.47-.2,9.81,9.81,0,0,1,3.16.71,10.59,10.59,0,0,1,3,1.8,7.78,7.78,0,0,1,2,2.77,6.84,6.84,0,0,1,.62,3.33,11.71,11.71,0,0,1-.9,3.65Z"/><path class="cls-16" d="M469.05,125.91a4.1,4.1,0,0,1-2.36,2.06,3.83,3.83,0,0,1-3.11-.21,4.1,4.1,0,0,1,.58-7.57,3.9,3.9,0,0,1,3.17.21,3.83,3.83,0,0,1,2,2.39A4,4,0,0,1,469.05,125.91Zm-13,24.2a4.36,4.36,0,0,1-2.14,2.14,3.14,3.14,0,0,1-2.85-.16,3.19,3.19,0,0,1-1.76-2.21,4.28,4.28,0,0,1,.42-3l7.76-15.23a4.2,4.2,0,0,1,2.12-2,3.15,3.15,0,0,1,2.83.15,3.24,3.24,0,0,1,1.78,2.17,4.13,4.13,0,0,1-.4,2.95Z"/><path class="cls-16" d="M487.42,158.35a14.73,14.73,0,0,1-7.1,6.2,9.73,9.73,0,0,1-9.15-.84,8.4,8.4,0,0,1-3.52-4.7l-4.07,6.52a4.22,4.22,0,0,1-2.29,1.85,3.2,3.2,0,0,1-2.81-.4,3.24,3.24,0,0,1-1.58-2.32,4.12,4.12,0,0,1,.66-2.91l14.08-22.53a5.17,5.17,0,0,1,2.29-2.08,2.84,2.84,0,0,1,2.8.27,3.3,3.3,0,0,1,1.49,1.78,5.23,5.23,0,0,1,0,2.33,8.23,8.23,0,0,1,3.29-.29,7.48,7.48,0,0,1,3.1,1.11,11.26,11.26,0,0,1,2.93,2.6,8.8,8.8,0,0,1,1.59,3.4,11.79,11.79,0,0,1,.15,5.1A13.81,13.81,0,0,1,487.42,158.35Zm-6.21-3.28a7.1,7.1,0,0,0,1.15-4,4,4,0,0,0-1.87-3.54,4.42,4.42,0,0,0-4.12-.46,7.43,7.43,0,0,0-4.53,7.07,4.51,4.51,0,0,0,2.22,3.69,4,4,0,0,0,3.95.11A7.38,7.38,0,0,0,481.21,155.07Z"/><path class="cls-16" d="M252.35,71.26a2,2,0,0,1-.13,1.25,2.84,2.84,0,0,1-.78,1.09,7,7,0,0,1-2,1.38,12.2,12.2,0,0,1-2.54.82,9.27,9.27,0,0,1-7.07-1.2,9.12,9.12,0,0,1-3.16-3.32,15.17,15.17,0,0,1-1.6-4.38,9.54,9.54,0,0,1,7.62-11.74,10.35,10.35,0,0,1,3.74-.15c1.59.23,2.49.89,2.72,2a2.51,2.51,0,0,1-.12,1.6,1.55,1.55,0,0,1-1.19.88,2.16,2.16,0,0,1-.76,0c-.25,0-.58-.08-1-.16a6.56,6.56,0,0,0-2.39,0,4.62,4.62,0,0,0-3.47,2.58,7,7,0,0,0-.31,4.48,9.65,9.65,0,0,0,1,2.69A5.11,5.11,0,0,0,242.66,71a4.76,4.76,0,0,0,3.55.53,8,8,0,0,0,.94-.26,3,3,0,0,0,.82-.42l1.15-.92a2.35,2.35,0,0,1,.85-.36l.17,0a1.57,1.57,0,0,1,1.41.36A2.41,2.41,0,0,1,252.35,71.26Z"/><path class="cls-16" d="M269,68.64a2.72,2.72,0,0,1-.26,1.87,2.15,2.15,0,0,1-3.19.55,2.67,2.67,0,0,1-.92-1.65l-1.12-6.32a3.48,3.48,0,0,0-.89-2,2.28,2.28,0,0,0-2.11-.57,2.24,2.24,0,0,0-1.6,1.09,2.81,2.81,0,0,0-.35,2l1.17,6.62a2.78,2.78,0,0,1-.27,1.87,2.17,2.17,0,0,1-3.19.55,2.67,2.67,0,0,1-.92-1.65l-3-17a2.63,2.63,0,0,1,.29-1.82,2,2,0,0,1,1.47-1,2,2,0,0,1,1.7.42,2.59,2.59,0,0,1,.92,1.62l.92,5.26a9.68,9.68,0,0,1,1.78-1.26,6.15,6.15,0,0,1,1.9-.67,7,7,0,0,1,2.19,0,5,5,0,0,1,2,.79,4.34,4.34,0,0,1,1.43,1.56,7.56,7.56,0,0,1,.73,2.24Z"/><path class="cls-16" d="M287.14,66.24a2.92,2.92,0,0,1-.39,1.92,2,2,0,0,1-1.55,1,1.82,1.82,0,0,1-1.38-.37,3,3,0,0,1-.94-1.23,4.75,4.75,0,0,1-3.46,2.3,5.82,5.82,0,0,1-2.3-.17,7.41,7.41,0,0,1-2.19-1,7.07,7.07,0,0,1-2.26-2.53,9.92,9.92,0,0,1-.94-6.61A7.73,7.73,0,0,1,275.07,55a5.75,5.75,0,0,1,2.36-.85,5.25,5.25,0,0,1,4,1.27,3.38,3.38,0,0,1,.67-1.23,2,2,0,0,1,1.28-.64A2.09,2.09,0,0,1,285,54a2.28,2.28,0,0,1,.82,1.54ZM282,61.69a4.55,4.55,0,0,0-1-2.6,2.81,2.81,0,0,0-2.59-.9,2.59,2.59,0,0,0-2.06,1.47,4.37,4.37,0,0,0-.4,2.6,4.68,4.68,0,0,0,1,2.49,2.56,2.56,0,0,0,2.42,1,2.8,2.8,0,0,0,2.17-1.36A4,4,0,0,0,282,61.69Z"/><path class="cls-16" d="M305.45,59.24A9.26,9.26,0,0,1,304.13,65a6.07,6.07,0,0,1-4.93,2.93,5.32,5.32,0,0,1-3.51-1.08l.34,4.79a2.6,2.6,0,0,1-.48,1.78,2,2,0,0,1-1.57.83,2,2,0,0,1-1.65-.6,2.58,2.58,0,0,1-.73-1.71l-1.16-16.56a3.29,3.29,0,0,1,.39-1.9,1.77,1.77,0,0,1,1.52-.89,2.1,2.1,0,0,1,1.41.35,3.33,3.33,0,0,1,.86,1.17,5,5,0,0,1,1.56-1.35,4.61,4.61,0,0,1,2-.58,6.87,6.87,0,0,1,2.43.24,5.39,5.39,0,0,1,2.05,1.13,7.37,7.37,0,0,1,1.95,2.53A8.52,8.52,0,0,1,305.45,59.24Zm-4.35.62a4.49,4.49,0,0,0-.89-2.45,2.5,2.5,0,0,0-2.25-1.1,2.73,2.73,0,0,0-2.25,1.28,4.25,4.25,0,0,0-.66,2.69,4.42,4.42,0,0,0,1,2.54,2.83,2.83,0,0,0,2.48,1.06,2.5,2.5,0,0,0,2-1.4A4.52,4.52,0,0,0,301.1,59.86Z"/><path class="cls-16" d="M317.92,53.56a1.8,1.8,0,0,1-.58,1.48,2.39,2.39,0,0,1-1.57.58l-1.26,0,.32,8.94a2.77,2.77,0,0,1-.53,1.82,2.17,2.17,0,0,1-3.23.1,2.68,2.68,0,0,1-.68-1.77l-.31-8.93a7.62,7.62,0,0,1-1.17,0,1.91,1.91,0,0,1-1.07-.56,2,2,0,0,1-.53-1.31,2.24,2.24,0,0,1,.22-1,1.41,1.41,0,0,1,.56-.68,2.4,2.4,0,0,1,.71-.25,3.86,3.86,0,0,1,.72-.08l.42,0-.1-2.76a2.68,2.68,0,0,1,.54-1.76,2.23,2.23,0,0,1,3.25-.13,2.64,2.64,0,0,1,.65,1.74l.1,2.76,1.25-.05a2.42,2.42,0,0,1,1.61.46A1.76,1.76,0,0,1,317.92,53.56Z"/><path class="cls-16" d="M334.82,58.87a2.16,2.16,0,0,1-.46,1.51,2,2,0,0,1-1.49.44l-8.22-.15a6.1,6.1,0,0,0,.35.82,3.05,3.05,0,0,0,.94,1.13,3.22,3.22,0,0,0,2.09.75,5.7,5.7,0,0,0,2.47-.55l1.27-.64a1.86,1.86,0,0,1,.84-.17,1.89,1.89,0,0,1,1.34.57,1.68,1.68,0,0,1,.55,1.27,2,2,0,0,1-.62,1.31,4.94,4.94,0,0,1-1.22.87,8.5,8.5,0,0,1-2.33.91,11.23,11.23,0,0,1-2.61.27,8.46,8.46,0,0,1-3.45-.77,7.44,7.44,0,0,1-2.74-2.16,7,7,0,0,1-1.27-2.39,9.75,9.75,0,0,1-.32-2.8,7.74,7.74,0,0,1,2.3-5.49,7.14,7.14,0,0,1,5.46-2.23,6.91,6.91,0,0,1,5.13,2.23A7.18,7.18,0,0,1,334.82,58.87Zm-4.3-1.09a4.41,4.41,0,0,0-.93-2,2.67,2.67,0,0,0-2-.85,2.55,2.55,0,0,0-1.95.81,5.42,5.42,0,0,0-1.06,1.9Z"/><path class="cls-16" d="M348.08,54.21a1.72,1.72,0,0,1-.77,1.43,5.66,5.66,0,0,1-1.62.61l-1.2.42a5.17,5.17,0,0,0-1.18.58,1.51,1.51,0,0,0-.58.71,3.31,3.31,0,0,0-.19,1.07l-.32,6a2.7,2.7,0,0,1-.68,1.77,2,2,0,0,1-1.66.63,2,2,0,0,1-1.57-.82,2.7,2.7,0,0,1-.52-1.82l.56-10.65a4.21,4.21,0,0,1,.15-1,1.92,1.92,0,0,1,.48-.75,2.12,2.12,0,0,1,1.66-.69,2.25,2.25,0,0,1,1.32.47,2.87,2.87,0,0,1,.87,1.2,9.52,9.52,0,0,1,1.35-1,3.35,3.35,0,0,1,1.67-.36,2.4,2.4,0,0,1,1.62.69A1.92,1.92,0,0,1,348.08,54.21Z"/><path class="cls-16" d="M374.46,52.18a1.83,1.83,0,0,1-.83,1.38,2.37,2.37,0,0,1-1.68.35l-2.63-.32-1.66,13.54a2.9,2.9,0,0,1-.81,1.75,2,2,0,0,1-1.75.54,2.09,2.09,0,0,1-1.61-.94,2.76,2.76,0,0,1-.38-1.91L364.77,53l-2.68-.33a2.49,2.49,0,0,1-1.58-.72,1.85,1.85,0,0,1-.44-1.57,1.9,1.9,0,0,1,.84-1.42,2.33,2.33,0,0,1,1.67-.37l9.87,1.21a2.43,2.43,0,0,1,1.57.74A1.93,1.93,0,0,1,374.46,52.18Z"/><path class="cls-16" d="M396.38,59.87a5.87,5.87,0,0,1-.4,1.4l-4.71,8.66A7.43,7.43,0,0,1,390,71.88a2.43,2.43,0,0,1-2.15.73,2.2,2.2,0,0,1-1.55-1,4.3,4.3,0,0,1-.63-1.8l-1-5.74-2.28,4.44a6.65,6.65,0,0,1-1.32,2,2.46,2.46,0,0,1-2.2.69,2.07,2.07,0,0,1-1.45-.93,4.19,4.19,0,0,1-.67-1.84l-1.91-10.56a5.12,5.12,0,0,1,0-1.4,1.43,1.43,0,0,1,1-1.15,3.38,3.38,0,0,1,1.8-.17,1.48,1.48,0,0,1,1,.68,2.92,2.92,0,0,1,.49,1.32l1,7.32,3.2-6.42a3.84,3.84,0,0,1,.93-1.28,1.86,1.86,0,0,1,1.51-.33,2.19,2.19,0,0,1,1.46.77,3.67,3.67,0,0,1,.54,1.55l1.13,7L392,59.24a3,3,0,0,1,.89-1.15,1.54,1.54,0,0,1,1.23-.34,3.51,3.51,0,0,1,1.7.73A1.39,1.39,0,0,1,396.38,59.87Z"/><path class="cls-16" d="M412.34,69.7a9.63,9.63,0,0,1-1.08,2.84,7.35,7.35,0,0,1-2,2.15,6.94,6.94,0,0,1-2.74,1.23,7.31,7.31,0,0,1-7.85-3.48,6.74,6.74,0,0,1-.93-2.77,9.39,9.39,0,0,1,.14-3A9.21,9.21,0,0,1,399,63.79a6.78,6.78,0,0,1,2-2.13,8.23,8.23,0,0,1,2.78-1.22,6.86,6.86,0,0,1,3,0,7.18,7.18,0,0,1,2.75,1.24,7.43,7.43,0,0,1,2,2.2,7,7,0,0,1,.94,2.8A9.68,9.68,0,0,1,412.34,69.7Zm-4.23-.9a4.23,4.23,0,0,0-.26-2.68,2.72,2.72,0,0,0-2-1.69,2.55,2.55,0,0,0-2.43.78,4.44,4.44,0,0,0-1.24,2.33,4.74,4.74,0,0,0,.2,2.75,2.44,2.44,0,0,0,1.89,1.59,2.76,2.76,0,0,0,2.51-.7A4.23,4.23,0,0,0,408.11,68.8Z"/><rect class="cls-44" x="-14.17" y="591.31" width="70.87" height="70.87"/><circle class="cls-2" cx="12.5" cy="638.33" r="19.84"/><path class="cls-2" d="M-.25,607.15a9.93,9.93,0,0,0-9.93,9.92A9.93,9.93,0,0,0-.25,627a9.92,9.92,0,0,0,9.92-9.92A9.92,9.92,0,0,0-.25,607.15Z"/><path class="cls-45" d="M10.67,635.16H9.79v-5.6a4.58,4.58,0,0,1-.83.6,5,5,0,0,1-.93.46v-.85a5,5,0,0,0,1.29-.84,3.45,3.45,0,0,0,.79-1h.56Z"/><path class="cls-45" d="M17.51,629.75l-.87.07a1.7,1.7,0,0,0-.33-.75,1.19,1.19,0,0,0-.89-.38,1.24,1.24,0,0,0-.75.24,2,2,0,0,0-.65.88,4.69,4.69,0,0,0-.25,1.65,2,2,0,0,1,.78-.71,2.07,2.07,0,0,1,1-.24,2,2,0,0,1,1.5.65,2.33,2.33,0,0,1,.62,1.67,2.84,2.84,0,0,1-.29,1.26,2.07,2.07,0,0,1-.8.88,2.13,2.13,0,0,1-1.15.31,2.28,2.28,0,0,1-1.8-.81,4.08,4.08,0,0,1-.69-2.66,4.8,4.8,0,0,1,.77-3,2.2,2.2,0,0,1,1.8-.82,1.92,1.92,0,0,1,2,1.78Zm-3.6,3.09a2,2,0,0,0,.19.87,1.4,1.4,0,0,0,.54.63,1.32,1.32,0,0,0,.73.22,1.22,1.22,0,0,0,1-.45,1.76,1.76,0,0,0,.4-1.22,1.65,1.65,0,0,0-.39-1.17,1.29,1.29,0,0,0-1-.43,1.32,1.32,0,0,0-1,.43A1.52,1.52,0,0,0,13.91,632.84Z"/><path class="cls-2" d="M0,0V648H648V0ZM-85-85H733V733H-85Z"/></svg>