<svg id="graphic" xmlns="http://www.w3.org/2000/svg" xmlns:xlink="http://www.w3.org/1999/xlink" viewBox="0 0 648 648"><defs><style>.cls-1{fill:#7568ce;}.cls-2{fill:url(#New_Gradient_1);}.cls-16,.cls-17,.cls-18,.cls-19,.cls-21,.cls-22,.cls-26,.cls-28,.cls-29,.cls-3,.cls-31,.cls-32,.cls-33,.cls-34,.cls-35,.cls-36,.cls-37,.cls-4,.cls-45,.cls-46,.cls-48,.cls-7{fill-rule:evenodd;}.cls-3{fill:url(#New_Gradient_2);}.cls-4{fill:url(#New_Gradient_2-2);}.cls-5{fill:#5245be;}.cls-6{fill:#6358c4;}.cls-43,.cls-7{fill:#ffffe9;}.cls-8{fill:url(#New_Gradient_3);}.cls-9{fill:url(#New_Gradient_4);}.cls-10{fill:url(#New_Gradient_5);}.cls-11{fill:#ffff68;}.cls-12{fill:#6cbaf2;}.cls-13{fill:url(#New_Gradient_6);}.cls-14{fill:url(#New_Gradient_7);}.cls-15{fill:#c8c3eb;}.cls-16{fill:#9186d8;}.cls-17{fill:#d6d2f0;}.cls-18,.cls-42{fill:#bab3e6;}.cls-19{fill:#8377d3;}.cls-20{fill:#ffffc3;}.cls-21{fill:url(#New_Gradient_8);}.cls-22{fill:#ffc200;}.cls-23{fill:#ffd400;}.cls-24{fill:#ffdc00;}.cls-25{fill:#ffd200;}.cls-26{fill:#ffe;}.cls-27,.cls-32{fill:#fff;}.cls-28{fill:#ffa900;}.cls-29{fill:#ff6349;}.cls-30{fill:#ff9484;}.cls-31{fill:#333;}.cls-33{fill:#7c7c7c;}.cls-34{fill:#ff9094;}.cls-35{fill:#ffb1b5;}.cls-36{fill:#f57168;}.cls-37{fill:url(#New_Gradient_9);}.cls-38{fill:url(#New_Gradient_10);}.cls-39{fill:#fff2b6;}.cls-40{fill:#8dc3ed;}.cls-41{fill:#5ca9e6;}.cls-44{fill:none;}.cls-45{fill:#6d6f71;}.cls-47,.cls-48{fill:#ff7575;}</style><radialGradient id="New_Gradient_1" cx="532.04" cy="105.89" r="100.81" gradientTransform="translate(230.71 -345.2) rotate(45)" gradientUnits="userSpaceOnUse"><stop offset="0" stop-color="#ffffc2"/><stop offset="0.35" stop-color="#ffffc2"/><stop offset="0.81" stop-color="#7568ce"/><stop offset="1" stop-color="#7568ce"/></radialGradient><linearGradient id="New_Gradient_2" x1="194.46" y1="39.99" x2="194.46" y2="129.01" gradientUnits="userSpaceOnUse"><stop offset="0" stop-color="#a9adf2"/><stop offset="1" stop-color="#7568ce"/></linearGradient><linearGradient id="New_Gradient_2-2" x1="319.29" y1="134.62" x2="319.29" y2="250.71" xlink:href="#New_Gradient_2"/><linearGradient id="New_Gradient_3" x1="216.42" y1="323.3" x2="216.42" y2="610.4" gradientTransform="translate(682.78 249.38) rotate(89.87)" gradientUnits="userSpaceOnUse"><stop offset="0" stop-color="#ffffba"/><stop offset="1" stop-color="#9e95dd"/></linearGradient><linearGradient id="New_Gradient_4" x1="215.32" y1="326.67" x2="215.32" y2="599.66" gradientTransform="translate(10.71 -4.83) rotate(1.32)" gradientUnits="userSpaceOnUse"><stop offset="0" stop-color="#bfcceb"/><stop offset="1" stop-color="#9186d8"/></linearGradient><linearGradient id="New_Gradient_5" x1="255.81" y1="337.73" x2="255.81" y2="527.58" gradientUnits="userSpaceOnUse"><stop offset="0" stop-color="#fff"/><stop offset="1" stop-color="#cfd9f0"/></linearGradient><linearGradient id="New_Gradient_6" x1="524.92" y1="538.46" x2="523.7" y2="608.53" gradientUnits="userSpaceOnUse"><stop offset="0" stop-color="#c8c3eb"/><stop offset="1" stop-color="#9186d8"/></linearGradient><linearGradient id="New_Gradient_7" x1="524.62" y1="541.43" x2="523.52" y2="604.33" gradientUnits="userSpaceOnUse"><stop offset="0" stop-color="#9e95dd"/><stop offset="1" stop-color="#8377d3"/></linearGradient><radialGradient id="New_Gradient_8" cx="550.26" cy="60.18" r="94.02" gradientUnits="userSpaceOnUse"><stop offset="0" stop-color="#ffdc00"/><stop offset="1" stop-color="#ffff68"/></radialGradient><linearGradient id="New_Gradient_9" x1="199.34" y1="390.4" x2="199.34" y2="569.96" gradientUnits="userSpaceOnUse"><stop offset="0" stop-color="#ffb1b4"/><stop offset="1" stop-color="#ff9b9f"/></linearGradient><linearGradient id="New_Gradient_10" x1="236.96" y1="368.42" x2="186.34" y2="571.47" gradientUnits="userSpaceOnUse"><stop offset="0" stop-color="#fff2b6"/><stop offset="0.52" stop-color="#ffc8cb"/><stop offset="1" stop-color="#ffc8cb"/></linearGradient></defs><title>page4</title><rect class="cls-1" x="-14.17" y="-14.17" width="676.35" height="676.35"/><circle class="cls-2" cx="532.04" cy="105.89" r="100.81" transform="translate(80.96 407.23) rotate(-45)"/><path class="cls-3" d="M326.57,77.2C336.8,61.09,375.19,68.31,372,96.63c12.23-10,29.89,6.75,18.44,17.48,11.45-4.37,17.51,10.4,7.82,14.9H-14.17V84.08c8.77-8.15,23.32-11.33,33.79-3.87-.39-5.5,7-9.66,11.64-4.75,8.63-23.32,48.46-20.83,55.81-2.23,14.43-17.12,58.57-11.86,61.26,17,1.15-4.6,8.12-6.65,11.29-2.75-6.56-26.85,30.82-42.8,42.16-27.08,1.66-11,18.35-12.91,22.65-3,5.75-26.74,46.56-19.29,49.41.18,4.75-5.7,17.86.37,16.73,8.13C300.49,57.59,322.68,62,326.57,77.2Z"/><path class="cls-4" d="M-14.17,144.15C1.51,127.92,38,132.41,49.57,157.62c8.47-7.57,23.69-1.71,25.8,6.89,18.28-13.3,45.44-3.07,52.28,17.77,4.16-3.48,10.85-2.14,14.34,2.68,6.5-12.67,27.14-12.15,33.6-1.75,3.44-17.07,24-26.05,37.65-21.42,14.26-22.59,59-22.87,71.55,6.44,6.2-2.77,16-1,19.67,5.75,20.57-23.06,55.43-8.52,59.78,12.3,4.21-4.14,15.69-5.14,20.18,1,20.71-29.36,68.09-26.88,86.93,2.84,8.51-16.18,39.88-23.21,52.75,3.49,5.49-6.33,18.16-4.66,21.17,5.67,23.64-13.53,51.21-1.48,55.44,25.61,7.63-4.91,18.29.59,19.63,7.43,11.86-7.17,33.38,4,32.37,18.36l-666.88-.15Z"/><path class="cls-5" d="M662.17,318.81V662.17H70.65C110.34,504.68,475.23,504.53,497.43,452c20.57-48.67-65.08-31.9-46.57-80C462.07,342.86,567.57,319.56,662.17,318.81Z"/><path class="cls-6" d="M662.17,334.71V662.17H358.6C379,512,553.52,509.72,564.92,459.63c10.56-46.42-36-32.51-26.51-78.39C544.16,353.45,613.62,335.43,662.17,334.71Z"/><path class="cls-7" d="M391.78,545c-9.91-2.74-10.8-6.36-12.62-14.9-1.27,7.19-2.31,13.18-12,14.1,7.71,1.46,9.94,5.1,12,16.47C382.4,550.24,383,545.91,391.78,545Z"/><path class="cls-7" d="M556,425.11c-4.41-.82-4.86-2.07-5.79-5-.45,2.5-.82,4.59-5.08,5,3.43.42,4.46,1.65,5.56,5.56C551.93,427.05,552.11,425.55,556,425.11Z"/><path class="cls-7" d="M366.83,568.21c-5.68-1.36-6.25-3.4-7.45-8.2-.58,4.1-1.05,7.52-6.53,8.23,4.4.68,5.74,2.7,7.15,9.11C361.61,571.39,361.85,568.92,366.83,568.21Z"/><path class="cls-7" d="M434.86,599.76c-5.63-1.55-6.13-3.61-7.16-8.45-.72,4.08-1.32,7.48-6.81,8,4.37.83,5.64,2.89,6.83,9.34C429.54,602.76,429.86,600.3,434.86,599.76Z"/><path class="cls-7" d="M442.94,577c-4.42-.83-4.86-2.08-5.8-5-.45,2.51-.82,4.59-5.07,5,3.42.41,4.46,1.64,5.56,5.55C438.88,579,439.07,577.44,442.94,577Z"/><path class="cls-7" d="M572,440.33c-8.21-1.54-9-3.86-10.78-9.31-.83,4.66-1.52,8.54-9.43,9.34,6.36.77,8.29,3.06,10.33,10.34C564.45,443.94,564.79,441.13,572,440.33Z"/><ellipse class="cls-8" cx="216.42" cy="466.85" rx="143.55" ry="143.56" transform="translate(-250.92 682.22) rotate(-89.87)"/><ellipse class="cls-9" cx="215.32" cy="463.16" rx="136.5" ry="136.49" transform="translate(-10.6 5.08) rotate(-1.32)"/><path class="cls-1" d="M114,451.25A123.3,123.3,0,0,1,234.41,328,136.59,136.59,0,0,1,339,521a123.31,123.31,0,0,1-225-69.71Z"/><path class="cls-10" d="M229.52,338.67a123.91,123.91,0,0,1,89.76,188.91,136.61,136.61,0,0,0-146-182.84A123.3,123.3,0,0,1,229.52,338.67Z"/><polygon class="cls-11" points="418.26 137.74 419.67 134.07 416.24 132.16 420.16 132.37 420.91 128.51 421.93 132.31 425.83 131.83 422.53 133.97 424.19 137.53 421.14 135.06 418.26 137.74"/><polygon class="cls-11" points="140.86 144.94 144.29 136.02 135.93 131.38 145.48 131.88 147.3 122.5 149.77 131.73 159.27 130.57 151.25 135.78 155.29 144.44 147.85 138.42 140.86 144.94"/><polygon class="cls-11" points="71.08 104.07 73.51 97.73 67.57 94.44 74.35 94.8 75.65 88.14 77.4 94.69 84.14 93.87 78.45 97.56 81.31 103.72 76.04 99.44 71.08 104.07"/><polygon class="cls-11" points="227.28 94.27 225.64 88.9 220.1 89.78 224.69 86.56 222.15 81.57 226.63 84.94 230.59 80.98 228.76 86.28 233.76 88.83 228.15 88.73 227.28 94.27"/><polygon class="cls-12" points="322.65 122.67 320.26 114.83 312.16 116.12 318.88 111.42 315.15 104.11 321.7 109.05 327.5 103.25 324.83 111 332.13 114.72 323.94 114.58 322.65 122.67"/><polygon class="cls-12" points="140.32 51.69 138.57 45.97 132.66 46.9 137.56 43.47 134.85 38.14 139.63 41.74 143.86 37.51 141.91 43.17 147.24 45.88 141.26 45.78 140.32 51.69"/><polygon class="cls-11" points="400.6 72.67 398.85 66.95 392.94 67.88 397.84 64.45 395.12 59.12 399.9 62.72 404.13 58.49 402.18 64.15 407.51 66.86 401.53 66.76 400.6 72.67"/><polygon class="cls-11" points="317.73 52.36 319.73 47.16 314.86 44.47 320.42 44.76 321.48 39.3 322.92 44.67 328.44 43.99 323.77 47.02 326.13 52.06 321.8 48.56 317.73 52.36"/><polygon class="cls-12" points="619.62 190.15 618.1 185.18 612.97 185.99 617.23 183.01 614.87 178.38 619.02 181.51 622.7 177.83 621 182.75 625.63 185.11 620.44 185.02 619.62 190.15"/><path class="cls-13" d="M524.92,538.46a35,35,0,1,0,34.43,35.64A35,35,0,0,0,524.92,538.46Z"/><path class="cls-14" d="M524.62,541.43a31.45,31.45,0,1,0,30.91,32A31.46,31.46,0,0,0,524.62,541.43Z"/><path class="cls-1" d="M547.57,570.46a28.42,28.42,0,0,0-27.25-28.88,31.48,31.48,0,0,0-24.88,44,28.42,28.42,0,0,0,52.13-15.17Z"/><path class="cls-15" d="M521.93,545.32a28.13,28.13,0,0,0-21.12,42.52,31,31,0,0,1,29.78-41.26,30.34,30.34,0,0,1,4.08.34A28,28,0,0,0,521.93,545.32Z"/><path class="cls-16" d="M269,200.37A20.62,20.62,0,1,0,248.37,221,20.62,20.62,0,0,0,269,200.37Z"/><path class="cls-17" d="M263.13,199.91a14.7,14.7,0,0,0-14.69-14.7,14.07,14.07,0,0,0-2.06.15,13.27,13.27,0,1,1-11.26,20.77,14.7,14.7,0,0,0,28-6.22Z"/><path class="cls-18" d="M266.45,199.86a18.29,18.29,0,1,1-18.29-18.28A18.28,18.28,0,0,1,266.45,199.86Zm2.54.51A20.62,20.62,0,1,0,248.37,221,20.62,20.62,0,0,0,269,200.37Z"/><path class="cls-19" d="M78.26,301.82a20.62,20.62,0,1,0-20.62,20.62A20.62,20.62,0,0,0,78.26,301.82Z"/><path class="cls-17" d="M72.4,301.37a14.69,14.69,0,0,0-14.69-14.7,13.84,13.84,0,0,0-2.05.15,13.27,13.27,0,1,1-11.27,20.77,14.7,14.7,0,0,0,28-6.22Z"/><path class="cls-18" d="M75.72,301.32A18.29,18.29,0,1,1,57.43,283,18.28,18.28,0,0,1,75.72,301.32Zm2.54.5a20.62,20.62,0,1,0-20.62,20.62A20.62,20.62,0,0,0,78.26,301.82Z"/><path class="cls-20" d="M528.81,44.23a61.74,61.74,0,1,0,64.9,58.43A61.74,61.74,0,0,0,528.81,44.23Z"/><path class="cls-11" d="M529.51,44.91a60.07,60.07,0,1,0,63.14,56.84A60.07,60.07,0,0,0,529.51,44.91Z"/><path class="cls-21" d="M586.94,97a54.39,54.39,0,1,0-51.47,57.16A54.39,54.39,0,0,0,586.94,97Z"/><path class="cls-22" d="M554.56,66.29a5.39,5.39,0,1,0,5.67,5.1A5.4,5.4,0,0,0,554.56,66.29Z"/><path class="cls-23" d="M499.45,123.34a5.3,5.3,0,1,0,5.57,5A5.3,5.3,0,0,0,499.45,123.34Z"/><path class="cls-23" d="M498.33,83.8a2,2,0,1,0,2.13,1.91A2,2,0,0,0,498.33,83.8Z"/><path class="cls-22" d="M528.49,59.88a9.14,9.14,0,1,0,9.61,8.65A9.15,9.15,0,0,0,528.49,59.88Z"/><path class="cls-24" d="M524.42,144.55a4.05,4.05,0,1,0,4.26,3.83A4,4,0,0,0,524.42,144.55Z"/><path class="cls-23" d="M558.94,129.37a6.61,6.61,0,1,0,6.95,6.26A6.6,6.6,0,0,0,558.94,129.37Z"/><path class="cls-23" d="M577,109.32a4.06,4.06,0,1,0,4.26,3.83A4.05,4.05,0,0,0,577,109.32Z"/><path class="cls-25" d="M571.84,88.46a3.11,3.11,0,1,0,3.27,2.94A3.09,3.09,0,0,0,571.84,88.46Z"/><path class="cls-26" d="M481.72,116.53c.38-45.23,24.87-64.71,69.22-62.3-10.41-4.89-36-8.46-56.56,10C475,81.7,478.69,111.33,481.72,116.53Z"/><path class="cls-27" d="M502.42,141.36a1.14,1.14,0,1,0-1.59-.28A1.14,1.14,0,0,0,502.42,141.36Z"/><path class="cls-28" d="M523.79,113.46c-4.68-.44-7.59,2.71-7.15,5.41.4,2.49,3.44,4.63,7.16,3.47-2.57-.77-4.1-2.09-4.32-4C519.2,116.07,520.7,114.49,523.79,113.46Z"/><path class="cls-29" d="M522.05,129.1c4,.2,12.87-3.19,17-7.93C542.84,133.14,525.34,139.51,522.05,129.1Z"/><path class="cls-30" d="M532.54,126c-1.71,2.31-2,5.91-.82,8,5-1.26,9.46-6.19,7.37-12.85A22.73,22.73,0,0,1,532.54,126Z"/><path class="cls-22" d="M541.15,95.13c2.16-3.25,6.27-4.9,10.09-2.4s5.48,11-1.41,13.08C541.87,108.19,538.93,98.47,541.15,95.13Z"/><path class="cls-31" d="M539.13,94.91a2.32,2.32,0,0,1-3.66-1.25,2.51,2.51,0,0,0,2.83,3.46Z"/><path class="cls-31" d="M538.25,95.19c2.16-3.25,6.27-4.9,10.09-2.4s5.48,11-1.4,13.08C539,108.26,536,98.53,538.25,95.19Z"/><path class="cls-32" d="M543.14,94.07c7-1.93,12.08,11.24,4.35,13.4C540.44,109.44,535.29,96.23,543.14,94.07Z"/><path class="cls-31" d="M541.19,95c5.72-1.92,11.58,10.23,5.3,12.37C540.75,109.28,534.81,97.1,541.19,95Z"/><path class="cls-33" d="M542.31,97.65c2.79-1,5.9,5.73,2.83,6.8C542.34,105.41,539.19,98.71,542.31,97.65Z"/><path class="cls-32" d="M542.18,99.89c1.78-1,3.73,2.92,1.53,3.65C541.87,104.15,540.66,100.74,542.18,99.89Z"/><path class="cls-22" d="M527.81,136.35c2.65,4.59,13.55,1.21,12.05-5.73C537.24,135.94,531.4,137.48,527.81,136.35Z"/><path class="cls-22" d="M500.08,106.21c2-3,5.78-4.52,9.3-2.22s5,10.16-1.3,12.06C500.75,118.24,498,109.29,500.08,106.21Z"/><path class="cls-31" d="M498.22,106a2.13,2.13,0,0,1-3.37-1.15,2.31,2.31,0,0,0,2.6,3.19Z"/><path class="cls-31" d="M497.41,106.26c2-3,5.78-4.51,9.3-2.21s5.05,10.16-1.3,12.06C498.08,118.3,495.37,109.34,497.41,106.26Z"/><path class="cls-32" d="M501.91,105.23c6.49-1.78,11.14,10.36,4,12.35C499.42,119.39,494.68,107.22,501.91,105.23Z"/><path class="cls-31" d="M500.12,106.05c5.27-1.77,10.67,9.43,4.88,11.4C499.72,119.24,494.24,108,500.12,106.05Z"/><path class="cls-33" d="M501.15,108.53c2.58-.88,5.43,5.28,2.61,6.26C501.18,115.68,498.28,109.51,501.15,108.53Z"/><path class="cls-32" d="M501.23,110.88c1.64-.92,3.43,2.69,1.41,3.36C500.94,114.81,499.83,111.66,501.23,110.88Z"/><path class="cls-34" d="M226.22,425.83c10.74,12.83,22.75,18,36.85,12,5.46-2.31,10.39-1,6,8C263.59,457,237.69,475.12,212.67,469Z"/><path class="cls-35" d="M263,409.36c22.91,6.48,2.82,28.35-26.79,29.3l6.42-9.65Z"/><path class="cls-35" d="M292.71,519.4C273.5,586.46,178.57,590.7,143,545.23,104.51,496,105.81,423,164,381.3c33-23.68,70-20.94,90,4.81,10.36,6.39,18.06-1.82,23.16,4.81,5.65,7.35-12.92,29.78-23.62,34.7-6.63,27.23-35.06,31.22-38.17,65.59-3.64,40.25,44.51,56.84,67,21.35Z"/><path class="cls-35" d="M333.81,501.27c-10.51,3.9-23-5.26-43.22,5.45,9.45-20.22-11-28.85-12.32-38.26-8.45,5.45-24.22,39,1.31,58.64C301.77,537.16,327,522.81,333.81,501.27Z"/><path class="cls-31" d="M222.56,389.73c-.09-4.41,3.1-7.56,7.54-8.19C225.28,378,218.48,384.87,222.56,389.73Z"/><path class="cls-35" d="M220.34,446.43c12,11.64,25.1,10.17,37.64,3.31,5.2-2.85,12.22-2.44,8.51,8.8-3.88,11.76-28.57,37.63-59.66,32.43Z"/><path class="cls-36" d="M265.12,415.68c5.74,2.64-8,13.74-17.27,9.41C255.9,424.47,264.71,419.06,265.12,415.68Z"/><path class="cls-34" d="M242.64,395.54c1.58,2.81,1.78,3.83,5.11,5.61-.37,2.2-4.52,10.2-13.82,8.71C232.12,404.25,238.72,395.87,242.64,395.54Z"/><path class="cls-31" d="M247.49,401.41a5.8,5.8,0,0,0,6-.82c.79,3.18-3.59,5.56-5.21,5.26Z"/><path class="cls-31" d="M233.59,409.34c6.63.91,12.66-3.9,13-8.67C256.66,404.71,239.44,416.06,233.59,409.34Z"/><path class="cls-37" d="M165.12,390.4c-24.25,43.2-15.59,100.93,8.62,127.86,28.32,31.52,76.44,40,104.63,18.47-1.64,21.31-96.13,62.46-139,.44C98.58,478.08,130.88,410.08,165.12,390.4Z"/><path class="cls-38" d="M120.39,442.81c-10.8-10.31-30.9-6.86-29-11.79,8-20.85,30-25.79,46-23.7a117.81,117.81,0,0,1,26.55-26c33-23.68,70-20.94,90,4.81a16.83,16.83,0,0,0,8.12,2.58c5.55.31,10.07-1.85,13.56.75a7.4,7.4,0,0,1,1.48,1.48c3.22,4.18-1.4,13.24-8,21.18,6.08,4.23,4.35,10.72-2.23,16.23,5.43-7.63,3.22-13.4-2.4-15.81,4.41-3.55,11.65-13.91,9.57-18.78-1.45-3.39-12.7,1.74-22.78-.87-5.8-7.86-26.17-23.26-52-17.59-31.86,7-85.66,55.21-74.14,114.46,20.64,106.16,141.09,89.13,159.2,32.59,16.93,3.25,38.95-3.58,49.44-21.06-5.85,18.57-25.43,31.8-44.94,28.65C263.22,586.78,176.61,588.19,143,545.23,119.91,515.68,111.13,477.57,120.39,442.81Z"/><path class="cls-39" d="M316.1,501.46c-11.56,1.47-22,5.68-29.66,11.19,3.27-13,2.56-26.53-9.91-37-5.43,5.66-10.41,16-10.77,26.33-1.14-15.34,7.15-30.07,12.51-33.52,1.28,9.41,21.77,18,12.32,38.26A44.22,44.22,0,0,1,316.1,501.46Z"/><path class="cls-40" d="M448.07,439.51a26,26,0,1,1-26,26A26,26,0,0,1,448.07,439.51Z"/><path class="cls-41" d="M451.3,445.54a18.16,18.16,0,1,1-18.16,18.15A18.16,18.16,0,0,1,451.3,445.54Z"/><path class="cls-32" d="M445.56,446.05c1.71,4.79-6.83,2.36-10.76,11.8-3.65,8.75.53,12.84-3.4,13.89-3,.79-6.3-5.38-1.32-16.51C434.54,445.26,444.24,442.38,445.56,446.05Z"/><path class="cls-32" d="M431.78,475.35c3.84-2.79,7,3.14,3.58,5.17S428.68,477.6,431.78,475.35Z"/><path class="cls-40" d="M573.83,499a18.22,18.22,0,1,1-18.21,18.21A18.21,18.21,0,0,1,573.83,499Z"/><path class="cls-41" d="M576.09,503.26A12.74,12.74,0,1,1,563.35,516,12.74,12.74,0,0,1,576.09,503.26Z"/><path class="cls-32" d="M572.07,503.61c1.2,3.37-4.79,1.66-7.55,8.28-2.56,6.14.37,9-2.39,9.75-2.08.55-4.42-3.78-.92-11.59C564.33,503.06,571.14,501,572.07,503.61Z"/><path class="cls-32" d="M562.4,524.17c2.69-1.95,4.92,2.21,2.51,3.63S560.22,525.75,562.4,524.17Z"/><path class="cls-40" d="M606.21,361.07a14.9,14.9,0,1,1-14.9,14.9A14.91,14.91,0,0,1,606.21,361.07Z"/><path class="cls-41" d="M608.06,364.53A10.42,10.42,0,1,1,597.64,375,10.43,10.43,0,0,1,608.06,364.53Z"/><path class="cls-32" d="M604.77,364.82c1,2.75-3.92,1.36-6.18,6.78-2.09,5,.31,7.36-2,8-1.7.45-3.62-3.09-.76-9.48C598.44,364.37,604,362.71,604.77,364.82Z"/><path class="cls-32" d="M596.86,381.64c2.2-1.6,4,1.81,2,3S595.08,382.93,596.86,381.64Z"/><path class="cls-40" d="M113.77,596.49a14.92,14.92,0,1,1-14.92,14.92A14.93,14.93,0,0,1,113.77,596.49Z"/><path class="cls-41" d="M115.63,600a10.44,10.44,0,1,1-10.44,10.44A10.44,10.44,0,0,1,115.63,600Z"/><path class="cls-32" d="M112.33,600.25c1,2.75-3.92,1.35-6.18,6.78-2.1,5,.3,7.37-2,8-1.7.45-3.62-3.09-.76-9.49C106,599.79,111.57,598.14,112.33,600.25Z"/><path class="cls-32" d="M104.41,617.08c2.21-1.6,4,1.81,2.06,3S102.63,618.38,104.41,617.08Z"/><path class="cls-40" d="M48.45,541.38a22.23,22.23,0,1,1-22.23,22.23A22.25,22.25,0,0,1,48.45,541.38Z"/><path class="cls-41" d="M51.21,546.54a15.55,15.55,0,1,1-15.55,15.55A15.56,15.56,0,0,1,51.21,546.54Z"/><path class="cls-32" d="M46.3,547c1.46,4.1-5.85,2-9.21,10.1-3.13,7.5.45,11-2.92,11.9-2.54.67-5.39-4.61-1.13-14.14C36.86,546.3,45.17,543.83,46.3,547Z"/><path class="cls-32" d="M34.5,572.07c3.29-2.39,6,2.69,3.07,4.42S31.84,574,34.5,572.07Z"/><path class="cls-40" d="M603.41,556.11a12.1,12.1,0,1,1-12.1,12.1A12.1,12.1,0,0,1,603.41,556.11Z"/><path class="cls-41" d="M604.91,558.92a8.46,8.46,0,1,1-8.46,8.46A8.48,8.48,0,0,1,604.91,558.92Z"/><path class="cls-32" d="M602.23,559.16c.8,2.23-3.18,1.1-5,5.5-1.7,4.07.25,6-1.58,6.47-1.39.37-2.94-2.51-.62-7.69C597.1,558.79,601.62,557.45,602.23,559.16Z"/><path class="cls-32" d="M595.81,572.81c1.79-1.3,3.27,1.47,1.67,2.41A1.47,1.47,0,0,1,595.81,572.81Z"/><path class="cls-27" d="M278.6,409.81a3,3,0,1,1-3,3A3,3,0,0,1,278.6,409.81Z"/><path class="cls-27" d="M287.54,400.62a3.9,3.9,0,1,1-3.91,3.9A3.9,3.9,0,0,1,287.54,400.62Z"/><path class="cls-27" d="M287.4,392.15a2.5,2.5,0,1,1-2.5,2.5A2.5,2.5,0,0,1,287.4,392.15Z"/><circle class="cls-27" cx="302.21" cy="404" r="3.46"/><path class="cls-27" d="M293.65,411.31a2,2,0,1,1-2,2A2,2,0,0,1,293.65,411.31Z"/><polygon class="cls-42" points="602.06 269.98 602.77 260.14 611.65 264.45 603.48 258.92 611.65 253.38 602.77 257.69 602.06 247.85 601.36 257.69 592.48 253.38 600.65 258.92 592.48 264.45 601.36 260.14 602.06 269.98"/><polygon class="cls-42" points="324.63 376.31 323.86 365.66 314.26 370.32 323.09 364.34 314.26 358.35 323.86 363.01 324.63 352.37 325.39 363.01 334.99 358.35 326.16 364.34 334.99 370.32 325.39 365.66 324.63 376.31"/><polygon class="cls-43" points="641.6 233.35 640.9 223.72 632.21 227.93 640.21 222.51 632.21 217.1 640.9 221.31 641.6 211.68 642.29 221.31 650.98 217.1 642.98 222.51 650.98 227.93 642.29 223.72 641.6 233.35"/><path class="cls-42" d="M306.66,349.46a1.63,1.63,0,1,1-1.66,1.6A1.63,1.63,0,0,1,306.66,349.46Z"/><path class="cls-42" d="M341.3,339.55a1.43,1.43,0,1,1-1.45,1.4A1.43,1.43,0,0,1,341.3,339.55Z"/><path class="cls-42" d="M324.41,350.82a1.42,1.42,0,1,1,2-.42A1.42,1.42,0,0,1,324.41,350.82Z"/><path class="cls-42" d="M331,354a1.15,1.15,0,1,1-1.16,1.13A1.15,1.15,0,0,1,331,354Z"/><path class="cls-42" d="M308.9,369.56a2.13,2.13,0,1,1-2.16,2.09A2.12,2.12,0,0,1,308.9,369.56Z"/><path class="cls-42" d="M553.93,321.72a3.2,3.2,0,1,1-3.2,3.2A3.21,3.21,0,0,1,553.93,321.72Z"/><path class="cls-7" d="M423.57,340.64a2.5,2.5,0,1,1-2.5,2.49A2.49,2.49,0,0,1,423.57,340.64Z"/><path class="cls-42" d="M415.67,353.48a2.5,2.5,0,1,1-3.44.79A2.49,2.49,0,0,1,415.67,353.48Z"/><path class="cls-7" d="M358.2,340.43a2.63,2.63,0,1,1-2.63,2.63A2.63,2.63,0,0,1,358.2,340.43Z"/><path class="cls-42" d="M576.13,249a1.58,1.58,0,1,1-1.6,1.56A1.58,1.58,0,0,1,576.13,249Z"/><polygon class="cls-43" points="381.88 347.51 380.89 333.79 368.52 339.79 379.91 332.08 368.52 324.36 380.89 330.37 381.88 316.65 382.87 330.37 395.24 324.36 383.86 332.08 395.24 339.79 382.87 333.79 381.88 347.51"/><path class="cls-7" d="M390.94,353.64a3.33,3.33,0,1,1-3.33,3.32A3.32,3.32,0,0,1,390.94,353.64Z"/><path class="cls-7" d="M291.73,354.84a2.94,2.94,0,1,1-2.93,2.94A2.94,2.94,0,0,1,291.73,354.84Z"/><path class="cls-42" d="M649.33,314.1a1.47,1.47,0,1,0-2-.47A1.47,1.47,0,0,0,649.33,314.1Z"/><path class="cls-42" d="M642.86,329.82a1.83,1.83,0,1,0-2.53-.59A1.84,1.84,0,0,0,642.86,329.82Z"/><polygon class="cls-42" points="652.67 279.88 651.68 266.19 639.34 272.18 650.7 264.49 639.34 256.79 651.68 262.78 652.67 249.09 653.66 262.78 666 256.79 654.64 264.49 666 272.18 653.66 266.19 652.67 279.88"/><polygon class="cls-43" points="159.21 434.75 158.53 425.32 150.03 429.45 157.85 424.15 150.03 418.85 158.53 422.98 159.21 413.55 159.89 422.98 168.39 418.85 160.57 424.15 168.39 429.45 159.89 425.32 159.21 434.75"/><path class="cls-42" d="M436.81,359.59a1.63,1.63,0,1,1-1.63,1.63A1.63,1.63,0,0,1,436.81,359.59Z"/><path class="cls-42" d="M397.27,334.36a1.43,1.43,0,1,1-2,.46A1.43,1.43,0,0,1,397.27,334.36Z"/><circle class="cls-42" cx="404.64" cy="351.04" r="1.14"/><circle class="cls-42" cx="537.08" cy="276.11" r="2.12"/><path class="cls-42" d="M399.62,298.22a1.47,1.47,0,1,0-2-.47A1.46,1.46,0,0,0,399.62,298.22Z"/><path class="cls-42" d="M532.53,289.87a1.47,1.47,0,1,0-2-.46A1.46,1.46,0,0,0,532.53,289.87Z"/><path class="cls-42" d="M404.33,332.1a1.84,1.84,0,1,0-2.53-.58A1.83,1.83,0,0,0,404.33,332.1Z"/><path class="cls-42" d="M643.69,245.44a1.41,1.41,0,1,1-1.4,1.41A1.41,1.41,0,0,1,643.69,245.44Z"/><path class="cls-42" d="M614,254.86a1.23,1.23,0,1,1-1.23,1.23A1.23,1.23,0,0,1,614,254.86Z"/><path class="cls-42" d="M628.29,247.46a1.23,1.23,0,1,1-1.7.39A1.23,1.23,0,0,1,628.29,247.46Z"/><path class="cls-42" d="M622.64,242.76a1,1,0,1,1-1,1A1,1,0,0,1,622.64,242.76Z"/><path class="cls-42" d="M628.29,232.33a1.84,1.84,0,1,1-1.84,1.83A1.83,1.83,0,0,1,628.29,232.33Z"/><path class="cls-42" d="M354,325.91a1.84,1.84,0,1,1-1.87,1.8A1.83,1.83,0,0,1,354,325.91Z"/><path class="cls-42" d="M623,262.7a1.84,1.84,0,1,1,2.54-.54A1.83,1.83,0,0,1,623,262.7Z"/><path class="cls-42" d="M213.07,149.05a3.49,3.49,0,1,1-3.5,3.49A3.49,3.49,0,0,1,213.07,149.05Z"/><path class="cls-7" d="M534.25,220.93a5.71,5.71,0,1,1-5.71,5.71A5.71,5.71,0,0,1,534.25,220.93Z"/><path class="cls-42" d="M369.27,344a1.84,1.84,0,1,1-1.84,1.83A1.83,1.83,0,0,1,369.27,344Z"/><path class="cls-42" d="M471,415.35a1.84,1.84,0,1,1-1.84,1.83A1.83,1.83,0,0,1,471,415.35Z"/><path class="cls-42" d="M550.63,291.24a1.47,1.47,0,1,1,2-.47A1.47,1.47,0,0,1,550.63,291.24Z"/><path class="cls-42" d="M406.9,305.87a1.84,1.84,0,1,1,2.53-.58A1.83,1.83,0,0,1,406.9,305.87Z"/><path class="cls-42" d="M584.3,255.11a3.5,3.5,0,1,1-3.5,3.5A3.5,3.5,0,0,1,584.3,255.11Z"/><path class="cls-42" d="M422.39,325.9a1.51,1.51,0,1,1-1.5,1.51A1.51,1.51,0,0,1,422.39,325.9Z"/><path class="cls-42" d="M624.72,304.48a1.47,1.47,0,1,1,2-.47A1.46,1.46,0,0,1,624.72,304.48Z"/><path class="cls-42" d="M398.1,432.63a1.84,1.84,0,1,1,2.53-.58A1.83,1.83,0,0,1,398.1,432.63Z"/><path class="cls-42" d="M597.84,422.62a1.47,1.47,0,1,1-1.47,1.46A1.46,1.46,0,0,1,597.84,422.62Z"/><path class="cls-42" d="M518,437.25a4.19,4.19,0,1,1-4.2,4.19A4.19,4.19,0,0,1,518,437.25Z"/><path class="cls-42" d="M455.86,197.3a1.84,1.84,0,1,1-1.83,1.84A1.85,1.85,0,0,1,455.86,197.3Z"/><path class="cls-42" d="M253.81,371a1.84,1.84,0,1,1-1.83,1.84A1.84,1.84,0,0,1,253.81,371Z"/><path class="cls-42" d="M327.16,432.31a1.47,1.47,0,1,1,2-.47A1.46,1.46,0,0,1,327.16,432.31Z"/><path class="cls-7" d="M357.44,361.38a1.84,1.84,0,1,1,2.53-.58A1.83,1.83,0,0,1,357.44,361.38Z"/><path class="cls-42" d="M442.18,344.16a3.49,3.49,0,1,1-3.49,3.49A3.5,3.5,0,0,1,442.18,344.16Z"/><path class="cls-42" d="M345.59,355.81a1.84,1.84,0,1,1-1.83,1.84A1.84,1.84,0,0,1,345.59,355.81Z"/><path class="cls-7" d="M459.56,319.84a1.47,1.47,0,1,1,2-.47A1.47,1.47,0,0,1,459.56,319.84Z"/><path class="cls-7" d="M261.81,382a1.84,1.84,0,1,1-1.83,1.84A1.84,1.84,0,0,1,261.81,382Z"/><path class="cls-42" d="M296.43,458.85a1.47,1.47,0,1,1,2-.47A1.46,1.46,0,0,1,296.43,458.85Z"/><path class="cls-42" d="M372,400.38a3.49,3.49,0,1,1-3.49,3.49A3.49,3.49,0,0,1,372,400.38Z"/><path class="cls-42" d="M510.4,214.74a1.84,1.84,0,1,1-1.83,1.83A1.83,1.83,0,0,1,510.4,214.74Z"/><path class="cls-42" d="M567.46,262.57a1.47,1.47,0,1,1,2-.46A1.46,1.46,0,0,1,567.46,262.57Z"/><path class="cls-7" d="M168.6,417.18a3.49,3.49,0,1,1-3.49,3.49A3.49,3.49,0,0,1,168.6,417.18Z"/><path class="cls-42" d="M323,382.7a1.47,1.47,0,1,1,2-.47A1.47,1.47,0,0,1,323,382.7Z"/><path class="cls-42" d="M284.7,191a1.47,1.47,0,0,1,1.56-2.49A1.47,1.47,0,1,1,284.7,191Z"/><path class="cls-42" d="M422.53,317a1.84,1.84,0,1,1,2.53-.59A1.83,1.83,0,0,1,422.53,317Z"/><path class="cls-42" d="M291.76,223.74a1.47,1.47,0,1,1,2-.46A1.46,1.46,0,0,1,291.76,223.74Z"/><path class="cls-42" d="M332.26,237.71a1.47,1.47,0,1,1,2-.47A1.47,1.47,0,0,1,332.26,237.71Z"/><path class="cls-42" d="M636.49,298.1a2.81,2.81,0,1,1-2.81,2.81A2.81,2.81,0,0,1,636.49,298.1Z"/><path class="cls-42" d="M8.28,448.91a1.47,1.47,0,1,1-1.47,1.46A1.46,1.46,0,0,1,8.28,448.91Z"/><path class="cls-7" d="M199.9,459.87a1.47,1.47,0,1,0-2-.47A1.46,1.46,0,0,0,199.9,459.87Z"/><path class="cls-7" d="M611.14,229.14a4.36,4.36,0,1,1-6,1.39A4.35,4.35,0,0,1,611.14,229.14Z"/><polygon class="cls-43" points="26.79 400.88 26.02 390.28 16.47 394.92 25.26 388.96 16.47 383.01 26.02 387.64 26.79 377.05 27.55 387.64 37.1 383.01 28.31 388.96 37.1 394.92 27.55 390.28 26.79 400.88"/><polygon class="cls-43" points="99.44 396.82 98.53 384.27 87.22 389.76 97.63 382.71 87.22 375.65 98.53 381.14 99.44 368.59 100.34 381.14 111.66 375.65 101.24 382.71 111.66 389.76 100.34 384.27 99.44 396.82"/><path class="cls-7" d="M126.26,372.22a2.61,2.61,0,1,1-2.6,2.61A2.61,2.61,0,0,1,126.26,372.22Z"/><path class="cls-7" d="M131.59,389.14a1.11,1.11,0,0,1,0,2.22,1.11,1.11,0,0,1,0-2.22Z"/><circle class="cls-43" cx="74.1" cy="376.89" r="3.45"/><path class="cls-42" d="M3,377.3A2.69,2.69,0,1,1,.29,380,2.68,2.68,0,0,1,3,377.3Z"/><path class="cls-7" d="M121.47,387.24a1.35,1.35,0,1,0-1.85-.43A1.33,1.33,0,0,0,121.47,387.24Z"/><path class="cls-42" d="M80.41,380.88a1.49,1.49,0,1,1-1.49,1.49A1.49,1.49,0,0,1,80.41,380.88Z"/><path class="cls-42" d="M1.82,392.1a1.31,1.31,0,1,1-1.31,1.31A1.31,1.31,0,0,1,1.82,392.1Z"/><path class="cls-42" d="M64.48,382.85a1.3,1.3,0,1,1-1.79.41A1.3,1.3,0,0,1,64.48,382.85Z"/><path class="cls-42" d="M55.71,389.76a1,1,0,1,1-1,1A1,1,0,0,1,55.71,389.76Z"/><path class="cls-7" d="M71.59,391.55a1.95,1.95,0,1,1-1.94,1.95A1.95,1.95,0,0,1,71.59,391.55Z"/><path class="cls-42" d="M43.18,385.8a3.45,3.45,0,1,1-3.45,3.45A3.44,3.44,0,0,1,43.18,385.8Z"/><path class="cls-42" d="M45.71,364.63a1.34,1.34,0,1,0-1.85-.43A1.34,1.34,0,0,0,45.71,364.63Z"/><path class="cls-42" d="M40.8,349.32A1.34,1.34,0,1,0,39,348.9,1.34,1.34,0,0,0,40.8,349.32Z"/><path class="cls-7" d="M25.73,381.57a1.68,1.68,0,1,0-2.31-.53A1.69,1.69,0,0,0,25.73,381.57Z"/><path class="cls-7" d="M136,379.43a1.68,1.68,0,1,1-1.71,1.65A1.7,1.7,0,0,1,136,379.43Z"/><path class="cls-42" d="M143.19,382a1.35,1.35,0,1,1-1.37,1.32A1.35,1.35,0,0,1,143.19,382Z"/><path class="cls-7" d="M205.17,377.41a1.83,1.83,0,1,1-2.52.58A1.82,1.82,0,0,1,205.17,377.41Z"/><path class="cls-42" d="M263,355.19a1.47,1.47,0,0,0-1.56-2.49,1.47,1.47,0,0,0,1.56,2.49Z"/><path class="cls-7" d="M156,378.4a2.82,2.82,0,1,1-2.81,2.81A2.81,2.81,0,0,1,156,378.4Z"/><path class="cls-42" d="M243.76,365a1.84,1.84,0,1,1-1.84,1.84A1.84,1.84,0,0,1,243.76,365Z"/><polygon class="cls-43" points="187.61 390.75 186.93 381.33 178.43 385.45 186.25 380.15 178.43 374.85 186.93 378.98 187.61 369.55 188.29 378.98 196.79 374.85 188.97 380.15 196.79 385.45 188.29 381.33 187.61 390.75"/><polygon class="cls-43" points="217.98 381.59 216.99 367.9 204.65 373.89 216.01 366.19 204.65 358.5 216.99 364.49 217.98 350.8 218.97 364.49 231.31 358.5 219.95 366.19 231.31 373.89 218.97 367.9 217.98 381.59"/><polygon class="cls-43" points="588.79 307.91 589.68 295.54 600.83 300.96 590.57 294 600.83 287.05 589.68 292.46 588.79 280.09 587.9 292.46 576.74 287.05 587.01 294 576.74 300.96 587.9 295.54 588.79 307.91"/><polygon class="cls-43" points="465.57 344.09 466.36 333.25 476.13 337.99 467.13 331.9 476.13 325.81 466.36 330.55 465.57 319.71 464.8 330.55 455.02 325.81 464.02 331.9 455.02 337.99 464.8 333.25 465.57 344.09"/><path class="cls-42" d="M596.56,307.55a1.63,1.63,0,0,0,.06,3.26,1.62,1.62,0,0,0,1.6-1.65A1.64,1.64,0,0,0,596.56,307.55Z"/><path class="cls-42" d="M560.52,290.66a1.43,1.43,0,0,0-1.4,1.45,1.43,1.43,0,1,0,1.4-1.45Z"/><path class="cls-42" d="M581.84,313.94a1.43,1.43,0,1,0-2-.42A1.42,1.42,0,0,0,581.84,313.94Z"/><path class="cls-42" d="M576.51,305.87a1.15,1.15,0,1,0,1.16,1.13A1.14,1.14,0,0,0,576.51,305.87Z"/><path class="cls-42" d="M578.68,316.17a1.65,1.65,0,1,0,1.68,1.62A1.65,1.65,0,0,0,578.68,316.17Z"/><path class="cls-42" d="M603.33,312.47a2.28,2.28,0,1,1-2.27,2.28A2.28,2.28,0,0,1,603.33,312.47Z"/><path class="cls-42" d="M616.53,287.56a2.5,2.5,0,1,1-2.49,2.49A2.5,2.5,0,0,1,616.53,287.56Z"/><path class="cls-42" d="M646.38,290.35a2,2,0,1,1-2,2A2,2,0,0,1,646.38,290.35Z"/><path class="cls-7" d="M629.16,275.4a2.29,2.29,0,1,1-2.29,2.29A2.28,2.28,0,0,1,629.16,275.4Z"/><path class="cls-42" d="M602.76,285.7a1.21,1.21,0,1,0,1.23,1.19A1.21,1.21,0,0,0,602.76,285.7Z"/><path class="cls-42" d="M568.71,314.65a1.58,1.58,0,0,0,.06,3.16,1.58,1.58,0,1,0-.06-3.16Z"/><path class="cls-7" d="M557,273.76a2.33,2.33,0,1,1-2.33,2.33A2.33,2.33,0,0,1,557,273.76Z"/><path class="cls-42" d="M557,311.57a2.94,2.94,0,1,1-2.94,2.93A2.93,2.93,0,0,1,557,311.57Z"/><path class="cls-42" d="M508.1,316.44a1.47,1.47,0,1,1,2-.46A1.46,1.46,0,0,1,508.1,316.44Z"/><path class="cls-42" d="M516.24,298.76a1.46,1.46,0,1,1,2-.46A1.46,1.46,0,0,1,516.24,298.76Z"/><path class="cls-42" d="M546,318a1.83,1.83,0,1,1,2.53-.59A1.84,1.84,0,0,1,546,318Z"/><polygon class="cls-43" points="520.72 349.72 521.45 339.66 530.52 344.06 522.17 338.4 530.52 332.74 521.45 337.15 520.72 327.08 520 337.15 510.92 332.74 519.27 338.4 510.92 344.06 520 339.66 520.72 349.72"/><polygon class="cls-42" points="495.35 361.98 495.88 354.54 502.59 357.8 496.42 353.62 502.59 349.43 495.88 352.69 495.35 345.25 494.81 352.69 488.1 349.43 494.28 353.62 488.1 357.8 494.81 354.54 495.35 361.98"/><path class="cls-42" d="M474.79,306.51a1.63,1.63,0,1,1-1.63,1.63A1.63,1.63,0,0,1,474.79,306.51Z"/><path class="cls-42" d="M507.27,323.38a1.43,1.43,0,1,1-1.43,1.42A1.43,1.43,0,0,1,507.27,323.38Z"/><path class="cls-42" d="M484.42,320.35a.85.85,0,0,0-.27,1.17.85.85,0,1,0,1.45-.9A.86.86,0,0,0,484.42,320.35Z"/><path class="cls-42" d="M504.09,299a1.14,1.14,0,1,1-1.14,1.14A1.14,1.14,0,0,1,504.09,299Z"/><circle class="cls-42" cx="501.67" cy="294.26" r="2.12"/><path class="cls-42" d="M488.7,334.51a1.68,1.68,0,1,1-1.67,1.67A1.67,1.67,0,0,1,488.7,334.51Z"/><path class="cls-42" d="M438,335.93a1.47,1.47,0,1,1,2-.47A1.46,1.46,0,0,1,438,335.93Z"/><path class="cls-7" d="M443.32,319.21a1.47,1.47,0,1,1,2-.47A1.47,1.47,0,0,1,443.32,319.21Z"/><path class="cls-42" d="M459.79,350.61a1.84,1.84,0,1,1,2.53-.59A1.83,1.83,0,0,1,459.79,350.61Z"/><path class="cls-42" d="M591.94,319.47a1.41,1.41,0,1,1-1.41,1.41A1.41,1.41,0,0,1,591.94,319.47Z"/><path class="cls-7" d="M195.41,440.89a1.23,1.23,0,1,1-1.23,1.23A1.23,1.23,0,0,1,195.41,440.89Z"/><path class="cls-42" d="M373.41,365.6a1.23,1.23,0,1,0,1.7.39A1.24,1.24,0,0,0,373.41,365.6Z"/><path class="cls-42" d="M618.58,321a1,1,0,1,1-1,1A1,1,0,0,1,618.58,321Z"/><path class="cls-42" d="M624.11,310.55a1.84,1.84,0,1,1-1.84,1.83A1.83,1.83,0,0,1,624.11,310.55Z"/><path class="cls-7" d="M527.08,313.53a2.9,2.9,0,1,1-2.89,2.89A2.9,2.9,0,0,1,527.08,313.53Z"/><path class="cls-42" d="M574.33,282.61a1.84,1.84,0,1,0,1.86,1.8A1.84,1.84,0,0,0,574.33,282.61Z"/><path class="cls-42" d="M592.79,272.85a1.47,1.47,0,0,0-1.45,1.49,1.47,1.47,0,1,0,2.94,0A1.46,1.46,0,0,0,592.79,272.85Z"/><polygon class="cls-42" points="540.52 314.92 541.38 302.96 552.17 308.19 542.24 301.46 552.17 294.74 541.38 299.97 540.52 288.01 539.66 299.97 528.87 294.74 538.8 301.46 528.87 308.19 539.66 302.96 540.52 314.92"/><path class="cls-7" d="M459.16,308.25a1.47,1.47,0,1,0-2-.46A1.48,1.48,0,0,0,459.16,308.25Z"/><path class="cls-42" d="M571.18,353.28a1.84,1.84,0,1,0-2.53-.59A1.83,1.83,0,0,0,571.18,353.28Z"/><path class="cls-42" d="M287.86,368.28a2.5,2.5,0,1,1-2.5,2.5A2.49,2.49,0,0,1,287.86,368.28Z"/><path class="cls-7" d="M481.43,299.61a2.5,2.5,0,1,0,3.44.8A2.5,2.5,0,0,0,481.43,299.61Z"/><path class="cls-42" d="M292.68,311.82a2,2,0,1,1-2,2A2,2,0,0,1,292.68,311.82Z"/><path class="cls-42" d="M255.56,306.6a1.22,1.22,0,1,0,1.23,1.19A1.22,1.22,0,0,0,255.56,306.6Z"/><path class="cls-42" d="M488.66,307.24a.71.71,0,1,1,1-.22A.71.71,0,0,1,488.66,307.24Z"/><path class="cls-42" d="M574.89,268.1a.72.72,0,0,1-.23-1,.71.71,0,1,1,.23,1Z"/><path class="cls-42" d="M502.54,317.56A1.54,1.54,0,1,1,501,319.1,1.54,1.54,0,0,1,502.54,317.56Z"/><path class="cls-42" d="M370.94,419.29a1.84,1.84,0,1,1-1.84,1.84A1.84,1.84,0,0,1,370.94,419.29Z"/><path class="cls-42" d="M160.45,320a1.84,1.84,0,1,1-1.83,1.84A1.84,1.84,0,0,1,160.45,320Z"/><path class="cls-42" d="M55.77,208.89a1.84,1.84,0,1,1-1.83,1.84A1.84,1.84,0,0,1,55.77,208.89Z"/><path class="cls-42" d="M28.05,223.39a1.47,1.47,0,0,1-1.56,2.49,1.47,1.47,0,0,1,1.56-2.49Z"/><path class="cls-42" d="M76.45,220.7A3.49,3.49,0,1,1,73,224.19,3.49,3.49,0,0,1,76.45,220.7Z"/><path class="cls-42" d="M181.52,203.81a1.84,1.84,0,1,1-1.84,1.84A1.83,1.83,0,0,1,181.52,203.81Z"/><path class="cls-42" d="M327.2,405.72a1.47,1.47,0,1,1,2-.47A1.46,1.46,0,0,1,327.2,405.72Z"/><path class="cls-42" d="M81.45,189.89a1.47,1.47,0,1,1,2-.47A1.47,1.47,0,0,1,81.45,189.89Z"/><rect class="cls-44" x="-14.17" y="591.31" width="70.87" height="70.87"/><circle class="cls-27" cx="12.5" cy="638.33" r="19.84"/><path class="cls-27" d="M-.25,607.15a9.93,9.93,0,0,0-9.93,9.92A9.93,9.93,0,0,0-.25,627a9.92,9.92,0,0,0,9.92-9.92A9.92,9.92,0,0,0-.25,607.15Z"/><path class="cls-45" d="M13,635.16v-1.71H9.84v-.81L13.11,628h.72v4.64h1v.81h-1v1.71Zm0-2.52v-3.22l-2.25,3.22Z"/><path class="cls-46" d="M99.7,284.11a2.61,2.61,0,0,0,1-.17,2.15,2.15,0,0,0,.81-.56,2.27,2.27,0,0,0,.55-.85,3.24,3.24,0,0,0,0-2.13,2.23,2.23,0,0,0-.55-.84,2.17,2.17,0,0,0-.81-.57,2.61,2.61,0,0,0-1-.19,2.53,2.53,0,0,0-1,.19,2.65,2.65,0,0,0-1.36,1.41,3.24,3.24,0,0,0,0,2.13,2.4,2.4,0,0,0,.55.85,2.32,2.32,0,0,0,.81.56,2.71,2.71,0,0,0,1,.18Zm3.78,1h-1.29v-1.19a3.46,3.46,0,0,1-.51.57,2.47,2.47,0,0,1-.62.41,2.63,2.63,0,0,1-.72.23,5.13,5.13,0,0,1-.81.06,6,6,0,0,1-.75,0,3.49,3.49,0,0,1-.72-.2,3.72,3.72,0,0,1-.65-.36,5.2,5.2,0,0,1-.58-.49,3.35,3.35,0,0,1-.44-.57,3.51,3.51,0,0,1-.33-.64,3.13,3.13,0,0,1-.19-.7,4.56,4.56,0,0,1-.06-.75,4.36,4.36,0,0,1,.25-1.54,3.29,3.29,0,0,1,.77-1.21,3.15,3.15,0,0,1,1.18-.79,4.29,4.29,0,0,1,1.52-.26,3.53,3.53,0,0,1,1.55.35,3.22,3.22,0,0,1,.66.42,3.38,3.38,0,0,1,.54.59v-1.22h1.2Z"/><path class="cls-46" d="M113.29,284.11a2.54,2.54,0,0,0,1-.17,2.32,2.32,0,0,0,.81-.56,2.22,2.22,0,0,0,.53-.85,3.24,3.24,0,0,0,0-2.13,2.18,2.18,0,0,0-.53-.84,2.35,2.35,0,0,0-.81-.57,2.81,2.81,0,0,0-2,0,2.38,2.38,0,0,0-.82.57,2.45,2.45,0,0,0-.53.84,3.24,3.24,0,0,0,0,2.13,2.49,2.49,0,0,0,.53.85,2.35,2.35,0,0,0,.82.56,2.71,2.71,0,0,0,1,.18Zm-3.76,4.06V277.79h1.19V279a3.32,3.32,0,0,1,.54-.58,3.44,3.44,0,0,1,.65-.42,3.91,3.91,0,0,1,.75-.26,3.44,3.44,0,0,1,.8-.09,4.29,4.29,0,0,1,1.52.26,3.47,3.47,0,0,1,2,2,4.36,4.36,0,0,1,.26,1.54,3.84,3.84,0,0,1-.07.76,3.38,3.38,0,0,1-.19.71,3.07,3.07,0,0,1-.31.63,4.5,4.5,0,0,1-.44.56,4.41,4.41,0,0,1-.58.47,4.8,4.8,0,0,1-.67.37,3.58,3.58,0,0,1-.71.2,4.68,4.68,0,0,1-.76.06,5.13,5.13,0,0,1-.81-.06,2.46,2.46,0,0,1-.71-.23,2.3,2.3,0,0,1-.62-.41,4,4,0,0,1-.52-.56v4.22Z"/><path class="cls-46" d="M118.79,285.13v-7.34h1.31v7.34Zm-.21-9.8a.87.87,0,0,1,.06-.32.89.89,0,0,1,.19-.3,1,1,0,0,1,.3-.19.8.8,0,0,1,.34-.07.84.84,0,0,1,.35.07.87.87,0,0,1,.28.19.82.82,0,0,1,.19.28,1,1,0,0,1,.07.35,1,1,0,0,1-.07.35.73.73,0,0,1-.19.28.85.85,0,0,1-.29.19.93.93,0,0,1-.34.06,1,1,0,0,1-.34-.06.8.8,0,0,1-.29-.2.76.76,0,0,1-.2-.28.93.93,0,0,1-.06-.34Z"/><path class="cls-46" d="M122.33,285.13v-7.34h1.28v.84a3.28,3.28,0,0,1,.5-.42,2.55,2.55,0,0,1,.52-.31,3.13,3.13,0,0,1,.57-.18,2.32,2.32,0,0,1,.59-.07,2.88,2.88,0,0,1,1.13.22,2.26,2.26,0,0,1,.86.65,3,3,0,0,1,.55,1,4.6,4.6,0,0,1,.18,1.35v4.24h-1.29V281a4.1,4.1,0,0,0-.1-1,2,2,0,0,0-.31-.7,1.21,1.21,0,0,0-.51-.41,1.83,1.83,0,0,0-.73-.13,2.5,2.5,0,0,0-.86.14,1.65,1.65,0,0,0-.61.43,2,2,0,0,0-.37.71,3.7,3.7,0,0,0-.12,1v4.06Z"/><polygon class="cls-46" points="130.61 285.13 130.61 274.52 131.88 274.52 131.88 280.89 135.1 277.79 136.68 277.79 132.96 281.14 136.81 285.13 135.1 285.13 131.88 281.57 131.88 285.13 130.61 285.13"/><path class="cls-46" d="M149.28,274.52v10.61h-1.19V284a2.73,2.73,0,0,1-.58.55,4.34,4.34,0,0,1-.66.38,3.67,3.67,0,0,1-.74.2,5.59,5.59,0,0,1-.83.06,4.65,4.65,0,0,1-1.54-.24,3.53,3.53,0,0,1-1.22-.76,3.68,3.68,0,0,1-.78-1.22,4.18,4.18,0,0,1-.27-1.54,3.77,3.77,0,0,1,.07-.76,4,4,0,0,1,.18-.7,6.25,6.25,0,0,1,.33-.63,4.71,4.71,0,0,1,.44-.56,3.54,3.54,0,0,1,.61-.49,3.28,3.28,0,0,1,.67-.35,3.92,3.92,0,0,1,1.51-.31,4.3,4.3,0,0,1,.82.08,3.45,3.45,0,0,1,.73.23,2.48,2.48,0,0,1,.63.37,2.74,2.74,0,0,1,.51.51v-4.32Zm-3.85,4.25a2.91,2.91,0,0,0-1,.21,2.41,2.41,0,0,0-.83.55,2.56,2.56,0,0,0-.54.85,2.76,2.76,0,0,0-.19,1.05,2.8,2.8,0,0,0,.19,1.07,2.46,2.46,0,0,0,1.37,1.41,3.09,3.09,0,0,0,2.08,0,2.14,2.14,0,0,0,.83-.56,2.45,2.45,0,0,0,.55-.85,3,3,0,0,0,.18-1.07,3,3,0,0,0-.18-1.05,2.76,2.76,0,0,0-.55-.85,2.23,2.23,0,0,0-.83-.55,2.69,2.69,0,0,0-1-.19Z"/><path class="cls-46" d="M154.69,284.18a2.11,2.11,0,0,0,1-.18,2,2,0,0,0,.76-.57,2.42,2.42,0,0,0,.51-.86,3.43,3.43,0,0,0,.17-1.1,3.29,3.29,0,0,0-.17-1.07,2.38,2.38,0,0,0-.51-.87,2.21,2.21,0,0,0-.76-.57,2.12,2.12,0,0,0-1-.2,2.17,2.17,0,0,0-1,.2,2.24,2.24,0,0,0-.77.57,2.56,2.56,0,0,0-.51.87,3.52,3.52,0,0,0,0,2.16,2.42,2.42,0,0,0,.51.86,2.15,2.15,0,0,0,.78.58,2.3,2.3,0,0,0,.95.19Zm0-6.58a4.66,4.66,0,0,1,.77.08,4.56,4.56,0,0,1,.72.21,3.13,3.13,0,0,1,.65.35,3.23,3.23,0,0,1,.56.49,4.18,4.18,0,0,1,.47.57,3.39,3.39,0,0,1,.33.66,3.19,3.19,0,0,1,.21.73,4.44,4.44,0,0,1,0,1.57,3.27,3.27,0,0,1-.21.74,3.61,3.61,0,0,1-.33.65,3.69,3.69,0,0,1-.48.58,3.56,3.56,0,0,1-.57.47,3.36,3.36,0,0,1-.65.34,4.41,4.41,0,0,1-.71.2,3.77,3.77,0,0,1-.76.07,3.84,3.84,0,0,1-.76-.07,4.14,4.14,0,0,1-.71-.2,3.44,3.44,0,0,1-.66-.34,3.56,3.56,0,0,1-.57-.47,4.26,4.26,0,0,1-.47-.58,3.09,3.09,0,0,1-.34-.65,3.6,3.6,0,0,1-.21-.73,5.1,5.1,0,0,1-.06-.8,4.93,4.93,0,0,1,.06-.78,3.79,3.79,0,0,1,.21-.73,2.94,2.94,0,0,1,.34-.66,4.18,4.18,0,0,1,.47-.57,3.16,3.16,0,0,1,.57-.48,4.17,4.17,0,0,1,.66-.35,3.44,3.44,0,0,1,.71-.22,3.84,3.84,0,0,1,.76-.07Z"/><rect x="160.13" y="274.52" width="1.27" height="10.61"/><path class="cls-46" d="M167.37,284.11a2.57,2.57,0,0,0,1-.17,2.19,2.19,0,0,0,.8-.56,2.13,2.13,0,0,0,.54-.85,3.24,3.24,0,0,0,0-2.13,2.09,2.09,0,0,0-.54-.84,2.22,2.22,0,0,0-.8-.57,2.58,2.58,0,0,0-1-.19,2.53,2.53,0,0,0-1,.19,2.29,2.29,0,0,0-.82.57,2.45,2.45,0,0,0-.53.84,3.08,3.08,0,0,0,0,2.13,2.49,2.49,0,0,0,.53.85,2.27,2.27,0,0,0,.82.56,2.71,2.71,0,0,0,1,.18Zm-3.76,4.06V277.79h1.19V279a3,3,0,0,1,.54-.58A3.15,3.15,0,0,1,166,278a3.91,3.91,0,0,1,.75-.26,3.44,3.44,0,0,1,.8-.09,4.29,4.29,0,0,1,1.52.26,3.47,3.47,0,0,1,1.95,2,4.36,4.36,0,0,1,.26,1.54,4.77,4.77,0,0,1-.07.76,3.38,3.38,0,0,1-.19.71,3.68,3.68,0,0,1-.31.63,4.5,4.5,0,0,1-.44.56,4.41,4.41,0,0,1-.58.47,5.44,5.44,0,0,1-.67.37,3.58,3.58,0,0,1-.71.2,4.77,4.77,0,0,1-.76.06,5.13,5.13,0,0,1-.81-.06,2.46,2.46,0,0,1-.71-.23,2.3,2.3,0,0,1-.62-.41,4,4,0,0,1-.52-.56v4.22Z"/><path class="cls-46" d="M177.77,285.13V281a4.28,4.28,0,0,0-.1-1,1.82,1.82,0,0,0-.28-.69,1.19,1.19,0,0,0-.51-.4,1.75,1.75,0,0,0-.72-.13,2.38,2.38,0,0,0-.84.14,1.5,1.5,0,0,0-.61.43,2.14,2.14,0,0,0-.35.71,3.7,3.7,0,0,0-.12,1v4.06h-1.32V274.52h1.32v4.11a3.08,3.08,0,0,1,.47-.42,3.3,3.3,0,0,1,.51-.31,2.45,2.45,0,0,1,.56-.18,2.35,2.35,0,0,1,.6-.07,2.88,2.88,0,0,1,1.13.22,2.26,2.26,0,0,1,.86.65,2.93,2.93,0,0,1,.54,1,4.27,4.27,0,0,1,.19,1.35v4.24Z"/><path class="cls-46" d="M181.14,285.13v-7.34h1.32v7.34Zm-.21-9.8A.87.87,0,0,1,181,275a1.37,1.37,0,0,1,.19-.3,1.25,1.25,0,0,1,.3-.19.84.84,0,0,1,.35-.07.8.8,0,0,1,.34.07.91.91,0,0,1,.29.19,1,1,0,0,1,.18.28.81.81,0,0,1,.07.35.93.93,0,0,1-.25.63.89.89,0,0,1-.3.19.88.88,0,0,1-.33.06,1,1,0,0,1-.35-.06.76.76,0,0,1-.28-.2.79.79,0,0,1-.21-.28.93.93,0,0,1-.06-.34Z"/><path class="cls-46" d="M184.69,285.13v-7.34H186v.84a3.84,3.84,0,0,1,.5-.42,2.85,2.85,0,0,1,.52-.31,3.13,3.13,0,0,1,.57-.18,2.32,2.32,0,0,1,.59-.07,2.88,2.88,0,0,1,1.13.22,2.26,2.26,0,0,1,.86.65,2.79,2.79,0,0,1,.55,1,4.6,4.6,0,0,1,.18,1.35v4.24h-1.29V281a4.1,4.1,0,0,0-.1-1,2,2,0,0,0-.3-.7,1.21,1.21,0,0,0-.51-.41,1.88,1.88,0,0,0-.74-.13,2.4,2.4,0,0,0-.85.14,1.61,1.61,0,0,0-.62.43,1.83,1.83,0,0,0-.36.71,3.32,3.32,0,0,0-.13,1v4.06Z"/><path class="cls-46" d="M198.66,285.13l-2.75-7.34h1.36l1.62,4.65a1.42,1.42,0,0,0,.07.22c0,.08,0,.16.08.26a1.4,1.4,0,0,0,.06.28c0,.1.05.2.07.3l0-.13,0-.15a1,1,0,0,0,0-.12l0-.13a2.1,2.1,0,0,1,.06-.24,1.8,1.8,0,0,1,.08-.21l1.56-4.73h1.32l1.58,4.67.09.26c0,.08.05.17.08.27a.19.19,0,0,1,0,.08s0,.06,0,.08l0,.05s0,0,0,0l0,.13,0,.13c0-.06,0-.13.05-.21a2.25,2.25,0,0,1,0-.22,1.61,1.61,0,0,1,.07-.25c0-.09.06-.19.09-.3l1.63-4.73h1.3l-2.73,7.34h-1l-1.82-5.31,0-.07a.24.24,0,0,1,0-.08l0-.08,0-.09a1,1,0,0,0,0-.17c0-.07,0-.13,0-.19s0,.12,0,.19a1.09,1.09,0,0,1-.05.17l0,.16a.88.88,0,0,0,0,.15l-1.84,5.32Z"/><path class="cls-46" d="M211.94,284.11a2.61,2.61,0,0,0,1-.17,2.27,2.27,0,0,0,.82-.56,2.37,2.37,0,0,0,.54-.85,3.24,3.24,0,0,0,0-2.13,2.33,2.33,0,0,0-.54-.84A2.29,2.29,0,0,0,213,279a2.61,2.61,0,0,0-1-.19,2.53,2.53,0,0,0-1,.19,2.35,2.35,0,0,0-.81.57,2.5,2.5,0,0,0-.55.84,3.24,3.24,0,0,0,0,2.13,2.54,2.54,0,0,0,.55.85,2.32,2.32,0,0,0,.81.56,2.71,2.71,0,0,0,1,.18Zm3.78,1h-1.29v-1.19a3.46,3.46,0,0,1-.51.57,2.47,2.47,0,0,1-.62.41,2.57,2.57,0,0,1-.71.23,5.36,5.36,0,0,1-.82.06,6,6,0,0,1-.75,0,3.67,3.67,0,0,1-.72-.2,3.72,3.72,0,0,1-.65-.36,5.2,5.2,0,0,1-.58-.49,4,4,0,0,1-.44-.57,3.51,3.51,0,0,1-.33-.64,3.78,3.78,0,0,1-.19-.7,4.56,4.56,0,0,1-.06-.75,4.36,4.36,0,0,1,.25-1.54,3.42,3.42,0,0,1,.77-1.21,3.23,3.23,0,0,1,1.18-.79,4.33,4.33,0,0,1,1.52-.26,3.75,3.75,0,0,1,.82.09,3.82,3.82,0,0,1,.74.26,3.44,3.44,0,0,1,.65.42,3.38,3.38,0,0,1,.54.59v-1.22h1.2Z"/><path class="cls-46" d="M218.68,283a2,2,0,0,0,.12.55,1.13,1.13,0,0,0,.27.39,1.19,1.19,0,0,0,.42.22,1.72,1.72,0,0,0,.58.09,1.81,1.81,0,0,0,.58-.09,1.11,1.11,0,0,0,.44-.24,1,1,0,0,0,.29-.36,1.19,1.19,0,0,0,.08-.47.78.78,0,0,0-.36-.63A3.51,3.51,0,0,0,220,282l-.2-.05-.14,0a5.43,5.43,0,0,1-1-.38A2.8,2.8,0,0,1,218,281a2,2,0,0,1-.39-.59,2,2,0,0,1,0-1.55,2.28,2.28,0,0,1,.53-.69,2.72,2.72,0,0,1,1.8-.6,3.3,3.3,0,0,1,1,.15,2.49,2.49,0,0,1,.8.45,2,2,0,0,1,.51.72,2.46,2.46,0,0,1,.17.94v0h-1.24a1.93,1.93,0,0,0-.09-.49A1.23,1.23,0,0,0,221,279a.94.94,0,0,0-.39-.23,1.68,1.68,0,0,0-.52-.07,2.15,2.15,0,0,0-.53.06,1.22,1.22,0,0,0-.68.53.87.87,0,0,0-.09.4,1.06,1.06,0,0,0,.06.37.61.61,0,0,0,.19.26,2,2,0,0,0,.43.23c.2.08.45.16.76.25l.07,0,.1,0c.42.12.77.24,1.05.35a2.27,2.27,0,0,1,.6.32,2.2,2.2,0,0,1,.3.31,1.65,1.65,0,0,1,.22.36,1.88,1.88,0,0,1,.14.42,3.14,3.14,0,0,1,0,.45,2.19,2.19,0,0,1-.18.9,1.91,1.91,0,0,1-.54.74,2.15,2.15,0,0,1-.83.45,3.59,3.59,0,0,1-1.07.15,4.1,4.1,0,0,1-1.11-.14,2.07,2.07,0,0,1-.84-.45,1.72,1.72,0,0,1-.52-.72,2.68,2.68,0,0,1-.2-1Z"/><path class="cls-46" d="M232.06,284.11a2.54,2.54,0,0,0,1-.17,2.19,2.19,0,0,0,.8-.56,2.13,2.13,0,0,0,.54-.85,3.24,3.24,0,0,0,0-2.13,2.09,2.09,0,0,0-.54-.84,2.22,2.22,0,0,0-.8-.57,2.81,2.81,0,0,0-2,0,2.38,2.38,0,0,0-.82.57,2.45,2.45,0,0,0-.53.84,3.24,3.24,0,0,0,0,2.13,2.49,2.49,0,0,0,.53.85,2.35,2.35,0,0,0,.82.56,2.71,2.71,0,0,0,1,.18Zm-3.76,1V274.52h1.19V279a3.32,3.32,0,0,1,.54-.58,3.44,3.44,0,0,1,.65-.42,3.91,3.91,0,0,1,.75-.26,3.5,3.5,0,0,1,.8-.09,4.29,4.29,0,0,1,1.52.26,3.18,3.18,0,0,1,1.19.79,3.42,3.42,0,0,1,.77,1.21,4.6,4.6,0,0,1,.25,1.54,3.84,3.84,0,0,1-.07.76,4.1,4.1,0,0,1-.18.71,3.73,3.73,0,0,1-.32.63,4.5,4.5,0,0,1-.44.56,4.41,4.41,0,0,1-.58.47,4.8,4.8,0,0,1-.67.37,3.58,3.58,0,0,1-.71.2,4.68,4.68,0,0,1-.76.06,5.13,5.13,0,0,1-.81-.06,2.46,2.46,0,0,1-.71-.23,2.3,2.3,0,0,1-.62-.41,4,4,0,0,1-.52-.56v1.18Z"/><path class="cls-46" d="M240.82,284.18a2.17,2.17,0,0,0,1-.18,2.06,2.06,0,0,0,.76-.57,2.58,2.58,0,0,0,.51-.86,3.44,3.44,0,0,0,.16-1.1,3.29,3.29,0,0,0-.16-1.07,2.53,2.53,0,0,0-.51-.87,2.3,2.3,0,0,0-.76-.57,2.43,2.43,0,0,0-1.93,0,2.34,2.34,0,0,0-.77.57,2.7,2.7,0,0,0-.5.87,3.52,3.52,0,0,0,0,2.16,2.56,2.56,0,0,0,.5.86,2.25,2.25,0,0,0,1.74.77Zm0-6.58a4.66,4.66,0,0,1,.77.08,4.44,4.44,0,0,1,.71.21,3.21,3.21,0,0,1,.66.35,3.64,3.64,0,0,1,.56.49,3.48,3.48,0,0,1,.46.57,2.94,2.94,0,0,1,.34.66,4.68,4.68,0,0,1,.21.73,4.44,4.44,0,0,1,0,1.57,4.79,4.79,0,0,1-.21.74,3.09,3.09,0,0,1-.34.65,3.15,3.15,0,0,1-.47.58,3.23,3.23,0,0,1-.58.47,3.28,3.28,0,0,1-.64.34,4.41,4.41,0,0,1-.71.2,3.84,3.84,0,0,1-.76.07,3.77,3.77,0,0,1-.76-.07,3.9,3.9,0,0,1-.71-.2,3.44,3.44,0,0,1-.66-.34,3.17,3.17,0,0,1-.57-.47,4.26,4.26,0,0,1-.47-.58,3.09,3.09,0,0,1-.34-.65,3.06,3.06,0,0,1-.21-.73,5.1,5.1,0,0,1-.06-.8,4.93,4.93,0,0,1,.06-.78,3.19,3.19,0,0,1,.21-.73,2.94,2.94,0,0,1,.34-.66,4.18,4.18,0,0,1,.47-.57,2.85,2.85,0,0,1,.57-.48,4.17,4.17,0,0,1,.66-.35,3.26,3.26,0,0,1,.71-.22,3.77,3.77,0,0,1,.76-.07Z"/><path class="cls-46" d="M246.27,285.13v-7.34h1.22v1a2.89,2.89,0,0,1,.38-.47,2.28,2.28,0,0,1,.43-.35,1.58,1.58,0,0,1,.52-.21,2.35,2.35,0,0,1,.6-.07h.44V279l-.19,0-.15,0-.15,0h-.14a1.88,1.88,0,0,0-.74.13,1.18,1.18,0,0,0-.52.39,1.85,1.85,0,0,0-.32.66,3.6,3.6,0,0,0-.1.92v4.09Z"/><path class="cls-46" d="M251.23,285.13v-7.34h1.27v.84a3.84,3.84,0,0,1,.5-.42,2.61,2.61,0,0,1,.53-.31,2.81,2.81,0,0,1,.56-.18,2.35,2.35,0,0,1,.6-.07,2.83,2.83,0,0,1,1.12.22,2.29,2.29,0,0,1,.87.65,2.93,2.93,0,0,1,.54,1,4.6,4.6,0,0,1,.18,1.35v4.24h-1.28V281a4.07,4.07,0,0,0-.11-1,2,2,0,0,0-.3-.7,1.21,1.21,0,0,0-.51-.41,1.88,1.88,0,0,0-.74-.13,2.44,2.44,0,0,0-.85.14,1.69,1.69,0,0,0-.62.43,1.83,1.83,0,0,0-.36.71,3.32,3.32,0,0,0-.13,1v4.06Z"/><path class="cls-46" d="M263.32,285.13v-7.34h1.32v7.34Zm-.21-9.8a.71.71,0,0,1,.07-.32.89.89,0,0,1,.19-.3,1,1,0,0,1,.3-.19.77.77,0,0,1,.34-.07.8.8,0,0,1,.34.07.91.91,0,0,1,.29.19.82.82,0,0,1,.25.63,1,1,0,0,1-.06.35.87.87,0,0,1-.19.28,1,1,0,0,1-.29.19,1,1,0,0,1-.34.06.93.93,0,0,1-.34-.06.72.72,0,0,1-.29-.2.83.83,0,0,1-.27-.62Z"/><path class="cls-46" d="M266.87,285.13v-7.34h1.27v.84a3.84,3.84,0,0,1,.5-.42,2.61,2.61,0,0,1,.53-.31,2.81,2.81,0,0,1,.56-.18,2.35,2.35,0,0,1,.6-.07,2.92,2.92,0,0,1,1.13.22,2.34,2.34,0,0,1,.86.65,2.93,2.93,0,0,1,.54,1,4.6,4.6,0,0,1,.18,1.35v4.24h-1.28V281a4.07,4.07,0,0,0-.11-1,2,2,0,0,0-.3-.7,1.21,1.21,0,0,0-.51-.41,1.88,1.88,0,0,0-.74-.13,2.44,2.44,0,0,0-.85.14,1.69,1.69,0,0,0-.62.43,1.83,1.83,0,0,0-.36.71,3.68,3.68,0,0,0-.13,1v4.06Z"/><path class="cls-46" d="M279.1,283.62v-4.74h-1v-1.09h1V276h1.32v1.79h1.25v1.09h-1.25v4.57a.87.87,0,0,0,0,.3.76.76,0,0,0,.08.2.5.5,0,0,0,.19.11,1,1,0,0,0,.25,0h.69v1.23h-.75a3.49,3.49,0,0,1-.84-.09,1.39,1.39,0,0,1-.56-.27,1.2,1.2,0,0,1-.31-.53,2.6,2.6,0,0,1-.11-.79Z"/><path class="cls-46" d="M288.26,285.13V281a5,5,0,0,0-.09-1,1.67,1.67,0,0,0-.29-.69,1.16,1.16,0,0,0-.5-.4,1.8,1.8,0,0,0-.73-.13,2.42,2.42,0,0,0-.84.14,1.54,1.54,0,0,0-.6.43,2.14,2.14,0,0,0-.35.71,3.68,3.68,0,0,0-.13,1v4.06h-1.31V274.52h1.31v4.11a3.63,3.63,0,0,1,.47-.42,4.63,4.63,0,0,1,.51-.31,2.7,2.7,0,0,1,.57-.18,2.35,2.35,0,0,1,.6-.07,2.83,2.83,0,0,1,1.12.22,2.37,2.37,0,0,1,.87.65,2.93,2.93,0,0,1,.54,1,4.6,4.6,0,0,1,.18,1.35v4.24Z"/><path class="cls-46" d="M292.42,280.84h4.89a2.32,2.32,0,0,0-.26-.82,2.12,2.12,0,0,0-.53-.67,2.08,2.08,0,0,0-.74-.44,2.5,2.5,0,0,0-.88-.15,2.57,2.57,0,0,0-.9.15,2.73,2.73,0,0,0-.77.45,2.28,2.28,0,0,0-.54.67,2.89,2.89,0,0,0-.27.83Zm0,1.05a2.45,2.45,0,0,0,.25.93,2.55,2.55,0,0,0,.55.73,2.78,2.78,0,0,0,.82.47,3.29,3.29,0,0,0,1,.16,3.19,3.19,0,0,0,.7-.08,3,3,0,0,0,.63-.23,3.64,3.64,0,0,0,.59-.37,5.2,5.2,0,0,0,.55-.51l.92.72a4.58,4.58,0,0,1-.73.73,3.56,3.56,0,0,1-1.69.78,5.42,5.42,0,0,1-1,.09,3.86,3.86,0,0,1-.84-.08,4.58,4.58,0,0,1-.77-.21,4.28,4.28,0,0,1-.7-.38,4.14,4.14,0,0,1-.6-.52,4.26,4.26,0,0,1-.41-.54,4.21,4.21,0,0,1-.31-.64,4.39,4.39,0,0,1-.18-.69,3.51,3.51,0,0,1-.07-.72,4.65,4.65,0,0,1,.26-1.59,3.43,3.43,0,0,1,.78-1.24,3.65,3.65,0,0,1,1.21-.82,4.4,4.4,0,0,1,3.09,0,3.63,3.63,0,0,1,1.23.87,3.82,3.82,0,0,1,.79,1.33,5.38,5.38,0,0,1,.26,1.71v.08Z"/><path class="cls-46" d="M305.27,282.08a2.43,2.43,0,0,0,.16.85,2,2,0,0,0,.43.65,1.94,1.94,0,0,0,.69.39,2.83,2.83,0,0,0,.9.14,3.11,3.11,0,0,0,.84-.11,2.12,2.12,0,0,0,.65-.34,1.79,1.79,0,0,0,.42-.54,1.59,1.59,0,0,0,.14-.66,1.69,1.69,0,0,0-.12-.66,1.46,1.46,0,0,0-.32-.52,1.72,1.72,0,0,0-.28-.23l-.39-.22c-.15-.07-.32-.15-.51-.22l-.62-.23-.14-.05-.2-.06a11,11,0,0,1-1.18-.48,3.87,3.87,0,0,1-.81-.5,3.16,3.16,0,0,1-.4-.42,2.15,2.15,0,0,1-.28-.49,3,3,0,0,1-.17-.58,3.34,3.34,0,0,1-.06-.65,3.19,3.19,0,0,1,.22-1.19,2.38,2.38,0,0,1,.65-.92,2.78,2.78,0,0,1,1-.6,4.19,4.19,0,0,1,1.33-.19,4.34,4.34,0,0,1,1.4.21,3,3,0,0,1,1.07.63,3.05,3.05,0,0,1,.72,1,4,4,0,0,1,.29,1.36h-1.41a3.14,3.14,0,0,0-.22-.89,2,2,0,0,0-.41-.64,1.63,1.63,0,0,0-.62-.39,2.55,2.55,0,0,0-.81-.13,2.37,2.37,0,0,0-.78.12,1.89,1.89,0,0,0-.61.36,1.39,1.39,0,0,0-.39.54,1.81,1.81,0,0,0-.14.72,2.33,2.33,0,0,0,0,.38,1.61,1.61,0,0,0,.12.33.88.88,0,0,0,.17.28,1,1,0,0,0,.23.24l.24.15.31.14c.11.06.24.11.38.17l.45.14.24.07.18.06a9.37,9.37,0,0,1,1.53.65,3.93,3.93,0,0,1,1,.71,2.17,2.17,0,0,1,.52.83,3.29,3.29,0,0,1,.17,1.07,2.87,2.87,0,0,1-.25,1.18,2.79,2.79,0,0,1-.73,1,3.34,3.34,0,0,1-1.12.63,4.62,4.62,0,0,1-1.39.2,4.55,4.55,0,0,1-1.38-.2,3.12,3.12,0,0,1-1.1-.64,3,3,0,0,1-.74-1,3.94,3.94,0,0,1-.33-1.33Z"/><path class="cls-46" d="M316.16,284.18a2.14,2.14,0,0,0,1-.18,2.06,2.06,0,0,0,.76-.57,2.58,2.58,0,0,0,.51-.86,3.44,3.44,0,0,0,.16-1.1,3.29,3.29,0,0,0-.16-1.07,2.53,2.53,0,0,0-.51-.87,2.3,2.3,0,0,0-.76-.57,2.14,2.14,0,0,0-1-.2,2.19,2.19,0,0,0-1,.2,2.34,2.34,0,0,0-.77.57,2.7,2.7,0,0,0-.5.87,3.52,3.52,0,0,0,0,2.16,2.56,2.56,0,0,0,.5.86,2.25,2.25,0,0,0,1.74.77Zm0-6.58a4.66,4.66,0,0,1,.77.08,4.44,4.44,0,0,1,.71.21,2.9,2.9,0,0,1,.65.35,3,3,0,0,1,.57.49,3.48,3.48,0,0,1,.46.57,2.94,2.94,0,0,1,.34.66,4.68,4.68,0,0,1,.21.73,4.44,4.44,0,0,1,0,1.57,4.79,4.79,0,0,1-.21.74,3.09,3.09,0,0,1-.34.65,3.15,3.15,0,0,1-.47.58,3.23,3.23,0,0,1-.58.47,3.28,3.28,0,0,1-.64.34,4.41,4.41,0,0,1-.71.2,3.84,3.84,0,0,1-.76.07,3.77,3.77,0,0,1-.76-.07,3.9,3.9,0,0,1-.71-.2,3.44,3.44,0,0,1-.66-.34,3.17,3.17,0,0,1-.57-.47,4.26,4.26,0,0,1-.47-.58,3.09,3.09,0,0,1-.34-.65,3.06,3.06,0,0,1-.21-.73,5.1,5.1,0,0,1-.06-.8,4.93,4.93,0,0,1,.06-.78,3.19,3.19,0,0,1,.21-.73,2.94,2.94,0,0,1,.34-.66,4.18,4.18,0,0,1,.47-.57,2.85,2.85,0,0,1,.57-.48,4.17,4.17,0,0,1,.66-.35,3.26,3.26,0,0,1,.71-.22,3.77,3.77,0,0,1,.76-.07Z"/><path class="cls-46" d="M322.76,277.79v4.08a3.6,3.6,0,0,0,.12,1,2.14,2.14,0,0,0,.34.73,1.75,1.75,0,0,0,.56.46,2,2,0,0,0,1.51,0,1.5,1.5,0,0,0,.55-.45,2.13,2.13,0,0,0,.36-.74,3.52,3.52,0,0,0,.12-1v-4.09h1.28v4.15a4.49,4.49,0,0,1-.2,1.43,2.86,2.86,0,0,1-.61,1.06,2.4,2.4,0,0,1-1,.66,3.47,3.47,0,0,1-1.28.22,3.51,3.51,0,0,1-1.3-.22,2.55,2.55,0,0,1-1-.65,3.1,3.1,0,0,1-.6-1.07,4.42,4.42,0,0,1-.21-1.42v-4.16Z"/><path class="cls-46" d="M329.8,283.62v-4.74h-1v-1.09h1V276h1.31v1.79h1.25v1.09h-1.25v4.57a.87.87,0,0,0,0,.3.53.53,0,0,0,.09.2.54.54,0,0,0,.18.11,1,1,0,0,0,.25,0h.69v1.23h-.74a3.37,3.37,0,0,1-.84-.09,1.33,1.33,0,0,1-.56-.27,1.22,1.22,0,0,1-.32-.53,2.62,2.62,0,0,1-.1-.79Z"/><path class="cls-46" d="M339,285.13V281a4.9,4.9,0,0,0-.1-1,1.82,1.82,0,0,0-.28-.69,1.19,1.19,0,0,0-.51-.4,1.75,1.75,0,0,0-.72-.13,2.38,2.38,0,0,0-.84.14,1.5,1.5,0,0,0-.61.43,2.14,2.14,0,0,0-.35.71,3.7,3.7,0,0,0-.12,1v4.06h-1.32V274.52h1.32v4.11a3.08,3.08,0,0,1,.47-.42,3.3,3.3,0,0,1,.51-.31,2.45,2.45,0,0,1,.56-.18,2.35,2.35,0,0,1,.6-.07,2.88,2.88,0,0,1,1.13.22,2.34,2.34,0,0,1,.86.65,2.93,2.93,0,0,1,.54,1,4.58,4.58,0,0,1,.19,1.35v4.24Z"/><path class="cls-46" d="M354.14,276.62a5.69,5.69,0,0,0-.61-.49,3.73,3.73,0,0,0-.69-.35,3.51,3.51,0,0,0-.74-.21,5.49,5.49,0,0,0-.83-.06,5.36,5.36,0,0,0-.82.06,3.9,3.9,0,0,0-.76.22,3.43,3.43,0,0,0-.68.36,4.09,4.09,0,0,0-.61.49,4.65,4.65,0,0,0-.53.66,4.9,4.9,0,0,0-.38.76,5.54,5.54,0,0,0-.24.82,5.46,5.46,0,0,0-.08.93,5.11,5.11,0,0,0,.08.9,5.67,5.67,0,0,0,.24.83,4.39,4.39,0,0,0,.38.75,4.29,4.29,0,0,0,.53.68,4.51,4.51,0,0,0,.6.48,4.42,4.42,0,0,0,.68.36,3.16,3.16,0,0,0,.76.21,4.5,4.5,0,0,0,.83.07,5,5,0,0,0,.88-.07,6.55,6.55,0,0,0,.79-.22,3.48,3.48,0,0,0,.68-.38,3.61,3.61,0,0,0,.58-.53l.92,1a4.85,4.85,0,0,1-.8.65,5,5,0,0,1-.92.47,6.21,6.21,0,0,1-1,.25,6.68,6.68,0,0,1-3.26-.26,5.68,5.68,0,0,1-.92-.47,4.88,4.88,0,0,1-.8-.62,6.44,6.44,0,0,1-.72-.86,5.15,5.15,0,0,1-.53-1,5.89,5.89,0,0,1-.31-1.09,6.25,6.25,0,0,1-.11-1.16,6.39,6.39,0,0,1,.11-1.18,5.68,5.68,0,0,1,.31-1.09,5.07,5.07,0,0,1,.53-1,5.31,5.31,0,0,1,.72-.85,4.5,4.5,0,0,1,.8-.64,4.4,4.4,0,0,1,.92-.46,4.07,4.07,0,0,1,1-.28,6.77,6.77,0,0,1,1.12-.09,6.53,6.53,0,0,1,1.1.09,4.79,4.79,0,0,1,1,.25,4.74,4.74,0,0,1,.88.42,5.76,5.76,0,0,1,.8.6Z"/><path class="cls-46" d="M361.61,285.13V281a5,5,0,0,0-.09-1,1.67,1.67,0,0,0-.29-.69,1.16,1.16,0,0,0-.5-.4,1.8,1.8,0,0,0-.73-.13,2.47,2.47,0,0,0-.84.14,1.54,1.54,0,0,0-.6.43,2,2,0,0,0-.35.71,3.7,3.7,0,0,0-.12,1v4.06h-1.32V274.52h1.32v4.11a3,3,0,0,1,.46-.42,4.63,4.63,0,0,1,.51-.31,2.7,2.7,0,0,1,.57-.18,2.35,2.35,0,0,1,.6-.07,2.83,2.83,0,0,1,1.12.22,2.19,2.19,0,0,1,.86.65,2.79,2.79,0,0,1,.55,1,4.6,4.6,0,0,1,.18,1.35v4.24Z"/><path class="cls-46" d="M365,285.13v-7.34h1.31v7.34Zm-.21-9.8a.87.87,0,0,1,.06-.32,1.08,1.08,0,0,1,.19-.3,1,1,0,0,1,.3-.19.8.8,0,0,1,.34-.07.84.84,0,0,1,.35.07.87.87,0,0,1,.28.19.82.82,0,0,1,.19.28.81.81,0,0,1,.06.35.83.83,0,0,1-.06.35.73.73,0,0,1-.19.28.85.85,0,0,1-.29.19.93.93,0,0,1-.34.06,1,1,0,0,1-.34-.06.8.8,0,0,1-.29-.2.76.76,0,0,1-.2-.28.93.93,0,0,1-.06-.34Z"/><path class="cls-46" d="M368.54,285.13v-7.34h1.27v.84a3.77,3.77,0,0,1,.49-.42,2.92,2.92,0,0,1,.53-.31,3.13,3.13,0,0,1,.57-.18,2.32,2.32,0,0,1,.59-.07,2.88,2.88,0,0,1,1.13.22,2.26,2.26,0,0,1,.86.65,3.13,3.13,0,0,1,.55,1,4.6,4.6,0,0,1,.18,1.35v4.24h-1.29V281a4.69,4.69,0,0,0-.1-1,2,2,0,0,0-.31-.7,1.21,1.21,0,0,0-.51-.41,1.83,1.83,0,0,0-.73-.13,2.5,2.5,0,0,0-.86.14,1.65,1.65,0,0,0-.61.43,2,2,0,0,0-.37.71,3.7,3.7,0,0,0-.12,1v4.06Z"/><path class="cls-46" d="M380.11,284.11a2.54,2.54,0,0,0,1-.17,2.27,2.27,0,0,0,.82-.56,2.37,2.37,0,0,0,.54-.85,3.24,3.24,0,0,0,0-2.13,2.33,2.33,0,0,0-.54-.84,2.29,2.29,0,0,0-.82-.57,2.54,2.54,0,0,0-1-.19,2.44,2.44,0,0,0-1,.19,2.48,2.48,0,0,0-.82.57,2.33,2.33,0,0,0-.54.84,3.08,3.08,0,0,0,0,2.13,2.37,2.37,0,0,0,.54.85,2.45,2.45,0,0,0,.82.56,2.62,2.62,0,0,0,1,.18Zm3.78,1h-1.28v-1.19a3.12,3.12,0,0,1-.52.57,2.3,2.3,0,0,1-.62.41,2.46,2.46,0,0,1-.71.23,5.32,5.32,0,0,1-.81.06,6.06,6.06,0,0,1-.76,0,3.87,3.87,0,0,1-.72-.2,4.13,4.13,0,0,1-.65-.36,5.2,5.2,0,0,1-.58-.49,4,4,0,0,1-.44-.57,5.49,5.49,0,0,1-.33-.64,4.77,4.77,0,0,1-.19-.7,4.56,4.56,0,0,1-.06-.75,4.36,4.36,0,0,1,.25-1.54,3.42,3.42,0,0,1,.77-1.21,3.18,3.18,0,0,1,1.19-.79,4.25,4.25,0,0,1,1.52-.26,3.66,3.66,0,0,1,.81.09,3.6,3.6,0,0,1,.74.26,3.44,3.44,0,0,1,.65.42,3.38,3.38,0,0,1,.54.59v-1.22h1.2Z"/><path class="cls-46" d="M390.91,282.08a2.43,2.43,0,0,0,.16.85,2,2,0,0,0,.43.65,1.94,1.94,0,0,0,.69.39,2.83,2.83,0,0,0,.9.14,3.11,3.11,0,0,0,.84-.11,2.12,2.12,0,0,0,.65-.34,1.79,1.79,0,0,0,.42-.54,1.59,1.59,0,0,0,.14-.66,1.9,1.9,0,0,0-.11-.66,1.65,1.65,0,0,0-.33-.52,1.38,1.38,0,0,0-.28-.23l-.39-.22c-.15-.07-.32-.15-.51-.22l-.62-.23-.14-.05-.2-.06a11,11,0,0,1-1.18-.48,3.87,3.87,0,0,1-.81-.5,3.16,3.16,0,0,1-.4-.42,2.15,2.15,0,0,1-.28-.49,3,3,0,0,1-.17-.58,3.34,3.34,0,0,1-.06-.65,3,3,0,0,1,.22-1.19,2.38,2.38,0,0,1,.65-.92,2.7,2.7,0,0,1,1-.6,4.19,4.19,0,0,1,1.33-.19,4.34,4.34,0,0,1,1.4.21,3.07,3.07,0,0,1,1.08.63,3.17,3.17,0,0,1,.71,1,3.78,3.78,0,0,1,.29,1.36H395a3.14,3.14,0,0,0-.22-.89,2,2,0,0,0-.41-.64,1.59,1.59,0,0,0-.63-.39,2.44,2.44,0,0,0-.8-.13,2.37,2.37,0,0,0-.78.12,1.66,1.66,0,0,0-.6.36,1.32,1.32,0,0,0-.4.54,1.81,1.81,0,0,0-.14.72,1.58,1.58,0,0,0,.05.38,1.17,1.17,0,0,0,.11.33,1.08,1.08,0,0,0,.16.28,1.36,1.36,0,0,0,.24.24l.24.15.31.14c.11.06.24.11.38.17l.44.14.25.07.17.06a9.14,9.14,0,0,1,1.54.65,3.93,3.93,0,0,1,1,.71,2.17,2.17,0,0,1,.52.83,3.29,3.29,0,0,1,.17,1.07,2.71,2.71,0,0,1-.25,1.18,2.79,2.79,0,0,1-.73,1,3.34,3.34,0,0,1-1.12.63,4.93,4.93,0,0,1-2.78,0,3.08,3.08,0,0,1-1.09-.64,3,3,0,0,1-.74-1,4.19,4.19,0,0,1-.34-1.33Z"/><path class="cls-46" d="M399.32,280.84h4.89A2.52,2.52,0,0,0,404,280a2.31,2.31,0,0,0-.54-.67,2.08,2.08,0,0,0-.74-.44,2.5,2.5,0,0,0-.88-.15,2.57,2.57,0,0,0-.9.15,2.73,2.73,0,0,0-.77.45,2.28,2.28,0,0,0-.54.67,2.89,2.89,0,0,0-.27.83Zm0,1.05a2.45,2.45,0,0,0,.25.93,2.55,2.55,0,0,0,.55.73,2.71,2.71,0,0,0,.83.47,3.18,3.18,0,0,0,1,.16,3.13,3.13,0,0,0,.7-.08,2.8,2.8,0,0,0,.63-.23,3.25,3.25,0,0,0,.59-.37,5.2,5.2,0,0,0,.55-.51l.92.72a4.58,4.58,0,0,1-.73.73,3.56,3.56,0,0,1-1.69.78,5.42,5.42,0,0,1-1,.09,3.86,3.86,0,0,1-.84-.08,4.58,4.58,0,0,1-.77-.21,4.28,4.28,0,0,1-.7-.38,4.14,4.14,0,0,1-.6-.52,4.26,4.26,0,0,1-.41-.54,3.41,3.41,0,0,1-.3-.64,3.55,3.55,0,0,1-.19-.69,3.51,3.51,0,0,1-.07-.72,4.65,4.65,0,0,1,.26-1.59,3.43,3.43,0,0,1,.78-1.24,3.65,3.65,0,0,1,1.21-.82,4.09,4.09,0,0,1,1.53-.27,4.14,4.14,0,0,1,1.57.29,3.6,3.6,0,0,1,1.22.87,3.67,3.67,0,0,1,.79,1.33,5.38,5.38,0,0,1,.26,1.71v.08Z"/><path class="cls-46" d="M410.66,284.11a2.54,2.54,0,0,0,1-.17,2.15,2.15,0,0,0,.81-.56,2.27,2.27,0,0,0,.55-.85,3.24,3.24,0,0,0,0-2.13,2.23,2.23,0,0,0-.55-.84,2.17,2.17,0,0,0-.81-.57,2.81,2.81,0,0,0-2,0,2.35,2.35,0,0,0-.81.57,2.5,2.5,0,0,0-.55.84,3.24,3.24,0,0,0,0,2.13,2.54,2.54,0,0,0,.55.85,2.32,2.32,0,0,0,.81.56,2.71,2.71,0,0,0,1,.18Zm3.78,1h-1.29v-1.19a3.46,3.46,0,0,1-.51.57,2.47,2.47,0,0,1-.62.41,2.53,2.53,0,0,1-.72.23,5.13,5.13,0,0,1-.81.06,6,6,0,0,1-.75,0,3.67,3.67,0,0,1-.72-.2,3.72,3.72,0,0,1-.65-.36,5.2,5.2,0,0,1-.58-.49,4,4,0,0,1-.44-.57,3.51,3.51,0,0,1-.33-.64,3.78,3.78,0,0,1-.19-.7,4.56,4.56,0,0,1-.06-.75,4.36,4.36,0,0,1,.25-1.54,3.42,3.42,0,0,1,.77-1.21,3.23,3.23,0,0,1,1.18-.79,4.33,4.33,0,0,1,1.52-.26,3.59,3.59,0,0,1,.81.09,3.69,3.69,0,0,1,.75.26,3.44,3.44,0,0,1,.65.42,3.38,3.38,0,0,1,.54.59v-1.22h1.2Z"/><path class="cls-46" d="M416.57,284.43a.8.8,0,0,1,.07-.34.82.82,0,0,1,.19-.28,1.17,1.17,0,0,1,.3-.19.93.93,0,0,1,.34-.06,1,1,0,0,1,.35.06,1.07,1.07,0,0,1,.28.19,1,1,0,0,1,.19.28.82.82,0,0,1,.08.35.77.77,0,0,1-.08.34,1,1,0,0,1-.19.29,1.46,1.46,0,0,1-.3.17.72.72,0,0,1-.33.07.77.77,0,0,1-.34-.07,1.19,1.19,0,0,1-.29-.18.86.86,0,0,1-.2-.28.77.77,0,0,1-.07-.34Z"/><path class="cls-46" d="M129.27,256.19h4l-1.68-4.3-.05-.12-.07-.23-.09-.29a3.3,3.3,0,0,0-.11-.34c0,.12-.07.24-.1.34a2.45,2.45,0,0,1-.08.29,1.28,1.28,0,0,0-.08.23l-.06.14Zm-2.92,3.74,4.36-10.71h1.17l4.52,10.71h-1.64l-.94-2.47h-5l-1,2.47Z"/><rect x="141.42" y="249.32" width="1.27" height="10.61"/><path class="cls-46" d="M148.13,259a2.17,2.17,0,0,0,1-.18,2.14,2.14,0,0,0,.76-.56,2.7,2.7,0,0,0,.5-.87,3.41,3.41,0,0,0,.17-1.09,3.31,3.31,0,0,0-.17-1.08,2.48,2.48,0,0,0-1.26-1.45,2.55,2.55,0,0,0-1.93,0,2.52,2.52,0,0,0-.77.58,2.7,2.7,0,0,0-.5.87,3.35,3.35,0,0,0-.17,1.08,3.31,3.31,0,0,0,.17,1.08,2.56,2.56,0,0,0,.5.86,2.27,2.27,0,0,0,.79.58,2.24,2.24,0,0,0,.95.19Zm0-6.58a4.78,4.78,0,0,1,.77.08,4.44,4.44,0,0,1,.71.21,3.13,3.13,0,0,1,.65.35,3.7,3.7,0,0,1,.57.49,3.48,3.48,0,0,1,.46.57,4.09,4.09,0,0,1,.34.66,4.68,4.68,0,0,1,.21.73,4.44,4.44,0,0,1,0,1.57,4.79,4.79,0,0,1-.21.74,4.44,4.44,0,0,1-.34.65,3.21,3.21,0,0,1-.48.58,2.85,2.85,0,0,1-.57.47,3.28,3.28,0,0,1-.64.34,4.52,4.52,0,0,1-.72.2,3.67,3.67,0,0,1-.75.07,3.77,3.77,0,0,1-.76-.07,3.9,3.9,0,0,1-.71-.2,3.17,3.17,0,0,1-.66-.34,2.85,2.85,0,0,1-.57-.47,3.62,3.62,0,0,1-.47-.58,3.68,3.68,0,0,1-.35-.65,3.41,3.41,0,0,1-.2-.73,5.06,5.06,0,0,1-.06-.79,5,5,0,0,1,.06-.79,3.76,3.76,0,0,1,.2-.73,3.45,3.45,0,0,1,.35-.66,3.56,3.56,0,0,1,.47-.57,2.6,2.6,0,0,1,.57-.48,3.17,3.17,0,0,1,.66-.34,2.81,2.81,0,0,1,.71-.23,3.77,3.77,0,0,1,.76-.07Z"/><path class="cls-46" d="M153.58,259.93v-7.34h1.27v.84a3.84,3.84,0,0,1,.5-.42,2.17,2.17,0,0,1,.53-.3,2.31,2.31,0,0,1,.56-.19,2.35,2.35,0,0,1,.6-.07,2.83,2.83,0,0,1,1.12.22,2.29,2.29,0,0,1,.87.65,2.93,2.93,0,0,1,.54,1,4.64,4.64,0,0,1,.18,1.35v4.24h-1.29v-4.12a4.1,4.1,0,0,0-.1-1,2,2,0,0,0-.3-.7,1.21,1.21,0,0,0-.51-.41,1.88,1.88,0,0,0-.74-.13,2.44,2.44,0,0,0-.85.14,1.69,1.69,0,0,0-.62.43,2,2,0,0,0-.36.71,3.68,3.68,0,0,0-.13,1v4.06Z"/><path class="cls-46" d="M165.31,258.91a2.57,2.57,0,0,0,1-.17,2.19,2.19,0,0,0,.8-.56,2.24,2.24,0,0,0,.54-.85,3.24,3.24,0,0,0,0-2.13,2.62,2.62,0,0,0-1.34-1.41,2.58,2.58,0,0,0-1-.19,2.53,2.53,0,0,0-1,.19A2.5,2.5,0,0,0,163,255.2a3.08,3.08,0,0,0,0,2.13,2.35,2.35,0,0,0,.53.85,2.27,2.27,0,0,0,.82.56,2.71,2.71,0,0,0,1,.18Zm2.42-.17a3.29,3.29,0,0,1-.48.57,3,3,0,0,1-.59.41,2.63,2.63,0,0,1-.72.23,5.27,5.27,0,0,1-.82.06,4.65,4.65,0,0,1-.75-.06,3.58,3.58,0,0,1-.71-.2,5.32,5.32,0,0,1-.66-.37,5.08,5.08,0,0,1-.57-.47,3.48,3.48,0,0,1-.46-.57,5.49,5.49,0,0,1-.33-.64,3.78,3.78,0,0,1-.19-.7,3.67,3.67,0,0,1-.07-.75,4.15,4.15,0,0,1,.26-1.54,3.45,3.45,0,0,1,2-2,4.29,4.29,0,0,1,1.52-.26,3.68,3.68,0,0,1,.82.09,3.6,3.6,0,0,1,.74.26,2.78,2.78,0,0,1,.65.42,3.49,3.49,0,0,1,.56.59v-1.22h1.19v6.29a6,6,0,0,1-.25,1.8,3.18,3.18,0,0,1-.76,1.29,3.13,3.13,0,0,1-1.25.8,5,5,0,0,1-1.72.27,5.47,5.47,0,0,1-1.1-.11,4.23,4.23,0,0,1-1-.31,3.79,3.79,0,0,1-.83-.51,4.47,4.47,0,0,1-.71-.73l1-.76a3.46,3.46,0,0,0,.53.55,3.73,3.73,0,0,0,.63.4,3.19,3.19,0,0,0,.7.23,3.08,3.08,0,0,0,.75.09,3.23,3.23,0,0,0,1.13-.18,2.06,2.06,0,0,0,.82-.52,2.35,2.35,0,0,0,.48-.85,3.83,3.83,0,0,0,.16-1.18Z"/><polygon class="cls-46" points="171.67 258.14 172.93 258.74 171.18 262.27 170.33 261.86 171.67 258.14"/><rect x="178.88" y="249.32" width="1.27" height="10.61"/><path class="cls-46" d="M185.59,259a2.17,2.17,0,0,0,1-.18,2.14,2.14,0,0,0,.76-.56,2.7,2.7,0,0,0,.5-.87,3.16,3.16,0,0,0,.17-1.09,3.06,3.06,0,0,0-.17-1.08,2.48,2.48,0,0,0-1.26-1.45,2.55,2.55,0,0,0-1.93,0,2.52,2.52,0,0,0-.77.58,2.7,2.7,0,0,0-.5.87,3.35,3.35,0,0,0-.17,1.08,3.31,3.31,0,0,0,.17,1.08,2.56,2.56,0,0,0,.5.86,2.25,2.25,0,0,0,1.74.77Zm0-6.58a4.66,4.66,0,0,1,.77.08,4.44,4.44,0,0,1,.71.21,3.13,3.13,0,0,1,.65.35,3.7,3.7,0,0,1,.57.49,3.48,3.48,0,0,1,.46.57,4.09,4.09,0,0,1,.34.66,4.68,4.68,0,0,1,.21.73,4.44,4.44,0,0,1,0,1.57,4.79,4.79,0,0,1-.21.74,4.44,4.44,0,0,1-.34.65,3.62,3.62,0,0,1-.47.58,3.23,3.23,0,0,1-.58.47,3.28,3.28,0,0,1-.64.34,4.52,4.52,0,0,1-.72.2,3.67,3.67,0,0,1-.75.07,3.94,3.94,0,0,1-.77-.07,4,4,0,0,1-.7-.2,3.17,3.17,0,0,1-.66-.34,2.85,2.85,0,0,1-.57-.47,3.62,3.62,0,0,1-.47-.58,3.68,3.68,0,0,1-.35-.65,3.41,3.41,0,0,1-.2-.73,5.06,5.06,0,0,1-.06-.79,5,5,0,0,1,.06-.79,3.76,3.76,0,0,1,.2-.73,3.45,3.45,0,0,1,.35-.66,3.56,3.56,0,0,1,.47-.57,2.6,2.6,0,0,1,.57-.48,3.17,3.17,0,0,1,.66-.34,2.87,2.87,0,0,1,.7-.23,3.94,3.94,0,0,1,.77-.07Z"/><path class="cls-46" d="M191,259.93v-7.34h1.27v.84a3.84,3.84,0,0,1,.5-.42,2.17,2.17,0,0,1,.53-.3,2.31,2.31,0,0,1,.56-.19,2.35,2.35,0,0,1,.6-.07,2.92,2.92,0,0,1,1.13.22,2.34,2.34,0,0,1,.86.65,2.93,2.93,0,0,1,.54,1,4.64,4.64,0,0,1,.18,1.35v4.24h-1.28v-4.12a4.07,4.07,0,0,0-.11-1,2,2,0,0,0-.3-.7,1.21,1.21,0,0,0-.51-.41,1.88,1.88,0,0,0-.74-.13,2.44,2.44,0,0,0-.85.14,1.69,1.69,0,0,0-.62.43,1.83,1.83,0,0,0-.36.71,3.68,3.68,0,0,0-.13,1v4.06Z"/><path class="cls-46" d="M202.77,258.91a2.57,2.57,0,0,0,1-.17,2.19,2.19,0,0,0,.8-.56,2.37,2.37,0,0,0,.54-.85,3.24,3.24,0,0,0,0-2.13,2.33,2.33,0,0,0-.54-.84,2.22,2.22,0,0,0-.8-.57,2.58,2.58,0,0,0-1-.19,2.53,2.53,0,0,0-1,.19,2.29,2.29,0,0,0-.82.57,2.45,2.45,0,0,0-.53.84,3.08,3.08,0,0,0,0,2.13,2.49,2.49,0,0,0,.53.85,2.27,2.27,0,0,0,.82.56,2.71,2.71,0,0,0,1,.18Zm2.42-.17a3.29,3.29,0,0,1-.48.57,3,3,0,0,1-.59.41,2.63,2.63,0,0,1-.72.23,5.17,5.17,0,0,1-.82.06,4.65,4.65,0,0,1-.75-.06,3.58,3.58,0,0,1-.71-.2,5.32,5.32,0,0,1-.66-.37,5.08,5.08,0,0,1-.57-.47,3.48,3.48,0,0,1-.46-.57,5.49,5.49,0,0,1-.33-.64,4.77,4.77,0,0,1-.19-.7,3.67,3.67,0,0,1-.07-.75,4.15,4.15,0,0,1,.26-1.54,3.53,3.53,0,0,1,2-2,4.29,4.29,0,0,1,1.52-.26,3.53,3.53,0,0,1,1.56.35,2.78,2.78,0,0,1,.65.42,3.49,3.49,0,0,1,.56.59v-1.22h1.19v6.29a5.71,5.71,0,0,1-.25,1.8,3.22,3.22,0,0,1-2,2.09,5.11,5.11,0,0,1-1.73.27,5.47,5.47,0,0,1-1.1-.11,4.23,4.23,0,0,1-1-.31,4,4,0,0,1-.83-.51,4.1,4.1,0,0,1-.71-.73l1-.76a3.13,3.13,0,0,0,.54.55,3.29,3.29,0,0,0,.62.4,3.38,3.38,0,0,0,.7.23,3.08,3.08,0,0,0,.75.09,3.23,3.23,0,0,0,1.13-.18,2.06,2.06,0,0,0,.82-.52,2.09,2.09,0,0,0,.48-.85,3.83,3.83,0,0,0,.16-1.18Z"/><path class="cls-46" d="M212.56,258.42v-4.74h-.95v-1.09h.95V250.8h1.32v1.79h1.24v1.09h-1.24v4.57a1.26,1.26,0,0,0,0,.3.53.53,0,0,0,.09.2.42.42,0,0,0,.18.11,1,1,0,0,0,.26,0h.68v1.23h-.74a3.37,3.37,0,0,1-.84-.09,1.39,1.39,0,0,1-.56-.27,1.22,1.22,0,0,1-.32-.53,3,3,0,0,1-.1-.79Z"/><path class="cls-46" d="M216.82,259.93v-7.34h1.31v7.34Zm-.21-9.8a.87.87,0,0,1,.06-.32.81.81,0,0,1,.49-.49.81.81,0,0,1,.35-.07.8.8,0,0,1,.34.07.77.77,0,0,1,.28.19.88.88,0,0,1,.26.63.84.84,0,0,1-.07.35.73.73,0,0,1-.19.28.85.85,0,0,1-.29.19.88.88,0,0,1-.33.07,1,1,0,0,1-.35-.07.69.69,0,0,1-.28-.2.76.76,0,0,1-.21-.28.93.93,0,0,1-.06-.34Z"/><path class="cls-46" d="M221.63,253.43a4.44,4.44,0,0,1,.47-.42,2.94,2.94,0,0,1,.49-.32,3.74,3.74,0,0,1,.54-.17,2.12,2.12,0,0,1,.57-.07,3,3,0,0,1,.62.07,2.07,2.07,0,0,1,.56.23,2,2,0,0,1,.48.37,3.82,3.82,0,0,1,.45.52,4.33,4.33,0,0,1,.53-.52,2.11,2.11,0,0,1,.58-.37,2.45,2.45,0,0,1,.64-.23,4.05,4.05,0,0,1,.7-.07,2.9,2.9,0,0,1,1.12.22,2.12,2.12,0,0,1,.84.65,2.89,2.89,0,0,1,.54,1,4.62,4.62,0,0,1,.18,1.34v4.24h-1.28v-4.12a4.1,4.1,0,0,0-.1-1,1.7,1.7,0,0,0-.29-.68,1.08,1.08,0,0,0-.48-.42,1.48,1.48,0,0,0-.7-.14,1.92,1.92,0,0,0-.79.14,1.42,1.42,0,0,0-.58.42,1.73,1.73,0,0,0-.33.71,3.83,3.83,0,0,0-.12,1v4.06H225v-4.12a4.1,4.1,0,0,0-.1-1,1.7,1.7,0,0,0-.29-.68,1.08,1.08,0,0,0-.48-.42,1.54,1.54,0,0,0-.7-.14,2,2,0,0,0-.8.14,1.46,1.46,0,0,0-.57.42,1.88,1.88,0,0,0-.34.71,4.34,4.34,0,0,0-.11,1v4.06h-1.27v-7.34h1.26Z"/><path class="cls-46" d="M233.8,255.64h4.89a2.52,2.52,0,0,0-.25-.82,2.16,2.16,0,0,0-.54-.67,2.08,2.08,0,0,0-.74-.44,2.5,2.5,0,0,0-.88-.15,2.57,2.57,0,0,0-.9.15,2.55,2.55,0,0,0-.76.45,2.17,2.17,0,0,0-.55.67,2.89,2.89,0,0,0-.27.83Zm0,1.06a2.45,2.45,0,0,0,.25.92,2.55,2.55,0,0,0,.55.73,2.71,2.71,0,0,0,.83.47,3.18,3.18,0,0,0,1,.16,3.13,3.13,0,0,0,.7-.08,2.8,2.8,0,0,0,.63-.23,3.25,3.25,0,0,0,.59-.37,5.2,5.2,0,0,0,.55-.51l.92.72a5,5,0,0,1-.73.73,3.56,3.56,0,0,1-1.69.78,5.42,5.42,0,0,1-1,.09,3.86,3.86,0,0,1-.84-.08,4.85,4.85,0,0,1-.77-.21,4.28,4.28,0,0,1-.7-.38,4.14,4.14,0,0,1-.6-.52,5.47,5.47,0,0,1-.41-.54,3.64,3.64,0,0,1-.3-.63,3.74,3.74,0,0,1-.19-.71,4.17,4.17,0,0,1-.07-.71,4.65,4.65,0,0,1,.26-1.59,3.72,3.72,0,0,1,.78-1.24,3.65,3.65,0,0,1,1.21-.82,4.09,4.09,0,0,1,1.53-.27,4,4,0,0,1,1.57.3,3.44,3.44,0,0,1,1.22.86,3.67,3.67,0,0,1,.79,1.33,5.38,5.38,0,0,1,.26,1.71v.09Z"/><path class="cls-46" d="M249,258.91a2.61,2.61,0,0,0,1-.17,2.15,2.15,0,0,0,.81-.56,2.4,2.4,0,0,0,.55-.85,3.24,3.24,0,0,0,0-2.13,2.36,2.36,0,0,0-.55-.84,2.17,2.17,0,0,0-.81-.57,2.61,2.61,0,0,0-1-.19,2.49,2.49,0,0,0-1,.19,2.35,2.35,0,0,0-.81.57,2.23,2.23,0,0,0-.55.84,3.24,3.24,0,0,0,0,2.13,2.27,2.27,0,0,0,.55.85,2.32,2.32,0,0,0,.81.56,2.67,2.67,0,0,0,1,.18Zm3.78,1h-1.29v-1.19a3.46,3.46,0,0,1-.51.57,2.47,2.47,0,0,1-.62.41,2.63,2.63,0,0,1-.72.23,5.13,5.13,0,0,1-.81.06,6.33,6.33,0,0,1-.76-.05,3.58,3.58,0,0,1-.71-.2,3.39,3.39,0,0,1-.65-.36,4.43,4.43,0,0,1-.58-.49,3.35,3.35,0,0,1-.44-.57,3.51,3.51,0,0,1-.33-.64,3.13,3.13,0,0,1-.19-.7,4.56,4.56,0,0,1-.06-.75,4.36,4.36,0,0,1,.25-1.54,3.47,3.47,0,0,1,2-2,4.29,4.29,0,0,1,1.52-.26,3.53,3.53,0,0,1,1.55.35,2.78,2.78,0,0,1,.65.42,3.38,3.38,0,0,1,.54.59v-1.22h1.21Z"/><path class="cls-46" d="M258.46,258.91a2.52,2.52,0,0,0,1-.17,2.23,2.23,0,0,0,.81-.56,2.37,2.37,0,0,0,.54-.85,3.42,3.42,0,0,0,0-2.13,2.33,2.33,0,0,0-.54-.84,2.26,2.26,0,0,0-.81-.57,2.53,2.53,0,0,0-1-.19,2.58,2.58,0,0,0-1,.19,2.48,2.48,0,0,0-.82.57,2.45,2.45,0,0,0-.53.84,3.24,3.24,0,0,0,0,2.13,2.49,2.49,0,0,0,.53.85,2.45,2.45,0,0,0,.82.56,2.76,2.76,0,0,0,1,.18Zm2.42-.17a3.29,3.29,0,0,1-.48.57,3,3,0,0,1-.6.41,2.46,2.46,0,0,1-.71.23,5.31,5.31,0,0,1-.83.06,4.52,4.52,0,0,1-.74-.06,3.87,3.87,0,0,1-.72-.2,4.56,4.56,0,0,1-.65-.37,4.41,4.41,0,0,1-.58-.47,3.41,3.41,0,0,1-.45-.57,3.51,3.51,0,0,1-.33-.64,4.77,4.77,0,0,1-.2-.7,4.54,4.54,0,0,1-.07-.75,4.36,4.36,0,0,1,.26-1.54,3.45,3.45,0,0,1,.78-1.21,3.27,3.27,0,0,1,1.19-.79,4.23,4.23,0,0,1,1.51-.26,3.7,3.7,0,0,1,.83.09,3.6,3.6,0,0,1,.74.26,3,3,0,0,1,.65.42,3.43,3.43,0,0,1,.55.59v-1.22h1.19v6.29a5.71,5.71,0,0,1-.25,1.8,3.18,3.18,0,0,1-.76,1.29,3.09,3.09,0,0,1-1.24.8,5,5,0,0,1-1.72.27,5.65,5.65,0,0,1-1.11-.11,4,4,0,0,1-1-.31,3.79,3.79,0,0,1-.83-.51,4.53,4.53,0,0,1-.72-.73l1-.76a4,4,0,0,0,.54.55,3.65,3.65,0,0,0,.62.4,3.58,3.58,0,0,0,.7.23,3.22,3.22,0,0,0,.76.09,3.27,3.27,0,0,0,1.13-.18,2,2,0,0,0,.81-.52,2.24,2.24,0,0,0,.49-.85,3.83,3.83,0,0,0,.16-1.18Z"/><path class="cls-46" d="M267.49,259a2.11,2.11,0,0,0,1-.18,2.06,2.06,0,0,0,.76-.56,2.56,2.56,0,0,0,.51-.87,3.41,3.41,0,0,0,.17-1.09,3.31,3.31,0,0,0-.17-1.08,2.54,2.54,0,0,0-1.27-1.45,2.25,2.25,0,0,0-1-.19,2.29,2.29,0,0,0-1,.19,2.41,2.41,0,0,0-.77.58,2.56,2.56,0,0,0-.51.87,3.35,3.35,0,0,0-.17,1.08,3.31,3.31,0,0,0,.17,1.08,2.42,2.42,0,0,0,.51.86,2.15,2.15,0,0,0,.78.58,2.3,2.3,0,0,0,.95.19Zm0-6.58a4.66,4.66,0,0,1,.77.08,4.89,4.89,0,0,1,.72.21,3.13,3.13,0,0,1,.65.35,3.23,3.23,0,0,1,.56.49,3.56,3.56,0,0,1,.47.57,3.39,3.39,0,0,1,.33.66,3.79,3.79,0,0,1,.21.73,4.44,4.44,0,0,1,0,1.57,3.89,3.89,0,0,1-.21.74,3.61,3.61,0,0,1-.33.65,3.21,3.21,0,0,1-.48.58,3.56,3.56,0,0,1-.57.47,3.36,3.36,0,0,1-.65.34,4.41,4.41,0,0,1-.71.2,3.77,3.77,0,0,1-.76.07,3.84,3.84,0,0,1-.76-.07,4.14,4.14,0,0,1-.71-.2,3.44,3.44,0,0,1-.66-.34,3.56,3.56,0,0,1-.57-.47,4.26,4.26,0,0,1-.47-.58,3.64,3.64,0,0,1-.34-.65,2.91,2.91,0,0,1-.2-.73,4.07,4.07,0,0,1-.07-.79,4,4,0,0,1,.07-.79,3.17,3.17,0,0,1,.2-.73,3.42,3.42,0,0,1,.34-.66,4.18,4.18,0,0,1,.47-.57,3.16,3.16,0,0,1,.57-.48,3.44,3.44,0,0,1,.66-.34,3,3,0,0,1,.71-.23,3.84,3.84,0,0,1,.76-.07Z"/><path class="cls-46" d="M280,259a2.1,2.1,0,0,0,1-.18,2.18,2.18,0,0,0,.77-.56,2.7,2.7,0,0,0,.5-.87,3.41,3.41,0,0,0,.17-1.09,3.31,3.31,0,0,0-.17-1.08,2.45,2.45,0,0,0-1.27-1.45,2.24,2.24,0,0,0-1-.19,2.33,2.33,0,0,0-1,.19,2.41,2.41,0,0,0-.77.58,2.53,2.53,0,0,0-.5.87,3.1,3.1,0,0,0-.17,1.08,3.06,3.06,0,0,0,.17,1.08,2.4,2.4,0,0,0,.5.86,2.15,2.15,0,0,0,.78.58,2.32,2.32,0,0,0,1,.19Zm0-6.58a4.66,4.66,0,0,1,.76.08,4.27,4.27,0,0,1,.72.21,3.13,3.13,0,0,1,.65.35,3.7,3.7,0,0,1,.57.49,3.63,3.63,0,0,1,.8,1.23,3.76,3.76,0,0,1,.2.73,4.44,4.44,0,0,1,0,1.57,3.86,3.86,0,0,1-.2.74,4.44,4.44,0,0,1-.34.65,3.21,3.21,0,0,1-.48.58,3.17,3.17,0,0,1-.57.47,3.36,3.36,0,0,1-.65.34,4.41,4.41,0,0,1-.71.2,3.67,3.67,0,0,1-.75.07,3.87,3.87,0,0,1-.77-.07,4.41,4.41,0,0,1-.71-.2,3.09,3.09,0,0,1-.65-.34,3.23,3.23,0,0,1-.58-.47,5.18,5.18,0,0,1-.47-.58,3.64,3.64,0,0,1-.34-.65,3.41,3.41,0,0,1-.2-.73,5,5,0,0,1-.07-.79,4.94,4.94,0,0,1,.07-.79,3.76,3.76,0,0,1,.2-.73,3.42,3.42,0,0,1,.34-.66,5.08,5.08,0,0,1,.47-.57,2.9,2.9,0,0,1,.58-.48,4.39,4.39,0,0,1,1.36-.57,3.87,3.87,0,0,1,.77-.07Z"/><path class="cls-46" d="M285.48,259.93v-7.34h1.27v.84a3.84,3.84,0,0,1,.5-.42,2.32,2.32,0,0,1,.52-.3,2.54,2.54,0,0,1,.57-.19,2.35,2.35,0,0,1,.6-.07,2.83,2.83,0,0,1,1.12.22,2.26,2.26,0,0,1,.86.65,2.79,2.79,0,0,1,.55,1,4.64,4.64,0,0,1,.18,1.35v4.24h-1.29v-4.12a4.1,4.1,0,0,0-.1-1,2,2,0,0,0-.3-.7,1.21,1.21,0,0,0-.51-.41,1.88,1.88,0,0,0-.74-.13,2.4,2.4,0,0,0-.85.14,1.69,1.69,0,0,0-.62.43,1.83,1.83,0,0,0-.36.71,3.32,3.32,0,0,0-.13,1v4.06Z"/><path class="cls-46" d="M300.93,258.91a2.61,2.61,0,0,0,1-.17,2.15,2.15,0,0,0,.81-.56,2.27,2.27,0,0,0,.55-.85,3.24,3.24,0,0,0,0-2.13,2.23,2.23,0,0,0-.55-.84,2.17,2.17,0,0,0-.81-.57,2.61,2.61,0,0,0-1-.19,2.53,2.53,0,0,0-1,.19,2.35,2.35,0,0,0-.81.57,2.5,2.5,0,0,0-.55.84,3.24,3.24,0,0,0,0,2.13,2.54,2.54,0,0,0,.55.85,2.32,2.32,0,0,0,.81.56,2.71,2.71,0,0,0,1,.18Zm3.78,1h-1.29v-1.19a3.46,3.46,0,0,1-.51.57,2.47,2.47,0,0,1-.62.41,2.53,2.53,0,0,1-.72.23,5.13,5.13,0,0,1-.81.06A6,6,0,0,1,300,260a3.67,3.67,0,0,1-.72-.2,3.72,3.72,0,0,1-.65-.36,5.2,5.2,0,0,1-.58-.49,4,4,0,0,1-.44-.57,3.51,3.51,0,0,1-.33-.64,3.78,3.78,0,0,1-.19-.7,4.56,4.56,0,0,1-.06-.75,4.36,4.36,0,0,1,.25-1.54,3.29,3.29,0,0,1,.77-1.21,3.23,3.23,0,0,1,1.18-.79,4.33,4.33,0,0,1,1.52-.26,3.59,3.59,0,0,1,.81.09,3.69,3.69,0,0,1,.75.26,3,3,0,0,1,.65.42,3.38,3.38,0,0,1,.54.59v-1.22h1.2Z"/><path class="cls-46" d="M311.54,257.8a1.93,1.93,0,0,0,.13.55,1,1,0,0,0,.27.39,1.19,1.19,0,0,0,.42.22,1.62,1.62,0,0,0,.57.09,1.76,1.76,0,0,0,.58-.09,1.11,1.11,0,0,0,.44-.24.91.91,0,0,0,.29-.36,1.21,1.21,0,0,0,.09-.48.78.78,0,0,0-.36-.62,3.63,3.63,0,0,0-1.09-.48l-.2,0-.14,0a5.84,5.84,0,0,1-1-.39,3.37,3.37,0,0,1-.68-.47,2.2,2.2,0,0,1-.38-.59,1.89,1.89,0,0,1-.14-.72,1.78,1.78,0,0,1,.19-.83,2.28,2.28,0,0,1,.53-.69,2.72,2.72,0,0,1,.8-.44,2.86,2.86,0,0,1,1-.16,3.13,3.13,0,0,1,1.05.16,2.39,2.39,0,0,1,.8.44,2.08,2.08,0,0,1,.5.72,2.45,2.45,0,0,1,.17.93v0h-1.23a1.58,1.58,0,0,0-.1-.49,1.08,1.08,0,0,0-.24-.37,1,1,0,0,0-.38-.24,1.74,1.74,0,0,0-.53-.07,2.06,2.06,0,0,0-.52.06,1,1,0,0,0-.42.22,1,1,0,0,0-.27.31.87.87,0,0,0-.09.4,1.06,1.06,0,0,0,.06.37.83.83,0,0,0,.19.26,1.75,1.75,0,0,0,.44.23,7.24,7.24,0,0,0,.75.25l.07,0,.1,0c.42.12.77.24,1.05.35a2.27,2.27,0,0,1,.6.32,2.2,2.2,0,0,1,.3.31,1.65,1.65,0,0,1,.22.36,1.48,1.48,0,0,1,.14.42,2.15,2.15,0,0,1,0,.45,2.37,2.37,0,0,1-.17.9A2.11,2.11,0,0,1,314,260a3.64,3.64,0,0,1-1.07.15,4.13,4.13,0,0,1-1.12-.14,2,2,0,0,1-.83-.45,1.83,1.83,0,0,1-.53-.72,3.15,3.15,0,0,1-.2-1Z"/><path class="cls-46" d="M317.4,258.42v-4.74h-.95v-1.09h.95V250.8h1.32v1.79H320v1.09h-1.24v4.57a1.26,1.26,0,0,0,0,.3.75.75,0,0,0,.09.2.4.4,0,0,0,.19.11.9.9,0,0,0,.25,0H320v1.23h-.74a3.37,3.37,0,0,1-.84-.09,1.39,1.39,0,0,1-.56-.27,1.2,1.2,0,0,1-.31-.53,2.6,2.6,0,0,1-.11-.79Z"/><path class="cls-46" d="M325,258.91a2.61,2.61,0,0,0,1-.17,2.15,2.15,0,0,0,.81-.56,2.27,2.27,0,0,0,.55-.85,3.24,3.24,0,0,0,0-2.13,2.23,2.23,0,0,0-.55-.84,2.17,2.17,0,0,0-.81-.57,2.61,2.61,0,0,0-1-.19,2.53,2.53,0,0,0-1,.19,2.35,2.35,0,0,0-.81.57,2.5,2.5,0,0,0-.55.84,3.24,3.24,0,0,0,0,2.13,2.54,2.54,0,0,0,.55.85,2.32,2.32,0,0,0,.81.56,2.71,2.71,0,0,0,1,.18Zm3.78,1h-1.29v-1.19a3.46,3.46,0,0,1-.51.57,2.47,2.47,0,0,1-.62.41,2.53,2.53,0,0,1-.72.23,5.13,5.13,0,0,1-.81.06,6,6,0,0,1-.75-.05,3.67,3.67,0,0,1-.72-.2,3.72,3.72,0,0,1-.65-.36,5.2,5.2,0,0,1-.58-.49,3.35,3.35,0,0,1-.44-.57,3.51,3.51,0,0,1-.33-.64,3.13,3.13,0,0,1-.19-.7,4.56,4.56,0,0,1-.06-.75,4.36,4.36,0,0,1,.25-1.54,3.29,3.29,0,0,1,.77-1.21,3.23,3.23,0,0,1,1.18-.79,4.33,4.33,0,0,1,1.52-.26,3.59,3.59,0,0,1,.81.09,3.69,3.69,0,0,1,.75.26,3,3,0,0,1,.65.42,3.38,3.38,0,0,1,.54.59v-1.22h1.2Z"/><path class="cls-46" d="M331,259.93v-7.34h1.22v1a2.89,2.89,0,0,1,.38-.47,2.28,2.28,0,0,1,.43-.35,1.58,1.58,0,0,1,.52-.21,2.35,2.35,0,0,1,.6-.07h.35l.05,0h0v1.31l-.19,0-.15,0H334a1.88,1.88,0,0,0-.74.13,1.18,1.18,0,0,0-.52.39,1.85,1.85,0,0,0-.32.66,3.6,3.6,0,0,0-.1.92v4.09Z"/><path class="cls-46" d="M336,259.93v-7.34h1.22v1a2.89,2.89,0,0,1,.38-.47,2.28,2.28,0,0,1,.43-.35,1.58,1.58,0,0,1,.52-.21,2.3,2.3,0,0,1,.6-.07h.35l.05,0h0v1.31l-.18,0-.15,0h-.3a1.83,1.83,0,0,0-.73.13,1.21,1.21,0,0,0-.53.39,1.84,1.84,0,0,0-.31.66,3.57,3.57,0,0,0-.11.92v4.09Z"/><path class="cls-46" d="M343.35,259.93l-3.08-7.34h1.46l1.9,4.65a1.31,1.31,0,0,1,.07.19c0,.08.06.18.1.32s.08.26.13.43.1.36.15.57q.1-.28.18-.54a3.26,3.26,0,0,0,.14-.45l.12-.32c0-.09.06-.15.07-.19l1.93-4.66H348L343.38,263h-1.33Z"/><path class="cls-46" d="M353,259.93v-7.34h1.27v.84a3.28,3.28,0,0,1,.5-.42,2.12,2.12,0,0,1,.52-.3,2.54,2.54,0,0,1,.57-.19,2.32,2.32,0,0,1,.59-.07,2.88,2.88,0,0,1,1.13.22,2.26,2.26,0,0,1,.86.65,3,3,0,0,1,.55,1,4.64,4.64,0,0,1,.18,1.35v4.24h-1.29v-4.12a4.1,4.1,0,0,0-.1-1,2,2,0,0,0-.3-.7,1.34,1.34,0,0,0-.51-.41,1.92,1.92,0,0,0-.74-.13,2.4,2.4,0,0,0-.85.14,1.61,1.61,0,0,0-.62.43,1.83,1.83,0,0,0-.36.71,3.32,3.32,0,0,0-.13,1v4.06Z"/><path class="cls-46" d="M361.17,259.93v-7.34h1.32v7.34Zm-.21-9.8a.71.71,0,0,1,.07-.32.89.89,0,0,1,.19-.3,1,1,0,0,1,.3-.19.8.8,0,0,1,.34-.07.77.77,0,0,1,.34.07.81.81,0,0,1,.29.19.82.82,0,0,1,.25.63,1,1,0,0,1-.06.35.87.87,0,0,1-.19.28.85.85,0,0,1-.29.19.86.86,0,0,1-.68,0,.72.72,0,0,1-.29-.2.86.86,0,0,1-.2-.28.77.77,0,0,1-.07-.34Z"/><path class="cls-46" d="M368.18,258.91a2.61,2.61,0,0,0,1-.17,2.19,2.19,0,0,0,.8-.56,2.37,2.37,0,0,0,.54-.85,3.42,3.42,0,0,0,0-2.13,2.33,2.33,0,0,0-.54-.84,2.22,2.22,0,0,0-.8-.57,2.83,2.83,0,0,0-2,0,2.35,2.35,0,0,0-.81.57,2.47,2.47,0,0,0-.54.84,3.24,3.24,0,0,0,0,2.13,2.52,2.52,0,0,0,.54.85,2.32,2.32,0,0,0,.81.56,2.8,2.8,0,0,0,1,.18Zm2.42-.17a3.29,3.29,0,0,1-.48.57,2.77,2.77,0,0,1-.6.41,2.46,2.46,0,0,1-.71.23,5.31,5.31,0,0,1-.83.06,4.52,4.52,0,0,1-.74-.06,3.58,3.58,0,0,1-.71-.2,4.18,4.18,0,0,1-.66-.37,4.41,4.41,0,0,1-.58-.47,4,4,0,0,1-.45-.57,4.28,4.28,0,0,1-.33-.64,3.78,3.78,0,0,1-.19-.7,3.67,3.67,0,0,1-.07-.75,4.36,4.36,0,0,1,.25-1.54,3.6,3.6,0,0,1,.78-1.21,3.35,3.35,0,0,1,1.19-.79,4.23,4.23,0,0,1,1.51-.26,3.7,3.7,0,0,1,.83.09,3.6,3.6,0,0,1,.74.26,2.78,2.78,0,0,1,.65.42,3.94,3.94,0,0,1,.56.59v-1.22H372v6.29a5.7,5.7,0,0,1-.26,1.8,3.17,3.17,0,0,1-.75,1.29,3.13,3.13,0,0,1-1.25.8A5,5,0,0,1,368,263a5.65,5.65,0,0,1-1.11-.11,4.31,4.31,0,0,1-1-.31,3.79,3.79,0,0,1-.83-.51,4.1,4.1,0,0,1-.71-.73l1-.76a4,4,0,0,0,.54.55,3.65,3.65,0,0,0,.62.4,3.47,3.47,0,0,0,.71.23,3.08,3.08,0,0,0,.75.09,3.23,3.23,0,0,0,1.13-.18,2.13,2.13,0,0,0,.82-.52,2.35,2.35,0,0,0,.48-.85,3.83,3.83,0,0,0,.16-1.18Z"/><path class="cls-46" d="M378.85,259.93v-4.12a5,5,0,0,0-.09-1,1.67,1.67,0,0,0-.29-.69,1.16,1.16,0,0,0-.5-.4,1.8,1.8,0,0,0-.73-.13,2.42,2.42,0,0,0-.84.14,1.54,1.54,0,0,0-.6.43,2,2,0,0,0-.35.71,3.68,3.68,0,0,0-.13,1v4.06H374V249.32h1.31v4.11a3.63,3.63,0,0,1,.47-.42,3.39,3.39,0,0,1,.51-.3,2.31,2.31,0,0,1,.56-.19,2.48,2.48,0,0,1,.61-.07,2.83,2.83,0,0,1,1.12.22,2.37,2.37,0,0,1,.87.65,2.93,2.93,0,0,1,.54,1,4.64,4.64,0,0,1,.18,1.35v4.24Z"/><path class="cls-46" d="M382.37,258.42v-4.74h-1v-1.09h1V250.8h1.31v1.79h1.25v1.09h-1.25v4.57a.87.87,0,0,0,0,.3.53.53,0,0,0,.09.2.42.42,0,0,0,.18.11,1,1,0,0,0,.25,0h.69v1.23h-.74a3.37,3.37,0,0,1-.84-.09,1.33,1.33,0,0,1-.56-.27,1.22,1.22,0,0,1-.32-.53,2.62,2.62,0,0,1-.1-.79Z"/><path class="cls-46" d="M392.38,259.93l-2.75-7.34H391l1.63,4.65a.79.79,0,0,0,.06.22c0,.08.05.16.07.26a2.86,2.86,0,0,0,.07.28c0,.1.05.2.07.3l0-.14,0-.13,0-.13,0-.13.06-.23a1,1,0,0,1,.08-.21l1.56-4.74H396l1.58,4.66q0,.15.09.27c0,.08.05.17.08.27a.24.24,0,0,1,0,.08s0,.06,0,.09l0,0s0,0,0,0l0,.13,0,.13c0-.06,0-.13,0-.21s0-.14,0-.22.05-.16.07-.25.06-.19.1-.29l1.63-4.74h1.3l-2.73,7.34h-1l-1.82-5.31,0-.07,0-.08a.29.29,0,0,1,0-.09l0-.08a1.36,1.36,0,0,0,0-.17,1.33,1.33,0,0,0-.05-.19,1.25,1.25,0,0,1,0,.19c0,.06,0,.12-.05.17a.75.75,0,0,1,0,.16.83.83,0,0,1,0,.15l-1.84,5.32Z"/><path class="cls-46" d="M407.2,259.93v-4.12a5,5,0,0,0-.09-1,1.82,1.82,0,0,0-.29-.69,1.22,1.22,0,0,0-.5-.4,1.83,1.83,0,0,0-.73-.13,2.38,2.38,0,0,0-.84.14,1.54,1.54,0,0,0-.6.43,2,2,0,0,0-.35.71,3.32,3.32,0,0,0-.13,1v4.06h-1.31V249.32h1.31v4.11a3.63,3.63,0,0,1,.47-.42,2.62,2.62,0,0,1,.51-.3,2.31,2.31,0,0,1,.56-.19,2.46,2.46,0,0,1,.6-.07,2.88,2.88,0,0,1,1.13.22,2.26,2.26,0,0,1,.86.65,3,3,0,0,1,.55,1,4.64,4.64,0,0,1,.18,1.35v4.24Z"/><path class="cls-46" d="M411.36,255.64h4.88a2.3,2.3,0,0,0-.25-.82,2.12,2.12,0,0,0-.53-.67,2.08,2.08,0,0,0-.74-.44,2.54,2.54,0,0,0-.88-.15,2.45,2.45,0,0,0-1.67.6,2.28,2.28,0,0,0-.54.67,2.61,2.61,0,0,0-.27.83Zm0,1.06a2.65,2.65,0,0,0,.24.92,2.59,2.59,0,0,0,.56.73,2.78,2.78,0,0,0,.82.47,3.29,3.29,0,0,0,1,.16,3.1,3.1,0,0,0,.69-.08,2.87,2.87,0,0,0,.64-.23,3.64,3.64,0,0,0,.59-.37,5.2,5.2,0,0,0,.55-.51l.92.72a4.63,4.63,0,0,1-.74.73,3.6,3.6,0,0,1-.8.51,4.1,4.1,0,0,1-.88.27,5.5,5.5,0,0,1-1,.09,3.86,3.86,0,0,1-.84-.08,4.58,4.58,0,0,1-.77-.21,3.91,3.91,0,0,1-.7-.38,3.3,3.3,0,0,1-.6-.52,4.26,4.26,0,0,1-.41-.54,4.6,4.6,0,0,1-.31-.63,6.22,6.22,0,0,1-.19-.71,4.17,4.17,0,0,1-.06-.71,4.65,4.65,0,0,1,.26-1.59,3.43,3.43,0,0,1,.78-1.24,3.65,3.65,0,0,1,1.21-.82,4.09,4.09,0,0,1,1.53-.27,3.88,3.88,0,0,1,1.56.3,3.47,3.47,0,0,1,1.23.86,3.82,3.82,0,0,1,.79,1.33,5.38,5.38,0,0,1,.26,1.71v.09Z"/><path class="cls-46" d="M419.39,259.93v-7.34h1.28v.84a3.28,3.28,0,0,1,.5-.42,2.12,2.12,0,0,1,.52-.3,2.54,2.54,0,0,1,.57-.19,2.32,2.32,0,0,1,.59-.07,2.88,2.88,0,0,1,1.13.22,2.26,2.26,0,0,1,.86.65,3,3,0,0,1,.55,1,4.64,4.64,0,0,1,.18,1.35v4.24h-1.29v-4.12a4.69,4.69,0,0,0-.1-1,2.17,2.17,0,0,0-.3-.7,1.3,1.3,0,0,0-.52-.41,1.83,1.83,0,0,0-.73-.13,2.5,2.5,0,0,0-.86.14,1.65,1.65,0,0,0-.61.43,2,2,0,0,0-.37.71,3.7,3.7,0,0,0-.12,1v4.06Z"/><path class="cls-46" d="M431.63,258.42v-4.74h-.95v-1.09h.95V250.8h1.31v1.79h1.25v1.09h-1.25v4.57a1.21,1.21,0,0,0,0,.3.53.53,0,0,0,.09.2.42.42,0,0,0,.18.11,1,1,0,0,0,.25,0h.69v1.23h-.74a3.37,3.37,0,0,1-.84-.09,1.39,1.39,0,0,1-.56-.27,1.22,1.22,0,0,1-.32-.53,2.62,2.62,0,0,1-.1-.79Z"/><path class="cls-46" d="M440.79,259.93v-4.12a5,5,0,0,0-.09-1,2,2,0,0,0-.29-.69,1.19,1.19,0,0,0-.51-.4,1.75,1.75,0,0,0-.72-.13,2.38,2.38,0,0,0-.84.14,1.5,1.5,0,0,0-.61.43,2.35,2.35,0,0,0-.35.71,3.7,3.7,0,0,0-.12,1v4.06h-1.32V249.32h1.32v4.11a3.08,3.08,0,0,1,.47-.42,2.62,2.62,0,0,1,.51-.3,2.18,2.18,0,0,1,.56-.19,2.4,2.4,0,0,1,.6-.07,2.88,2.88,0,0,1,1.13.22,2.26,2.26,0,0,1,.86.65,2.93,2.93,0,0,1,.54,1,4.32,4.32,0,0,1,.19,1.35v4.24Z"/><path class="cls-46" d="M445,255.64h4.88a2.52,2.52,0,0,0-.25-.82,2.28,2.28,0,0,0-.53-.67,2.12,2.12,0,0,0-.75-.44,2.5,2.5,0,0,0-.88-.15,2.62,2.62,0,0,0-.9.15,2.55,2.55,0,0,0-.76.45,2.17,2.17,0,0,0-.55.67,2.6,2.6,0,0,0-.26.83Zm0,1.06a2.28,2.28,0,0,0,.24.92,2.55,2.55,0,0,0,.55.73,2.71,2.71,0,0,0,.83.47,3.24,3.24,0,0,0,1,.16,3.1,3.1,0,0,0,.69-.08,3.07,3.07,0,0,0,.64-.23,3.56,3.56,0,0,0,.58-.37,5.2,5.2,0,0,0,.55-.51l.92.72a4.58,4.58,0,0,1-.73.73,3.66,3.66,0,0,1-.81.51,3.93,3.93,0,0,1-.88.27,5.39,5.39,0,0,1-1,.09,3.8,3.8,0,0,1-.84-.08,4.69,4.69,0,0,1-.78-.21,4.28,4.28,0,0,1-.7-.38,4.14,4.14,0,0,1-.6-.52,4.19,4.19,0,0,1-.4-.54,3.68,3.68,0,0,1-.31-.63,3.74,3.74,0,0,1-.19-.71,4.17,4.17,0,0,1-.06-.71,4.42,4.42,0,0,1,.26-1.59,3.55,3.55,0,0,1,.77-1.24,3.76,3.76,0,0,1,1.21-.82,4.18,4.18,0,0,1,1.54-.27,3.88,3.88,0,0,1,1.56.3,3.44,3.44,0,0,1,1.22.86,3.67,3.67,0,0,1,.79,1.33,5.12,5.12,0,0,1,.26,1.71v.09Z"/><path class="cls-46" d="M458.12,253.43a3.63,3.63,0,0,1,.47-.42,2.94,2.94,0,0,1,.49-.32,3.74,3.74,0,0,1,.54-.17,2.12,2.12,0,0,1,.57-.07,3,3,0,0,1,.62.07,1.89,1.89,0,0,1,.55.23,2,2,0,0,1,.49.37,3.82,3.82,0,0,1,.45.52,4.33,4.33,0,0,1,.53-.52,2.11,2.11,0,0,1,.58-.37,2.45,2.45,0,0,1,.64-.23,4.05,4.05,0,0,1,.7-.07,2.82,2.82,0,0,1,1.11.22,2.09,2.09,0,0,1,.85.65,2.89,2.89,0,0,1,.54,1,4.62,4.62,0,0,1,.18,1.34v4.24h-1.28v-4.12a4.1,4.1,0,0,0-.1-1,1.7,1.7,0,0,0-.29-.68,1.08,1.08,0,0,0-.48-.42,1.51,1.51,0,0,0-.7-.14,1.92,1.92,0,0,0-.79.14,1.42,1.42,0,0,0-.58.42,1.73,1.73,0,0,0-.33.71,3.83,3.83,0,0,0-.12,1v4.06h-1.24v-4.12a4.69,4.69,0,0,0-.1-1,1.86,1.86,0,0,0-.29-.68,1.14,1.14,0,0,0-.48-.42,1.54,1.54,0,0,0-.7-.14,2,2,0,0,0-.8.14,1.46,1.46,0,0,0-.57.42,1.88,1.88,0,0,0-.34.71,4.34,4.34,0,0,0-.11,1v4.06h-1.27v-7.34h1.26Z"/><path class="cls-46" d="M472.77,259a2.17,2.17,0,0,0,1-.18,2.14,2.14,0,0,0,.76-.56,2.7,2.7,0,0,0,.5-.87,3.16,3.16,0,0,0,.17-1.09,3.06,3.06,0,0,0-.17-1.08,2.48,2.48,0,0,0-1.26-1.45,2.55,2.55,0,0,0-1.93,0,2.52,2.52,0,0,0-.77.58,2.7,2.7,0,0,0-.5.87,3.35,3.35,0,0,0-.17,1.08,3.31,3.31,0,0,0,.17,1.08,2.56,2.56,0,0,0,.5.86,2.25,2.25,0,0,0,1.74.77Zm0-6.58a4.66,4.66,0,0,1,.77.08,4.44,4.44,0,0,1,.71.21,2.9,2.9,0,0,1,.65.35,3.29,3.29,0,0,1,.57.49,3.48,3.48,0,0,1,.46.57,3.42,3.42,0,0,1,.34.66,4.68,4.68,0,0,1,.21.73,4.44,4.44,0,0,1,0,1.57,4.79,4.79,0,0,1-.21.74,3.72,3.72,0,0,1-.81,1.23,3.23,3.23,0,0,1-.58.47,3.28,3.28,0,0,1-.64.34,4.41,4.41,0,0,1-.71.2,3.84,3.84,0,0,1-.76.07A3.77,3.77,0,0,1,472,260a3.9,3.9,0,0,1-.71-.2,3.44,3.44,0,0,1-.66-.34,3.17,3.17,0,0,1-.57-.47,3.62,3.62,0,0,1-.47-.58,3.09,3.09,0,0,1-.34-.65,2.93,2.93,0,0,1-.21-.73,5.06,5.06,0,0,1-.06-.79,5,5,0,0,1,.06-.79,3.19,3.19,0,0,1,.21-.73,2.94,2.94,0,0,1,.34-.66,3.56,3.56,0,0,1,.47-.57,2.85,2.85,0,0,1,.57-.48,3.44,3.44,0,0,1,.66-.34,2.81,2.81,0,0,1,.71-.23,3.77,3.77,0,0,1,.76-.07Z"/><path class="cls-46" d="M481.43,259a2.17,2.17,0,0,0,1-.18,2.14,2.14,0,0,0,.76-.56,2.7,2.7,0,0,0,.5-.87,3.16,3.16,0,0,0,.17-1.09,3.06,3.06,0,0,0-.17-1.08,2.48,2.48,0,0,0-1.26-1.45,2.55,2.55,0,0,0-1.93,0,2.52,2.52,0,0,0-.77.58,2.7,2.7,0,0,0-.5.87,3.1,3.1,0,0,0-.17,1.08,3.06,3.06,0,0,0,.17,1.08,2.56,2.56,0,0,0,.5.86,2.24,2.24,0,0,0,.78.58,2.32,2.32,0,0,0,1,.19Zm0-6.58a4.66,4.66,0,0,1,.77.08,4.44,4.44,0,0,1,.71.21,3.13,3.13,0,0,1,.65.35,3.7,3.7,0,0,1,.57.49,3.48,3.48,0,0,1,.46.57,4.09,4.09,0,0,1,.34.66,4.68,4.68,0,0,1,.21.73,4.44,4.44,0,0,1,0,1.57,4.79,4.79,0,0,1-.21.74,4.44,4.44,0,0,1-.34.65,3.62,3.62,0,0,1-.47.58,3.23,3.23,0,0,1-.58.47,3.28,3.28,0,0,1-.64.34,4.52,4.52,0,0,1-.72.2,3.67,3.67,0,0,1-.75.07,3.94,3.94,0,0,1-.77-.07,4,4,0,0,1-.7-.2,2.94,2.94,0,0,1-.66-.34,3.23,3.23,0,0,1-.58-.47,4.18,4.18,0,0,1-.46-.58,3.68,3.68,0,0,1-.35-.65,3.41,3.41,0,0,1-.2-.73,5.06,5.06,0,0,1-.06-.79,5,5,0,0,1,.06-.79,3.76,3.76,0,0,1,.2-.73,3.45,3.45,0,0,1,.35-.66,4.1,4.1,0,0,1,.46-.57,2.9,2.9,0,0,1,.58-.48,2.94,2.94,0,0,1,.66-.34,2.87,2.87,0,0,1,.7-.23,3.94,3.94,0,0,1,.77-.07Z"/><path class="cls-46" d="M486.88,259.93v-7.34h1.27v.84a3.84,3.84,0,0,1,.5-.42,2.17,2.17,0,0,1,.53-.3,2.31,2.31,0,0,1,.56-.19,2.35,2.35,0,0,1,.6-.07,2.83,2.83,0,0,1,1.12.22,2.37,2.37,0,0,1,.87.65,2.93,2.93,0,0,1,.54,1,4.64,4.64,0,0,1,.18,1.35v4.24h-1.28v-4.12a4.07,4.07,0,0,0-.11-1,2,2,0,0,0-.3-.7,1.21,1.21,0,0,0-.51-.41,1.88,1.88,0,0,0-.74-.13,2.44,2.44,0,0,0-.85.14,1.69,1.69,0,0,0-.62.43,1.83,1.83,0,0,0-.36.71,3.68,3.68,0,0,0-.13,1v4.06Z"/><path class="cls-46" d="M500.85,259.93l-2.74-7.34h1.35l1.63,4.65.06.22c0,.08.05.16.08.26l.06.28c0,.1,0,.2.08.3s0-.09,0-.14l0-.13,0-.13,0-.13.06-.23a1,1,0,0,1,.08-.21l1.57-4.74h1.31l1.58,4.66q0,.15.09.27c0,.08.05.17.08.27a.24.24,0,0,1,0,.08.29.29,0,0,1,0,.09l0,0s0,0,0,0l0,.13,0,.13c0-.06,0-.13.05-.21a2.25,2.25,0,0,1,.05-.22c0-.07,0-.16.07-.25s.06-.19.09-.29l1.63-4.74h1.3l-2.73,7.34h-1L504,254.62l0-.07s0-.05,0-.08l0-.09,0-.08,0-.17c0-.06,0-.13-.05-.19s0,.13,0,.19a.84.84,0,0,1,0,.17l0,.16s0,.1-.05.15l-1.84,5.32Z"/><path class="cls-46" d="M514.13,258.91a2.54,2.54,0,0,0,1-.17,2.27,2.27,0,0,0,.82-.56,2.37,2.37,0,0,0,.54-.85,3.08,3.08,0,0,0,0-2.13,2.33,2.33,0,0,0-.54-.84,2.29,2.29,0,0,0-.82-.57,2.54,2.54,0,0,0-1-.19,2.44,2.44,0,0,0-1,.19,2.48,2.48,0,0,0-.82.57,2.33,2.33,0,0,0-.54.84,3.24,3.24,0,0,0,0,2.13,2.37,2.37,0,0,0,.54.85,2.45,2.45,0,0,0,.82.56,2.62,2.62,0,0,0,1,.18Zm3.78,1h-1.28v-1.19a3.52,3.52,0,0,1-.52.57,2.76,2.76,0,0,1-1.33.64,5.27,5.27,0,0,1-.82.06,6,6,0,0,1-.75-.05,3.87,3.87,0,0,1-.72-.2,3.72,3.72,0,0,1-.65-.36,5.2,5.2,0,0,1-.58-.49,4.81,4.81,0,0,1-.44-.57,5.49,5.49,0,0,1-.33-.64,4.77,4.77,0,0,1-.19-.7,4.56,4.56,0,0,1-.06-.75,4.36,4.36,0,0,1,.25-1.54,3.42,3.42,0,0,1,.77-1.21,3.18,3.18,0,0,1,1.19-.79,4.23,4.23,0,0,1,1.51-.26,3.68,3.68,0,0,1,.82.09,3.6,3.6,0,0,1,.74.26,3,3,0,0,1,.65.42,3.38,3.38,0,0,1,.54.59v-1.22h1.2Z"/><path class="cls-46" d="M520.87,257.8a1.65,1.65,0,0,0,.13.55,1,1,0,0,0,.26.39,1.4,1.4,0,0,0,.42.22,1.72,1.72,0,0,0,.58.09,1.76,1.76,0,0,0,.58-.09,1.11,1.11,0,0,0,.44-.24.91.91,0,0,0,.29-.36,1.21,1.21,0,0,0,.09-.48.76.76,0,0,0-.37-.62,3.41,3.41,0,0,0-1.09-.48l-.19,0-.14,0a5.24,5.24,0,0,1-1-.39,3.11,3.11,0,0,1-.68-.47,2,2,0,0,1-.39-.59,2.09,2.09,0,0,1-.13-.72,1.9,1.9,0,0,1,.18-.83,2.17,2.17,0,0,1,.54-.69,2.72,2.72,0,0,1,.8-.44,2.78,2.78,0,0,1,1-.16,3.13,3.13,0,0,1,1,.16,2.49,2.49,0,0,1,.8.44,2.08,2.08,0,0,1,.5.72,2.45,2.45,0,0,1,.17.93v0h-1.23a1.94,1.94,0,0,0-.1-.49,1.08,1.08,0,0,0-.24-.37,1,1,0,0,0-.39-.24,1.64,1.64,0,0,0-.52-.07,2,2,0,0,0-.52.06,1,1,0,0,0-.42.22,1,1,0,0,0-.27.31.87.87,0,0,0-.09.4,1.06,1.06,0,0,0,.06.37.7.7,0,0,0,.19.26,1.66,1.66,0,0,0,.43.23c.2.08.45.16.76.25l.07,0,.1,0c.42.12.77.24,1.05.35a2.27,2.27,0,0,1,.6.32,2.2,2.2,0,0,1,.3.31,1.65,1.65,0,0,1,.22.36,1.88,1.88,0,0,1,.14.42,2.15,2.15,0,0,1,0,.45,2.19,2.19,0,0,1-.18.9,2,2,0,0,1-.53.74,2.27,2.27,0,0,1-.84.45,3.59,3.59,0,0,1-1.07.15,4.1,4.1,0,0,1-1.11-.14,2,2,0,0,1-.83-.45,1.74,1.74,0,0,1-.53-.72,2.89,2.89,0,0,1-.2-1Z"/><path class="cls-46" d="M533.36,250.46h-.07a2.37,2.37,0,0,0-.52.08.64.64,0,0,0-.33.16.75.75,0,0,0-.17.38,3.13,3.13,0,0,0-.06.67v.84h1.15v1.09h-1.15v6.25h-1.34v-6.25h-1.11v-1.09h1.11v-.81a3.87,3.87,0,0,1,.15-1.13,2,2,0,0,1,.42-.77,2,2,0,0,1,.77-.46,3.8,3.8,0,0,1,1.14-.17Z"/><path class="cls-46" d="M536,252.59v4.08a3.6,3.6,0,0,0,.12,1,2.14,2.14,0,0,0,.34.73,1.65,1.65,0,0,0,.56.46,1.73,1.73,0,0,0,.75.15,1.79,1.79,0,0,0,.75-.15,1.53,1.53,0,0,0,.56-.45,2.31,2.31,0,0,0,.35-.74,3.58,3.58,0,0,0,.12-1v-4.09h1.29v4.15a4.68,4.68,0,0,1-.2,1.42,3,3,0,0,1-.61,1.07,2.43,2.43,0,0,1-1,.66,3.4,3.4,0,0,1-1.28.22,3.49,3.49,0,0,1-1.29-.22,2.48,2.48,0,0,1-1-.65,3,3,0,0,1-.61-1.07,4.43,4.43,0,0,1-.2-1.42v-4.16Z"/><rect x="542.93" y="249.32" width="1.28" height="10.61"/><rect x="546.43" y="249.32" width="1.27" height="10.61"/><polygon class="cls-46" points="550.46 258.14 551.72 258.74 549.97 262.27 549.12 261.86 550.46 258.14"/><path class="cls-27" d="M109.61,243.05a11.34,11.34,0,1,1-11.33,11.34A11.34,11.34,0,0,1,109.61,243.05Z"/><path class="cls-47" d="M109.61,244.33a10.06,10.06,0,1,1-10.06,10.06A10.07,10.07,0,0,1,109.61,244.33Z"/><path class="cls-27" d="M112.64,253.79a3.29,3.29,0,0,1-1.75.37,7.91,7.91,0,0,1,.65-1.71,2.37,2.37,0,0,0,1.14.55l.27.08c.09,0,.21.09.22.18S113,253.61,112.64,253.79Z"/><path class="cls-27" d="M110.45,257.2a3.71,3.71,0,0,0,1.46,2.36c-.62.25-2.55-.92-3.15-2.52a7.74,7.74,0,0,1-.46-5,.44.44,0,0,1,.49-.22,4.3,4.3,0,0,0,2.55.45A7.38,7.38,0,0,0,110.45,257.2Z"/><path class="cls-27" d="M114.57,258.79a2.08,2.08,0,0,1,1,.19,2.94,2.94,0,0,0-.52.57c-.45.57-1,1.21-1.92,1l-.47-.11.35.33a2,2,0,0,1,.67,1.82,2.81,2.81,0,0,0,0,.72,3.54,3.54,0,0,1-2.08-2.31c-4.72.36-7.31-4.56-7.87-7.77a1.8,1.8,0,0,0-1.72-.43c-.16,0-.32.05-.36,0s0-.13,0-.31a3.84,3.84,0,0,1,2.1-2.28,9.06,9.06,0,0,1,2-3.63,4.48,4.48,0,0,1,4.84-.64,3.35,3.35,0,0,1,1.82,3.13,1,1,0,0,0,.68.65c.29.11.36.16.32.32s-.09.23-.64.5l-.07.15a.67.67,0,0,1-.25.8,3.54,3.54,0,0,1-3.54,0,.69.69,0,0,0-.81.35,7.68,7.68,0,0,0,.37,5.45,5.28,5.28,0,0,0,3.2,2.84l.14,0A3.72,3.72,0,0,1,114.57,258.79Z"/><path class="cls-47" d="M112.42,250.55c.23,1-2.43,1.43-3,.69A6.91,6.91,0,0,0,112.42,250.55Z"/><path class="cls-47" d="M108.43,248.08a.61.61,0,0,1,.86-.23A.45.45,0,0,0,108.43,248.08Z"/><path class="cls-47" d="M108.63,250c-.06-.25,0-.74.34-.77s.54.31.58.7-.11.57-.35.63S108.68,250.24,108.63,250Z"/><path class="cls-47" d="M108.74,250.24c.14.36,0-.86.31-1s.75.48.7.92c.11-.18.13-1-.4-1.21S108.32,249.22,108.74,250.24Z"/><path class="cls-27" d="M108.81,249.67c0-.12,0-.22.14-.23s.2.07.21.18,0,.22-.14.23S108.82,249.78,108.81,249.67Z"/><path class="cls-47" d="M109.49,249.19a.42.42,0,0,0,.45-.17.37.37,0,0,1-.28.39Z"/><path class="cls-47" d="M111.22,249.22a1,1,0,0,0-.64,1,1.59,1.59,0,0,1,1.66-.88C112.18,249.13,111.71,249,111.22,249.22Z"/><path class="cls-27" d="M115.23,256.7l1.36,2.38a8.6,8.6,0,0,1-.8,1l-2.6-.83Z"/><path class="cls-27" d="M101.7,250l2.13-2.64,11.51,9.32c.45.63-1.37,2.9-2.14,2.64Z"/><path class="cls-47" d="M104,247.84l11.07,9c.15.2,0,.69-.41,1.27s-1,1.06-1.34,1l-11.07-9Zm9.18,11.61c.49.17,1.24-.46,1.77-1.16.2-.27.85-1.2.52-1.67v0h0l-11.51-9.32-.09-.08-.08.1-2.14,2.64-.08.1.1.08,11.51,9.32h0Z"/><path class="cls-27" d="M101.71,250c-.36-.29-.17-1.11.42-1.84s1.36-1.09,1.71-.8.17,1.12-.42,1.84S102.06,250.28,101.71,250Z"/><path class="cls-47" d="M101.89,249.76a.37.37,0,0,1-.11-.25,1.91,1.91,0,0,1,.5-1.21,1.86,1.86,0,0,1,1.08-.73.29.29,0,0,1,.26.06.34.34,0,0,1,.11.24,1.85,1.85,0,0,1-.5,1.21,1.94,1.94,0,0,1-1.08.74A.36.36,0,0,1,101.89,249.76Zm1.63-.49a2.35,2.35,0,0,0,.62-1.57.57.57,0,0,0-.22-.44.6.6,0,0,0-.48-.13,2.41,2.41,0,0,0-1.41.94,2.36,2.36,0,0,0-.62,1.57.58.58,0,0,0,.18.44.74.74,0,0,0,.52.13A2.32,2.32,0,0,0,103.52,249.27Z"/><path class="cls-27" d="M116.94,259.29l.69,1.38-1.44-.46A5.67,5.67,0,0,0,116.94,259.29Z"/><path class="cls-27" d="M105.62,254a2.85,2.85,0,0,0,2.95-.89c.39-.68,1.08,2.07-.88,3Z"/><path class="cls-47" d="M106,254.26a3.09,3.09,0,0,0,2.66-1.07l0,0h0s.15.19.18.6a2.51,2.51,0,0,1-1.1,2.18l.14.21a2.8,2.8,0,0,0,1.17-2.69c0-.19-.14-.51-.35-.55-.06,0-.18,0-.28.17a2.93,2.93,0,0,1-2.41,1Z"/><polygon class="cls-48" points="113.21 259.44 117.27 260.87 117.58 260.67 113.65 259.16 113.21 259.44"/><path class="cls-47" d="M106,254.32a3.07,3.07,0,0,0,2.67-1c.37.08.13,1.83-1,2.54-.13.17.1.36.24.26a2.83,2.83,0,0,0,1.17-2.69c0-.19-.14-.51-.35-.55-.06,0-.18,0-.28.17A2.93,2.93,0,0,1,106,254C105.83,254,105.77,254.25,106,254.32Z"/><polygon class="cls-48" points="115.24 257.08 117.6 260.7 117.83 260.3 115.56 256.83 115.24 257.08"/><path class="cls-27" d="M0,0V648H648V0ZM-85-85H733V733H-85Z"/></svg>