<svg id="graphic" xmlns="http://www.w3.org/2000/svg" xmlns:xlink="http://www.w3.org/1999/xlink" viewBox="0 0 648 648"><defs><style>.cls-1{fill:#5f80ce;}.cls-2{fill:#4e6bc1;}.cls-3,.cls-6{fill:#77bbf5;}.cls-11,.cls-12,.cls-13,.cls-14,.cls-15,.cls-16,.cls-17,.cls-18,.cls-20,.cls-21,.cls-22,.cls-23,.cls-25,.cls-26,.cls-27,.cls-28,.cls-3,.cls-31,.cls-32,.cls-33,.cls-34,.cls-38,.cls-39,.cls-4,.cls-40,.cls-41,.cls-42,.cls-43,.cls-44,.cls-45,.cls-46,.cls-5,.cls-51,.cls-52,.cls-54,.cls-55,.cls-57,.cls-58,.cls-60,.cls-7,.cls-8,.cls-9{fill-rule:evenodd;}.cls-4{fill:#38a7e3;}.cls-5{fill:#a4d7f9;}.cls-10,.cls-7{fill:#e497ce;}.cls-8{fill:#ffc1e2;}.cls-9{fill:#fab6dd;}.cls-11{fill:#ffca5a;}.cls-12{fill:#fbb552;}.cls-13{fill:#ffee73;}.cls-14{fill:#fba525;}.cls-15{fill:#e163cb;}.cls-16{fill:#cf3e97;}.cls-17{fill:#ffb1b5;}.cls-18{fill:#ffc8cb;}.cls-19,.cls-22{fill:#fff;}.cls-20{fill:#ff9498;}.cls-21{fill:#333;}.cls-23{fill:#f34e42;}.cls-24{fill:#f68077;}.cls-25{fill:#bcf0bf;}.cls-26{fill:#82d8a4;}.cls-27{fill:#eeff96;}.cls-28{fill:#c7f663;}.cls-29{fill:#ffe5c8;}.cls-30{fill:url(#New_Gradient_36);}.cls-31{fill:#db8fcf;}.cls-32{fill:#cb5fba;}.cls-33{fill:#ffb182;}.cls-34,.cls-37{fill:#b19cd4;}.cls-35,.cls-38{fill:#beb6e1;}.cls-36,.cls-39{fill:#d8d3ed;}.cls-40{fill:#ff7e44;}.cls-41{fill:#ff3c21;}.cls-42{fill:#ffa144;}.cls-43{fill:#ff6437;}.cls-44{fill:#33ce89;}.cls-45{fill:#b6ee52;}.cls-46{fill:#8fdc45;}.cls-47{fill:#8dc3ed;}.cls-48{fill:#5ca9e6;}.cls-49{fill:#bbdbf4;}.cls-50{fill:#98c9ef;}.cls-51{fill:#c7ade1;}.cls-52{fill:#eee6f6;}.cls-53,.cls-54{fill:#d2bde7;}.cls-55{fill:#ffa0a4;}.cls-56{fill:none;}.cls-57{fill:#6d6f71;}.cls-59,.cls-60{fill:#ff7575;}</style><linearGradient id="New_Gradient_36" x1="324" y1="288.22" x2="324" y2="662.17" gradientUnits="userSpaceOnUse"><stop offset="0" stop-color="#ffd4a4"/><stop offset="1" stop-color="#ffc78f"/></linearGradient></defs><title>page13</title><rect class="cls-1" x="-14.17" y="-14.17" width="676.35" height="676.35"/><path class="cls-2" d="M662.17,143.18V280.82C646.32,250.27,614.41,180,549,151.53c-82-35.64-186.93,5.78-268.89-37.62-59-31.24-79.57-71.82-67-128.08H348.24C326,10,306.13,66.84,334,91.34c45.67,40.18,176.43-18.52,245.2-7.34C617.41,90.21,638.41,108,662.17,143.18Z"/><path class="cls-2" d="M-14.17,7.9V24c42,10.14,115.56,34.05,116.64,76.75,1.15,45.48-72.86,73.37-116.64,83v47.93c51.72-18,139.85-57.37,151.92-116C148.82,61.9,45.17,20.28-14.17,7.9Z"/><path class="cls-3" d="M151.85,158.51c-12.57-17.21,15-46.63-2.62-52.31-18.86-6.08-20.86,34.22-6.94,57.37Z"/><path class="cls-3" d="M122.66,156.81c-4.74-20.77-39.38-10.05-32.11-27.07,7.79-18.22,45.39,10,53.73,35.66C134.59,170,124,163.64,122.66,156.81Z"/><path class="cls-4" d="M159.3,159.83C152.66,139.58,188,120.11,173,109.27c-16.06-11.61-30.41,26.1-24.32,52.42Z"/><path class="cls-4" d="M136.35,164.25c2.65-21.15-35.72-33.52-23.07-47C126.84,102.77,148.12,137,147.16,164Z"/><path class="cls-5" d="M193.88,249.66c-25.2-41.46-5.95-90.57-34.65-101.12-2.67,12.61-33.26,18.48-36.57,8.27-21.87,20.18,17.1,99.81,31.12,112.41Z"/><path class="cls-6" d="M178.73,196.12c-.9-8.69-1.55-16.81-2.94-23.85-13.47,15.72-44.65,22.79-59,13.57a133.72,133.72,0,0,0,5.41,22.69C136.39,215.53,166.46,206.41,178.73,196.12Z"/><path class="cls-6" d="M186.88,235.31a117.31,117.31,0,0,1-5.8-21.61c-13,12.52-37.21,17.57-51.41,14.5a237.66,237.66,0,0,0,11.11,22.51C154.14,251.16,175.17,243.77,186.88,235.31Z"/><path class="cls-7" d="M227.46,177.48c-2.84-19.89,33.12-32.17,21-44.69-13-13.41-32.5,19.24-31.16,44.67Z"/><path class="cls-7" d="M203.74,174c5.25-19.39-29-36-15.36-46.91,14.55-11.72,33.36,28.37,28.93,53.45Z"/><path class="cls-8" d="M233.08,181.87c3.43-19.79,41.44-20.36,33.75-36-8.23-16.77-36.86,8.26-43.44,32.86Z"/><path class="cls-8" d="M212,175.39c11.56-16.42-14.9-43.69,1.6-49.33,17.68-6,20.23,31.9,7.48,53.95Z"/><path class="cls-9" d="M222.11,271.93c-2.63-45.65,35.12-78,15.9-99.48-7.8,9.31-35.85.66-34.09-9.3-27.13,7.11-29.94,90.63-23.84,107.31Z"/><path class="cls-10" d="M233.19,220.67c3.1-7.63,6.15-14.67,8.11-21.15-18.17,7.13-47.25-.79-55.08-14.8A127.68,127.68,0,0,0,180.68,206C189.37,218.09,218.43,223.8,233.19,220.67Z"/><path class="cls-10" d="M222.63,256.89a110.6,110.6,0,0,1,4.73-20.55C211,241,188.62,234.5,178.17,225.66a224.17,224.17,0,0,0-.72,23.64C188.37,255.6,209.14,258.75,222.63,256.89Z"/><path class="cls-11" d="M102.78,266c-7.24-23.88-5.64-63.44,3.22-81.9,7.86-16.36,24.74-7.66,15.54,7-11,17.51-6,51.71-1.39,73.14Z"/><path class="cls-11" d="M61.12,246.31c-10.87-31.75-2.28-57,8.06-66.51,9.52-8.75,19,1.72,10.58,11-10,11.05-13.78,36.2-11,56.17Z"/><path class="cls-12" d="M74.72,261.37c-4.23-26.31,4.55-64,15.86-74.4,10.42-9.58,20.76,1.88,11.58,12-11,12.09-9.53,38.15-8.55,63.27Z"/><path class="cls-12" d="M127.44,253.77c18-27.1,15.74-54.1,8.06-66.5-7.08-11.43-18.65-4.35-12.78,7.18,7,13.8,4.64,39.18-2.76,57.51Z"/><path class="cls-13" d="M57,251.53c-14.68-17.45-14.15-44.67-5.7-59.57,7.5-13.21,21.19-4.87,12.66,6.81-10.21,14-8.58,35,1.82,52.5Z"/><path class="cls-13" d="M73.12,260.25c-9.16-18-8.89-40.76-1.44-56.27,6.6-13.76,20.78-6.44,13,5.86-9.25,14.72-11.63,30.18-2.88,49.5Z"/><path class="cls-13" d="M93.62,257.77c-6.08-20.07-8.68-41.44-1.23-57,6.6-13.75,20.78-6.43,13,5.87-9.25,14.71-5.46,37.61-.34,51.46Z"/><path class="cls-13" d="M117.27,261.49C129.82,241,133.58,217,129.48,196.6c-3.64-18.1-23.91-14.38-18.58,2.49,6.39,20.18,1,38.47-8.49,57.48Z"/><path class="cls-13" d="M136.15,257c10.62-17.38,18.2-37.11,14.72-54.38-3.08-15.32-18.46-12.76-13.94,1.51,5.4,17.07-.92,33.14-9,49.22Z"/><path class="cls-14" d="M49.81,237.49c21.2,13.28,67.09,19.1,93.69,3.56,9.54-5.58,12.13,10.55,4,17.05-13,15.64,2.8,27.46-14,50.13-14.5,19.59-65,19-78.58-.89-14.63-21.42.79-38.89-4.4-50.42C36.35,254.44,42.91,233.18,49.81,237.49Z"/><path class="cls-15" d="M44.22,249.34C44.05,237,41.57,223,30.3,218.49c-8.27-3.34-32.75-2.94-44.46,5.58v46.09Z"/><path class="cls-16" d="M78.77,282.43c-.28-14.57-4.22-30.79-22.16-35C43.45,244.29,8.67,248-14.16,263v50Z"/><path class="cls-15" d="M105.6,343.2c12.72-29.64-2.13-55.58-25.92-61.2-17.45-4.12-63.57.74-93.84,20.62v66.24Z"/><path class="cls-16" d="M139.51,385.06c-.46-21.87-7-46.22-36.64-52.58-21.76-4.67-79.28.84-117,23.34v75.76Z"/><path class="cls-17" d="M408,133.78c-3.8,17.94-15.15,32.73-32.1,34.9-8,1-9.49,4.95-2.44,10.39,15,11.54,45.62,4.77,58.51-15.33Z"/><path class="cls-17" d="M407.53,261.05c25.86-26.73,30.79-65.3-4.81-130.44-17.45-32-2.5-74.52,29.25-86.34,32.93-12.26,83.79,2.22,92.27,66.94,11.83,90.32-50.88,163.67-113.13,164.17C400.52,274,402,267.43,407.53,261.05Z"/><path class="cls-18" d="M395.66,94.74c2.21-22.23,15.73-42.81,36.31-50.47,32.93-12.26,83.79,2.22,92.27,66.94,11.83,90.32-50.88,163.67-113.13,164.17a14.14,14.14,0,0,1-5.22-1.55,17.7,17.7,0,0,0,3.13.68c59.2-.48,118.83-70.22,107.58-156.11-8.06-61.55-56.42-75.31-87.74-63.65C411.79,61.1,399.83,76.8,395.66,94.74Z"/><path class="cls-17" d="M361,259.36c12.15,2.11,17.22,19.59,40.32,15.87-14.57,15.79,2.42,34-.47,44,10.79-.59,32.28-27.18,19.9-56.82C409,245.45,379.38,246.46,361,259.36Z"/><path class="cls-19" d="M422.56,265c52.17-14,82.45-56.49,72.26-123.23-1.62-10.57-7.44-14.75-11.34-10.39-16.82,20-42.94,19.85-61.8,9.12-4.4-2.51-7.31,5.81-3.91,12.55,22.66,44.9,18,84.64-4.1,105.59C408.73,263.36,409.45,268.57,422.56,265Z"/><path class="cls-20" d="M432.5,128.13c0-3.92,4-9.15,11.12-9.78,10-.89,15.74,5.29,18.93,7.36C448.9,122.62,440.16,123,432.5,128.13Z"/><path class="cls-21" d="M476.4,83.4c-3.9.89-9.78.12-13.06-3.62-.15,3.43,2.62,5.63,5.54,6.09C472.57,86.45,474.5,85.47,476.4,83.4Z"/><path class="cls-21" d="M408.49,92.52c4-.5,9.23-3.23,11-7.87,1.32,3.17-.53,6.18-3.12,7.61C413.13,94.07,411,93.81,408.49,92.52Z"/><path class="cls-22" d="M496.86,124.46c2.79-1.69,11.89,0,15.6,9.55,3,7.78,1.51,20.63-4,26.82,1.83-8.93,2.46-15-.5-23.56A21.85,21.85,0,0,0,496.86,124.46Z"/><path class="cls-23" d="M428.64,136.48c5.59-1.27,7.9-6.52,17.34-7.22,12.08-.89,15.87,4.36,25.68,3.59C463.82,138.2,444.37,140.56,428.64,136.48Z"/><path class="cls-24" d="M441.93,138.44c2.47-3.86,6.34-6.74,12.82-8.7,6,1.17,9.95,3.66,16.91,3.11C465.94,136.75,454.05,139.06,441.93,138.44Z"/><path class="cls-22" d="M464,104.11c-.25,5.74.63,16.58,9.4,16.48,6.69-.08,8.76-7.93,8.13-17.94A20,20,0,0,0,464,104.11Z"/><path class="cls-21" d="M469.37,102.63c9.2-3.19,12.54,16.43,5.56,17.92C465,122.68,462.12,105.14,469.37,102.63Z"/><path class="cls-22" d="M469,112c2.78-1.38,4.82,3.66,1.92,5.1C468.27,118.37,466.61,113.14,469,112Z"/><path class="cls-20" d="M463,104.15c.74-4.88,4.63-5.55,7.69-5.76,5.12-.34,8.06,1.57,10.83,4.26C479,105.17,467.53,111.31,463,104.15Z"/><path class="cls-21" d="M468.67,109.77a5.51,5.51,0,0,1-5.65-5.62c1.94,2.69,9.07,4.19,18.52-1.5C477.86,107.55,473.11,109.87,468.67,109.77Z"/><path class="cls-21" d="M464.23,105.59c-.3,2-2,3.82-4.5,4.82,1.76,1,6.4-.89,6.79-2.83Z"/><path class="cls-22" d="M411.19,109.46c-.24,5.3.62,15.35,9.25,15.5,6.58.11,8.61-7.09,8-16.36A20.68,20.68,0,0,0,411.19,109.46Z"/><path class="cls-21" d="M416.46,108.24c9.05-2.69,12.34,15.54,5.47,16.72C412.12,126.66,409.33,110.36,416.46,108.24Z"/><path class="cls-22" d="M418.85,117.09c2.74-1.21,4.74,3.51,1.89,4.76C418.17,123,416.53,118.1,418.85,117.09Z"/><path class="cls-20" d="M410.22,109.47c.72-4.49,4.55-5,7.56-5.11,5-.18,7.93,1.68,10.65,4.24C426,110.85,414.65,116.21,410.22,109.47Z"/><path class="cls-21" d="M415.78,114.82c-2.75-.14-5.61-2-5.56-5.35,1.9,2.54,8.92,4.13,18.21-.87C424.81,113,420.14,115,415.78,114.82Z"/><path class="cls-21" d="M411.41,110.83c-.3,1.81-2,3.48-4.43,4.34,1.73,1,6.3-.65,6.68-2.43Z"/><path class="cls-17" d="M496.3,136.37c-1.2,10.79-9.24,23-19.11,31.11l11.34,11.34L509.45,169S509.45,146.86,496.3,136.37Z"/><path class="cls-25" d="M662.17,271.61c0-47.88-44.52-110.49-108.27-113.71-72-3.63-85,23.17-124.07,33-35.31,8.85-83.75-36.8-126-36.12-60.73,1-89.75,59.52-89.56,91.5C141,224.59,87,290.3,116.91,358H662.17Z"/><path class="cls-26" d="M549.46,177.46C480,175.58,487.92,204.65,434.54,212c-50.54,7-81.09-33.5-121.88-32.94-58.58.79-86.11,59.49-85.93,85.39C156.09,246.92,104,300.13,132.86,355H648C652.69,244.8,607.14,179,549.46,177.46Z"/><path class="cls-27" d="M580.38,293.64a49.21,49.21,0,0,1,32.42-41.93c17.71-6.29,19.15,15.71,7.08,17C605.31,270.33,598.57,281.67,595,296Z"/><path class="cls-28" d="M569.08,291.85c-2.84-22.2,10.78-50.93,30.24-66.37,13.39-10.61,27.4,8.5,12.38,15.9-18.56,9.15-27.05,35.56-27.9,52.8Z"/><path class="cls-27" d="M555.5,289.7c-.38-16.86,5.45-36.31,15.5-49.85,9.78-13.19,27.54,1.07,15.44,11.68-10.8,9.46-14.56,26.28-14.46,40.78Z"/><path class="cls-28" d="M548.32,288.57A202.85,202.85,0,0,1,548,224.5c2.8-18.59,27.59-14,21.07,3.24-6.21,16.41-6.61,42.69-2.26,63.75Z"/><path class="cls-27" d="M536.57,286.7c2.34-19.31-3.28-40.46-19.94-49.8-14.11-7.91.36-25.63,12.74-14.71,18.51,16.34,27.55,42.33,20.86,66.68Z"/><path class="cls-28" d="M533.42,286.21c-3.38-7.18-7.9-14.59-14.16-19-15.05-10.63,3.45-29,16.17-15.14,9.22,10,16.19,24,20.11,37.66Z"/><path class="cls-27" d="M518,283.76c-4.88-10.33-12.75-19.87-24-22.72-14.24-3.61-5.72-22.56,7.71-15.89,16.2,8.06,29.58,23.94,34.25,41.46Z"/><path class="cls-29" d="M-14.17,414.29V662.17H662.17v-357C435.81,244,114.54,271.81-14.17,414.29Z"/><path class="cls-30" d="M-14.17,423V662.17H662.17V317.68C435.81,258.7,114.54,285.54-14.17,423Z"/><path class="cls-17" d="M471.3,160.12c9.71-8.8,30.21-7.83,33.24-2.08,3.65,6.92-15.51,18.85-22.94,18.53C470.44,176.08,465,165.84,471.3,160.12Z"/><path class="cls-31" d="M222.73,636.39c-43.41-8.55-85.64-39.38-84.61-58.62.52-9.8,14.11-13.9,20.6-11.21-4.86-18.73,9.65-24.13,22.48-17.58,2.2-16.87,20.38-17.51,28.41-8,3.7-14.12,27.59-11.46,27.33,1.14,9.39-11.52,29.28-3.12,28.3,8.81,11.91-10.46,28.07,2.52,25,15.22,14.46-6.8,22.18,13.92,11.94,21.27,16.68-3.38,18.8,17.54,8.37,19.3,7.23,6.75,7.08,14.58-2.09,20.37C293.48,636.56,246,637.32,222.73,636.39Z"/><path class="cls-32" d="M220.44,634.09c-26.29-8.37-75.76-34.84-74.86-51.85.46-8.68,12.49-12.31,18.23-9.93-4.29-16.56,8.54-21.34,19.88-15.55,2-14.92,18-15.48,25.14-7.06,3.28-12.5,24.4-10.14,24.17,1,8.31-10.2,25.91-2.76,25,7.79,10.53-9.25,24.84,2.23,22.13,13.46,12.79-6,19.62,12.32,10.56,18.82,14.76-3,16.64,15.51,7.41,17.07,6.4,6,6.27,12.9-1.85,18C283,634.24,241,634.91,220.44,634.09Z"/><path class="cls-33" d="M102.34,496.68c.63,27.4,131.13,25.36,130.44-4.6C232.21,467.51,101.71,469.27,102.34,496.68Z"/><path class="cls-33" d="M426.19,591.38c-.63,36.2,129.88,38.06,130.58-1.52C557.33,557.41,426.82,555.17,426.19,591.38Z"/><path class="cls-34" d="M396.28,476.62c-3.86,14.89-20.4,20.19-19.72,26.23.78,6.91,35.11,5.12,55.21-17.53Z"/><path class="cls-35" d="M385.34,480.88c-16,5.93-31-4.72-27-13.59-6.44-4.19-9.25-9.41-8.5-13.17,1.64-8.29,9.29-1.55,19.87-13.45,18.35-34.74,76.18-38.46,116.15-20.37,50.27,22.74,92.06,93.54,49.41,146.16,5.1,15.83-6.93,39.34-21.72,41.81,5-10.42-3.74-21.53,5.81-35-12.37,7.35-41-.86-43.41-8.45,17.84,2.48,26.06-13.08,45.89-6.91,3.89-25.59-21.58-52.85-52.41-55.15C442.06,500.7,403.35,493.71,385.34,480.88Z"/><path class="cls-21" d="M390.42,439.13c2.63-1.6,6.35-2,9,1.47A4.64,4.64,0,0,0,390.42,439.13Z"/><path class="cls-36" d="M513.5,608.27c15.08-9.15,19.06-36.34,15.91-45.62,11.26-10.18,24.06-53.81-5.23-94.17-21.71-29.91-66.94-54.66-111-45.13C382.56,430,377.94,444,369.69,448.3c-4.23,2.19-12.44,3.25-16.34,1.28,3.54-1.33,9.28-1,16.31-8.91,18.35-34.74,76.18-38.46,116.15-20.37,50.27,22.74,92.06,93.54,49.41,146.16C540.32,582.29,528.29,605.8,513.5,608.27Z"/><path class="cls-37" d="M441.68,499.36c12.58-5.37,27.76-7.3,45.26-1.61,47.43,15.42,42.25,58,38.24,64.39-12.62-3-33.81,10.65-49.23,2.8l-.05-.14c17.84,2.48,26.06-13.08,45.89-6.91,3.89-25.59-21.58-52.85-52.41-55.15C460.94,502.11,451.38,501,441.68,499.36Z"/><path class="cls-38" d="M418.17,489.08c1.94,16.4-12.18,26.85-9.59,31.17,3.87,6.46,40.28-6.54,52.88-36.85C452.4,474.43,419.28,480.32,418.17,489.08Z"/><path class="cls-23" d="M362.76,469.62c7.63,3.73,20.09,2.49,21.21,4.94,1.36,2.94-5.84,4.47-11.59,3.14C366.42,476.33,361.93,473.57,362.76,469.62Z"/><path class="cls-24" d="M367.38,476c2-1.87,8.29-2.92,15.1-2.45a2.3,2.3,0,0,1,1.49,1c1.36,2.94-5.84,4.47-11.59,3.14A24.23,24.23,0,0,1,367.38,476Z"/><path class="cls-22" d="M394.75,451.24c7.91.2,10.52,17.84,2,18.75C386.05,471.13,385.49,451,394.75,451.24Z"/><path class="cls-21" d="M393.4,451.61c7.73.57,7,15.25,1.23,15.47C385.6,467.44,387.32,451.16,393.4,451.61Z"/><path class="cls-22" d="M392.23,454.94c2.79-.16,3.44,4.85.54,5C390.16,460.11,389.87,455.07,392.23,454.94Z"/><path class="cls-39" d="M453.71,414.57c4.46-6.95,23-27.6,37.77-22.77,3.62,1.19-9.17,19-4.61,31.43C483.53,429.62,452.56,421,453.71,414.57Z"/><path class="cls-40" d="M403.88,662.19c-1-18,8.18-45.86,19.77-68.74,4.86-9.59-19.63-20-23.77-10.47-10.15,23.35-18.54,64.93-16.6,79.21Z"/><path class="cls-41" d="M422.05,590.07c-1.93,3.95-20.23-3.75-18.13-8.05C405.93,577.89,424,586.13,422.05,590.07Z"/><path class="cls-42" d="M398.86,662.19c-13.49-29.1-15.42-60-9.44-96.69,1.79-11-25.64-12.06-26.76-1.3-3.53,34,5.47,80.91,13.6,98Z"/><path class="cls-43" d="M386.63,562.83c-.39,4.52-20.87,3.87-20.44-1.05C366.6,557.06,387,558.32,386.63,562.83Z"/><path class="cls-40" d="M424.12,662.19c7.12-15.25,12.08-52.37,10.06-76.18-.85-10,23.93-10.42,24.18-.75.62,23.72-1.45,60.32-15.31,76.93Z"/><path class="cls-41" d="M436.74,583.65c.29,4.08,18.78,3.82,18.47-.62C454.92,578.75,436.46,579.57,436.74,583.65Z"/><path class="cls-40" d="M362.83,662.19c-6.22-14.32-3.24-42.58,4.33-66.09,3.17-9.86-21-15.87-24.18-6.38-8.9,26.85-8.35,48.94-3.61,72.47Z"/><path class="cls-41" d="M365.13,593.13c-1.24,4-19.81-.52-18.46-4.93C348,584,366.37,589.08,365.13,593.13Z"/><path class="cls-42" d="M440.5,662.19c6.71-8.22,20.22-21.22,18-45.61-1-10.77,27-9.39,26.1,1-1.6,19.15-13.85,39.29-22,44.6Z"/><path class="cls-43" d="M461.46,614.23c0,4.42,19.93,5.53,19.93.72C481.39,610.33,461.46,609.81,461.46,614.23Z"/><path class="cls-42" d="M396.68,662.19c7.15-15,10.5-17.06,10.11-43.52-.17-11.09,27.66-9.63,26.77,1-1.63,19.66-7.94,33.73-14.2,42.48Z"/><path class="cls-43" d="M409.8,616.26c0,4.53,20.46,5.68,20.46.74C430.26,612.26,409.8,611.73,409.8,616.26Z"/><path class="cls-44" d="M223.52,662.17c35.35-4.56,24.24-47.34,2.61-47.34,11.76-24.68-28-54-60-25.29-3.65-29.19-60.19-38-76.42-6.31-11.08-24.31-67.87-16.41-63.79,23.84C3.56,597.74-26.32,638,5.08,662.17Z"/><path class="cls-45" d="M188.56,662c-2.79-13.62,13.85-30.51,27.79-30.51,22.63,0,38.65-11.66,55.07-24.68s46.42-8,57.15,5C344.5,631.07,349,649.51,348,662Z"/><path class="cls-46" d="M212.41,662.16c-2-8.77,10.07-19.65,20.2-19.65,16.46,0,30.85-8.16,44.54-20,11.52-10,33.61-4.52,40.23,4.59,9.91,13.67,11.94,28,10.9,35.08Z"/><path class="cls-47" d="M70.72,498.74a22.5,22.5,0,1,1-22.5,22.5A22.5,22.5,0,0,1,70.72,498.74Z"/><path class="cls-48" d="M73.51,504A15.74,15.74,0,1,1,57.78,519.7,15.74,15.74,0,0,1,73.51,504Z"/><path class="cls-22" d="M68.53,504.41c1.49,4.15-5.91,2-9.32,10.22-3.16,7.58.47,11.13-2.94,12-2.57.68-5.47-4.67-1.15-14.31C59,503.73,67.4,501.23,68.53,504.41Z"/><path class="cls-22" d="M56.6,529.79c3.32-2.41,6.07,2.73,3.1,4.48S53.91,531.75,56.6,529.79Z"/><path class="cls-47" d="M255.21,23a16.84,16.84,0,1,1-16.84,16.84A16.84,16.84,0,0,1,255.21,23Z"/><path class="cls-48" d="M257.3,26.92A11.78,11.78,0,1,1,245.53,38.7,11.78,11.78,0,0,1,257.3,26.92Z"/><path class="cls-22" d="M253.58,27.25c1.11,3.11-4.43,1.53-7,7.66-2.36,5.67.35,8.32-2.2,9-1.93.52-4.09-3.49-.86-10.7C246.43,26.74,252.73,24.87,253.58,27.25Z"/><path class="cls-22" d="M244.64,46.26c2.49-1.81,4.55,2,2.33,3.35S242.63,47.72,244.64,46.26Z"/><path class="cls-47" d="M322.94,588.39a20.81,20.81,0,1,1-20.81,20.81A20.82,20.82,0,0,1,322.94,588.39Z"/><path class="cls-48" d="M325.53,593.22A14.56,14.56,0,1,1,311,607.77,14.57,14.57,0,0,1,325.53,593.22Z"/><path class="cls-22" d="M320.92,593.63c1.38,3.84-5.47,1.89-8.62,9.46-2.92,7,.43,10.29-2.73,11.13-2.37.63-5.05-4.31-1.06-13.23C312.09,593,319.87,590.69,320.92,593.63Z"/><path class="cls-22" d="M309.88,617.11c3.08-2.23,5.62,2.53,2.87,4.15S307.39,618.92,309.88,617.11Z"/><path class="cls-47" d="M111.88,585.28a21.45,21.45,0,1,1-21.45,21.45A21.46,21.46,0,0,1,111.88,585.28Z"/><path class="cls-48" d="M114.54,590.26a15,15,0,1,1-15,15A15,15,0,0,1,114.54,590.26Z"/><path class="cls-22" d="M109.79,590.68c1.42,4-5.63,2-8.88,9.75-3,7.23.44,10.6-2.81,11.47-2.45.65-5.2-4.44-1.09-13.63C100.69,590,108.71,587.65,109.79,590.68Z"/><path class="cls-22" d="M98.42,614.88c3.17-2.3,5.79,2.6,3,4.27S95.86,616.74,98.42,614.88Z"/><path class="cls-47" d="M589.87,523.63A16.84,16.84,0,1,1,573,540.47,16.85,16.85,0,0,1,589.87,523.63Z"/><path class="cls-48" d="M592,527.54a11.78,11.78,0,1,1-11.78,11.77A11.77,11.77,0,0,1,592,527.54Z"/><path class="cls-22" d="M588.24,527.87c1.11,3.11-4.43,1.53-7,7.65-2.37,5.68.34,8.33-2.21,9-1.92.51-4.09-3.49-.86-10.71C581.09,527.36,587.38,525.49,588.24,527.87Z"/><path class="cls-22" d="M579.3,546.87c2.49-1.8,4.54,2,2.32,3.36S577.29,548.34,579.3,546.87Z"/><path class="cls-49" d="M384.1,212.54a12.93,12.93,0,1,1-12.93,12.92A12.92,12.92,0,0,1,384.1,212.54Z"/><path class="cls-50" d="M385.71,215.54a9,9,0,1,1-9,9A9,9,0,0,1,385.71,215.54Z"/><path class="cls-22" d="M382.85,215.79c.85,2.39-3.4,1.18-5.36,5.88-1.81,4.36.27,6.39-1.69,6.92-1.48.39-3.14-2.68-.66-8.23C377.36,215.4,382.2,214,382.85,215.79Z"/><path class="cls-22" d="M376,230.38c1.91-1.38,3.49,1.57,1.78,2.58A1.57,1.57,0,0,1,376,230.38Z"/><path class="cls-47" d="M609.54,427.71a22.42,22.42,0,1,1-22.42,22.42A22.42,22.42,0,0,1,609.54,427.71Z"/><path class="cls-48" d="M612.32,432.92a15.68,15.68,0,1,1-15.68,15.67A15.67,15.67,0,0,1,612.32,432.92Z"/><path class="cls-22" d="M607.36,433.36c1.48,4.14-5.89,2-9.28,10.19-3.15,7.55.46,11.08-2.94,12-2.56.69-5.44-4.64-1.14-14.25C597.85,432.68,606.23,430.19,607.36,433.36Z"/><path class="cls-22" d="M595.47,458.65c3.31-2.4,6,2.72,3.09,4.46S592.79,460.6,595.47,458.65Z"/><path class="cls-47" d="M44.25,65.08a23,23,0,1,1-23,23A23,23,0,0,1,44.25,65.08Z"/><path class="cls-48" d="M47.1,70.41A16.08,16.08,0,1,1,31,86.49,16.08,16.08,0,0,1,47.1,70.41Z"/><path class="cls-22" d="M42,70.87c1.52,4.24-6,2.09-9.52,10.44-3.23,7.75.47,11.37-3,12.3-2.63.7-5.58-4.76-1.17-14.62C32.27,70.17,40.86,67.62,42,70.87Z"/><path class="cls-22" d="M29.83,96.8c3.4-2.46,6.2,2.79,3.17,4.58S27.08,98.8,29.83,96.8Z"/><path class="cls-47" d="M577.5,114.09A13.45,13.45,0,1,1,564,127.54,13.45,13.45,0,0,1,577.5,114.09Z"/><path class="cls-48" d="M579.17,117.21a9.41,9.41,0,1,1-9.41,9.41A9.42,9.42,0,0,1,579.17,117.21Z"/><path class="cls-22" d="M576.19,117.48c.89,2.48-3.53,1.22-5.57,6.11-1.89,4.54.27,6.65-1.76,7.2-1.54.41-3.27-2.79-.69-8.56C570.48,117.07,575.51,115.58,576.19,117.48Z"/><path class="cls-22" d="M569.05,132.66c2-1.44,3.63,1.63,1.86,2.68A1.64,1.64,0,0,1,569.05,132.66Z"/><path class="cls-47" d="M605.2,9.81a18.09,18.09,0,1,1-18.08,18.08A18.09,18.09,0,0,1,605.2,9.81Z"/><path class="cls-48" d="M607.45,14A12.65,12.65,0,1,1,594.8,26.66,12.65,12.65,0,0,1,607.45,14Z"/><path class="cls-22" d="M603.45,14.36c1.19,3.35-4.75,1.65-7.49,8.23-2.54,6.09.37,8.94-2.37,9.67-2.07.55-4.39-3.75-.92-11.5C595.77,13.82,602.54,11.81,603.45,14.36Z"/><path class="cls-22" d="M593.86,34.77c2.67-1.94,4.88,2.19,2.49,3.6S591.69,36.34,593.86,34.77Z"/><path class="cls-47" d="M18.46,490.35A14.17,14.17,0,1,1,4.29,504.51,14.17,14.17,0,0,1,18.46,490.35Z"/><path class="cls-48" d="M20.22,493.64a9.91,9.91,0,1,1-9.91,9.9A9.91,9.91,0,0,1,20.22,493.64Z"/><path class="cls-22" d="M17.09,493.91c.93,2.62-3.73,1.29-5.87,6.44-2,4.78.29,7-1.86,7.58-1.62.43-3.44-2.93-.72-9C11.07,493.49,16.37,491.91,17.09,493.91Z"/><path class="cls-22" d="M9.57,509.9c2.09-1.52,3.82,1.72,1.95,2.82S7.88,511.13,9.57,509.9Z"/><path class="cls-47" d="M295.63,63.18a14.17,14.17,0,1,1-14.17,14.17A14.17,14.17,0,0,1,295.63,63.18Z"/><path class="cls-48" d="M297.38,66.47a9.91,9.91,0,1,1-9.9,9.91A9.91,9.91,0,0,1,297.38,66.47Z"/><path class="cls-22" d="M294.25,66.75c.94,2.62-3.72,1.29-5.87,6.44-2,4.77.29,7-1.85,7.58-1.62.43-3.44-2.94-.73-9C288.24,66.32,293.54,64.75,294.25,66.75Z"/><path class="cls-22" d="M286.74,82.74c2.09-1.52,3.82,1.71,1.95,2.82S285,84,286.74,82.74Z"/><path class="cls-49" d="M316.75,212.75a20.3,20.3,0,1,1-20.3,20.3A20.3,20.3,0,0,1,316.75,212.75Z"/><path class="cls-50" d="M319.27,217.47a14.2,14.2,0,1,1-14.2,14.19A14.19,14.19,0,0,1,319.27,217.47Z"/><path class="cls-22" d="M314.78,217.87c1.34,3.75-5.33,1.84-8.41,9.22-2.85,6.84.42,10-2.66,10.86-2.32.62-4.93-4.21-1-12.91C306.16,217.25,313.75,215,314.78,217.87Z"/><path class="cls-22" d="M304,240.77c3-2.18,5.48,2.46,2.8,4S301.58,242.53,304,240.77Z"/><path class="cls-19" d="M292.52,318.15a3.24,3.24,0,1,1-2.36,3.93A3.24,3.24,0,0,1,292.52,318.15Z"/><path class="cls-19" d="M305.56,311.37a4.19,4.19,0,1,1-3.05,5.08A4.2,4.2,0,0,1,305.56,311.37Z"/><path class="cls-19" d="M311.18,293a6.48,6.48,0,1,1-4.72,7.86A6.48,6.48,0,0,1,311.18,293Z"/><path class="cls-19" d="M295.48,281.68a3.24,3.24,0,1,1-2.36,3.93A3.24,3.24,0,0,1,295.48,281.68Z"/><path class="cls-19" d="M371.4,109.39a3.93,3.93,0,1,1-3.94,3.93A3.93,3.93,0,0,1,371.4,109.39Z"/><path class="cls-19" d="M382.11,117.43a3,3,0,1,1-3,3A3,3,0,0,1,382.11,117.43Z"/><path class="cls-19" d="M382.11,93.3A6.08,6.08,0,1,1,376,99.38,6.08,6.08,0,0,1,382.11,93.3Z"/><path class="cls-19" d="M376,83.47a3,3,0,1,1-3,3A3,3,0,0,1,376,83.47Z"/><path class="cls-19" d="M326.82,446.33a4.56,4.56,0,1,1-4.72,4.4A4.56,4.56,0,0,1,326.82,446.33Z"/><path class="cls-19" d="M337,457.27a2.77,2.77,0,1,1-2.86,2.67A2.76,2.76,0,0,1,337,457.27Z"/><path class="cls-19" d="M338.69,442.63a2.77,2.77,0,1,1-2.86,2.67A2.77,2.77,0,0,1,338.69,442.63Z"/><path class="cls-19" d="M336.43,430a4.38,4.38,0,1,1-4.54,4.23A4.4,4.4,0,0,1,336.43,430Z"/><path class="cls-51" d="M264.89,353.81c3.14,18.82,19,22.73,29.3,28,7.45,3.8-26,21.41-55.6-.16Z"/><path class="cls-52" d="M265.73,338c4.18,25.7-7.72,66.53-49.63,99C175.61,468.31,110,469.35,89.39,458.14c37.49-9.09,85.54-56.47,123-135.69Z"/><path class="cls-51" d="M268.35,299.4c4.2,2.21,10,1.48,17.19-1.07,5.43-1.93,9.15,10.26-2,21.34-1.85,1.71-1.7,6.77-.23,10.54,6.31,19.15-19.76,26-42.71,19-16.3,4.1-19.64,33.24-37.64,62.41-21.76,35.27-73.54,56.91-105,46.93-10.33,13.82-35,17.71-51.67,7,14.89-3.81,24-23.74,33.9-24.15-6-9.61-11-29.86-14-41.58,17,7.4,31.9,15.1,34.22,38.79,34.17,8.2,60.78-50.28,56.16-84.48C145.76,274.42,237.36,249.3,268.35,299.4Z"/><path class="cls-51" d="M220.74,366.15c12.36,13.45,30.44,1.37,34.77,7.29,5,6.77-17.21,29-51.92,25.68Z"/><path class="cls-21" d="M214.33,309.6c.82-4.85,5.72-8.51,9.89-7.16-1.77-2.57-5.52-2.48-7.51-1.14C213.82,303.22,213.43,306,214.33,309.6Z"/><path class="cls-23" d="M278.45,324.14c-3.11,4.42-22.93,12.3-33.24,12.91,5.8,6.37,21,7.53,30.15,2.21C282,335.38,278.16,331.07,278.45,324.14Z"/><path class="cls-24" d="M267.19,331c-7.64,2.75-17.11,5-23.25,5,5.78,7.24,20.63,8.9,30.39,3.94,1.16-.81,2.41-2.42,2.24-3.57C276,332.7,271.41,331.85,267.19,331Z"/><path class="cls-53" d="M268.35,299.4c-31-50.1-122.59-25-111.81,54.72,4.62,34.2-22,92.68-56.16,84.48-2.28-23.24-16.61-31.1-33.25-38.37,16.12,15,25.77,29.38,26.88,44.33,20.9,6.63,57.6-6.05,70.23-49.93,10.27-35.7-8-86,32.54-106.13,29.49-14.66,53.8-1.83,65.82,17,2.95,4.61,19.73,1.11,25.39-6.83a2.86,2.86,0,0,0-2.45-.34C278.38,300.88,272.55,301.61,268.35,299.4Z"/><path class="cls-54" d="M161.23,337.15C147.3,340.53,131.14,350.31,131,361c-.07,4.46,17.76-5.31,27,10.56Z"/><path class="cls-55" d="M209.59,340.2c-.29,5.36,11.84,4.78,12.56.54S209.88,334.84,209.59,340.2Z"/><path class="cls-21" d="M225.18,319.72c-7.94,1-6.47,17.66.18,17.25C234.05,336.44,231.78,318.91,225.18,319.72Z"/><path class="cls-22" d="M226.77,328.18c-3,.31-2.88,5.82.27,5.51C229.88,333.4,229.33,327.92,226.77,328.18Z"/><path class="cls-21" d="M227.68,321.62c1.81.32,3.93-.73,5.54-2.77.35,1.95-2.66,5.74-4.47,5.53Z"/><rect class="cls-56" x="591.31" y="591.31" width="70.87" height="70.87"/><circle class="cls-19" cx="635.5" cy="638.33" r="19.84" transform="translate(-199.98 974.93) rotate(-67.07)"/><path class="cls-19" d="M648.25,607.15a9.92,9.92,0,1,1-9.92,9.92A9.93,9.93,0,0,1,648.25,607.15Z"/><path class="cls-57" d="M633.65,635.16h-.88v-5.6a4.25,4.25,0,0,1-.83.6,5,5,0,0,1-.93.46v-.85a5,5,0,0,0,1.29-.84,3.45,3.45,0,0,0,.79-1h.56Z"/><path class="cls-57" d="M635.92,633.26l.88-.12a1.89,1.89,0,0,0,.52,1.08,1.26,1.26,0,0,0,.89.33,1.43,1.43,0,0,0,1-.43,1.46,1.46,0,0,0,.42-1.06,1.35,1.35,0,0,0-1.4-1.4,2.8,2.8,0,0,0-.62.1l.1-.77h.14a1.86,1.86,0,0,0,1-.29,1,1,0,0,0,.45-.9,1.09,1.09,0,0,0-.32-.8,1.29,1.29,0,0,0-1.71,0,1.63,1.63,0,0,0-.44,1l-.88-.16a2.22,2.22,0,0,1,.74-1.37,2.08,2.08,0,0,1,1.42-.49,2.32,2.32,0,0,1,1.08.25,1.8,1.8,0,0,1,.75.69,1.69,1.69,0,0,1,.26.92,1.46,1.46,0,0,1-.25.84,1.63,1.63,0,0,1-.73.6,1.64,1.64,0,0,1,1,.61,1.84,1.84,0,0,1,.35,1.16,2.15,2.15,0,0,1-.68,1.59,2.43,2.43,0,0,1-1.73.65,2.29,2.29,0,0,1-1.57-.56A2.21,2.21,0,0,1,635.92,633.26Z"/><path class="cls-58" d="M351.22,362.71h1.12v3.81h-1.12Zm-2.11,0h1.13v3.81h-1.13Z"/><rect x="355.5" y="361.83" width="1.4" height="10.7"/><path class="cls-58" d="M370.38,361.92v10.61h-1.19v-1.11a3,3,0,0,1-.58.55,4.44,4.44,0,0,1-.67.38,3.5,3.5,0,0,1-.74.2,5.49,5.49,0,0,1-.83.06,4.65,4.65,0,0,1-1.54-.24,3.37,3.37,0,0,1-1.21-.77,3.57,3.57,0,0,1-.79-1.21,4.18,4.18,0,0,1-.26-1.54,4.59,4.59,0,0,1,.06-.76,3.29,3.29,0,0,1,.19-.7,3.78,3.78,0,0,1,.33-.63,3.28,3.28,0,0,1,.44-.56,3.14,3.14,0,0,1,.6-.49,3.56,3.56,0,0,1,.67-.35,4,4,0,0,1,.74-.23,4,4,0,0,1,.77-.08,4.22,4.22,0,0,1,.82.08,3.74,3.74,0,0,1,.74.23,2.57,2.57,0,0,1,.62.36,3.14,3.14,0,0,1,.51.52v-4.32Zm-3.85,4.25a2.82,2.82,0,0,0-1,.21,2.41,2.41,0,0,0-.83.55,2.35,2.35,0,0,0-.55.85,3,3,0,0,0-.18,1.05,3,3,0,0,0,.18,1.07,2.27,2.27,0,0,0,.55.85,2.3,2.3,0,0,0,.83.56,2.82,2.82,0,0,0,1,.18,3,3,0,0,0,1.05-.18,2.18,2.18,0,0,0,.82-.56,2.27,2.27,0,0,0,.55-.85,3,3,0,0,0,.18-1.07,3,3,0,0,0-.18-1.05,2.35,2.35,0,0,0-.55-.85,2.28,2.28,0,0,0-.82-.55,2.76,2.76,0,0,0-1.05-.19Z"/><path class="cls-58" d="M375.79,371.58a2.24,2.24,0,0,0,.95-.18,2.09,2.09,0,0,0,.77-.57,2.56,2.56,0,0,0,.5-.86,3.43,3.43,0,0,0,.17-1.1,3.29,3.29,0,0,0-.17-1.07,2.51,2.51,0,0,0-.5-.87,2.37,2.37,0,0,0-.77-.58,2.24,2.24,0,0,0-.95-.19,2.33,2.33,0,0,0-1,.19,2.27,2.27,0,0,0-.77.58,2.7,2.7,0,0,0-.5.87,3.52,3.52,0,0,0,0,2.16,2.56,2.56,0,0,0,.5.86,2.15,2.15,0,0,0,.78.58,2.32,2.32,0,0,0,1,.19Zm0-6.58a4.78,4.78,0,0,1,.77.08,4.44,4.44,0,0,1,.71.21,3.13,3.13,0,0,1,.65.35,3.7,3.7,0,0,1,.57.49,3.48,3.48,0,0,1,.46.57,4.09,4.09,0,0,1,.34.66,4.68,4.68,0,0,1,.21.73,4.92,4.92,0,0,1,.07.78,5,5,0,0,1-.07.79,4.79,4.79,0,0,1-.21.74,4.44,4.44,0,0,1-.34.65,3.93,3.93,0,0,1-1.05,1.05,3.59,3.59,0,0,1-.64.34,4.84,4.84,0,0,1-.72.2,3.67,3.67,0,0,1-.75.07,3.87,3.87,0,0,1-.77-.07,4,4,0,0,1-.7-.2,2.94,2.94,0,0,1-.66-.34,3.73,3.73,0,0,1-.58-.47,4.18,4.18,0,0,1-.46-.58,3.68,3.68,0,0,1-.35-.65,3.58,3.58,0,0,1-.2-.73,5.1,5.1,0,0,1-.06-.8,4.93,4.93,0,0,1,.06-.78,3.76,3.76,0,0,1,.2-.73,3.45,3.45,0,0,1,.35-.66,4.1,4.1,0,0,1,.46-.57,2.9,2.9,0,0,1,.58-.48,3.45,3.45,0,0,1,.66-.35,3.35,3.35,0,0,1,.7-.22,3.87,3.87,0,0,1,.77-.07Z"/><path class="cls-58" d="M385.11,372.53v-7.34h1.28V366a3.21,3.21,0,0,1,.49-.42,2.92,2.92,0,0,1,.53-.31,3.13,3.13,0,0,1,.57-.18,2.32,2.32,0,0,1,.59-.07,2.71,2.71,0,0,1,1.13.22,2.26,2.26,0,0,1,.86.65,3.13,3.13,0,0,1,.55,1,4.6,4.6,0,0,1,.18,1.35v4.24H390v-4.12a4.22,4.22,0,0,0-.11-1,2,2,0,0,0-.3-.69,1.14,1.14,0,0,0-.51-.41,1.83,1.83,0,0,0-.73-.13,2.28,2.28,0,0,0-.86.14,1.57,1.57,0,0,0-.61.43,2,2,0,0,0-.37.71,3.65,3.65,0,0,0-.12,1v4.06Z"/><path class="cls-58" d="M396.59,371.58a2.25,2.25,0,0,0,1-.18,2.09,2.09,0,0,0,.77-.57,2.56,2.56,0,0,0,.5-.86,3.43,3.43,0,0,0,.17-1.1,3.29,3.29,0,0,0-.17-1.07,2.51,2.51,0,0,0-.5-.87,2.37,2.37,0,0,0-.77-.58,2.25,2.25,0,0,0-1-.19,2.32,2.32,0,0,0-1,.19,2.27,2.27,0,0,0-.77.58,2.56,2.56,0,0,0-.51.87,3.72,3.72,0,0,0,0,2.16,2.42,2.42,0,0,0,.51.86,2.15,2.15,0,0,0,.78.58,2.3,2.3,0,0,0,.95.19Zm0-6.58a4.66,4.66,0,0,1,.77.08,4.56,4.56,0,0,1,.72.21,3.13,3.13,0,0,1,.65.35,3.23,3.23,0,0,1,.56.49,3.56,3.56,0,0,1,.47.57,3.39,3.39,0,0,1,.33.66,3.19,3.19,0,0,1,.21.73,4,4,0,0,1,.07.78,4.07,4.07,0,0,1-.07.79,3.27,3.27,0,0,1-.21.74,3.61,3.61,0,0,1-.33.65,3.21,3.21,0,0,1-.48.58,4.18,4.18,0,0,1-.57.47,3.36,3.36,0,0,1-.65.34,4.41,4.41,0,0,1-.71.2,3.77,3.77,0,0,1-.76.07,3.84,3.84,0,0,1-.76-.07,4.14,4.14,0,0,1-.71-.2,3.44,3.44,0,0,1-.66-.34,4.18,4.18,0,0,1-.57-.47,4.26,4.26,0,0,1-.47-.58,3.64,3.64,0,0,1-.34-.65,3.58,3.58,0,0,1-.2-.73,4.11,4.11,0,0,1-.07-.8,4,4,0,0,1,.07-.78,3.76,3.76,0,0,1,.2-.73,3.42,3.42,0,0,1,.34-.66,4.18,4.18,0,0,1,.47-.57,3.16,3.16,0,0,1,.57-.48,4.17,4.17,0,0,1,.66-.35,3.44,3.44,0,0,1,.71-.22,3.84,3.84,0,0,1,.76-.07Z"/><path class="cls-58" d="M402.13,371v-4.74h-.95v-1.09h.95V363.4h1.32v1.79h1.24v1.09h-1.24v4.57a1.26,1.26,0,0,0,0,.3.53.53,0,0,0,.09.2.54.54,0,0,0,.18.11,1,1,0,0,0,.26,0h.68v1.23H404a3.37,3.37,0,0,1-.84-.09,1.39,1.39,0,0,1-.56-.27,1.28,1.28,0,0,1-.32-.53,2.62,2.62,0,0,1-.1-.79Z"/><path class="cls-58" d="M412.14,372.53l-2.74-7.34h1.35l1.63,4.65.06.22c0,.08.05.16.08.26l.06.28c0,.1.05.2.08.3l0-.14s0-.09,0-.14,0-.08,0-.12l0-.13.06-.24.08-.21,1.57-4.73h1.31l1.59,4.66a1.73,1.73,0,0,0,.08.27,1.73,1.73,0,0,1,.08.27.19.19,0,0,1,0,.08l0,.08a.43.43,0,0,0,0,.05s0,0,0,0l0,.13,0,.13a1.08,1.08,0,0,0,.05-.21,1.74,1.74,0,0,1,0-.22c0-.08,0-.16.07-.25s.06-.19.1-.3l1.62-4.73h1.3l-2.73,7.34h-1l-1.82-5.31a.64.64,0,0,1,0-.07l0-.08,0-.09,0-.08,0-.18c0-.06,0-.12-.05-.18a1.16,1.16,0,0,1,0,.18,1,1,0,0,1-.05.18l0,.16-.05.15-1.83,5.32Z"/><path class="cls-58" d="M425.42,371.51a2.62,2.62,0,0,0,1-.17,2.32,2.32,0,0,0,.81-.56,2.37,2.37,0,0,0,.54-.85,3.08,3.08,0,0,0,0-2.13,2.33,2.33,0,0,0-.54-.84,2.22,2.22,0,0,0-.81-.57,2.63,2.63,0,0,0-1-.19,2.44,2.44,0,0,0-1,.19,2.56,2.56,0,0,0-1.36,1.41,3.24,3.24,0,0,0,0,2.13,2.37,2.37,0,0,0,.54.85,2.45,2.45,0,0,0,.82.56,2.62,2.62,0,0,0,1,.18Zm3.78,1h-1.28v-1.19a3.12,3.12,0,0,1-.52.57,2.57,2.57,0,0,1-.62.41,2.46,2.46,0,0,1-.71.23,5.23,5.23,0,0,1-.81.06,6.06,6.06,0,0,1-.76-.05,3.58,3.58,0,0,1-.71-.2,3.82,3.82,0,0,1-.66-.36,5.2,5.2,0,0,1-.58-.49,4.81,4.81,0,0,1-.44-.57,5.49,5.49,0,0,1-.33-.64,5.13,5.13,0,0,1-.19-.7,4.56,4.56,0,0,1-.06-.75,4.6,4.6,0,0,1,.25-1.54,3.42,3.42,0,0,1,.77-1.21,3.18,3.18,0,0,1,1.19-.79,4.29,4.29,0,0,1,1.52-.26,3.53,3.53,0,0,1,1.55.35,3,3,0,0,1,.65.42,3.38,3.38,0,0,1,.54.59v-1.22h1.2Z"/><path class="cls-58" d="M431.41,372.53v-7.34h1.27V366a3.28,3.28,0,0,1,.5-.42,2.85,2.85,0,0,1,.52-.31,3.13,3.13,0,0,1,.57-.18,2.32,2.32,0,0,1,.59-.07,2.71,2.71,0,0,1,1.13.22,2.26,2.26,0,0,1,.86.65,2.79,2.79,0,0,1,.55,1,4.6,4.6,0,0,1,.18,1.35v4.24h-1.29v-4.12a4.25,4.25,0,0,0-.1-1,2,2,0,0,0-.3-.69,1.14,1.14,0,0,0-.51-.41,1.88,1.88,0,0,0-.74-.13,2.2,2.2,0,0,0-.85.14,1.61,1.61,0,0,0-.62.43,1.83,1.83,0,0,0-.36.71,3.28,3.28,0,0,0-.13,1v4.06Z"/><path class="cls-58" d="M439.76,371v-4.74h-.95v-1.09h.95V363.4h1.32v1.79h1.25v1.09h-1.25v4.57a.87.87,0,0,0,0,.3.53.53,0,0,0,.09.2.4.4,0,0,0,.18.11,1,1,0,0,0,.25,0h.69v1.23h-.75a3.49,3.49,0,0,1-.84-.09,1.39,1.39,0,0,1-.56-.27,1.26,1.26,0,0,1-.31-.53,2.6,2.6,0,0,1-.11-.79Z"/><path class="cls-58" d="M448,371v-4.74h-1v-1.09h1V363.4h1.31v1.79h1.25v1.09h-1.25v4.57a1.21,1.21,0,0,0,0,.3.53.53,0,0,0,.09.2.54.54,0,0,0,.18.11,1,1,0,0,0,.25,0h.69v1.23h-.74a3.37,3.37,0,0,1-.84-.09,1.39,1.39,0,0,1-.56-.27,1.28,1.28,0,0,1-.32-.53,2.62,2.62,0,0,1-.1-.79Z"/><path class="cls-58" d="M455.56,371.58a2.31,2.31,0,0,0,1-.18,2.06,2.06,0,0,0,.76-.57,2.58,2.58,0,0,0,.51-.86,3.44,3.44,0,0,0,.16-1.1,3.29,3.29,0,0,0-.16-1.07,2.53,2.53,0,0,0-.51-.87,2.14,2.14,0,0,0-1.72-.77,2.18,2.18,0,0,0-1.74.77,2.7,2.7,0,0,0-.5.87,3.52,3.52,0,0,0,0,2.16,2.56,2.56,0,0,0,.5.86,2.25,2.25,0,0,0,1.74.77Zm0-6.58a4.66,4.66,0,0,1,.77.08,4.44,4.44,0,0,1,.71.21,2.9,2.9,0,0,1,.65.35,3.7,3.7,0,0,1,.57.49,3.48,3.48,0,0,1,.46.57,3.42,3.42,0,0,1,.34.66,4.68,4.68,0,0,1,.21.73,4,4,0,0,1,.07.78,4.07,4.07,0,0,1-.07.79,4.79,4.79,0,0,1-.21.74,3.72,3.72,0,0,1-.81,1.23,3.73,3.73,0,0,1-.58.47,3.28,3.28,0,0,1-.64.34,4.41,4.41,0,0,1-.71.2,3.84,3.84,0,0,1-.76.07,3.77,3.77,0,0,1-.76-.07,3.9,3.9,0,0,1-.71-.2,3.44,3.44,0,0,1-.66-.34,4.18,4.18,0,0,1-.57-.47,3.62,3.62,0,0,1-.47-.58,3.68,3.68,0,0,1-.35-.65,3.58,3.58,0,0,1-.2-.73,5.1,5.1,0,0,1-.06-.8,4.93,4.93,0,0,1,.06-.78,3.76,3.76,0,0,1,.2-.73,3.45,3.45,0,0,1,.35-.66,3.56,3.56,0,0,1,.47-.57,3.16,3.16,0,0,1,.57-.48,4.17,4.17,0,0,1,.66-.35,3.26,3.26,0,0,1,.71-.22,3.77,3.77,0,0,1,.76-.07Z"/><path class="cls-58" d="M468.63,371.51a2.52,2.52,0,0,0,1-.17,2.32,2.32,0,0,0,.81-.56,2.22,2.22,0,0,0,.53-.85,3.24,3.24,0,0,0,0-2.13,2.18,2.18,0,0,0-.53-.84,2.22,2.22,0,0,0-.81-.57,2.81,2.81,0,0,0-2,0,2.25,2.25,0,0,0-.82.57,2.45,2.45,0,0,0-.53.84,3.24,3.24,0,0,0,0,2.13,2.49,2.49,0,0,0,.53.85,2.35,2.35,0,0,0,.82.56,2.73,2.73,0,0,0,1,.18Zm-3.77,1V361.92h1.19v4.48a3.32,3.32,0,0,1,.54-.58,3,3,0,0,1,.65-.42,3.91,3.91,0,0,1,.75-.26,3.44,3.44,0,0,1,.8-.09,4.29,4.29,0,0,1,1.52.26,3.47,3.47,0,0,1,1.95,2,4.36,4.36,0,0,1,.26,1.54,3.84,3.84,0,0,1-.07.76,3.38,3.38,0,0,1-.19.71,3.07,3.07,0,0,1-.31.63,4.5,4.5,0,0,1-.44.56,4.41,4.41,0,0,1-.58.47,4.8,4.8,0,0,1-.67.37,3.58,3.58,0,0,1-.71.2,4.68,4.68,0,0,1-.76.06,5.13,5.13,0,0,1-.81-.06,2.46,2.46,0,0,1-.71-.23,2.57,2.57,0,0,1-.62-.41,4,4,0,0,1-.52-.56v1.18Z"/><path class="cls-58" d="M474.9,368.24h4.89a2.52,2.52,0,0,0-.25-.82,2.31,2.31,0,0,0-.54-.67,2.26,2.26,0,0,0-.74-.45,2.75,2.75,0,0,0-.88-.14,2.57,2.57,0,0,0-.9.15,2.51,2.51,0,0,0-.77.45,2.28,2.28,0,0,0-.54.67,2.79,2.79,0,0,0-.27.83Zm0,1.05a2.45,2.45,0,0,0,.25.93,2.55,2.55,0,0,0,.55.73,2.71,2.71,0,0,0,.83.47,3.18,3.18,0,0,0,1,.16,3.13,3.13,0,0,0,.7-.08,2.8,2.8,0,0,0,.63-.23,3.64,3.64,0,0,0,.59-.37,5.2,5.2,0,0,0,.55-.51l.92.72a5,5,0,0,1-.73.73,4.38,4.38,0,0,1-.81.51,3.93,3.93,0,0,1-.88.27,5.42,5.42,0,0,1-1,.09,4.8,4.8,0,0,1-1.61-.29,4.28,4.28,0,0,1-.7-.38,4.14,4.14,0,0,1-.6-.52,3.74,3.74,0,0,1-.41-.55,3.05,3.05,0,0,1-.3-.63,3.46,3.46,0,0,1-.19-.7,3.35,3.35,0,0,1-.07-.71,4.65,4.65,0,0,1,.26-1.59,3.43,3.43,0,0,1,.78-1.24,3.51,3.51,0,0,1,1.21-.82,4.09,4.09,0,0,1,1.53-.27,4.14,4.14,0,0,1,1.57.29,3.69,3.69,0,0,1,2,2.2,5.38,5.38,0,0,1,.26,1.71v.08Z"/><path class="cls-58" d="M488.87,372.53l-3.08-7.34h1.46l1.9,4.65.07.19c0,.08.06.18.1.31s.08.27.12.44l.16.57.18-.54c.06-.16.1-.31.14-.45L490,370l.06-.19,1.93-4.66h1.43l-4.56,10.38h-1.33Z"/><path class="cls-58" d="M497.8,371.58a2.25,2.25,0,0,0,1-.18,2.09,2.09,0,0,0,.77-.57,2.56,2.56,0,0,0,.5-.86,3.43,3.43,0,0,0,.17-1.1,3.29,3.29,0,0,0-.17-1.07,2.51,2.51,0,0,0-.5-.87,2.37,2.37,0,0,0-.77-.58,2.25,2.25,0,0,0-1-.19,2.32,2.32,0,0,0-1,.19,2.27,2.27,0,0,0-.77.58,2.73,2.73,0,0,0-.51.87,3.52,3.52,0,0,0,0,2.16,2.58,2.58,0,0,0,.51.86,2.15,2.15,0,0,0,.78.58,2.3,2.3,0,0,0,.95.19Zm0-6.58a4.66,4.66,0,0,1,.77.08,4.56,4.56,0,0,1,.72.21,3.13,3.13,0,0,1,.65.35,3.23,3.23,0,0,1,.56.49,3.56,3.56,0,0,1,.47.57,3.39,3.39,0,0,1,.33.66,3.19,3.19,0,0,1,.21.73,4,4,0,0,1,.07.78,4.07,4.07,0,0,1-.07.79,3.27,3.27,0,0,1-.21.74,3.61,3.61,0,0,1-.33.65,3.21,3.21,0,0,1-.48.58,4.18,4.18,0,0,1-.57.47,3.36,3.36,0,0,1-.65.34,4.41,4.41,0,0,1-.71.2,3.77,3.77,0,0,1-.76.07,3.84,3.84,0,0,1-.76-.07,4.14,4.14,0,0,1-.71-.2,3.09,3.09,0,0,1-.65-.34,3.73,3.73,0,0,1-.58-.47,4.26,4.26,0,0,1-.47-.58,3.64,3.64,0,0,1-.34-.65,3.58,3.58,0,0,1-.2-.73,4.11,4.11,0,0,1-.07-.8,4,4,0,0,1,.07-.78,3.76,3.76,0,0,1,.2-.73,3.42,3.42,0,0,1,.34-.66,4.18,4.18,0,0,1,.47-.57,2.9,2.9,0,0,1,.58-.48,3.68,3.68,0,0,1,.65-.35,3.44,3.44,0,0,1,.71-.22,3.84,3.84,0,0,1,.76-.07Z"/><path class="cls-58" d="M504.4,365.19v4.08a3.6,3.6,0,0,0,.12,1,2,2,0,0,0,.35.72,1.49,1.49,0,0,0,.56.47,1.73,1.73,0,0,0,.75.15,1.79,1.79,0,0,0,.75-.15,1.6,1.6,0,0,0,.55-.45,2.13,2.13,0,0,0,.36-.74,3.58,3.58,0,0,0,.12-1v-4.09h1.29v4.15a4.38,4.38,0,0,1-.21,1.42,2.88,2.88,0,0,1-.6,1.07,2.5,2.5,0,0,1-1,.66,3.86,3.86,0,0,1-2.57,0,2.52,2.52,0,0,1-1-.65,3.1,3.1,0,0,1-.6-1.07,4.42,4.42,0,0,1-.21-1.42v-4.16Z"/><path class="cls-58" d="M511.36,372.53v-7.34h1.27V366a3.28,3.28,0,0,1,.5-.42,2.55,2.55,0,0,1,.52-.31,3.13,3.13,0,0,1,.57-.18,2.32,2.32,0,0,1,.59-.07,2.71,2.71,0,0,1,1.13.22,2.26,2.26,0,0,1,.86.65,3,3,0,0,1,.55,1,4.6,4.6,0,0,1,.18,1.35v4.24h-1.29v-4.12a4.25,4.25,0,0,0-.1-1,1.83,1.83,0,0,0-.31-.69,1.14,1.14,0,0,0-.51-.41,1.83,1.83,0,0,0-.73-.13,2.28,2.28,0,0,0-.86.14,1.65,1.65,0,0,0-.61.43,2,2,0,0,0-.37.71,3.65,3.65,0,0,0-.12,1v4.06Z"/><path class="cls-58" d="M523.09,371.51a2.52,2.52,0,0,0,1-.17,2.23,2.23,0,0,0,.81-.56,2.37,2.37,0,0,0,.54-.85,3.42,3.42,0,0,0,0-2.13,2.33,2.33,0,0,0-.54-.84,2.14,2.14,0,0,0-.81-.57,2.53,2.53,0,0,0-1-.19,2.58,2.58,0,0,0-1,.19,2.34,2.34,0,0,0-.82.57,2.45,2.45,0,0,0-.53.84,3.24,3.24,0,0,0,0,2.13,2.49,2.49,0,0,0,.53.85,2.45,2.45,0,0,0,.82.56,2.76,2.76,0,0,0,1,.18Zm2.42-.17a2.89,2.89,0,0,1-.48.56,2.71,2.71,0,0,1-.6.42,2.46,2.46,0,0,1-.71.23,5.4,5.4,0,0,1-.83.06,4.52,4.52,0,0,1-.74-.06,3.58,3.58,0,0,1-.71-.2,4.18,4.18,0,0,1-.66-.37,4.41,4.41,0,0,1-.58-.47,3.41,3.41,0,0,1-.45-.57,3.51,3.51,0,0,1-.33-.64,5.15,5.15,0,0,1-.2-.7,4.54,4.54,0,0,1-.07-.75,4.36,4.36,0,0,1,.26-1.54,3.32,3.32,0,0,1,.78-1.21,3.35,3.35,0,0,1,1.19-.79,4.23,4.23,0,0,1,1.51-.26,3.7,3.7,0,0,1,.83.09,3.6,3.6,0,0,1,.74.26,3,3,0,0,1,.65.42,3.43,3.43,0,0,1,.55.59v-1.22h1.19v6.29a5.71,5.71,0,0,1-.25,1.8,3.28,3.28,0,0,1-.75,1.29,3.2,3.2,0,0,1-1.25.8,5,5,0,0,1-1.72.27,5.65,5.65,0,0,1-1.11-.11,4.4,4.4,0,0,1-1-.31,4.45,4.45,0,0,1-.82-.51,4.9,4.9,0,0,1-.71-.73l1-.77a3.61,3.61,0,0,0,.54.56,4.38,4.38,0,0,0,.62.4,3.58,3.58,0,0,0,.7.23,3.22,3.22,0,0,0,.76.09,3.27,3.27,0,0,0,1.13-.18,2.13,2.13,0,0,0,.82-.52,2.4,2.4,0,0,0,.48-.86,3.72,3.72,0,0,0,.16-1.17Z"/><path class="cls-58" d="M535.63,363.06h-.07a3.28,3.28,0,0,0-.52.07.73.73,0,0,0-.33.17.75.75,0,0,0-.17.38,3.13,3.13,0,0,0-.06.67v.84h1.15v1.09h-1.15v6.25h-1.34v-6.25H532v-1.09h1.1v-.81a3.82,3.82,0,0,1,.15-1.13,2,2,0,0,1,.42-.77,2,2,0,0,1,.77-.46,3.8,3.8,0,0,1,1.14-.17Z"/><path class="cls-58" d="M540.33,371.58a2.31,2.31,0,0,0,1-.18,2.14,2.14,0,0,0,.76-.57,2.56,2.56,0,0,0,.5-.86,3.43,3.43,0,0,0,.17-1.1,3.29,3.29,0,0,0-.17-1.07,2.51,2.51,0,0,0-.5-.87,2.45,2.45,0,0,0-.76-.58,2.55,2.55,0,0,0-1.93,0,2.27,2.27,0,0,0-.77.58,2.7,2.7,0,0,0-.5.87,3.52,3.52,0,0,0,0,2.16,2.56,2.56,0,0,0,.5.86,2.15,2.15,0,0,0,.78.58,2.32,2.32,0,0,0,1,.19Zm0-6.58a4.78,4.78,0,0,1,.77.08,4.44,4.44,0,0,1,.71.21,3.13,3.13,0,0,1,.65.35,3.7,3.7,0,0,1,.57.49,3.48,3.48,0,0,1,.46.57,4.09,4.09,0,0,1,.34.66,4.68,4.68,0,0,1,.21.73,4.92,4.92,0,0,1,.07.78,5,5,0,0,1-.07.79,4.79,4.79,0,0,1-.21.74,4.44,4.44,0,0,1-.34.65,3.93,3.93,0,0,1-1,1.05,3.59,3.59,0,0,1-.64.34,4.84,4.84,0,0,1-.72.2,3.67,3.67,0,0,1-.75.07,3.87,3.87,0,0,1-.77-.07,4,4,0,0,1-.7-.2,2.94,2.94,0,0,1-.66-.34,3.73,3.73,0,0,1-.58-.47,4.18,4.18,0,0,1-.46-.58,3.68,3.68,0,0,1-.35-.65,3.58,3.58,0,0,1-.2-.73,5.1,5.1,0,0,1-.06-.8,4.93,4.93,0,0,1,.06-.78,3.76,3.76,0,0,1,.2-.73,3.45,3.45,0,0,1,.35-.66,4.1,4.1,0,0,1,.46-.57,2.9,2.9,0,0,1,.58-.48,3.45,3.45,0,0,1,.66-.35,3.35,3.35,0,0,1,.7-.22,3.87,3.87,0,0,1,.77-.07Z"/><path class="cls-58" d="M545.78,372.53v-7.34H547v1a2.48,2.48,0,0,1,.37-.47,2.33,2.33,0,0,1,.44-.35,1.58,1.58,0,0,1,.52-.21,2.25,2.25,0,0,1,.6-.07h.43v1.32l-.18,0-.15,0h-.3a1.83,1.83,0,0,0-.73.13,1.21,1.21,0,0,0-.53.39,1.76,1.76,0,0,0-.31.66,3.51,3.51,0,0,0-.11.92v4.09Z"/><path class="cls-58" d="M551.46,368.24h4.89a2.52,2.52,0,0,0-.25-.82,2.28,2.28,0,0,0-.53-.67,2.42,2.42,0,0,0-.75-.45,2.75,2.75,0,0,0-.88-.14,2.62,2.62,0,0,0-.9.15,2.35,2.35,0,0,0-.76.45,2.17,2.17,0,0,0-.55.67,2.79,2.79,0,0,0-.27.83Zm0,1.05a2.45,2.45,0,0,0,.25.93,2.55,2.55,0,0,0,.55.73,2.71,2.71,0,0,0,.83.47,3.24,3.24,0,0,0,1,.16,3.1,3.1,0,0,0,.69-.08,3.07,3.07,0,0,0,.64-.23,3.56,3.56,0,0,0,.58-.37,5.2,5.2,0,0,0,.55-.51l.92.72a4.58,4.58,0,0,1-.73.73,4.38,4.38,0,0,1-.81.51,3.93,3.93,0,0,1-.88.27,5.42,5.42,0,0,1-1,.09,4.6,4.6,0,0,1-.84-.08,4.85,4.85,0,0,1-.77-.21,4.28,4.28,0,0,1-.7-.38,4.14,4.14,0,0,1-.6-.52,3.69,3.69,0,0,1-.4-.55,2.64,2.64,0,0,1-.31-.63,3.46,3.46,0,0,1-.19-.7,4.17,4.17,0,0,1-.06-.71,4.65,4.65,0,0,1,.25-1.59,3.72,3.72,0,0,1,.78-1.24,3.61,3.61,0,0,1,1.21-.82A4.18,4.18,0,0,1,554,365a4.13,4.13,0,0,1,1.56.29,3.69,3.69,0,0,1,2,2.2,5.12,5.12,0,0,1,.26,1.71v.08Z"/><path class="cls-58" d="M561.78,372.53l-3.25-7.34H560l2,5.07a.07.07,0,0,0,0,.06l0,.08c.06.15.11.29.15.41l.12.36.1-.29c0-.09.05-.16.07-.23s0-.11,0-.15a.38.38,0,0,0,0-.13l2.12-5.18h1.37l-3.22,7.34Z"/><path class="cls-58" d="M568.08,368.24H573a2.52,2.52,0,0,0-.25-.82,2.16,2.16,0,0,0-.54-.67,2.26,2.26,0,0,0-.74-.45,2.75,2.75,0,0,0-.88-.14,2.57,2.57,0,0,0-.9.15,2.51,2.51,0,0,0-.77.45,2.28,2.28,0,0,0-.54.67,2.79,2.79,0,0,0-.27.83Zm0,1.05a2.45,2.45,0,0,0,.25.93,2.55,2.55,0,0,0,.55.73,2.71,2.71,0,0,0,.83.47,3.18,3.18,0,0,0,1,.16,3.13,3.13,0,0,0,.7-.08,2.8,2.8,0,0,0,.63-.23,3.25,3.25,0,0,0,.59-.37,5.2,5.2,0,0,0,.55-.51l.92.72a5,5,0,0,1-.73.73,4.38,4.38,0,0,1-.81.51,3.93,3.93,0,0,1-.88.27,5.42,5.42,0,0,1-1,.09,4.8,4.8,0,0,1-1.61-.29,4.28,4.28,0,0,1-.7-.38,4.14,4.14,0,0,1-.6-.52,4.62,4.62,0,0,1-.41-.55,3.05,3.05,0,0,1-.3-.63,3.46,3.46,0,0,1-.19-.7,3.35,3.35,0,0,1-.07-.71,4.65,4.65,0,0,1,.26-1.59,3.57,3.57,0,0,1,.78-1.24,3.51,3.51,0,0,1,1.21-.82,4.4,4.4,0,0,1,3.09,0,3.54,3.54,0,0,1,1.23.87,3.73,3.73,0,0,1,.79,1.33,5.38,5.38,0,0,1,.26,1.71v.08Z"/><path class="cls-58" d="M576.12,372.53v-7.34h1.21v1a3,3,0,0,1,.38-.47,2.33,2.33,0,0,1,.44-.35,1.58,1.58,0,0,1,.52-.21,2.25,2.25,0,0,1,.6-.07h.43v1.32l-.18,0-.15,0h-.3a1.83,1.83,0,0,0-.73.13,1.21,1.21,0,0,0-.53.39,1.76,1.76,0,0,0-.31.66,3.51,3.51,0,0,0-.11.92v4.09Z"/><path class="cls-58" d="M579.91,371.83a.77.77,0,0,1,.07-.34.82.82,0,0,1,.19-.28,1,1,0,0,1,.3-.19.93.93,0,0,1,.34-.06,1,1,0,0,1,.35.06.87.87,0,0,1,.28.19,1,1,0,0,1,.19.28.78.78,0,0,1,.08.35.77.77,0,0,1-.08.34,1,1,0,0,1-.19.29,1.46,1.46,0,0,1-.3.17.72.72,0,0,1-.33.07.77.77,0,0,1-.34-.07,1.19,1.19,0,0,1-.29-.18.86.86,0,0,1-.2-.28.77.77,0,0,1-.07-.34Z"/><path class="cls-58" d="M586.81,362.71h1.12v3.81h-1.12Zm-2.11,0h1.13v3.81H584.7Z"/><path class="cls-58" d="M349.74,345.82v-4.74h-.95V340h.95V338.2h1.31V340h1.25v1.09h-1.25v4.57a1.21,1.21,0,0,0,0,.3.53.53,0,0,0,.09.2.54.54,0,0,0,.18.11,1,1,0,0,0,.26,0h.68v1.23h-.74a3.37,3.37,0,0,1-.84-.09,1.39,1.39,0,0,1-.56-.27,1.22,1.22,0,0,1-.32-.53,2.62,2.62,0,0,1-.1-.79Z"/><path class="cls-58" d="M358.9,347.33v-4.12a5,5,0,0,0-.09-1,1.82,1.82,0,0,0-.29-.69,1.22,1.22,0,0,0-.5-.4,1.83,1.83,0,0,0-.73-.13,2.38,2.38,0,0,0-.84.14,1.47,1.47,0,0,0-.6.43,2,2,0,0,0-.35.71,3.28,3.28,0,0,0-.13,1v4.06h-1.32V336.72h1.32v4.11a3.63,3.63,0,0,1,.47-.42,3.3,3.3,0,0,1,.51-.31,2.62,2.62,0,0,1,.56-.18,2.46,2.46,0,0,1,.6-.07,2.71,2.71,0,0,1,1.13.22,2.26,2.26,0,0,1,.86.65,3.13,3.13,0,0,1,.55,1,4.6,4.6,0,0,1,.18,1.35v4.24Z"/><path class="cls-58" d="M363.06,343h4.88a2.3,2.3,0,0,0-.25-.82,2.28,2.28,0,0,0-.53-.67,2.17,2.17,0,0,0-.74-.44,2.56,2.56,0,0,0-.89-.15,2.66,2.66,0,0,0-.9.15,2.46,2.46,0,0,0-.76.45,2.17,2.17,0,0,0-.55.67,2.52,2.52,0,0,0-.26.83Zm0,1a2.45,2.45,0,0,0,.24.93,2.75,2.75,0,0,0,.55.73,2.6,2.6,0,0,0,.83.46,3,3,0,0,0,1,.17,3.1,3.1,0,0,0,.69-.08,3.07,3.07,0,0,0,.64-.23,5.27,5.27,0,0,0,.59-.37,6.32,6.32,0,0,0,.54-.51l.93.72a5.08,5.08,0,0,1-.74.73,3.85,3.85,0,0,1-.8.51,4,4,0,0,1-.89.27,5.31,5.31,0,0,1-1,.09,4.8,4.8,0,0,1-1.61-.29,3.59,3.59,0,0,1-.7-.38,3.73,3.73,0,0,1-.61-.52,3.69,3.69,0,0,1-.4-.55,3.08,3.08,0,0,1-.31-.63,4.26,4.26,0,0,1-.19-.7,4.17,4.17,0,0,1-.06-.71,4.65,4.65,0,0,1,.26-1.59,3.55,3.55,0,0,1,.77-1.24,3.7,3.7,0,0,1,1.22-.82,4.4,4.4,0,0,1,3.09,0,3.6,3.6,0,0,1,1.22.87,3.76,3.76,0,0,1,.8,1.33,5.39,5.39,0,0,1,.25,1.71v.08Z"/><path class="cls-58" d="M378.17,346.38a2.25,2.25,0,0,0,1-.18,2,2,0,0,0,.76-.57,2.42,2.42,0,0,0,.51-.86,3.43,3.43,0,0,0,.17-1.1,3.29,3.29,0,0,0-.17-1.07,2.54,2.54,0,0,0-1.27-1.45,2.25,2.25,0,0,0-1-.19,2.32,2.32,0,0,0-1,.19,2.41,2.41,0,0,0-.77.58,2.56,2.56,0,0,0-.51.87,3.29,3.29,0,0,0-.17,1.07,3.33,3.33,0,0,0,.17,1.09,2.42,2.42,0,0,0,.51.86,2.15,2.15,0,0,0,.78.58,2.3,2.3,0,0,0,.95.19Zm0-6.58a3.79,3.79,0,0,1,.77.08,4.56,4.56,0,0,1,.72.21,3.13,3.13,0,0,1,.65.35,3.7,3.7,0,0,1,.57.49,4.1,4.1,0,0,1,.46.57,3.39,3.39,0,0,1,.33.66,3.19,3.19,0,0,1,.21.73,4.44,4.44,0,0,1,0,1.57,3.27,3.27,0,0,1-.21.74,3.61,3.61,0,0,1-.33.65,3.21,3.21,0,0,1-.48.58,3.56,3.56,0,0,1-.57.47,3.36,3.36,0,0,1-.65.34,4.41,4.41,0,0,1-.71.2,3.77,3.77,0,0,1-.76.07,3.84,3.84,0,0,1-.76-.07,4.14,4.14,0,0,1-.71-.2,3.44,3.44,0,0,1-.66-.34,3.56,3.56,0,0,1-.57-.47,4.26,4.26,0,0,1-.47-.58,3.64,3.64,0,0,1-.34-.65,3.58,3.58,0,0,1-.2-.73,4.11,4.11,0,0,1-.07-.8,4,4,0,0,1,.07-.78,3.76,3.76,0,0,1,.2-.73,3.42,3.42,0,0,1,.34-.66,4.18,4.18,0,0,1,.47-.57,3.16,3.16,0,0,1,.57-.48,4.17,4.17,0,0,1,.66-.35,3.44,3.44,0,0,1,.71-.22,3.84,3.84,0,0,1,.76-.07Z"/><path class="cls-58" d="M383.71,345.82v-4.74h-.95V340h.95V338.2H385V340h1.24v1.09H385v4.57a1.26,1.26,0,0,0,0,.3.53.53,0,0,0,.09.2.54.54,0,0,0,.18.11,1,1,0,0,0,.25,0h.69v1.23h-.74a3.37,3.37,0,0,1-.84-.09,1.39,1.39,0,0,1-.56-.27,1.22,1.22,0,0,1-.32-.53,2.62,2.62,0,0,1-.1-.79Z"/><path class="cls-58" d="M392.87,347.33v-4.12a5,5,0,0,0-.09-1,1.82,1.82,0,0,0-.29-.69,1.22,1.22,0,0,0-.5-.4,1.83,1.83,0,0,0-.73-.13,2.38,2.38,0,0,0-.84.14,1.41,1.41,0,0,0-.6.43,2,2,0,0,0-.35.71,3.28,3.28,0,0,0-.13,1v4.06H388V336.72h1.32v4.11a3.63,3.63,0,0,1,.47-.42,3.3,3.3,0,0,1,.51-.31,2.62,2.62,0,0,1,.56-.18,2.46,2.46,0,0,1,.6-.07,2.71,2.71,0,0,1,1.13.22,2.26,2.26,0,0,1,.86.65,3.13,3.13,0,0,1,.55,1,4.6,4.6,0,0,1,.18,1.35v4.24Z"/><path class="cls-58" d="M397,343h4.88a2.3,2.3,0,0,0-.25-.82,2.28,2.28,0,0,0-.53-.67,2.17,2.17,0,0,0-.74-.44,2.56,2.56,0,0,0-.89-.15,2.66,2.66,0,0,0-.9.15,2.46,2.46,0,0,0-.76.45,2.17,2.17,0,0,0-.55.67,2.52,2.52,0,0,0-.26.83Zm0,1a2.45,2.45,0,0,0,.24.93,2.75,2.75,0,0,0,.55.73,2.6,2.6,0,0,0,.83.46,3,3,0,0,0,1,.17,3.1,3.1,0,0,0,.69-.08,3.07,3.07,0,0,0,.64-.23,5.27,5.27,0,0,0,.59-.37,6.32,6.32,0,0,0,.54-.51l.93.72a5.08,5.08,0,0,1-.74.73,3.85,3.85,0,0,1-.8.51,4,4,0,0,1-.89.27,5.31,5.31,0,0,1-1,.09,4.8,4.8,0,0,1-1.61-.29,3.59,3.59,0,0,1-.7-.38,3.73,3.73,0,0,1-.61-.52,3.69,3.69,0,0,1-.4-.55,3.08,3.08,0,0,1-.31-.63,4.26,4.26,0,0,1-.19-.7,4.17,4.17,0,0,1-.06-.71,4.42,4.42,0,0,1,.26-1.59,3.55,3.55,0,0,1,.77-1.24,3.76,3.76,0,0,1,1.21-.82,4.18,4.18,0,0,1,1.54-.27,4.05,4.05,0,0,1,1.56.29,3.69,3.69,0,0,1,2,2.2,5.12,5.12,0,0,1,.26,1.71v.08Z"/><path class="cls-58" d="M405.06,347.33V340h1.22v1a2.52,2.52,0,0,1,.38-.47,2.28,2.28,0,0,1,.43-.35,1.58,1.58,0,0,1,.52-.21,2.3,2.3,0,0,1,.6-.07h.43v1.32l-.18,0-.15,0H408a1.85,1.85,0,0,0-.74.13,1.21,1.21,0,0,0-.53.39,1.93,1.93,0,0,0-.31.66,3.51,3.51,0,0,0-.11.92v4.09Z"/><path class="cls-58" d="M421.12,336.72v10.61h-1.19v-1.11a3,3,0,0,1-.58.55,4,4,0,0,1-.67.38,3.5,3.5,0,0,1-.74.2,5.49,5.49,0,0,1-.83.06,4.65,4.65,0,0,1-1.54-.24,3.37,3.37,0,0,1-1.21-.77,3.57,3.57,0,0,1-.79-1.21,4.22,4.22,0,0,1-.26-1.54,4.59,4.59,0,0,1,.06-.76,3.29,3.29,0,0,1,.19-.7,3.78,3.78,0,0,1,.33-.63,3.28,3.28,0,0,1,.44-.56,3.14,3.14,0,0,1,.6-.49,3.56,3.56,0,0,1,.67-.35,4,4,0,0,1,.74-.23,4,4,0,0,1,.77-.08,4.22,4.22,0,0,1,.82.08,3.74,3.74,0,0,1,.74.23,3,3,0,0,1,.62.36,3.14,3.14,0,0,1,.51.52v-4.32ZM417.27,341a3,3,0,0,0-1,.2,2.59,2.59,0,0,0-.83.56,2.35,2.35,0,0,0-.55.85,3,3,0,0,0-.18,1.05,3,3,0,0,0,.18,1.07,2.19,2.19,0,0,0,.55.85,2.3,2.3,0,0,0,.83.56,2.82,2.82,0,0,0,1,.18,3,3,0,0,0,1.05-.18,2.54,2.54,0,0,0,1.37-1.41,3,3,0,0,0,.18-1.07,3,3,0,0,0-.18-1.05,2.35,2.35,0,0,0-.55-.85,2.44,2.44,0,0,0-.82-.56,3,3,0,0,0-1.05-.18Z"/><path class="cls-58" d="M426.53,346.38a2.24,2.24,0,0,0,1-.18,2.09,2.09,0,0,0,.77-.57,2.56,2.56,0,0,0,.5-.86,3.43,3.43,0,0,0,.17-1.1,3.29,3.29,0,0,0-.17-1.07,2.45,2.45,0,0,0-1.27-1.45,2.24,2.24,0,0,0-1-.19,2.33,2.33,0,0,0-1,.19,2.41,2.41,0,0,0-.77.58,2.7,2.7,0,0,0-.5.87,3,3,0,0,0-.17,1.07,3.08,3.08,0,0,0,.17,1.09,2.56,2.56,0,0,0,.5.86,2.24,2.24,0,0,0,.78.58,2.32,2.32,0,0,0,1,.19Zm0-6.58a3.87,3.87,0,0,1,.77.08,4.44,4.44,0,0,1,.71.21,3.13,3.13,0,0,1,.65.35,3.7,3.7,0,0,1,.57.49,3.48,3.48,0,0,1,.46.57,4.09,4.09,0,0,1,.34.66,4.68,4.68,0,0,1,.21.73,4.44,4.44,0,0,1,0,1.57,4.79,4.79,0,0,1-.21.74,4.44,4.44,0,0,1-.34.65,3.21,3.21,0,0,1-.48.58,2.85,2.85,0,0,1-.57.47,3.59,3.59,0,0,1-.64.34,4.84,4.84,0,0,1-.72.2,3.67,3.67,0,0,1-.75.07,3.87,3.87,0,0,1-.77-.07,4,4,0,0,1-.7-.2,2.94,2.94,0,0,1-.66-.34,3.23,3.23,0,0,1-.58-.47,4.18,4.18,0,0,1-.46-.58,3.68,3.68,0,0,1-.35-.65,3.58,3.58,0,0,1-.2-.73,5.1,5.1,0,0,1-.06-.8,4.93,4.93,0,0,1,.06-.78,3.76,3.76,0,0,1,.2-.73,3.45,3.45,0,0,1,.35-.66,4.1,4.1,0,0,1,.46-.57,2.9,2.9,0,0,1,.58-.48,3.45,3.45,0,0,1,.66-.35,3.35,3.35,0,0,1,.7-.22,3.87,3.87,0,0,1,.77-.07Z"/><rect x="431.96" y="336.72" width="1.27" height="10.61"/><path class="cls-58" d="M439.21,346.31a2.52,2.52,0,0,0,1-.17,2.23,2.23,0,0,0,.81-.56,2.37,2.37,0,0,0,.54-.85,3.42,3.42,0,0,0,0-2.13,2.33,2.33,0,0,0-.54-.84,2.14,2.14,0,0,0-.81-.57,2.53,2.53,0,0,0-1-.19,2.58,2.58,0,0,0-1,.19,2.34,2.34,0,0,0-.82.57,2.45,2.45,0,0,0-.53.84,3.24,3.24,0,0,0,0,2.13,2.49,2.49,0,0,0,.53.85,2.45,2.45,0,0,0,.82.56,2.76,2.76,0,0,0,1,.18Zm-3.77,4.06V340h1.19v1.21a3.32,3.32,0,0,1,.54-.58,3,3,0,0,1,.65-.42,3.91,3.91,0,0,1,.75-.26,3.59,3.59,0,0,1,.81-.09,4.23,4.23,0,0,1,1.51.26,3.18,3.18,0,0,1,1.19.79,3.42,3.42,0,0,1,.77,1.21,4.36,4.36,0,0,1,.25,1.54,4.77,4.77,0,0,1-.06.76,5.28,5.28,0,0,1-.19.71,3.63,3.63,0,0,1-.76,1.19,4.41,4.41,0,0,1-.58.47,5.32,5.32,0,0,1-.66.37,3.87,3.87,0,0,1-.72.2,4.56,4.56,0,0,1-.75.06,5.36,5.36,0,0,1-.82-.06,2.76,2.76,0,0,1-1.33-.64,4.66,4.66,0,0,1-.52-.56v4.22Z"/><path class="cls-58" d="M449.6,347.33v-4.12a5,5,0,0,0-.09-1,1.82,1.82,0,0,0-.29-.69,1.22,1.22,0,0,0-.5-.4A1.83,1.83,0,0,0,448,341a2.38,2.38,0,0,0-.84.14,1.54,1.54,0,0,0-.6.43,2,2,0,0,0-.35.71,3.28,3.28,0,0,0-.13,1v4.06h-1.31V336.72h1.31v4.11a3.63,3.63,0,0,1,.47-.42,3.86,3.86,0,0,1,.51-.31,2.81,2.81,0,0,1,.56-.18,2.46,2.46,0,0,1,.6-.07,2.71,2.71,0,0,1,1.13.22,2.26,2.26,0,0,1,.86.65,2.79,2.79,0,0,1,.55,1,4.6,4.6,0,0,1,.18,1.35v4.24Z"/><path class="cls-58" d="M453,347.33V340h1.32v7.34Zm-.21-9.8a.88.88,0,0,1,.07-.32.89.89,0,0,1,.19-.3,1,1,0,0,1,.3-.19.86.86,0,0,1,.68,0,.81.81,0,0,1,.29.19,1,1,0,0,1,.19.28,1,1,0,0,1,.06.35.93.93,0,0,1-.06.34.81.81,0,0,1-.19.29.85.85,0,0,1-.29.19,1,1,0,0,1-.34.06.93.93,0,0,1-.34-.06.72.72,0,0,1-.29-.2.86.86,0,0,1-.2-.28.94.94,0,0,1-.07-.34Z"/><path class="cls-58" d="M456.52,347.33V340h1.27v.84a5,5,0,0,1,.5-.43,3.12,3.12,0,0,1,.53-.3,2.81,2.81,0,0,1,.56-.18,2.4,2.4,0,0,1,.6-.07,2.71,2.71,0,0,1,1.13.22,2.34,2.34,0,0,1,.86.65,2.93,2.93,0,0,1,.54,1,4.58,4.58,0,0,1,.19,1.35v4.24h-1.29v-4.12a4.22,4.22,0,0,0-.11-1,2,2,0,0,0-.3-.69,1.21,1.21,0,0,0-.51-.41,1.83,1.83,0,0,0-.73-.13,2.46,2.46,0,0,0-.86.14,1.57,1.57,0,0,0-.61.43,2,2,0,0,0-.37.71,3.62,3.62,0,0,0-.13,1v4.06Z"/><path class="cls-58" d="M465.55,345.2a1.71,1.71,0,0,0,.13.55,1,1,0,0,0,.26.39,1.4,1.4,0,0,0,.42.22,1.72,1.72,0,0,0,.58.09,1.76,1.76,0,0,0,.58-.09,1.11,1.11,0,0,0,.44-.24.91.91,0,0,0,.29-.36,1.21,1.21,0,0,0,.09-.48.76.76,0,0,0-.37-.62,3.41,3.41,0,0,0-1.09-.48l-.19-.05-.14,0a5.27,5.27,0,0,1-1-.38,3.11,3.11,0,0,1-.68-.47,1.94,1.94,0,0,1-.39-.6,2,2,0,0,1-.13-.72,1.89,1.89,0,0,1,.18-.82,2.32,2.32,0,0,1,.54-.69,3,3,0,0,1,.8-.45,3,3,0,0,1,1-.15,3.41,3.41,0,0,1,1.05.15,2.6,2.6,0,0,1,.8.45,2.08,2.08,0,0,1,.5.72,2.45,2.45,0,0,1,.17.93v0h-1.23a1.85,1.85,0,0,0-.1-.49,1.23,1.23,0,0,0-.24-.38.94.94,0,0,0-.39-.23,1.64,1.64,0,0,0-.52-.07,2.15,2.15,0,0,0-.53.06,1,1,0,0,0-.41.22.84.84,0,0,0-.36.71,1,1,0,0,0,.06.36.74.74,0,0,0,.19.27,1.66,1.66,0,0,0,.43.23c.2.08.45.16.76.25l.07,0,.1,0c.42.12.77.24,1,.35a2.27,2.27,0,0,1,.6.32,2.2,2.2,0,0,1,.3.31,1.65,1.65,0,0,1,.22.36,2,2,0,0,1,.14.41,2.32,2.32,0,0,1,0,.46,2.19,2.19,0,0,1-.18.9,2,2,0,0,1-.53.74,2.27,2.27,0,0,1-.84.45,3.59,3.59,0,0,1-1.07.15,4.1,4.1,0,0,1-1.11-.14,2,2,0,0,1-.83-.45,1.74,1.74,0,0,1-.53-.72,2.9,2.9,0,0,1-.2-1Z"/><polygon class="cls-58" points="471.86 345.54 473.12 346.14 471.37 349.67 470.51 349.26 471.86 345.54"/><path class="cls-58" d="M476.77,337.51h1.12v3.81h-1.12Zm-2.12,0h1.14v3.81h-1.14Z"/><path class="cls-58" d="M484.94,342.37H486a2.82,2.82,0,0,0,1-.13,2,2,0,0,0,.75-.44,1.86,1.86,0,0,0,.48-.73,2.83,2.83,0,0,0,.15-.95,2.37,2.37,0,0,0-.17-.95,1.8,1.8,0,0,0-.5-.69,2.12,2.12,0,0,0-.82-.42,4.1,4.1,0,0,0-1.11-.14h-.88Zm-1.4,5v-10.7h2.28a5.67,5.67,0,0,1,1.66.25,3.68,3.68,0,0,1,1.28.73,3.09,3.09,0,0,1,.82,1.12,3.94,3.94,0,0,1,0,2.84,3,3,0,0,1-.79,1.12,3.49,3.49,0,0,1-1.2.73,4.45,4.45,0,0,1-1.5.24h-1.16v3.68Z"/><path class="cls-58" d="M496.14,347.33v-4.12a5,5,0,0,0-.09-1,1.82,1.82,0,0,0-.29-.69,1.22,1.22,0,0,0-.5-.4,1.83,1.83,0,0,0-.73-.13,2.38,2.38,0,0,0-.84.14,1.47,1.47,0,0,0-.6.43,2,2,0,0,0-.35.71,3.28,3.28,0,0,0-.13,1v4.06h-1.32V336.72h1.32v4.11a3.63,3.63,0,0,1,.47-.42,3.3,3.3,0,0,1,.51-.31,2.62,2.62,0,0,1,.56-.18,2.46,2.46,0,0,1,.6-.07,2.71,2.71,0,0,1,1.13.22,2.26,2.26,0,0,1,.86.65,3.13,3.13,0,0,1,.55,1,4.6,4.6,0,0,1,.18,1.35v4.24Z"/><path class="cls-58" d="M499.51,347.33V340h1.32v7.34Zm-.21-9.8a.71.71,0,0,1,.07-.32,1,1,0,0,1,.18-.3,1.13,1.13,0,0,1,.31-.19.77.77,0,0,1,.34-.07.8.8,0,0,1,.34.07.91.91,0,0,1,.29.19,1.26,1.26,0,0,1,.19.28,1,1,0,0,1,.06.35.93.93,0,0,1-.06.34,1,1,0,0,1-.19.29.89.89,0,0,1-.3.19.88.88,0,0,1-.33.06.93.93,0,0,1-.34-.06.72.72,0,0,1-.29-.2.73.73,0,0,1-.2-.28.77.77,0,0,1-.07-.34Z"/><path class="cls-58" d="M503.06,347.33V340h1.27v.84a5,5,0,0,1,.5-.43,3.12,3.12,0,0,1,.53-.3,2.81,2.81,0,0,1,.56-.18,2.35,2.35,0,0,1,.6-.07,2.67,2.67,0,0,1,1.12.22,2.29,2.29,0,0,1,.87.65,2.93,2.93,0,0,1,.54,1,4.6,4.6,0,0,1,.18,1.35v4.24H508v-4.12a4.22,4.22,0,0,0-.11-1,2,2,0,0,0-.3-.69,1.21,1.21,0,0,0-.51-.41,1.88,1.88,0,0,0-.74-.13,2.44,2.44,0,0,0-.85.14,1.69,1.69,0,0,0-.62.43,1.83,1.83,0,0,0-.36.71,3.62,3.62,0,0,0-.13,1v4.06Z"/><path class="cls-58" d="M511.33,347.33V340h1.28v.84a4.87,4.87,0,0,1,.49-.43,3.56,3.56,0,0,1,.53-.3,3.13,3.13,0,0,1,.57-.18,2.32,2.32,0,0,1,.59-.07,2.71,2.71,0,0,1,1.13.22,2.26,2.26,0,0,1,.86.65,3.13,3.13,0,0,1,.55,1,4.6,4.6,0,0,1,.18,1.35v4.24h-1.29v-4.12a4.22,4.22,0,0,0-.11-1,2,2,0,0,0-.3-.69,1.21,1.21,0,0,0-.51-.41,1.83,1.83,0,0,0-.73-.13,2.5,2.5,0,0,0-.86.14,1.65,1.65,0,0,0-.61.43,2,2,0,0,0-.37.71,3.65,3.65,0,0,0-.12,1v4.06Z"/><path class="cls-58" d="M519.55,347.33V340h1.32v7.34Zm-.21-9.8a.87.87,0,0,1,.06-.32,1.37,1.37,0,0,1,.19-.3,1.25,1.25,0,0,1,.3-.19.84.84,0,0,1,.35-.07.8.8,0,0,1,.34.07.91.91,0,0,1,.29.19,1.26,1.26,0,0,1,.19.28,1,1,0,0,1,.06.35.93.93,0,0,1-.06.34,1,1,0,0,1-.19.29.89.89,0,0,1-.3.19.88.88,0,0,1-.33.06,1,1,0,0,1-.35-.06.76.76,0,0,1-.28-.2.89.89,0,0,1-.21-.28.93.93,0,0,1-.06-.34Z"/><path class="cls-58" d="M523.83,343h4.88a2.3,2.3,0,0,0-.25-.82,2.28,2.28,0,0,0-.53-.67,2.08,2.08,0,0,0-.74-.44,2.56,2.56,0,0,0-.89-.15,2.66,2.66,0,0,0-.9.15,2.46,2.46,0,0,0-.76.45,2.32,2.32,0,0,0-.55.67,2.52,2.52,0,0,0-.26.83Zm0,1a2.65,2.65,0,0,0,.24.93,2.59,2.59,0,0,0,.56.73,2.45,2.45,0,0,0,.82.46,3,3,0,0,0,1,.17,3.1,3.1,0,0,0,.69-.08,3.07,3.07,0,0,0,.64-.23,5.27,5.27,0,0,0,.59-.37,5.12,5.12,0,0,0,.54-.51l.93.72a5.08,5.08,0,0,1-.74.73,3.6,3.6,0,0,1-.8.51,4,4,0,0,1-.89.27,5.31,5.31,0,0,1-1,.09,4.8,4.8,0,0,1-1.61-.29,3.59,3.59,0,0,1-.7-.38,3.73,3.73,0,0,1-.61-.52,4.56,4.56,0,0,1-.4-.55,3.69,3.69,0,0,1-.31-.63,4.26,4.26,0,0,1-.19-.7,4.17,4.17,0,0,1-.06-.71,4.65,4.65,0,0,1,.26-1.59,3.43,3.43,0,0,1,.78-1.24,3.56,3.56,0,0,1,1.21-.82,4.4,4.4,0,0,1,3.09,0,3.73,3.73,0,0,1,1.23.87,3.88,3.88,0,0,1,.79,1.33,5.39,5.39,0,0,1,.25,1.71v.08Z"/><path class="cls-58" d="M535.82,345.82v-4.74h-1V340h1V338.2h1.32V340h1.24v1.09h-1.24v4.57a1.26,1.26,0,0,0,0,.3,1.29,1.29,0,0,0,.09.2.5.5,0,0,0,.19.11.9.9,0,0,0,.25,0h.68v1.23h-.74a3.43,3.43,0,0,1-.84-.09,1.39,1.39,0,0,1-.56-.27,1.2,1.2,0,0,1-.31-.53,2.6,2.6,0,0,1-.11-.79Z"/><path class="cls-58" d="M545,347.33v-4.12a5,5,0,0,0-.09-1,1.82,1.82,0,0,0-.29-.69,1.22,1.22,0,0,0-.5-.4,1.83,1.83,0,0,0-.73-.13,2.38,2.38,0,0,0-.84.14,1.54,1.54,0,0,0-.6.43,2,2,0,0,0-.35.71,3.28,3.28,0,0,0-.13,1v4.06h-1.31V336.72h1.31v4.11a3.63,3.63,0,0,1,.47-.42,3.3,3.3,0,0,1,.51-.31,2.81,2.81,0,0,1,.56-.18,2.46,2.46,0,0,1,.6-.07,2.71,2.71,0,0,1,1.13.22,2.26,2.26,0,0,1,.86.65,3,3,0,0,1,.55,1,4.6,4.6,0,0,1,.18,1.35v4.24Z"/><path class="cls-58" d="M551.62,346.38a2.31,2.31,0,0,0,1-.18,2.14,2.14,0,0,0,.76-.57,2.56,2.56,0,0,0,.5-.86,3.43,3.43,0,0,0,.17-1.1,3.29,3.29,0,0,0-.17-1.07,2.51,2.51,0,0,0-.5-.87,2.61,2.61,0,0,0-.76-.58,2.55,2.55,0,0,0-1.93,0,2.41,2.41,0,0,0-.77.58,2.7,2.7,0,0,0-.5.87,3,3,0,0,0-.17,1.07,3.08,3.08,0,0,0,.17,1.09,2.56,2.56,0,0,0,.5.86,2.24,2.24,0,0,0,.78.58,2.32,2.32,0,0,0,1,.19Zm0-6.58a3.87,3.87,0,0,1,.77.08,4.44,4.44,0,0,1,.71.21,3.13,3.13,0,0,1,.65.35,3.7,3.7,0,0,1,.57.49,3.48,3.48,0,0,1,.46.57,4.09,4.09,0,0,1,.34.66,4.68,4.68,0,0,1,.21.73,4.44,4.44,0,0,1,0,1.57,4.79,4.79,0,0,1-.21.74,4.44,4.44,0,0,1-.34.65,3.21,3.21,0,0,1-.48.58,2.85,2.85,0,0,1-.57.47,3.28,3.28,0,0,1-.64.34,4.52,4.52,0,0,1-.72.2,3.67,3.67,0,0,1-.75.07,3.94,3.94,0,0,1-.77-.07,4,4,0,0,1-.7-.2,2.94,2.94,0,0,1-.66-.34,3.23,3.23,0,0,1-.58-.47,4.18,4.18,0,0,1-.46-.58,3.68,3.68,0,0,1-.35-.65,3.58,3.58,0,0,1-.2-.73,5.1,5.1,0,0,1-.06-.8,4.93,4.93,0,0,1,.06-.78,3.76,3.76,0,0,1,.2-.73,3.45,3.45,0,0,1,.35-.66,4.1,4.1,0,0,1,.46-.57,2.9,2.9,0,0,1,.58-.48,3.45,3.45,0,0,1,.66-.35,3.35,3.35,0,0,1,.7-.22,3.94,3.94,0,0,1,.77-.07Z"/><path class="cls-58" d="M558.22,340v4.08a3.6,3.6,0,0,0,.12,1,2,2,0,0,0,.34.72,1.57,1.57,0,0,0,.56.47,1.76,1.76,0,0,0,.75.15,1.79,1.79,0,0,0,.75-.15,1.64,1.64,0,0,0,.56-.45,2.11,2.11,0,0,0,.35-.74,3.58,3.58,0,0,0,.12-1V340h1.29v4.15a4.68,4.68,0,0,1-.2,1.42,3.05,3.05,0,0,1-.61,1.07,2.47,2.47,0,0,1-1,.66,3.89,3.89,0,0,1-2.58,0,2.48,2.48,0,0,1-1-.65,2.81,2.81,0,0,1-.6-1.07,4.15,4.15,0,0,1-.22-1.42V340Z"/><path class="cls-58" d="M568.63,346.31a2.52,2.52,0,0,0,1-.17,2.32,2.32,0,0,0,.81-.56,2.37,2.37,0,0,0,.54-.85,3.42,3.42,0,0,0,0-2.13,2.33,2.33,0,0,0-.54-.84,2.22,2.22,0,0,0-.81-.57,2.81,2.81,0,0,0-2,0,2.34,2.34,0,0,0-.82.57,2.45,2.45,0,0,0-.53.84,3.24,3.24,0,0,0,0,2.13,2.49,2.49,0,0,0,.53.85,2.45,2.45,0,0,0,.82.56,2.73,2.73,0,0,0,1,.18Zm2.42-.17a3.29,3.29,0,0,1-.48.57,3,3,0,0,1-.6.41,2.46,2.46,0,0,1-.71.23,5.4,5.4,0,0,1-.83.06,4.52,4.52,0,0,1-.74-.06,3.87,3.87,0,0,1-.72-.2,4.56,4.56,0,0,1-.65-.37,4.41,4.41,0,0,1-.58-.47,3,3,0,0,1-.45-.57,3.51,3.51,0,0,1-.33-.64,4,4,0,0,1-.2-.7,3.67,3.67,0,0,1-.07-.75,4.36,4.36,0,0,1,.26-1.54,3.32,3.32,0,0,1,.78-1.21,3.27,3.27,0,0,1,1.19-.79,4.23,4.23,0,0,1,1.51-.26,3.77,3.77,0,0,1,.83.09,3.82,3.82,0,0,1,.74.26,3,3,0,0,1,.65.42,3.88,3.88,0,0,1,.55.59V340h1.19v6.29a5.71,5.71,0,0,1-.25,1.8,3.18,3.18,0,0,1-.76,1.29,3.09,3.09,0,0,1-1.24.8,5,5,0,0,1-1.72.27,5.57,5.57,0,0,1-1.11-.11,3.9,3.9,0,0,1-1.79-.83,4.9,4.9,0,0,1-.72-.72l1-.77a3.61,3.61,0,0,0,.54.56,4.38,4.38,0,0,0,.62.4,3.58,3.58,0,0,0,.7.23,3.22,3.22,0,0,0,.76.09,3.17,3.17,0,0,0,1.12-.18,2,2,0,0,0,.82-.52,2.28,2.28,0,0,0,.49-.86,4,4,0,0,0,.16-1.17Z"/><path class="cls-58" d="M579.3,347.33v-4.12a5,5,0,0,0-.09-1,1.82,1.82,0,0,0-.29-.69,1.22,1.22,0,0,0-.5-.4,1.83,1.83,0,0,0-.73-.13,2.38,2.38,0,0,0-.84.14,1.54,1.54,0,0,0-.6.43,2,2,0,0,0-.35.71,3.28,3.28,0,0,0-.13,1v4.06h-1.31V336.72h1.31v4.11a3.63,3.63,0,0,1,.47-.42,3.3,3.3,0,0,1,.51-.31,2.81,2.81,0,0,1,.56-.18,2.46,2.46,0,0,1,.6-.07,2.71,2.71,0,0,1,1.13.22,2.26,2.26,0,0,1,.86.65,3,3,0,0,1,.55,1,4.6,4.6,0,0,1,.18,1.35v4.24Z"/><path class="cls-58" d="M582.81,345.82v-4.74h-.95V340h.95V338.2h1.32V340h1.25v1.09h-1.25v4.57a1.26,1.26,0,0,0,0,.3,1.29,1.29,0,0,0,.09.2.5.5,0,0,0,.19.11,1,1,0,0,0,.25,0h.69v1.23h-.75a3.49,3.49,0,0,1-.84-.09,1.39,1.39,0,0,1-.56-.27,1.2,1.2,0,0,1-.31-.53,2.6,2.6,0,0,1-.11-.79Z"/><path class="cls-58" d="M587.06,346.63a.93.93,0,0,1,.06-.34,1,1,0,0,1,.19-.28,1.17,1.17,0,0,1,.3-.19,1,1,0,0,1,.34-.06,1,1,0,0,1,.35.06.92.92,0,0,1,.28.19,1,1,0,0,1,.2.28.78.78,0,0,1,.07.35.77.77,0,0,1-.07.34,1.08,1.08,0,0,1-.2.29,1.69,1.69,0,0,1-.29.17.74.74,0,0,1-.34.07.8.8,0,0,1-.34-.07,1.41,1.41,0,0,1-.29-.18.86.86,0,0,1-.2-.28.93.93,0,0,1-.06-.34Z"/><path class="cls-58" d="M382.22,312.31h1.12v3.81h-1.12Zm-2.11,0h1.13v3.81h-1.13Z"/><rect x="386.5" y="311.43" width="1.4" height="10.7"/><path class="cls-58" d="M396,322.13l-2.74-7.34h1.36l1.62,4.65a1.87,1.87,0,0,0,.07.22c0,.08,0,.16.07.26a2.86,2.86,0,0,0,.07.28c0,.1,0,.2.07.3l0-.14,0-.14,0-.12c0-.05,0-.09,0-.13a2.17,2.17,0,0,1,.07-.24c0-.07.05-.14.07-.21l1.57-4.73h1.32l1.58,4.66c0,.1.06.19.08.27s.06.17.09.27,0,.05,0,.08a.19.19,0,0,0,0,.08.11.11,0,0,1,0,.05.05.05,0,0,0,0,0l0,.13a.59.59,0,0,1,0,.13,1.08,1.08,0,0,0,.05-.21c0-.07,0-.15.05-.22s0-.16.07-.25l.1-.3,1.62-4.73h1.31L402,322.13h-1l-1.82-5.31,0-.07,0-.08,0-.09s0-.05,0-.08a7.07,7.07,0,0,0-.09-.36l0,.19-.05.17a.75.75,0,0,1,0,.16.88.88,0,0,1-.05.15l-1.83,5.32Z"/><path class="cls-58" d="M405.9,322.13v-7.34h1.31v7.34Zm-.21-9.8a.87.87,0,0,1,.06-.32,1.08,1.08,0,0,1,.19-.3,1,1,0,0,1,.3-.19.8.8,0,0,1,.34-.07.81.81,0,0,1,.35.07.77.77,0,0,1,.28.19.82.82,0,0,1,.19.28.78.78,0,0,1,.07.35.84.84,0,0,1-.07.35.73.73,0,0,1-.19.28.85.85,0,0,1-.29.19.9.9,0,0,1-.34.06,1,1,0,0,1-.34-.06.69.69,0,0,1-.28-.2.76.76,0,0,1-.21-.28.93.93,0,0,1-.06-.34Z"/><path class="cls-58" d="M410.2,320a1.71,1.71,0,0,0,.13.55,1,1,0,0,0,.26.39,1.4,1.4,0,0,0,.42.22,1.72,1.72,0,0,0,.58.09,1.76,1.76,0,0,0,.58-.09,1.11,1.11,0,0,0,.44-.24.91.91,0,0,0,.29-.36,1.21,1.21,0,0,0,.09-.48.76.76,0,0,0-.37-.62,3.41,3.41,0,0,0-1.09-.48l-.19-.05-.14,0a5.27,5.27,0,0,1-1-.38,3.11,3.11,0,0,1-.68-.47,2,2,0,0,1-.39-.59,2.11,2.11,0,0,1-.13-.73,1.89,1.89,0,0,1,.18-.82,2.32,2.32,0,0,1,.54-.69,3,3,0,0,1,.8-.45,3,3,0,0,1,1-.15,3.41,3.41,0,0,1,1.05.15,2.6,2.6,0,0,1,.8.45,2.08,2.08,0,0,1,.5.72,2.45,2.45,0,0,1,.17.93v0h-1.23a1.85,1.85,0,0,0-.1-.49,1.23,1.23,0,0,0-.24-.38.94.94,0,0,0-.39-.23,1.64,1.64,0,0,0-.52-.07,2,2,0,0,0-.52.06,1,1,0,0,0-.42.22.84.84,0,0,0-.36.71,1,1,0,0,0,.06.36.66.66,0,0,0,.19.27,2,2,0,0,0,.43.23c.2.08.45.16.76.25l.07,0,.1,0c.42.12.77.24,1.05.35a2.27,2.27,0,0,1,.6.32,2.2,2.2,0,0,1,.3.31,1.65,1.65,0,0,1,.22.36,1.88,1.88,0,0,1,.14.42,2.15,2.15,0,0,1,0,.45,2.19,2.19,0,0,1-.18.9,2,2,0,0,1-.53.74,2.34,2.34,0,0,1-.84.45,3.59,3.59,0,0,1-1.07.15,4.1,4.1,0,0,1-1.11-.14,2,2,0,0,1-.83-.45,1.74,1.74,0,0,1-.53-.72,2.9,2.9,0,0,1-.2-1Z"/><path class="cls-58" d="M420.82,322.13V318a5,5,0,0,0-.09-1,1.82,1.82,0,0,0-.29-.69,1.22,1.22,0,0,0-.5-.4,1.83,1.83,0,0,0-.73-.13,2.38,2.38,0,0,0-.84.14,1.54,1.54,0,0,0-.6.43,2,2,0,0,0-.35.71,3.32,3.32,0,0,0-.13,1v4.06H416V311.52h1.32v4.11a3.63,3.63,0,0,1,.47-.42,3.3,3.3,0,0,1,.51-.31,3.35,3.35,0,0,1,.56-.19,3.05,3.05,0,0,1,.6-.06,2.71,2.71,0,0,1,1.13.22,2.26,2.26,0,0,1,.86.65,3,3,0,0,1,.55,1,4.6,4.6,0,0,1,.18,1.35v4.24Z"/><rect x="428.22" y="311.43" width="1.4" height="10.7"/><path class="cls-58" d="M440.83,316.5a2.17,2.17,0,0,0-.36-.32,3.38,3.38,0,0,0-.41-.24,2.68,2.68,0,0,0-1-.18,2.32,2.32,0,0,0-1,.19,2.73,2.73,0,0,0-.79.58,2.51,2.51,0,0,0-.5.87,3.29,3.29,0,0,0-.17,1.07,3.33,3.33,0,0,0,.17,1.09,2.56,2.56,0,0,0,.5.86,2.34,2.34,0,0,0,.77.57,2.55,2.55,0,0,0,1,.19,2.35,2.35,0,0,0,.54-.06,3.14,3.14,0,0,0,.49-.15,4.28,4.28,0,0,0,.42-.26,1.56,1.56,0,0,0,.33-.35l.86.94a4.2,4.2,0,0,1-.6.48,3.26,3.26,0,0,1-.62.31,6,6,0,0,1-.67.16,4.38,4.38,0,0,1-.75.06,4,4,0,0,1-.78-.07c-.25-.05-.49-.11-.73-.18a3.87,3.87,0,0,1-.64-.34,3.38,3.38,0,0,1-.55-.45,3.8,3.8,0,0,1-.47-.59,4.71,4.71,0,0,1-.35-.67,3.89,3.89,0,0,1-.21-.74,5.1,5.1,0,0,1-.06-.8,5.16,5.16,0,0,1,.06-.79,3.61,3.61,0,0,1,.21-.75,5.19,5.19,0,0,1,.35-.66,3.73,3.73,0,0,1,.47-.58,2.75,2.75,0,0,1,.56-.46,3.83,3.83,0,0,1,.63-.34,4.89,4.89,0,0,1,.72-.21,4,4,0,0,1,.79-.07,4.47,4.47,0,0,1,.75.06,3.26,3.26,0,0,1,.65.18,3.08,3.08,0,0,1,.61.28,4.3,4.3,0,0,1,.56.42Z"/><path class="cls-58" d="M446.59,321.18a2.16,2.16,0,0,0,1.72-.75,2.56,2.56,0,0,0,.5-.86,3.43,3.43,0,0,0,.17-1.1,3.29,3.29,0,0,0-.17-1.07,2.45,2.45,0,0,0-1.27-1.45,2.24,2.24,0,0,0-1-.19,2.33,2.33,0,0,0-1,.19,2.41,2.41,0,0,0-.77.58,2.7,2.7,0,0,0-.5.87,3,3,0,0,0-.17,1.07,3.08,3.08,0,0,0,.17,1.09,2.56,2.56,0,0,0,.5.86,2.15,2.15,0,0,0,.78.58,2.32,2.32,0,0,0,1,.19Zm0-6.58a4.78,4.78,0,0,1,.77.08,4.44,4.44,0,0,1,.71.21,3.13,3.13,0,0,1,.65.35,3.7,3.7,0,0,1,.57.49,3.63,3.63,0,0,1,.8,1.23,4.68,4.68,0,0,1,.21.73,4.92,4.92,0,0,1,.07.78,5,5,0,0,1-.07.79,4.79,4.79,0,0,1-.21.74,4.44,4.44,0,0,1-.34.65,3.6,3.6,0,0,1-.48.58,2.85,2.85,0,0,1-.57.47,3.59,3.59,0,0,1-.64.34,4.84,4.84,0,0,1-.72.2,3.67,3.67,0,0,1-.75.07,3.87,3.87,0,0,1-.77-.07,4,4,0,0,1-.7-.2,2.94,2.94,0,0,1-.66-.34,3.23,3.23,0,0,1-.58-.47,4.87,4.87,0,0,1-.46-.58,3.68,3.68,0,0,1-.35-.65,3.58,3.58,0,0,1-.2-.73,5.1,5.1,0,0,1-.06-.8,4.93,4.93,0,0,1,.06-.78,3.76,3.76,0,0,1,.2-.73,3.45,3.45,0,0,1,.35-.66,4.1,4.1,0,0,1,.46-.57,2.9,2.9,0,0,1,.58-.48,3.45,3.45,0,0,1,.66-.35,3.35,3.35,0,0,1,.7-.22,3.87,3.87,0,0,1,.77-.07Z"/><path class="cls-58" d="M453.19,314.79v4.08a4.07,4.07,0,0,0,.11,1,2,2,0,0,0,.35.72,1.57,1.57,0,0,0,.56.47,1.73,1.73,0,0,0,.75.15,1.79,1.79,0,0,0,.75-.15,1.64,1.64,0,0,0,.56-.45,2.31,2.31,0,0,0,.35-.74,3.58,3.58,0,0,0,.12-1v-4.09H458v4.15a4.68,4.68,0,0,1-.2,1.42,3,3,0,0,1-.61,1.07,2.47,2.47,0,0,1-1,.66,3.89,3.89,0,0,1-2.58,0,2.48,2.48,0,0,1-1-.65,3.12,3.12,0,0,1-.61-1.07,4.42,4.42,0,0,1-.21-1.42v-4.16Z"/><rect x="460.12" y="311.52" width="1.27" height="10.61"/><path class="cls-58" d="M470.85,311.52v10.61h-1.19V321a2.73,2.73,0,0,1-.58.55,4.34,4.34,0,0,1-.66.38,3.67,3.67,0,0,1-.74.2,5.59,5.59,0,0,1-.83.06,4.65,4.65,0,0,1-1.54-.24,3.41,3.41,0,0,1-1.22-.77,3.54,3.54,0,0,1-.78-1.21,4.18,4.18,0,0,1-.27-1.54,4.68,4.68,0,0,1,.06-.76,5.13,5.13,0,0,1,.19-.7,6.25,6.25,0,0,1,.33-.63,3.87,3.87,0,0,1,.44-.56,3.54,3.54,0,0,1,.61-.49,3.28,3.28,0,0,1,.67-.35,3.92,3.92,0,0,1,1.51-.31,4.3,4.3,0,0,1,.82.08,3.65,3.65,0,0,1,.73.23,2.63,2.63,0,0,1,.63.36,3.14,3.14,0,0,1,.51.52v-4.32ZM467,315.77a3.14,3.14,0,0,0-1,.2,2.59,2.59,0,0,0-.83.56,2.46,2.46,0,0,0-.54.85,2.76,2.76,0,0,0-.19,1.05,2.83,2.83,0,0,0,.19,1.07,2.46,2.46,0,0,0,1.37,1.41,3.09,3.09,0,0,0,2.08,0,2.14,2.14,0,0,0,.83-.56,2.45,2.45,0,0,0,.55-.85,3,3,0,0,0,.18-1.07,3,3,0,0,0-.18-1.05,2.64,2.64,0,0,0-.55-.85,2.39,2.39,0,0,0-.83-.56,2.89,2.89,0,0,0-1.05-.18Z"/><path class="cls-58" d="M480.67,321.11a2.52,2.52,0,0,0,1-.17,2.15,2.15,0,0,0,.81-.56,2.37,2.37,0,0,0,.54-.85,3.42,3.42,0,0,0,0-2.13,2.33,2.33,0,0,0-.54-.84,2.17,2.17,0,0,0-.81-.57,2.53,2.53,0,0,0-1-.19,2.58,2.58,0,0,0-1,.19,2.48,2.48,0,0,0-.82.57,2.45,2.45,0,0,0-.53.84,3.24,3.24,0,0,0,0,2.13,2.49,2.49,0,0,0,.53.85,2.45,2.45,0,0,0,.82.56,2.76,2.76,0,0,0,1,.18Zm-3.77,1V311.52h1.19V316a3.32,3.32,0,0,1,.54-.58,3,3,0,0,1,.65-.42,4.45,4.45,0,0,1,.75-.26,3.59,3.59,0,0,1,.81-.09,4.33,4.33,0,0,1,1.52.26,3.23,3.23,0,0,1,1.18.79,3.42,3.42,0,0,1,.77,1.21,4.36,4.36,0,0,1,.25,1.54,4.77,4.77,0,0,1-.06.76,4.12,4.12,0,0,1-.19.71,3.63,3.63,0,0,1-.76,1.19,3.84,3.84,0,0,1-.58.47,5.32,5.32,0,0,1-.66.37,3.67,3.67,0,0,1-.72.2,4.56,4.56,0,0,1-.75.06,5.13,5.13,0,0,1-.81-.06,2.53,2.53,0,0,1-.72-.23,2.25,2.25,0,0,1-.61-.41,4,4,0,0,1-.52-.56v1.18Z"/><path class="cls-58" d="M487,317.84h4.88a2.45,2.45,0,0,0-.25-.82,2.28,2.28,0,0,0-.53-.67,2.12,2.12,0,0,0-.75-.44,2.46,2.46,0,0,0-.88-.15,2.62,2.62,0,0,0-.9.15,2.46,2.46,0,0,0-.76.45,2.17,2.17,0,0,0-.55.67,2.52,2.52,0,0,0-.26.83Zm0,1.05a2.28,2.28,0,0,0,.24.93,2.75,2.75,0,0,0,.55.73,2.83,2.83,0,0,0,.83.47,3.24,3.24,0,0,0,1,.16,3.1,3.1,0,0,0,.69-.08,3.07,3.07,0,0,0,.64-.23,4.13,4.13,0,0,0,.59-.37A6.32,6.32,0,0,0,492,320l.92.72a4.58,4.58,0,0,1-.73.73,3.85,3.85,0,0,1-.8.51,4.19,4.19,0,0,1-.89.27,5.31,5.31,0,0,1-1,.09,3.86,3.86,0,0,1-.84-.08,4.33,4.33,0,0,1-.77-.21,4,4,0,0,1-.71-.38,4.14,4.14,0,0,1-.6-.52,3.69,3.69,0,0,1-.4-.55,3.08,3.08,0,0,1-.31-.63,4.26,4.26,0,0,1-.19-.7,4.17,4.17,0,0,1-.06-.71,4.42,4.42,0,0,1,.26-1.59,3.55,3.55,0,0,1,.77-1.24,3.61,3.61,0,0,1,1.21-.82,4.18,4.18,0,0,1,1.54-.27,4.05,4.05,0,0,1,1.56.29,3.69,3.69,0,0,1,2,2.2,5.12,5.12,0,0,1,.26,1.71v.08Z"/><path class="cls-58" d="M498.94,320.62v-4.74H498v-1.09h.95V313h1.32v1.79h1.24v1.09h-1.24v4.57a1.26,1.26,0,0,0,0,.3.53.53,0,0,0,.09.2.54.54,0,0,0,.18.11,1,1,0,0,0,.26,0h.68v1.23h-.74a3.37,3.37,0,0,1-.84-.09,1.39,1.39,0,0,1-.56-.27,1.22,1.22,0,0,1-.32-.53,2.62,2.62,0,0,1-.1-.79Z"/><path class="cls-58" d="M508.1,322.13V318a5,5,0,0,0-.09-1,1.82,1.82,0,0,0-.29-.69,1.22,1.22,0,0,0-.5-.4,1.83,1.83,0,0,0-.73-.13,2.38,2.38,0,0,0-.84.14,1.54,1.54,0,0,0-.6.43,2,2,0,0,0-.35.71,3.32,3.32,0,0,0-.13,1v4.06h-1.32V311.52h1.32v4.11a3.63,3.63,0,0,1,.47-.42,3.3,3.3,0,0,1,.51-.31,3.35,3.35,0,0,1,.56-.19,3.05,3.05,0,0,1,.6-.06,2.71,2.71,0,0,1,1.13.22,2.26,2.26,0,0,1,.86.65,3,3,0,0,1,.55,1,4.6,4.6,0,0,1,.18,1.35v4.24Z"/><path class="cls-58" d="M512.26,317.84h4.88a2.24,2.24,0,0,0-.25-.82,2.28,2.28,0,0,0-.53-.67,2.17,2.17,0,0,0-.74-.44,2.56,2.56,0,0,0-.89-.15,2.66,2.66,0,0,0-.9.15,2.46,2.46,0,0,0-.76.45,2.32,2.32,0,0,0-.55.67,2.52,2.52,0,0,0-.26.83Zm0,1.05a2.65,2.65,0,0,0,.24.93,2.75,2.75,0,0,0,.55.73,2.83,2.83,0,0,0,.83.47,3.24,3.24,0,0,0,1,.16,3.1,3.1,0,0,0,.69-.08,3.07,3.07,0,0,0,.64-.23,4.13,4.13,0,0,0,.59-.37,5.12,5.12,0,0,0,.54-.51l.93.72a5.08,5.08,0,0,1-.74.73,3.6,3.6,0,0,1-.8.51,4,4,0,0,1-.89.27,5.31,5.31,0,0,1-1,.09,3.86,3.86,0,0,1-.84-.08,4.58,4.58,0,0,1-.77-.21,3.59,3.59,0,0,1-.7-.38,3.73,3.73,0,0,1-.61-.52,4.56,4.56,0,0,1-.4-.55,3.08,3.08,0,0,1-.31-.63,4.26,4.26,0,0,1-.19-.7,4.17,4.17,0,0,1-.06-.71,4.42,4.42,0,0,1,.26-1.59,3.49,3.49,0,0,1,2-2.06,4.4,4.4,0,0,1,3.09,0,3.73,3.73,0,0,1,1.23.87,3.88,3.88,0,0,1,.79,1.33,5.39,5.39,0,0,1,.25,1.71v.08Z"/><path class="cls-58" d="M524.92,320a1.71,1.71,0,0,0,.13.55,1,1,0,0,0,.26.39,1.4,1.4,0,0,0,.42.22,1.72,1.72,0,0,0,.58.09,1.76,1.76,0,0,0,.58-.09,1.11,1.11,0,0,0,.44-.24.91.91,0,0,0,.29-.36,1.21,1.21,0,0,0,.09-.48.76.76,0,0,0-.37-.62,3.41,3.41,0,0,0-1.09-.48l-.19-.05-.14,0a5.55,5.55,0,0,1-1-.38,3.11,3.11,0,0,1-.68-.47,2,2,0,0,1-.38-.59,1.9,1.9,0,0,1-.14-.73,1.77,1.77,0,0,1,.19-.82,2.13,2.13,0,0,1,.53-.69,3,3,0,0,1,.8-.45,3.12,3.12,0,0,1,1-.15,3.41,3.41,0,0,1,1,.15,2.6,2.6,0,0,1,.8.45,2.08,2.08,0,0,1,.5.72,2.45,2.45,0,0,1,.17.93v0h-1.23a1.85,1.85,0,0,0-.1-.49,1.23,1.23,0,0,0-.24-.38,1,1,0,0,0-.38-.23,1.74,1.74,0,0,0-.53-.07,2,2,0,0,0-.52.06,1,1,0,0,0-.42.22.84.84,0,0,0-.36.71,1,1,0,0,0,.06.36.66.66,0,0,0,.19.27,1.91,1.91,0,0,0,.44.23,7.24,7.24,0,0,0,.75.25l.07,0,.1,0c.42.12.77.24,1,.35a2.27,2.27,0,0,1,.6.32,2.2,2.2,0,0,1,.3.31,1.65,1.65,0,0,1,.22.36,1.88,1.88,0,0,1,.14.42,2.15,2.15,0,0,1,0,.45,2.37,2.37,0,0,1-.17.9,2.14,2.14,0,0,1-.54.74,2.34,2.34,0,0,1-.84.45,3.59,3.59,0,0,1-1.07.15,4.1,4.1,0,0,1-1.11-.14,2,2,0,0,1-.83-.45,1.74,1.74,0,0,1-.53-.72,3.16,3.16,0,0,1-.2-1Z"/><path class="cls-58" d="M534,321.11a2.61,2.61,0,0,0,1-.17,2.15,2.15,0,0,0,.81-.56,2.27,2.27,0,0,0,.55-.85,3.24,3.24,0,0,0,0-2.13,2.23,2.23,0,0,0-.55-.84A2.17,2.17,0,0,0,535,316a2.61,2.61,0,0,0-1-.19,2.53,2.53,0,0,0-1,.19,2.65,2.65,0,0,0-1.36,1.41,3.24,3.24,0,0,0,0,2.13,2.4,2.4,0,0,0,.55.85,2.32,2.32,0,0,0,.81.56,2.71,2.71,0,0,0,1,.18Zm3.78,1h-1.29v-1.19a3.46,3.46,0,0,1-.51.57,2.47,2.47,0,0,1-.62.41,2.53,2.53,0,0,1-.72.23,5.13,5.13,0,0,1-.81.06,6,6,0,0,1-.75,0,3.49,3.49,0,0,1-.72-.2,3.72,3.72,0,0,1-.65-.36,5.2,5.2,0,0,1-.58-.49,3.35,3.35,0,0,1-.44-.57,3.51,3.51,0,0,1-.33-.64,3.78,3.78,0,0,1-.19-.7,4.56,4.56,0,0,1-.06-.75,4.36,4.36,0,0,1,.25-1.54,3.29,3.29,0,0,1,.77-1.21,3.15,3.15,0,0,1,1.18-.79,4.33,4.33,0,0,1,1.52-.26,3.53,3.53,0,0,1,1.55.35,2.84,2.84,0,0,1,.66.42,3.38,3.38,0,0,1,.54.59v-1.22h1.2Z"/><path class="cls-58" d="M541.24,315.63a4.51,4.51,0,0,1,.48-.42,2.42,2.42,0,0,1,.49-.32,4.27,4.27,0,0,1,.54-.18,2.6,2.6,0,0,1,.56-.06,3,3,0,0,1,.63.07,2,2,0,0,1,.55.23,2,2,0,0,1,.49.37,3.82,3.82,0,0,1,.45.52,5.1,5.1,0,0,1,.52-.52,2.27,2.27,0,0,1,.58-.37,2.52,2.52,0,0,1,.65-.23,3.86,3.86,0,0,1,.7-.07,2.65,2.65,0,0,1,1.11.22,2.23,2.23,0,0,1,.85.65,2.89,2.89,0,0,1,.54,1,5,5,0,0,1,.17,1.34v4.24h-1.27V318a4.1,4.1,0,0,0-.1-1,1.7,1.7,0,0,0-.29-.68,1.14,1.14,0,0,0-.48-.42,1.54,1.54,0,0,0-.7-.14,2,2,0,0,0-.8.14,1.46,1.46,0,0,0-.57.42,1.88,1.88,0,0,0-.34.71,4.34,4.34,0,0,0-.11,1v4.06h-1.25V318a4.74,4.74,0,0,0-.09-1,1.86,1.86,0,0,0-.3-.68,1.12,1.12,0,0,0-.47-.42,1.54,1.54,0,0,0-.7-.14,1.94,1.94,0,0,0-.8.14,1.42,1.42,0,0,0-.58.42,1.73,1.73,0,0,0-.33.71,3.86,3.86,0,0,0-.11,1v4.06H540v-7.34h1.26Z"/><path class="cls-58" d="M553.42,317.84h4.88a2.24,2.24,0,0,0-.25-.82,2.28,2.28,0,0,0-.53-.67,2.08,2.08,0,0,0-.74-.44,2.54,2.54,0,0,0-.88-.15,2.67,2.67,0,0,0-.91.15,2.46,2.46,0,0,0-.76.45,2.32,2.32,0,0,0-.55.67,2.52,2.52,0,0,0-.26.83Zm0,1.05a2.65,2.65,0,0,0,.24.93,2.59,2.59,0,0,0,.56.73,2.66,2.66,0,0,0,.82.47,3.29,3.29,0,0,0,1,.16,3.1,3.1,0,0,0,.69-.08,3.07,3.07,0,0,0,.64-.23,3.64,3.64,0,0,0,.59-.37,5.12,5.12,0,0,0,.54-.51l.93.72a4.63,4.63,0,0,1-.74.73,3.6,3.6,0,0,1-.8.51,4.1,4.1,0,0,1-.88.27,5.5,5.5,0,0,1-1,.09,3.86,3.86,0,0,1-.84-.08,4.58,4.58,0,0,1-.77-.21,3.91,3.91,0,0,1-.7-.38,3.3,3.3,0,0,1-.6-.52,3.74,3.74,0,0,1-.41-.55,3.69,3.69,0,0,1-.31-.63,5.56,5.56,0,0,1-.19-.7,4.17,4.17,0,0,1-.06-.71,4.65,4.65,0,0,1,.26-1.59,3.56,3.56,0,0,1,2-2.06,4.4,4.4,0,0,1,3.09,0,3.73,3.73,0,0,1,1.23.87,3.88,3.88,0,0,1,.79,1.33,5.38,5.38,0,0,1,.26,1.71v.08Z"/><path class="cls-58" d="M568.63,321.11a2.54,2.54,0,0,0,1-.17,2.27,2.27,0,0,0,.82-.56,2.37,2.37,0,0,0,.54-.85,3.24,3.24,0,0,0,0-2.13,2.33,2.33,0,0,0-.54-.84,2.29,2.29,0,0,0-.82-.57,2.54,2.54,0,0,0-1-.19,2.44,2.44,0,0,0-1,.19,2.38,2.38,0,0,0-.82.57,2.33,2.33,0,0,0-.54.84,3.08,3.08,0,0,0,0,2.13,2.48,2.48,0,0,0,1.36,1.41,2.62,2.62,0,0,0,1,.18Zm3.78,1h-1.28v-1.19a4,4,0,0,1-.52.57,2.76,2.76,0,0,1-1.33.64,5.36,5.36,0,0,1-.82.06,6,6,0,0,1-.75,0,3.87,3.87,0,0,1-.72-.2,3.72,3.72,0,0,1-.65-.36,5.2,5.2,0,0,1-.58-.49,4,4,0,0,1-.44-.57,5.49,5.49,0,0,1-.33-.64,4.77,4.77,0,0,1-.19-.7,4.56,4.56,0,0,1-.06-.75,4.36,4.36,0,0,1,.25-1.54,3.42,3.42,0,0,1,.77-1.21,3.18,3.18,0,0,1,1.19-.79,4.23,4.23,0,0,1,1.51-.26,3.68,3.68,0,0,1,.82.09,3.6,3.6,0,0,1,.74.26,3,3,0,0,1,.65.42,3.38,3.38,0,0,1,.54.59v-1.22h1.2Z"/><path class="cls-58" d="M575.37,320a1.71,1.71,0,0,0,.13.55,1,1,0,0,0,.26.39,1.4,1.4,0,0,0,.42.22,1.72,1.72,0,0,0,.58.09,1.76,1.76,0,0,0,.58-.09,1.11,1.11,0,0,0,.44-.24.91.91,0,0,0,.29-.36,1.21,1.21,0,0,0,.09-.48.76.76,0,0,0-.37-.62,3.41,3.41,0,0,0-1.09-.48l-.2-.05-.13,0a5.27,5.27,0,0,1-1-.38,3.11,3.11,0,0,1-.68-.47,2,2,0,0,1-.39-.59,2,2,0,0,1,.05-1.55,2.28,2.28,0,0,1,.53-.69,3.22,3.22,0,0,1,.81-.45,3,3,0,0,1,1-.15,3.41,3.41,0,0,1,1,.15,2.72,2.72,0,0,1,.8.45,2.08,2.08,0,0,1,.5.72,2.45,2.45,0,0,1,.17.93v0H578a1.52,1.52,0,0,0-.09-.49,1.23,1.23,0,0,0-.24-.38.94.94,0,0,0-.39-.23,1.68,1.68,0,0,0-.52-.07,2.15,2.15,0,0,0-.53.06,1,1,0,0,0-.41.22.84.84,0,0,0-.36.71,1,1,0,0,0,.06.36.58.58,0,0,0,.19.27,2,2,0,0,0,.43.23c.2.08.45.16.76.25l.07,0,.1,0c.42.12.77.24,1.05.35a2.27,2.27,0,0,1,.6.32,2.2,2.2,0,0,1,.3.31,1.65,1.65,0,0,1,.22.36,1.88,1.88,0,0,1,.14.42,2.15,2.15,0,0,1,0,.45,2.19,2.19,0,0,1-.18.9,1.91,1.91,0,0,1-.54.74,2.29,2.29,0,0,1-.83.45,3.59,3.59,0,0,1-1.07.15,4.1,4.1,0,0,1-1.11-.14,2.14,2.14,0,0,1-.84-.45,1.81,1.81,0,0,1-.52-.72,2.9,2.9,0,0,1-.2-1Z"/><path class="cls-19" d="M362.87,305.25a11.34,11.34,0,1,1-11.33,11.34A11.34,11.34,0,0,1,362.87,305.25Z"/><path class="cls-59" d="M362.87,306.53a10.06,10.06,0,1,1-10.06,10.06A10.06,10.06,0,0,1,362.87,306.53Z"/><path class="cls-19" d="M365.9,316a3.51,3.51,0,0,1-1.75.37,8.41,8.41,0,0,1,.64-1.71,2.49,2.49,0,0,0,1.15.55l.27.08c.09,0,.21.09.22.18S366.23,315.81,365.9,316Z"/><path class="cls-19" d="M363.71,319.4a3.71,3.71,0,0,0,1.46,2.36c-.61.25-2.55-.92-3.15-2.52a7.74,7.74,0,0,1-.46-5,.43.43,0,0,1,.49-.22,4.3,4.3,0,0,0,2.55.45A7.39,7.39,0,0,0,363.71,319.4Z"/><path class="cls-19" d="M367.83,321a2.08,2.08,0,0,1,1,.19,2.94,2.94,0,0,0-.52.57c-.45.57-1,1.21-1.92,1l-.47-.11.35.33a2.05,2.05,0,0,1,.68,1.82,2.43,2.43,0,0,0,0,.72,3.53,3.53,0,0,1-2.08-2.32c-4.72.36-7.31-4.55-7.87-7.76a1.83,1.83,0,0,0-1.72-.44c-.16,0-.32.06-.36,0s-.05-.13,0-.31a3.84,3.84,0,0,1,2.1-2.28,9.06,9.06,0,0,1,2-3.63,4.48,4.48,0,0,1,4.84-.64,3.35,3.35,0,0,1,1.82,3.13,1,1,0,0,0,.68.65c.29.11.36.16.32.32s-.09.23-.64.49l-.07.16a.66.66,0,0,1-.25.8,3.54,3.54,0,0,1-3.54,0,.69.69,0,0,0-.81.35,7.68,7.68,0,0,0,.37,5.45,5.28,5.28,0,0,0,3.2,2.84l.14,0A3.74,3.74,0,0,1,367.83,321Z"/><path class="cls-59" d="M365.68,312.75c.23,1.05-2.43,1.43-3,.69A6.91,6.91,0,0,0,365.68,312.75Z"/><path class="cls-59" d="M361.69,310.28a.61.61,0,0,1,.86-.23A.45.45,0,0,0,361.69,310.28Z"/><path class="cls-59" d="M361.88,312.16c-.05-.25,0-.74.35-.77s.54.31.58.7-.11.57-.35.63S361.94,312.44,361.88,312.16Z"/><path class="cls-59" d="M362,312.44c.14.36,0-.86.31-1s.75.48.7.92c.11-.18.13-1-.4-1.21S361.58,311.42,362,312.44Z"/><path class="cls-19" d="M362.07,311.87c0-.12,0-.22.14-.23s.2.07.21.18,0,.22-.14.23S362.08,312,362.07,311.87Z"/><path class="cls-59" d="M362.75,311.39a.42.42,0,0,0,.45-.17.36.36,0,0,1-.28.39Z"/><path class="cls-59" d="M364.48,311.42a1,1,0,0,0-.64,1,1.59,1.59,0,0,1,1.66-.88C365.44,311.33,365,311.19,364.48,311.42Z"/><path class="cls-19" d="M368.49,318.9l1.36,2.38a7.71,7.71,0,0,1-.81,1l-2.59-.83Z"/><path class="cls-19" d="M355,312.21l2.13-2.64,11.51,9.32c.45.63-1.37,2.9-2.14,2.64Z"/><path class="cls-59" d="M357.24,310l11.08,9c.14.21,0,.7-.42,1.28s-1,1.06-1.34,1l-11.06-9Zm9.18,11.61c.49.17,1.24-.46,1.77-1.16.2-.27.85-1.2.52-1.67v0h0l-11.51-9.32-.09-.08-.08.1-2.14,2.64-.08.1.1.08,11.51,9.32h0Z"/><path class="cls-19" d="M355,312.19c-.36-.29-.17-1.11.42-1.84s1.36-1.09,1.71-.8.17,1.12-.42,1.84S355.32,312.48,355,312.19Z"/><path class="cls-59" d="M355.15,312a.39.39,0,0,1-.11-.25,1.91,1.91,0,0,1,.5-1.21,1.86,1.86,0,0,1,1.08-.73.29.29,0,0,1,.26.06.34.34,0,0,1,.11.24,1.85,1.85,0,0,1-.5,1.21,1.92,1.92,0,0,1-1.07.74A.38.38,0,0,1,355.15,312Zm1.63-.49a2.35,2.35,0,0,0,.62-1.57.59.59,0,0,0-.22-.44.6.6,0,0,0-.48-.13,2.41,2.41,0,0,0-1.41.94,2.35,2.35,0,0,0-.62,1.57.62.62,0,0,0,.18.44.74.74,0,0,0,.52.13A2.32,2.32,0,0,0,356.78,311.47Z"/><path class="cls-19" d="M370.2,321.49l.69,1.38-1.44-.46A5.67,5.67,0,0,0,370.2,321.49Z"/><path class="cls-19" d="M358.88,316.22a2.85,2.85,0,0,0,2.95-.89c.39-.68,1.08,2.07-.88,3Z"/><path class="cls-59" d="M359.28,316.46a3.09,3.09,0,0,0,2.66-1.07s0,0,0,0h0s.15.19.18.6a2.51,2.51,0,0,1-1.1,2.18l.14.21a2.8,2.8,0,0,0,1.17-2.69c0-.19-.14-.51-.35-.55s-.18,0-.28.17a2.91,2.91,0,0,1-2.41,1Z"/><polygon class="cls-60" points="366.47 321.64 370.53 323.07 370.84 322.87 366.91 321.36 366.47 321.64"/><path class="cls-59" d="M359.25,316.52a3.07,3.07,0,0,0,2.67-1c.37.08.13,1.83-1,2.54a.18.18,0,0,0,.24.26,2.83,2.83,0,0,0,1.17-2.69c0-.19-.14-.51-.35-.55s-.18,0-.28.17a2.88,2.88,0,0,1-2.47.9C359.09,316.16,359,316.45,359.25,316.52Z"/><polygon class="cls-60" points="368.5 319.28 370.86 322.9 371.09 322.5 368.82 319.02 368.5 319.28"/><path class="cls-19" d="M0,0V648H648V0ZM-85-85H733V733H-85Z"/></svg>