<svg id="Layer_1" data-name="Layer 1" xmlns="http://www.w3.org/2000/svg" xmlns:xlink="http://www.w3.org/1999/xlink" viewBox="0 0 800 800"><defs><style>.cls-1{fill:url(#New_Gradient_1);}.cls-2{fill:#b53325;}.cls-10,.cls-11,.cls-13,.cls-14,.cls-2,.cls-3,.cls-4,.cls-5,.cls-6,.cls-7,.cls-8,.cls-9{fill-rule:evenodd;}.cls-3{fill:#f9ac94;}.cls-4{fill:#f3746d;}.cls-5{fill:#e44f2a;}.cls-6{fill:#fbc1b2;}.cls-7{fill:#f6957a;}.cls-8{fill:#fff;}.cls-9{fill:#f4816e;}.cls-10{fill:#59595c;}.cls-11{fill:#d5d3d3;}.cls-12{fill:#b5b3b3;}.cls-13{fill:#feece3;}.cls-14{fill:#f48278;}</style><linearGradient id="New_Gradient_1" x1="180.46" y1="183.39" x2="594.63" y2="583.35" gradientTransform="translate(766.25 -8.74) rotate(89.31)" gradientUnits="userSpaceOnUse"><stop offset="0" stop-color="#febe10"/><stop offset="0.55" stop-color="#fbef4b"/><stop offset="1" stop-color="#faf181"/></linearGradient></defs><title>Artboard 2</title><ellipse class="cls-1" cx="387.54" cy="383.37" rx="287.88" ry="287.89" transform="translate(-0.43 766.3) rotate(-89.31)"/><path class="cls-2" d="M304.54,583.64c-5.69-2.44-21.77-2.29-27.64,8.57s2.4,49.26,15.41,43.84S318.8,614.92,317,607.39,310.22,586.07,304.54,583.64Z"/><path class="cls-3" d="M292.44,465c-8.66,26.6,30.45,51.48,22.14,58.07-6.66,5.29-13.16,7-16.31,12.53-6.22,10.88,9.76,38,3.29,44.32-15.07,14.78,9.69,41.06,16.85,32.92,9.64-11,12.33-21.15,12.49-32.29.15-9.76-1.3-22.08,10.77-34,20.92-20.65,14.43-32.79,51.78-54.92C446.7,460.1,317,389.5,292.44,465Z"/><path class="cls-4" d="M545.64,386.28c46.65,5.48,41,41.07,62.2,45.47-1.92,21.3-35.24,25-53.71,18,10.74,37.85-6.69,75.24-25.55,94.92q-5.61-25.09-17.52-28c-3.74,22-15.48,41.22-38.49,50.3l-6.21-29.49c-13.79,21.14-32.66,29-53.63,38.76l7.3-29.55Q390.42,578,365.68,580.58l3.08-24.21c-18.49,20.06-32.18,20.09-44.94,24.72l1.92-26c-53.81,48.73-80.11,17.07-67.82-55.67C380.75,533.86,469.28,483,545.64,386.28Z"/><path class="cls-5" d="M404.62,529.21c-7,27.32-23.18,44.08-38.94,51.37,35.7-6.81,58.65-29.1,59.38-48.29C425.68,516.06,407.91,516.3,404.62,529.21Z"/><path class="cls-5" d="M463.64,516.14c-3.1,28-16.81,46.88-31.41,56.29,34.41-11.71,54-37,52.09-56.09C482.67,500.19,465.11,502.9,463.64,516.14Z"/><path class="cls-5" d="M349.4,528.31c-2.71,24.47-14.69,40.93-27.43,49.15,30-10.23,47.18-32.29,45.47-49C366,514.39,350.68,516.75,349.4,528.31Z"/><path class="cls-5" d="M555.39,430.89c22.54,9.89,39,7.72,52.49.8-6.93,33.75-47.77,24.73-61.37,14.92C535,438.31,544.74,426.22,555.39,430.89Z"/><path class="cls-2" d="M627.7,421.33c-5.17,3.18-14.37,15.72-9.4,25.72s39.36,22.89,42.71,10.09-7.89-34.33-14.73-36.75S632.87,418.16,627.7,421.33Z"/><path class="cls-6" d="M526.76,410.68c15.45-2.18,31.51-47.31,49.85-47.62,25.95-.44,55.72,20.95,64.28,24.72,12.8,5.64,17.65,30.55,14.1,44.54-2.18,8.6-33.09.17-32.84-5.87.71-17.1-16.93-21.77-25.11-19.19-6.95,2.2-21.55,52.68-40.21,55.72Z"/><path class="cls-5" d="M278.87,472.8c-38.42-71.68-150.63-30.8-178-117.95-3.88,49,11.91,103.48,60.6,131.1C190.82,502.57,243.54,510.5,278.87,472.8Z"/><path class="cls-2" d="M253.78,487.58s-1.74-33.31-13.94-82.44c-5.76-23.23-16.38-29.41-40.78-38.39s-44.74-55.1-12.47-96.09c-40.13,19.33-63,73.47-54.09,121.26C142.71,446.38,183.72,491.48,253.78,487.58Z"/><path class="cls-6" d="M477,321c87.3-14,100.38,93.77,64.26,155.67-39,66.87-107.41,54.24-178.42,66.75-64.47,11.36-64.56,10.63-80.53-45C246.61,374.11,416.61,330.67,477,321Z"/><path class="cls-2" d="M201.42,622.88c-5.87-5.14-25.22-11.23-36.5-.49s-16.32,60,1.4,58.6,40-15,40.83-24.76S207.29,628,201.42,622.88Z"/><path class="cls-6" d="M233.17,475.82c-20.76,28.55,16.46,73.64,3.92,78.31-10.06,3.75-18.53,3.29-24.46,8.67-11.7,10.63-3.1,49.37-13.33,54.45-23.84,11.86-4.38,53,7.38,46.06,15.84-9.4,23-20.56,27.58-33.87,4-11.65,7.05-27,26.17-36.58,33.15-16.61,30.11-33.71,83.53-45.7C420.15,530.07,292.08,394.82,233.17,475.82Z"/><path class="cls-4" d="M383.31,412.38c15.57-26-18.83-63.2-57.4-64-39.55-.81-47.28-26.17-47.54-51.27-27.62-2.43-43.06,54.49-.39,73.25C318.61,388.23,350,358.37,383.31,412.38Z"/><path class="cls-4" d="M367.11,412.87c-7.05-40.1-52.92-39.38-91.08-24.69s-78,16.31-78.54-17.63c-27.81,31.59-4.59,72.67,62.09,61.17C307.29,423.49,317,397.85,367.11,412.87Z"/><path class="cls-5" d="M366.34,411.54c-17.78-31.3-54-21.57-79.78-2s-60.35,19.42-67.68,1.27c-12.46,31.33,18.47,60.22,67.88,37.54C322.11,432.14,322,409.29,366.34,411.54Z"/><path class="cls-4" d="M351.14,417.84c-20.8-19.36-43.46-6-56.24,12.58S258,455,248,443.21c-.31,24.68,32.39,35.37,60.81,10.41C329.13,435.76,319.58,424,351.14,417.84Z"/><path class="cls-4" d="M344.23,390.24c-25.4,23.68,6.88,59.85,34.28,34.57C408.64,397,369.68,366.51,344.23,390.24Z"/><path class="cls-5" d="M358.15,421.2c13.67-2.56,21.11-23.26,10.5-37.65-10.95-14.84-37.84-16.43-67.23-14.79-46.79,2.62-74.14-22.78-53.31-59.38-46.66,4-61.08,84,14.43,84.65,25.85.23,78.2-13.75,92.7-3.33C370.05,401.33,367.11,412.87,358.15,421.2Z"/><path class="cls-2" d="M595.79,542.36c1.55,5.87,11.39,18.22,23.34,16.2s36.65-31.63,24.6-38.41-32.36-7.72-37.13-1.8S594.23,536.49,595.79,542.36Z"/><path class="cls-6" d="M549.9,427.21c22.89,37.86,56.28,80.21,67.52,86.19,12.78,10-7.51,36.7-23.1,29.48-24.3-10.75-64.46-32.57-91-60.81Z"/><path class="cls-5" d="M342.9,217.64c-3.4-19.44,18.88-38.91,49.31-29.26l-16.38,46.81Z"/><path class="cls-2" d="M379.82,198.84s-33-4.3-36.48,12,8.77,17,7.65,23.87-7.27,6.38-6.87,17.76,19,22.12,19,22.12Z"/><path class="cls-5" d="M487.64,189.64c13.24-4.26,57.28-15.38,71.12,6.42,9,14.15,1,26.9,5.33,35.58,7.51,14.94,55.39,36.73,30.62,77.21-27.05-24.56-81.3-39.51-81.3-39.51Z"/><path class="cls-2" d="M496.16,199.56c7.8-2.76,40.48-14.38,52.51,3.75,9.15,13.79-6.8,23.57.94,36.05s60.13,37.34,45.1,69.49c-19.3-12.08-48.18-25.19-64-19.87C514.37,277.48,496.16,199.56,496.16,199.56Z"/><path class="cls-2" d="M369.35,355.63c1.76,16.77,9.58,50.85,18.07,59.91,3.14-7.61,8.51-9.79,8.51-9.79q1,23.19,15.65,43.79l10.91-13.81q7.42,29.34,16.84,39-.79-10.44,5.86-21.62,18.57,15.06,28.07,53.44c17.06-10.05,28.27-30.05,34-49.92q7.23,7.95,8.79,22.93,15.93-8.85,31.29-43.43,4.16,3.43,7.57,21.83,18.09-24.54,11.92-62.81l16.56,11.5q2-24.66-9.67-42.69,10.68,7.49,22.33,1.27Q571.56,350.7,542.1,302S367.58,338.85,369.35,355.63Z"/><path class="cls-5" d="M427.84,168c-36.18,4.93-61.39,32.67-68.07,59.68-4.14,16.76-2.72,50.63-17.32,56.4,6.83,5.71,15.32.77,15.32.77s-3.67,15.79-12.25,25.27c8.42,9.95,17,5.46,17,5.46s-10.19,19.91-16.74,22.18c3.61,5.82,8.91,6.81,14.26,4.09-4.93,13.71-.67,29.7,7,43.46q3.21-16.87,12-22.52a66.26,66.26,0,0,0,7,29.35q8.06-15,18.29-16.79,6.1,11.7-1.71,29,4.88,2.76,18-4.71.3,12.15,14.94,23.62,6-15.73,11.14-26.57,5.81,11.33,23.2,11.94-13.27-23.07,11.42-38,10.25,6.87,20.31,21.39,10.36-8,10.58-23.14a188.83,188.83,0,0,1,22,17.43q8.58-19.74,3.63-32.44,11,2.89,21.35,17.46,4.77-20.28-5.88-36.88,13,6.36,25.48-.88A83.2,83.2,0,0,1,557.6,308.1q8.73,1.45,14-2.35-12.48-9.66-19.12-31.64,14.13-.89,19.84-6.14s-29.73-20.58-39.8-42.81C511.54,178.78,474.36,161.65,427.84,168Z"/><path class="cls-6" d="M428,191.59c-45.16,2.35-83,51.27-59.68,82.25-1.42,3.5-5.25,2.83-7.78,2.65,1,9.57,2.92,20.52,8.79,26-2.3,1.13-3.51,1.18-7,.24,2.9,7.81,6.18,14,13.2,18.53q-1.42,3-7.71,5,6.58,12,22.52,11.86-3.72,5.74-13.51,9.14c7.72,7.85,18.11,9.15,34.82,6.76-7.1,7.22,1.36,20.51,13.6,19.63,15.55-1.12,26.13-10.74,21-22.8,15.55,5.1,41.23,3.62,53.38-6.28a37.09,37.09,0,0,1-17-12.05,77.56,77.56,0,0,0,35-16.23,36.62,36.62,0,0,1-15.14-5q19.54-9.81,24.38-25.33a21.73,21.73,0,0,1-14.34-1c8.93-6.7,12.41-22,3-48.65C509.74,220.26,488.56,188.45,428,191.59Z"/><path class="cls-7" d="M378.47,299.93c1.25,17.66,12.4,40.07,46.23,39.65,41.1-.5,52.72-31.63,51.81-48.23C452,302.06,391.68,320.83,378.47,299.93Z"/><path class="cls-5" d="M380.52,302.44c2.26,13.63,19,25.84,41.73,25.34,29.64-.66,47.84-19.5,48.82-28.57C448.27,308.38,401.86,314.57,380.52,302.44Z"/><path class="cls-8" d="M392.09,313c-.66,7.53.57,16.24,6.3,18.12-1.16-4.87-1.17-11.78,1.65-16.78Z"/><path class="cls-8" d="M450.7,309.18c2,7.3,2.26,16.1-3.05,18.94.29-5-.9-11.81-4.55-16.24Z"/><path class="cls-7" d="M371.21,288.4c4.15,19.09,16.12,30.48,49.9,28.6,41.6-2.3,60-22.5,68-35.16-8.46,2.56-14.53,8.7-22.37,9-6.07,10.85-36.18,17.83-39-2-9.51-7.51-21-2.54-21.92,1.68C409.66,304.3,388.45,317.68,371.21,288.4Z"/><path class="cls-9" d="M403.85,278.3c3.65-9.41,18.77-14.09,28.75-5.38,16.22-6.43,30.1-2,27.39,10.15s-25.72,16.09-44.58,4.84c-5.13,7.52-16.43,11.57-24.18,9.44-8.11-2.23-13.23-9.07-10-16.51C384.68,272.89,397.39,273.19,403.85,278.3Z"/><path class="cls-8" d="M400.56,253.37c1.09-9.83-1.46-21.58-11.37-22.52-10.76-1-13.26,9.21-14.35,19s2.9,18.8,10.55,19.36C392.71,269.78,399.47,263.19,400.56,253.37Z"/><path class="cls-10" d="M401.17,252.7c.66-6.5-1.46-18.76-10.18-18.39-9.48.4-12,9.11-11.94,18.9s7,15.83,10.75,15.61C396.74,268.4,400.44,259.93,401.17,252.7Z"/><path class="cls-10" d="M399.65,259.18c.78-9.84-1.65-25.39-10-27.53-11-2.82-17.37,16-14.25,28.57-2.93-4.32-5.45-24.21,6.7-30.35C392.22,224.78,404.81,230.71,399.65,259.18Z"/><path class="cls-8" d="M390.59,238.63c-4.86.37-4.58,9.76-.08,9.52C395.92,247.86,395.44,238.26,390.59,238.63Z"/><path class="cls-5" d="M409,291.16c-3.15-9.24-11.22-9-13.16-5.44C391.63,293.31,402.5,298.92,409,291.16Z"/><path class="cls-5" d="M426,289c2.81-9.45,11.78-9.76,14.19-6.39C445.42,289.89,433.78,296.29,426,289Z"/><path class="cls-8" d="M485.68,249.94c1.32-10.93-1.68-24-13.41-25-12.75-1.11-15.73,10.27-17,21.2s3.39,20.89,12.45,21.5C476.34,268.2,484.36,260.86,485.68,249.94Z"/><path class="cls-10" d="M479.6,250.19c.66-7.15-1.56-20.67-10.59-20.28-9.82.43-12.37,10-12.33,20.8s7.24,17.45,11.17,17.21C475,267.47,478.85,258.16,479.6,250.19Z"/><path class="cls-10" d="M484.59,256.4c1-10.94-1.82-30.22-12.88-31.76-13.29-1.84-19.88,18.52-15.8,33-3.46-4.79-6.78-29.16,7.95-35.37C477.76,216.38,491,229.35,484.59,256.4Z"/><path class="cls-8" d="M468.6,234.68c-5,.39-4.71,10.73-.06,10.48C474.14,244.85,473.63,234.28,468.6,234.68Z"/><path class="cls-9" d="M416.45,254.45c-9.19.78-17.78,8.07-14.94,23,2.55,13.34,7.88,17,14.72,16.84,10.2-.19,18.15-11.77,17.2-24.11C432.58,259.26,425.64,253.67,416.45,254.45Z"/><path class="cls-2" d="M422.6,201.23c-7,9.23-27.64.5-29.15-12,7.34,4.76,16.36-1,23.32-1.67C422.71,187,426.85,195.58,422.6,201.23Z"/><path class="cls-2" d="M450.2,198.85C459.32,211,480.55,198.4,486,183c-8.63,7.76-19.25-4.09-28.21-2.11C446.92,183.29,444.63,191.44,450.2,198.85Z"/><path class="cls-5" d="M431.31,211.43c-2.18,14.52-31.61,15.13-39.3,1.8,11.29,2.46,11.57-8.7,24-13.32C423.28,197.2,432.64,202.56,431.31,211.43Z"/><path class="cls-5" d="M446.55,189.39c14.71,6.12,15.86,28.4,6.28,36.56,1.7-9.59-12.75-16.22-18.32-24.58C429.78,194.25,437.55,185.65,446.55,189.39Z"/><path class="cls-2" d="M441.86,202.86C451.66,214,438.51,237,424.39,242c7.69-9.14-1.52-20.73-1.38-31.07C423.14,202.15,435.88,196,441.86,202.86Z"/><path class="cls-11" d="M417.6,198.6c-4.87-29.46-8.24-75.57-8.43-82.76-.27-10.57,3.95-11.69,8.51-2.48,5.49,11.1,32,60.33,35.15,70.09C456.22,204,422.91,211.58,417.6,198.6Z"/><path class="cls-12" d="M421.85,121.5A33,33,0,0,1,410,129.43l-.3-4.19A29.7,29.7,0,0,0,420,118Zm20.41,39.34c-4.36,11.42-16.06,20.37-27,21.53l-.54-4.31A32,32,0,0,0,440,156.35Zm-11.08-21.5a33.05,33.05,0,0,1-19,15.47l-.39-4.09a29.45,29.45,0,0,0,17.38-15.2Z"/><path class="cls-13" d="M431.46,295.79c13.61-14.09,39.06-11.57,48.75,15.94,8.11,23,12.17,81.94,47.2,90.77,16.72,4.22,29.15-15.23,12.78-29.71,19.63,3.89,14.48,42.52-16.16,33.43-34.63-10.27-41.75-76.54-46.91-91.83C471.3,297.13,454.85,282.36,431.46,295.79Z"/><path class="cls-13" d="M411.86,296.32c-15.69-7.12-53.35,2-65.49,43.85-11.75,40.53,48.49,82.17,82.28,48.38-43.17,31.18-86.35-17.87-77.09-47.34C361.75,308.78,386.13,294.42,411.86,296.32Z"/><path class="cls-14" d="M273,481.44c1.23,4.94,6.75,8.73,13,7.16,7.37-1.83,11-7.71,10.27-13,3.38,5.46.14,14.23-9.36,16.6C278.29,494.38,271.58,488.31,273,481.44Z"/><path class="cls-14" d="M296.3,475.63c1.24,4.94,6.76,8.73,13,7.16,7.36-1.83,11-7.71,10.27-13,3.37,5.45.14,14.23-9.36,16.6C301.6,488.57,294.9,482.5,296.3,475.63Z"/><path class="cls-14" d="M249.67,487.25c1.24,4.95,6.76,8.73,13,7.17,7.36-1.84,11-7.72,10.27-13,3.37,5.45.14,14.22-9.37,16.59C255,500.19,248.27,494.13,249.67,487.25Z"/><path class="cls-14" d="M287.43,491.71c1.24,4.94,6.76,8.72,13,7.16,7.36-1.84,11-7.71,10.27-13,3.37,5.45.14,14.23-9.36,16.6C292.74,504.65,286,498.58,287.43,491.71Z"/><path class="cls-14" d="M310.75,485.9c1.23,4.94,6.75,8.72,13,7.16,7.36-1.84,11-7.71,10.26-13,3.38,5.45.15,14.22-9.36,16.6C316.05,498.84,309.34,492.77,310.75,485.9Z"/><path class="cls-14" d="M264.12,497.52c1.23,4.94,6.75,8.73,13,7.16,7.36-1.83,11-7.71,10.26-13,3.38,5.45.15,14.23-9.36,16.6C269.42,510.46,262.71,504.39,264.12,497.52Z"/><path class="cls-14" d="M302.39,500.91c1.23,4.94,6.76,8.73,13,7.16,7.36-1.83,11-7.71,10.27-13,3.37,5.45.14,14.23-9.37,16.6C307.69,513.85,301,507.78,302.39,500.91Z"/><path class="cls-14" d="M279.08,506.72c1.23,4.94,6.75,8.73,13,7.17,7.37-1.84,11-7.72,10.27-13,3.37,5.45.14,14.22-9.36,16.59C284.38,519.66,277.67,513.59,279.08,506.72Z"/><path class="cls-14" d="M293.08,515.44c1.23,4.94,6.76,8.72,13,7.16,7.36-1.84,11-7.71,10.27-13,3.37,5.45.14,14.23-9.37,16.6C298.38,528.38,291.67,522.31,293.08,515.44Z"/><path class="cls-14" d="M343.88,449.29c1.23,4.95,6.75,8.73,13,7.17,7.36-1.84,11-7.72,10.26-13,3.38,5.45.15,14.22-9.36,16.59C349.18,462.23,342.47,456.16,343.88,449.29Z"/><path class="cls-14" d="M367.19,443.48c1.24,4.94,6.76,8.73,13,7.16,7.36-1.83,11-7.71,10.27-13,3.37,5.46.14,14.23-9.37,16.6C372.5,456.42,365.79,450.35,367.19,443.48Z"/><path class="cls-14" d="M358.32,459.56c1.24,4.94,6.76,8.72,13,7.16,7.36-1.83,11-7.71,10.27-13,3.37,5.45.14,14.23-9.36,16.6C363.63,472.5,356.92,466.43,358.32,459.56Z"/><path class="cls-14" d="M373.28,468.76c1.23,4.95,6.76,8.73,13,7.16,7.36-1.83,11-7.71,10.27-13,3.37,5.45.14,14.22-9.37,16.59C378.58,481.71,371.88,475.63,373.28,468.76Z"/><path class="cls-14" d="M350,474.58c1.23,4.94,6.75,8.72,13,7.16,7.37-1.84,11-7.71,10.27-13,3.37,5.45.14,14.22-9.36,16.59C355.27,487.52,348.56,481.44,350,474.58Z"/><path class="cls-14" d="M424.32,478.64c1.23,4.94,6.75,8.72,13,7.16,7.37-1.84,11-7.72,10.28-13,3.37,5.45.14,14.22-9.37,16.59C429.62,491.58,422.91,485.5,424.32,478.64Z"/><path class="cls-14" d="M415.45,494.71c1.23,5,6.75,8.73,13,7.16,7.36-1.83,11-7.71,10.27-13,3.37,5.45.14,14.22-9.37,16.59C420.75,507.65,414.05,501.58,415.45,494.71Z"/><path class="cls-14" d="M430.41,503.92c1.23,4.94,6.75,8.72,13,7.16,7.37-1.84,11-7.71,10.28-13,3.37,5.45.13,14.23-9.37,16.6C435.71,516.86,429,510.79,430.41,503.92Z"/><path class="cls-14" d="M407.09,509.73c1.23,4.94,6.76,8.72,13,7.16,7.36-1.83,11-7.71,10.27-13,3.37,5.45.14,14.23-9.37,16.6C412.39,522.67,405.69,516.6,407.09,509.73Z"/><path class="cls-14" d="M262.89,531c.44,5.07,5.3,9.68,11.74,9.11,7.56-.66,12-5.9,12.17-11.2,2.48,5.91-2.08,14.07-11.84,14.93C266.1,544.59,260.42,537.55,262.89,531Z"/><path class="cls-14" d="M276.22,542.41c.44,5.08,5.31,9.68,11.74,9.11,7.56-.66,12-5.9,12.18-11.2,2.48,5.91-2.09,14.07-11.85,14.93C279.43,556,273.76,549,276.22,542.41Z"/><path class="cls-14" d="M252.28,544.5c.45,5.08,5.31,9.68,11.75,9.12,7.56-.66,12-5.9,12.17-11.21,2.48,5.92-2.08,14.08-11.85,14.93C255.49,558.12,249.82,551.07,252.28,544.5Z"/><path class="cls-14" d="M350.59,501.8c1.23,4.94,6.76,8.72,13,7.16,7.36-1.84,11-7.71,10.27-13,3.37,5.45.14,14.23-9.37,16.6C355.89,514.74,349.19,508.67,350.59,501.8Z"/><path class="cls-14" d="M342.23,516.81c1.24,4.94,6.76,8.73,13,7.16,7.37-1.83,11-7.71,10.27-13,3.37,5.46.14,14.23-9.37,16.6C347.54,529.75,340.83,523.68,342.23,516.81Z"/><path class="cls-8" d="M456.23,131.59c17.62-2.4,18.85-4.15,20.27-21,2.36,16.31,3.78,18.94,21,20.27-17.16,1.87-18.49,3.83-20.27,21C474.86,134.54,474.25,132.39,456.23,131.59Z"/><path class="cls-8" d="M290.35,166.72c31.84-4.85,34.06-8.41,36.62-42.51,4.27,33,6.83,38.36,37.93,41.05-31,3.78-33.41,7.76-36.62,42.51C324,172.7,322.91,168.33,290.35,166.72Z"/><path class="cls-8" d="M354,135.7c17.62-2.4,18.84-4.15,20.27-21,2.36,16.31,3.77,18.94,21,20.27-17.15,1.87-18.49,3.83-20.26,21C372.63,138.65,372,136.5,354,135.7Z"/><path class="cls-8" d="M269.57,211.19c16.81-2.28,18-4,19.34-20,2.25,15.56,3.6,18.07,20,19.34-16.37,1.78-17.64,3.65-19.33,20C287.34,214,286.76,212,269.57,211.19Z"/></svg>